<?xml version="1.0" encoding="utf-8"?>
<!-- Generator: Adobe Illustrator 16.0.0, SVG Export Plug-In . SVG Version: 6.00 Build 0)  -->
<!DOCTYPE svg PUBLIC "-//W3C//DTD SVG 1.1//EN" "http://www.w3.org/Graphics/SVG/1.1/DTD/svg11.dtd">
<svg version="1.1" id="bed_xA0_Image_1_" xmlns="http://www.w3.org/2000/svg" xmlns:xlink="http://www.w3.org/1999/xlink" x="0px"
	 y="0px" width="1490px" height="1342px" viewBox="0 0 1490 1342" enable-background="new 0 0 1490 1342" xml:space="preserve">
<g>
	
	<path fill-rule="evenodd" clip-rule="evenodd" fill="#252525" d="M1200.219,308.465c5.884,18.881,11.84,37.739,17.639,56.646
		c48.695,158.781,97.359,317.573,146.039,476.36c32.331,105.457,64.674,210.911,97.004,316.368c0.536,1.75,1.123,3.505,1.43,5.301
		c1.433,8.396-2.896,13.58-11.389,13.576c-51.328-0.026-102.655-0.087-153.983-0.131c-189.146-0.163-378.29-0.307-567.436-0.491
		c-143.314-0.14-286.63-0.343-429.944-0.491c-88.323-0.092-176.647-0.135-264.97-0.199c-0.5-0.001-1-0.002-1.5-0.004
		c-10.741-0.036-14.995-5.823-11.671-16.258c3.583-11.249,7.395-22.427,11.15-33.62C85.202,968.68,137.829,811.842,190.445,655
		c39.003-116.265,77.994-232.533,116.996-348.798c0.526-1.569,1.128-3.113,1.689-4.666c0.13,0.62,0.265,1.235,0.399,1.852
		c0.671,3.395,3.403,2.048,5.254,2.051c45.236,0.072,90.474,0.054,135.711,0.051c1.661-0.354,3.734,0.972,4.948-1.212
		c23.691-0.646,47.378-0.01,71.066,0.287c0.705,3.017,3.169,1.884,4.915,1.885c61.027,0.06,122.056,0.059,183.083,0.029
		c1.735-0.001,3.722,0.675,5.08-1.156c0.295-0.174,0.613-0.241,0.953-0.201c3.638,0.527,7.277,0.504,10.918,0.026
		c0.705-0.144,1.41-0.286,2.115-0.43c2.154,0.116,4.308,0.316,6.463,0.336c19.822,0.181,39.646,0.331,59.469,0.49
		c0.676,3.011,3.125,1.896,4.867,1.905c15.379,0.079,30.759,0.043,46.139,0.041c48.131,0.003,96.261,0.017,144.391-0.024
		c1.896-0.002,4.042,0.786,5.639-1.047c2.675-0.201,5.349-0.402,8.022-0.603c4.294,0.117,8.588,0.3,12.883,0.339
		c20.356,0.183,40.714,0.327,61.071,0.484c0.629,2.718,2.848,1.812,4.484,1.814C1124.741,308.491,1162.48,308.473,1200.219,308.465z
		"/>
	<path fill-rule="evenodd" clip-rule="evenodd" fill="#252525" d="M743.571,1178.648c235.49,0,470.979,0,706.469,0
		c11.19,0,13.711,3.069,13.018,14.071c-1.393,22.109-2.409,44.242-3.554,66.366c-1.102,21.293-2.098,42.592-3.294,63.88
		c-0.407,7.264-4.048,10.461-11.212,10.533c-0.834,0.009-1.667,0.001-2.5,0.001c-464.812,0-929.625,0-1394.438,0
		c-10.396,0-12.92-1.968-13.858-12.455c-1.766-19.73-3.162-39.496-4.698-59.248c-1.562-20.083-3.107-40.168-4.66-60.252
		c-0.347-4.482-0.759-8.96-1.02-13.446c-0.286-4.928,2.855-8.71,7.785-9.347c1.806-0.233,3.661-0.101,5.493-0.101
		C272.593,1178.648,508.082,1178.648,743.571,1178.648z"/>
	<path fill-rule="evenodd" clip-rule="evenodd" fill="#7A836E" d="M319.062,273.084c-2.489-0.092-4.979-0.235-7.468-0.268
		c-7.76-0.101-11.788-4.069-10.937-11.982c0.866-8.061,2.554-16.038,3.989-24.032c6.947-38.683,13.951-77.354,20.892-116.038
		c3.779-21.061,7.453-42.14,11.214-63.203c1.546-8.663,5.536-11.978,14.25-11.998c14.643-0.034,29.286-0.061,43.93-0.091
		c1.832,0.027,3.664,0.079,5.497,0.079c238.084,0.001,476.168-0.001,714.253-0.006c1.665,0,3.331-0.043,4.996-0.066
		c7.996,0.028,15.993,0.048,23.989,0.088c8.491,0.043,12.783,3.329,14.406,11.43c11.205,55.938,22.351,111.887,33.524,167.83
		c2.215,11.09,4.496,22.167,6.693,33.261c1.767,8.919-1.143,13.505-9.295,14.836c-1.824-0.057-3.655-0.16-5.485-0.16
		c-286.162-0.011-572.325-0.015-858.487-0.003C323.036,272.76,321.049,272.972,319.062,273.084z"/>
	<path fill-rule="evenodd" clip-rule="evenodd" fill="#06AFDD" d="M319.062,273.084c1.987-0.112,3.975-0.324,5.962-0.324
		c286.162-0.012,572.325-0.008,858.487,0.003c1.83,0,3.661,0.104,5.485,0.16c3.156,10.32,6.318,20.638,9.48,30.956
		c0.118,0.938,0.236,1.877,0.354,2.814c-1.107-0.048-2.215-0.097-3.321-0.145c-0.604-3.066-3.075-2.001-4.836-2.002
		c-59.237-0.052-118.475-0.052-177.712-0.012c-1.515,0.001-3.434-0.836-4.397,1.281c-2.674,0.2-5.348,0.401-8.022,0.603
		c-22.522-0.059-45.045-0.117-67.568-0.177c-0.172-0.238-0.334-0.484-0.487-0.735c0.394-3.731-2.509-1.909-3.738-1.911
		c-63.569-0.103-127.139-0.1-190.708-0.062c-1.521,0.001-3.416-0.831-4.465,1.184c-0.705,0.144-1.41,0.286-2.115,0.43
		c-3.633-2.729-7.272-2.674-10.918-0.026c-0.34-0.04-0.658,0.027-0.953,0.202c-1.659-0.071-3.317-0.197-4.977-0.204
		c-60.709-0.255-121.419-0.5-182.129-0.734c-1.99-0.008-3.982,0.117-5.973,0.18c-23.688-0.297-47.375-0.933-71.066-0.287
		c-1.669-0.466-3.334-0.537-4.991,0.057c-2.149-0.135-4.299-0.377-6.449-0.387c-44.824-0.203-89.648-0.379-134.473-0.56
		c-0.135-0.616-0.27-1.231-0.399-1.852C313.499,292.418,316.215,282.729,319.062,273.084z"/>
	<path fill-rule="evenodd" clip-rule="evenodd" fill="#262626" d="M1119.678,45.479c-1.665,0.023-3.331,0.066-4.996,0.066
		c-238.085,0.005-476.169,0.007-714.253,0.006c-1.833,0-3.665-0.052-5.497-0.079c3.153-9.462,6.318-18.92,9.457-28.387
		c2.825-8.525,4.05-9.438,13.266-9.374c21.651,0.15,43.303,0.361,64.954,0.505c83.445,0.554,166.891,1.072,250.336,1.64
		c122.085,0.83,244.17,1.687,366.254,2.547c10.046,0.07,10.676,0.561,13.608,10.14C1115.143,30.173,1117.391,37.832,1119.678,45.479
		z"/>
	<path fill-rule="evenodd" clip-rule="evenodd" fill="#29130D" d="M1195.509,306.549c1.106,0.048,2.214,0.097,3.32,0.145
		c-0.001-0.001,0.335,0.068,0.335,0.068l0.311-0.143c0.728,0.422,0.896,1.07,0.744,1.847c-37.738,0.007-75.478,0.025-113.217-0.012
		c-1.637-0.002-3.855,0.903-4.484-1.814c24.061,0.003,48.121,0.017,72.183,0.003
		C1168.303,306.635,1181.906,306.581,1195.509,306.549z"/>
	<path fill-rule="evenodd" clip-rule="evenodd" fill="#204A55" d="M1199.475,306.619l-0.311,0.143c0,0-0.336-0.069-0.335-0.068
		c-0.116-0.938-0.234-1.876-0.353-2.814C1199.886,304.399,1199.53,305.564,1199.475,306.619z"/>
	<path fill-rule="evenodd" clip-rule="evenodd" fill="#01BEF2" d="M733.574,304.718c1.049-2.015,2.943-1.183,4.465-1.184
		c63.569-0.038,127.139-0.041,190.708,0.062c1.229,0.002,4.132-1.82,3.738,1.911c-1.82,0.07-3.641,0.207-5.461,0.202
		c-32.383-0.089-64.765-0.212-97.147-0.286c-10.123-0.022-20.247,0.077-30.371,0.121c-19.823-0.159-39.646-0.31-59.469-0.49
		C737.882,305.034,735.729,304.834,733.574,304.718z"/>
	<path fill-rule="evenodd" clip-rule="evenodd" fill="#281915" d="M526.51,304.564c1.99-0.062,3.982-0.188,5.973-0.18
		c60.71,0.234,121.42,0.479,182.129,0.734c1.659,0.007,3.317,0.133,4.977,0.204c-1.358,1.83-3.345,1.154-5.08,1.155
		c-61.027,0.029-122.056,0.03-183.083-0.029C529.679,306.448,527.215,307.581,526.51,304.564z"/>
	<path fill-rule="evenodd" clip-rule="evenodd" fill="#01BDF1" d="M1195.509,306.549c-13.603,0.032-27.206,0.086-40.809,0.094
		c-24.062,0.014-48.122,0-72.183-0.003c-20.357-0.157-40.715-0.302-61.071-0.484c-4.295-0.039-8.589-0.222-12.883-0.339
		c0.964-2.117,2.883-1.28,4.397-1.281c59.237-0.04,118.475-0.04,177.712,0.012C1192.434,304.548,1194.904,303.482,1195.509,306.549z
		"/>
	<path fill-rule="evenodd" clip-rule="evenodd" fill="#29130E" d="M309.53,303.388c44.824,0.181,89.648,0.356,134.473,0.56
		c2.15,0.01,4.3,0.252,6.449,0.386c0.015,0.386,0.028,0.771,0.043,1.156c-45.237,0.003-90.475,0.021-135.711-0.051
		C312.934,305.436,310.201,306.782,309.53,303.388z"/>
	<path fill-rule="evenodd" clip-rule="evenodd" fill="#281915" d="M799.506,305.544c10.124-0.044,20.248-0.144,30.371-0.121
		c32.383,0.074,64.765,0.197,97.147,0.286c1.82,0.005,3.641-0.132,5.461-0.202c0.153,0.251,0.315,0.497,0.486,0.736
		c-2.156,0.094-4.312,0.266-6.466,0.268c-23.438,0.017-46.875-0.013-70.312,0.039c-1.903,0.005-4.022-0.755-5.682,0.94
		c-15.38,0.002-30.76,0.038-46.139-0.041C802.631,307.44,800.182,308.555,799.506,305.544z"/>
	<path fill-rule="evenodd" clip-rule="evenodd" fill="#29130D" d="M850.512,307.49c1.659-1.695,3.778-0.936,5.682-0.94
		c23.438-0.052,46.875-0.022,70.312-0.039c2.154-0.002,4.31-0.174,6.466-0.268c22.524,0.059,45.047,0.117,67.569,0.176
		c-1.597,1.833-3.743,1.045-5.639,1.047C946.772,307.507,898.643,307.493,850.512,307.49z"/>
	<path fill-rule="evenodd" clip-rule="evenodd" fill="#01BEF2" d="M720.541,305.121c3.646-2.647,7.285-2.703,10.918,0.026
		C727.818,305.625,724.179,305.648,720.541,305.121z"/>
	<path fill-rule="evenodd" clip-rule="evenodd" fill="#281915" d="M450.495,305.489c-0.015-0.385-0.028-0.771-0.043-1.156
		c1.657-0.593,3.322-0.521,4.991-0.056C454.229,306.461,452.156,305.135,450.495,305.489z"/>
</g>
</svg>
