<svg xmlns="http://www.w3.org/2000/svg" width="1490" height="1342" viewBox="0 0 1490 1342"><g fill-rule="evenodd" clip-rule="evenodd"><path fill="#252525" d="M1200.22 308.465c5.883 18.88 11.84 37.74 17.638 56.646 48.695 158.782 97.36 317.574 146.04 476.36 32.33 105.458 64.673 210.912 97.003 316.37.537 1.75 1.124 3.504 1.43 5.3 1.434 8.396-2.895 13.58-11.388 13.576-51.328-.026-102.655-.087-153.983-.13-189.147-.164-378.29-.308-567.437-.492-143.314-.14-286.63-.343-429.944-.49-88.324-.093-176.648-.136-264.97-.2-.5 0-1-.002-1.5-.004-10.742-.036-14.996-5.823-11.672-16.258 3.583-11.25 7.395-22.427 11.15-33.62C85.202 968.68 137.828 811.842 190.445 655c39.003-116.265 77.994-232.533 116.996-348.798.527-1.57 1.13-3.113 1.69-4.666.13.62.265 1.235.4 1.852.67 3.395 3.402 2.048 5.253 2.05 45.236.073 90.474.055 135.71.052 1.662-.354 3.735.972 4.95-1.212 23.69-.646 47.377-.01 71.065.287.705 3.017 3.17 1.884 4.915 1.885 61.027.06 122.056.06 183.083.03 1.735-.002 3.722.674 5.08-1.157.295-.174.613-.24.953-.2 3.637.526 7.276.503 10.917.025l2.115-.43c2.154.116 4.308.316 6.463.336 19.822.18 39.646.33 59.47.49.675 3.01 3.124 1.896 4.866 1.905 15.38.078 30.76.042 46.14.04 48.13.003 96.26.017 144.39-.024 1.897-.002 4.043.786 5.64-1.047l8.022-.604c4.294.117 8.588.3 12.883.34 20.356.182 40.714.326 61.07.483.63 2.717 2.85 1.81 4.485 1.813 37.74.038 75.48.02 113.22.012zM743.57 1178.648h706.47c11.19 0 13.71 3.07 13.018 14.07-1.393 22.11-2.41 44.243-3.554 66.367-1.102 21.293-2.098 42.592-3.294 63.88-.407 7.264-4.048 10.46-11.212 10.533-.834.01-1.667 0-2.5 0H48.06c-10.396 0-12.92-1.967-13.858-12.454-1.766-19.73-3.162-39.496-4.698-59.248-1.562-20.083-3.107-40.168-4.66-60.252-.347-4.482-.76-8.96-1.02-13.446-.286-4.928 2.855-8.71 7.785-9.347 1.805-.232 3.66-.1 5.492-.1 235.49-.002 470.98-.002 706.47-.002z"/><path fill="#7A836E" d="M319.062 273.084c-2.49-.092-4.98-.235-7.468-.268-7.76-.1-11.788-4.07-10.937-11.982.866-8.06 2.554-16.038 3.99-24.032 6.946-38.683 13.95-77.354 20.89-116.038 3.78-21.06 7.454-42.14 11.215-63.203 1.546-8.662 5.536-11.977 14.25-11.997 14.643-.034 29.286-.06 43.93-.09 1.832.026 3.664.078 5.497.078 238.083.002 476.167 0 714.252-.005 1.665 0 3.33-.043 4.996-.066 7.996.027 15.993.047 23.99.087 8.49.043 12.782 3.33 14.405 11.43 11.205 55.938 22.35 111.887 33.524 167.83 2.215 11.09 4.496 22.167 6.693 33.26 1.767 8.92-1.143 13.506-9.295 14.837-1.824-.057-3.655-.16-5.485-.16-286.162-.01-572.325-.015-858.487-.003-1.987 0-3.974.212-5.96.324z"/><path fill="#cd7979" d="M319.062 273.084c1.987-.112 3.975-.324 5.962-.324 286.162-.012 572.325-.008 858.487.003 1.83 0 3.662.104 5.486.16 3.156 10.32 6.318 20.638 9.48 30.956l.354 2.813-3.32-.145c-.605-3.066-3.076-2-4.837-2.002-59.237-.052-118.475-.052-177.712-.012-1.514 0-3.433-.836-4.396 1.28-2.674.2-5.348.402-8.022.604-22.522-.06-45.045-.117-67.568-.177-.172-.237-.334-.483-.487-.734.394-3.73-2.51-1.91-3.738-1.91-63.57-.104-127.14-.1-190.71-.063-1.52 0-3.415-.83-4.464 1.184l-2.115.43c-3.632-2.73-7.27-2.674-10.917-.026-.34-.04-.658.028-.953.203-1.66-.07-3.317-.197-4.977-.204-60.71-.256-121.42-.5-182.13-.735-1.99-.008-3.98.117-5.972.18-23.687-.297-47.374-.933-71.065-.287-1.67-.466-3.334-.537-4.99.057-2.15-.135-4.3-.377-6.45-.387-44.824-.203-89.648-.38-134.473-.56-.135-.616-.27-1.23-.4-1.852 4.367-9.118 7.083-18.807 9.93-28.452z"/><path fill="#262626" d="M1119.678 45.48c-1.665.022-3.33.065-4.996.065-238.085.005-476.17.007-714.253.006-1.834 0-3.666-.05-5.498-.078 3.153-9.462 6.318-18.92 9.457-28.387 2.824-8.525 4.05-9.438 13.265-9.374 21.65.15 43.303.362 64.954.506 83.444.554 166.89 1.072 250.335 1.64 122.085.83 244.17 1.687 366.254 2.547 10.045.07 10.675.56 13.607 10.14 2.336 7.63 4.584 15.29 6.87 22.936z"/><path fill="#29130D" d="M1195.51 306.55l3.32.144.334.068.31-.143c.73.42.897 1.07.745 1.846-37.74.007-75.48.025-113.218-.012-1.637-.002-3.855.903-4.484-1.814 24.06.003 48.12.017 72.183.003 13.603-.008 27.206-.062 40.81-.094z"/><path fill="#204A55" d="M1199.475 306.62l-.31.142s-.337-.07-.336-.068l-.354-2.814c1.41.52 1.054 1.684 1 2.74z"/><path fill="#01BEF2" d="M733.574 304.718c1.05-2.015 2.943-1.183 4.465-1.184 63.568-.038 127.138-.04 190.707.062 1.23.002 4.132-1.82 3.738 1.91-1.82.07-3.64.208-5.46.203-32.384-.09-64.766-.213-97.148-.287-10.123-.022-20.247.077-30.37.12-19.824-.158-39.647-.31-59.47-.49-2.155-.02-4.308-.22-6.463-.335z"/><path fill="#281915" d="M526.51 304.564c1.99-.062 3.982-.188 5.973-.18 60.71.234 121.42.48 182.13.734 1.658.007 3.316.133 4.976.204-1.36 1.83-3.346 1.154-5.08 1.155-61.028.03-122.057.03-183.084-.03-1.747 0-4.21 1.134-4.916-1.883z"/><path fill="#01BDF1" d="M1195.51 306.55c-13.604.03-27.207.085-40.81.093-24.062.014-48.122 0-72.183-.003-20.357-.157-40.715-.302-61.07-.484-4.296-.04-8.59-.222-12.884-.34.964-2.116 2.883-1.28 4.397-1.28 59.237-.04 118.475-.04 177.712.012 1.762 0 4.232-1.066 4.837 2z"/><path fill="#29130E" d="M309.53 303.388c44.824.18 89.648.356 134.473.56 2.15.01 4.3.252 6.45.386l.042 1.156c-45.237.003-90.475.02-135.71-.05-1.85-.004-4.584 1.342-5.255-2.052z"/><path fill="#281915" d="M799.506 305.544c10.124-.044 20.248-.144 30.37-.12 32.384.073 64.766.196 97.148.285 1.82.004 3.64-.133 5.46-.203.154.25.316.497.487.736-2.155.094-4.31.266-6.465.268-23.438.018-46.875-.012-70.312.04-1.903.005-4.022-.755-5.682.94-15.38.002-30.76.038-46.138-.04-1.74-.01-4.19 1.105-4.866-1.906z"/><path fill="#29130D" d="M850.512 307.49c1.66-1.695 3.778-.936 5.682-.94 23.438-.052 46.875-.022 70.312-.04 2.154 0 4.31-.173 6.466-.267 22.524.06 45.047.117 67.57.176-1.598 1.832-3.744 1.044-5.64 1.046-48.13.04-96.26.027-144.39.024z"/><path fill="#01BEF2" d="M720.54 305.12c3.647-2.646 7.286-2.702 10.92.027-3.642.478-7.28.5-10.92-.026z"/><path fill="#281915" d="M450.495 305.49l-.043-1.157c1.657-.593 3.322-.52 4.99-.056-1.213 2.184-3.286.858-4.947 1.212z"/></g></svg>