<?xml version="1.0" encoding="utf-8"?>
<!-- Generator: Adobe Illustrator 16.0.0, SVG Export Plug-In . SVG Version: 6.00 Build 0)  -->
<!DOCTYPE svg PUBLIC "-//W3C//DTD SVG 1.1//EN" "http://www.w3.org/Graphics/SVG/1.1/DTD/svg11.dtd">
<svg version="1.1" id="gift_xA0_Image_1_" xmlns="http://www.w3.org/2000/svg" xmlns:xlink="http://www.w3.org/1999/xlink" x="0px"
	 y="0px" width="2647px" height="2451px" viewBox="0 0 2647 2451" enable-background="new 0 0 2647 2451" xml:space="preserve">
<g>
	
	<path fill-rule="evenodd" clip-rule="evenodd" fill="#DEA7A7" d="M2,1720c0-18,0-36,0-54c2.124-3.689,0.399-7.763,1.159-11.577
		c0.438-2.204,1.375-3.791,3.821-1.664c2.52,4.244,2.379,8.963,1.77,13.498c-2.52,18.76-2.306,37.464,0.037,56.222
		c0.606,4.854,0.801,9.911-1.589,14.56c-0.782,1.231-1.836,1.537-3.158,0.925H4.04C1.341,1732.204,4.748,1725.753,2,1720z"/>
	<path fill-rule="evenodd" clip-rule="evenodd" fill="#F5E3E3" d="M5.732,1651.758C2.042,1655.864,6.101,1662.001,2,1666
		c0-5.333,0-10.667,0-16c3.676-2.447,0.345-7.522,3.773-10.062C9.286,1643.89,9.313,1647.83,5.732,1651.758z"/>
	<path fill-rule="evenodd" clip-rule="evenodd" fill="#F0D8D8" d="M2,1720c3.558,5.661,1.553,11.954,2.039,17.963
		C3.36,1737.976,2.68,1737.987,2,1738C2,1732,2,1726,2,1720z"/>
	<path fill-rule="evenodd" clip-rule="evenodd" fill="#C7C1B2" d="M198.546,1266.139c-8.021-28.123-17.61-55.745-26.615-83.555
		c-17.906-55.295-35.625-110.652-53.743-165.878c-2.282-6.955-1.472-12.493,1.798-18.837
		c29.712-57.636,59.211-115.382,88.613-173.177c4.806-9.446,10.571-18.477,13.531-28.804c12.856-27.835,25.653-55.702,41.915-81.793
		c5.844-8.112,10.038-17.175,14.638-25.976c8.482-16.233,16.708-32.607,24.682-49.096c2.226-4.603,5.287-7.177,10.044-8.708
		C382.711,608,451.993,585.618,521.25,563.159c42.687-13.843,85.311-27.881,127.984-41.763
		c50.903-16.557,101.829-33.043,152.746-49.555c20.556-6.666,41.193-13.094,61.635-20.093c7.692-2.634,14.284-2.451,20.265,3.343
		c2.699,2.615,6.176,3.892,9.425,5.552c34.984,17.88,69.985,35.729,104.953,53.64c2.922,1.496,6.238,2.51,8.157,5.527
		c-3.532,3.51-6.938,1.279-9.914-0.641c-6.902-4.454-12.86-3.348-19.229,1.421c-9.069,6.791-19.246,11.927-28.864,17.909
		c-5.873,3.652-6.725,7.404-2.939,13.03c7.625,11.332,14.634,23.066,22.118,34.494c2.54,3.877,5.602,7.527,6.145,12.416
		c0.159,3.496-1.414,6.472-2.9,9.448c-11.614,23.262-22.942,46.672-34.95,69.73c-33.863,65.028-66.649,130.605-100.067,195.858
		c-48.766,95.224-97.308,190.559-145.928,285.855c-27.565,54.026-55.184,108.028-82.813,162.022
		c-35.677,69.722-71.518,139.359-106.698,209.335c-6.303,12.535-6.318,12.578,5.825,18.628
		c51.014,25.41,101.613,51.641,152.437,77.425c61.813,31.36,123.502,62.977,185.219,94.532
		c97.327,49.764,194.754,99.33,292.098,149.058c63.216,32.293,126.546,64.363,189.672,96.826
		c64.904,33.378,130.033,66.311,195.017,99.531c67.061,34.283,134.234,68.343,201.289,102.634
		c96.139,49.164,192.203,98.471,288.48,147.365c24.04,12.21,48.389,23.907,71.868,37.225c9.011,5.317,13.267,14.534,18.723,22.795
		c5.53,8.373,9.472,18.066,18.915,23.268c-6.311,16.513-14.975,31.855-23.342,47.361c-2.182,4.043-4.394,4.055-7.914,2.213
		c-8.559-4.477-17.221-8.754-25.835-13.124c-51.975-26.368-104.134-52.381-155.849-79.247
		c-30.443-15.815-61.156-31.078-91.701-46.683c-64.646-33.026-129.458-65.733-193.94-99.077
		c-31.048-16.056-62.467-31.383-93.374-47.689c-31.228-16.477-63.148-31.583-94.319-48.137
		c-34.716-18.438-70.278-35.194-105.023-53.545c-32.988-17.423-66.701-33.415-99.666-50.852
		c-29.151-15.42-58.967-29.517-88.075-44.989c-34.119-18.136-69.1-34.575-103.242-52.636
		c-31.801-16.822-64.137-32.567-96.144-48.968c-32.007-16.401-64.281-32.294-96.05-49.143
		c-30.312-16.077-61.162-31.061-91.699-46.676c-66.103-33.805-132.425-67.186-198.342-101.349
		c-32.231-16.704-64.929-32.485-97.019-49.442c-34.162-18.053-69.023-34.721-103.216-52.688
		c-21.228-11.155-42.65-21.908-64.065-32.682c-5.191-2.611-7.701-6.13-9.476-11.712c-13.298-41.845-27.078-83.535-40.676-125.284
		c-3.603-11.061-7.134-22.145-10.612-33.246c-0.805-2.569-1.278-5.234-4.223-6.319c-1.44-3.486,1.185-5.63,2.845-7.912
		c15.79-21.713,32.321-42.865,48.816-64.04c2.106-2.704,3.736-7.456,9.014-5.745c10.6,28.749,19.602,58.044,29.862,86.917
		c11.826,33.278,22.448,66.98,33.626,100.487c1.837,5.51,4.015,10.568,9.663,13.298c16.803,8.121,33.136,17.15,49.58,25.954
		c6.501,3.481,10.183,2.045,13.426-4.45c15.181-30.398,31.509-60.209,47.028-90.43c37.131-72.305,75.203-144.118,112.462-216.356
		c23.817-46.178,47.957-92.194,72.035-138.239c41.366-79.104,82.586-158.284,123.775-237.481
		c24.128-46.394,48.271-92.782,72.57-139.086c18.419-35.099,36.528-70.358,55.03-105.413c4.668-8.845,3.923-11.437-5.284-15.004
		c-29.825-11.554-59.926-22.383-89.787-33.843c-6.895-2.646-13.595-1.936-20.525,0.165c-46.549,14.111-92.9,28.86-139.367,43.237
		c-87.519,27.077-174.899,54.595-262.461,81.536c-10.188,3.135-20.242,6.752-30.576,9.359c-8.761,2.21-14.522,7.221-18.312,15.417
		c-5.592,12.094-11.887,23.858-17.808,35.801c-33.153,66.87-67.819,132.974-101.15,199.756c-9.663,19.36-19.804,38.51-29.719,57.76
		c-3.599,6.988-4.176,13.463-1.683,21.032c21.159,64.249,43.821,127.99,64.858,192.279c1.146,3.502,2.764,6.783,4.365,10.077
		c1.018,4.541-1.84,7.687-4.354,10.643c-16.395,19.278-31.609,39.505-47.683,59.038
		C204.288,1263.342,202.594,1266.489,198.546,1266.139z"/>
	<path fill-rule="evenodd" clip-rule="evenodd" fill="#C5BFB0" d="M2119.916,2399.977c-4.641,0.852-7.625-0.51-10.174-5.02
		c-5.313-9.402-11.566-18.271-17.29-27.447c-2.804-4.495-6.095-8.459-10.452-11.5c0.207-2.449,1.635-4.41,2.583-6.571
		c41.048-82.681,83.825-164.479,125.567-246.803c34.656-68.351,69.5-136.611,104.441-204.819
		c47.248-92.23,94.346-184.536,141.35-276.892c32.191-63.251,65.1-126.137,96.654-189.712c3.414-6.877,7.237-13.513,11.092-20.132
		c3.564-6.122,2.681-10.237-4.044-13.592c-45.917-22.905-91.505-46.466-137.16-69.884c-66.995-34.365-134.378-67.975-201.06-102.951
		c-2.951-1.547-5.867-3.162-8.863-4.62c-59.038-28.719-117.101-59.369-175.656-89.039c-61.519-31.173-122.884-62.659-184.297-94.045
		c-66.461-33.964-133-67.775-199.454-101.75c-64.081-32.763-128.236-65.378-192.311-98.152
		c-64.669-33.078-129.503-65.835-194.082-99.083c-82.95-42.706-166.332-84.562-249.199-127.427
		c-10.373-5.366-21.452-9.213-31.633-14.917c-4.78-2.679-8.145-1.453-11.186,2.481c-0.938,0.643-1.853,0.606-2.741-0.098
		c-7.206-11.509-14.422-23.011-21.614-34.528c-3.158-5.058-5.848-10.476-9.516-15.127c-3.69-4.681-1.772-6.604,2.356-9.139
		c13.266-8.146,26.405-16.503,39.439-25.015c5.469-3.571,9.497,0.352,13.75,2.203c3.277,1.426,5.913,4.372,9.994,3.413
		c3.089,0.326,5.602,2.069,8.254,3.42c45.711,23.266,91.438,46.502,137.099,69.864c48.622,24.876,97.175,49.889,145.768,74.822
		c52.741,27.062,105.5,54.092,158.241,81.155c48.592,24.935,97.164,49.908,145.757,74.842
		c52.741,27.063,105.499,54.095,158.244,81.151c48.893,25.08,97.777,50.176,146.667,75.263
		c52.446,26.913,105.035,53.552,157.278,80.854c25.391,13.268,51.048,25.991,76.53,39.067
		c79.691,40.896,159.409,81.739,239.113,122.609c50.672,25.982,101.354,51.942,151.998,77.98
		c36.424,18.726,72.794,37.558,109.182,56.354c9.021,4.659,9.369,5.297,4.736,14.426c-18.088,35.639-36.289,71.22-54.477,106.807
		c-25.312,49.524-50.715,99.003-75.957,148.562c-16.773,32.933-32.923,66.189-50.112,98.902
		c-16.581,31.555-32.258,63.558-48.495,95.28c-31.106,60.774-62.135,121.589-93.188,182.392
		c-15.142,29.646-30.258,59.305-45.398,88.951c-15.744,30.829-31.512,61.647-47.253,92.479
		c-17.408,34.097-34.475,68.372-52.292,102.253c-16.125,30.664-31.348,61.775-47.16,92.59
		C2127.453,2386.644,2123.603,2393.268,2119.916,2399.977z"/>
	<path fill-rule="evenodd" clip-rule="evenodd" fill="#b17fca" d="M286.009,1278.036c-18.903,22.667-36.247,46.535-54.023,70.07
		c-1.987,2.63-3.917,5.304-5.872,7.958c-31.177,42.407-61.705,85.26-87.988,130.947c-28.57,49.661-51.046,101.702-61.01,158.534
		c-3.854,21.983-6.57,44.108-7.087,66.437c-0.918,39.646-0.021,79.241,3.459,118.771c1.634,18.559,2.568,37.179,4.111,55.746
		c0.426,5.134-2.556,6.254-6.352,7.076c-13.321,2.885-26.653,5.722-39.967,8.641c-4.132,0.906-8.109,2.769-13.482,1.838
		c-3.997-49.964-8-99.999-12.003-150.035c-1.233-5.278-1.213-10.559-0.015-15.84c1.329-10.678-1.237-21.154-1.598-31.734
		c-0.498-14.596-0.451-29.202,1.71-43.734c0.53-3.563-0.074-7.296-0.158-10.952c0.013-3.94,0.026-7.881,0.04-11.821
		c6.599-75.192,33.186-143.356,72.287-207.269c29.419-48.087,63.178-93.032,97.785-137.398c7.571-9.706,15.132-19.421,22.699-29.132
		c8.565-10.472,17.212-20.876,25.671-31.431c11.356-14.169,22.567-28.454,33.841-42.689c5.452-13.188,16.322-22.371,24.887-33.21
		c31.298-39.607,65.315-77.095,92.729-119.717c11.662-18.132,20.303-37.341,21.741-59.205c-0.885-19.547-9.757-35.559-22.126-50.015
		c-7.827-8.747-16.837-16.354-24.479-25.29c-1.597-2.51-3.541-4.757-5.373-7.101c-9.731-18.61-8.47-36.791,3.896-53.417
		c12.321-16.567,29.162-23.473,49.894-19.29c17.175,8.882,31.391,22.09,47.422,32.665c0.791,0.487,1.535,1.041,2.264,1.615
		c1.101,0.847,2.133,1.774,3.154,2.713c19.255,15.161,38.918,29.88,53.966,49.624c22.213,27.647,21.011,56.987,5.43,86.788
		c-13.009,24.88-30.122,47.11-48.129,68.481c-57.202,67.89-115.621,134.765-169.992,205.001
		C291.332,1274.251,289.682,1277.329,286.009,1278.036z"/>
	<path fill-rule="evenodd" clip-rule="evenodd" fill="#b17fca" d="M264.045,714.096c0.173,2.753-0.666,5.232-2.02,7.582
		c-12.438,21.589-22.63,44.334-34.149,66.396c-1.498,2.87-2.258,6.373-5.746,7.815c-47.42-43.675-87.26-93.271-117.105-150.586
		c-20.848-40.037-35.868-82.301-46.722-126.041c-9.944-40.073-16.455-80.74-20.611-121.827c-3.15-31.133-5.557-62.288-6.278-93.574
		c-0.076-3.296-0.875-6.574-1.338-9.861c-0.008-7.322,0.061-14.646-0.037-21.967c-1.148-86.286-0.444-172.574-0.198-258.861
		c0.008-2.911-0.748-6.001,1.13-8.646c3.188-1.184,5.922,0.395,8.752,1.241C54.063,10.055,68.4,14.35,82.731,18.663
		c9.077,2.731,9.102,2.747,9.097,12.302c-0.021,44.977,0.069,89.953-0.132,134.929c-0.163,36.318,0.624,72.621,2.633,108.865
		c3.595,64.868,10.793,129.238,27.412,192.315c22.932,87.039,64.269,163.877,125.677,229.806
		C252.856,702.718,257.729,709.104,264.045,714.096z"/>
	<path fill-rule="evenodd" clip-rule="evenodd" fill="#F0D8D8" d="M5.78,1738.18c0.005,5.28,0.011,10.561,0.015,15.84
		c-3.408-5.043-1.319-10.688-1.757-16.057C4.626,1737.977,5.207,1738.05,5.78,1738.18z"/>
	<path fill-rule="evenodd" clip-rule="evenodd" fill="#BBB6A8" d="M972.002,598.005c0.664-0.008,1.327-0.013,1.99-0.017
		c13.381,17.442,24.272,36.531,35.968,55.062c39.456,62.516,79.129,124.895,118.629,187.383
		c43.771,69.243,87.587,138.459,131.393,207.68c38.82,61.342,77.786,122.592,116.39,184.071c2.188,3.484,6.042,6.609,3.972,11.624
		c-0.631,0.65-1.409,1.073-2.288,1.295c-1.281,0.098-2.493-0.217-3.65-0.725c-0.7-0.277-1.387-0.627-2.047-1
		c-0.922-0.512-1.832-1.078-2.776-1.562c-0.611-0.259-1.205-0.571-1.786-0.895c-0.847-0.467-1.693-0.945-2.578-1.35
		c-0.606-0.218-1.179-0.505-1.734-0.823c-0.85-0.442-1.701-0.884-2.569-1.294c-0.606-0.233-1.163-0.555-1.688-0.931
		c-0.54-0.343-1.037-0.744-1.513-1.167c-0.012,0.021-0.735-0.598-0.75-0.576c-0.538-0.327-1.067-0.67-1.615-0.987
		c-0.59-0.268-1.143-0.59-1.689-0.929c-0.856-0.494-1.729-0.951-2.635-1.36c-0.648-0.254-1.263-0.559-1.877-0.88
		c-0.65-0.292-1.276-0.616-1.913-0.933c-0.671-0.285-1.31-0.616-1.948-0.959c-0.668-0.308-1.313-0.648-1.968-0.981
		c-0.683-0.292-1.335-0.637-1.985-0.986c-0.676-0.312-1.33-0.66-1.99-0.998c-0.687-0.294-1.345-0.642-1.999-0.995
		c-0.677-0.313-1.334-0.662-1.996-1.002c-0.687-0.296-1.347-0.642-2.002-0.997c-0.677-0.313-1.335-0.662-1.997-1.002
		c-0.688-0.296-1.347-0.644-2.003-0.998c-0.677-0.312-1.335-0.663-1.998-1.003c-0.687-0.295-1.346-0.643-2.002-0.997
		c-0.677-0.312-1.335-0.663-1.998-1.003c-0.688-0.294-1.346-0.644-2.002-0.997c-0.677-0.312-1.335-0.663-1.998-1.003
		c-0.688-0.294-1.346-0.644-2.002-0.997c-0.677-0.312-1.335-0.663-1.998-1.003c-0.688-0.294-1.346-0.644-2.002-0.997
		c-0.677-0.312-1.335-0.663-1.998-1.003c-0.688-0.294-1.346-0.644-2.002-0.997c-0.677-0.312-1.335-0.663-1.998-1.003
		c-0.688-0.294-1.346-0.644-2.002-0.997c-0.677-0.312-1.335-0.663-1.998-1.003c-0.688-0.294-1.346-0.644-2.002-0.997
		c-0.677-0.312-1.335-0.663-1.998-1.003c-0.688-0.294-1.346-0.644-2.002-0.997c-0.677-0.312-1.335-0.663-1.998-1.003
		c-0.688-0.294-1.346-0.644-2.002-0.997c-0.677-0.312-1.335-0.663-1.998-1.003c-0.688-0.294-1.346-0.644-2.002-0.997
		c-0.677-0.312-1.335-0.663-1.998-1.003c-0.688-0.294-1.346-0.644-2.002-0.997c-0.677-0.312-1.335-0.663-1.998-1.003
		c-0.688-0.294-1.346-0.644-2.002-0.997c-0.677-0.312-1.335-0.663-1.998-1.003c-0.688-0.294-1.346-0.644-2.002-0.997
		c-0.677-0.312-1.335-0.663-1.998-1.003c-0.688-0.294-1.346-0.644-2.002-0.997c-0.677-0.312-1.335-0.663-1.998-1.003
		c-0.688-0.294-1.346-0.644-2.002-0.997c-0.677-0.312-1.335-0.663-1.998-1.003c-0.688-0.294-1.346-0.644-2.002-0.997
		c-0.677-0.313-1.335-0.663-1.998-1.003c-0.688-0.295-1.347-0.643-2.002-0.997c-0.678-0.313-1.335-0.664-1.999-1.003
		c-0.688-0.295-1.347-0.644-2.004-0.998c-0.678-0.313-1.336-0.664-2-1.003c-0.686-0.296-1.346-0.642-1.999-0.995
		c-0.67-0.311-1.321-0.657-1.976-0.992c-0.667-0.287-1.311-0.627-1.945-0.972c-0.64-0.301-1.267-0.638-1.892-0.964
		c-0.633-0.275-1.245-0.604-1.849-0.938c-0.889-0.473-1.777-0.956-2.686-1.396c-0.619-0.241-1.191-0.571-1.73-0.953
		c-0.547-0.346-1.053-0.753-1.534-1.183c-0.011,0.021-0.742-0.605-0.755-0.582c-0.541-0.33-1.072-0.676-1.623-0.995
		c-0.59-0.269-1.145-0.592-1.692-0.932c-0.857-0.494-1.73-0.952-2.637-1.362c-0.648-0.253-1.263-0.559-1.878-0.88
		c-0.65-0.292-1.277-0.615-1.912-0.933c-0.672-0.284-1.311-0.617-1.949-0.959c-0.668-0.308-1.314-0.648-1.968-0.981
		c-0.683-0.292-1.335-0.637-1.985-0.986c-0.676-0.312-1.33-0.66-1.99-0.998c-0.687-0.294-1.345-0.642-1.999-0.995
		c-0.677-0.313-1.334-0.662-1.996-1.002c-0.687-0.296-1.347-0.642-2.002-0.997c-0.677-0.313-1.335-0.662-1.997-1.002
		c-0.688-0.296-1.347-0.644-2.003-0.998c-0.677-0.312-1.335-0.663-1.998-1.003c-0.687-0.295-1.346-0.643-2.002-0.997
		c-0.677-0.312-1.335-0.663-1.998-1.003c-0.688-0.294-1.346-0.644-2.002-0.997c-0.677-0.312-1.335-0.663-1.998-1.003
		c-0.688-0.294-1.346-0.644-2.002-0.997c-0.677-0.312-1.335-0.663-1.998-1.003c-0.688-0.294-1.346-0.644-2.002-0.997
		c-0.677-0.312-1.335-0.663-1.998-1.003c-0.688-0.294-1.346-0.644-2.002-0.997c-0.677-0.312-1.335-0.663-1.998-1.003
		c-0.687-0.295-1.347-0.643-2.002-0.997c-0.677-0.313-1.335-0.663-1.999-1.003c-0.688-0.296-1.347-0.644-2.004-0.998
		c-0.679-0.313-1.338-0.664-2.002-1.004c-0.688-0.297-1.349-0.643-2.004-0.998c-0.675-0.311-1.33-0.659-1.989-0.996
		c-0.676-0.291-1.328-0.634-1.974-0.982c-0.658-0.307-1.302-0.648-1.948-0.982c-0.671-0.288-1.314-0.629-1.954-0.976
		c-0.99-0.497-1.987-0.978-3.021-1.408c-0.755-0.249-1.481-0.534-2.225-0.808c-1.238-0.369-2.467-0.725-3.703-1.113
		c-29.952-13.872-58.663-30.157-88.258-44.724c-58.595-28.84-116.261-59.527-174.811-88.472
		c-10.736-5.308-21.021-11.547-31.848-16.726c-2.104-1.006-4.127-2.23-6.419-2.745c-1.677-0.376-3.436-0.329-4.323,1.492
		c-0.834,1.713-0.188,3.229,1.191,4.413c2.306,1.983,5.12,3.105,7.802,4.424c64.901,31.884,129.005,65.349,193.521,97.993
		c82.944,41.968,165.779,84.156,248.616,126.337c27.606,14.058,55.322,27.916,82.851,42.142c4.473,2.312,8.786,4.814,11.085,9.627
		c16.83,28.754,35.289,56.492,53.012,84.689c39.36,62.622,79.052,125.035,118.611,187.531
		c35.284,55.743,70.559,111.493,105.875,167.216c44.234,69.794,88.428,139.614,132.596,209.45
		c40.249,63.641,80.565,127.24,120.904,190.824c12.137,19.132,24.194,38.313,36.288,57.473c1.757,2.783,3.924,5.498,2.975,9.175
		c-0.573,0.704-1.313,1.18-2.193,1.419c-1.286,0.116-2.5-0.204-3.664-0.715c-0.718-0.283-1.416-0.644-2.094-1.021
		c-0.975-0.54-1.944-1.109-2.952-1.605c-0.682-0.28-1.336-0.616-1.985-0.962c-0.671-0.307-1.322-0.649-1.979-0.984
		c-0.683-0.292-1.337-0.637-1.989-0.987c-0.674-0.312-1.329-0.66-1.99-0.998c-0.687-0.295-1.344-0.644-1.998-0.996
		c-0.678-0.312-1.335-0.662-1.997-1.002c-0.688-0.295-1.347-0.644-2.003-0.998c-0.677-0.313-1.335-0.663-1.998-1.003
		c-0.688-0.295-1.347-0.644-2.002-0.997c-0.678-0.313-1.335-0.664-1.998-1.004c-0.688-0.295-1.347-0.643-2.003-0.997
		c-0.677-0.313-1.335-0.663-1.998-1.003c-0.688-0.294-1.346-0.644-2.002-0.997c-0.677-0.312-1.335-0.663-1.998-1.003
		c-0.687-0.295-1.347-0.643-2.002-0.997c-0.677-0.313-1.335-0.663-1.998-1.003c-0.687-0.295-1.347-0.643-2.002-0.997
		c-0.677-0.313-1.335-0.663-1.998-1.003c-0.687-0.295-1.347-0.643-2.002-0.997c-0.677-0.313-1.335-0.663-1.998-1.003
		c-0.687-0.295-1.347-0.643-2.002-0.997c-0.677-0.313-1.335-0.663-1.998-1.003c-0.687-0.295-1.347-0.643-2.002-0.997
		c-0.677-0.313-1.335-0.663-1.998-1.003c-0.687-0.295-1.347-0.643-2.002-0.997c-0.677-0.313-1.335-0.663-1.998-1.003
		c-0.687-0.295-1.347-0.643-2.002-0.997c-0.677-0.313-1.335-0.663-1.998-1.003c-0.687-0.295-1.347-0.643-2.002-0.997
		c-0.677-0.313-1.335-0.663-1.998-1.003c-0.687-0.295-1.347-0.643-2.002-0.997c-0.677-0.313-1.335-0.663-1.998-1.003
		c-0.687-0.295-1.347-0.643-2.002-0.997c-0.677-0.313-1.335-0.663-1.998-1.003c-0.687-0.295-1.347-0.643-2.002-0.997
		c-0.677-0.313-1.335-0.663-1.998-1.003c-0.687-0.295-1.347-0.643-2.002-0.997c-0.677-0.313-1.335-0.663-1.998-1.003
		c-0.687-0.295-1.347-0.643-2.002-0.997c-0.677-0.313-1.335-0.663-1.998-1.003c-0.687-0.295-1.347-0.643-2.002-0.997
		c-0.678-0.312-1.335-0.663-1.998-1.003c-0.688-0.295-1.347-0.644-2.003-0.997c-0.677-0.313-1.335-0.663-1.997-1.003
		c-0.685-0.293-1.342-0.642-1.994-0.993c-0.667-0.309-1.315-0.655-1.967-0.99c-0.663-0.286-1.304-0.624-1.935-0.969
		c-0.637-0.302-1.26-0.64-1.882-0.966c-0.634-0.276-1.246-0.605-1.848-0.943c-0.894-0.486-1.792-0.971-2.722-1.397
		c-0.636-0.25-1.242-0.56-1.841-0.885c-0.909-0.47-1.802-0.97-2.694-1.472c-0.897-0.487-1.732-1.066-2.529-1.695
		c-0.79-0.593-1.588-1.177-2.46-1.652c-0.61-0.261-1.188-0.58-1.755-0.918c-0.878-0.489-1.765-0.958-2.684-1.379
		c-0.651-0.256-1.271-0.562-1.889-0.886c-0.651-0.293-1.28-0.617-1.918-0.937c-0.671-0.283-1.311-0.617-1.949-0.96
		c-0.669-0.306-1.313-0.647-1.968-0.979c-0.683-0.293-1.335-0.636-1.985-0.986c-0.674-0.312-1.328-0.658-1.989-0.996
		c-0.686-0.295-1.343-0.642-1.997-0.995c-0.677-0.313-1.334-0.662-1.996-1.001c-0.688-0.295-1.346-0.645-2.002-0.998
		c-0.677-0.312-1.334-0.662-1.997-1.002c-0.688-0.294-1.346-0.644-2.002-0.997c-0.677-0.313-1.335-0.663-1.998-1.003
		c-0.688-0.294-1.346-0.644-2.002-0.997c-0.677-0.312-1.335-0.663-1.998-1.003c-0.687-0.295-1.347-0.643-2.002-0.997
		c-0.677-0.313-1.335-0.663-1.998-1.003c-0.687-0.295-1.347-0.643-2.002-0.997c-0.677-0.313-1.335-0.663-1.998-1.003
		c-0.687-0.295-1.347-0.643-2.002-0.997c-0.677-0.313-1.335-0.663-1.998-1.003c-0.687-0.295-1.347-0.643-2.002-0.997
		c-0.677-0.313-1.335-0.663-1.998-1.003c-0.687-0.295-1.347-0.643-2.002-0.997c-0.677-0.313-1.335-0.663-1.998-1.003
		c-0.687-0.295-1.347-0.643-2.002-0.997c-0.677-0.313-1.335-0.663-1.998-1.003c-0.687-0.295-1.347-0.643-2.002-0.997
		c-0.677-0.313-1.335-0.663-1.998-1.003c-0.687-0.295-1.347-0.643-2.002-0.997c-0.677-0.313-1.335-0.663-1.998-1.003
		c-0.687-0.295-1.347-0.643-2.002-0.997c-0.677-0.313-1.335-0.663-1.998-1.003c-0.687-0.295-1.347-0.643-2.002-0.997
		c-0.677-0.313-1.335-0.663-1.998-1.003c-0.687-0.295-1.347-0.643-2.002-0.997c-0.677-0.313-1.335-0.663-1.998-1.003
		c-0.687-0.295-1.347-0.643-2.002-0.997c-0.677-0.313-1.335-0.663-1.998-1.003c-0.687-0.295-1.347-0.643-2.002-0.997
		c-0.677-0.313-1.335-0.663-1.998-1.003c-0.687-0.295-1.347-0.643-2.002-0.997c-0.677-0.313-1.335-0.663-1.998-1.003
		c-0.687-0.295-1.347-0.643-2.002-0.997c-0.678-0.312-1.335-0.663-1.998-1.003c-0.688-0.295-1.347-0.644-2.003-0.997
		c-0.677-0.313-1.335-0.663-1.997-1.003c-0.685-0.293-1.342-0.642-1.994-0.993c-0.667-0.309-1.315-0.655-1.967-0.99
		c-0.663-0.286-1.304-0.624-1.935-0.969c-0.637-0.302-1.26-0.64-1.882-0.966c-0.634-0.276-1.246-0.605-1.848-0.943
		c-0.894-0.486-1.792-0.971-2.722-1.397c-0.636-0.25-1.242-0.56-1.841-0.885c-0.909-0.47-1.802-0.97-2.694-1.472
		c-0.897-0.487-1.732-1.066-2.529-1.695c-0.79-0.593-1.588-1.177-2.46-1.652c-0.61-0.261-1.188-0.58-1.755-0.918
		c-0.878-0.489-1.765-0.958-2.684-1.379c-0.651-0.256-1.271-0.562-1.889-0.886c-0.652-0.292-1.28-0.617-1.918-0.937
		c-0.671-0.284-1.311-0.616-1.949-0.96c-0.668-0.307-1.314-0.647-1.968-0.979c-0.683-0.291-1.334-0.637-1.985-0.986
		c-0.674-0.312-1.328-0.658-1.988-0.996c-0.687-0.295-1.344-0.642-1.998-0.995c-0.677-0.313-1.334-0.662-1.996-1.001
		c-0.687-0.297-1.346-0.643-2.001-0.997c-0.678-0.313-1.335-0.663-1.998-1.003c-0.687-0.295-1.347-0.643-2.002-0.997
		c-0.677-0.313-1.335-0.663-1.998-1.002c-0.688-0.295-1.346-0.645-2.002-0.998c-0.677-0.313-1.335-0.662-1.998-1.003
		c-0.688-0.294-1.346-0.644-2.002-0.997c-0.677-0.312-1.335-0.663-1.998-1.003c-0.688-0.294-1.346-0.644-2.002-0.997
		c-0.677-0.312-1.335-0.663-1.998-1.003c-0.688-0.294-1.346-0.644-2.002-0.997c-0.677-0.312-1.335-0.663-1.998-1.003
		c-0.688-0.294-1.346-0.644-2.002-0.997c-0.677-0.312-1.335-0.663-1.998-1.003c-0.688-0.294-1.346-0.644-2.002-0.997
		c-0.677-0.312-1.335-0.663-1.998-1.003c-0.688-0.294-1.346-0.644-2.002-0.997c-0.677-0.312-1.335-0.663-1.998-1.003
		c-0.688-0.294-1.346-0.644-2.002-0.997c-0.677-0.312-1.335-0.663-1.998-1.003c-0.688-0.294-1.346-0.644-2.002-0.997
		c-0.677-0.312-1.335-0.663-1.998-1.003c-0.688-0.294-1.346-0.644-2.002-0.997c-0.677-0.312-1.335-0.663-1.998-1.003
		c-0.688-0.294-1.346-0.644-2.002-0.997c-0.677-0.312-1.335-0.663-1.998-1.003c-0.688-0.294-1.346-0.644-2.002-0.997
		c-0.677-0.312-1.335-0.663-1.998-1.003c-0.688-0.294-1.346-0.644-2.002-0.997c-0.677-0.312-1.335-0.663-1.998-1.003
		c-0.688-0.294-1.346-0.644-2.002-0.997c-0.677-0.312-1.335-0.663-1.998-1.003c-0.688-0.294-1.346-0.644-2.002-0.997
		c-0.677-0.312-1.335-0.663-1.998-1.003c-0.688-0.294-1.346-0.644-2.002-0.997c-0.677-0.313-1.335-0.663-1.998-1.003
		c-0.688-0.295-1.347-0.643-2.002-0.997c-0.678-0.313-1.335-0.664-1.999-1.003c-0.688-0.295-1.347-0.644-2.004-0.998
		c-0.678-0.313-1.336-0.664-2-1.003c-0.686-0.296-1.346-0.642-1.999-0.995c-0.67-0.311-1.321-0.657-1.976-0.992
		c-0.667-0.287-1.311-0.627-1.945-0.972c-0.64-0.301-1.267-0.638-1.892-0.964c-0.633-0.275-1.245-0.604-1.849-0.938
		c-0.889-0.473-1.777-0.956-2.686-1.396c-0.619-0.241-1.191-0.571-1.73-0.953c-0.547-0.346-1.053-0.753-1.534-1.183
		c-0.011,0.021-0.742-0.605-0.755-0.582c-0.541-0.33-1.072-0.676-1.623-0.995c-0.59-0.269-1.145-0.592-1.692-0.932
		c-0.857-0.494-1.73-0.952-2.637-1.362c-0.648-0.253-1.263-0.559-1.878-0.88c-0.65-0.292-1.277-0.615-1.912-0.933
		c-0.672-0.284-1.311-0.617-1.949-0.959c-0.668-0.308-1.314-0.648-1.968-0.981c-0.683-0.292-1.335-0.637-1.985-0.986
		c-0.676-0.312-1.33-0.66-1.99-0.998c-0.687-0.294-1.345-0.642-1.999-0.995c-0.677-0.313-1.334-0.662-1.996-1.002
		c-0.687-0.296-1.347-0.642-2.002-0.997c-0.677-0.313-1.335-0.662-1.997-1.002c-0.688-0.296-1.347-0.644-2.003-0.998
		c-0.677-0.312-1.335-0.663-1.998-1.003c-0.687-0.295-1.346-0.643-2.002-0.997c-0.677-0.312-1.335-0.663-1.998-1.003
		c-0.688-0.294-1.346-0.644-2.002-0.997c-0.677-0.312-1.335-0.663-1.998-1.003c-0.688-0.294-1.346-0.644-2.002-0.997
		c-0.677-0.312-1.335-0.663-1.998-1.003c-0.688-0.294-1.346-0.644-2.002-0.997c-0.677-0.312-1.335-0.663-1.998-1.003
		c-0.688-0.294-1.346-0.644-2.002-0.997c-0.677-0.312-1.335-0.663-1.998-1.003c-0.688-0.294-1.346-0.644-2.002-0.997
		c-0.677-0.312-1.335-0.663-1.998-1.003c-0.688-0.294-1.346-0.644-2.002-0.997c-0.677-0.312-1.335-0.663-1.998-1.003
		c-0.688-0.294-1.346-0.644-2.002-0.997c-0.677-0.312-1.335-0.663-1.998-1.003c-0.688-0.294-1.346-0.644-2.002-0.997
		c-0.677-0.312-1.335-0.663-1.998-1.003c-0.688-0.294-1.346-0.644-2.002-0.997c-0.677-0.312-1.335-0.663-1.998-1.003
		c-0.688-0.294-1.346-0.644-2.002-0.997c-0.677-0.312-1.335-0.663-1.998-1.003c-0.688-0.294-1.346-0.644-2.002-0.997
		c-0.677-0.312-1.335-0.663-1.998-1.003c-0.688-0.294-1.346-0.644-2.002-0.997c-0.677-0.312-1.335-0.663-1.998-1.003
		c-0.688-0.294-1.346-0.644-2.002-0.997c-0.677-0.312-1.335-0.663-1.998-1.003c-0.688-0.294-1.346-0.644-2.002-0.997
		c-0.677-0.312-1.335-0.663-1.998-1.003c-0.688-0.294-1.346-0.644-2.002-0.997c-0.677-0.312-1.335-0.663-1.998-1.003
		c-0.688-0.294-1.346-0.644-2.002-0.997c-0.677-0.313-1.335-0.663-1.998-1.003c-0.688-0.294-1.347-0.644-2.003-0.997
		c-0.677-0.313-1.335-0.663-1.997-1.003c-0.686-0.293-1.342-0.642-1.994-0.993c-0.667-0.31-1.316-0.655-1.967-0.99
		c-0.664-0.286-1.304-0.626-1.935-0.97c-0.637-0.3-1.26-0.639-1.883-0.965c-0.634-0.275-1.244-0.606-1.847-0.943
		c-0.894-0.485-1.792-0.971-2.722-1.397c-0.636-0.252-1.243-0.558-1.842-0.885c-0.908-0.47-1.801-0.97-2.693-1.472
		c-0.897-0.487-1.732-1.066-2.529-1.696c-0.79-0.592-1.588-1.176-2.46-1.651c-0.61-0.261-1.188-0.58-1.755-0.918
		c-0.879-0.488-1.765-0.958-2.684-1.378c-0.652-0.255-1.271-0.563-1.889-0.887c-0.652-0.293-1.279-0.618-1.918-0.937
		c-0.671-0.283-1.311-0.617-1.949-0.959c-0.668-0.308-1.314-0.647-1.968-0.98c-0.683-0.291-1.335-0.637-1.985-0.986
		c-0.675-0.312-1.328-0.659-1.988-0.996c-0.687-0.296-1.345-0.641-1.998-0.995c-0.677-0.312-1.334-0.663-1.996-1.001
		c-0.688-0.295-1.346-0.645-2.001-0.997c-0.678-0.313-1.335-0.663-1.998-1.003c-0.688-0.295-1.347-0.643-2.002-0.997
		c-0.677-0.313-1.335-0.663-1.998-1.003c-0.687-0.296-1.347-0.642-2.002-0.997c-0.677-0.312-1.335-0.663-1.998-1.003
		c-0.687-0.295-1.347-0.643-2.002-0.997c-0.677-0.313-1.335-0.663-1.999-1.003c-0.688-0.295-1.347-0.645-2.004-0.998
		c-0.679-0.313-1.337-0.664-2.002-1.004c-0.688-0.297-1.349-0.643-2.004-0.998c-0.675-0.311-1.33-0.659-1.989-0.996
		c-0.677-0.291-1.328-0.635-1.974-0.982c-0.66-0.307-1.303-0.649-1.95-0.982c-0.671-0.289-1.315-0.63-1.956-0.977
		c-0.991-0.497-1.99-0.979-3.026-1.409c-0.758-0.249-1.486-0.534-2.233-0.808c-1.245-0.371-2.481-0.727-3.726-1.12
		c-20.81-9.062-40.358-20.587-60.637-30.649c-71.334-35.396-142.07-71.973-213.112-107.939
		c-80.253-40.629-160.408-81.455-240.57-122.265c-78.381-39.902-156.743-79.84-235.173-119.645
		c-25.541-12.963-51.043-26.028-76.575-39.021c-2.373-1.208-4.703-2.535-7.27-3.307c-1.997-0.601-4.26-0.891-5.182,1.397
		c-0.944,2.344,1.027,3.665,2.854,4.515c11.494,5.345,22.171,12.229,33.527,17.813c73.254,36.023,145.706,73.636,218.534,110.498
		c78.47,39.717,156.849,79.622,235.224,119.528c78.971,40.21,158.031,80.242,236.985,120.483
		c80.736,41.151,161.567,82.113,242.34,123.191c78.101,39.719,156.331,79.187,234.257,119.239
		c59.557,30.611,119.807,59.856,178.985,91.204c5.321,2.819,10.718,5.449,14.353,10.529c30.178,49.487,61.451,98.286,92.969,146.93
		c-0.75,1.914-2.085,3.246-3.99,4.01c-16.086-8.043-32.393-15.678-48.215-24.211c-36.642-19.76-74.43-37.26-111.209-56.707
		c-27.346-14.459-55.243-27.803-82.607-42.192c-34.742-18.269-70.162-35.217-104.843-53.563
		c-32.972-17.441-66.821-33.128-99.655-50.777c-33.15-17.818-67.412-33.438-100.521-51.268
		c-32.557-17.531-66.217-32.85-98.751-50.352c-31.973-17.199-65.03-32.251-96.938-49.498
		c-31.029-16.772-63.173-31.319-94.122-48.181c-25.744-14.025-52.438-26.144-78.297-39.897
		c-40.213-21.389-81.396-40.872-121.651-62.146c-25.322-13.383-51.354-25.352-76.503-39.018
		c-36.585-19.879-74.567-36.998-111.229-56.662c-29.648-15.902-60.294-29.81-89.814-45.877
		c-30.725-16.723-62.64-31.069-93.38-47.688c-35.161-19.011-71.575-35.536-106.766-54.422
		c-22.598-12.128-45.701-23.203-68.429-35.039c-8.099-4.218-8.174-4.238-3.958-12.702c13.067-26.236,25.535-52.798,39.461-78.572
		c17.26-31.945,32.213-65.048,49.474-96.954c16.167-29.885,30.149-60.866,46.323-90.708c17.461-32.217,32.521-65.64,49.936-97.84
		c16.799-31.059,31.402-63.214,48.099-94.29c17.324-32.243,32.688-65.471,49.902-97.74c16.599-31.117,31.48-63.096,48.078-94.185
		c18.488-34.632,34.987-70.267,53.505-104.854c16.191-30.244,30.421-61.476,46.767-91.602c14.457-26.647,27.373-54.043,41.258-80.96
		C969.572,604.885,971.793,601.835,972.002,598.005z"/>
	<path fill-rule="evenodd" clip-rule="evenodd" fill="#CAC4B5" d="M399.734,980.174c-0.775,20.878-9.013,39.25-19.705,56.59
		c-17.779,28.829-39.15,55.013-60.672,81.078c-16.229,19.655-32.08,39.622-48.204,59.365c-4.165,5.101-8.722,9.883-13.099,14.812
		c-5.148-0.462-4.7-5.171-5.753-8.259c-8.576-25.164-16.44-50.578-25.358-75.619c-14.049-39.448-26.521-79.425-40.427-118.912
		c-2.781-7.896-2.19-14.412,1.584-21.8c28.929-56.63,56.941-113.734,86.436-170.065c21.472-41.009,41.701-82.621,62.587-123.911
		c4.312-8.524,9.729-13.992,19.233-16.805c42.952-12.715,85.728-26.032,128.529-39.255c15.862-4.9,31.576-10.278,47.435-15.189
		c44.38-13.745,88.816-27.304,133.196-41.046c24.735-7.659,49.393-15.573,74.105-23.304c18.054-5.647,36.155-11.145,54.209-16.791
		c5.662-1.771,11.092-1.31,16.568,0.757c22.982,8.674,45.991,17.278,68.99,25.911c8.08,3.033,16.134,6.142,24.244,9.095
		c8.971,3.266,11.065,7.676,5.986,15.591c-5.97,9.303-10.305,19.389-15.371,29.118c-19.208,36.888-38.017,73.984-57.497,110.727
		c-16.363,30.862-32.332,61.925-48.482,92.895c-16.612,31.856-33.222,63.713-49.812,95.58
		c-14.438,27.73-29.187,55.298-43.443,83.127c-17.9,34.938-35.888,69.837-54.308,104.503c-16.235,30.554-32.216,61.232-47.98,92.03
		c-16.521,32.276-33.423,64.358-50.217,96.496c-13.708,26.233-27.567,52.389-41.242,78.641
		c-18.904,36.294-37.368,72.823-56.707,108.884c-7.394,13.787-14.298,27.808-21.608,41.625c-3.368,6.366-3.73,6.61-9.843,3.488
		c-18.964-9.686-37.776-19.667-56.761-29.311c-4.75-2.413-6.21-6.6-7.685-11.032c-11.541-34.688-23.006-69.401-34.658-104.051
		c-8.26-24.562-16.798-49.028-25.154-73.558c-1.493-4.381-3.448-8.704-2.842-13.542c11.514-16.679,24.548-32.191,37.168-48.009
		c17.183-21.535,34.665-42.837,52.287-64.016c12.743-15.316,26.015-30.191,38.89-45.399c29.385-34.707,60.164-68.31,84.959-106.671
		c5.415-8.378,10.633-16.869,14.476-26.134c11.294-27.229,8.342-52.57-9.912-75.928c-1.792-3.647-0.294-7.12,0.528-10.646
		c7.146-30.673,3.104-59.36-14.623-85.89c-26.016-38.933-78.396-55.407-121.906-38.047c-40.251,16.06-66.627,53.492-67.235,95.421
		c-0.695,47.937,35.006,92.448,82.085,102.61C388.464,976.567,394.807,975.99,399.734,980.174z"/>
	<path fill-rule="evenodd" clip-rule="evenodd" fill="#B9B4A6" d="M1969.958,2178.026c2.131-2.042,0.227-3.816-0.687-5.259
		c-13.675-21.602-27.526-43.09-41.213-64.684c-23.994-37.86-47.931-75.758-71.843-113.671
		c-27.632-43.81-55.126-87.706-82.845-131.461c-16.171-25.526-32.79-50.768-48.979-76.282
		c-22.769-35.885-45.287-71.928-67.981-107.859c-25.354-40.145-50.797-80.232-76.18-120.358
		c-25.562-40.406-51.11-80.819-76.64-121.245c-27.302-43.232-54.554-86.496-81.873-129.718
		c-6.387-10.105-12.908-20.128-19.481-30.112c-1.128-1.714-2.189-3.317-2.22-5.418c3.832-2.77,7.062-0.123,10.171,1.422
		c69.236,34.42,138.008,69.753,206.715,105.215c1.776,0.918,3.534,1.874,5.329,2.755c73.002,35.847,145.17,73.35,217.723,110.084
		c79.979,40.494,159.896,81.12,239.779,121.808c78.4,39.932,156.647,80.163,235.374,119.449c8.361,4.173,16.082,9.494,24.627,13.288
		c2.73,1.213,6.307,2.966,8.043-0.398c1.987-3.853-2.439-4.608-4.703-6.195c-0.812-0.569-1.766-0.935-2.665-1.372
		c-48.559-23.623-96.086-49.273-144.433-73.318c-55.506-27.605-110.603-56.03-165.868-84.113
		c-77.843-39.555-155.691-79.103-233.519-118.689c-80.798-41.097-161.748-81.897-242.387-123.297
		c-53.659-27.549-108.071-53.624-161.146-82.299c-1.256-0.634-2.48-1.335-3.719-2c-0.834-0.381-1.638-0.828-2.437-1.278
		c-3.137-2.831-8.881-3.113-8.906-9.019c2.301-1.649,1.231-3.17,0.06-5.006c-13.401-20.984-26.757-42-40.071-63.041
		c-23.965-37.875-47.919-75.757-71.83-113.665c-27.632-43.805-55.152-87.68-82.842-131.448
		c-14.91-23.568-30.17-46.917-45.102-70.473c-24.173-38.135-48.183-76.374-72.304-114.542
		c-25.363-40.134-50.791-80.226-76.154-120.359c-5.645-8.931-12.715-17.053-15.759-27.478c0.619-1.878,1.137-3.797,1.88-5.623
		c1.235-3.031,2.661-3.53,6.048-1.822c20.499,10.338,41.487,19.729,61.776,30.45c37.368,19.748,75.628,37.745,112.944,57.545
		c32.077,17.021,65.065,32.219,96.993,49.461c31.369,16.939,63.863,31.645,95.194,48.584c31.949,17.273,65.04,32.266,96.98,49.487
		c32.552,17.551,66.247,32.836,98.758,50.394c30.785,16.626,62.686,31.024,93.406,47.696c29.872,16.211,60.885,30.154,90.73,46.338
		c35.737,19.378,72.802,36.111,108.577,55.348c30.224,16.252,61.492,30.43,91.623,46.785c30.458,16.532,62.072,30.754,92.51,47.253
		c31.343,16.989,63.862,31.646,95.195,48.581c33.124,17.903,67.379,33.539,100.557,51.278
		c31.694,16.947,64.345,32.013,95.969,49.033c29.928,16.107,60.825,30.256,90.762,46.285c33.44,17.905,67.821,33.955,101.289,51.761
		c19.112,10.168,38.544,19.664,57.747,29.627c8.114,4.209,8.696,5.018,4.284,12.942c-17.345,31.153-31.857,63.75-48.722,95.125
		c-7.726,14.374-15.058,28.928-22.448,43.459c-24.91,48.977-49.199,98.277-74.705,146.941
		c-17.303,33.011-33.175,66.741-50.783,99.567c-16.378,30.532-30.835,62.027-47.208,92.531
		c-16.997,31.665-32.115,64.273-49.009,95.966c-18.943,35.538-35.852,72.107-54.832,107.595
		c-16.658,31.143-31.306,63.29-48.113,94.314c-17.439,32.193-32.559,65.553-50.019,97.702
		c-12.405,22.841-23.405,46.368-35.388,69.407c-3.559,0.016-5.012-2.496-6.673-5.129c-13.789-21.847-27.705-43.612-41.547-65.425
		c-10.825-17.06-21.731-34.068-32.335-51.265c-4.832-7.837-10.967-14.994-13.44-24.158c4.786-1.719,8.311,1.493,12.042,3.331
		c24.491,12.061,48.776,24.534,73.305,36.517c3.023,1.477,7.529,5.562,9.595,1.564c2.531-4.898-3.746-5.993-6.938-7.633
		c-31.977-16.422-63.697-33.342-95.975-49.182C1978.316,2187.82,1971.625,2185.579,1969.958,2178.026z"/>
	<path fill-rule="evenodd" clip-rule="evenodd" fill="#D1AF66" d="M399.734,980.174c-43.272-1.937-82.043-31.321-95.727-72.561
		c-11.32-34.115-6.283-65.783,13.829-94.782c15.967-23.021,38.39-37.607,66.129-42.831c38.616-7.272,72.016,3.646,98.7,32.131
		c17.246,18.409,27.01,40.77,27.536,66.683c0.3,14.791-0.895,29.199-6.325,43.068c-14.014-16.663-30.292-30.862-47.741-43.764
		c-2.403-1.776-4.872-3.347-6.201-6.146c-0.673-0.672-1.288-1.402-2.011-2.025l0.106,0.13c-9.932-16.208-23-28.269-42.319-32.14
		c-1.911-0.383-3.722-1.588-5.646-0.132c-21.295-7.436-49.583,8.426-56.079,31.805c-3.726,13.407-2.433,26.158,4.042,38.428
		c2.157,2.303,2.384,5.793,4.866,7.896c7.172,8.217,14.022,16.776,23.818,22.171C390.188,942.897,399.245,959.641,399.734,980.174z"
		/>
	
	
	<path fill-rule="evenodd" clip-rule="evenodd" fill="#DDB9A0" d="M352.01,903.437c-0.089,0.87-0.177,1.74-0.268,2.609
		c-2.405-2.129-3.426-4.898-3.714-8.008C350.309,899.135,351.889,900.748,352.01,903.437z"/>
	
	<path fill-rule="evenodd" clip-rule="evenodd" fill="#A7A397" d="M1969.958,2178.026c5.701,5.751,12.725,9.415,19.901,12.942
		c17.027,8.366,34.143,16.584,50.877,25.508c15.261,8.137,30.548,16.198,46.022,23.919c5.735,2.861,6.135,5.079,3.049,10.043
		c-1.573,2.53-3.343,2.882-5.813,1.555c-2.051-1.102-4.171-2.074-6.254-3.116c-28.582-14.283-57.164-28.568-85.745-42.854
		c-5.256-4.715-11.502-7.784-17.743-10.937c-53.499-27.017-107.25-53.552-160.33-81.369c-37.759-19.788-76.391-37.83-113.968-57.914
		c-38.777-20.726-78.723-39.12-117.513-59.765c-40.574-21.596-82.318-40.868-122.878-62.436
		c-39.996-21.268-81.129-40.27-121.081-61.564c-37.917-20.211-76.968-38.164-114.847-58.388
		c-39.962-21.337-81.112-40.301-121.082-61.565c-40.578-21.589-82.334-40.84-122.874-62.442
		c-37.04-19.737-75.159-37.31-112.165-57.056c-39.67-21.168-80.517-40-120.191-61.103c-39.406-20.96-79.716-40.088-119.354-60.56
		c-12.374-6.392-24.55-13.167-37.082-19.909c0.932-2.115,1.702-3.921,2.518-5.706c1.357-2.972,3.498-3.812,6.476-2.33
		c2.087,1.039,4.191,2.045,6.276,3.088c20.26,10.127,40.787,19.757,60.718,30.493c40.176,21.642,81.696,40.624,121.956,62.047
		c37.639,20.028,76.354,37.899,113.962,57.929c40.274,21.451,81.705,40.606,121.964,62.03
		c39.108,20.812,79.344,39.369,118.422,60.181c40.275,21.45,81.727,40.566,121.965,62.028
		c37.032,19.752,75.062,37.491,112.176,57.036c17.079,8.994,34.132,18.024,51.462,26.525c2.965,1.455,5.717,3.486,9.195,3.67
		c0.596,0.734,1.392,1.264,2.02,1.965c0.659,0.022,1.319,0.034,1.98,0.035c0.596,0.735,1.393,1.264,2.02,1.967
		c0.659,0.021,1.317,0.033,1.977,0.035c0.604,0.729,1.395,1.264,2.023,1.966c0.658,0.021,1.316,0.032,1.975,0.035
		c0.605,0.729,1.398,1.263,2.026,1.968c0.657,0.021,1.315,0.031,1.973,0.033c0.606,0.727,1.399,1.262,2.027,1.967
		c0.656,0.021,1.313,0.033,1.971,0.034c0.608,0.726,1.401,1.262,2.029,1.967c0.656,0.021,1.313,0.032,1.97,0.033
		c0.61,0.726,1.403,1.262,2.03,1.97c0.656,0.021,1.312,0.031,1.969,0.031c0.611,0.724,1.404,1.261,2.031,1.969
		c0.655,0.022,1.311,0.033,1.966,0.032c0.614,0.723,1.408,1.26,2.035,1.971c0.654,0.021,1.309,0.031,1.964,0.03
		c0.616,0.722,1.41,1.26,2.036,1.972c0.653,0.021,1.307,0.031,1.961,0.029c0.619,0.72,1.413,1.259,2.039,1.972
		c0.653,0.021,1.307,0.031,1.961,0.029c0.62,0.72,1.415,1.258,2.039,1.973c0.652,0.021,1.305,0.031,1.957,0.028
		c0.624,0.717,1.418,1.257,2.044,1.972c0.651,0.022,1.304,0.031,1.956,0.028c0.624,0.717,1.418,1.257,2.044,1.972
		c0.651,0.022,1.303,0.032,1.954,0.03c0.627,0.716,1.423,1.256,2.047,1.975c1.334,0.668,2.669,1.337,4.004,2.005
		c0.64,0.672,1.303,1.32,1.988,1.947c0.669,0.018,1.338,0.035,2.008,0.053c0.644,0.672,1.309,1.322,1.993,1.952
		c0.668,0.016,1.336,0.032,2.004,0.048c0.646,0.671,1.311,1.322,1.996,1.952c0.667,0.016,1.335,0.032,2.002,0.048
		c0.646,0.671,1.312,1.322,1.998,1.954c0.667,0.016,1.335,0.03,2.002,0.046c0.573,0.747,1.366,1.27,1.998,1.956
		c0.666,0.025,1.331,0.041,1.997,0.048c0.58,0.742,1.373,1.266,2.004,1.956c0.664,0.024,1.33,0.039,1.995,0.044
		c0.581,0.741,1.374,1.266,2.005,1.957c0.664,0.023,1.328,0.038,1.992,0.044c0.585,0.74,1.379,1.266,2.008,1.959
		c0.663,0.022,1.326,0.037,1.99,0.042c0.587,0.738,1.381,1.265,2.011,1.959c0.662,0.022,1.325,0.036,1.989,0.041
		c0.587,0.738,1.381,1.265,2.011,1.959c0.663,0.022,1.325,0.036,1.989,0.041c0.587,0.738,1.381,1.265,2.011,1.959
		c0.662,0.022,1.324,0.036,1.987,0.041c0.589,0.738,1.383,1.265,2.013,1.961c0.662,0.021,1.324,0.035,1.986,0.04
		c0.59,0.737,1.386,1.265,2.014,1.963c0.661,0.022,1.322,0.035,1.983,0.038c0.594,0.735,1.389,1.264,2.017,1.963
		c0.66,0.023,1.32,0.036,1.981,0.037c0.596,0.734,1.392,1.264,2.02,1.965c0.659,0.022,1.319,0.034,1.98,0.035
		c0.596,0.734,1.392,1.264,2.02,1.966c0.659,0.022,1.318,0.035,1.978,0.036c0.602,0.729,1.394,1.264,2.022,1.966
		c0.658,0.021,1.316,0.032,1.975,0.035c0.605,0.729,1.398,1.263,2.026,1.968c0.657,0.021,1.315,0.031,1.973,0.033
		c0.606,0.727,1.399,1.262,2.027,1.967c0.656,0.021,1.313,0.033,1.971,0.034c0.608,0.726,1.401,1.262,2.029,1.967
		c0.657,0.021,1.313,0.032,1.971,0.033c0.609,0.726,1.402,1.262,2.029,1.969c0.656,0.021,1.312,0.032,1.969,0.032
		c0.611,0.724,1.404,1.261,2.031,1.969c0.655,0.022,1.311,0.033,1.966,0.032c0.614,0.723,1.408,1.26,2.035,1.971
		c0.654,0.021,1.309,0.031,1.964,0.03c0.616,0.722,1.41,1.259,2.036,1.971c0.653,0.021,1.308,0.031,1.962,0.03
		c0.618,0.721,1.413,1.259,2.038,1.972c0.653,0.021,1.307,0.031,1.961,0.029c0.619,0.719,1.414,1.258,2.039,1.972
		c0.652,0.021,1.306,0.031,1.958,0.029c0.623,0.717,1.417,1.257,2.043,1.972c0.651,0.022,1.304,0.031,1.956,0.028
		c0.624,0.717,1.418,1.257,2.044,1.972c0.651,0.022,1.304,0.031,1.956,0.028c0.624,0.718,1.42,1.258,2.045,1.974
		c0.649,0.023,1.301,0.033,1.951,0.029c0.648,0.694,1.374,1.308,2.049,1.974l0.005,0.005c0.64,0.672,1.304,1.319,1.987,1.947
		c0.669,0.018,1.338,0.035,2.008,0.053c0.643,0.672,1.308,1.321,1.992,1.95c0.669,0.017,1.337,0.033,2.005,0.05
		c0.646,0.671,1.311,1.322,1.996,1.952c0.667,0.016,1.335,0.032,2.002,0.048c0.646,0.671,1.312,1.322,1.998,1.953
		c0.667,0.016,1.335,0.031,2.002,0.047c0.573,0.747,1.366,1.27,1.998,1.957c0.666,0.024,1.331,0.04,1.997,0.047
		c0.58,0.741,1.372,1.266,2.004,1.955c0.665,0.023,1.33,0.039,1.996,0.045c0.58,0.742,1.373,1.267,2.004,1.957
		c0.665,0.023,1.33,0.038,1.995,0.043c0.581,0.742,1.375,1.267,2.005,1.958c0.663,0.023,1.327,0.038,1.991,0.044
		c0.586,0.738,1.379,1.265,2.009,1.958c0.663,0.023,1.326,0.037,1.99,0.042c0.587,0.738,1.381,1.265,2.011,1.959
		c0.663,0.022,1.325,0.036,1.989,0.041c0.587,0.738,1.381,1.265,2.011,1.959c0.662,0.022,1.325,0.036,1.988,0.041
		c0.588,0.738,1.382,1.265,2.012,1.96c0.662,0.022,1.325,0.036,1.987,0.04c0.589,0.738,1.384,1.266,2.013,1.962
		c0.661,0.022,1.322,0.036,1.983,0.04c0.594,0.735,1.389,1.264,2.018,1.964c0.66,0.022,1.32,0.035,1.981,0.036
		c0.595,0.734,1.39,1.264,2.019,1.964c0.659,0.023,1.319,0.035,1.98,0.036c0.596,0.734,1.392,1.264,2.02,1.965
		c0.659,0.022,1.319,0.035,1.98,0.035c0.596,0.735,1.393,1.264,2.02,1.967c0.658,0.021,1.317,0.033,1.976,0.035
		c0.604,0.729,1.396,1.264,2.024,1.967c0.658,0.02,1.316,0.031,1.975,0.034c0.605,0.729,1.398,1.263,2.026,1.968
		c0.656,0.021,1.313,0.033,1.971,0.034c0.608,0.726,1.401,1.262,2.029,1.967c0.657,0.021,1.313,0.032,1.971,0.033
		c0.608,0.726,1.401,1.262,2.029,1.967c0.656,0.021,1.313,0.032,1.97,0.033c0.61,0.726,1.403,1.262,2.03,1.97
		c0.656,0.021,1.312,0.031,1.968,0.031c0.612,0.725,1.406,1.261,2.033,1.971c0.654,0.021,1.309,0.032,1.964,0.031
		c0.616,0.721,1.409,1.259,2.036,1.97c0.654,0.021,1.309,0.03,1.964,0.03c0.616,0.722,1.411,1.26,2.036,1.973
		c0.653,0.021,1.307,0.03,1.961,0.027c0.619,0.722,1.415,1.26,2.039,1.975c0.653,0.021,1.307,0.029,1.96,0.027
		c0.621,0.719,1.416,1.258,2.041,1.973c0.651,0.022,1.304,0.032,1.956,0.028c0.624,0.718,1.418,1.257,2.044,1.972
		c0.651,0.022,1.304,0.032,1.956,0.028c0.623,0.718,1.419,1.257,2.044,1.972c0.651,0.023,1.302,0.034,1.953,0.031
		c0.628,0.714,1.423,1.254,2.048,1.973c1.333,0.668,2.667,1.337,4,2.006c0.643,0.672,1.308,1.321,1.992,1.951
		c0.669,0.016,1.337,0.032,2.005,0.049c0.646,0.671,1.31,1.322,1.996,1.952c0.667,0.016,1.335,0.032,2.002,0.048
		c0.646,0.671,1.312,1.322,1.998,1.953c0.667,0.016,1.335,0.031,2.002,0.047c0.646,0.672,1.313,1.322,1.998,1.955
		c0.667,0.015,1.334,0.029,2.001,0.045c0.574,0.746,1.368,1.27,2,1.958c0.665,0.023,1.33,0.038,1.996,0.043
		c0.579,0.744,1.372,1.27,2.004,1.96c0.665,0.023,1.33,0.037,1.995,0.041c0.581,0.743,1.374,1.269,2.005,1.96
		c0.663,0.024,1.327,0.039,1.991,0.043c0.585,0.739,1.379,1.266,2.009,1.96c0.663,0.023,1.326,0.037,1.99,0.041
		c0.586,0.738,1.381,1.264,2.01,1.959c0.664,0.023,1.327,0.036,1.991,0.04c0.585,0.739,1.38,1.266,2.01,1.96
		c0.662,0.024,1.325,0.038,1.988,0.041c0.588,0.738,1.382,1.266,2.012,1.96c0.662,0.024,1.325,0.038,1.987,0.04
		c0.589,0.738,1.384,1.265,2.013,1.961c0.661,0.024,1.323,0.038,1.984,0.041c0.593,0.736,1.388,1.264,2.017,1.963
		c0.66,0.024,1.321,0.037,1.982,0.038c0.594,0.734,1.389,1.263,2.018,1.963c0.659,0.024,1.319,0.037,1.98,0.038
		c0.597,0.732,1.392,1.262,2.02,1.963c0.659,0.023,1.319,0.036,1.98,0.037c0.6,0.73,1.391,1.264,2.02,1.965
		c0.658,0.021,1.317,0.033,1.977,0.035c0.604,0.729,1.395,1.264,2.023,1.966c0.658,0.021,1.316,0.032,1.975,0.036
		c0.605,0.728,1.398,1.262,2.026,1.967c0.657,0.019,1.315,0.029,1.973,0.033c0.607,0.727,1.399,1.263,2.027,1.968
		c0.656,0.02,1.313,0.03,1.971,0.033c0.608,0.726,1.402,1.261,2.029,1.968c0.657,0.019,1.313,0.029,1.97,0.032
		c0.61,0.726,1.402,1.262,2.03,1.968c0.656,0.02,1.312,0.031,1.968,0.033c0.612,0.725,1.405,1.261,2.033,1.969
		c0.654,0.021,1.31,0.031,1.965,0.032c0.615,0.722,1.408,1.261,2.035,1.971c0.654,0.021,1.309,0.03,1.964,0.03
		c0.616,0.722,1.411,1.26,2.036,1.973c0.653,0.021,1.307,0.03,1.961,0.027c0.619,0.722,1.415,1.26,2.039,1.975
		c0.653,0.021,1.307,0.029,1.96,0.027c0.62,0.719,1.416,1.258,2.041,1.973c0.651,0.022,1.304,0.032,1.956,0.028
		c0.624,0.718,1.418,1.257,2.044,1.972c0.651,0.022,1.304,0.032,1.956,0.028c0.624,0.717,1.418,1.257,2.044,1.972
		c0.651,0.023,1.303,0.033,1.954,0.03c0.627,0.716,1.422,1.256,2.047,1.974c1.334,0.668,2.669,1.337,4.004,2.006
		c0.64,0.672,1.303,1.32,1.988,1.947c0.669,0.018,1.338,0.035,2.008,0.053c0.643,0.672,1.309,1.322,1.993,1.952
		c0.667,0.016,1.335,0.032,2.002,0.048c0.646,0.671,1.312,1.322,1.998,1.953c0.667,0.016,1.335,0.031,2.002,0.047
		c0.646,0.672,1.313,1.322,1.998,1.955c0.667,0.015,1.335,0.029,2.002,0.045c0.574,0.746,1.366,1.27,1.998,1.957
		c0.666,0.023,1.331,0.038,1.997,0.043c0.578,0.744,1.371,1.27,2.004,1.959c0.664,0.024,1.33,0.038,1.995,0.043
		c0.58,0.743,1.374,1.268,2.005,1.959c0.664,0.023,1.328,0.038,1.992,0.043c0.584,0.741,1.379,1.267,2.008,1.961
		c0.663,0.023,1.326,0.037,1.99,0.041c0.587,0.738,1.38,1.265,2.01,1.959c0.664,0.023,1.327,0.036,1.991,0.04
		c0.585,0.739,1.38,1.266,2.01,1.96c0.663,0.024,1.325,0.038,1.989,0.041c0.586,0.738,1.381,1.265,2.011,1.959
		c0.662,0.025,1.324,0.039,1.987,0.041c0.589,0.738,1.384,1.265,2.013,1.961c0.662,0.023,1.324,0.037,1.986,0.04
		c0.59,0.737,1.386,1.265,2.014,1.962c0.661,0.025,1.322,0.039,1.983,0.04c0.594,0.734,1.389,1.263,2.018,1.963
		c0.659,0.024,1.319,0.037,1.98,0.037c0.596,0.733,1.392,1.263,2.02,1.964c0.659,0.023,1.319,0.036,1.98,0.037
		c0.596,0.733,1.393,1.262,2.02,1.964c0.659,0.022,1.318,0.034,1.978,0.036c0.603,0.729,1.394,1.264,2.022,1.966
		c0.658,0.021,1.316,0.032,1.975,0.036c0.605,0.728,1.398,1.262,2.026,1.967c0.657,0.019,1.315,0.029,1.973,0.033
		c0.607,0.727,1.399,1.263,2.027,1.968c0.656,0.02,1.313,0.03,1.971,0.033c0.608,0.726,1.402,1.261,2.029,1.968
		c0.657,0.019,1.313,0.029,1.97,0.032c0.61,0.726,1.402,1.262,2.03,1.968c0.656,0.02,1.312,0.03,1.969,0.033
		c0.61,0.725,1.404,1.261,2.031,1.968c0.655,0.021,1.311,0.032,1.966,0.033c0.615,0.722,1.408,1.261,2.035,1.971
		c0.654,0.021,1.309,0.03,1.964,0.03c0.616,0.721,1.41,1.26,2.036,1.972c0.653,0.021,1.308,0.03,1.962,0.028
		c0.618,0.721,1.413,1.26,2.038,1.975c0.653,0.021,1.307,0.029,1.961,0.026c0.619,0.72,1.415,1.259,2.039,1.974
		c0.652,0.022,1.305,0.032,1.958,0.028c0.623,0.718,1.417,1.257,2.043,1.972c0.652,0.021,1.305,0.031,1.958,0.027
		c0.621,0.719,1.416,1.258,2.041,1.973C1968.651,2178.008,1969.305,2178.02,1969.958,2178.026z"/>
	<path fill-rule="evenodd" clip-rule="evenodd" fill="#A5A195" d="M1392.017,1253.994c12.128,3.877,23.033,10.417,34.134,16.369
		c7.023,3.766,13.999,7.673,21.124,11.258c30.356,15.275,61.081,29.852,91.092,45.776c39.729,21.082,80.562,39.971,120.245,61.084
		c39.415,20.971,79.945,39.712,119.336,60.671c40.001,21.283,81.157,40.272,121.114,61.58
		c37.339,19.911,75.784,37.604,113.103,57.495c40.572,21.627,82.328,40.908,122.887,62.503
		c37.351,19.888,75.747,37.67,113.108,57.483c32.96,17.479,66.459,33.867,99.708,50.76c5.812,2.952,5.98,6.999,1.005,11.149
		c-2.749,2.293-4.99,0.865-7.295-0.361c-8.22-4.374-16.286-9.048-24.599-13.235c-32.135-16.189-64.64-31.671-96.449-48.474
		c-42.123-22.25-85.327-42.357-127.385-64.683c-37.963-20.151-76.978-38.195-114.884-58.399
		c-39.985-21.313-81.142-40.302-121.11-61.587c-37.938-20.202-76.968-38.214-114.882-58.404
		c-41.169-21.923-83.515-41.511-124.687-63.374c-38.843-20.625-78.773-39.08-117.538-59.794
		c-29.68-15.858-60.023-30.355-89.936-45.726c-3.225-1.657-6.277-3.861-10.093-4.126c-2.04-4.284-6.087-6.055-10.002-7.992
		c-0.836-3.966-4.974-7.378-2.012-11.983c0.668,0.017,1.336,0.033,2.004,0.05C1390.547,1252.82,1391.417,1253.269,1392.017,1253.994
		z"/>
	<path fill-rule="evenodd" clip-rule="evenodd" fill="#5F5F5F" d="M772.048,1496.062c14.772-6.032,29.703-11.709,44.269-18.203
		c12.66-5.646,25.316-7.487,38.822-3.862c13.399,3.596,16.917,9.678,12.088,22.691c-1.254,3.377-3.59,6.345-5.344,9.547
		c-2.446,4.463-1.444,7.15,3.592,7.42c9.661,0.517,19.311,0.231,27.161-6.904c2.457-2.233,5.219-4.13,7.795-6.236
		c2.145-1.753,4.532-2.662,7.324-2.729c6.482-0.153,7.963,2.259,5.045,8.387c-0.402,0.843-0.838,1.67-1.563,3.11
		c6.479,1.043,12.725,0.052,18.728,2.209c12.311,4.423,13.034,5.103,11.443,18.393c9.27-2.579,18.323-2.82,27.231,0.711
		c10.567,4.188,12.479,9.702,6.361,19.254c-7.335,11.454-18.354,19.17-28.511,27.726c-3.021,2.545-6.351,4.642-7.815,8.342
		c2.344,3.026,4.529,1.321,6.572,0.659c15.526-5.032,30.265-12.064,45.457-17.948c2.814-1.09,6.414-4.511,8.581,0.064
		c1.985,4.19-2.489,5.683-5.156,7.122c-17.585,9.494-35.622,18.021-54.484,24.729c-3.561,1.266-7.061,1.755-10.736,0.613
		c-7.79-2.42-15.109-10.463-5.438-19.624c8.213-7.78,16.679-15.293,25.025-22.932c1.72-1.574,3.622-3.014,5.057-4.819
		c2.12-2.67,7.396-4.589,5.082-8.541c-1.91-3.264-6.855-1.689-10.271-1.103c-13.338,2.295-25.061,8.727-36.618,15.353
		c-6.346,3.638-12.454,7.697-18.606,11.663c-3.182,2.052-6.501,3.312-10.344,2.876c-4.633-0.525-6.323-3.881-3.545-7.664
		c1.337-1.822,3.398-3.132,5.198-4.591c11.112-9.007,22.246-17.987,33.363-26.988c0.773-0.627,1.535-1.291,2.195-2.033
		c1.547-1.737,3.633-3.738,2.673-6.036c-1.239-2.966-4.35-2.568-7.024-2.087c-13.605,2.451-26.064,7.891-37.886,14.862
		c-7.45,4.395-14.75,9.043-22.113,13.584c-2.88,1.776-5.842,3.257-9.387,2.603c-3.955-0.73-5.849-4.255-3.387-7.339
		c2.454-3.074,5.745-5.5,8.761-8.104c5.715-4.934,12.247-8.938,18.689-16.117c-7.903-0.148-14.551,0.275-19.8-4.527
		c-1.905-1.743-3.572,0.727-4.895,2.05c-5.693,5.699-11.988,10.576-19.245,14.104c-8.671,4.215-17.54,5.842-27.013,2.425
		c-16.093-5.807-20.698-16.53-13.425-31.901c0.424-0.896,0.745-1.842,1.438-3.575c-5.136-0.253-8.971,2.354-12.986,4.053
		c-5.573,2.36-11.147,4.299-17.37,3.542c-7.904-0.962-10.06-4.378-6.568-11.383c2.671-5.36,5.875-10.306,10.932-14.009
		c6.701-4.909,12.852-10.57,19.543-15.493c4.178-3.073,6.145-5.71,1.854-10.228c-1.213-1.277-1.253-3.669-1.966-5.988
		c-4.133,2.316-7.425,5.734-11.809,7.406c-2.885,1.1-5.703,1.858-8.74,1.232c-2.131-0.439-3.53-1.796-3.912-3.99
		c-0.415-2.383,0.879-3.949,2.949-4.529c9.65-2.703,16.799-9.151,24.113-15.497c3.663-3.177,5.681-2.191,6.682,2.567
		c2.092,9.942,2.092,9.942,6.797,14.922c2.925-2.105,5.774-4.38,8.844-6.304c2.931-1.837,6.079-3.092,8.836,0.469
		c2.569,3.318,2.095,7.413-1.733,10.46c-7.021,5.587-14.302,10.849-21.376,16.371c-7.327,5.72-15.022,10.99-21.667,17.555
		C769.153,1496.006,769.568,1497.077,772.048,1496.062z"/>
	<path fill-rule="evenodd" clip-rule="evenodd" fill="#A7A397" d="M1388.002,1251.984c-0.347,4.166,4.881,7.396,2.012,11.984
		c-22.043-11.016-44.363-21.514-66.068-33.158c-41.084-22.04-83.488-41.47-124.633-63.336
		c-39.7-21.099-80.516-39.969-120.168-61.103c-38.204-20.362-77.549-38.458-115.711-58.839
		c-34.076-18.199-68.95-34.771-103.271-52.458c-1.185-0.61-2.352-1.268-3.579-1.775c-4.272-1.771-5.188-4.328-2.995-8.64
		c2.237-4.396,4.827-4.647,8.802-2.521c13.194,7.062,26.393,14.13,39.752,20.872c32.107,16.207,64.599,31.679,96.398,48.463
		c42.405,22.382,85.658,43.057,128.241,65.061c10.033,5.185,19.823,10.873,30.002,15.805c2.974,1.44,5.721,3.48,9.198,3.666
		c0.589,0.738,1.383,1.265,2.013,1.961c0.662,0.021,1.324,0.035,1.986,0.04c0.59,0.737,1.386,1.265,2.014,1.963
		c0.661,0.022,1.322,0.035,1.983,0.038c0.594,0.735,1.389,1.264,2.018,1.964c0.659,0.022,1.32,0.035,1.98,0.036
		c0.596,0.734,1.392,1.264,2.02,1.965c0.659,0.022,1.32,0.034,1.98,0.035c0.596,0.734,1.392,1.264,2.02,1.966
		c0.659,0.022,1.318,0.035,1.978,0.036c0.602,0.729,1.394,1.264,2.022,1.966c0.658,0.021,1.316,0.032,1.975,0.035
		c0.605,0.728,1.397,1.264,2.026,1.968c0.657,0.02,1.315,0.031,1.973,0.033c0.606,0.727,1.399,1.263,2.027,1.967
		c0.656,0.021,1.313,0.032,1.971,0.034c0.609,0.726,1.401,1.262,2.029,1.967c0.657,0.021,1.313,0.032,1.971,0.033
		c0.609,0.726,1.402,1.262,2.029,1.968c0.656,0.021,1.312,0.032,1.969,0.033c0.611,0.725,1.404,1.261,2.031,1.969
		c0.655,0.022,1.311,0.033,1.966,0.032c0.614,0.723,1.408,1.26,2.035,1.97c0.654,0.021,1.309,0.032,1.964,0.031
		c0.616,0.722,1.409,1.26,2.036,1.971c0.653,0.021,1.308,0.031,1.962,0.03c0.618,0.72,1.413,1.258,2.038,1.972
		c0.653,0.021,1.308,0.031,1.961,0.028c0.619,0.721,1.415,1.259,2.039,1.974c0.652,0.021,1.305,0.031,1.958,0.028
		c0.623,0.717,1.417,1.257,2.043,1.972c0.651,0.021,1.305,0.031,1.957,0.028c0.623,0.717,1.417,1.257,2.043,1.972
		c0.651,0.021,1.305,0.031,1.957,0.028c0.623,0.718,1.419,1.257,2.043,1.974c0.65,0.023,1.302,0.033,1.952,0.029
		c0.648,0.694,1.374,1.308,2.049,1.974l0.005,0.005c0.64,0.672,1.304,1.319,1.987,1.947c0.669,0.018,1.338,0.035,2.008,0.053
		c0.644,0.671,1.307,1.322,1.992,1.95c0.669,0.017,1.338,0.033,2.006,0.05c0.645,0.671,1.31,1.322,1.995,1.952
		c0.667,0.016,1.335,0.032,2.002,0.048c0.646,0.671,1.312,1.322,1.998,1.953c0.667,0.016,1.335,0.031,2.002,0.047
		c0.573,0.747,1.366,1.27,1.998,1.956c0.666,0.025,1.331,0.041,1.997,0.048c0.58,0.742,1.373,1.266,2.004,1.956
		c0.665,0.024,1.33,0.038,1.995,0.044c0.581,0.741,1.374,1.267,2.005,1.957c0.664,0.023,1.328,0.038,1.992,0.044
		c0.584,0.74,1.379,1.266,2.008,1.959c0.663,0.023,1.326,0.037,1.99,0.042c0.587,0.738,1.381,1.265,2.011,1.959
		c0.663,0.022,1.326,0.036,1.989,0.041c0.587,0.738,1.381,1.265,2.011,1.959c0.662,0.022,1.325,0.036,1.989,0.041
		c0.587,0.738,1.381,1.265,2.011,1.959c0.662,0.022,1.325,0.036,1.988,0.041c0.588,0.738,1.382,1.265,2.012,1.96
		c0.662,0.022,1.325,0.035,1.987,0.04c0.589,0.738,1.385,1.266,2.013,1.963c0.661,0.023,1.322,0.036,1.983,0.039
		c0.593,0.735,1.389,1.264,2.017,1.963c0.661,0.023,1.321,0.035,1.982,0.037c0.595,0.735,1.39,1.264,2.019,1.964
		c0.659,0.022,1.32,0.035,1.98,0.036c0.596,0.734,1.392,1.264,2.02,1.965c0.659,0.022,1.319,0.035,1.979,0.036
		c0.597,0.733,1.394,1.263,2.021,1.967c0.658,0.021,1.317,0.032,1.977,0.034c0.604,0.729,1.395,1.264,2.023,1.967
		c0.658,0.02,1.316,0.031,1.975,0.034c0.605,0.729,1.398,1.264,2.026,1.968c0.656,0.021,1.313,0.032,1.971,0.034
		c0.609,0.726,1.401,1.262,2.029,1.967c0.657,0.021,1.313,0.032,1.971,0.033c0.609,0.726,1.401,1.262,2.029,1.967
		c0.656,0.021,1.313,0.032,1.97,0.033c0.61,0.726,1.403,1.262,2.03,1.97c0.656,0.021,1.312,0.031,1.968,0.031
		c0.612,0.725,1.406,1.261,2.033,1.971c0.654,0.021,1.309,0.032,1.964,0.031c0.616,0.722,1.409,1.26,2.036,1.971
		c0.653,0.021,1.308,0.031,1.962,0.03c0.618,0.72,1.413,1.258,2.038,1.972c0.653,0.021,1.308,0.03,1.961,0.028
		c0.619,0.721,1.414,1.259,2.039,1.972c0.653,0.021,1.307,0.031,1.96,0.029c0.621,0.719,1.416,1.258,2.041,1.973
		c0.651,0.021,1.305,0.031,1.957,0.028c0.623,0.717,1.417,1.257,2.043,1.972c0.651,0.021,1.305,0.031,1.957,0.028
		c0.623,0.718,1.419,1.257,2.043,1.974c0.65,0.023,1.302,0.033,1.952,0.029c0.648,0.694,1.374,1.308,2.049,1.974l0.005,0.005
		c0.64,0.672,1.304,1.319,1.987,1.947c0.669,0.018,1.338,0.035,2.008,0.053c0.644,0.671,1.307,1.322,1.992,1.95
		c0.669,0.017,1.338,0.033,2.006,0.05c0.646,0.671,1.31,1.322,1.995,1.952c0.667,0.016,1.335,0.032,2.002,0.048
		c0.646,0.671,1.312,1.322,1.998,1.953c0.668,0.016,1.336,0.031,2.004,0.047c0.645,0.672,1.311,1.322,1.996,1.952
		c0.667,0.017,1.335,0.032,2.002,0.048C1381.331,1246.662,1384.666,1249.323,1388.002,1251.984z"/>
	<path fill-rule="evenodd" clip-rule="evenodd" fill="#5F5F5F" d="M716.705,1340.999c-4.582-3.093-9.84-3.053-15.14-3.198
		c-6.229-0.17-7.733-1.607-7.755-6.487c-0.022-5.229,2.137-7.407,8.316-7.278c10.909,0.229,20.627,4.574,30.145,9.438
		c7.783,3.979,14.247,9.767,20.845,15.325c10.381,8.748,22.596,12.296,35.794,13.338c0.663,0.052,1.335,0.014,1.994,0.09
		c3.464,0.398,8.285-0.774,8.793,4.247c0.508,5.011-4.25,6.619-7.978,7.396c-5.193,1.084-10.545,0.329-15.812-0.829
		c-16.983-3.736-31.692-11.662-44.52-24.19c-4.653,4.754-7.48,10.353-10.968,15.443c-3.541,5.17-6.953,10.429-10.749,16.144
		c7.94,5.316,16.832,7.188,24.654,11.287c3.822,2.003,7.931,3.468,11.714,5.533c4.491,2.451,5.394,6.164,3.068,10.797
		c-2.124,4.229-4.729,4.997-9.833,2.005c-9.227-5.409-19.113-9.365-28.912-13.479c-8.822-3.703-8.891-3.396-14.389,4.344
		c-14.179,19.964-30.971,37.338-51.207,51.246c-2.645,1.818-5.144,4.524-8.961,2.789c-3.215-1.462-5.429-3.577-5.916-7.367
		c-0.476-3.706,1.811-5.342,4.341-7.107c10.113-7.055,19.327-15.158,28.315-23.606c21.609-20.312,37.245-44.983,52.174-70.214
		C715.722,1344.975,716.945,1343.314,716.705,1340.999z"/>
	<path fill-rule="evenodd" clip-rule="evenodd" fill="#5F5F5F" d="M1057.913,843.713c1.215,0.157,2.431,0.315,3.646,0.474
		c1.346,0.816,3.027,0.688,4.359,1.544c1.268,0.13,2.535,0.26,3.803,0.39c1.818,1.567,4.456,0.238,6.281,1.781l0.119,0.082
		c0.575,0.713,1.203,1.376,1.883,1.989l0.02,0.026c1.07,1.312,1.131,2.639,0.051,3.979c-5.127,7.32-12.196,7.105-19.684,4.981
		c-11.869-3.367-23.354-7.774-34.583-12.88c-9.615-4.371-9.747-4.373-15.136,4.978c-15.312,26.57-31.814,52.351-50.601,76.622
		c-3.666,4.735-7.551,9.302-11.24,14.02c-2.218,2.836-4.929,4.359-8.592,4.115c-3.803-0.253-7.46-1.067-9.343-4.705
		c-2.062-3.984,1.517-6.048,3.627-8.407c24.978-27.931,46.231-58.463,63.933-91.47c4.489-8.371,4.438-8.496-2.866-14.773
		c-8.363-7.187-17.739-11.479-29.175-10.698c-7.385,0.504-11.53-1.971-11.996-6.022c-0.484-4.223,4.339-7.008,12.019-7.817
		c11.062-1.168,20.94,2.852,31.005,6.256c1.022,0.346,1.787,1.062,2.555,1.773l0.06,0.036c0.988,1.272,2.938,0.831,3.883,2.179
		l-0.086-0.089c0.794,0.523,1.403,1.265,2.156,1.836l0.083,0.055c0.938,1.312,2.944,0.832,3.806,2.271l-0.097-0.122
		c0.879,0.501,1.554,1.216,2.125,2.037l-0.076-0.077c0.812,0.544,1.458,1.265,2.125,1.966l-0.016-0.016
		c0.648,0.647,1.337,1.25,2.065,1.808l0.146,0.102c0.867,1.383,2.89,0.873,3.741,2.281l-0.095-0.112
		c0.85,0.498,1.485,1.236,2.158,1.933l-0.011-0.011c0.592,0.612,1.242,1.155,1.951,1.629c0.474,0.343,1.004,0.511,1.589,0.501
		c0.979,0.391,1.733,1.096,2.494,1.791l0.062,0.037c0.993,1.272,2.897,0.851,3.904,2.098l-0.034-0.022
		c1.115,1.129,2.992,0.768,4.024,2.058l-0.053-0.036c1.146,1.088,2.994,0.755,4.062,2.003l-0.033-0.021
		c1.13,1.11,2.923,0.803,4.062,1.895l0.062,0.031c0.991,1.24,2.718,0.852,3.865,1.745c0.593,0.292,1.219,0.41,1.878,0.356
		c1.177,1.062,2.928,0.732,4.141,1.709c0.587,0.274,1.201,0.373,1.845,0.298C1054.969,843.122,1056.661,842.855,1057.913,843.713z"
		/>
	<path fill-rule="evenodd" clip-rule="evenodd" fill="#5F5F5F" d="M1087.904,931.691c0.607,0.289,1.246,0.418,1.918,0.386
		c1.161,1.111,3.097,0.707,4.113,2.103l-0.095-0.098c0.827,0.544,1.496,1.255,2.114,2.019l-0.055-0.058
		c0.838,0.663,1.53,1.445,1.956,2.439c-0.074,0.554,0.021,1.077,0.286,1.569c1.243,2.622,1.19,5.251,0.038,7.885
		c-1.593,5.468-4.145,10.413-7.355,15.149c-3.062,4.516-2.005,6.578,3.49,7.051c5.615,0.483,11.303,0.507,16.839-0.894
		c1.597-0.403,3.081-1.214,4.803-0.839c1.434,0.313,2.492,1.28,2.634,2.596c0.08,0.747-0.745,2.094-1.456,2.348
		c-11.593,4.133-22.844,12.259-35.735,4.211c-3.665-2.288-5.479-0.241-7.596,1.861c-6.203,6.158-13.246,11.177-21.336,14.404
		c-11.142,4.444-22.124,4.016-32.262-2.961c-8.734-6.011-11.111-14.697-6.564-24.384c7.77-16.553,33.077-39.366,57.196-36.892
		c4.287,0.44,8.627,0.353,12.942,0.51C1084.967,931.115,1086.645,930.863,1087.904,931.691z"/>
	<path fill-rule="evenodd" clip-rule="evenodd" fill="#616161" d="M1102.013,1027.479c-0.216-5.895,6.241-12.196,13.076-12.762
		c5.806-0.48,12.536,6.416,12.713,13.026c0.148,5.551-7.158,11.929-13.787,12.035
		C1107.82,1039.879,1102.258,1034.178,1102.013,1027.479z"/>
	<path fill-rule="evenodd" clip-rule="evenodd" fill="#616160" d="M1031.019,1579.961c-6.504,0.251-12.256-4.884-12.809-11.435
		c-0.559-6.617,5.877-12.663,13.65-12.822c6.538-0.135,12.158,5.899,12.126,13.021
		C1043.96,1574.513,1037.981,1579.693,1031.019,1579.961z"/>
	<path fill-rule="evenodd" clip-rule="evenodd" fill="#616160" d="M1008.229,1625.971c0.022,6.461-5.826,11.583-13.485,11.811
		c-5.724,0.169-11.698-6.257-11.76-12.648c-0.057-5.832,8.024-12.936,14.384-12.645
		C1003.153,1612.754,1008.204,1619.023,1008.229,1625.971z"/>
	<path fill-rule="evenodd" clip-rule="evenodd" fill="#606060" d="M1155.912,957.781c0.455,0.304,0.955,0.437,1.5,0.4
		c1.082,0.359,1.894,1.051,2.481,2.018l-0.135-0.099c1.45,0.935,1.056,2.876,2.179,3.989l-0.039-0.065
		c1.875,1.718,0.383,4.491,1.975,6.298c-0.2,0.439-0.204,0.882-0.011,1.325c-0.946,1.309-0.703,3.12-1.837,4.35
		c-2.195,1.432-4.27,3.108-6.606,4.25c-6.626,3.237-11.785,1.98-15.565-3.519c-3.575-5.202-2.792-11.023,2.241-15.834
		c1.18-1.128,2.616-1.986,3.935-2.969C1149.304,956.476,1152.602,956.7,1155.912,957.781z"/>
	<path fill-rule="evenodd" clip-rule="evenodd" fill="#B9B4A6" d="M1155.912,957.781c-3.295,0.049-6.589,0.097-9.883,0.145
		C1149.283,955.081,1152.579,955.171,1155.912,957.781z"/>
	<path fill-rule="evenodd" clip-rule="evenodd" fill="#9D988F" d="M772.048,1496.062c-1.319,1.61-3.273,2.922-4.698,1.086
		c-0.979-1.262,1.03-2.587,2.467-3.298C770.56,1494.588,771.304,1495.325,772.048,1496.062z"/>
	<path fill-rule="evenodd" clip-rule="evenodd" fill="#B9B4A6" d="M1098.181,947.937c-0.014-2.629-0.026-5.257-0.039-7.886
		C1100.79,942.667,1100.777,945.296,1098.181,947.937z"/>
	<path fill-rule="evenodd" clip-rule="evenodd" fill="#B9B4A6" d="M1076.002,847.901c-2.262,0.002-4.556,0.119-6.279-1.781
		C1072.006,846.041,1074.396,845.589,1076.002,847.901z"/>
	<path fill-rule="evenodd" clip-rule="evenodd" fill="#B9B4A6" d="M1163.873,970.322c-1.771-1.75-1.854-4.029-1.974-6.297
		C1164.47,965.524,1163.937,967.997,1163.873,970.322z"/>
	<path fill-rule="evenodd" clip-rule="evenodd" fill="#B9B4A6" d="M1162.025,975.997c0.088-1.67,0.529-3.19,1.838-4.347
		C1163.987,973.409,1163.786,975.032,1162.025,975.997z"/>
	<path fill-rule="evenodd" clip-rule="evenodd" fill="#B9B4A6" d="M1007.898,816.237c-1.659-0.103-3.005-0.73-3.807-2.271
		C1005.759,814.058,1007.238,814.46,1007.898,816.237z"/>
	<path fill-rule="evenodd" clip-rule="evenodd" fill="#B9B4A6" d="M1161.938,964.09c-1.509-0.902-2.078-2.316-2.177-3.989
		C1161.596,960.824,1161.953,962.354,1161.938,964.09z"/>
	<path fill-rule="evenodd" clip-rule="evenodd" fill="#B9B4A6" d="M1001.939,812.165c-1.635-0.119-3.025-0.674-3.883-2.179
		C999.725,810.046,1001.209,810.435,1001.939,812.165z"/>
	<path fill-rule="evenodd" clip-rule="evenodd" fill="#B9B4A6" d="M1029.966,832.081c-1.639-0.071-3.035-0.595-3.905-2.097
		C1027.709,830.04,1029.185,830.414,1029.966,832.081z"/>
	<path fill-rule="evenodd" clip-rule="evenodd" fill="#B9B4A6" d="M1033.956,834.116c-1.663-0.058-3.119-0.519-4.023-2.059
		C1031.635,832.037,1033.148,832.387,1033.956,834.116z"/>
	<path fill-rule="evenodd" clip-rule="evenodd" fill="#B9B4A6" d="M1037.965,836.083c-1.666-0.035-3.137-0.465-4.061-2.003
		C1035.609,834.033,1037.125,834.372,1037.965,836.083z"/>
	<path fill-rule="evenodd" clip-rule="evenodd" fill="#B9B4A6" d="M1041.993,837.956c-1.664,0.033-3.113-0.395-4.062-1.896
		C1039.598,836.023,1041.093,836.353,1041.993,837.956z"/>
	<path fill-rule="evenodd" clip-rule="evenodd" fill="#B9B4A6" d="M1045.92,839.732c-1.616,0.145-2.941-0.357-3.865-1.745
		C1043.592,838.02,1045.022,838.286,1045.92,839.732z"/>
	<path fill-rule="evenodd" clip-rule="evenodd" fill="#B9B4A6" d="M1051.938,841.798c-1.675,0.143-3.1-0.315-4.14-1.71
		C1049.443,840.016,1050.962,840.249,1051.938,841.798z"/>
	<path fill-rule="evenodd" clip-rule="evenodd" fill="#B9B4A6" d="M1057.913,843.713c-1.663,0.194-3.075-0.256-4.129-1.618
		C1055.403,842.013,1056.912,842.214,1057.913,843.713z"/>
	<path fill-rule="evenodd" clip-rule="evenodd" fill="#B9B4A6" d="M1065.918,845.73c-1.712,0.218-3.204-0.181-4.356-1.545
		C1063.253,844.02,1064.837,844.165,1065.918,845.73z"/>
	<path fill-rule="evenodd" clip-rule="evenodd" fill="#B9B4A6" d="M1078.074,853.979c-0.017-1.327-0.034-2.653-0.051-3.979
		C1080.017,851.3,1080.078,852.626,1078.074,853.979z"/>
	<path fill-rule="evenodd" clip-rule="evenodd" fill="#B9B4A6" d="M1087.904,931.691c-1.647,0.178-3.055-0.268-4.122-1.595
		C1085.394,930.012,1086.899,930.203,1087.904,931.691z"/>
	<path fill-rule="evenodd" clip-rule="evenodd" fill="#B9B4A6" d="M1093.936,934.18c-1.669-0.118-3.12-0.662-4.112-2.103
		C1091.573,932.034,1093.165,932.304,1093.936,934.18z"/>
	<path fill-rule="evenodd" clip-rule="evenodd" fill="#B9B4A6" d="M1017.912,824.216c-1.642-0.113-2.986-0.715-3.742-2.281
		C1015.805,822.062,1017.26,822.479,1017.912,824.216z"/>
	<path fill-rule="evenodd" clip-rule="evenodd" fill="#B9B4A6" d="M1675.996,2029.972c-0.673-0.654-1.346-1.31-2.019-1.964
		C1674.65,2028.662,1675.323,2029.317,1675.996,2029.972z"/>
	<path fill-rule="evenodd" clip-rule="evenodd" fill="#B9B4A6" d="M1679.996,2031.973c-0.674-0.655-1.347-1.31-2.02-1.965
		C1678.649,2030.663,1679.322,2031.318,1679.996,2031.973z"/>
	<path fill-rule="evenodd" clip-rule="evenodd" fill="#B9B4A6" d="M1683.996,2033.975c-0.673-0.655-1.347-1.311-2.02-1.967
		C1682.649,2032.664,1683.322,2033.319,1683.996,2033.975z"/>
	<path fill-rule="evenodd" clip-rule="evenodd" fill="#B9B4A6" d="M1687.996,2035.977c-0.674-0.655-1.349-1.311-2.023-1.967
		C1686.646,2034.666,1687.321,2035.321,1687.996,2035.977z"/>
	<path fill-rule="evenodd" clip-rule="evenodd" fill="#B9B4A6" d="M1691.997,2037.979c-0.675-0.656-1.351-1.312-2.026-1.968
		C1690.646,2036.667,1691.321,2037.322,1691.997,2037.979z"/>
	<path fill-rule="evenodd" clip-rule="evenodd" fill="#B9B4A6" d="M1695.997,2039.979c-0.676-0.655-1.353-1.312-2.029-1.967
		C1694.645,2038.668,1695.32,2039.324,1695.997,2039.979z"/>
	<path fill-rule="evenodd" clip-rule="evenodd" fill="#B9B4A6" d="M1699.997,2041.979c-0.676-0.655-1.353-1.312-2.029-1.967
		C1698.645,2040.668,1699.32,2041.324,1699.997,2041.979z"/>
	<path fill-rule="evenodd" clip-rule="evenodd" fill="#B9B4A6" d="M1703.997,2043.982c-0.677-0.656-1.353-1.313-2.03-1.97
		C1702.644,2042.669,1703.32,2043.326,1703.997,2043.982z"/>
	<path fill-rule="evenodd" clip-rule="evenodd" fill="#B9B4A6" d="M1707.998,2045.984c-0.678-0.657-1.354-1.313-2.032-1.971
		C1706.643,2044.671,1707.32,2045.327,1707.998,2045.984z"/>
	<path fill-rule="evenodd" clip-rule="evenodd" fill="#B9B4A6" d="M1711.998,2047.985c-0.679-0.657-1.357-1.313-2.036-1.97
		C1710.641,2046.672,1711.319,2047.328,1711.998,2047.985z"/>
	<path fill-rule="evenodd" clip-rule="evenodd" fill="#B9B4A6" d="M1715.998,2049.988c-0.679-0.657-1.357-1.315-2.036-1.973
		C1714.641,2048.673,1715.319,2049.331,1715.998,2049.988z"/>
	<path fill-rule="evenodd" clip-rule="evenodd" fill="#B9B4A6" d="M1753.993,2069.955c-0.666-0.652-1.332-1.304-1.998-1.955
		C1752.661,2068.651,1753.327,2069.303,1753.993,2069.955z"/>
	<path fill-rule="evenodd" clip-rule="evenodd" fill="#B9B4A6" d="M1749.993,2067.953c-0.666-0.65-1.332-1.302-1.998-1.953
		C1748.661,2066.651,1749.327,2067.303,1749.993,2067.953z"/>
	<path fill-rule="evenodd" clip-rule="evenodd" fill="#B9B4A6" d="M1719.998,2051.99c-0.68-0.658-1.358-1.316-2.039-1.975
		C1718.639,2050.674,1719.318,2051.332,1719.998,2051.99z"/>
	<path fill-rule="evenodd" clip-rule="evenodd" fill="#B9B4A6" d="M1745.993,2065.952c-0.665-0.651-1.331-1.302-1.996-1.952
		C1744.662,2064.65,1745.328,2065.301,1745.993,2065.952z"/>
	<path fill-rule="evenodd" clip-rule="evenodd" fill="#B9B4A6" d="M1723.999,2053.99c-0.681-0.658-1.36-1.315-2.041-1.973
		C1722.638,2052.675,1723.318,2053.332,1723.999,2053.99z"/>
	<path fill-rule="evenodd" clip-rule="evenodd" fill="#B9B4A6" d="M1727.999,2055.99c-0.681-0.657-1.361-1.314-2.043-1.972
		C1726.637,2054.676,1727.317,2055.333,1727.999,2055.99z"/>
	<path fill-rule="evenodd" clip-rule="evenodd" fill="#B9B4A6" d="M1731.999,2057.99c-0.681-0.657-1.361-1.314-2.043-1.973
		C1730.637,2056.676,1731.318,2057.333,1731.999,2057.99z"/>
	<path fill-rule="evenodd" clip-rule="evenodd" fill="#B9B4A6" d="M1736,2059.994c-0.683-0.658-1.364-1.315-2.047-1.973
		C1734.635,2058.679,1735.317,2059.336,1736,2059.994z"/>
	<path fill-rule="evenodd" clip-rule="evenodd" fill="#B9B4A6" d="M1741.992,2063.951c-0.664-0.65-1.328-1.301-1.992-1.951
		C1740.664,2062.65,1741.328,2063.301,1741.992,2063.951z"/>
	<path fill-rule="evenodd" clip-rule="evenodd" fill="#B9B4A6" d="M1573.997,1977.979c-0.676-0.655-1.351-1.312-2.026-1.967
		C1572.646,1976.667,1573.321,1977.323,1573.997,1977.979z"/>
	<path fill-rule="evenodd" clip-rule="evenodd" fill="#B9B4A6" d="M1577.997,1979.979c-0.676-0.655-1.353-1.312-2.029-1.967
		C1576.645,1978.668,1577.32,1979.324,1577.997,1979.979z"/>
	<path fill-rule="evenodd" clip-rule="evenodd" fill="#B9B4A6" d="M1581.997,1981.981c-0.676-0.656-1.353-1.312-2.029-1.969
		C1580.645,1980.669,1581.32,1981.325,1581.997,1981.981z"/>
	<path fill-rule="evenodd" clip-rule="evenodd" fill="#B9B4A6" d="M1585.997,1983.982c-0.677-0.656-1.354-1.312-2.03-1.969
		C1584.644,1982.67,1585.32,1983.326,1585.997,1983.982z"/>
	<path fill-rule="evenodd" clip-rule="evenodd" fill="#B9B4A6" d="M1589.998,1985.985c-0.679-0.657-1.356-1.314-2.035-1.971
		C1588.641,1984.672,1589.319,1985.328,1589.998,1985.985z"/>
	<path fill-rule="evenodd" clip-rule="evenodd" fill="#B9B4A6" d="M1593.998,1987.986c-0.679-0.657-1.357-1.314-2.036-1.971
		C1592.641,1986.672,1593.319,1987.329,1593.998,1987.986z"/>
	<path fill-rule="evenodd" clip-rule="evenodd" fill="#B9B4A6" d="M1597.998,1989.988c-0.679-0.658-1.358-1.315-2.037-1.973
		C1596.64,1988.674,1597.318,1989.331,1597.998,1989.988z"/>
	<path fill-rule="evenodd" clip-rule="evenodd" fill="#B9B4A6" d="M1601.998,1991.989c-0.68-0.657-1.358-1.315-2.039-1.973
		C1600.639,1990.675,1601.318,1991.332,1601.998,1991.989z"/>
	<path fill-rule="evenodd" clip-rule="evenodd" fill="#B9B4A6" d="M1605.999,1993.99c-0.681-0.657-1.361-1.314-2.042-1.973
		C1604.637,1992.676,1605.318,1993.333,1605.999,1993.99z"/>
	<path fill-rule="evenodd" clip-rule="evenodd" fill="#B9B4A6" d="M1609.999,1995.99c-0.681-0.657-1.361-1.314-2.043-1.972
		C1608.637,1994.676,1609.317,1995.333,1609.999,1995.99z"/>
	<path fill-rule="evenodd" clip-rule="evenodd" fill="#B9B4A6" d="M1614,1997.992c-0.682-0.657-1.362-1.315-2.044-1.974
		C1612.637,1996.677,1613.318,1997.335,1614,1997.992z"/>
	<path fill-rule="evenodd" clip-rule="evenodd" fill="#B9B4A6" d="M1618,1999.995c-0.683-0.658-1.365-1.315-2.049-1.974
		C1616.634,1998.68,1617.317,1999.337,1618,1999.995z"/>
	<path fill-rule="evenodd" clip-rule="evenodd" fill="#B9B4A6" d="M1619.992,2001.947c-0.663-0.649-1.325-1.299-1.987-1.947
		C1618.667,2000.648,1619.329,2001.298,1619.992,2001.947z"/>
	<path fill-rule="evenodd" clip-rule="evenodd" fill="#B9B4A6" d="M1623.992,2003.95c-0.664-0.649-1.328-1.3-1.992-1.95
		C1622.664,2002.65,1623.328,2003.301,1623.992,2003.95z"/>
	<path fill-rule="evenodd" clip-rule="evenodd" fill="#B9B4A6" d="M1627.993,2005.952c-0.665-0.651-1.331-1.302-1.996-1.952
		C1626.662,2004.65,1627.328,2005.301,1627.993,2005.952z"/>
	<path fill-rule="evenodd" clip-rule="evenodd" fill="#B9B4A6" d="M1631.993,2007.953c-0.666-0.651-1.332-1.302-1.998-1.953
		C1630.661,2006.651,1631.327,2007.302,1631.993,2007.953z"/>
	<path fill-rule="evenodd" clip-rule="evenodd" fill="#B9B4A6" d="M1635.993,2009.957c-0.666-0.652-1.332-1.305-1.998-1.957
		C1634.661,2008.652,1635.327,2009.305,1635.993,2009.957z"/>
	<path fill-rule="evenodd" clip-rule="evenodd" fill="#B9B4A6" d="M1639.994,2011.959c-0.668-0.652-1.336-1.304-2.004-1.955
		C1638.658,2010.655,1639.326,2011.307,1639.994,2011.959z"/>
	<path fill-rule="evenodd" clip-rule="evenodd" fill="#B9B4A6" d="M1643.994,2013.961c-0.668-0.652-1.336-1.305-2.004-1.957
		C1642.658,2012.656,1643.326,2013.309,1643.994,2013.961z"/>
	<path fill-rule="evenodd" clip-rule="evenodd" fill="#B9B4A6" d="M1647.994,2015.962c-0.668-0.653-1.337-1.306-2.005-1.958
		C1646.657,2014.656,1647.326,2015.309,1647.994,2015.962z"/>
	<path fill-rule="evenodd" clip-rule="evenodd" fill="#B9B4A6" d="M1651.994,2017.964c-0.669-0.652-1.339-1.306-2.009-1.958
		C1650.655,2016.658,1651.324,2017.312,1651.994,2017.964z"/>
	<path fill-rule="evenodd" clip-rule="evenodd" fill="#B9B4A6" d="M1655.995,2019.965c-0.671-0.652-1.341-1.306-2.011-1.959
		C1654.654,2018.659,1655.324,2019.312,1655.995,2019.965z"/>
	<path fill-rule="evenodd" clip-rule="evenodd" fill="#B9B4A6" d="M1659.995,2021.965c-0.671-0.653-1.341-1.307-2.011-1.959
		C1658.654,2020.659,1659.324,2021.312,1659.995,2021.965z"/>
	<path fill-rule="evenodd" clip-rule="evenodd" fill="#B9B4A6" d="M1663.995,2023.966c-0.671-0.653-1.341-1.307-2.012-1.96
		C1662.654,2022.659,1663.324,2023.312,1663.995,2023.966z"/>
	<path fill-rule="evenodd" clip-rule="evenodd" fill="#B9B4A6" d="M1667.995,2025.968c-0.671-0.654-1.342-1.308-2.013-1.962
		C1666.653,2024.66,1667.324,2025.313,1667.995,2025.968z"/>
	<path fill-rule="evenodd" clip-rule="evenodd" fill="#B9B4A6" d="M1671.996,2027.972c-0.673-0.655-1.345-1.31-2.018-1.964
		C1670.651,2026.662,1671.323,2027.316,1671.996,2027.972z"/>
	<path fill-rule="evenodd" clip-rule="evenodd" fill="#B9B4A6" d="M1867.993,2127.953c-0.666-0.65-1.332-1.302-1.998-1.953
		C1866.661,2126.651,1867.327,2127.303,1867.993,2127.953z"/>
	<path fill-rule="evenodd" clip-rule="evenodd" fill="#B9B4A6" d="M1871.993,2129.955c-0.666-0.652-1.332-1.304-1.998-1.955
		C1870.661,2128.651,1871.327,2129.303,1871.993,2129.955z"/>
	<path fill-rule="evenodd" clip-rule="evenodd" fill="#B9B4A6" d="M1875.993,2131.957c-0.666-0.652-1.332-1.305-1.998-1.957
		C1874.661,2130.652,1875.327,2131.305,1875.993,2131.957z"/>
	<path fill-rule="evenodd" clip-rule="evenodd" fill="#B9B4A6" d="M1879.994,2133.959c-0.668-0.652-1.336-1.306-2.004-1.959
		C1878.658,2132.653,1879.326,2133.307,1879.994,2133.959z"/>
	<path fill-rule="evenodd" clip-rule="evenodd" fill="#B9B4A6" d="M1883.994,2135.961c-0.668-0.653-1.336-1.307-2.005-1.959
		C1882.657,2134.654,1883.326,2135.308,1883.994,2135.961z"/>
	<path fill-rule="evenodd" clip-rule="evenodd" fill="#B9B4A6" d="M1887.994,2137.965c-0.669-0.654-1.338-1.308-2.008-1.961
		C1886.656,2136.657,1887.325,2137.311,1887.994,2137.965z"/>
	<path fill-rule="evenodd" clip-rule="evenodd" fill="#B9B4A6" d="M1891.994,2139.965c-0.67-0.653-1.34-1.307-2.01-1.959
		C1890.654,2138.658,1891.324,2139.312,1891.994,2139.965z"/>
	<path fill-rule="evenodd" clip-rule="evenodd" fill="#B9B4A6" d="M1895.995,2141.965c-0.67-0.653-1.34-1.307-2.01-1.96
		C1894.655,2140.658,1895.325,2141.312,1895.995,2141.965z"/>
	<path fill-rule="evenodd" clip-rule="evenodd" fill="#B9B4A6" d="M1899.995,2143.965c-0.671-0.652-1.341-1.307-2.011-1.959
		C1898.654,2142.658,1899.324,2143.312,1899.995,2143.965z"/>
	<path fill-rule="evenodd" clip-rule="evenodd" fill="#B9B4A6" d="M1903.995,2145.967c-0.671-0.653-1.342-1.307-2.013-1.961
		C1902.653,2144.66,1903.324,2145.313,1903.995,2145.967z"/>
	<path fill-rule="evenodd" clip-rule="evenodd" fill="#B9B4A6" d="M1907.995,2147.969c-0.671-0.653-1.342-1.308-2.014-1.962
		C1906.652,2146.661,1907.324,2147.315,1907.995,2147.969z"/>
	<path fill-rule="evenodd" clip-rule="evenodd" fill="#B9B4A6" d="M1911.996,2149.972c-0.673-0.654-1.345-1.309-2.018-1.963
		C1910.65,2148.663,1911.323,2149.317,1911.996,2149.972z"/>
	<path fill-rule="evenodd" clip-rule="evenodd" fill="#B9B4A6" d="M1915.996,2151.973c-0.674-0.654-1.347-1.309-2.02-1.964
		C1914.649,2150.664,1915.322,2151.318,1915.996,2151.973z"/>
	<path fill-rule="evenodd" clip-rule="evenodd" fill="#B9B4A6" d="M1919.996,2153.974c-0.674-0.654-1.347-1.31-2.02-1.964
		C1918.649,2152.664,1919.322,2153.319,1919.996,2153.974z"/>
	<path fill-rule="evenodd" clip-rule="evenodd" fill="#B9B4A6" d="M1923.996,2155.976c-0.674-0.655-1.348-1.311-2.022-1.966
		C1922.647,2154.665,1923.322,2155.32,1923.996,2155.976z"/>
	<path fill-rule="evenodd" clip-rule="evenodd" fill="#B9B4A6" d="M1927.996,2157.979c-0.675-0.656-1.35-1.312-2.025-1.967
		C1926.646,2156.667,1927.321,2157.323,1927.996,2157.979z"/>
	<path fill-rule="evenodd" clip-rule="evenodd" fill="#B9B4A6" d="M1931.997,2159.979c-0.676-0.655-1.351-1.312-2.026-1.968
		C1930.646,2158.668,1931.321,2159.324,1931.997,2159.979z"/>
	<path fill-rule="evenodd" clip-rule="evenodd" fill="#B9B4A6" d="M1935.997,2161.98c-0.676-0.656-1.353-1.312-2.029-1.968
		C1934.645,2160.668,1935.32,2161.324,1935.997,2161.98z"/>
	<path fill-rule="evenodd" clip-rule="evenodd" fill="#B9B4A6" d="M1939.997,2163.98c-0.677-0.656-1.353-1.312-2.03-1.968
		C1938.644,2162.669,1939.32,2163.324,1939.997,2163.98z"/>
	<path fill-rule="evenodd" clip-rule="evenodd" fill="#B9B4A6" d="M1943.997,2165.981c-0.677-0.656-1.354-1.312-2.03-1.968
		C1942.644,2164.669,1943.32,2165.325,1943.997,2165.981z"/>
	<path fill-rule="evenodd" clip-rule="evenodd" fill="#B9B4A6" d="M1947.998,2167.985c-0.679-0.657-1.356-1.313-2.035-1.971
		C1946.641,2166.672,1947.319,2167.328,1947.998,2167.985z"/>
	<path fill-rule="evenodd" clip-rule="evenodd" fill="#B9B4A6" d="M1951.998,2169.987c-0.679-0.657-1.357-1.315-2.036-1.972
		C1950.641,2168.672,1951.319,2169.33,1951.998,2169.987z"/>
	<path fill-rule="evenodd" clip-rule="evenodd" fill="#B9B4A6" d="M1955.998,2171.99c-0.679-0.658-1.358-1.316-2.037-1.975
		C1954.64,2170.674,1955.318,2171.332,1955.998,2171.99z"/>
	<path fill-rule="evenodd" clip-rule="evenodd" fill="#B9B4A6" d="M1959.998,2173.99c-0.679-0.658-1.358-1.316-2.039-1.975
		C1958.639,2172.674,1959.318,2173.332,1959.998,2173.99z"/>
	<path fill-rule="evenodd" clip-rule="evenodd" fill="#B9B4A6" d="M1963.999,2175.99c-0.681-0.657-1.361-1.314-2.043-1.973
		C1962.637,2174.676,1963.317,2175.333,1963.999,2175.99z"/>
	<path fill-rule="evenodd" clip-rule="evenodd" fill="#B9B4A6" d="M1967.998,2177.99c-0.68-0.658-1.36-1.315-2.041-1.973
		C1966.637,2176.676,1967.318,2177.333,1967.998,2177.99z"/>
	<path fill-rule="evenodd" clip-rule="evenodd" fill="#B9B4A6" d="M1757.994,2071.958c-0.667-0.652-1.334-1.306-2-1.958
		C1756.66,2070.652,1757.327,2071.306,1757.994,2071.958z"/>
	<path fill-rule="evenodd" clip-rule="evenodd" fill="#B9B4A6" d="M1761.994,2073.961c-0.668-0.653-1.336-1.307-2.004-1.96
		C1760.658,2072.654,1761.326,2073.308,1761.994,2073.961z"/>
	<path fill-rule="evenodd" clip-rule="evenodd" fill="#B9B4A6" d="M1765.994,2075.962c-0.668-0.653-1.337-1.307-2.005-1.96
		C1764.657,2074.655,1765.326,2075.309,1765.994,2075.962z"/>
	<path fill-rule="evenodd" clip-rule="evenodd" fill="#B9B4A6" d="M1769.994,2077.965c-0.669-0.653-1.339-1.307-2.009-1.96
		C1768.655,2076.658,1769.324,2077.312,1769.994,2077.965z"/>
	<path fill-rule="evenodd" clip-rule="evenodd" fill="#B9B4A6" d="M1773.994,2079.965c-0.67-0.653-1.34-1.307-2.01-1.959
		C1772.654,2078.658,1773.324,2079.312,1773.994,2079.965z"/>
	<path fill-rule="evenodd" clip-rule="evenodd" fill="#B9B4A6" d="M1777.995,2081.965c-0.67-0.653-1.34-1.307-2.01-1.96
		C1776.655,2080.658,1777.325,2081.312,1777.995,2081.965z"/>
	<path fill-rule="evenodd" clip-rule="evenodd" fill="#B9B4A6" d="M1781.995,2083.966c-0.671-0.653-1.341-1.307-2.012-1.96
		C1780.654,2082.659,1781.324,2083.312,1781.995,2083.966z"/>
	<path fill-rule="evenodd" clip-rule="evenodd" fill="#B9B4A6" d="M1785.995,2085.967c-0.671-0.653-1.342-1.307-2.013-1.961
		C1784.653,2084.66,1785.324,2085.313,1785.995,2085.967z"/>
	<path fill-rule="evenodd" clip-rule="evenodd" fill="#B9B4A6" d="M1789.996,2087.971c-0.672-0.654-1.344-1.309-2.017-1.963
		C1788.651,2086.662,1789.323,2087.316,1789.996,2087.971z"/>
	<path fill-rule="evenodd" clip-rule="evenodd" fill="#B9B4A6" d="M1793.996,2089.972c-0.673-0.654-1.345-1.309-2.018-1.963
		C1792.65,2088.663,1793.323,2089.317,1793.996,2089.972z"/>
	<path fill-rule="evenodd" clip-rule="evenodd" fill="#B9B4A6" d="M1797.996,2091.973c-0.674-0.654-1.347-1.309-2.02-1.963
		C1796.649,2090.664,1797.322,2091.318,1797.996,2091.973z"/>
	<path fill-rule="evenodd" clip-rule="evenodd" fill="#B9B4A6" d="M1801.996,2093.975c-0.673-0.654-1.347-1.311-2.02-1.965
		C1800.649,2092.664,1801.322,2093.319,1801.996,2093.975z"/>
	<path fill-rule="evenodd" clip-rule="evenodd" fill="#B9B4A6" d="M1805.996,2095.976c-0.674-0.655-1.349-1.311-2.023-1.966
		C1804.647,2094.666,1805.322,2095.32,1805.996,2095.976z"/>
	<path fill-rule="evenodd" clip-rule="evenodd" fill="#B9B4A6" d="M1809.997,2097.979c-0.676-0.656-1.351-1.312-2.026-1.967
		C1808.646,2096.667,1809.321,2097.323,1809.997,2097.979z"/>
	<path fill-rule="evenodd" clip-rule="evenodd" fill="#B9B4A6" d="M1813.997,2099.979c-0.676-0.655-1.352-1.312-2.027-1.968
		C1812.646,2098.668,1813.321,2099.324,1813.997,2099.979z"/>
	<path fill-rule="evenodd" clip-rule="evenodd" fill="#B9B4A6" d="M1817.997,2101.98c-0.676-0.656-1.353-1.312-2.029-1.968
		C1816.645,2100.668,1817.32,2101.324,1817.997,2101.98z"/>
	<path fill-rule="evenodd" clip-rule="evenodd" fill="#B9B4A6" d="M1821.997,2103.98c-0.677-0.656-1.353-1.312-2.03-1.968
		C1820.644,2102.669,1821.32,2103.324,1821.997,2103.98z"/>
	<path fill-rule="evenodd" clip-rule="evenodd" fill="#B9B4A6" d="M1825.998,2105.982c-0.678-0.656-1.355-1.312-2.033-1.969
		C1824.643,2104.67,1825.32,2105.326,1825.998,2105.982z"/>
	<path fill-rule="evenodd" clip-rule="evenodd" fill="#B9B4A6" d="M1829.998,2107.985c-0.679-0.657-1.356-1.313-2.035-1.971
		C1828.641,2106.672,1829.319,2107.328,1829.998,2107.985z"/>
	<path fill-rule="evenodd" clip-rule="evenodd" fill="#B9B4A6" d="M1833.998,2109.988c-0.679-0.658-1.357-1.315-2.036-1.973
		C1832.641,2108.673,1833.319,2109.331,1833.998,2109.988z"/>
	<path fill-rule="evenodd" clip-rule="evenodd" fill="#B9B4A6" d="M1837.998,2111.99c-0.68-0.658-1.359-1.316-2.039-1.975
		C1836.639,2110.674,1837.318,2111.332,1837.998,2111.99z"/>
	<path fill-rule="evenodd" clip-rule="evenodd" fill="#B9B4A6" d="M1841.999,2113.99c-0.681-0.658-1.36-1.315-2.041-1.973
		C1840.638,2112.675,1841.318,2113.332,1841.999,2113.99z"/>
	<path fill-rule="evenodd" clip-rule="evenodd" fill="#B9B4A6" d="M1845.999,2115.99c-0.681-0.657-1.362-1.314-2.043-1.972
		C1844.637,2114.676,1845.317,2115.333,1845.999,2115.99z"/>
	<path fill-rule="evenodd" clip-rule="evenodd" fill="#B9B4A6" d="M1849.999,2117.99c-0.681-0.657-1.361-1.314-2.043-1.973
		C1848.637,2116.676,1849.317,2117.333,1849.999,2117.99z"/>
	<path fill-rule="evenodd" clip-rule="evenodd" fill="#B9B4A6" d="M1854,2119.994c-0.682-0.658-1.364-1.316-2.046-1.975
		C1852.636,2118.678,1853.317,2119.336,1854,2119.994z"/>
	<path fill-rule="evenodd" clip-rule="evenodd" fill="#B9B4A6" d="M1859.992,2123.947c-0.663-0.649-1.326-1.299-1.988-1.947
		C1858.666,2122.648,1859.329,2123.298,1859.992,2123.947z"/>
	<path fill-rule="evenodd" clip-rule="evenodd" fill="#B9B4A6" d="M1863.993,2125.952c-0.665-0.651-1.329-1.302-1.993-1.952
		C1862.664,2124.65,1863.328,2125.301,1863.993,2125.952z"/>
	<path fill-rule="evenodd" clip-rule="evenodd" fill="#B9B4A6" d="M1241.992,1175.947c-0.663-0.649-1.325-1.299-1.987-1.947
		C1240.667,1174.648,1241.329,1175.298,1241.992,1175.947z"/>
	<path fill-rule="evenodd" clip-rule="evenodd" fill="#B9B4A6" d="M1245.992,1177.95c-0.664-0.649-1.328-1.3-1.992-1.95
		C1244.664,1176.65,1245.328,1177.301,1245.992,1177.95z"/>
	<path fill-rule="evenodd" clip-rule="evenodd" fill="#B9B4A6" d="M1249.993,1179.952c-0.665-0.651-1.33-1.302-1.995-1.952
		C1248.663,1178.65,1249.328,1179.301,1249.993,1179.952z"/>
	<path fill-rule="evenodd" clip-rule="evenodd" fill="#B9B4A6" d="M1253.993,1181.953c-0.666-0.651-1.332-1.302-1.998-1.953
		C1252.661,1180.651,1253.327,1181.302,1253.993,1181.953z"/>
	<path fill-rule="evenodd" clip-rule="evenodd" fill="#B9B4A6" d="M1257.993,1183.956c-0.666-0.651-1.332-1.304-1.998-1.956
		C1256.661,1182.652,1257.327,1183.305,1257.993,1183.956z"/>
	<path fill-rule="evenodd" clip-rule="evenodd" fill="#B9B4A6" d="M1261.994,1185.96c-0.668-0.652-1.336-1.305-2.004-1.956
		C1260.658,1184.655,1261.326,1185.308,1261.994,1185.96z"/>
	<path fill-rule="evenodd" clip-rule="evenodd" fill="#B9B4A6" d="M1265.994,1187.961c-0.668-0.652-1.336-1.305-2.005-1.957
		C1264.657,1186.656,1265.326,1187.309,1265.994,1187.961z"/>
	<path fill-rule="evenodd" clip-rule="evenodd" fill="#B9B4A6" d="M1269.994,1189.964c-0.669-0.653-1.338-1.306-2.007-1.959
		C1268.656,1188.658,1269.325,1189.311,1269.994,1189.964z"/>
	<path fill-rule="evenodd" clip-rule="evenodd" fill="#B9B4A6" d="M1273.995,1191.965c-0.671-0.653-1.341-1.307-2.011-1.959
		C1272.654,1190.659,1273.324,1191.312,1273.995,1191.965z"/>
	<path fill-rule="evenodd" clip-rule="evenodd" fill="#B9B4A6" d="M1277.995,1193.965c-0.671-0.652-1.341-1.306-2.011-1.959
		C1276.654,1192.659,1277.324,1193.312,1277.995,1193.965z"/>
	<path fill-rule="evenodd" clip-rule="evenodd" fill="#B9B4A6" d="M1281.995,1195.965c-0.671-0.653-1.341-1.307-2.011-1.959
		C1280.654,1194.659,1281.324,1195.312,1281.995,1195.965z"/>
	<path fill-rule="evenodd" clip-rule="evenodd" fill="#B9B4A6" d="M1285.995,1197.966c-0.671-0.653-1.341-1.307-2.012-1.96
		C1284.654,1196.659,1285.324,1197.312,1285.995,1197.966z"/>
	<path fill-rule="evenodd" clip-rule="evenodd" fill="#B9B4A6" d="M1289.995,1199.969c-0.671-0.654-1.342-1.309-2.013-1.963
		C1288.653,1198.66,1289.324,1199.314,1289.995,1199.969z"/>
	<path fill-rule="evenodd" clip-rule="evenodd" fill="#B9B4A6" d="M1293.995,1201.971c-0.672-0.654-1.344-1.309-2.016-1.963
		C1292.651,1200.662,1293.323,1201.316,1293.995,1201.971z"/>
	<path fill-rule="evenodd" clip-rule="evenodd" fill="#B9B4A6" d="M1297.996,1203.972c-0.673-0.655-1.346-1.31-2.018-1.964
		C1296.65,1202.662,1297.323,1203.316,1297.996,1203.972z"/>
	<path fill-rule="evenodd" clip-rule="evenodd" fill="#B9B4A6" d="M1301.996,1205.973c-0.674-0.655-1.347-1.31-2.02-1.965
		C1300.649,1204.663,1301.322,1205.318,1301.996,1205.973z"/>
	<path fill-rule="evenodd" clip-rule="evenodd" fill="#B9B4A6" d="M1305.996,1207.976c-0.674-0.655-1.347-1.312-2.021-1.967
		C1304.648,1206.664,1305.322,1207.32,1305.996,1207.976z"/>
	<path fill-rule="evenodd" clip-rule="evenodd" fill="#B9B4A6" d="M1309.996,1209.977c-0.674-0.655-1.349-1.311-2.023-1.967
		C1308.646,1208.666,1309.321,1209.321,1309.996,1209.977z"/>
	<path fill-rule="evenodd" clip-rule="evenodd" fill="#B9B4A6" d="M1313.997,1211.979c-0.675-0.656-1.351-1.312-2.025-1.968
		C1312.646,1210.667,1313.321,1211.322,1313.997,1211.979z"/>
	<path fill-rule="evenodd" clip-rule="evenodd" fill="#B9B4A6" d="M1317.997,1213.979c-0.676-0.655-1.353-1.312-2.029-1.968
		C1316.645,1212.668,1317.32,1213.324,1317.997,1213.979z"/>
	<path fill-rule="evenodd" clip-rule="evenodd" fill="#B9B4A6" d="M1321.997,1215.979c-0.676-0.655-1.353-1.312-2.029-1.968
		C1320.645,1214.668,1321.32,1215.324,1321.997,1215.979z"/>
	<path fill-rule="evenodd" clip-rule="evenodd" fill="#B9B4A6" d="M1325.997,1217.982c-0.676-0.657-1.353-1.313-2.029-1.97
		C1324.644,1216.669,1325.32,1217.326,1325.997,1217.982z"/>
	<path fill-rule="evenodd" clip-rule="evenodd" fill="#B9B4A6" d="M1329.998,1219.984c-0.678-0.657-1.354-1.314-2.032-1.971
		C1328.643,1218.671,1329.32,1219.327,1329.998,1219.984z"/>
	<path fill-rule="evenodd" clip-rule="evenodd" fill="#B9B4A6" d="M1333.998,1221.986c-0.679-0.657-1.357-1.314-2.035-1.972
		C1332.641,1220.672,1333.319,1221.329,1333.998,1221.986z"/>
	<path fill-rule="evenodd" clip-rule="evenodd" fill="#B9B4A6" d="M1337.998,1223.988c-0.679-0.658-1.358-1.314-2.037-1.973
		C1336.64,1222.674,1337.318,1223.331,1337.998,1223.988z"/>
	<path fill-rule="evenodd" clip-rule="evenodd" fill="#B9B4A6" d="M1097.856,938.482c-0.651-0.813-1.304-1.627-1.956-2.439
		C1097.011,936.488,1097.662,937.303,1097.856,938.482z"/>
	<path fill-rule="evenodd" clip-rule="evenodd" fill="#B9B4A6" d="M1095.955,936.101c-0.704-0.673-1.408-1.346-2.113-2.019
		C1094.546,934.755,1095.25,935.428,1095.955,936.101z"/>
	<path fill-rule="evenodd" clip-rule="evenodd" fill="#B9B4A6" d="M1159.894,960.199c-0.824-0.673-1.649-1.346-2.478-2.019
		C1158.646,958.354,1159.479,959.02,1159.894,960.199z"/>
	<path fill-rule="evenodd" clip-rule="evenodd" fill="#B9B4A6" d="M1078.004,849.973c-0.628-0.663-1.257-1.326-1.884-1.99
		C1076.749,848.646,1077.377,849.31,1078.004,849.973z"/>
	<path fill-rule="evenodd" clip-rule="evenodd" fill="#B9B4A6" d="M1011.976,820.041c-0.708-0.655-1.416-1.311-2.125-1.966
		C1010.559,818.73,1011.268,819.386,1011.976,820.041z"/>
	<path fill-rule="evenodd" clip-rule="evenodd" fill="#B9B4A6" d="M1167.995,1137.967c-0.671-0.653-1.342-1.307-2.013-1.961
		C1166.653,1136.66,1167.324,1137.313,1167.995,1137.967z"/>
	<path fill-rule="evenodd" clip-rule="evenodd" fill="#B9B4A6" d="M1171.995,1139.97c-0.671-0.654-1.342-1.309-2.014-1.963
		C1170.652,1138.661,1171.324,1139.315,1171.995,1139.97z"/>
	<path fill-rule="evenodd" clip-rule="evenodd" fill="#B9B4A6" d="M1175.996,1141.972c-0.673-0.655-1.345-1.31-2.018-1.964
		C1174.65,1140.662,1175.323,1141.316,1175.996,1141.972z"/>
	<path fill-rule="evenodd" clip-rule="evenodd" fill="#B9B4A6" d="M1179.996,1143.973c-0.674-0.655-1.346-1.31-2.02-1.965
		C1178.649,1142.663,1179.322,1143.317,1179.996,1143.973z"/>
	<path fill-rule="evenodd" clip-rule="evenodd" fill="#B9B4A6" d="M1183.996,1145.974c-0.673-0.655-1.347-1.311-2.02-1.966
		C1182.649,1144.663,1183.322,1145.318,1183.996,1145.974z"/>
	<path fill-rule="evenodd" clip-rule="evenodd" fill="#B9B4A6" d="M1187.996,1147.976c-0.674-0.655-1.348-1.312-2.021-1.966
		C1186.648,1146.665,1187.322,1147.32,1187.996,1147.976z"/>
	<path fill-rule="evenodd" clip-rule="evenodd" fill="#B9B4A6" d="M1191.997,1149.979c-0.676-0.656-1.351-1.312-2.025-1.968
		C1190.646,1148.666,1191.321,1149.322,1191.997,1149.979z"/>
	<path fill-rule="evenodd" clip-rule="evenodd" fill="#B9B4A6" d="M1195.997,1151.979c-0.676-0.656-1.351-1.312-2.026-1.967
		C1194.646,1150.667,1195.321,1151.323,1195.997,1151.979z"/>
	<path fill-rule="evenodd" clip-rule="evenodd" fill="#B9B4A6" d="M1199.997,1153.979c-0.676-0.655-1.353-1.312-2.029-1.968
		C1198.645,1152.668,1199.32,1153.324,1199.997,1153.979z"/>
	<path fill-rule="evenodd" clip-rule="evenodd" fill="#B9B4A6" d="M1203.997,1155.98c-0.676-0.656-1.353-1.312-2.029-1.969
		C1202.645,1154.669,1203.32,1155.324,1203.997,1155.98z"/>
	<path fill-rule="evenodd" clip-rule="evenodd" fill="#B9B4A6" d="M1207.997,1157.982c-0.677-0.656-1.354-1.312-2.03-1.969
		C1206.644,1156.67,1207.32,1157.326,1207.997,1157.982z"/>
	<path fill-rule="evenodd" clip-rule="evenodd" fill="#B9B4A6" d="M1211.998,1159.984c-0.679-0.656-1.356-1.313-2.035-1.97
		C1210.641,1158.672,1211.319,1159.328,1211.998,1159.984z"/>
	<path fill-rule="evenodd" clip-rule="evenodd" fill="#B9B4A6" d="M1215.998,1161.986c-0.679-0.657-1.357-1.314-2.035-1.972
		C1214.641,1160.672,1215.319,1161.329,1215.998,1161.986z"/>
	<path fill-rule="evenodd" clip-rule="evenodd" fill="#B9B4A6" d="M1219.998,1163.988c-0.679-0.658-1.358-1.314-2.037-1.973
		C1218.64,1162.674,1219.318,1163.331,1219.998,1163.988z"/>
	<path fill-rule="evenodd" clip-rule="evenodd" fill="#B9B4A6" d="M1223.998,1165.99c-0.679-0.658-1.358-1.315-2.038-1.974
		C1222.639,1164.675,1223.318,1165.332,1223.998,1165.99z"/>
	<path fill-rule="evenodd" clip-rule="evenodd" fill="#B9B4A6" d="M1227.999,1167.99c-0.681-0.657-1.361-1.314-2.043-1.972
		C1226.637,1166.676,1227.318,1167.333,1227.999,1167.99z"/>
	<path fill-rule="evenodd" clip-rule="evenodd" fill="#B9B4A6" d="M1231.999,1169.99c-0.681-0.657-1.361-1.314-2.043-1.972
		C1230.637,1168.676,1231.318,1169.333,1231.999,1169.99z"/>
	<path fill-rule="evenodd" clip-rule="evenodd" fill="#B9B4A6" d="M1235.999,1171.992c-0.681-0.658-1.361-1.315-2.043-1.974
		C1234.637,1170.677,1235.318,1171.334,1235.999,1171.992z"/>
	<path fill-rule="evenodd" clip-rule="evenodd" fill="#B9B4A6" d="M1240,1173.995c-0.683-0.658-1.365-1.315-2.048-1.974
		C1238.635,1172.68,1239.317,1173.337,1240,1173.995z"/>
	<path fill-rule="evenodd" clip-rule="evenodd" fill="#B9B4A6" d="M1471.998,1925.985c-0.679-0.657-1.356-1.314-2.035-1.971
		C1470.641,1924.672,1471.319,1925.328,1471.998,1925.985z"/>
	<path fill-rule="evenodd" clip-rule="evenodd" fill="#B9B4A6" d="M1475.998,1927.987c-0.679-0.657-1.357-1.314-2.036-1.972
		C1474.641,1926.673,1475.319,1927.33,1475.998,1927.987z"/>
	<path fill-rule="evenodd" clip-rule="evenodd" fill="#B9B4A6" d="M1479.998,1929.988c-0.68-0.657-1.358-1.314-2.039-1.972
		C1478.639,1928.674,1479.318,1929.331,1479.998,1929.988z"/>
	<path fill-rule="evenodd" clip-rule="evenodd" fill="#B9B4A6" d="M1483.998,1931.99c-0.679-0.658-1.358-1.315-2.039-1.974
		C1482.639,1930.675,1483.318,1931.332,1483.998,1931.99z"/>
	<path fill-rule="evenodd" clip-rule="evenodd" fill="#B9B4A6" d="M1487.999,1933.99c-0.681-0.657-1.362-1.314-2.043-1.972
		C1486.637,1932.676,1487.317,1933.333,1487.999,1933.99z"/>
	<path fill-rule="evenodd" clip-rule="evenodd" fill="#B9B4A6" d="M1491.999,1935.99c-0.681-0.657-1.362-1.314-2.043-1.972
		C1490.637,1934.676,1491.317,1935.333,1491.999,1935.99z"/>
	<path fill-rule="evenodd" clip-rule="evenodd" fill="#B9B4A6" d="M1496,1937.995c-0.682-0.658-1.364-1.316-2.046-1.975
		C1494.636,1936.679,1495.317,1937.337,1496,1937.995z"/>
	<path fill-rule="evenodd" clip-rule="evenodd" fill="#B9B4A6" d="M1501.992,1941.947c-0.663-0.649-1.326-1.299-1.988-1.947
		C1500.666,1940.648,1501.329,1941.298,1501.992,1941.947z"/>
	<path fill-rule="evenodd" clip-rule="evenodd" fill="#B9B4A6" d="M1505.993,1943.952c-0.665-0.651-1.329-1.302-1.993-1.952
		C1504.664,1942.65,1505.328,1943.301,1505.993,1943.952z"/>
	<path fill-rule="evenodd" clip-rule="evenodd" fill="#B9B4A6" d="M1509.993,1945.952c-0.665-0.651-1.331-1.302-1.996-1.952
		C1508.662,1944.65,1509.328,1945.301,1509.993,1945.952z"/>
	<path fill-rule="evenodd" clip-rule="evenodd" fill="#B9B4A6" d="M1513.993,1947.954c-0.666-0.651-1.332-1.303-1.998-1.954
		C1512.661,1946.651,1513.327,1947.303,1513.993,1947.954z"/>
	<path fill-rule="evenodd" clip-rule="evenodd" fill="#B9B4A6" d="M1517.993,1949.956c-0.666-0.651-1.332-1.304-1.998-1.956
		C1516.661,1948.652,1517.327,1949.305,1517.993,1949.956z"/>
	<path fill-rule="evenodd" clip-rule="evenodd" fill="#B9B4A6" d="M1521.994,1951.96c-0.668-0.652-1.336-1.305-2.004-1.956
		C1520.658,1950.655,1521.326,1951.308,1521.994,1951.96z"/>
	<path fill-rule="evenodd" clip-rule="evenodd" fill="#B9B4A6" d="M1525.994,1953.961c-0.668-0.652-1.336-1.305-2.005-1.957
		C1524.657,1952.656,1525.326,1953.309,1525.994,1953.961z"/>
	<path fill-rule="evenodd" clip-rule="evenodd" fill="#B9B4A6" d="M1529.994,1955.964c-0.669-0.653-1.338-1.306-2.008-1.959
		C1528.656,1954.658,1529.325,1955.311,1529.994,1955.964z"/>
	<path fill-rule="evenodd" clip-rule="evenodd" fill="#B9B4A6" d="M1533.995,1957.965c-0.671-0.653-1.341-1.306-2.011-1.959
		C1532.654,1956.659,1533.324,1957.312,1533.995,1957.965z"/>
	<path fill-rule="evenodd" clip-rule="evenodd" fill="#B9B4A6" d="M1537.995,1959.965c-0.671-0.653-1.341-1.306-2.011-1.959
		C1536.654,1958.659,1537.324,1959.312,1537.995,1959.965z"/>
	<path fill-rule="evenodd" clip-rule="evenodd" fill="#B9B4A6" d="M1541.995,1961.965c-0.671-0.653-1.341-1.307-2.011-1.959
		C1540.654,1960.659,1541.324,1961.312,1541.995,1961.965z"/>
	<path fill-rule="evenodd" clip-rule="evenodd" fill="#B9B4A6" d="M1545.995,1963.967c-0.671-0.653-1.342-1.307-2.013-1.961
		C1544.653,1962.66,1545.324,1963.313,1545.995,1963.967z"/>
	<path fill-rule="evenodd" clip-rule="evenodd" fill="#B9B4A6" d="M1549.995,1965.97c-0.671-0.654-1.343-1.309-2.014-1.963
		C1548.652,1964.661,1549.324,1965.315,1549.995,1965.97z"/>
	<path fill-rule="evenodd" clip-rule="evenodd" fill="#B9B4A6" d="M1553.995,1967.971c-0.672-0.654-1.344-1.309-2.017-1.963
		C1552.651,1966.662,1553.323,1967.316,1553.995,1967.971z"/>
	<path fill-rule="evenodd" clip-rule="evenodd" fill="#B9B4A6" d="M1557.996,1969.973c-0.674-0.655-1.347-1.31-2.02-1.965
		C1556.649,1968.663,1557.322,1969.318,1557.996,1969.973z"/>
	<path fill-rule="evenodd" clip-rule="evenodd" fill="#B9B4A6" d="M1561.996,1971.974c-0.674-0.655-1.347-1.311-2.02-1.966
		C1560.649,1970.663,1561.322,1971.318,1561.996,1971.974z"/>
	<path fill-rule="evenodd" clip-rule="evenodd" fill="#B9B4A6" d="M1565.996,1973.976c-0.674-0.655-1.348-1.311-2.022-1.966
		C1564.647,1972.665,1565.322,1973.32,1565.996,1973.976z"/>
	<path fill-rule="evenodd" clip-rule="evenodd" fill="#B9B4A6" d="M1569.997,1975.979c-0.675-0.656-1.351-1.312-2.026-1.968
		C1568.646,1974.666,1569.321,1975.322,1569.997,1975.979z"/>
	<path fill-rule="evenodd" clip-rule="evenodd" fill="#B9B4A6" d="M1341.998,1225.988c-0.68-0.657-1.358-1.314-2.038-1.972
		C1340.639,1224.674,1341.318,1225.331,1341.998,1225.988z"/>
	<path fill-rule="evenodd" clip-rule="evenodd" fill="#B9B4A6" d="M1345.999,1227.99c-0.681-0.657-1.36-1.315-2.04-1.973
		C1344.639,1226.675,1345.318,1227.333,1345.999,1227.99z"/>
	<path fill-rule="evenodd" clip-rule="evenodd" fill="#B9B4A6" d="M1349.999,1229.99c-0.681-0.657-1.361-1.314-2.043-1.972
		C1348.637,1228.676,1349.318,1229.333,1349.999,1229.99z"/>
	<path fill-rule="evenodd" clip-rule="evenodd" fill="#B9B4A6" d="M1353.999,1231.992c-0.681-0.658-1.361-1.315-2.043-1.974
		C1352.637,1230.677,1353.318,1231.334,1353.999,1231.992z"/>
	<path fill-rule="evenodd" clip-rule="evenodd" fill="#B9B4A6" d="M1358,1233.995c-0.683-0.658-1.365-1.315-2.048-1.974
		C1356.635,1232.68,1357.317,1233.337,1358,1233.995z"/>
	<path fill-rule="evenodd" clip-rule="evenodd" fill="#B9B4A6" d="M1359.992,1235.947c-0.663-0.649-1.325-1.299-1.987-1.947
		C1358.667,1234.648,1359.329,1235.298,1359.992,1235.947z"/>
	<path fill-rule="evenodd" clip-rule="evenodd" fill="#B9B4A6" d="M1363.992,1237.95c-0.664-0.649-1.328-1.3-1.992-1.95
		C1362.664,1236.65,1363.328,1237.301,1363.992,1237.95z"/>
	<path fill-rule="evenodd" clip-rule="evenodd" fill="#B9B4A6" d="M1367.993,1239.952c-0.665-0.651-1.33-1.302-1.995-1.952
		C1366.663,1238.65,1367.328,1239.301,1367.993,1239.952z"/>
	<path fill-rule="evenodd" clip-rule="evenodd" fill="#B9B4A6" d="M1371.993,1241.953c-0.666-0.651-1.332-1.302-1.998-1.953
		C1370.661,1240.651,1371.327,1241.302,1371.993,1241.953z"/>
	<path fill-rule="evenodd" clip-rule="evenodd" fill="#B9B4A6" d="M1375.993,1243.952c-0.665-0.65-1.331-1.302-1.996-1.952
		C1374.662,1242.65,1375.328,1243.302,1375.993,1243.952z"/>
	<path fill-rule="evenodd" clip-rule="evenodd" fill="#B9B4A6" d="M1009.927,818.152c-1.082-0.288-1.836-0.92-2.124-2.037
		C1008.51,816.794,1009.219,817.474,1009.927,818.152z"/>
	<path fill-rule="evenodd" clip-rule="evenodd" fill="#B9B4A6" d="M1004.01,813.912c-0.718-0.612-1.437-1.224-2.156-1.836
		C1002.572,812.688,1003.291,813.3,1004.01,813.912z"/>
	<path fill-rule="evenodd" clip-rule="evenodd" fill="#B9B4A6" d="M997.997,809.95c-0.849-0.591-1.698-1.183-2.551-1.773
		C996.614,808.308,997.464,808.9,997.997,809.95z"/>
	<path fill-rule="evenodd" clip-rule="evenodd" fill="#B9B4A6" d="M1025.999,829.946c-0.829-0.597-1.658-1.194-2.491-1.791
		C1024.653,828.311,1025.481,828.912,1025.999,829.946z"/>
	<path fill-rule="evenodd" clip-rule="evenodd" fill="#B9B4A6" d="M1021.916,827.654c-0.65-0.543-1.301-1.086-1.951-1.629
		C1020.615,826.568,1021.266,827.111,1021.916,827.654z"/>
	<path fill-rule="evenodd" clip-rule="evenodd" fill="#B9B4A6" d="M1014.025,821.833c-1.062-0.176-1.724-0.81-2.065-1.809
		C1012.648,820.628,1013.337,821.23,1014.025,821.833z"/>
	<path fill-rule="evenodd" clip-rule="evenodd" fill="#B9B4A6" d="M1019.976,826.036c-1.074-0.248-1.834-0.847-2.158-1.933
		C1018.537,824.747,1019.256,825.392,1019.976,826.036z"/>
	<path fill-rule="evenodd" clip-rule="evenodd" fill="#B9B4A6" d="M1439.996,1909.973c-0.674-0.654-1.347-1.31-2.02-1.965
		C1438.649,1908.663,1439.322,1909.318,1439.996,1909.973z"/>
	<path fill-rule="evenodd" clip-rule="evenodd" fill="#B9B4A6" d="M1443.996,1911.975c-0.673-0.655-1.347-1.311-2.02-1.967
		C1442.649,1910.664,1443.322,1911.319,1443.996,1911.975z"/>
	<path fill-rule="evenodd" clip-rule="evenodd" fill="#B9B4A6" d="M1447.996,1913.976c-0.674-0.655-1.349-1.311-2.023-1.966
		C1446.647,1912.665,1447.322,1913.32,1447.996,1913.976z"/>
	<path fill-rule="evenodd" clip-rule="evenodd" fill="#B9B4A6" d="M1451.997,1915.979c-0.675-0.656-1.351-1.312-2.026-1.968
		C1450.646,1914.666,1451.321,1915.322,1451.997,1915.979z"/>
	<path fill-rule="evenodd" clip-rule="evenodd" fill="#B9B4A6" d="M1455.997,1917.979c-0.676-0.655-1.351-1.312-2.026-1.967
		C1454.646,1916.667,1455.321,1917.323,1455.997,1917.979z"/>
	<path fill-rule="evenodd" clip-rule="evenodd" fill="#B9B4A6" d="M1459.997,1919.979c-0.676-0.655-1.353-1.312-2.029-1.967
		C1458.645,1918.668,1459.32,1919.324,1459.997,1919.979z"/>
	<path fill-rule="evenodd" clip-rule="evenodd" fill="#B9B4A6" d="M1463.997,1921.982c-0.677-0.656-1.353-1.313-2.03-1.97
		C1462.644,1920.669,1463.32,1921.326,1463.997,1921.982z"/>
	<path fill-rule="evenodd" clip-rule="evenodd" fill="#B9B4A6" d="M1467.997,1923.982c-0.677-0.656-1.354-1.312-2.03-1.969
		C1466.644,1922.67,1467.32,1923.326,1467.997,1923.982z"/>
	<path fill-rule="evenodd" clip-rule="evenodd" fill="#A7A397" d="M1392.017,1253.994c-0.671-0.653-1.341-1.308-2.011-1.961
		C1390.676,1252.688,1391.346,1253.341,1392.017,1253.994z"/>
	<path fill-rule="evenodd" clip-rule="evenodd" fill="#BAB6A8" d="M852.048,1486.243c-6.6,6.056-9.605,12.337-8.343,20.14
		c0.354,2.187-1.1,3.704-2.721,5c-7.062,5.643-14.611,10.495-23.189,13.463c-6.283,2.174-12.483,1.835-18.078-2.156
		c-3.422-2.44-4.399-5.53-2.369-9.546c2.327-4.603,6-8.006,9.775-11.215C819.564,1491.354,833.306,1484.174,852.048,1486.243z"/>
	<path fill-rule="evenodd" clip-rule="evenodd" fill="#BAB6A8" d="M1080.366,943.078c-5.724,6.178-9.649,12.391-8.235,20.841
		c0.283,1.692-0.578,3.342-1.986,4.334c-8.619,6.071-16.679,13.28-27.92,14.192c-1.633,0.133-3.302,0.446-4.898,0.244
		c-4.313-0.544-8.858-1.195-10.854-5.759c-2.195-5.019,0.495-8.821,3.829-12.405
		C1043.776,950.043,1059.906,941.731,1080.366,943.078z"/>
</g>
</svg>
