<svg xmlns="http://www.w3.org/2000/svg" width="2647" height="2451" viewBox="0 0 2647 2451"><g fill-rule="evenodd" clip-rule="evenodd"><path fill="#DEA7A7" d="M2 1720v-54c2.124-3.69.4-7.763 1.16-11.577.437-2.204 1.374-3.79 3.82-1.664 2.52 4.243 2.38 8.962 1.77 13.497-2.52 18.76-2.306 37.464.037 56.222.606 4.853.8 9.91-1.59 14.56-.78 1.23-1.835 1.536-3.157.924-2.7-5.76.708-12.21-2.04-17.964z"/><path fill="#F5E3E3" d="M5.732 1651.758C2.042 1655.864 6.102 1662 2 1666v-16c3.676-2.447.345-7.522 3.773-10.062 3.513 3.952 3.54 7.892-.04 11.82z"/><path fill="#F0D8D8" d="M2 1720c3.558 5.66 1.553 11.954 2.04 17.963L2 1738v-18z"/><path fill="#C7C1B2" d="M198.546 1266.14c-8.02-28.124-17.61-55.746-26.615-83.556-17.905-55.295-35.624-110.652-53.742-165.878-2.282-6.955-1.472-12.493 1.798-18.837 29.712-57.637 59.21-115.383 88.613-173.178 4.805-9.446 10.57-18.477 13.53-28.804 12.856-27.835 25.653-55.702 41.915-81.793 5.844-8.112 10.038-17.175 14.638-25.976 8.482-16.234 16.708-32.608 24.682-49.097 2.226-4.603 5.287-7.177 10.044-8.708 69.3-22.315 138.583-44.697 207.84-67.156 42.687-13.844 85.31-27.882 127.984-41.764 50.903-16.557 101.83-33.043 152.746-49.555 20.556-6.665 41.193-13.093 61.635-20.092 7.692-2.634 14.284-2.45 20.265 3.343 2.7 2.616 6.176 3.893 9.425 5.553 34.984 17.88 69.985 35.73 104.953 53.64 2.922 1.496 6.238 2.51 8.157 5.527-3.532 3.51-6.938 1.28-9.914-.64-6.9-4.455-12.86-3.35-19.228 1.42-9.07 6.79-19.246 11.927-28.864 17.91-5.873 3.65-6.725 7.403-2.94 13.03 7.626 11.33 14.635 23.065 22.12 34.493 2.54 3.877 5.6 7.527 6.144 12.416.16 3.495-1.414 6.47-2.9 9.447-11.614 23.262-22.942 46.672-34.95 69.73-33.863 65.028-66.65 130.605-100.067 195.858-48.766 95.224-97.308 190.56-145.928 285.855-27.565 54.026-55.184 108.028-82.813 162.022-35.677 69.722-71.518 139.36-106.698 209.335-6.303 12.535-6.318 12.578 5.825 18.628 51.015 25.41 101.614 51.64 152.438 77.425 61.813 31.36 123.502 62.977 185.22 94.532 97.326 49.764 194.753 99.33 292.097 149.058 63.216 32.293 126.546 64.363 189.672 96.826 64.904 33.378 130.033 66.31 195.017 99.53 67.06 34.284 134.234 68.344 201.29 102.635 96.138 49.165 192.202 98.472 288.48 147.366 24.04 12.21 48.388 23.907 71.867 37.225 9.012 5.318 13.268 14.535 18.724 22.796 5.53 8.373 9.472 18.066 18.915 23.268-6.312 16.513-14.976 31.855-23.343 47.36-2.182 4.044-4.394 4.056-7.914 2.214-8.56-4.477-17.22-8.754-25.835-13.124-51.975-26.368-104.134-52.38-155.85-79.247-30.442-15.815-61.155-31.078-91.7-46.683-64.646-33.026-129.458-65.733-193.94-99.077-31.048-16.056-62.467-31.383-93.374-47.69-31.228-16.476-63.148-31.582-94.32-48.136-34.715-18.437-70.277-35.193-105.022-53.544-32.988-17.423-66.7-33.415-99.666-50.852-29.15-15.42-58.967-29.517-88.075-44.99-34.118-18.135-69.1-34.574-103.24-52.635-31.802-16.823-64.138-32.568-96.145-48.97-32.007-16.4-64.28-32.293-96.05-49.142-30.312-16.077-61.162-31.06-91.7-46.676-66.102-33.805-132.424-67.186-198.34-101.35-32.232-16.703-64.93-32.484-97.02-49.44-34.162-18.054-69.023-34.722-103.216-52.69-21.23-11.154-42.65-21.907-64.066-32.68-5.19-2.612-7.7-6.13-9.476-11.713-13.298-41.846-27.078-83.536-40.676-125.285-3.603-11.06-7.134-22.145-10.612-33.246-.805-2.57-1.278-5.235-4.223-6.32-1.44-3.486 1.185-5.63 2.845-7.912 15.79-21.713 32.32-42.865 48.816-64.04 2.106-2.704 3.736-7.456 9.014-5.745 10.6 28.75 19.602 58.044 29.862 86.917 11.826 33.278 22.448 66.98 33.626 100.487 1.837 5.51 4.015 10.568 9.663 13.298 16.803 8.12 33.136 17.15 49.58 25.954 6.5 3.48 10.183 2.044 13.426-4.45 15.18-30.4 31.508-60.21 47.027-90.43 37.13-72.306 75.203-144.12 112.462-216.357 23.816-46.178 47.956-92.194 72.034-138.24C695.84 976.44 737.06 897.26 778.25 818.064c24.127-46.394 48.27-92.782 72.57-139.086 18.418-35.1 36.527-70.358 55.03-105.413 4.667-8.845 3.922-11.437-5.285-15.004-29.825-11.554-59.926-22.383-89.787-33.843-6.895-2.646-13.595-1.936-20.525.165-46.55 14.11-92.9 28.86-139.367 43.237-87.52 27.076-174.9 54.594-262.46 81.535-10.19 3.135-20.243 6.752-30.577 9.36-8.762 2.21-14.523 7.22-18.313 15.416-5.592 12.095-11.887 23.86-17.808 35.802-33.154 66.87-67.82 132.974-101.15 199.756-9.664 19.36-19.805 38.51-29.72 57.76-3.6 6.988-4.176 13.463-1.683 21.032 21.16 64.25 43.82 127.99 64.858 192.28 1.146 3.5 2.764 6.782 4.365 10.076 1.018 4.54-1.84 7.687-4.354 10.643-16.395 19.277-31.61 39.504-47.683 59.037-2.075 2.525-3.77 5.672-7.817 5.322z"/><path fill="#C5BFB0" d="M2119.916 2399.977c-4.64.852-7.625-.51-10.174-5.02-5.313-9.402-11.566-18.27-17.29-27.447-2.804-4.495-6.095-8.46-10.452-11.5.207-2.45 1.635-4.41 2.583-6.57 41.048-82.682 83.825-164.48 125.567-246.804 34.656-68.35 69.5-136.61 104.44-204.82 47.25-92.23 94.347-184.535 141.35-276.89 32.192-63.252 65.1-126.138 96.655-189.713 3.414-6.877 7.237-13.513 11.092-20.132 3.564-6.12 2.68-10.236-4.044-13.59-45.917-22.906-91.505-46.467-137.16-69.885-66.995-34.365-134.378-67.975-201.06-102.95-2.95-1.548-5.867-3.163-8.863-4.62-59.038-28.72-117.1-59.37-175.656-89.04-61.52-31.173-122.884-62.66-184.297-94.045-66.46-33.964-133-67.775-199.454-101.75-64.08-32.763-128.236-65.378-192.31-98.152-64.67-33.078-129.504-65.835-194.083-99.083-82.95-42.706-166.332-84.562-249.2-127.427-10.372-5.366-21.45-9.213-31.632-14.917-4.78-2.678-8.145-1.452-11.186 2.482-.938.643-1.853.606-2.74-.098-7.207-11.51-14.423-23.01-21.615-34.528-3.158-5.058-5.848-10.476-9.516-15.127-3.69-4.682-1.77-6.605 2.357-9.14 13.266-8.146 26.405-16.503 39.44-25.015 5.468-3.57 9.496.352 13.75 2.203 3.276 1.426 5.912 4.372 9.993 3.413 3.09.327 5.602 2.07 8.254 3.42 45.71 23.267 91.438 46.503 137.1 69.865 48.62 24.876 97.174 49.89 145.767 74.822 52.742 27.062 105.5 54.092 158.242 81.155 48.592 24.935 97.164 49.908 145.757 74.842 52.74 27.063 105.498 54.095 158.243 81.15 48.893 25.08 97.777 50.177 146.667 75.264 52.446 26.913 105.035 53.552 157.278 80.854 25.39 13.268 51.048 25.99 76.53 39.067 79.69 40.895 159.41 81.738 239.113 122.608 50.673 25.982 101.355 51.942 152 77.98 36.423 18.726 72.793 37.558 109.18 56.354 9.022 4.66 9.37 5.297 4.737 14.426-18.088 35.64-36.29 71.22-54.477 106.807-25.312 49.524-50.715 99.003-75.957 148.562-16.773 32.933-32.923 66.19-50.112 98.902-16.58 31.554-32.257 63.557-48.494 95.28-31.106 60.773-62.135 121.588-93.188 182.39-15.142 29.647-30.258 59.306-45.398 88.952-15.744 30.83-31.512 61.647-47.253 92.48-17.408 34.096-34.475 68.37-52.292 102.252-16.125 30.664-31.348 61.775-47.16 92.59-3.492 6.81-7.342 13.434-11.03 20.143z"/><path fill="#b17fca" d="M286.01 1278.036c-18.904 22.667-36.248 46.535-54.024 70.07-1.987 2.63-3.917 5.304-5.872 7.958-31.177 42.407-61.705 85.26-87.988 130.947-28.57 49.662-51.046 101.703-61.01 158.535-3.854 21.983-6.57 44.108-7.087 66.437-.92 39.646-.022 79.24 3.458 118.77 1.634 18.56 2.568 37.18 4.11 55.747.427 5.133-2.555 6.253-6.35 7.075-13.322 2.885-26.654 5.722-39.968 8.64-4.132.907-8.11 2.77-13.482 1.84L5.795 1754.018c-1.233-5.28-1.213-10.56-.015-15.84 1.33-10.68-1.237-21.155-1.598-31.735-.498-14.596-.45-29.202 1.71-43.734.53-3.562-.074-7.295-.158-10.95l.04-11.822c6.6-75.192 33.186-143.356 72.287-207.27 29.42-48.086 63.18-93.03 97.786-137.397 7.57-9.705 15.132-19.42 22.7-29.13 8.564-10.473 17.21-20.877 25.67-31.432 11.356-14.17 22.567-28.454 33.84-42.69 5.453-13.187 16.323-22.37 24.888-33.21 31.298-39.606 65.315-77.094 92.73-119.716 11.66-18.132 20.302-37.34 21.74-59.205-.885-19.547-9.757-35.56-22.126-50.015-7.827-8.747-16.837-16.354-24.48-25.29-1.596-2.51-3.54-4.757-5.372-7.1-9.73-18.61-8.47-36.792 3.896-53.418 12.32-16.567 29.162-23.473 49.894-19.29 17.175 8.882 31.39 22.09 47.422 32.665.79.486 1.535 1.04 2.264 1.614 1.1.847 2.133 1.774 3.154 2.713 19.255 15.16 38.918 29.88 53.966 49.624 22.213 27.648 21.01 56.988 5.43 86.79-13.01 24.88-30.122 47.11-48.13 68.48-57.2 67.89-115.62 134.765-169.99 205-2.01 2.59-3.66 5.67-7.333 6.376zM264.045 714.096c.173 2.753-.666 5.232-2.02 7.582-12.438 21.59-22.63 44.334-34.15 66.396-1.497 2.87-2.257 6.373-5.745 7.815-47.42-43.676-87.26-93.272-117.105-150.587-20.848-40.037-35.868-82.3-46.722-126.04-9.944-40.074-16.455-80.74-20.61-121.828-3.15-31.133-5.558-62.288-6.28-93.574-.075-3.295-.874-6.573-1.337-9.86-.008-7.322.06-14.646-.037-21.967-1.15-86.286-.445-172.574-.2-258.86.01-2.912-.747-6.002 1.13-8.647 3.19-1.184 5.923.395 8.753 1.24 14.34 4.29 28.677 8.584 43.008 12.897 9.078 2.73 9.103 2.747 9.098 12.302-.02 44.977.07 89.953-.132 134.93-.163 36.317.624 72.62 2.633 108.864 3.594 64.867 10.792 129.237 27.41 192.314 22.933 87.04 64.27 163.877 125.678 229.806 5.438 5.838 10.31 12.224 16.627 17.216z"/><path fill="#F0D8D8" d="M5.78 1738.18l.015 15.84c-3.408-5.043-1.32-10.688-1.757-16.057.588.014 1.17.087 1.742.217z"/><path fill="#BBB6A8" d="M972.002 598.005c.664-.008 1.327-.013 1.99-.017 13.38 17.442 24.272 36.53 35.968 55.062 39.456 62.516 79.13 124.895 118.63 187.383 43.77 69.243 87.586 138.46 131.392 207.68 38.82 61.342 77.786 122.592 116.39 184.07 2.188 3.485 6.042 6.61 3.972 11.625-.63.65-1.41 1.073-2.288 1.295-1.28.098-2.493-.217-3.65-.725-.7-.277-1.387-.627-2.047-1-.923-.512-1.833-1.078-2.777-1.562-.61-.26-1.205-.57-1.786-.895-.847-.466-1.693-.944-2.578-1.35-.607-.217-1.18-.504-1.735-.822-.85-.442-1.7-.884-2.57-1.294-.605-.233-1.162-.555-1.687-.93-.54-.344-1.037-.745-1.513-1.168-.012.02-.735-.598-.75-.576-.538-.327-1.067-.67-1.615-.987-.59-.268-1.143-.59-1.69-.93-.855-.493-1.728-.95-2.634-1.36-.648-.253-1.263-.558-1.877-.88-.65-.29-1.277-.615-1.914-.932-.67-.284-1.31-.615-1.948-.958-.668-.308-1.313-.648-1.968-.98-.683-.293-1.335-.638-1.985-.987-.676-.312-1.33-.66-1.99-.998-.687-.294-1.345-.642-2-.995-.676-.313-1.333-.662-1.995-1.002-.687-.296-1.347-.642-2.002-.997-.677-.313-1.335-.662-1.997-1.002-.687-.295-1.346-.643-2.002-.997-.677-.312-1.335-.663-1.998-1.003-.687-.295-1.346-.643-2.002-.997-.677-.312-1.335-.663-1.998-1.003-.688-.294-1.346-.644-2.002-.997-.677-.312-1.335-.663-1.998-1.003-.688-.294-1.346-.644-2.002-.997-.677-.312-1.335-.663-1.998-1.003-.688-.294-1.346-.644-2.002-.997-.677-.312-1.335-.663-1.998-1.003-.688-.294-1.346-.644-2.002-.997-.677-.312-1.335-.663-1.998-1.003-.688-.294-1.346-.644-2.002-.997-.677-.312-1.335-.663-1.998-1.003-.688-.294-1.346-.644-2.002-.997-.677-.312-1.335-.663-1.998-1.003-.688-.294-1.346-.644-2.002-.997-.677-.312-1.335-.663-1.998-1.003-.688-.294-1.346-.644-2.002-.997-.677-.312-1.335-.663-1.998-1.003-.688-.294-1.346-.644-2.002-.997-.677-.312-1.335-.663-1.998-1.003-.688-.294-1.346-.644-2.002-.997-.677-.312-1.335-.663-1.998-1.003-.688-.294-1.346-.644-2.002-.997-.677-.312-1.335-.663-1.998-1.003-.688-.294-1.346-.644-2.002-.997-.677-.312-1.335-.663-1.998-1.003-.688-.294-1.346-.644-2.002-.997-.677-.312-1.335-.663-1.998-1.003-.688-.294-1.346-.644-2.002-.997-.677-.312-1.335-.663-1.998-1.003-.688-.294-1.346-.644-2.002-.997-.677-.313-1.335-.663-1.998-1.003-.688-.295-1.347-.643-2.002-.997-.678-.313-1.335-.664-2-1.003-.687-.295-1.346-.644-2.003-.998-.678-.313-1.336-.664-2-1.003-.686-.297-1.346-.643-2-.996-.67-.31-1.32-.657-1.975-.992-.667-.287-1.31-.627-1.945-.972-.64-.3-1.267-.638-1.892-.964-.633-.275-1.245-.604-1.85-.938-.888-.473-1.776-.956-2.685-1.396-.62-.24-1.19-.57-1.73-.953-.547-.347-1.053-.754-1.534-1.184-.01.02-.742-.605-.755-.582-.542-.33-1.073-.676-1.624-.995-.59-.27-1.145-.593-1.692-.933-.857-.494-1.73-.952-2.637-1.362-.648-.253-1.263-.56-1.878-.88-.65-.292-1.278-.615-1.913-.933-.672-.284-1.31-.617-1.95-.96-.667-.307-1.313-.647-1.967-.98-.683-.292-1.335-.637-1.985-.986-.676-.312-1.33-.66-1.99-.998-.687-.294-1.345-.642-2-.995-.676-.313-1.333-.662-1.995-1.002-.687-.295-1.347-.64-2.002-.996-.677-.313-1.335-.662-1.997-1.002-.687-.296-1.346-.644-2.002-.998-.677-.312-1.335-.663-1.998-1.003-.687-.294-1.346-.642-2.002-.996-.677-.312-1.335-.663-1.998-1.003-.688-.293-1.346-.643-2.002-.996-.677-.312-1.335-.663-1.998-1.003-.688-.293-1.346-.643-2.002-.996-.677-.312-1.335-.663-1.998-1.003-.688-.293-1.346-.643-2.002-.996-.677-.312-1.335-.663-1.998-1.003-.688-.293-1.346-.643-2.002-.996-.677-.312-1.335-.663-1.998-1.003-.687-.294-1.347-.642-2.002-.996-.677-.313-1.335-.663-2-1.003-.687-.295-1.346-.643-2.003-.997-.68-.313-1.338-.664-2.002-1.004-.688-.298-1.35-.644-2.004-1-.676-.31-1.33-.658-1.99-.995-.676-.29-1.328-.634-1.974-.982-.658-.307-1.302-.648-1.948-.982-.67-.287-1.314-.628-1.954-.975-.99-.497-1.987-.978-3.02-1.408-.756-.25-1.482-.534-2.226-.808-1.238-.37-2.467-.726-3.703-1.114-29.952-13.872-58.663-30.157-88.258-44.724-58.595-28.84-116.26-59.527-174.81-88.472-10.737-5.308-21.022-11.547-31.85-16.726-2.103-1.006-4.126-2.23-6.418-2.745-1.678-.377-3.437-.33-4.324 1.49-.834 1.714-.188 3.23 1.19 4.414 2.307 1.983 5.12 3.105 7.803 4.424 64.9 31.884 129.004 65.35 193.52 97.993 82.944 41.97 165.78 84.157 248.616 126.338 27.606 14.058 55.322 27.916 82.85 42.142 4.474 2.312 8.787 4.814 11.086 9.627 16.83 28.754 35.29 56.492 53.012 84.69 39.36 62.62 79.052 125.034 118.61 187.53 35.285 55.743 70.56 111.493 105.876 167.216 44.234 69.794 88.428 139.614 132.596 209.45 40.25 63.64 80.565 127.24 120.904 190.824 12.137 19.132 24.194 38.313 36.288 57.473 1.757 2.783 3.924 5.498 2.975 9.175-.573.704-1.313 1.18-2.193 1.42-1.286.115-2.5-.205-3.664-.716-.718-.284-1.416-.645-2.094-1.022-.975-.54-1.944-1.11-2.952-1.605-.682-.28-1.336-.616-1.985-.962-.67-.306-1.322-.648-1.98-.983-.682-.292-1.336-.637-1.988-.987-.674-.312-1.33-.66-1.99-.998-.687-.295-1.344-.644-1.998-.996-.68-.312-1.336-.662-1.998-1.002-.688-.295-1.347-.644-2.003-.998-.678-.313-1.336-.663-2-1.003-.687-.295-1.346-.644-2-.997-.68-.313-1.336-.664-2-1.004-.687-.295-1.346-.643-2.002-.997-.677-.313-1.335-.663-1.998-1.003-.688-.294-1.346-.644-2.002-.997-.677-.312-1.335-.663-1.998-1.003-.687-.295-1.347-.643-2.002-.997-.677-.313-1.335-.663-1.998-1.003-.687-.295-1.347-.643-2.002-.997-.677-.313-1.335-.663-1.998-1.003-.687-.295-1.347-.643-2.002-.997-.677-.313-1.335-.663-1.998-1.003-.687-.295-1.347-.643-2.002-.997-.677-.313-1.335-.663-1.998-1.003-.687-.295-1.347-.643-2.002-.997-.677-.313-1.335-.663-1.998-1.003-.687-.295-1.347-.643-2.002-.997-.677-.313-1.335-.663-1.998-1.003-.687-.295-1.347-.643-2.002-.997-.677-.313-1.335-.663-1.998-1.003-.687-.295-1.347-.643-2.002-.997-.677-.313-1.335-.663-1.998-1.003-.687-.295-1.347-.643-2.002-.997-.677-.313-1.335-.663-1.998-1.003-.687-.295-1.347-.643-2.002-.997-.677-.313-1.335-.663-1.998-1.003-.687-.295-1.347-.643-2.002-.997-.677-.313-1.335-.663-1.998-1.003-.687-.295-1.347-.643-2.002-.997-.677-.313-1.335-.663-1.998-1.003-.687-.295-1.347-.643-2.002-.997-.677-.313-1.335-.663-1.998-1.003-.687-.295-1.347-.643-2.002-.997-.678-.312-1.335-.663-1.998-1.003-.688-.295-1.347-.644-2.003-.997-.677-.313-1.335-.663-1.997-1.003-.685-.293-1.342-.642-1.994-.993-.667-.31-1.315-.656-1.967-.99-.664-.287-1.305-.625-1.936-.97-.637-.302-1.26-.64-1.882-.966-.634-.276-1.246-.605-1.848-.943-.894-.485-1.792-.97-2.722-1.396-.636-.25-1.242-.56-1.84-.885-.91-.47-1.803-.97-2.695-1.473-.897-.487-1.732-1.066-2.53-1.695-.79-.593-1.587-1.177-2.46-1.652-.61-.26-1.187-.58-1.754-.918-.878-.49-1.765-.958-2.684-1.38-.652-.255-1.272-.56-1.89-.885-.65-.293-1.28-.617-1.918-.937-.67-.283-1.31-.617-1.95-.96-.668-.306-1.312-.647-1.967-.98-.683-.292-1.335-.635-1.985-.985-.674-.312-1.328-.658-1.99-.996-.685-.296-1.342-.643-1.996-.996-.677-.313-1.334-.662-1.996-1-.688-.296-1.346-.646-2.002-1-.677-.31-1.334-.66-1.997-1-.69-.295-1.347-.645-2.003-.998-.677-.313-1.335-.663-1.998-1.003-.69-.294-1.347-.644-2.003-.997-.677-.312-1.335-.663-1.998-1.003-.688-.295-1.348-.643-2.003-.997-.677-.313-1.335-.663-1.998-1.003-.688-.295-1.348-.643-2.003-.997-.677-.313-1.335-.663-1.998-1.003-.688-.295-1.348-.643-2.003-.997-.677-.313-1.335-.663-1.998-1.003-.688-.295-1.348-.643-2.003-.997-.677-.313-1.335-.663-1.998-1.003-.688-.295-1.348-.643-2.003-.997-.677-.313-1.335-.663-1.998-1.003-.688-.295-1.348-.643-2.003-.997-.677-.313-1.335-.663-1.998-1.003-.688-.295-1.348-.643-2.003-.997-.677-.313-1.335-.663-1.998-1.003-.688-.295-1.348-.643-2.003-.997-.677-.313-1.335-.663-1.998-1.003-.688-.295-1.348-.643-2.003-.997-.677-.313-1.335-.663-1.998-1.003-.688-.295-1.348-.643-2.003-.997-.677-.313-1.335-.663-1.998-1.003-.688-.295-1.348-.643-2.003-.997-.677-.313-1.335-.663-1.998-1.003-.688-.295-1.348-.643-2.003-.997-.677-.313-1.335-.663-1.998-1.003-.688-.295-1.348-.643-2.003-.997-.677-.313-1.335-.663-1.998-1.003-.688-.295-1.348-.643-2.003-.997-.677-.313-1.335-.663-1.998-1.003-.688-.295-1.348-.643-2.003-.997-.678-.312-1.335-.663-1.998-1.003-.69-.295-1.348-.644-2.004-.997-.677-.313-1.335-.663-1.997-1.003-.686-.293-1.343-.642-1.995-.993-.667-.31-1.315-.655-1.967-.99-.663-.286-1.304-.624-1.935-.97-.637-.3-1.26-.64-1.882-.965-.633-.276-1.245-.605-1.847-.943-.894-.486-1.792-.97-2.722-1.397-.635-.25-1.24-.56-1.84-.885-.91-.47-1.802-.97-2.694-1.472-.897-.487-1.732-1.066-2.53-1.695-.79-.593-1.587-1.177-2.46-1.652-.61-.26-1.187-.58-1.754-.917-.878-.49-1.765-.958-2.684-1.38-.65-.255-1.27-.56-1.89-.885-.65-.292-1.28-.617-1.917-.937-.67-.283-1.31-.615-1.948-.96-.668-.306-1.314-.646-1.968-.978-.683-.29-1.334-.637-1.985-.986-.675-.312-1.33-.658-1.99-.996-.686-.295-1.343-.642-1.997-.995-.677-.313-1.334-.662-1.996-1-.687-.298-1.346-.644-2-.998-.68-.313-1.336-.663-2-1.003-.686-.295-1.346-.643-2-.997-.678-.313-1.336-.663-2-1.002-.687-.295-1.345-.645-2-.998-.678-.313-1.336-.662-2-1.003-.687-.294-1.345-.644-2-.997-.678-.312-1.336-.663-2-1.003-.687-.294-1.345-.644-2-.997-.678-.312-1.336-.663-2-1.003-.687-.294-1.345-.644-2-.997-.678-.312-1.336-.663-2-1.003-.687-.294-1.345-.644-2-.997-.678-.312-1.336-.663-2-1.003-.687-.294-1.345-.644-2-.997-.678-.312-1.336-.663-2-1.003-.687-.294-1.345-.644-2-.997-.678-.312-1.336-.663-2-1.003-.687-.294-1.345-.644-2-.997-.678-.312-1.336-.663-2-1.003-.687-.294-1.345-.644-2-.997-.678-.312-1.336-.663-2-1.003-.687-.294-1.345-.644-2-.997-.678-.312-1.336-.663-2-1.003-.687-.294-1.345-.644-2-.997-.678-.312-1.336-.663-2-1.003-.687-.294-1.345-.644-2-.997-.678-.312-1.336-.663-2-1.003-.687-.294-1.345-.644-2-.997-.678-.312-1.336-.663-2-1.003-.687-.294-1.345-.644-2-.997-.678-.312-1.336-.663-2-1.003-.687-.294-1.345-.644-2-.997-.678-.312-1.336-.663-2-1.003-.687-.294-1.345-.644-2-.997-.678-.313-1.336-.663-2-1.003-.687-.295-1.346-.643-2-.997-.68-.313-1.336-.664-2-1.003-.688-.295-1.347-.644-2.004-.998-.678-.313-1.336-.664-2-1.003-.686-.296-1.346-.642-2-.995-.67-.31-1.32-.657-1.975-.992-.667-.287-1.31-.627-1.945-.972-.64-.3-1.267-.638-1.892-.964-.632-.275-1.244-.604-1.848-.938-.89-.473-1.777-.956-2.686-1.396-.62-.24-1.19-.57-1.73-.953-.547-.346-1.053-.753-1.534-1.183-.01.02-.742-.605-.755-.582-.54-.33-1.072-.676-1.623-.995-.59-.27-1.145-.592-1.692-.932-.857-.493-1.73-.95-2.637-1.36-.648-.254-1.263-.56-1.878-.88-.65-.293-1.277-.616-1.912-.934-.672-.284-1.31-.617-1.95-.96-.667-.307-1.313-.647-1.967-.98-.683-.292-1.335-.637-1.985-.986-.676-.312-1.33-.66-1.99-.998-.687-.294-1.345-.642-2-.995-.676-.313-1.333-.662-1.995-1.002-.687-.296-1.347-.642-2.002-.997-.677-.313-1.335-.662-1.997-1.002-.69-.296-1.348-.644-2.004-.998-.677-.312-1.335-.663-1.998-1.003-.687-.295-1.346-.643-2.002-.997-.677-.312-1.335-.663-1.998-1.003-.688-.294-1.346-.644-2.002-.997-.677-.312-1.335-.663-1.998-1.003-.688-.294-1.346-.644-2.002-.997-.677-.312-1.335-.663-1.998-1.003-.688-.294-1.346-.644-2.002-.997-.677-.312-1.335-.663-1.998-1.003-.688-.294-1.346-.644-2.002-.997-.677-.312-1.335-.663-1.998-1.003-.688-.294-1.346-.644-2.002-.997-.677-.312-1.335-.663-1.998-1.003-.688-.294-1.346-.644-2.002-.997-.677-.312-1.335-.663-1.998-1.003-.688-.294-1.346-.644-2.002-.997-.677-.312-1.335-.663-1.998-1.003-.688-.294-1.346-.644-2.002-.997-.677-.312-1.335-.663-1.998-1.003-.688-.294-1.346-.644-2.002-.997-.677-.312-1.335-.663-1.998-1.003-.688-.294-1.346-.644-2.002-.997-.677-.312-1.335-.663-1.998-1.003-.688-.294-1.346-.644-2.002-.997-.677-.312-1.335-.663-1.998-1.003-.688-.294-1.346-.644-2.002-.997-.677-.312-1.335-.663-1.998-1.003-.688-.294-1.346-.644-2.002-.997-.677-.312-1.335-.663-1.998-1.003-.688-.294-1.346-.644-2.002-.997-.677-.312-1.335-.663-1.998-1.003-.688-.294-1.346-.644-2.002-.997-.677-.312-1.335-.663-1.998-1.003-.688-.294-1.346-.644-2.002-.997-.677-.313-1.335-.663-1.998-1.003-.688-.294-1.347-.644-2.003-.997-.677-.313-1.335-.663-1.997-1.003-.686-.293-1.342-.642-1.994-.993-.667-.31-1.316-.655-1.967-.99-.664-.286-1.304-.626-1.935-.97-.637-.3-1.26-.64-1.883-.965-.635-.275-1.245-.606-1.848-.943-.894-.485-1.792-.97-2.722-1.397-.636-.252-1.243-.558-1.842-.885-.908-.47-1.8-.97-2.693-1.472-.897-.487-1.732-1.066-2.53-1.696-.79-.592-1.587-1.176-2.46-1.65-.61-.262-1.187-.58-1.754-.92-.878-.487-1.764-.957-2.683-1.377-.652-.255-1.27-.563-1.89-.887-.65-.293-1.278-.618-1.917-.937-.67-.283-1.31-.617-1.95-.96-.667-.307-1.313-.646-1.967-.98-.683-.29-1.335-.636-1.985-.985-.675-.312-1.328-.66-1.988-.996-.687-.296-1.345-.64-1.998-.995-.677-.312-1.334-.663-1.996-1-.688-.296-1.346-.646-2-.998-.68-.314-1.336-.664-2-1.004-.687-.295-1.346-.643-2-.997-.678-.314-1.336-.664-2-1.004-.686-.296-1.346-.642-2-.997-.678-.313-1.336-.664-2-1.004-.686-.295-1.346-.643-2-.997-.678-.314-1.336-.664-2-1.004-.688-.295-1.347-.645-2.004-.998-.68-.313-1.337-.664-2.002-1.004-.688-.297-1.35-.643-2.004-.998-.675-.31-1.33-.66-1.99-.996-.676-.29-1.327-.635-1.973-.982-.66-.307-1.303-.65-1.95-.982-.67-.29-1.315-.63-1.956-.977-.99-.498-1.99-.98-3.026-1.41-.757-.25-1.485-.534-2.232-.808-1.245-.37-2.48-.727-3.726-1.12-20.81-9.062-40.358-20.587-60.637-30.65-71.334-35.395-142.07-71.972-213.112-107.938-80.253-40.63-160.408-81.455-240.57-122.265-78.38-39.903-156.743-79.84-235.173-119.646-25.54-12.963-51.043-26.028-76.575-39.02-2.373-1.21-4.703-2.536-7.27-3.308-1.997-.6-4.26-.89-5.182 1.397-.944 2.344 1.027 3.665 2.854 4.515 11.494 5.345 22.17 12.23 33.527 17.813 73.254 36.024 145.706 73.637 218.534 110.5 78.47 39.716 156.85 79.62 235.224 119.527 78.97 40.21 158.03 80.242 236.985 120.483 80.736 41.15 161.567 82.113 242.34 123.19 78.1 39.72 156.33 79.188 234.257 119.24 59.557 30.61 119.807 59.856 178.985 91.204 5.32 2.82 10.717 5.45 14.352 10.53 30.178 49.486 61.45 98.285 92.97 146.93-.75 1.913-2.086 3.245-3.99 4.01-16.087-8.044-32.394-15.68-48.216-24.212-36.642-19.76-74.43-37.26-111.21-56.707-27.345-14.46-55.242-27.803-82.606-42.192-34.742-18.27-70.162-35.217-104.843-53.563-32.972-17.44-66.82-33.128-99.655-50.777-33.15-17.818-67.412-33.438-100.52-51.268-32.558-17.53-66.218-32.85-98.752-50.352-31.973-17.2-65.03-32.25-96.938-49.498-31.03-16.772-63.173-31.32-94.122-48.18-25.744-14.026-52.438-26.145-78.297-39.898-40.213-21.39-81.396-40.872-121.65-62.146-25.323-13.382-51.355-25.35-76.504-39.017-36.586-19.88-74.568-36.998-111.23-56.662-29.648-15.9-60.294-29.81-89.814-45.876-30.725-16.723-62.64-31.07-93.38-47.688-35.16-19.01-71.575-35.536-106.766-54.422-22.598-12.128-45.7-23.203-68.43-35.04-8.098-4.217-8.173-4.237-3.957-12.7 13.067-26.237 25.535-52.8 39.46-78.573 17.26-31.944 32.214-65.047 49.475-96.953 16.167-29.885 30.15-60.866 46.323-90.708 17.462-32.218 32.522-65.64 49.937-97.84 16.8-31.06 31.402-63.215 48.1-94.29 17.323-32.244 32.687-65.472 49.9-97.74 16.6-31.118 31.48-63.097 48.08-94.186 18.487-34.632 34.986-70.267 53.504-104.854 16.192-30.244 30.422-61.476 46.768-91.602 14.457-26.647 27.373-54.043 41.258-80.96 1.656-3.223 3.877-6.273 4.086-10.103z"/><path fill="#CAC4B5" d="M399.734 980.174c-.775 20.878-9.013 39.25-19.705 56.59-17.78 28.83-39.15 55.013-60.673 81.078-16.23 19.655-32.08 39.622-48.204 59.365-4.165 5.1-8.722 9.883-13.1 14.812-5.147-.463-4.7-5.172-5.752-8.26-8.575-25.164-16.44-50.578-25.357-75.62-14.05-39.447-26.52-79.424-40.427-118.91-2.78-7.897-2.19-14.413 1.584-21.8 28.93-56.63 56.94-113.735 86.436-170.066 21.472-41.01 41.7-82.62 62.587-123.91 4.312-8.525 9.73-13.993 19.233-16.806 42.952-12.715 85.728-26.032 128.53-39.255 15.86-4.9 31.575-10.278 47.434-15.19 44.38-13.744 88.816-27.303 133.196-41.045 24.735-7.66 49.393-15.573 74.105-23.304 18.055-5.647 36.156-11.145 54.21-16.79 5.662-1.772 11.092-1.31 16.568.756 22.982 8.674 45.99 17.278 68.99 25.91 8.08 3.034 16.134 6.143 24.244 9.096 8.97 3.266 11.065 7.676 5.986 15.59-5.97 9.304-10.305 19.39-15.37 29.12-19.21 36.887-38.018 73.983-57.498 110.726-16.363 30.862-32.332 61.925-48.482 92.895-16.612 31.856-33.222 63.713-49.812 95.58-14.438 27.73-29.187 55.298-43.443 83.127-17.9 34.938-35.888 69.837-54.308 104.503-16.235 30.554-32.216 61.232-47.98 92.03-16.52 32.276-33.423 64.358-50.217 96.496-13.708 26.233-27.567 52.39-41.242 78.64-18.904 36.295-37.368 72.824-56.707 108.885-7.395 13.787-14.3 27.808-21.61 41.625-3.367 6.366-3.73 6.61-9.842 3.488-18.964-9.685-37.776-19.666-56.76-29.31-4.75-2.413-6.21-6.6-7.686-11.032-11.54-34.688-23.006-69.4-34.658-104.05-8.26-24.563-16.798-49.03-25.154-73.56-1.493-4.38-3.448-8.703-2.842-13.54 11.514-16.68 24.548-32.192 37.168-48.01 17.183-21.535 34.665-42.837 52.287-64.016 12.743-15.316 26.015-30.19 38.89-45.4 29.385-34.706 60.164-68.31 84.96-106.67 5.414-8.378 10.632-16.87 14.475-26.134 11.294-27.23 8.342-52.57-9.912-75.928-1.792-3.647-.294-7.12.528-10.646 7.146-30.673 3.104-59.36-14.623-85.89-26.015-38.933-78.395-55.407-121.905-38.047-40.25 16.06-66.627 53.492-67.235 95.42-.695 47.938 35.006 92.45 82.085 102.61 5.74 1.24 12.082.663 17.01 4.847z"/><path fill="#B9B4A6" d="M1969.958 2178.026c2.13-2.042.227-3.816-.687-5.26-13.674-21.6-27.525-43.09-41.212-64.683-23.994-37.86-47.93-75.758-71.843-113.67-27.632-43.81-55.126-87.707-82.845-131.462-16.17-25.525-32.79-50.767-48.98-76.28-22.768-35.886-45.286-71.93-67.98-107.86-25.354-40.145-50.797-80.232-76.18-120.358-25.562-40.406-51.11-80.82-76.64-121.245-27.302-43.232-54.554-86.496-81.873-129.718-6.387-10.106-12.908-20.13-19.48-30.113-1.13-1.714-2.19-3.317-2.22-5.418 3.83-2.77 7.06-.124 10.17 1.42 69.236 34.42 138.008 69.754 206.715 105.216 1.776.918 3.534 1.874 5.33 2.755 73 35.848 145.17 73.35 217.722 110.085 79.98 40.494 159.896 81.12 239.78 121.808 78.4 39.932 156.646 80.163 235.373 119.45 8.36 4.172 16.082 9.493 24.627 13.287 2.73 1.213 6.307 2.966 8.043-.398 1.987-3.853-2.44-4.608-4.703-6.195-.812-.57-1.766-.935-2.665-1.372-48.56-23.623-96.087-49.273-144.434-73.318-55.506-27.605-110.603-56.03-165.868-84.113-77.843-39.555-155.69-79.103-233.52-118.69-80.797-41.096-161.747-81.896-242.386-123.296-53.66-27.55-108.07-53.624-161.146-82.3-1.256-.633-2.48-1.334-3.72-2-.833-.38-1.637-.827-2.436-1.277-3.137-2.83-8.88-3.112-8.906-9.018 2.3-1.65 1.23-3.17.06-5.006-13.4-20.984-26.757-42-40.07-63.04-23.966-37.876-47.92-75.758-71.83-113.666-27.633-43.805-55.153-87.68-82.843-131.448-14.91-23.568-30.17-46.917-45.1-70.473-24.174-38.136-48.184-76.375-72.305-114.543-25.363-40.134-50.79-80.226-76.154-120.36-5.644-8.93-12.714-17.052-15.758-27.477.62-1.878 1.137-3.797 1.88-5.623 1.235-3.03 2.66-3.53 6.048-1.822 20.5 10.338 41.487 19.73 61.776 30.45 37.368 19.748 75.628 37.745 112.944 57.545 32.077 17.02 65.065 32.22 96.993 49.46 31.37 16.94 63.863 31.646 95.194 48.585 31.95 17.273 65.04 32.266 96.98 49.487 32.552 17.55 66.247 32.836 98.758 50.394 30.785 16.626 62.686 31.024 93.406 47.696 29.873 16.21 60.886 30.154 90.73 46.338 35.738 19.378 72.803 36.11 108.578 55.348 30.224 16.252 61.492 30.43 91.623 46.785 30.46 16.532 62.073 30.754 92.51 47.253 31.344 16.99 63.863 31.646 95.196 48.58 33.124 17.904 67.38 33.54 100.557 51.28 31.694 16.946 64.345 32.012 95.97 49.032 29.927 16.107 60.824 30.256 90.76 46.285 33.44 17.905 67.822 33.955 101.29 51.76 19.112 10.17 38.544 19.665 57.747 29.628 8.114 4.21 8.696 5.02 4.284 12.943-17.345 31.153-31.857 63.75-48.722 95.125-7.726 14.374-15.058 28.928-22.448 43.46-24.91 48.976-49.2 98.276-74.705 146.94-17.304 33.01-33.176 66.74-50.784 99.567-16.378 30.532-30.835 62.027-47.208 92.53-16.997 31.666-32.115 64.274-49.01 95.967-18.942 35.538-35.85 72.107-54.83 107.595-16.66 31.143-31.307 63.29-48.114 94.314-17.44 32.194-32.56 65.554-50.02 97.703-12.404 22.84-23.404 46.368-35.387 69.407-3.56.016-5.012-2.496-6.673-5.13-13.79-21.846-27.705-43.61-41.547-65.424-10.825-17.06-21.73-34.068-32.335-51.265-4.832-7.836-10.967-14.993-13.44-24.157 4.786-1.72 8.31 1.493 12.042 3.33 24.49 12.062 48.776 24.535 73.305 36.518 3.022 1.478 7.528 5.563 9.594 1.565 2.53-4.898-3.746-5.993-6.938-7.633-31.977-16.422-63.697-33.342-95.975-49.182-5.704-2.8-12.395-5.04-14.062-12.594z"/><path fill="#D1AF66" d="M399.734 980.174c-43.272-1.937-82.043-31.32-95.727-72.56-11.32-34.116-6.283-65.784 13.83-94.783 15.966-23.02 38.39-37.606 66.128-42.83 38.616-7.272 72.016 3.646 98.7 32.13 17.246 18.41 27.01 40.77 27.536 66.684.3 14.79-.894 29.2-6.324 43.068-14.014-16.663-30.292-30.862-47.74-43.764-2.404-1.776-4.873-3.347-6.202-6.146-.673-.672-1.288-1.402-2.01-2.025l.105.13c-9.933-16.208-23-28.27-42.32-32.14-1.91-.383-3.722-1.588-5.646-.132-21.295-7.436-49.583 8.426-56.08 31.805-3.725 13.407-2.432 26.158 4.043 38.428 2.157 2.303 2.384 5.793 4.866 7.896 7.172 8.217 14.022 16.776 23.818 22.17 13.478 14.793 22.535 31.537 23.024 52.07z"/><path fill="#DDB9A0" d="M352.01 903.437c-.09.87-.177 1.74-.268 2.61-2.405-2.13-3.426-4.9-3.714-8.01 2.28 1.098 3.86 2.71 3.982 5.4z"/><path fill="#A7A397" d="M1969.958 2178.026c5.7 5.75 12.725 9.415 19.9 12.942 17.028 8.366 34.144 16.584 50.878 25.508 15.26 8.137 30.548 16.198 46.022 23.92 5.735 2.86 6.135 5.078 3.05 10.042-1.574 2.53-3.344 2.882-5.814 1.555-2.05-1.102-4.17-2.074-6.254-3.116-28.582-14.283-57.164-28.568-85.745-42.854-5.256-4.715-11.502-7.784-17.743-10.937-53.5-27.017-107.25-53.552-160.33-81.37-37.76-19.787-76.39-37.83-113.968-57.913-38.777-20.726-78.723-39.12-117.513-59.765-40.573-21.596-82.317-40.868-122.877-62.436-39.996-21.268-81.13-40.27-121.08-61.564-37.918-20.21-76.97-38.164-114.848-58.388-39.962-21.337-81.112-40.3-121.082-61.565-40.578-21.59-82.334-40.84-122.874-62.442-37.04-19.737-75.16-37.31-112.166-57.056-39.67-21.168-80.517-40-120.19-61.103-39.407-20.96-79.717-40.088-119.355-60.56-12.375-6.392-24.55-13.167-37.083-19.91.932-2.114 1.702-3.92 2.518-5.705 1.357-2.973 3.498-3.813 6.476-2.33 2.088 1.038 4.192 2.044 6.277 3.087 20.26 10.127 40.787 19.757 60.718 30.493 40.176 21.642 81.696 40.624 121.956 62.047 37.64 20.028 76.355 37.9 113.963 57.93 40.274 21.45 81.705 40.605 121.964 62.03 39.108 20.81 79.344 39.368 118.422 60.18 40.274 21.45 81.726 40.566 121.964 62.028 37.032 19.752 75.062 37.49 112.176 57.036 17.08 8.995 34.132 18.025 51.462 26.526 2.965 1.455 5.717 3.486 9.195 3.67.596.734 1.392 1.264 2.02 1.965.66.023 1.32.035 1.98.036.596.735 1.393 1.264 2.02 1.967.66.02 1.317.033 1.977.035.604.73 1.395 1.264 2.023 1.966.658.02 1.316.032 1.975.035.605.728 1.398 1.262 2.026 1.967.657.02 1.315.03 1.973.033.607.727 1.4 1.262 2.028 1.967.656.02 1.313.033 1.97.034.61.727 1.402 1.263 2.03 1.968.656.02 1.313.032 1.97.033.61.727 1.403 1.263 2.03 1.97.656.022 1.312.032 1.97.032.61.724 1.403 1.26 2.03 1.97.655.02 1.31.032 1.966.03.614.724 1.408 1.26 2.035 1.972.653.02 1.308.03 1.963.03.616.722 1.41 1.26 2.036 1.972.652.02 1.306.03 1.96.03.62.72 1.413 1.258 2.04 1.97.652.022 1.306.032 1.96.03.62.72 1.415 1.258 2.04 1.973.65.02 1.304.03 1.956.027.624.717 1.418 1.257 2.044 1.972.65.02 1.304.03 1.956.027.624.717 1.418 1.257 2.044 1.972.65.02 1.303.03 1.954.03.627.715 1.423 1.255 2.047 1.974l4.005 2.005c.64.67 1.303 1.32 1.988 1.946l2.008.053c.645.67 1.31 1.32 1.994 1.95l2.004.05c.646.67 1.31 1.32 1.996 1.95l2.002.05c.646.67 1.312 1.32 1.998 1.953l2.002.046c.573.746 1.366 1.27 1.998 1.955.666.025 1.33.04 1.997.048.58.742 1.374 1.266 2.005 1.956.664.023 1.33.038 1.995.043.58.74 1.374 1.266 2.005 1.957.664.023 1.328.038 1.992.044.585.74 1.38 1.266 2.008 1.96.663.02 1.326.036 1.99.04.587.74 1.38 1.266 2.01 1.96.663.022 1.326.036 1.99.04.587.74 1.38 1.266 2.01 1.96.664.022 1.326.036 1.99.04.587.74 1.38 1.266 2.01 1.96.663.022 1.325.036 1.988.04.59.74 1.383 1.266 2.013 1.962.662.02 1.324.035 1.986.04.59.737 1.386 1.265 2.014 1.963.66.02 1.322.034 1.983.037.593.735 1.388 1.264 2.016 1.963.66.023 1.32.036 1.98.037.597.734 1.393 1.264 2.02 1.965.66.022 1.32.034 1.98.035.597.734 1.393 1.264 2.02 1.966.66.022 1.32.035 1.98.036.6.728 1.393 1.263 2.02 1.965.66.02 1.317.032 1.976.035.605.73 1.398 1.263 2.026 1.968.657.02 1.315.03 1.973.033.607.728 1.4 1.263 2.028 1.968.656.02 1.313.033 1.97.034.61.726 1.402 1.262 2.03 1.967.657.02 1.313.03 1.97.032.61.726 1.403 1.262 2.03 1.97.656.02 1.312.03 1.97.03.61.725 1.403 1.262 2.03 1.97.655.022 1.31.033 1.966.032.614.723 1.408 1.26 2.035 1.97.653.022 1.308.032 1.963.03.616.723 1.41 1.26 2.036 1.972.652.02 1.307.03 1.96.03.62.72 1.414 1.26 2.04 1.972.652.02 1.306.03 1.96.03.62.718 1.414 1.257 2.04 1.97.65.022 1.305.032 1.957.03.623.717 1.417 1.257 2.043 1.972.65.022 1.304.03 1.956.028.624.717 1.418 1.257 2.044 1.972.65.022 1.304.03 1.956.028.624.718 1.42 1.258 2.045 1.974.65.023 1.302.033 1.952.03.648.693 1.374 1.307 2.05 1.973l.004.005c.64.672 1.304 1.32 1.987 1.947l2.008.053c.644.672 1.31 1.32 1.993 1.95l2.005.05c.646.67 1.31 1.322 1.996 1.952l2.002.048c.646.67 1.312 1.322 1.998 1.953.667.016 1.335.03 2.002.047.573.747 1.366 1.27 1.998 1.957.666.024 1.33.04 1.997.047.58.74 1.373 1.266 2.005 1.955.665.022 1.33.038 1.996.044.58.742 1.374 1.267 2.005 1.957.665.024 1.33.04 1.995.044.58.742 1.375 1.267 2.005 1.958.663.023 1.327.038 1.99.044.587.738 1.38 1.265 2.01 1.958.663.023 1.326.037 1.99.042.587.738 1.38 1.265 2.01 1.96.664.02 1.326.035 1.99.04.587.738 1.38 1.265 2.01 1.96.663.02 1.326.035 1.99.04.587.738 1.38 1.265 2.01 1.96.663.022 1.326.036 1.988.04.59.738 1.384 1.266 2.013 1.962.66.022 1.322.036 1.983.04.593.735 1.388 1.264 2.017 1.964.66.022 1.32.035 1.98.036.596.734 1.39 1.264 2.02 1.964.66.023 1.32.035 1.98.036.596.734 1.392 1.264 2.02 1.965.66.022 1.32.035 1.98.035.596.735 1.393 1.264 2.02 1.967.658.02 1.317.033 1.976.035.604.73 1.396 1.264 2.024 1.967.658.02 1.316.03 1.975.034.605.73 1.398 1.264 2.026 1.97.656.02 1.313.032 1.97.033.61.726 1.402 1.262 2.03 1.967.657.02 1.313.032 1.97.033.61.726 1.402 1.262 2.03 1.967.656.02 1.313.032 1.97.033.61.726 1.403 1.262 2.03 1.97.656.02 1.312.03 1.968.03.612.726 1.406 1.262 2.033 1.972.653.02 1.308.032 1.963.03.616.722 1.41 1.26 2.036 1.97.653.022 1.308.03 1.963.03.616.723 1.41 1.26 2.036 1.974.652.02 1.306.03 1.96.026.62.722 1.415 1.26 2.04 1.975.652.022 1.306.03 1.96.028.62.72 1.415 1.258 2.04 1.973.65.023 1.304.033 1.956.03.624.717 1.418 1.256 2.044 1.97.65.023 1.304.033 1.956.03.623.717 1.42 1.256 2.044 1.97.65.024 1.302.035 1.953.032.628.714 1.423 1.254 2.048 1.973l4 2.006c.644.673 1.31 1.322 1.993 1.952.67.016 1.337.032 2.005.05.646.67 1.31 1.32 1.996 1.95l2.002.05c.646.67 1.312 1.32 1.998 1.952.667.016 1.335.03 2.002.047.646.673 1.313 1.323 1.998 1.956l2 .045c.575.747 1.37 1.27 2 1.96.666.022 1.33.037 1.997.042.58.744 1.373 1.27 2.005 1.96.665.023 1.33.037 1.995.04.58.744 1.374 1.27 2.005 1.96.663.025 1.327.04 1.99.044.586.74 1.38 1.266 2.01 1.96.663.023 1.326.037 1.99.04.586.74 1.38 1.265 2.01 1.96.664.023 1.327.036 1.99.04.586.74 1.38 1.266 2.01 1.96.663.024 1.326.038 1.99.04.587.74 1.38 1.267 2.01 1.96.663.025 1.326.04 1.988.04.59.74 1.384 1.266 2.013 1.962.66.024 1.323.038 1.984.04.593.737 1.388 1.265 2.017 1.964.66.024 1.32.037 1.982.038.593.734 1.388 1.263 2.017 1.963.66.024 1.32.037 1.98.038.597.733 1.392 1.263 2.02 1.964.66.023 1.32.036 1.98.037.6.73 1.39 1.265 2.02 1.966.658.02 1.317.033 1.977.035.604.73 1.395 1.265 2.023 1.967.658.02 1.316.032 1.975.036.605.728 1.398 1.262 2.026 1.967.657.02 1.315.03 1.973.033.608.727 1.4 1.263 2.028 1.968.656.02 1.313.03 1.97.034.61.726 1.403 1.26 2.03 1.968.657.02 1.313.03 1.97.032.61.726 1.402 1.262 2.03 1.968.656.02 1.312.03 1.968.033.612.725 1.405 1.26 2.033 1.97.653.02 1.31.03 1.964.03.615.723 1.408 1.262 2.035 1.972.653.02 1.308.03 1.963.03.616.722 1.41 1.26 2.036 1.973.652.02 1.306.03 1.96.027.62.722 1.415 1.26 2.04 1.975.652.02 1.306.03 1.96.027.62.718 1.415 1.257 2.04 1.972.65.022 1.304.032 1.956.028.624.718 1.418 1.257 2.044 1.972.65.022 1.304.032 1.956.028.624.717 1.418 1.257 2.044 1.972.65.023 1.303.033 1.954.03.627.716 1.422 1.256 2.047 1.974l4.005 2.006c.64.672 1.303 1.32 1.988 1.947l2.008.052c.644.672 1.31 1.322 1.994 1.952l2.002.048c.646.67 1.312 1.322 1.998 1.953.667.016 1.335.03 2.002.047.646.672 1.313 1.322 1.998 1.955l2.002.045c.574.746 1.366 1.27 1.998 1.957.666.022 1.33.037 1.997.042.58.744 1.372 1.27 2.005 1.96.664.023 1.33.037 1.995.042.58.743 1.374 1.268 2.005 1.96.664.022 1.328.037 1.992.042.584.74 1.38 1.267 2.008 1.96.663.024 1.326.038 1.99.042.587.738 1.38 1.265 2.01 1.96.664.022 1.327.035 1.99.04.586.738 1.38 1.265 2.01 1.96.664.023 1.326.037 1.99.04.586.738 1.38 1.265 2.01 1.96.663.024 1.325.038 1.988.04.59.738 1.384 1.265 2.013 1.96.662.024 1.324.038 1.986.04.59.738 1.386 1.266 2.014 1.963.66.026 1.322.04 1.983.04.593.735 1.388 1.264 2.017 1.964.66.024 1.32.037 1.98.037.596.734 1.392 1.264 2.02 1.965.66.023 1.32.036 1.98.037.596.733 1.393 1.262 2.02 1.964.66.022 1.318.034 1.978.036.603.73 1.394 1.264 2.022 1.966.658.02 1.316.032 1.975.036.605.728 1.398 1.262 2.026 1.967.657.02 1.315.03 1.973.034.608.727 1.4 1.263 2.028 1.968.656.02 1.313.03 1.97.033.61.726 1.403 1.26 2.03 1.968.657.02 1.313.03 1.97.032.61.726 1.402 1.262 2.03 1.968.656.02 1.312.03 1.97.033.61.725 1.403 1.26 2.03 1.968.655.02 1.31.032 1.966.033.615.722 1.408 1.26 2.035 1.97.653.022 1.308.03 1.963.03.616.722 1.41 1.26 2.036 1.973.652.02 1.307.03 1.96.028.62.72 1.414 1.26 2.04 1.975.652.02 1.306.03 1.96.026.62.72 1.415 1.258 2.04 1.973.65.022 1.304.032 1.957.028.623.72 1.417 1.258 2.043 1.973.652.02 1.305.03 1.958.027.62.72 1.416 1.258 2.04 1.973.653.015 1.307.027 1.96.033z"/><path fill="#A5A195" d="M1392.017 1253.994c12.128 3.877 23.033 10.417 34.134 16.37 7.024 3.765 14 7.672 21.125 11.257 30.356 15.276 61.08 29.853 91.092 45.777 39.73 21.082 80.562 39.97 120.245 61.084 39.415 20.972 79.945 39.713 119.336 60.672 40 21.283 81.157 40.272 121.114 61.58 37.34 19.91 75.784 37.604 113.103 57.495 40.572 21.627 82.328 40.908 122.887 62.503 37.35 19.888 75.747 37.67 113.108 57.483 32.96 17.48 66.46 33.867 99.708 50.76 5.812 2.952 5.98 7 1.005 11.15-2.75 2.292-4.99.864-7.295-.362-8.22-4.373-16.286-9.047-24.6-13.234-32.134-16.19-64.64-31.67-96.448-48.474-42.123-22.25-85.327-42.357-127.385-64.683-37.963-20.152-76.978-38.196-114.884-58.4-39.984-21.313-81.14-40.302-121.11-61.587-37.937-20.202-76.967-38.214-114.88-58.404-41.17-21.924-83.516-41.512-124.688-63.375-38.843-20.625-78.773-39.08-117.538-59.794-29.68-15.857-60.023-30.354-89.936-45.725-3.225-1.657-6.277-3.86-10.093-4.126-2.04-4.285-6.087-6.056-10.002-7.993-.836-3.966-4.974-7.378-2.012-11.983l2.005.05c.542.786 1.412 1.235 2.012 1.96z"/><path fill="#5F5F5F" d="M772.048 1496.062c14.772-6.032 29.703-11.71 44.27-18.203 12.66-5.647 25.315-7.488 38.82-3.863 13.4 3.596 16.918 9.678 12.09 22.69-1.255 3.378-3.59 6.346-5.345 9.548-2.446 4.463-1.444 7.15 3.592 7.42 9.66.517 19.31.23 27.16-6.904 2.458-2.232 5.22-4.13 7.796-6.235 2.146-1.753 4.533-2.662 7.325-2.73 6.482-.152 7.963 2.26 5.045 8.388-.402.843-.838 1.67-1.563 3.11 6.48 1.043 12.725.052 18.728 2.21 12.31 4.422 13.034 5.102 11.443 18.392 9.27-2.58 18.323-2.82 27.23.71 10.568 4.19 12.48 9.703 6.362 19.255-7.335 11.454-18.354 19.17-28.51 27.726-3.022 2.545-6.352 4.642-7.816 8.342 2.344 3.026 4.53 1.32 6.572.66 15.526-5.033 30.265-12.065 45.457-17.95 2.814-1.09 6.414-4.51 8.58.065 1.986 4.19-2.488 5.683-5.155 7.122-17.585 9.494-35.622 18.02-54.484 24.73-3.56 1.265-7.06 1.754-10.736.612-7.79-2.42-15.11-10.463-5.438-19.624 8.213-7.78 16.68-15.293 25.025-22.932 1.72-1.573 3.622-3.013 5.057-4.818 2.12-2.67 7.396-4.59 5.082-8.54-1.91-3.265-6.855-1.69-10.27-1.104-13.34 2.295-25.062 8.727-36.62 15.353-6.345 3.64-12.453 7.698-18.605 11.664-3.183 2.052-6.502 3.312-10.345 2.876-4.633-.525-6.323-3.88-3.545-7.664 1.337-1.822 3.398-3.132 5.198-4.59 11.112-9.008 22.246-17.988 33.363-26.99.774-.626 1.536-1.29 2.196-2.032 1.547-1.737 3.633-3.738 2.673-6.036-1.24-2.966-4.35-2.568-7.025-2.087-13.605 2.452-26.064 7.892-37.886 14.863-7.45 4.395-14.75 9.043-22.114 13.584-2.88 1.776-5.842 3.257-9.387 2.603-3.956-.73-5.85-4.255-3.388-7.34 2.454-3.073 5.745-5.5 8.76-8.103 5.716-4.934 12.248-8.938 18.69-16.117-7.903-.148-14.55.275-19.8-4.527-1.905-1.743-3.572.727-4.895 2.05-5.693 5.7-11.988 10.576-19.245 14.104-8.67 4.215-17.54 5.842-27.013 2.425-16.094-5.807-20.7-16.53-13.426-31.9.424-.897.745-1.843 1.438-3.576-5.136-.253-8.97 2.354-12.986 4.053-5.573 2.36-11.147 4.298-17.37 3.54-7.904-.96-10.06-4.377-6.568-11.382 2.67-5.36 5.875-10.306 10.932-14.01 6.7-4.908 12.852-10.57 19.543-15.492 4.178-3.073 6.145-5.71 1.854-10.228-1.213-1.277-1.253-3.67-1.966-5.988-4.132 2.316-7.424 5.734-11.808 7.406-2.885 1.1-5.703 1.858-8.74 1.232-2.13-.44-3.53-1.796-3.912-3.99-.415-2.383.88-3.95 2.95-4.53 9.65-2.702 16.798-9.15 24.112-15.496 3.663-3.177 5.68-2.19 6.682 2.567 2.092 9.94 2.092 9.94 6.797 14.92 2.926-2.104 5.775-4.38 8.845-6.303 2.93-1.837 6.08-3.092 8.836.47 2.57 3.317 2.096 7.412-1.732 10.46-7.02 5.586-14.302 10.848-21.376 16.37-7.327 5.72-15.022 10.99-21.667 17.555-.662 2.154-.247 3.225 2.233 2.21z"/><path fill="#A7A397" d="M1388.002 1251.984c-.347 4.166 4.88 7.396 2.012 11.984-22.043-11.016-44.363-21.514-66.068-33.158-41.084-22.04-83.488-41.47-124.633-63.336-39.7-21.1-80.516-39.97-120.168-61.103-38.204-20.36-77.55-38.457-115.71-58.838-34.077-18.2-68.95-34.77-103.272-52.458-1.185-.61-2.352-1.268-3.58-1.775-4.27-1.772-5.187-4.33-2.994-8.64 2.236-4.397 4.826-4.648 8.8-2.522 13.195 7.062 26.394 14.13 39.753 20.872 32.107 16.207 64.6 31.68 96.398 48.463 42.406 22.382 85.66 43.057 128.242 65.06 10.033 5.186 19.823 10.874 30.002 15.806 2.974 1.44 5.72 3.48 9.198 3.665.59.738 1.383 1.265 2.013 1.96.662.022 1.324.036 1.986.04.59.738 1.387 1.266 2.015 1.964.66.02 1.322.034 1.983.037.594.735 1.39 1.264 2.018 1.964.66.023 1.32.036 1.98.037.596.734 1.392 1.264 2.02 1.965.66.022 1.32.034 1.98.035.596.734 1.392 1.264 2.02 1.966.66.022 1.318.035 1.978.036.602.728 1.394 1.263 2.022 1.965.658.02 1.316.032 1.975.035.606.728 1.398 1.264 2.027 1.968.657.02 1.315.03 1.973.033.606.728 1.4 1.264 2.027 1.968.656.02 1.313.032 1.97.034.61.726 1.402 1.262 2.03 1.967.657.02 1.313.03 1.97.032.61.726 1.403 1.262 2.03 1.968.656.02 1.312.032 1.97.033.61.725 1.403 1.26 2.03 1.97.655.02 1.31.032 1.966.03.614.724 1.408 1.26 2.035 1.97.654.022 1.31.033 1.964.032.616.722 1.41 1.26 2.036 1.97.653.022 1.308.032 1.962.03.618.72 1.413 1.26 2.038 1.973.653.02 1.308.03 1.96.028.62.72 1.416 1.26 2.04 1.974.652.02 1.305.03 1.958.028.623.717 1.417 1.257 2.043 1.972.65.02 1.304.03 1.956.028.623.717 1.417 1.257 2.043 1.972.65.02 1.304.03 1.956.028.623.718 1.42 1.257 2.043 1.974.65.023 1.3.033 1.95.03.65.693 1.375 1.307 2.05 1.973l.005.005c.64.672 1.304 1.32 1.987 1.947l2.008.053c.644.67 1.307 1.322 1.992 1.95l2.006.05c.645.67 1.31 1.322 1.995 1.952l2.002.048c.646.67 1.312 1.322 1.998 1.953.667.016 1.335.03 2.002.047.573.747 1.366 1.27 1.998 1.956.666.025 1.33.04 1.997.048.58.742 1.373 1.266 2.004 1.956.665.024 1.33.038 1.995.044.58.74 1.373 1.267 2.004 1.957.664.024 1.328.04 1.992.045.584.74 1.38 1.266 2.008 1.96.663.022 1.326.036 1.99.04.587.74 1.38 1.266 2.01 1.96.664.022 1.327.036 1.99.04.587.74 1.38 1.266 2.01 1.96.663.022 1.326.036 1.99.04.587.74 1.38 1.266 2.01 1.96.663.022 1.326.036 1.99.04.587.74 1.38 1.266 2.01 1.96.663.023 1.326.036 1.988.04.59.74 1.385 1.267 2.013 1.964.66.022 1.322.035 1.983.038.593.735 1.39 1.264 2.017 1.963.66.024 1.32.036 1.982.038.595.735 1.39 1.264 2.02 1.964.658.022 1.32.035 1.98.036.595.734 1.39 1.264 2.02 1.965.658.022 1.318.035 1.978.036.597.732 1.394 1.262 2.02 1.966.66.02 1.318.032 1.978.034.604.73 1.395 1.264 2.023 1.967.658.02 1.316.03 1.975.034.606.73 1.4 1.265 2.027 1.97.656.02 1.313.03 1.97.033.61.726 1.402 1.262 2.03 1.967.657.02 1.313.032 1.97.033.61.726 1.402 1.262 2.03 1.967.656.02 1.313.032 1.97.033.61.726 1.403 1.262 2.03 1.97.656.02 1.312.03 1.968.03.612.726 1.406 1.262 2.033 1.972.654.02 1.31.032 1.964.03.616.723 1.41 1.26 2.036 1.972.653.02 1.308.03 1.962.03.618.72 1.413 1.258 2.038 1.972.653.02 1.308.03 1.96.027.62.72 1.415 1.26 2.04 1.972.653.02 1.307.03 1.96.028.62.72 1.416 1.258 2.04 1.973.652.022 1.306.032 1.958.03.623.716 1.417 1.256 2.043 1.97.65.022 1.304.032 1.956.03.623.717 1.42 1.256 2.043 1.973.65.023 1.3.033 1.95.03.65.693 1.375 1.307 2.05 1.973l.005.005c.64.673 1.304 1.32 1.987 1.948l2.008.053c.644.672 1.307 1.323 1.992 1.95.67.018 1.338.034 2.006.05.646.672 1.31 1.323 1.995 1.953l2.002.048c.646.672 1.312 1.323 1.998 1.954.668.016 1.336.03 2.004.047.645.673 1.31 1.323 1.996 1.953.667.017 1.335.032 2.002.048 3.336 2.662 6.67 5.323 10.007 7.984z"/><path fill="#5F5F5F" d="M716.705 1341c-4.582-3.094-9.84-3.054-15.14-3.2-6.23-.17-7.733-1.606-7.755-6.486-.022-5.23 2.137-7.407 8.316-7.278 10.91.23 20.627 4.574 30.145 9.438 7.784 3.98 14.248 9.767 20.846 15.325 10.38 8.747 22.596 12.295 35.794 13.337.663.052 1.335.014 1.994.09 3.464.398 8.285-.774 8.793 4.247.508 5.01-4.25 6.62-7.978 7.396-5.194 1.084-10.546.33-15.813-.83-16.983-3.735-31.692-11.66-44.52-24.19-4.653 4.755-7.48 10.354-10.968 15.444-3.542 5.17-6.954 10.43-10.75 16.144 7.94 5.316 16.832 7.188 24.654 11.287 3.822 2.003 7.93 3.468 11.714 5.533 4.49 2.45 5.394 6.164 3.068 10.797-2.124 4.23-4.73 4.997-9.833 2.005-9.227-5.41-19.113-9.365-28.912-13.48-8.82-3.702-8.89-3.395-14.388 4.345-14.18 19.964-30.97 37.338-51.207 51.246-2.645 1.82-5.144 4.525-8.96 2.79-3.216-1.462-5.43-3.577-5.917-7.367-.476-3.706 1.81-5.342 4.34-7.107 10.114-7.055 19.328-15.158 28.316-23.606 21.61-20.312 37.245-44.983 52.174-70.214 1.004-1.69 2.227-3.352 1.987-5.667zM1057.913 843.713l3.646.474c1.345.816 3.026.688 4.358 1.544l3.803.39c1.82 1.568 4.457.24 6.282 1.782l.12.082c.574.713 1.202 1.376 1.882 1.99l.02.025c1.07 1.31 1.13 2.638.05 3.978-5.126 7.32-12.195 7.105-19.683 4.98-11.868-3.366-23.353-7.773-34.582-12.88-9.615-4.37-9.747-4.372-15.136 4.98-15.312 26.57-31.814 52.35-50.6 76.62-3.667 4.736-7.552 9.303-11.24 14.02-2.22 2.837-4.93 4.36-8.593 4.116-3.804-.253-7.46-1.067-9.344-4.705-2.062-3.985 1.517-6.05 3.627-8.408 24.978-27.93 46.23-58.463 63.933-91.47 4.49-8.37 4.438-8.496-2.866-14.773-8.363-7.188-17.74-11.48-29.175-10.7-7.385.505-11.53-1.97-11.996-6.02-.485-4.224 4.338-7.01 12.018-7.818 11.062-1.168 20.94 2.852 31.005 6.256 1.022.346 1.787 1.062 2.555 1.773l.06.037c.988 1.272 2.938.83 3.883 2.18l-.085-.09c.794.523 1.403 1.265 2.156 1.836l.084.055c.938 1.312 2.944.832 3.806 2.27l-.097-.12c.88.5 1.554 1.215 2.125 2.036l-.076-.077c.812.544 1.458 1.265 2.125 1.966l-.016-.016c.65.647 1.338 1.25 2.066 1.808l.146.102c.867 1.383 2.89.873 3.74 2.28l-.094-.11c.85.497 1.485 1.235 2.158 1.932l-.01-.012c.59.612 1.24 1.155 1.95 1.63.474.342 1.004.51 1.59.5.978.39 1.732 1.096 2.493 1.79l.06.038c.994 1.272 2.898.85 3.905 2.098l-.034-.022c1.116 1.13 2.993.768 4.025 2.058l-.053-.036c1.146 1.088 2.994.755 4.062 2.003l-.033-.02c1.13 1.11 2.924.802 4.063 1.894l.062.032c.99 1.24 2.718.852 3.865 1.745.593.292 1.22.41 1.878.356 1.177 1.062 2.928.732 4.14 1.71.588.273 1.202.372 1.846.297 1.185 1.022 2.877.755 4.13 1.613zM1087.904 931.69c.607.29 1.246.42 1.918.387 1.16 1.11 3.097.707 4.113 2.103l-.095-.098c.827.544 1.496 1.255 2.114 2.02l-.055-.06c.837.664 1.53 1.446 1.955 2.44-.074.554.02 1.077.286 1.57 1.244 2.62 1.19 5.25.04 7.884-1.594 5.468-4.146 10.413-7.356 15.15-3.062 4.515-2.005 6.577 3.49 7.05 5.615.483 11.303.507 16.84-.894 1.596-.403 3.08-1.214 4.802-.84 1.434.314 2.492 1.28 2.634 2.597.08.746-.745 2.093-1.456 2.347-11.593 4.133-22.844 12.26-35.735 4.21-3.666-2.287-5.48-.24-7.597 1.862-6.203 6.157-13.246 11.176-21.336 14.403-11.142 4.444-22.124 4.016-32.262-2.96-8.734-6.012-11.11-14.698-6.564-24.385 7.77-16.553 33.078-39.366 57.197-36.892 4.287.44 8.627.353 12.942.51 1.187 1.02 2.865.767 4.124 1.595z"/><path fill="#616161" d="M1102.013 1027.48c-.216-5.896 6.24-12.197 13.076-12.763 5.805-.48 12.535 6.416 12.712 13.026.148 5.55-7.158 11.93-13.787 12.035-6.195.1-11.757-5.6-12.002-12.3z"/><path fill="#616160" d="M1031.02 1579.96c-6.505.252-12.257-4.883-12.81-11.434-.56-6.617 5.877-12.663 13.65-12.822 6.538-.135 12.158 5.9 12.126 13.02-.026 5.79-6.005 10.97-12.967 11.237zM1008.23 1625.97c.02 6.462-5.827 11.584-13.486 11.812-5.724.17-11.698-6.257-11.76-12.648-.057-5.832 8.024-12.936 14.384-12.645 5.785.264 10.836 6.533 10.86 13.48z"/><path fill="#606060" d="M1155.912 957.78c.455.305.955.438 1.5.4 1.082.36 1.894 1.052 2.48 2.02l-.134-.1c1.45.935 1.056 2.876 2.18 3.99l-.04-.066c1.875 1.718.383 4.49 1.975 6.298-.2.44-.204.882-.01 1.325-.947 1.31-.704 3.12-1.838 4.35-2.195 1.432-4.27 3.108-6.606 4.25-6.627 3.237-11.786 1.98-15.566-3.52-3.575-5.2-2.792-11.022 2.24-15.833 1.18-1.128 2.617-1.986 3.936-2.97 3.274-1.448 6.572-1.224 9.882-.143z"/><path fill="#B9B4A6" d="M1155.912 957.78c-3.295.05-6.59.098-9.883.146 3.253-2.845 6.55-2.755 9.882-.145z"/><path fill="#9D988F" d="M772.048 1496.062c-1.32 1.61-3.273 2.922-4.698 1.086-.98-1.262 1.03-2.587 2.467-3.298l2.23 2.212z"/><path fill="#B9B4A6" d="M1098.18 947.937l-.038-7.886c2.648 2.617 2.635 5.246.04 7.887zM1076.002 847.9c-2.262.003-4.556.12-6.28-1.78 2.284-.08 4.674-.53 6.28 1.78zM1163.873 970.322c-1.77-1.75-1.854-4.03-1.974-6.297 2.57 1.5 2.037 3.972 1.973 6.297zM1162.025 975.997c.088-1.67.53-3.19 1.838-4.347.124 1.76-.077 3.382-1.838 4.347zM1007.898 816.237c-1.66-.103-3.005-.73-3.807-2.27 1.67.09 3.148.493 3.808 2.27zM1161.938 964.09c-1.51-.902-2.078-2.316-2.177-3.99 1.836.724 2.193 2.254 2.178 3.99zM1001.94 812.165c-1.636-.12-3.026-.674-3.884-2.18 1.67.06 3.153.45 3.883 2.18zM1029.966 832.08c-1.64-.07-3.035-.594-3.905-2.096 1.65.056 3.125.43 3.906 2.097zM1033.956 834.116c-1.663-.058-3.12-.52-4.023-2.06 1.702-.02 3.215.33 4.023 2.06zM1037.965 836.083c-1.666-.035-3.137-.465-4.06-2.003 1.704-.047 3.22.292 4.06 2.003zM1041.993 837.956c-1.664.033-3.113-.395-4.062-1.896 1.668-.037 3.163.293 4.063 1.896zM1045.92 839.732c-1.616.145-2.94-.357-3.865-1.745 1.537.033 2.967.3 3.865 1.745zM1051.938 841.798c-1.675.143-3.1-.315-4.14-1.71 1.645-.072 3.164.16 4.14 1.71zM1057.913 843.713c-1.663.194-3.075-.256-4.13-1.618 1.62-.082 3.13.12 4.13 1.618zM1065.918 845.73c-1.712.218-3.204-.18-4.356-1.545 1.69-.165 3.275-.02 4.356 1.545zM1078.074 853.98l-.05-3.98c1.993 1.3 2.054 2.626.05 3.98zM1087.904 931.69c-1.647.18-3.055-.267-4.122-1.594 1.612-.084 3.117.107 4.122 1.595zM1093.936 934.18c-1.67-.118-3.12-.662-4.112-2.103 1.75-.043 3.34.227 4.112 2.103zM1017.912 824.216c-1.642-.113-2.986-.715-3.742-2.28 1.635.126 3.09.543 3.742 2.28zM1675.996 2029.972l-2.02-1.964 2.02 1.964zM1679.996 2031.973l-2.02-1.965 2.02 1.965zM1683.996 2033.975c-.673-.655-1.347-1.31-2.02-1.967l2.02 1.967zM1687.996 2035.977c-.674-.655-1.35-1.31-2.023-1.967.673.656 1.348 1.31 2.023 1.967zM1691.997 2037.98l-2.026-1.97 2.027 1.97zM1695.997 2039.98l-2.03-1.968 2.03 1.967zM1699.997 2041.98l-2.03-1.968 2.03 1.967zM1703.997 2043.982l-2.03-1.97 2.03 1.97zM1707.998 2045.984l-2.032-1.97 2.032 1.97zM1711.998 2047.985l-2.036-1.97 2.036 1.97zM1715.998 2049.988c-.68-.657-1.357-1.315-2.036-1.973l2.036 1.973zM1753.993 2069.955l-1.998-1.955c.666.65 1.332 1.303 1.998 1.955zM1749.993 2067.953l-1.998-1.953 1.998 1.953zM1719.998 2051.99l-2.04-1.975c.68.66 1.36 1.317 2.04 1.975zM1745.993 2065.952l-1.996-1.952 1.996 1.952zM1724 2053.99l-2.042-1.973 2.04 1.973zM1728 2055.99l-2.044-1.972c.68.658 1.36 1.315 2.043 1.972zM1732 2057.99l-2.044-1.973c.68.66 1.362 1.316 2.043 1.973zM1736 2059.994l-2.047-1.973c.682.66 1.364 1.316 2.047 1.974zM1741.992 2063.95L1740 2062l1.992 1.95zM1573.997 1977.98c-.676-.656-1.35-1.313-2.026-1.968l2.027 1.967zM1577.997 1979.98l-2.03-1.968 2.03 1.967zM1581.997 1981.98c-.676-.655-1.353-1.31-2.03-1.968l2.03 1.97zM1585.997 1983.982c-.677-.656-1.354-1.312-2.03-1.97l2.03 1.97zM1589.998 1985.985l-2.035-1.97 2.035 1.97zM1593.998 1987.986l-2.036-1.97c.68.656 1.357 1.313 2.036 1.97zM1597.998 1989.988l-2.037-1.973c.68.66 1.358 1.316 2.038 1.973zM1601.998 1991.99c-.68-.658-1.358-1.316-2.04-1.974.68.66 1.36 1.316 2.04 1.973zM1606 1993.99c-.682-.657-1.362-1.314-2.043-1.973.68.66 1.36 1.316 2.042 1.973zM1610 1995.99l-2.044-1.972c.68.658 1.36 1.315 2.043 1.972zM1614 1997.992c-.682-.657-1.362-1.315-2.044-1.974.68.66 1.362 1.317 2.044 1.974zM1618 1999.995l-2.05-1.974 2.05 1.975zM1619.992 2001.947c-.663-.65-1.325-1.3-1.987-1.947l1.987 1.947zM1623.992 2003.95L1622 2002l1.992 1.95zM1627.993 2005.952l-1.996-1.952 1.996 1.952zM1631.993 2007.953l-1.998-1.953 1.998 1.953zM1635.993 2009.957l-1.998-1.957 1.998 1.957zM1639.994 2011.96l-2.004-1.956c.668.65 1.336 1.303 2.004 1.955zM1643.994 2013.96c-.668-.65-1.336-1.304-2.004-1.956l2.004 1.957zM1647.994 2015.962l-2.005-1.958 2.004 1.958zM1651.994 2017.964l-2.01-1.958 2.01 1.958zM1655.995 2019.965l-2.01-1.96 2.01 1.96zM1659.995 2021.965l-2.01-1.96 2.01 1.96zM1663.995 2023.966c-.67-.653-1.34-1.307-2.012-1.96l2.012 1.96zM1667.995 2025.968l-2.013-1.962 2.013 1.962zM1671.996 2027.972l-2.018-1.964 2.018 1.964zM1867.993 2127.953l-1.998-1.953 1.998 1.953zM1871.993 2129.955l-1.998-1.955c.666.65 1.332 1.303 1.998 1.955zM1875.993 2131.957l-1.998-1.957 1.998 1.957zM1879.994 2133.96l-2.004-1.96 2.004 1.96zM1883.994 2135.96l-2.005-1.958 2.004 1.96zM1887.994 2137.965c-.67-.654-1.338-1.308-2.008-1.96.67.652 1.34 1.306 2.008 1.96zM1891.994 2139.965l-2.01-1.96 2.01 1.96zM1895.995 2141.965l-2.01-1.96 2.01 1.96zM1899.995 2143.965l-2.01-1.96 2.01 1.96zM1903.995 2145.967l-2.013-1.96 2.013 1.96zM1907.995 2147.97c-.67-.654-1.342-1.31-2.014-1.963l2.015 1.962zM1911.996 2149.972c-.673-.654-1.345-1.31-2.018-1.963l2.018 1.962zM1915.996 2151.973l-2.02-1.964 2.02 1.963zM1919.996 2153.974l-2.02-1.964 2.02 1.964zM1923.996 2155.976l-2.022-1.966 2.022 1.966zM1927.996 2157.98l-2.025-1.968 2.026 1.967zM1931.997 2159.98l-2.026-1.97c.676.658 1.35 1.314 2.027 1.97zM1935.997 2161.98l-2.03-1.968 2.03 1.968zM1939.997 2163.98l-2.03-1.968 2.03 1.968zM1943.997 2165.98c-.677-.655-1.354-1.31-2.03-1.967l2.03 1.968zM1947.998 2167.985l-2.035-1.97 2.035 1.97zM1951.998 2169.987c-.68-.657-1.357-1.315-2.036-1.972.68.657 1.357 1.315 2.036 1.972zM1955.998 2171.99l-2.037-1.975 2.038 1.975zM1959.998 2173.99l-2.04-1.975c.68.66 1.36 1.317 2.04 1.975zM1964 2175.99l-2.044-1.973c.68.66 1.36 1.316 2.043 1.973zM1967.998 2177.99l-2.04-1.973c.68.66 1.36 1.316 2.04 1.973zM1757.994 2071.958l-2-1.958 2 1.958zM1761.994 2073.96l-2.004-1.96 2.004 1.96zM1765.994 2075.962l-2.005-1.96 2.004 1.96zM1769.994 2077.965l-2.01-1.96 2.01 1.96zM1773.994 2079.965l-2.01-1.96 2.01 1.96zM1777.995 2081.965l-2.01-1.96 2.01 1.96zM1781.995 2083.966c-.67-.653-1.34-1.307-2.012-1.96l2.012 1.96zM1785.995 2085.967l-2.013-1.96 2.013 1.96zM1789.996 2087.97l-2.017-1.962c.67.654 1.343 1.308 2.016 1.963zM1793.996 2089.972c-.673-.654-1.345-1.31-2.018-1.963l2.018 1.962zM1797.996 2091.973l-2.02-1.963 2.02 1.963zM1801.996 2093.975l-2.02-1.965 2.02 1.965zM1805.996 2095.976c-.674-.655-1.35-1.31-2.023-1.966.674.656 1.35 1.31 2.023 1.966zM1809.997 2097.98c-.676-.657-1.35-1.313-2.026-1.968l2.027 1.967zM1813.997 2099.98l-2.027-1.97c.676.658 1.35 1.314 2.027 1.97zM1817.997 2101.98l-2.03-1.968 2.03 1.968zM1821.997 2103.98l-2.03-1.968 2.03 1.968zM1825.998 2105.982l-2.033-1.97 2.033 1.97zM1829.998 2107.985l-2.035-1.97 2.035 1.97zM1833.998 2109.988l-2.036-1.973 2.036 1.973zM1837.998 2111.99l-2.04-1.975c.68.66 1.36 1.317 2.04 1.975zM1842 2113.99l-2.042-1.973 2.04 1.973zM1846 2115.99l-2.044-1.972c.68.658 1.36 1.315 2.043 1.972zM1850 2117.99l-2.044-1.973c.68.66 1.36 1.316 2.043 1.973zM1854 2119.994l-2.046-1.975 2.046 1.974zM1859.992 2123.947l-1.988-1.947 1.988 1.947zM1863.993 2125.952L1862 2124l1.993 1.952zM1241.992 1175.947c-.663-.65-1.325-1.3-1.987-1.947l1.987 1.947zM1245.992 1177.95L1244 1176l1.992 1.95zM1249.993 1179.952l-1.995-1.952 1.995 1.952zM1253.993 1181.953l-1.998-1.953 1.998 1.953zM1257.993 1183.956c-.666-.65-1.332-1.304-1.998-1.956l1.998 1.956zM1261.994 1185.96l-2.004-1.956c.668.65 1.336 1.304 2.004 1.956zM1265.994 1187.96c-.668-.65-1.336-1.304-2.005-1.956l2.004 1.957zM1269.994 1189.964l-2.007-1.96 2.007 1.96zM1273.995 1191.965l-2.01-1.96 2.01 1.96zM1277.995 1193.965l-2.01-1.96 2.01 1.96zM1281.995 1195.965l-2.01-1.96 2.01 1.96zM1285.995 1197.966c-.67-.653-1.34-1.307-2.012-1.96l2.012 1.96zM1289.995 1199.97l-2.013-1.964 2.013 1.963zM1293.995 1201.97l-2.016-1.962 2.015 1.963zM1297.996 1203.972l-2.018-1.964 2.018 1.964zM1301.996 1205.973l-2.02-1.965 2.02 1.965zM1305.996 1207.976l-2.02-1.967 2.02 1.966zM1309.996 1209.977c-.674-.655-1.35-1.31-2.023-1.967.673.656 1.348 1.31 2.023 1.967zM1313.997 1211.98l-2.025-1.97 2.025 1.97zM1317.997 1213.98l-2.03-1.97 2.03 1.97zM1321.997 1215.98l-2.03-1.97 2.03 1.97zM1325.997 1217.982l-2.03-1.97 2.03 1.97zM1329.998 1219.984l-2.032-1.97 2.032 1.97zM1333.998 1221.986c-.68-.657-1.357-1.314-2.035-1.972l2.035 1.972zM1337.998 1223.988l-2.037-1.973c.68.66 1.358 1.316 2.038 1.973zM1097.856 938.482c-.65-.813-1.304-1.627-1.956-2.44 1.11.446 1.762 1.26 1.956 2.44zM1095.955 936.1l-2.113-2.018 2.113 2.02zM1159.894 960.2c-.824-.674-1.65-1.347-2.478-2.02 1.23.174 2.063.84 2.478 2.02zM1078.004 849.973c-.628-.663-1.257-1.326-1.884-1.99.63.663 1.257 1.327 1.884 1.99zM1011.976 820.04l-2.125-1.965c.71.655 1.418 1.31 2.126 1.966zM1167.995 1137.967l-2.013-1.96 2.013 1.96zM1171.995 1139.97c-.67-.654-1.342-1.31-2.014-1.963l2.015 1.963zM1175.996 1141.972l-2.018-1.964 2.018 1.964zM1179.996 1143.973l-2.02-1.965 2.02 1.965zM1183.996 1145.974l-2.02-1.966 2.02 1.966zM1187.996 1147.976l-2.02-1.966 2.02 1.966zM1191.997 1149.98l-2.025-1.97 2.025 1.97zM1195.997 1151.98c-.676-.657-1.35-1.313-2.026-1.968l2.027 1.967zM1199.997 1153.98l-2.03-1.97 2.03 1.97zM1203.997 1155.98l-2.03-1.97c.678.66 1.353 1.314 2.03 1.97zM1207.997 1157.982c-.677-.656-1.354-1.312-2.03-1.97l2.03 1.97zM1211.998 1159.984c-.68-.656-1.356-1.313-2.035-1.97.678.658 1.356 1.314 2.035 1.97zM1215.998 1161.986c-.68-.657-1.357-1.314-2.035-1.972l2.035 1.972zM1219.998 1163.988l-2.037-1.973c.68.66 1.358 1.316 2.038 1.973zM1223.998 1165.99l-2.038-1.974 2.038 1.974zM1228 1167.99l-2.044-1.972c.68.658 1.362 1.315 2.043 1.972zM1232 1169.99l-2.044-1.972c.68.658 1.362 1.315 2.043 1.972zM1236 1171.992l-2.044-1.974c.68.66 1.362 1.316 2.043 1.974zM1240 1173.995l-2.048-1.974 2.048 1.975zM1471.998 1925.985l-2.035-1.97 2.035 1.97zM1475.998 1927.987c-.68-.657-1.357-1.314-2.036-1.972l2.036 1.972zM1479.998 1929.988l-2.04-1.972 2.04 1.972zM1483.998 1931.99l-2.04-1.974c.68.66 1.36 1.316 2.04 1.974zM1488 1933.99l-2.044-1.972c.68.658 1.36 1.315 2.043 1.972zM1492 1935.99l-2.044-1.972c.68.658 1.36 1.315 2.043 1.972zM1496 1937.995l-2.046-1.975c.682.66 1.363 1.317 2.046 1.975zM1501.992 1941.947l-1.988-1.947 1.988 1.947zM1505.993 1943.952L1504 1942l1.993 1.952zM1509.993 1945.952l-1.996-1.952 1.996 1.952zM1513.993 1947.954l-1.998-1.954 1.998 1.954zM1517.993 1949.956c-.666-.65-1.332-1.304-1.998-1.956l1.998 1.956zM1521.994 1951.96l-2.004-1.956c.668.65 1.336 1.304 2.004 1.956zM1525.994 1953.96c-.668-.65-1.336-1.304-2.005-1.956l2.004 1.957zM1529.994 1955.964l-2.008-1.96 2.008 1.96zM1533.995 1957.965l-2.01-1.96 2.01 1.96zM1537.995 1959.965l-2.01-1.96 2.01 1.96zM1541.995 1961.965l-2.01-1.96 2.01 1.96zM1545.995 1963.967l-2.013-1.96 2.013 1.96zM1549.995 1965.97l-2.014-1.963 2.015 1.963zM1553.995 1967.97l-2.017-1.962 2.017 1.963zM1557.996 1969.973l-2.02-1.965 2.02 1.965zM1561.996 1971.974l-2.02-1.966 2.02 1.966zM1565.996 1973.976l-2.022-1.966 2.022 1.966zM1569.997 1975.98l-2.026-1.97 2.027 1.97zM1341.998 1225.988l-2.038-1.972 2.038 1.972zM1346 1227.99c-.682-.657-1.36-1.315-2.04-1.973.68.658 1.358 1.316 2.04 1.973zM1350 1229.99l-2.044-1.972c.68.658 1.362 1.315 2.043 1.972zM1354 1231.992l-2.044-1.974c.68.66 1.362 1.316 2.043 1.974zM1358 1233.995l-2.048-1.974 2.048 1.975zM1359.992 1235.947c-.663-.65-1.325-1.3-1.987-1.947l1.987 1.947zM1363.992 1237.95L1362 1236l1.992 1.95zM1367.993 1239.952l-1.995-1.952 1.995 1.952zM1371.993 1241.953l-1.998-1.953 1.998 1.953zM1375.993 1243.952l-1.996-1.952 1.996 1.952zM1009.927 818.152c-1.082-.288-1.836-.92-2.124-2.037.707.68 1.416 1.36 2.124 2.037zM1004.01 813.912l-2.156-1.836 2.156 1.836zM997.997 809.95c-.85-.59-1.698-1.183-2.55-1.773 1.167.13 2.017.723 2.55 1.773zM1026 829.946c-.83-.597-1.66-1.194-2.492-1.79 1.145.155 1.973.756 2.49 1.79zM1021.916 827.654l-1.95-1.63 1.95 1.63zM1014.025 821.833c-1.062-.176-1.724-.81-2.065-1.81.688.605 1.377 1.207 2.065 1.81zM1019.976 826.036c-1.074-.248-1.834-.847-2.158-1.933.72.644 1.438 1.29 2.158 1.933zM1439.996 1909.973c-.674-.654-1.347-1.31-2.02-1.965l2.02 1.965zM1443.996 1911.975c-.673-.655-1.347-1.31-2.02-1.967l2.02 1.967zM1447.996 1913.976c-.674-.655-1.35-1.31-2.023-1.966.674.655 1.35 1.31 2.023 1.966zM1451.997 1915.98l-2.026-1.97 2.027 1.97zM1455.997 1917.98c-.676-.656-1.35-1.313-2.026-1.968l2.027 1.967zM1459.997 1919.98l-2.03-1.968 2.03 1.967zM1463.997 1921.982l-2.03-1.97 2.03 1.97zM1467.997 1923.982c-.677-.656-1.354-1.312-2.03-1.97l2.03 1.97z"/><path fill="#A7A397" d="M1392.017 1253.994l-2.01-1.96 2.01 1.96z"/><path fill="#BAB6A8" d="M852.048 1486.243c-6.6 6.056-9.605 12.337-8.343 20.14.354 2.187-1.1 3.704-2.72 5-7.063 5.643-14.612 10.495-23.19 13.463-6.283 2.174-12.483 1.835-18.078-2.156-3.422-2.44-4.4-5.53-2.37-9.546 2.328-4.603 6-8.006 9.776-11.215 12.44-10.576 26.183-17.756 44.925-15.687zM1080.366 943.078c-5.724 6.178-9.65 12.39-8.235 20.84.284 1.693-.577 3.343-1.985 4.335-8.62 6.07-16.68 13.28-27.92 14.192-1.633.133-3.302.446-4.898.244-4.313-.545-8.858-1.196-10.854-5.76-2.195-5.02.495-8.82 3.83-12.405 13.473-14.482 29.603-22.794 50.063-21.447z"/></g></svg>