<?xml version="1.0" encoding="utf-8"?>
<!-- Generator: Adobe Illustrator 16.0.0, SVG Export Plug-In . SVG Version: 6.00 Build 0)  -->
<!DOCTYPE svg PUBLIC "-//W3C//DTD SVG 1.1//EN" "http://www.w3.org/Graphics/SVG/1.1/DTD/svg11.dtd">
<svg version="1.1" id="Layer_1" xmlns="http://www.w3.org/2000/svg" xmlns:xlink="http://www.w3.org/1999/xlink" x="0px" y="0px"
	 width="1280px" height="800px" viewBox="0 0 1280 800" enable-background="new 0 0 1280 800" xml:space="preserve">
<g>
	<path fill="#46BB6D" d="M896.113,411.847c7.463,4.321,14.928,8.643,22.389,12.969c2.803,1.625,5.762,3.062,7.416,6.088
		c-4.225,0.479-6.377,3.404-8.422,6.738c-22.908,37.336-46.33,74.352-69.959,111.233c-3.683,5.746-7.443,11.443-11.144,17.181
		c-1.452,2.254-2.657,4.571-3.483,7.149c-1.42,4.443-2.222,4.765-6.482,2.799c-9.389-4.327-18.279-9.612-27.467-14.327
		c-18.373-9.431-36.449-19.418-54.797-28.9c-18.932-9.785-37.541-20.199-56.119-30.652c-33.98-19.117-67.285-39.367-100.119-60.375
		c-19.779-12.653-39.091-26.028-58.525-39.209c-35.153-23.84-69.411-48.954-104.13-73.413c-9.258-6.522-18.543-13.015-27.672-19.721
		c-2.176-1.599-4.437-2.919-6.975-3.797c-2.721-2.898,0.021-4.619,1.645-6.135c6.085-5.681,12.568-10.919,18.821-16.418
		c2.129-1.872,4.164-3.837,6.265-5.733c2.284-2.061,1.62-3.354-0.951-4.185c-3.967-1.28-7.823-2.862-11.784-4.153
		c-1.269-0.413-2.491-1.066-3.771-1.307c-2.419-0.453-3.607-4.492-6.084-2.972c-1.923,1.182-2.115,4.381-3.058,6.683
		c-9.531,23.281-18.829,46.658-28.356,69.941c-7.383,18.041-14.397,36.23-21.799,54.263c-2.375,5.787-2.084,6.361,3.72,9.006
		c33.502,15.266,66.711,31.162,100.143,46.578c45.081,20.79,90.018,41.887,135.089,62.694
		c26.618,12.289,53.118,24.838,79.698,37.215c35.94,16.734,71.862,33.515,107.891,50.062c2.574,1.184,5.094,2.479,7.646,3.709
		c6.409,3.086,6.866,2.897,7.768-3.906c0.721-5.449,1.57-10.881,2.293-16.33c0.301-2.276,0.361-4.715,2.629-6.192
		c5.564,0.666,6.43,1.614,7.019,7.67c-1.007,7.373-0.449,15.061-4.33,21.866c-0.775,4.535-1.474,9.089-2.381,13.599
		c-0.248,1.231,0.221,3.969-2.716,2.309c-18.604-9.317-37.619-17.76-56.422-26.655c-32.805-15.525-65.707-30.841-98.562-46.259
		c-34.365-16.127-68.795-32.116-103.138-48.293c-30.125-14.19-60.264-28.354-90.423-42.473
		c-37.999-17.787-76.001-35.564-113.957-53.443c-5.641-2.655-5.565-2.727-2.142-7.703c4.452-6.467,7.273-13.824,10.507-20.928
		c18.412-40.46,36.327-81.144,54.912-121.526c1.65-3.585,2.53-7.026,1.098-10.816c2.975-1.477,5.186,0.943,7.688,1.637
		c4.536,1.257,8.941,2.981,13.402,4.511c7.281,0.479,13.491,4.358,20.277,6.41c1.271,0.384,2.482,0.963,3.722,1.451
		c2.7,1.062,4.867,0.356,6.665-1.825c1.978-2.398,0.08-4.048-1.204-5.674c-12.481-15.811-24.84-31.72-37.36-47.499
		c-3.417-4.307-6.646-8.753-10.063-13.056c-1.36-1.713-1.762-3.516,0.613-4.442c9.416-3.677,16.149-11.076,23.76-17.17
		c21.049-16.853,42.058-33.759,62.995-50.751c13.7-11.119,27.581-22.016,41.191-33.245c1.685-1.391,3.341-2.687,3.208-5.274
		c-0.063-1.229,0.829-1.71,2.004-0.905c23.741,25.429,47.485,50.854,71.221,76.287c5.726,6.134,5.732,6.184,12.855,2.398
		c30.807-16.37,61.616-32.734,92.37-49.204c2.491-1.335,3.922-1.335,5.766,1.034c6.031,7.75,12.438,15.209,18.439,22.98
		c3.049,3.947,6.666,6.64,11.258,8.665c27.537,12.147,54.963,24.548,82.426,36.861c21.701,9.73,43.438,19.384,65.051,29.308
		c2.07,0.95,5.984,0.494,5.689,4.651c-12.758,14.051-24.664,28.823-36.894,43.324c-1.907,2.263-3.438,4.947-6.287,6.296
		c-3.524-0.288-6.827-1.258-9.805-3.217c-1.262-2.341,0.478-3.728,1.721-5.225c10.435-12.549,20.814-25.143,31.455-37.519
		c3.343-3.888,3.318-4.049-1.409-6.053c-37.724-15.989-75.554-31.729-113.41-47.399c-19.39-8.026-38.685-16.286-58.01-24.464
		c-4.273-1.809-6.369-0.894-8.896,2.82c-13.49,19.834-27.125,39.57-40.818,59.264c-2.58,3.709-2.383,6.187,0.685,9.472
		c12.039,12.899,24.092,25.784,36.065,38.744c15.931,17.244,32.277,34.105,47.869,51.656c7.054,7.938,15.474,14.139,23.869,20.41
		c4.135,3.088,8.312,6.136,12.363,9.32c2.826,2.222,4.561,2.472,6.893-0.606c2.502-3.306,5.158-6.537,8.019-9.57
		c1.102-1.17,1.901-2.867,3.992-2.425c1.991,1.376,1.739,3.294,1.186,5.222c-0.627,2.186-1.252,4.354-0.66,6.653
		c0.182,0.981,0.217,1.962-0.016,2.939c-0.248,0.939-0.681,1.798-1.188,2.619c-4.594,5.384-4.539,5.656,2.013,9.813
		c6.024,2.686,11.096,6.919,16.715,10.266c6.129,4.298,12.684,7.921,18.947,12.005c7.706,4.832,14.991,10.308,22.838,14.927
		c2.026,1.521,4.313,2.629,6.438,4c4.4,2.885,8.82,5.734,13.609,7.953c3.854,1.959,7.645,4.025,11.146,6.574
		c0.74,0.473,1.461,0.979,2.209,1.436c1.494,0.887,3.228,1.258,4.705,2.178c1.424,1.015,2.875,1.984,4.496,2.671
		C892.152,408.212,894.689,409.296,896.113,411.847z"/>
	<path fill="#69A87E" d="M387.892,245.778c2.581,1.814,3.439,3.59,1.86,7.002c-8.859,19.143-17.365,38.449-26.007,57.691
		c-6.125,13.639-12.249,27.278-18.423,40.895c-6.825,15.051-13.703,30.077-20.573,45.106c-0.413,0.904-0.763,2.01-1.491,2.566
		c-4.532,3.473-3.442,4.775,1.465,6.971c20.938,9.365,41.652,19.23,62.4,29.015c31.504,14.854,62.951,29.834,94.456,44.688
		c27.201,12.826,54.426,25.603,81.683,38.312c26.043,12.143,52.177,24.088,78.2,36.272c21.806,10.209,43.481,20.697,65.267,30.951
		c25.101,11.812,50.263,23.49,75.371,35.279c1.549,0.727,3.693,0.979,3.918,3.348c-2.625,0.441-3.771,3.082-6.039,4.058
		c-3.075,1.547-5.528-0.562-7.918-1.693c-12.035-5.719-24.047-11.496-36.121-17.135c-30.184-14.095-60.233-28.463-90.385-42.629
		c-26.986-12.681-53.907-25.503-80.872-38.229c-33.891-15.996-67.761-32.039-101.675-47.986
		c-19.444-9.145-38.874-18.321-58.275-27.557c-27.524-13.1-55.197-25.887-82.609-39.227c-1.565-0.763-3.149-1.681-5.289-1.328
		c19.631,9.653,39.342,18.569,58.872,27.867c26.47,12.602,53.013,25.047,79.52,37.567c42.322,19.992,84.645,39.984,127.013,59.877
		c34.08,16.002,68.07,32.188,102.137,48.217c29.088,13.688,58.221,27.283,87.223,41.152c1.693,0.811,4.695,0.938,3.502,4.275
		c-3.059,4.575-6.559,4.616-11.35,2.164c-7.641-3.91-15.695-7.011-23.574-10.451c-13.897-4.688-26.852-11.552-40.217-17.47
		c-25.07-11.102-49.801-22.938-74.732-34.342c-3.332-1.522-5.648-1.209-8.223,1.804c-3.848,4.504-6.787,9.926-12.14,13.041
		c-12.962,15.551-26.041,31.008-38.783,46.737c-2.363,2.916-3.861,2.385-6.085,0.574c-12.079-9.824-24.176-19.627-36.237-29.475
		c-23.946-19.554-47.871-39.131-71.817-58.681c-0.893-0.729-1.938-1.268-2.912-1.893c-1.558-1.375-1.671-3.301-1.983-5.152
		c0.369-3.996,1.182-7.989,0.193-12.008c-0.396-1.135-1.181-2.061-1.708-3.129c-0.469-2.869,1.635-4.348,3.281-6.076
		c5.871,1.199,9.433,5.924,13.744,9.355c16.38,13.034,32.241,26.711,48.63,39.741c13.526,10.757,26.54,22.146,40.132,32.826
		c0.522,0.412,0.993,0.885,1.442,1.377c4.075,4.457,3.999,4.396,7.828-0.19c10.014-11.992,19.987-24.021,30.21-35.836
		c5.61-6.484,5.677-6.427-2.27-9.541c-17.872-8.888-36.348-16.449-54.406-24.922c-21.218-9.953-42.594-19.562-63.906-29.312
		c-7.402-3.385-14.775-6.834-22.131-10.313c-5.32-2.242-10.298-5.304-15.985-6.673c-0.271-1.532-1.391-1.284-2.454-1.157
		c-4.792-2.863-10.184-4.486-15.019-7.263c-1.678-1.295-3.759-1.59-5.688-2.266c-2.411-1.424-5.142-2.232-7.465-3.83
		c-3.342-2.264-7.29-3.215-10.854-4.994c-6.54-3.088-13.135-6.051-19.763-8.94c-5.4-2.949-11.106-5.252-16.693-7.804
		c-6.744-2.7-13.271-5.896-19.898-8.864c-2.571-1.152-5.084-2.388-7.902-2.82c-6.131-4.387-13.273-6.773-19.955-10.068
		c-1.932-0.95-4.083-1.481-5.308-3.479c-7.501-4.242-7.551-4.262-3.968-12.674c2.396-5.625,4.813-11.249,7.521-16.726
		c1.053-2.131,1.266-3.801,0.255-5.986c-3.941-8.521-7.667-17.142-11.551-25.691c-0.983-2.164-1.678-4.309-1.281-6.702
		c1.217-7.329,1.678-14.728,1.896-22.14c0.073-2.474,0.296-4.821,2.008-6.771c4.189-0.492,6.214,1.956,7.688,5.427
		c3.937,9.266,8.057,18.452,12.264,27.599c0.398,0.865,0.688,1.813,1.472,2.641c2.091-2.536,2.461-5.6,3.843-8.184
		c4.789-10.115,9.239-20.382,13.897-30.552c3.459-7.789,7.147-15.476,10.657-23.244c2.03-1.601,2.869-3.945,3.877-6.188
		c2.644-5.876,5.845-11.568,7.823-17.659c3.406-10.489,11.271-16.564,19.979-21.985
		C381.071,250.708,383.112,246.247,387.892,245.778z"/>
	<path fill="#66B37E" d="M391.009,304.971c2.146-0.217,3.823,0.794,5.486,1.979c24.434,17.423,48.876,34.833,73.325,52.233
		c17.287,12.304,34.468,24.764,51.922,36.829c15.277,10.559,31.028,20.436,46.292,31.018c26.2,18.162,53.659,34.318,80.786,50.99
		c17.106,10.516,34.799,20.086,52.312,29.932c13.324,7.488,26.588,15.117,40.225,22c14.394,7.264,28.466,15.105,42.759,22.541
		c14.457,7.521,28.881,15.107,43.334,22.639c1.487,0.775,3.239,2.423,3.92-0.907c1.684-8.269,7.448-14.402,11.854-21.076
		c8.041-12.187,15.746-24.576,23.574-36.892c12.352-19.424,24.582-38.926,36.85-58.401c5.127-8.14,10.504-16.142,15.193-24.527
		c1.982-3.547,4.025-3.639,7.078-2.424c1.916,2.416,0.41,5.145,0.016,7.377c-0.809,4.584-0.006,9.211-1.039,13.713
		c-1.168,3.199,0.396,6.646-0.887,9.832c-11.221,18.01-22.35,36.076-33.691,54.008c-8.782,13.886-18.047,27.47-26.703,41.433
		c-8.317,13.42-16.813,26.719-25.577,39.848c-1.574,2.357-3.07,4.863-6.025,5.82c-8.928-2.715-16.279-8.506-24.479-12.646
		c-4.22-2.129-8.771-3.93-12.13-7.326c0.474,1.318,0.832,2.685-1.264,3.158c0.547-4.604-2.072-6.5-6.129-7.168
		c-5.885-0.899-10.65-4.381-15.654-7.129c-21.58-11.846-43.53-23.006-64.889-35.26c-24.959-14.322-50.438-27.758-74.666-43.33
		c-4.945-3.18-9.6-6.476-15.861-4.078c-0.829-7.537-6.931-10.25-12.396-13.564c-23.337-14.155-46.083-29.227-68.537-44.729
		c-3.516-2.428-6.022-2.441-9.227,0.348c-3.749,3.265-7.75,6.271-11.927,9.013c-2.026-0.296-2.429-2.076-3.149-3.519
		c-3.737-7.479-6.619-15.272-7.771-23.582c-0.444-3.207-1.736-5.561-4.354-7.438c-16.21-11.622-32.435-23.221-48.738-34.706
		c-4.625-3.868-10.166-6.535-14.414-10.904c-0.962-1.453-2.254-2.479-3.946-2.975c-2.511-0.9-4.362-2.8-6.5-4.271
		c-0.338-0.286-0.646-0.603-0.942-0.931c-2.38-2.302-4.687-4.703-8.042-5.613c-7.988-5.99-16.276-11.568-24.152-17.703
		c-4.19-3.265-4.502-7.566-1.116-11.947c5.361,1.709,9.388,5.587,13.813,8.741c32.146,22.918,64.399,45.683,96.772,68.277
		c27.049,18.879,54.385,37.35,82.145,55.16c17.658,11.33,35.852,21.84,53.717,32.858c27.242,16.804,55.533,31.734,83.567,47.113
		c20.591,11.293,41.552,21.898,62.347,32.807c13.549,7.107,26.998,14.402,40.684,21.265c-5.09-3.703-10.877-6.24-16.381-9.191
		c-20.842-11.182-41.861-22.033-62.816-33.004c-46.356-24.27-91.897-49.938-136.497-77.334
		c-31.539-19.375-62.061-40.26-92.805-60.812c-29.496-19.722-58.114-40.72-87.146-61.117c-11.042-7.757-21.985-15.655-33.118-23.284
		c-1.499-1.027-2.908-2.244-4.917-2.066C388.514,312.368,390.496,308.664,391.009,304.971z"/>
	<path fill="#69A87E" d="M524.79,79.945c-0.83,7.075-7.289,9.449-11.724,13.079c-24.219,19.823-48.852,39.139-73.254,58.738
		c-13.173,10.581-26.135,21.424-39.273,32.047c-2.807,2.269-5.69,4.646-10.844,4.289c6.399,8.218,12.012,15.461,17.662,22.673
		c10.931,13.953,21.893,27.882,32.814,41.842c1.134,1.45,3.557,2.863,1.522,4.988c-1.932,2.019-3.477,5.421-7.269,4.014
		c-8.508-3.157-16.965-6.451-25.442-9.689c-3.048-6.734-8.5-11.709-12.921-17.418c-10.762-13.9-21.754-27.627-32.88-41.237
		c-1.998-2.443-1.73-3.544,0.483-5.331c13.549-10.935,26.995-21.996,40.522-32.955c28.493-23.083,57.021-46.124,85.52-69.201
		c1.86-1.507,3.872-2.339,6.272-2.72c7.012-1.113,13.997-2.4,20.959-3.786C519.683,78.731,522.313,78.024,524.79,79.945z"/>
	
	<path fill="#8E8E8E" d="M888.885,318.984c3.039,4.108,4.678,9.062,8.082,13c1.35,1.561,1.521,3.954,0.205,6.008
		c-2.775,4.686-6.955,7.459-12.119,8.877c-17.586,4.829-35.129,5.109-52.604-0.541c-3.548-1.146-6.656-3.05-9.31-5.646
		c-1.203-1.18-2.375-2.698-1.264-4.392c1.129-1.721,2.68-0.506,4.004,0.038c14.83,6.085,30.045,6.771,45.541,3.191
		c5.674-1.311,11.057-3.363,15.836-6.743c-7.824,5.472-16.963,6.742-26.07,7.31c-12.815,0.797-25.639,0.612-37.655-5.111
		c-4.236-2.017-7.748-4.653-8.808-9.464c-0.418-1.902-1.752-2.271-3.147-2.7c-2.703-0.83-5.494-1.396-8.093-2.525
		c-1.442-0.627-3.743-1.082-3.194-3.086c0.453-1.648,2.563-1.045,4.006-0.84c3.625,0.516,7.285,0.805,10.875,1.525
		c1.557,0.312,2.848,0.312,4.213-0.678c4.836-3.505,10.447-5.039,16.225-6.042c13.916-2.414,27.72-2.724,41.396,1.694
		C881.357,314.267,885.146,316.51,888.885,318.984z"/>
	<path fill="#989998" d="M888.885,318.984c-12.397-7.042-25.893-8.715-39.832-8.024c-10.662,0.529-21.246,1.648-30.195,8.255
		c-1.61,1.189-2.221-0.011-3.323-0.16c-4.861-0.659-9.74-1.198-15.479-1.884c4.43,2.713,8.736,3.235,12.748,4.55
		c1.375,0.45,3.141,0.218,3.154,2.396c0.033,5.68,4.287,7.896,8.459,9.961c6.021,2.981,12.658,4.196,19.211,4.647
		c11.086,0.765,22.207,0.579,33.078-2.53c5.184-1.482,9.91-3.602,14.34-8.865c-1.365,6.226-5.305,8.289-9.055,9.993
		c-11.761,5.344-24.195,6.437-36.961,5.233c-7.812-0.735-15.177-2.841-22.685-6.617c0.504,4.598,3.976,5.913,6.748,7.462
		c6.49,3.626,13.818,4.902,21.037,5.362c11.756,0.749,23.535,0.477,34.969-3.299c4.697-1.551,8.551-4.171,12.072-7.473
		c0.508,3.324-4.834,4.234-3.297,7.984c-2.816,1.028-4.959,3.456-8.062,3.89c-11.748,3.562-23.42,7.463-35.918,7.425
		c-13.145-0.04-25.828-1.816-37.701-10.293c2.101,4.637,5.062,6.949,8.753,8.202c18.43,6.257,36.864,6.152,55.35,0.023
		c3.635-1.206,5.588-5.371,9.865-5.181c1.17,4.411-2.088,6.438-4.916,8.246c-9.902,6.336-20.963,8.105-32.506,7.459
		c-1.632-0.091-3.242-0.506-4.259-0.323c5.904,0.806,12.435,0.512,18.961,0.145c11.029-0.62,21.976-1.521,30.97-9.103
		c0.756-0.637,1.709-1.062,2.76-0.497c0.578,2.321,1.701,4.657-0.18,6.915c-1.002-0.855-0.851-1.978-0.662-3.201
		c-1.492,3.732-4.697,5.523-7.938,6.802c-20.473,8.073-40.797,8.479-60.795-1.713c-1.588-0.811-3.024-2.166-5.051-1.704
		c-0.457,0.158-0.92,0.171-1.383,0.037c-1.896-2.343-3.943-3.857-7.384-3.594c-3.293,0.252-6.022-2.139-8.948-3.496
		c-5.613-3.354-11.229-6.709-16.845-10.063c-1.36-1.983-1.942-4.141-1.467-6.533c1.681-1.724,2.691,0.043,3.652,0.872
		c4.793,4.131,10.58,5.633,16.604,6.619c-5.473-2.366-10.5-5.47-15.327-8.903c-1.865-1.327-3.908-2.566-4.476-5.07
		c-0.022-1.001-0.047-2.002-0.067-3.003c0.85-0.43,1.698-0.215,2.299,0.354c5.164,4.884,11.771,6.796,18.283,8.912
		c-3.939-1.346-8.121-2.226-11.304-5.14c-2.021-1.849-4.504-3.603-3.354-7.02c1.311-0.72,2.271,0.102,3.104,0.859
		c3.685,3.355,8.06,5.277,12.861,6.272c1.852,0.384,3.049,1.227,3.334,3.146c0.775,5.222,4.688,7.391,8.979,9.099
		c6.046,2.406,12.523,3.158,17.306,4.462c-3.433-0.501-7.994-2.177-12.113-5.014c-2.088-1.436-4.045-3.04-5.17-5.318
		c-1.848-3.743-2.477-8.928-8.818-6.587c-4.809-3.965-11.489-3.109-16.553-6.436c-0.947-0.623-1.944-1.443-3.129-0.372
		c-0.69-0.15-1.234-0.554-1.547-1.153c-0.955-1.84-3.609-3.643-2.152-5.651c1.742-2.402,3.879,0.139,5.65,0.988
		c5.633,2.699,11.676,3.756,17.793,4.697c-10.592-1.355-17.832-8.664-25.936-14.452c-1.597-2.526-6.087-3.483-4.285-7.856
		c0.334-0.04,0.75-0.131,0.971,0.054c10.533,8.77,23.367,9.429,36.146,10.317c0.641,0.044,1.331,0.07,1.264,0.03
		c-6.326,0.047-13.033-1.541-19.219-4.788c-4.048-2.125-8.531-4.129-8.83-9.771c0.172-0.555,0.547-0.856,1.123-0.911
		c7.567,5.997,16.465,8.336,25.827,9.52c11.584,1.463,22.894-0.762,34.228-2.469c3.102-0.468,6-1.934,8.69-3.691
		c1.447-0.945,2.892-2.535,4.896-0.987c-0.383,1.289-0.383,2.575,0.043,3.855c-1.275,1.112-2.953,1.422-4.41,2.246
		c1.851,0.767,3.549-0.005,5.271-0.487c0.676,2.273,2.278,3.119,4.539,3.74C878.689,312.031,884.695,313.851,888.885,318.984z"/>
	<path fill="#84B895" d="M775.1,631.104c-3.711-4.59-9.465-5.711-14.371-8.127c-12.952-6.383-26.196-12.172-39.276-18.299
		c-31.879-14.938-63.756-29.875-95.58-44.923c-24.013-11.352-47.923-22.918-71.918-34.307c-30.635-14.541-61.304-29.01-91.968-43.49
		c-23.157-10.936-46.312-21.881-69.498-32.754c-25.125-11.781-50.288-23.481-75.427-35.233c-1.173-0.55-2.268-1.265-3.639-2.037
		c2.978-2.709,5.654-1.347,8.254-0.119c13.238,6.244,26.463,12.516,39.682,18.803c28.224,13.428,56.426,26.898,84.661,40.301
		c24.34,11.554,48.709,23.041,73.071,34.547c30.061,14.197,60.124,28.39,90.188,42.576c23.461,11.072,46.907,22.178,70.397,33.188
		c18.062,8.467,36.281,16.604,54.246,25.271c14.516,7.004,28.969,14.135,43.689,20.701c0.748,0.334,1.575,0.49,2.366,0.729
		C779.014,630.003,776.615,629.876,775.1,631.104z"/>
	<path fill="#8E8E8E" d="M954.746,542.052c-2.865-5.688-1.824-9.202,3.932-13.264c18.582-9.149,37.748-9.309,57.271-3.668
		c4.045,1.17,7.498,3.533,10.946,5.861c2.549,2.551,3.941,5.395,2.279,9.012c-2.785,4.641-6.922,7.402-12.068,8.877
		c-16.321,4.672-32.692,4.816-49.129,0.674C962.883,548.261,958.426,545.841,954.746,542.052z"/>
	<path fill="#8E8E8E" d="M813.318,667.788c5.756,4.062,6.797,7.57,3.936,13.269c-6.924,6.493-15.523,8.778-24.623,9.682
		c-13.197,1.309-26.287,1.158-38.967-3.455c-4.474-1.627-8.354-4.051-10.844-8.285c-1.654-3.617-0.271-6.463,2.28-9.016
		C767.436,656.63,790.232,657.72,813.318,667.788z"/>
	<path fill="#8E8E8E" d="M407.093,651.897c1.083,0.692,1.799,1.629,1.952,2.938c0.871,6.277-1.177,10.074-7.205,13.103
		c-6.486,3.258-13.529,4.61-20.644,5.143c-10.78,0.803-21.552,0.527-32.124-2.225c-5.901-1.537-11.244-3.98-15.161-8.881
		c-1.955-4.488-0.824-8.146,2.991-11.078c20.631-11.232,41.815-10.967,63.393-3.105
		C402.856,648.726,404.761,650.642,407.093,651.897z"/>
	
	<path fill="#8E8E8E" d="M954.744,560.056c-2.23-3.064-2.299-6.132-0.008-9.197c2.686-3.949,5.778-4.188,10.229-2.367
		c18.113,7.404,36.359,6.91,54.432-0.385c2.271-0.916,4.285-1.881,6.49-0.121c3.191,2.646,5.057,5.729,3.291,10.01
		c-3.059,5.289-8.172,7.779-13.66,9.293c-15.397,4.246-30.924,4.26-46.449,0.553C963.604,566.536,958.898,563.79,954.744,560.056z"
		/>
	<path fill="#A29482" d="M388.816,524.003c0.98-2.975-0.951-6.299,1.101-9.146c2.791,7.746,9.723,9.106,16.5,10.705
		c-4.147-1.054-5.769-1.729-7-3.195c-0.811-0.965-2.158-2.035-1.042-3.389c0.877-1.064,2.157-0.295,3.187,0.205
		c7.178,3.491,14.822,4.485,22.705,4.467c4.024-0.01,7.875-0.959,11.802-1.555c5.877-0.892,9.888-4.029,12.312-9.363
		c1.925,1.113,1.815,2.562,0.702,4.18c0.085,2.551-3.245,3.39-3.016,6.01c-2.432,2.994-5.596,3.812-9.396,4.396
		c-6.209,0.951-12.202,3.238-18.596,3.408c-8.749,0.231-17.3-0.457-25.026-5.053c3.185,3.352,8.88,5.319,17.423,5.875
		c8.218,0.532,16.29-0.107,24.066-3.128c1.395-0.543,3.377-2.12,4.29,0.035c0.713,1.685-1.279,2.812-2.657,3.74
		c-6.138,4.129-13.214,3.846-20.134,4.314c6.285-0.451,12.584-0.593,18.814-1.839c6.019-1.205,11.126-3.348,13.161-9.78
		c1.904,4.369,1.084,8.717-0.096,13.062c-12.529,9.373-26.257,13.445-38.312,10.633c7.753,2.584,23.74,1.506,34.485-3.698
		c1.289-0.623,2.509-1.777,4.141-0.886c-0.752,1.599-1.106,3.203-0.096,4.836c-0.206,0.154-0.412,0.31-0.616,0.468
		c-1.42,0.436-2.84,0.795-4.13,1.645c-15.024,9.892-30.657,8.816-46.571,2.519c-1.707-0.677-2.631-1.931-3.056-3.644
		c-0.273-0.951-0.547-1.904-0.821-2.856c1.249-0.693,2.26,0.065,3.229,0.627c7.181,4.164,14.906,6.178,22.858,5.895
		c-7.726-0.022-15.502-1.076-21.783-6.873c-1.578-1.455-2.98-1.059-4.287,0.396c-1.229-2.697-1.166-5.74-3.308-8.324
		c-1.507-1.818-1.482-4.996,1.241-6.887c0.527,8.002,6.443,10.032,12.812,11.256c3.667,0.703,7.359,1.633,11.036,1.364
		c-5.158,0.046-10.116-1.065-14.418-4.278c-1.281-0.957-3.114-2.285-2.047-3.998c1.036-1.66,2.656-0.101,3.953,0.471
		c14.399,6.353,28.661,5.765,42.803-0.686c-3.296,1.797-6.895,3.164-10.599,3.787c-3.91,0.655-7.845,1.407-11.895,1.272
		c-4.018-0.133-7.927-0.752-11.856-1.481c-7.101-1.32-12.929-5.863-19.824-7.675C393.227,528.427,388.044,526.991,388.816,524.003z"
		/>
	<path fill="#46BB6D" d="M345.803,298.774c1.505,1.604-0.197,2.767-0.688,3.962c-2.702,6.553-5.541,13.051-9.095,19.205
		c-6.604,5.329-13.647,9.771-22.551,11.153c1.864,7.007,7.113,12.651,8.51,19.879c-0.747,3.781-2.417,7.147-4.715,11.021
		c-4.491-9.897-8.892-19.14-12.869-28.562c-1.848-4.378-3.126-8.899-8.411-10.346C312.589,316.316,329.196,307.545,345.803,298.774z
		"/>
	
	<path fill="#A29482" d="M448.121,559.032c-0.011,0.605-0.022,1.211-0.034,1.816c-5.095,7.065-12.103,10.586-20.701,11.075
		c-3.754,0.214-7.479,0.859-9.685,0.568c5.043-0.291,11.666-0.244,18.194-1.986c5.633-1.502,10.22-3.782,12.177-9.664
		c1.553,2.146,1.438,4.479-0.011,6.435c-6.266,8.453-13.532,15.594-24.818,16.391c-9.458,0.666-18.939,1.01-27.752-3.508
		c-5.944-3.049-7.359-6.033-5.493-11.213c3.559,9.512,12.169,10.092,18.357,11.397c-2.395-0.112-8.974-1.922-11.177-3.61
		c-1.159-0.89-2.802-1.898-1.963-3.553c0.762-1.5,2.393-0.642,3.582-0.183c12.206,4.711,23.618,5.17,38.086,1.685
		c-8.968,2.276-17.938,3.252-27.068,0.862c-4.116-1.076-7.872-2.69-11.116-5.418c-1.682-1.412-2.978-3.063-5.376-0.666
		c-1.593,1.592-2.056-0.467-2.534-1.637c0.961-1.867,3.903-3.014,2.138-5.873c0.638-0.297,1.32-0.348,1.917-0.014
		c8.199,4.586,16.927,7.164,26.492,6.463c-4.996,0.381-9.781-0.474-14.562-1.457c-4.254-0.877-7.501-3.416-10.707-6.058
		c-0.763-0.629-1.504-1.661-0.984-2.623c0.688-1.274,2.025-0.905,3.101-0.454c1.647,0.688,3.002,1.975,4.694,2.364
		c-0.59-0.434-1.464-0.502-2.155-0.979c-1.36-0.943-3.398-1.992-2.64-3.722c1.036-2.354,2.874-0.352,4.187,0.189
		c12.733,5.258,25.559,4.959,38.572,1.113c4.114-1.217,5.322-4.633,7.066-7.771l0.223-0.168c1.322,3.424,1.374,6.844-0.03,10.26
		c-0.873-0.705-0.966-1.6-0.816-1.975c-3.792,4.746-10.033,5.873-14.899,7.494c4.008-0.822,8.662-2.65,12.992-5.289
		C446.199,558.827,447.116,558.259,448.121,559.032z"/>
	<path fill="#929392" d="M859.795,277.023c0.859,2.769,3.891,3.231,5.555,5.243c2.154,2.604,3.924,5.178,3.719,8.703
		c-0.26,0.353-0.518,0.704-0.776,1.056c-2.678,4.826-7.088,7.274-12.146,8.802c-13.481,4.071-27.186,4.508-41.032,2.413
		c-0.662-0.1-1.312-0.263-1.912-0.554c-0.451-0.218-0.853-0.519-1.195-1.227c1.771-2.583,4.619-1.867,7.086-1.86
		c9.609,0.025,18.943-1.382,27.75-5.315c3.783-1.688,7.648-3.556,8.576-8.302c-0.521-0.632,1.598-3.805-1.449-1.859
		c-16.705,10.673-34.779,10.871-53.252,6.904c-7.439-1.598-14.748-4.174-19.342-11.099c-0.32-1.074-0.287-2.1,0.42-3.028
		c1.061-0.474,2.053-0.104,2.771,0.572c6.625,6.228,15.103,7.608,23.539,8.531c12.828,1.403,25.619,1.117,37.982-3.354
		c4.953-1.792,8.758-4.751,10.188-10.094c1.072-1.426,1.783-0.731,2.408,0.426C859.359,274.242,858.838,275.836,859.795,277.023z"/>
	<path fill="#8F8F8F" d="M896.113,411.847c-2.365-1.326-4.729-2.652-7.095-3.98c-0.312-4.135,4.621-3.783,5.451-6.4
		c-2.662,1.938-5.129,5.41-9.658,3.556c-1.698-0.431-3.45-0.734-4.743-2.082c3.563-2.082,7.491-3.484,10.948-5.76
		c3.687-2.428,6.845-5.238,6.595-10.268c0.186,4.965-2.863,7.836-6.584,10.166c-3.988,2.5-8.578,3.467-13.023,4.775
		c-3.732-2.271-7.465-4.542-11.195-6.812c1.879-2.168,4.64-2.418,7.133-3.135c4.511-1.295,9.236-2.736,12.353-6.084
		c6.346-6.824,12.771-7.07,20.022-2.025c5.746,4.031,6.789,7.535,3.953,13.277c-2.58,2.055-5.006,4.508-8.188,5.459
		c-3.394,1.014-4.619,3.287-5.088,6.391C896.01,409.69,896.377,410.864,896.113,411.847z"/>
	<path fill="#69A87E" d="M846.932,261.81c10.965-13.071,21.928-26.146,32.898-39.213c2.238-2.665,4.604-5.229,6.721-7.986
		c0.918-1.195,1.853-1.82,3.314-1.685c-0.224,2.691,1.055,4.965,2.043,7.319c1.16,1.663-0.088,2.812-0.992,3.858
		c-11.459,13.269-22.83,26.609-34.043,40.087c-0.738,0.889-1.605,1.673-2.662,2.207c-0.705,0.271-1.42,0.297-2.148,0.109
		C850.033,265.293,847.615,264.497,846.932,261.81z"/>
	<path fill="#989998" d="M856.998,285.94c-1.084,5.69-5.67,7.865-10.217,9.897c-10.66,4.765-22.002,5.521-33.435,5.574
		c19.135,1.814,38.4,4.401,54.941-9.387c-0.011,0.587-0.021,1.174-0.035,1.762c-0.574,3.956-3.644,5.815-6.646,7.553
		c-8.713,5.046-18.418,6.41-28.227,6.861c-12.992,0.6-25.457-1.517-36.771-8.47c-1.041-0.64-2.146-1.766-3.614-0.789l0.004-0.002
		c-2.842-0.993-4.277-4.126-7.33-4.808c-0.887-2.912-5.435-4.353-3.4-8.438c3.828,0.568,5.81,4.181,9.271,5.511
		c6.432,2.471,13.098,3.846,19.875,4.216c8.764,0.478,17.561,0.533,26.242-1.468c5.87-1.353,11.616-2.787,16.19-7.064
		C854.684,286.108,855.707,285.449,856.998,285.94z"/>
	<path fill="#69A87E" d="M859.795,277.023c-1.105,0.417-1.791,0.31-1.814-1.143c-0.021-1.382,0.455-2.935-0.963-3.997
		c-1.438-0.929-1.883-2.254-1.553-3.889c6.551-9.377,14.576-17.548,21.758-26.414c4.062-5.015,8.264-9.921,12.604-14.698
		c0.944-1.04,1.612-3.269,3.854-1.852c0.933,2.912,4.133,5.274,2.152,8.892c-7.863,7.888-14.221,17.046-21.455,25.468
		C869.41,265.174,864.648,271.139,859.795,277.023z"/>
	<path fill="#989998" d="M846.82,383.032c-8.179-4.119-15.535-9.498-22.877-14.902c-1.188-1.528-3.587-2.603-1.943-5.19
		l-0.004,0.002c0.672-0.23,1.303-0.127,1.889,0.253c20.023,12.974,41.242,11.118,62.854,5.208c3.247-0.889,5.276-4.941,9.348-3.451
		c0.057,1.312,0.113,2.622,0.17,3.933c-12.412,7.156-25.012,13.804-39.666,15.085C853.26,384.261,849.959,384.583,846.82,383.032z"
		/>
	<path fill="#9C8E7B" d="M447.91,549.005c0.826,4.386-1.335,7.188-5.183,8.48c-14.816,4.977-29.472,5.318-43.542-1.912
		c1.365,2.453,1.365,2.453,5.169,5.074c-3.452,0.94-5.538-2.123-8.406-2.338c5.364,5.854,8.55,8.717,25.842,10.041
		c-9.444,1.912-19.677-0.357-28.863-6.398c-0.257-4.08-1.845-8.25,0.833-12.129c8.7,6.076,18.62,7.744,28.825,6.92
		c7.498-0.607,15.139-1.863,20.866-7.727C444.94,547.491,446.421,548.021,447.91,549.005z"/>
	<path fill="#8F8F8F" d="M846.82,383.032c15.924,0.771,30.032-4.852,43.68-12.252c1.729-0.939,3.234-3.143,5.756-1.896
		c1.688,2.191,2.326,4.518,0.918,7.109c-2.551,4.367-6.42,7.109-11.156,8.512c-10.869,3.221-21.844,5.502-33.196,2.504
		C850.818,385.684,848.225,385.257,846.82,383.032z"/>
	<path fill="#8F8F8F" d="M885.998,349.943c1.871-2.82,4.174-4.787,7.877-3.967c3.182,2.645,5.086,5.71,3.293,9.993
		c-16.393,14.07-35.787,11.041-54.885,9.547c6.356-0.744,12.815-0.318,19.176-1.531c6.893-1.313,13.566-3.03,19.49-6.995
		c2.602-1.74,4.588-3.825,5.051-7.051L885.998,349.943z"/>
	<path fill="#999A99" d="M333.912,661.976c20.456,13.168,42.278,12.2,64.461,5.916c7.835-2.222,10.453-5.99,10.672-13.056
		c2.248,4.392,0.715,7.968-2.487,11.105c-4.935,4.838-11.224,6.877-17.76,8.25c-14.545,3.059-28.958,2.754-42.989-2.51
		C340.862,669.827,336.015,667.487,333.912,661.976z"/>
	<path fill="#8F8F8F" d="M896.086,364.951c-5.57,3.161-11.152,6.187-17.607,7.333c-15.678,2.787-31.157,2.605-46.405-2.44
		c-4.029-1.333-7.15-3.97-10.076-6.902c-0.254-3.121,1.037-2.24,2.729-1.173c11.924,7.518,25.113,10.03,38.951,9.106
		c11.949-0.799,23.713-2.568,33.049-12.137c0.095,1.479,0.179,2.812,0.265,4.146C896.688,363.574,896.387,364.263,896.086,364.951z"
		/>
	<path fill="#8F8F8F" d="M792.996,298.942c-0.254-3.124,1.041-2.238,2.729-1.172c11.929,7.521,25.117,9.951,38.968,9.123
		c9.782-0.585,19.336-2.216,27.889-7.638c2.344-1.486,3.672-3.767,5.672-5.468c1.229,2.63,0.727,5.021-1.008,7.239
		c-2.871-0.213-4.146,2.467-6.33,3.561c-5.785,2.898-12.062,3.051-18.224,4.095c-12.938,2.19-25.567,1.533-38.141-2.335
		C799.883,304.91,796.584,301.815,792.996,298.942z"/>
	<path fill="#999A99" d="M1025.887,547.985c-2.164-0.104-4.037,0.459-6.125,1.328c-18.717,7.799-37.707,8.041-56.285-0.033
		c-4.219-1.834-6.008,0.191-8.739,1.578c2.797-2.933,2.887-5.867,0.012-8.808c5.758,2.738,11.211,6.084,17.692,7.224
		c15.052,2.643,29.914,2.604,44.668-1.84c4.738-1.429,8.548-4.146,12.064-7.443C1029.662,543.308,1024.336,544.233,1025.887,547.985
		z"/>
	<path fill="#989A98" d="M852.82,387.009c9.582,0.133,19.129-0.109,28.53-2.312c6.107-1.432,11.234-4.555,15.822-8.703
		c-0.6,2.328,0.894,3.09,2.689,3.766c2.409,0.906,4.745,1.982,6.452,4.037c-7.879-4.334-13.977-2.08-20.372,3.879
		c-5.035,4.689-12.289,6.064-19.134,7.365C861.674,393.186,857.191,390.194,852.82,387.009z"/>
	<path fill="#999A99" d="M742.82,678.997c7.52,7.873,17.528,9.576,27.575,10.533c12.591,1.197,25.119,0.729,37.302-3.537
		c3.485-1.223,5.844-4.34,9.555-4.938c-1.557,3.912-5.125,5.871-8.523,7.235c-19.396,7.8-38.846,8.136-57.998-0.918
		C747.162,685.688,743.67,683.47,742.82,678.997z"/>
	<path fill="#999A99" d="M954.744,560.056c5.764,2.729,11.213,6.08,17.694,7.219c15.054,2.643,29.919,2.604,44.673-1.84
		c4.737-1.429,8.547-4.146,12.065-7.439c-0.686,4.105-3.803,6.316-7.037,7.898c-19.723,9.646-39.723,9.477-59.719,0.889
		C959.301,565.44,956.131,563.628,954.744,560.056z"/>
	<path fill="#9C8E7B" d="M390.79,567.825c0.827,0.102,1.631,2.764,2.526-0.189c0.569-1.875,1.938-3.067,3.999-0.844
		c8.582,9.263,19.808,9.582,31.202,8.728c3.531-0.265,7.111-0.931,11.63-2.937c-8.717,6.943-28.702,6.867-44.089,0.705
		c2.286,3.764,8.158,6.207,16.647,6.926c-5.906,1.632-16.053-0.731-20.491-4.51c-2.232-1.897-2.344-4.225-2.215-6.758
		C390.262,568.573,390.525,568.2,390.79,567.825z"/>
	<path fill="#85B895" d="M893.682,225.031c-6.813,5.774-11.731,13.236-17.604,19.847c-6.777,7.627-13.375,15.412-20.052,23.128
		c-1.633,0.254-2.317-0.441-2.069-2.07c12.092-14.251,24.178-28.507,36.287-42.743c0.758-0.892,1.647-1.659,1.666-2.947
		C893.588,221.437,892.965,223.482,893.682,225.031z"/>
	<path fill="#9D8E7B" d="M448.229,544.001c-14.162,8.797-29.058,8.33-44.271,3.049c2.869,0.298,5.733,0.646,8.606,0.884
		c11.394,0.94,21.497-3.021,31.274-8.246c1.298-0.693,2.716-1.162,4.078-1.734c1.16,1.551,1.146,3.354,1.112,5.162
		C448.762,543.411,448.495,543.706,448.229,544.001z"/>
	<path fill="#999A99" d="M407.093,651.897c-7.354-3.236-14.665-6.539-22.832-7.32c-15.609-1.492-30.965-1.256-45.442,5.904
		c-0.568,0.281-1.273,0.285-1.915,0.416c6.992-7.08,16.292-8.658,25.412-9.625c11.712-1.242,23.49-0.674,34.674,3.824
		C400.81,646.634,404.69,648.2,407.093,651.897z"/>
	<path fill="#9A9B9A" d="M1026.895,530.981c-7.227-3.722-14.676-6.435-22.912-7.328c-14.364-1.56-28.387-1.057-41.993,4.27
		c-1.056,0.412-2.203,0.584-3.31,0.867c6.922-5.965,15.492-7.305,24.084-8.307c12.943-1.508,25.586-0.312,37.498,5.436
		C1022.777,527.132,1025.357,528.417,1026.895,530.981z"/>
	<path fill="#9A9B9A" d="M813.318,667.788c-5.724-1.527-11.175-4.008-17.109-4.809c-13.744-1.854-27.34-1.701-40.805,2.217
		c-3.746,1.092-6.494,4.02-10.304,4.785c5.088-5.927,12.189-7.879,19.349-9.365c14.305-2.971,28.438-2.354,42.186,3.023
		C809.115,664.61,811.541,665.681,813.318,667.788z"/>
	<path fill="#9E9F9E" d="M896.994,408.923c-0.791-4.28,0.875-6.838,5.229-7.627c3.104-0.562,4.67-4.123,8.043-4.223
		c-1.616,3.986-5.338,5.732-8.78,7.305C899.16,405.438,898.131,407.062,896.994,408.923z"/>
	<path fill="#949494" d="M868.152,306.642c-1.732,4.979-4.902,0.173-7.273,1.25c2.018-1.456,3.391-4.092,6.41-3.009
		C867.578,305.47,867.865,306.056,868.152,306.642z"/>
	<path fill="#69C286" d="M924.008,461.825c0.391-3.268-0.936-6.693,0.887-9.832C924.395,455.253,926.262,458.726,924.008,461.825z"
		/>
	<path fill="#69C888" d="M908.568,435.466c-5.783,8.611-11.462,17.129-17.199,25.604c-10.049,14.842-20.033,29.727-30.234,44.463
		c-12.654,18.281-25.514,36.422-38.248,54.648c-1.379,1.973-2.623,1.739-4.598,0.694c-18.353-9.707-36.82-19.197-55.162-28.924
		c-16.268-8.627-32.521-17.297-48.596-26.275c-18.562-10.37-36.994-20.981-55.359-31.702c-26.399-15.41-52.204-31.789-77.617-48.767
		c-40.563-27.096-80.597-54.957-119.935-83.819c-17.657-12.955-35.676-25.421-53.638-37.956c-3.291-2.297-3.176-3.51-0.123-6.022
		c18.05-14.854,35.995-29.837,53.839-44.938c11.016-9.323,21.822-18.895,32.657-28.43c14.324-12.604,28.604-25.26,42.857-37.945
		c4.839-4.308,9.612-8.696,14.265-13.203c1.781-1.727,2.904-1.955,4.919-0.162c16.734,14.896,33.597,29.647,50.395,44.471
		c20.154,17.786,40.023,35.903,60.488,53.323c24.233,20.629,49.061,40.536,74.33,59.921c38.395,29.454,78.94,55.654,119.973,81.154
		c12.688,7.887,25.969,14.819,38.867,22.383C902.986,435.472,905.68,434.22,908.568,435.466z"/>
	<path fill="#69C286" d="M617.008,488.946c3.902-2.771,7.297-2.707,11.6,0.133c24.502,16.168,50.466,29.891,75.898,44.492
		c15.529,8.918,31.443,17.168,47.189,25.711c12.102,6.562,24.209,13.113,36.312,19.67c-1.324,8.826-2.879,17.627-3.863,26.492
		c-0.399,3.611-1.688,3.824-4.399,2.574c-6.779-3.123-13.576-6.205-20.338-9.365c-31.179-14.568-62.334-29.18-93.521-43.73
		c-28.456-13.276-56.938-26.498-85.414-39.733c-33.286-15.474-66.577-30.935-99.865-46.402
		c-23.351-10.85-46.694-21.715-70.051-32.557c-22.766-10.564-45.496-21.213-68.359-31.562c-4.135-1.871-4.329-3.889-2.808-7.613
		c13.752-33.655,27.395-67.356,41.023-101.061c4.293-10.616,8.418-21.3,12.717-31.914c0.493-1.218,1.307-4.467,3.021-2.013
		c4.364,6.242,11.468,6.434,17.472,8.624c9.21,3.36,9.562,3.021,2.68,9.367c-7.678,7.079-15.74,13.74-23.51,20.724
		c-1.054,0.946-3.729,1.746-1.785,4.19c1.067,1.784,1.032,3.534,0.361,5.527c-0.596,1.765-0.994,3.78,0.584,5.438
		c0.191,0.22,0.26,0.442,0.202,0.668c-0.059,0.228-0.118,0.341-0.182,0.341c-1.565,4.459-2.301,8.096,2.742,11.666
		c7.878,5.578,16.087,10.791,23.262,17.342c2.871,1.732,5.474,3.825,8.015,5.999l-0.005-0.011c1.297,1.672,0.967,3.427,0.27,5.204
		c-2.555,6.515-5.03,13.065-7.827,19.479c-1.983,4.547-3.794,4.887-7.514,1.732c-4.271-3.625-6.062-8.213-5.22-13.812
		c0.242-1.61,1.065-3.375-0.055-4.849c-1.144-1.503-2.907-2.386-4.806-2.219c-1.866,0.163-2.001,1.973-2.39,3.395
		c-2.566,9.406,0.125,17.145,8.679,22.952c5.433,3.688,6.762,4.594,4.02,11.309c-0.411,1.006-0.965,2.211,0.343,3.115
		c1.3-0.066,1.531-1.162,1.967-2.018c3.283-6.465,3.278-6.467,10.109-5.674c13.914,1.615,22.124-3.902,25.999-17.496
		c0.319-1.121,0.486-2.293,1.435-3.116c6.146,2.935,11.133,7.571,16.652,11.417c9.757,6.799,19.1,14.229,29.144,20.557
		c6.146,3.873,8.298,8.9,9.37,15.631c1.271,7.982,4.549,15.455,8.797,22.41c3.184,2.117,4.559,5.633,6.588,8.625
		c12.812,18.894,29.952,32.123,51.457,39.795c13.113,4.679,26.267,5.281,39.595,1.086
		C614.021,489.019,615.477,488.579,617.008,488.946z"/>
	<path fill="#6AC888" d="M781.975,285.931c-0.104,3.343,4.845,4.213,3.898,7.968c-1.871,3.122-3.83,6.21-3.898,10.033
		c0.222,3.367,3.834,4.322,4.994,7.02c0.408,2.37,1.463,4.753-0.139,7.084c-4.037,4.806-8.15,9.552-12.074,14.449
		c-1.381,1.725-2.682,2.552-4.516,0.995c-11.492-9.762-24.914-17.139-35.338-28.193c-19.261-20.426-38.404-40.961-57.521-61.523
		c-10.736-11.55-21.26-23.297-32.02-34.825c-1.89-2.023-2.537-3.517-0.843-5.965c15.121-21.83,30.228-43.671,45.146-65.637
		c1.709-2.515,3.289-1.702,5.02-0.986c12.58,5.2,25.117,10.498,37.675,15.75c18.975,7.936,37.952,15.858,56.93,23.788
		c27.551,11.512,55.084,23.071,82.676,34.485c3.849,1.592,2.041,3.471,0.633,5.171c-5.918,7.15-12.108,14.079-17.938,21.3
		c-5.898,7.308-12.685,13.909-17.625,21.982c-3.67,1.984-7.373,0.265-11.021-0.023c-13.246-1.048-25.989,0.215-37.619,7.31
		c-4.061,2.462-6.184,6.079-6.416,10.818c0.013,1.007,0.023,2.014,0.035,3.02C782.484,281.948,782.756,283.943,781.975,285.931z"/>
	<path fill="#6AC888" d="M474.008,227.944c-6.771,7.795-15.054,13.97-22.552,20.987c-1.64,1.533-2.497,0.282-3.521-1.029
		c-10.094-12.926-20.243-25.81-30.387-38.697c-2.664-3.384-5.147-6.945-8.115-10.044c-2.2-2.298-1.899-3.625,0.327-5.549
		c8.784-7.59,17.43-15.34,26.169-22.981c9.859-8.619,19.77-17.182,29.647-25.778c15.132-13.168,30.258-26.343,45.383-39.518
		c3.002-2.615,6.01-5.224,8.98-7.873c1.645-1.466,2.773-1.905,3.146,0.971c0.425,3.296,2.533,5.582,4.763,7.926
		c30.229,31.774,60.377,63.623,90.562,95.438c10.18,10.73,20.401,21.422,30.605,32.131c0.029,1.729-0.836,1.676-2.009,1.009
		c-12.917-11.141-25.855-22.257-38.743-33.433c-8.646-7.499-17.234-15.065-25.82-22.635c-8.835-7.789-17.656-15.596-26.434-23.449
		c-1.862-1.667-3.343-1.908-4.95,0.29c-0.868,1.188-2.034,2.159-3.066,3.229c-0.409,0.286-0.843,0.545-1.213,0.878
		c-4.975,4.475-4.973,4.477-10.347,0.781c-7.931-5.452-17.014-5.525-24.245-0.194c-7.207,5.314-9.906,13.397-6.377,22.16
		c5.065,12.571,4.312,9.784-5.357,18.913c-2.889,2.728-5.838,5.466-9.017,7.887c-4.29,3.27-5.987,2.693-8.171-2.336
		c-2.311-5.325-1.233-10.042,2.198-14.488c1.062-1.375,2.709-2.598,1.706-4.817c-1.631-3.612-4.648-4.021-7.243-0.908
		c-6.684,8.02-7.319,15.471-2.128,24.945c3.312,6.043,3.423,6.161-1.529,10.891C474.609,224.237,474.48,226.066,474.008,227.944z"/>
	<path fill="#6AC888" d="M675.451,137.687c-8.949,12.718-17.886,25.445-26.855,38.148c-4.204,5.953-8.516,11.83-12.686,17.807
		c-1.271,1.819-2.258,2.669-4.15,0.636c-6.332-6.803-12.729-13.544-19.185-20.231c-2.072-2.147-0.295-2.734,1.168-3.548
		c7.682-4.271,15.344-8.576,23.058-12.79c12.651-6.912,25.337-13.763,38.007-20.639
		C675.023,137.276,675.238,137.481,675.451,137.687z"/>
	<path fill="#55B373" d="M474.008,227.944c-2.163-2.331-2.014-3.893,0.948-5.751c3.51-2.201,5.442-4.579,2.18-9.527
		c-6.687-10.141-5.103-19.584,3.167-28.547c1.822-1.974,3.62-2.739,5.135-0.129c1.288,2.219,6.593,2.899,2.766,7.318
		c-5.896,6.807-6.459,11.417-2.823,17.464c0.896,1.487,1.592,2.527,3.36,1.002c6.149-5.304,12.455-10.436,18.464-15.893
		c2.011-1.825,0.168-4.039-0.722-5.949c-3.097-6.646-5.118-13.284-1.73-20.564c5.127-11.021,19.3-15.934,29.963-9.294
		c4.801,2.989,8.485,5.56,13.277,0.864c-4.185,4.853-8.204,9.881-14.002,12.994c-3.045-5.954-8.086-7.747-14.013-4.983
		c-5.569,2.599-7.559,8.368-5.136,14.309c1.069,2.622,2.449,3.043,4.391,1.108c3.067-3.059,6.701-5.45,9.761-8.525
		c1.29-1.298,2.563-3.311,4.995-1.909c-4.846,6.104-10.685,11.258-16.249,16.646c-9.85,9.537-19.809,18.98-30.102,28.031
		C483.217,220.495,479.512,225.335,474.008,227.944z"/>
	<path fill="#8E8F8E" d="M786.83,318.035c-0.18-2.366-1.693-4.758,0.139-7.084c5.531,2.138,9.096,7.078,14.225,9.889
		c4.332,2.374,9.437,2.729,13.429,5.917c-8.845,0.088-17.162-1.798-25.4-6.082c1.26,2.089,2.521,4.179,3.779,6.268l-0.004-0.004
		c2.018,8.382,9.989,9.117,15.842,12.707c-8.236-1.077-15.9-3.49-21.935-9.713c-1.896-2.172-0.657-4.365,0.109-6.438
		C787.723,321.577,788.406,319.81,786.83,318.035z"/>
	<path fill="#989A98" d="M786.891,265.909c6.01-5.554,13.722-6.524,21.279-8.033c9.723-1.938,19.279-0.421,28.865,0.951
		c3.299,0.994,6.598,1.989,9.896,2.983c1.627,1.481,3.979,2.055,5.144,4.114c-1.814,1.337-3.506,0.238-5.187-0.317
		c-18.278-6.042-36.545-5.996-54.817,0.016C790.391,266.176,788.695,267.278,786.891,265.909z"/>
	<path fill="#8F8F8F" d="M786.973,332.936c6.344,5.299,13.168,9.818,20.904,12.848c0.918,0.358,2.143,0.527,1.859,1.829
		c-0.365,1.682-1.613,1.05-2.765,0.845c-7.557-1.35-14.668-3.598-20.049-9.518c-2.725-0.737-1.547-2.483-1.047-4.055
		C786.242,334.236,786.607,333.585,786.973,332.936z"/>
	<path fill="#8F8F8F" d="M822,362.94c0.647,1.729,1.297,3.458,1.943,5.188c-6.712-3.5-13.23-7.302-19.111-12.114
		c4.293,0.526,8.098,3.163,12.842,2.194C820.342,357.664,820.488,361.359,822,362.94z"/>
	<path fill="#989A98" d="M878.004,401.853c0.121-1.478,1.16-1.668,2.375-1.998c3.666-1,7.439-1.891,10.645-3.994
		c3.479-2.283,6.777-4.891,6.197-9.91c1.773,7.986-6.688,16.219-17.151,16.988C879.381,402.577,878.691,402.214,878.004,401.853z"/>
	<path fill="#68A97D" d="M785.877,334.885c0.316,1.36-0.363,2.979,1.049,4.055c0.682,2.287,1.35,4.577,1.062,7.011
		c-0.697-0.374-1.478-0.648-2.08-1.139C779.957,339.982,779.965,339.972,785.877,334.885z"/>
	<path fill="#959B97" d="M884.812,405.021c4.963-0.076,8.052-3.685,11.845-6.797c-0.396,5.451-5.697,6.16-7.638,9.645
		C887.439,407.181,885.732,406.681,884.812,405.021z"/>
	<path fill="#61C381" d="M647.007,234.936c0.829-0.018,1.573-0.204,2.007-1.009c3.709,2.822,6.771,6.277,9.611,10
		C654.334,241.457,650.242,238.759,647.007,234.936z"/>
	<path fill="#62C482" d="M700.477,123.043c1.558,0.089,2.633,1.125,3.088,2.539c0.312,0.97-0.666,1.434-1.532,1.153
		c-1.343-0.434-3.037-0.675-3.382-2.325C698.49,123.65,699.479,123.139,700.477,123.043z"/>
	<path fill="#6AC888" d="M447.938,488.903c10.553,3.91,20.452,9.262,30.685,13.883c16.174,7.303,32.305,14.703,48.458,22.053
		c20.225,9.201,40.458,18.388,60.668,27.619c0.539,0.246,0.854,0.978,1.276,1.48c0.214,3.471-2.668,5.207-4.454,7.395
		c-6.417,7.857-12.983,15.594-19.42,23.438c-4.515,5.5-5.82,5.69-11.442,1.477c-26.897-20.164-53.781-40.344-80.605-60.604
		c-10.617-8.021-21.25-16.029-31.854-24.07c-5.18-3.928-5.171-4.604,0.187-7.771C443.827,492.388,444.518,488.829,447.938,488.903z"
		/>
	<path fill="#649574" d="M429.993,481.851c-22.007,9.588-44.021,19.159-66.009,28.789c-2.196,0.961-3.219,1.2-4.601-1.613
		c-7.365-15-13.621-30.482-20.378-45.744c-4.139-9.35-8.809-18.477-12.125-28.182c3.017-1.777,5.114,0.815,7.404,1.787
		c6.653,2.815,13.15,6.002,19.71,9.043c5.861,9.924,10.354,20.481,13.917,31.397c0.972,2.979,1.821,3.299,4.41,2.156
		c7.922-3.494,15.998-6.637,23.927-10.119c1.848-0.812,3.661-1.611,5.74-1.424c2.106,1.742,5.485,1.246,7.021,3.99
		c-1.879,3.495-5.624,3.926-8.79,5.104c-8.863,3.305-17.407,7.326-26.033,11.164c-1.781,0.793-3.715,1.504-4.493,4.021
		c2.818-0.603,5.032-2.099,7.415-3.156c11.084-4.933,22.462-9.164,33.554-14.078c1.369-0.605,2.793-1.103,4.336-1.045
		c4.382,1.973,8.741,4,13.164,5.877C429.198,480.261,429.885,480.716,429.993,481.851z"/>
	<path fill="#46BB6D" d="M447.938,488.903c-2.771,2.486-4.489,5.979-8.538,7.277c-2.594,0.829-0.25,2.434,0.675,3.137
		c10.275,7.807,20.642,15.496,30.944,23.268c24.709,18.638,49.395,37.306,74.099,55.947c3.964,2.992,8.028,5.85,11.953,8.893
		c2.525,1.959,3.918,0.279,5.331-1.407c7.543-9.005,15.065-18.025,22.584-27.052c1.375-1.651,2.693-3.35,4.039-5.026
		c3.177,0.008,6.554,1.274,7.829,3.537c0.813,1.44-2.37,4.202-4.065,6.188c-11.529,13.492-23.091,26.957-34.456,40.586
		c-2.311,2.771-3.21,2.433-4.521-0.578c-0.639-1.467-1.762-2.873-3.002-3.897c-10.21-8.453-20.5-16.812-30.766-25.199
		c-14.37-11.738-28.724-23.498-43.118-35.207c-9.25-7.523-18.561-14.973-27.843-22.455c-0.263-1.41,0.368-3.035-1.003-4.182
		c-1.69-0.584-2.745-1.933-3.458-3.398c-3.158-6.494-8.81-9.062-15.475-10.219c-2.236-0.387-4.665-0.377-6.392-2.264
		c3.101-4.632,6.202-9.263,9.304-13.894c1.031-0.469,1.956-1.031,3.222-0.375C439.465,484.753,443.713,486.806,447.938,488.903z"/>
	<path fill="#4AA86A" d="M401.989,467.942c-10.717,4.686-21.435,9.365-32.147,14.059c-1.316,0.576-2.632,1.16-2.806-1.071
		c-0.812-10.386-7.179-18.673-10.6-28.068c-0.838-2.303-2.656-4.254-2.44-6.93c5.91,2.17,11.777,4.428,17.021,8.016
		c3.448,2.461,4.518,6.459,6.215,9.982c1.333,2.764,2.841,3.182,5.449,1.862c2.622-1.324,5.136-3.131,8.331-2.832
		C394.8,464.337,398.821,465.2,401.989,467.942z"/>
	<path fill="#9C8D7B" d="M448.011,524.89c-0.13,5.651-2.394,8.131-8.358,10.006c-8.42,2.647-16.992,2.108-25.634,1.637
		c8.531-1.332,17.421-1.484,24.303-7.896c-8.289,3.568-16.967,5.152-25.853,4.207c-8.332-0.885-17.761,0.091-22.312-9.772
		c5.622,3.022,11.379,5.233,17.828,5.994c8.709,1.026,17.061-0.062,25.389-2.369c4.255-1.178,8.651-1.871,12.69-3.771
		C447.321,522.979,447.961,523.644,448.011,524.89z"/>
	<path fill="#69C888" d="M321.979,352.973c-4.098-6.062-6.652-12.929-10.099-19.331c-0.781-1.45-0.688-3.08,1.242-2.561
		c5.633,1.516,9.297-2.226,13.567-4.457c3.084-1.611,6.219-3.126,9.33-4.684c-1.414,7.096-5.929,12.861-8.408,19.526
		C326.136,345.431,325.009,349.711,321.979,352.973z"/>
	<path fill="#84B895" d="M562.395,615.237c-1.435-3.764,0.605-6.332,2.588-8.678c12.182-14.404,24.469-28.72,36.709-43.074
		c1.188-1.396,2.506-3.32,4.366-1.66c1.966,1.754-0.484,2.84-1.422,3.957c-12.001,14.328-24.025,28.637-36.091,42.91
		C566.643,610.942,564.511,612.997,562.395,615.237z"/>
	<path fill="#77AD88" d="M414.999,473.944c-7.328,3.32-14.5,7.063-22.031,9.836c-6.53,2.402-12.766,5.365-19.062,8.232
		c-1.969,0.896-3.855,1.713-6.299,1.465c1.016-3.203,3.055-5.152,6.053-6.418c11.807-4.988,23.57-10.076,35.352-15.125
		C411.256,471.862,413.432,471.997,414.999,473.944z"/>
	<path fill="#65B37E" d="M391.011,462.96c-0.239,0.226-0.444,0.588-0.722,0.656c-4.159,1.025-8.115,5.934-11.716,4.053
		c-3.021-1.576-4.077-6.918-5.995-10.598c-0.538-1.033-1.043-2.082-1.562-3.125C377.995,456.255,384.615,459.358,391.011,462.96z"/>
	<path fill="#649474" d="M617.008,488.946c-12.617,5.301-25.538,6.133-38.732,2.553c-11.49-3.119-22.154-8.141-31.628-15.281
		c-13.049-9.838-24.693-21.057-31.686-36.26c3.844-5.584,10.003-8.385,15.1-12.457c1.728-1.381,3.521,0.086,4.989,1.117
		c24.245,17.045,49.089,33.17,74.448,48.5C614.073,479.884,617.984,482.79,617.008,488.946z"/>
	<path fill="#84B895" d="M391.975,316.945c-0.007-0.336-0.014-0.673-0.021-1.009c1.802-3.243,3.134,0.129,3.92,0.666
		c12.461,8.51,24.794,17.208,37.114,25.925c16.379,11.589,32.721,23.229,49.079,34.849c29.634,21.051,60.031,40.976,90.27,61.131
		c28.731,19.15,58.416,36.783,88.244,54.146c30.018,17.471,60.567,33.99,91.469,49.869c23.363,12.006,46.48,24.485,69.689,36.789
		c2.53,1.342,5.332,2.536,6.36,6.838c-11.784-6.131-22.748-11.779-33.655-17.531c-8.216-4.33-16.275-8.957-24.548-13.168
		c-22.819-11.619-45.305-23.865-67.881-35.941c-33.53-17.936-65.944-37.762-98.479-57.407
		c-25.432-15.355-49.925-32.119-74.573-48.65c-25.894-17.365-51.328-35.404-76.667-53.575
		c-17.773-12.746-35.764-25.19-53.636-37.799C396.367,320.456,394.201,318.658,391.975,316.945z"/>
	<path fill="#54B172" d="M450.999,369.944c-0.988,13.829-11.269,25.391-28.939,21.668c-4.204-0.885-5.854,0.074-6.837,3.777
		c-0.338,1.275-0.939,2.48-1.416,3.719c-0.725,1.891-2.101,1.092-3.347,0.812c-1.608-0.36-2.305-1.157-1.522-2.856
		c0.556-1.203,0.758-2.592,1.43-3.711c2.305-3.842,0.499-5.803-2.853-7.707c-10.279-5.842-13.847-16.571-9.706-27.747
		c0.934-2.516,1.886-2.919,4.377-1.955c4.093,1.583,6.652,3.171,4.956,8.493c-1.89,5.926,1.148,10.55,5.931,14.107
		c1.167,0.867,2.319,1.857,3.109-0.121c3.492-8.743,8.146-17.06,9.807-26.482c2.749,0.613,4.096,3.673,7.002,4.011
		c0.244,0.265,0.344,0.544,0.301,0.837c-0.044,0.301-0.103,0.451-0.165,0.453c-4.382,6.5-6.414,14.084-9.654,21.111
		c-0.926,2.01,0.176,3.135,2.293,3.271c4.343,0.281,8.35-0.508,10.966-4.352c2.785-4.091,3.729-8.394,0.866-12.989
		c-1.073-1.723-3.331-2.958-2.63-5.544c0.728-0.433,1.396-0.32,2.02,0.209C440.952,363.513,446.86,365.601,450.999,369.944z"/>
	<path fill="#5CB177" d="M425.993,351.951c-3.243-1.236-5.907-3.245-8.015-5.999C421.663,346.599,424.217,348.755,425.993,351.951z"
		/>
	<path fill="#5CB177" d="M436.987,358.949c-0.669-0.003-1.339-0.005-2.008-0.007c-1.59,0.276-2.261-0.374-1.988-1.975
		c0-0.339,0-0.677-0.001-1.016C434.461,356.767,436.271,357.127,436.987,358.949z"/>
	<path fill="#9C8E7B" d="M422.754,496.849c11.387,0.6,20.835,4.289,25.323,15.883c-0.236,5.842-2.326,8.287-8.892,9.992
		c-13.816,3.59-27.361,3.469-40.89-3.693c2.884,4.992,7.891,5.328,12.967,7.943c-6.631-0.767-11.94-1.562-16.896-3.888
		c-3.475-1.631-4.495-4.658-4.45-8.229c0-0.002-0.002,0.043-0.002,0.043c1.309-1.363,2.108-3.379,4.807-1.752
		c14.199,8.559,28.977,8.059,43.998,2.428c0.453-0.17,0.838-0.523,1.483-0.477c-13.912,5.383-27.748,6.092-41.627,0.323
		c-2.323-0.965-4.42-2.264-5.727-4.537c-2.193-4.569,1.119-6.877,4.086-8.805c6.136-3.986,13.093-5.287,20.355-5.127
		C419.111,496.997,420.933,496.888,422.754,496.849z"/>
	<path fill="#A29582" d="M392.851,510.888c16.698,10.524,33.625,8.989,51.173,1.237c-3.962,5.238-9.763,6.523-15.467,7.773
		c-10.85,2.373-21.319,0.688-31.387-3.683c-2.385-1.034-4.104-4.768-7.254-1.315C390.097,512.979,391.588,512.017,392.851,510.888z"
		/>
	<path fill="#8E8E8E" d="M886,349.939c-8.865,9.02-20.463,10.277-32.105,10.932c-11.151,0.628-22.237-0.059-32.879-4.038
		c-6.842-2.559-10.063-6.449-9.717-12.475c10.66,9.254,23.334,11.181,36.566,11.64c11.688,0.405,22.557-3.21,33.619-6.021
		c1.456-0.37,3.004-1.968,4.514-0.033L886,349.939z"/>
	<path fill="#8E8E8E" d="M793,326.943c0.094-1.457,0.822-1.525,1.981-1.004c4.839,2.174,9.867,3.726,15.037,4.936
		c2.062,0.481,3.517,2.313,6.226,0.633c1.151-0.715,3.942,2.17,4.336,4.092c1.91,9.357,9.897,11.189,16.918,14.251
		c1.469,0.641,3.11,0.877,4.565,1.713c-9.34-0.688-18.637-1.49-26.825-6.812c-1.88-1.222-4.062-2.983-3.904-4.846
		c0.342-4.071-2.172-4.408-4.859-4.966c-5.416-1.122-9.553-4.378-13.479-8L793,326.943z"/>
	<path fill="#8E8E8E" d="M781.975,303.932c-2.313-4.75,0.336-7.569,3.9-10.033c4.107-0.771,5.59,2.175,7.125,5.041
		c1.076,5.702,5.732,7.736,10.211,9.926c6.268,3.064,13.17,3.851,19.832,5.521C808.348,314.865,793.715,315.119,781.975,303.932z"/>
	<path fill="#9C8E7B" d="M390.854,531.831c3.905-1.225,6.977,1.068,10.085,2.639c15.893,8.023,31.387,7.238,47.103-1.877
		c-0.681,3.609-3.097,5.222-5.896,6.146c-14.686,4.854-29.146,4.82-43.108-2.252c2.731,4.445,7.292,6.387,18.783,8.072
		c-7.347,0.7-14.611,0.729-21.546-2.486c-5.882-2.727-6.692-4.219-5.385-10.273C390.889,531.798,390.854,531.831,390.854,531.831z"
		/>
	<path fill="#9D8F7C" d="M392.955,547.009c-0.035-2.614,0.499-5.547,3.588-2.606c7.224,6.871,15.944,8.771,25.41,8.998
		c-10.421,1.147-20.332,0.115-29.014-6.435C392.938,546.966,392.955,547.009,392.955,547.009z"/>
	<path fill="#9D8E7B" d="M448.073,560.843c-0.237,5.736-2.441,8.16-8.348,10.041c-8.415,2.681-16.99,2.045-25.602,1.548
		c5.505-0.214,10.931-1.052,16.358-1.824c7.08-1.008,11.97-6.078,17.603-9.758C448.087,560.849,448.073,560.843,448.073,560.843z"/>
	<path fill="#9D8E7B" d="M448.121,559.032c-5.223,3.23-10.629,5.898-17.039,5.609c5.123-1.629,9.992-3.779,14.314-6.957
		c2.188-1.607,2.749-0.875,2.706,1.41C448.103,559.097,448.121,559.032,448.121,559.032z"/>
	<path fill="#8E8E8E" d="M786.891,265.909c15.228-6.258,30.99-7.255,47.146-5.021c6.271,0.866,12.123,3.014,18.039,5.037
		c0.627,0.003,1.254,0.006,1.881,0.01c0.688,0.689,1.381,1.379,2.069,2.069c0.332,1.294,0.662,2.587,0.992,3.88
		c0.734,5.735-3.172,8.416-7.336,10.665c-6.395,3.452-13.551,4.699-20.604,5.203c-10.761,0.771-21.558,0.431-32.158-2.303
		c-5.816-1.499-10.693-4.392-14.938-8.518C779.463,271.407,783.047,268.6,786.891,265.909z"/>
	<path fill="#8E8E8E" d="M781.975,285.931c-1.239-2.001-1.285-3.995,0.039-5.98c14.474,15.357,56.219,16.648,74.461,0.748
		c1.06,1.688,0.271,3.527,0.523,5.241c-8.846,8.998-20.418,10.283-32.035,10.909c-8.246,0.445-16.514,0.265-24.707-1.602
		C793.295,293.661,787.008,291.126,781.975,285.931z"/>
	<path fill="#67A77C" d="M590.975,388.968c-2.815-14.917,0.131-28.583,9.871-40.258c14.175-16.992,33.255-23.882,54.751-25.193
		c30.91-1.885,57.836,8.203,79.646,29.632c17.27,16.969,21.936,38.841,10.295,60.401c-6.418,11.888-16.974,19.96-29.232,25.312
		c-8.959,3.91-18.475,6.348-28.328,7.041c-1.653-1.842-1.295-4.084-1.043-6.195c1.027-8.617,0.638-17.315,1.578-25.926
		c0.359-3.287-0.895-5.58-2.906-8.08c-9.004-11.189-21.694-17.289-33.491-24.584c-4.611-2.852-10.416-1.943-15.48-3.646
		c-1.567-0.525-3.367-0.422-4.848-1.164c-8.294-4.164-15.881-2.729-23.386,2.242C602.765,382.28,595.685,383.641,590.975,388.968z"
		/>
	<path fill="#649474" d="M590.975,388.968c-0.25-2.359,1.033-3.566,3.026-4.566c7.718-3.873,15.359-7.896,23.055-11.814
		c2.194-1.117,4.562-0.956,6.776-0.154c7.641,2.767,15.438,4.771,23.545,5.609c4.451,0.461,7.969,3.275,11.598,5.498
		c6.59,4.041,13.156,8.215,19.232,12.973c4.15,3.25,7.92,7.254,10.984,11.545c2.396,3.354,0.217,7.723,0.166,11.612
		c-0.111,8.748-0.882,17.488-1.382,26.23c-14.985,0.731-29.772,0.004-44.016-5.449c-17.324-6.635-32.604-16.229-43.928-31.147
		C595.517,403.354,593.351,396.04,590.975,388.968z"/>
	<path fill="#54B172" d="M551.557,230.955c5.825-0.376,10.408,1.979,14.562,5.124c2.881,2.183,4.909,2.28,6.874-1.015
		c0.795-1.333,1.652-3.965,3.881-1.976c1.628,1.453,4.229,3.421,0.665,5.862c-3.548,2.43-3.166,4.972-0.528,8.159
		c9.758,11.791,6.669,29.206-4.241,37.722c-7.538,5.883-18.762,6.203-27.977-0.874c-3.117-2.394-4.773-1.893-6.987,0.641
		c-5.458,6.245-10.99,12.427-16.538,18.592c-2.392,2.657-0.676,4.202,1.439,5.56c5.477,3.515,12.854,3.07,17.458-1.642
		c2.958-3.027,4.59-3.053,7.217,0.342c4.689,6.063,4.854,6.193-1.5,10.548c-9.729,6.666-17.658,7.009-27.584-0.103
		c-4.79-3.432-7.774-3.37-11.245,1.283c-0.94,1.263-1.933,4.593-4.891,2.366c-2.537-1.908-2.506-3.758-0.203-6.156
		c5.915-6.159,5.813-6.256,0.77-13.328c-9.846-13.806-2.497-36.392,13.598-41.165c5.857-1.738,11.307,0.725,16.668,3
		c3.458,1.468,6.679,5.431,10.1,4.364c3.044-0.95,5.228-4.859,7.638-7.597c3.284-3.728,6.355-7.644,9.646-11.364
		c2.354-2.661,0.921-3.855-1.437-5.297c-5.417-3.315-10.259-1.481-14.854,1.528c-5.778,3.787-6.58-2.653-9.106-4.652
		c-2.856-2.261,1.07-3.498,2.365-4.626C541.455,232.669,546.176,230.321,551.557,230.955z"/>
	<path fill="#54B172" d="M793.604,454.927c4.175-0.022,8.32,0.57,12.197,1.939c3.104,1.096,5.033,0.414,6.752-2.123
		c3.527-5.213,7.072-10.416,10.691-15.566c2-2.848,1.287-3.875-2.09-4.413c-4.435-0.71-8.084,0.493-11.595,3.024
		c-1.881,1.355-3.45,3.414-6.537,1.771c-5.555-2.957-5.844-3.511-1.317-7.806c6.729-6.387,14.574-8.129,23.408-5.254
		c3.479,1.133,6.725,1.943,8.6-2.582c0.703-1.694,2.289-1.723,3.773-0.699c1.75,1.211,1.993,2.814,0.442,4.168
		c-3.112,2.722-1.354,4.589,0.912,6.353c8.398,6.537,8.865,17.646,6.039,23.271c-5.475,10.896-14.213,15.431-24.498,13.203
		c-10.725-2.319-10.717-2.315-16.871,6.854c-2.676,3.99-5.248,8.059-8.131,11.895c-1.6,2.127-0.9,2.701,1.211,3.32
		c6.953,2.041,12.846,0.34,17.523-5.078c3.844-4.453,6.354,0.215,8.711,1.566c2.828,1.625,0.086,3.657-1.316,5.131
		c-8.416,8.84-17.487,11.119-28.315,6.449c-3.328-1.435-5.158-1.117-6.902,1.782c-0.682,1.136-1.516,2.179-2.295,3.25
		c-1.303,1.795-2.793,1.336-4.346,0.367c-2.004-1.252-0.8-2.59-0.039-3.791c3.83-6.039,3.979-6.162-1.312-11.147
		c-6.092-5.744-8.158-12.675-5.395-20.353C776.836,459.538,783.547,454.905,793.604,454.927z"/>
	<path fill="#54B172" d="M687.025,218.808c-0.609-3.487,0.557-7.008,2.028-10.346c1.324-3.005,0.537-4.599-2.379-5.704
		c-2.059-0.781-4.031-1.599-2.348-4.659c1.67-3.038,3.219-1.979,5.102-0.494c2.906,2.294,5.062,1.628,7.314-1.304
		c7.096-9.232,16.444-11.729,27.412-8.293c1.916,0.6,5.729,1.392,3.729,4.044c-1.861,2.473-0.729,9.478-7.416,6.617
		c-2.594-1.11-5.346-1.104-7.852-0.544c-3.722,0.831-8.195,2.325-8.894,6.219c-0.528,2.948,3.972,3.681,6.402,5.155
		c4.969,3.013,10.031,5.871,14.955,8.953c2.178,1.363,3.76,1.41,5.608-0.615c2.228-2.442,4.976-4.432,7.326-6.708
		c12.224-11.828,27.359-5.147,35.801,5.552c5.517,6.992,5.632,15.008,3.039,23.104c-2.323,7.261-2.506,7.202,4.015,11.083
		c1.137,0.677,2.461,1.175,3.358,2.089c1.232,1.256,0.027,2.505-0.631,3.573c-1.168,1.897-2.719,1.312-4.348,0.536
		c-8.066-3.846-7.851-3.598-14.394,2.831c-9.036,8.881-19.973,9.017-30.752,3.435c-1.614-0.836-2.131-2.111-1.293-4.158
		c2.535-6.199,4.242-7.095,10.283-4.704c6.144,2.431,14.221-0.056,17.719-5.359c1.162-1.762,0.347-2.876-1.047-3.695
		c-8.016-4.716-16.055-9.393-24.123-14.019c-2.102-1.205-3.119,0.398-4.524,1.727c-4.193,3.959-8.265,7.984-14.076,9.916
		C701.746,248.126,685.178,233.122,687.025,218.808z"/>
	<path fill="#60C080" d="M533.988,171.931c-5.033,2.334-8.486,6.661-12.531,10.191c-5.557,4.85-6.354,4.798-8.394-2.434
		c-1.521-5.39,0.062-9.794,4.631-12.898c4.433-3.011,10.542-3.127,14.383-0.116c1.641,1.286,3.717,2.624,1.913,5.258
		L533.988,171.931z"/>
	<path fill="#69C888" d="M432.992,356.967c0.663,0.658,1.326,1.316,1.988,1.975c4.592,4.997,7.912,10.146,3.974,17.264
		c-2.97,5.367-9.785,8.502-15.654,6.629c-1.448-0.463-2.424-1.24-1.759-2.898c3.006-7.501,6.021-15,9.161-22.445
		C430.88,357.071,432.202,357.131,432.992,356.967z"/>
	<path fill="#629E76" d="M659.664,371.67c-1.787-1.606-4.59-1.037-4.469-4.075c0.12-3.081,3.411-3.677,4.176-6.125
		c0.955,0.873,3.029,0.424,2.436,3.082C661.252,367.04,658.932,368.695,659.664,371.67z"/>
	<path fill="#619D75" d="M673.002,369.044c0,1.448-0.428,3.093,0.121,4.289c0.551,1.203-1.506,4.742,2.608,3.521
		c0.421-0.125,0.832,1.551,0.554,2.623c-0.42,1.615-0.752,3.383,0.643,4.664c0.957,0.877,1.719,1.346,0.301,2.504
		c-1.528,1.248-1.498-0.523-2.067-0.961c-3.008-2.301-2.992-5.947-3.535-9.148c-0.396-2.335,0.377-4.867,0.629-7.311
		C672.504,369.164,672.752,369.105,673.002,369.044z"/>
	<path fill="#619C74" d="M685.219,393.913c-0.731-1.754-1.037-3.543-0.451-5.312c0.111-0.336-0.278-2.545,1.076-1.061
		c0.568,0.619,3.18-0.312,1.771,1.693C686.541,390.761,687.385,392.979,685.219,393.913z"/>
	<path fill="#619C75" d="M677.195,362.739c2.858,0.954-0.438,4.798,3.043,5.15c-0.068,0.425,0.012,0.996-0.234,1.244
		c-0.574,0.578-1.318,0.271-1.779-0.185C676.449,367.194,675.643,365.221,677.195,362.739z"/>
	<path fill="#619C75" d="M688.514,371.112c1.023,2.36,1.711,3.948,2.479,5.717c-2.027,0.039-4.041-0.596-4.851-2.051
		C685.441,373.517,687.994,373.022,688.514,371.112z"/>
	<path fill="#609973" d="M682.256,376.659c0-2.561,0-5.124,0-7.685c0.166,0.002,0.334,0.003,0.5,0.005c0,2.587,0,5.174,0,7.76
		C682.59,376.714,682.422,376.686,682.256,376.659z"/>
	<path fill="#69C888" d="M508.887,289.468c0.064-8.365,3.326-12.982,9.367-15.615c5.826-2.538,10.444,1.021,15.248,3.389
		c1.188,0.586,1.059,1.484,0.307,2.447c-0.813,1.042-1.423,2.266-2.33,3.211c-4.81,5.01-9.863,9.796-13.888,15.512
		c-2.004,2.847-3.962,2.422-5.736-0.217C509.755,295.072,508.739,291.62,508.887,289.468z"/>
	<path fill="#69C888" d="M572.003,262.766c-0.125,11.302-9.438,17.564-19.257,12.951c-4.336-2.036-4.486-3.252-1.238-6.83
		c3.998-4.405,7.97-8.846,11.721-13.46c3.328-4.094,4.128-4.174,6.979,0.282C571.955,258.444,572.047,258.805,572.003,262.766z"/>
	<path fill="#69C888" d="M781.979,477.29c0.25-11.746,11.297-14.613,20.162-11.711c1.24,0.406,2.017,1.187,1.031,2.621
		c-4.221,6.145-8.387,12.324-12.643,18.441c-1.062,1.526-2.339,1.586-3.701,0.11C784.207,483.919,781.5,481.167,781.979,477.29z"/>
	<path fill="#69C888" d="M821.838,460.958c-0.451-0.049-1.975-0.016-3.383-0.408c-1.906-0.528-2.726-1.396-1.139-3.51
		c3.754-5,7.315-10.149,10.754-15.373c1.67-2.535,2.869-2.442,4.891-0.354c3.594,3.717,3.873,7.856,2.146,12.352
		C832.961,459.251,828.5,461.124,821.838,460.958z"/>
	<path fill="#69C888" d="M768.064,232.186c-0.112,1.224-0.108,2.066-0.276,2.873c-1.385,6.576-2.199,6.847-8.023,3.358
		c-5.11-3.061-10.348-5.915-15.533-8.85c-6.43-3.64-6.452-3.926-0.604-8.487c9.469-7.384,20.863-3.556,23.928,8.06
		C767.848,230.251,767.939,231.416,768.064,232.186z"/>
	<path fill="#69C888" d="M712.193,232.509c-10.4,0.244-17.691-10.959-13.896-19.137c0.885-1.904,1.822-2.557,3.775-1.417
		c6.731,3.932,13.498,7.81,20.266,11.681c1.27,0.728,1.816,1.601,0.547,2.681C719.363,229.317,716.047,232.772,712.193,232.509z"/>
</g>
</svg>
