<svg xmlns="http://www.w3.org/2000/svg" width="667" height="421" viewBox="0 0 667 421"><path fill="#4A4A4A" d="M1 415V8c.513-4.154 2.846-6.487 7-7h653c4.154.513 6.487 2.846 7 7v289c-3.014 2.475-5.795.432-8.35-.75-9.357-4.325-18.73-8.62-28.09-12.938-33.21-15.32-66.46-30.553-99.653-45.91-23.388-10.82-46.83-21.526-70.18-32.427-11.896-5.552-23.964-10.73-35.684-16.674-.885-1.034-1.75-2.083-2.482-3.234-3.068-5.498-3.46-11.744-4.728-17.702-8.797-41.35-17.523-82.714-26.21-124.087-.91-4.333-3.04-6.136-7.526-6.058-10.157.177-20.32.05-30.482.054-9.234.005-9.277.005-11.41 8.78-8.06 33.162-15.946 66.365-23.948 99.54-2.693 11.167-5.176 22.385-8.065 33.504-.8 3.085-1.68 6.1-4.28 8.246-6.59 1.438-8.313.18-8.392-6.255-.07-5.806.133-11.616-.078-17.415-.126-3.46-.593-6.946-2.672-9.923-1.985-1.66-4.384-1.38-6.69-1.414-6.822-.097-13.65.178-20.465-.16-5.058-.25-6.48-1.68-6.777-6.67-.286-4.82-.214-9.647.01-14.47.185-4.028 2.263-6.03 6.28-6.21 6.32-.278 12.645.002 18.965-.194 5.266-.163 6.417-1.294 6.54-6.59.142-6.155.163-12.316-.013-18.47-.14-4.942-1.315-6.052-6.365-6.204-6.153-.187-12.316.132-18.467-.177-5.284-.265-6.665-1.696-6.98-7.008-.208-3.49-.218-6.99.014-10.48.348-5.222 1.765-6.646 7.143-6.896 6.65-.31 13.31-.05 19.965-.147 6.616-.1 7.634-1.056 7.726-7.452.083-5.82.135-11.648-.028-17.47-.14-5.067-1.256-6.312-6.21-6.35-19.47-.144-38.94-.104-58.407-.026-1.86.008-3.672.22-5 1.757-2.067 4.327-2.522 8.918-2.52 13.623.02 41.64.014 83.277.01 124.917 0 10.518-1.23 11.536-12.096 10.1-.9-.336-1.642-.883-2.18-1.68-7.555-11.837-12.38-25.036-18.438-37.616-5.63-11.69-11.21-23.427-16.397-35.338-1.734-3.98-1.635-7.544.13-11.484 8.71-19.45 17.453-38.887 26.142-58.348 2.17-4.863 1.5-5.945-3.766-5.99-8.83-.08-17.666.12-26.492-.076-4.827-.107-7.15 2.07-8.674 6.462-5.19 14.944-10.98 29.67-16.45 44.516-.346.938-.703 1.87-1.13 2.776-.807 1.716-1.814 3.513-3.983 3.03-1.883-.418-2.26-2.34-2.264-4.05-.036-13.147-1.062-26.336.534-39.43 1.483-12.18.797-13.256-11.38-13.255-6.33 0-12.663-.063-18.994.025-5.864.083-6.71.872-6.75 6.653-.095 13.33-.03 26.66-.034 39.99-.01 30.992.03 61.984-.038 92.977-.007 3.264.553 6.777-2.476 9.293-5.36 1.895-10.858 1.095-16.304.712-2.5-.176-3.736-1.938-3.876-4.437-.104-1.832-.08-3.665-.08-5.497-.004-41.486-.01-82.974.004-124.46 0-4.702-.418-9.303-2.645-13.542-1.417-1.433-3.234-1.615-5.095-1.632-8-.07-16-.138-23.998.02-5.163.104-6.348 1.325-6.397 6.727-.14 15.5-.05 30.998-.053 46.498-.006 28.165-.025 56.33.026 84.497.005 2.933-.563 6.108 2.24 8.312 9.946 6.116 21.032 9.84 31.52 14.826 15.773 7.5 31.674 14.75 47.555 22.035 29.792 13.666 59.493 27.53 89.257 41.258 19.338 8.92 38.663 17.87 57.973 26.853 30.325 14.104 60.676 28.153 91.05 42.152 19.342 8.915 38.637 17.932 57.97 26.864 30.357 14.023 60.68 28.12 91.05 42.114 12.847 5.92 25.67 11.89 38.507 17.83 1.9.88 4.064 1.813 3.532 4.655h-544c-4.156-.513-6.49-2.846-7.002-7z"/><path fill-rule="evenodd" clip-rule="evenodd" fill="#5C5C5C" d="M211.926 185.978c12.675-.14 10.868 1.597 10.887-10.737.07-44.53.015-89.064.063-133.598.002-2.233-.786-4.692 1.107-6.648 2.938 2.365 2.285 5.733 2.294 8.81.083 27.152.036 54.304.044 81.455.006 16.656-.04 33.313.023 49.97.028 7.443.975 8.402 8.362 8.427 17.823.06 35.646.056 53.47.002 7.52-.023 8.404-.933 8.487-8.276.07-6.33-.056-12.66.075-18.99.05-2.342.08-4.71 2.183-6.356 1.523 1.464 1.12 3.375 1.13 5.152.036 7.944.01 15.888.018 23.832.006 7.05.012 7.05 7.18 6.894 1.697-1.89 3.97-2.128 6.298-2.166 5.568-.09 11.136-.118 16.702.085 29.297 3.52 58.71.832 88.06 1.658 2.982.084 6.007-.198 8.706 1.49 12.24 4.385 23.708 10.512 35.512 15.868 33.32 15.124 66.52 30.522 99.746 45.852 23.26 10.732 46.422 21.684 69.762 32.24C643.994 286.348 655.59 292.594 668 297v118c-.513 4.154-2.846 6.487-7 7H552c-9.654-5.607-20.085-9.604-30.124-14.41-15.458-7.4-31.14-14.334-46.7-21.52-35.205-16.258-70.405-32.524-105.586-48.832-24.764-11.48-49.468-23.088-74.243-34.544-37.914-17.532-75.884-34.942-113.794-52.48-25.226-11.672-50.37-23.52-75.586-35.21-19.93-9.24-39.914-18.36-59.866-27.55-.746-.343-1.414-.86-2.118-1.3 1.303-2.646 3.845-2.306 6.098-2.382 6.646-.225 13.3-.01 19.947-.124 6.412-.11 7.578-1.203 7.61-7.636.105-20.447.032-40.895.042-61.342.01-23.606-.043-47.212.045-70.817.012-3.07-.652-6.427 2.22-8.828 1.86 1.97 1.116 4.427 1.118 6.673.044 45.44.03 90.884.035 136.325 0 6.97.012 6.97 6.757 6.99 3.995.01 7.99.015 11.984.022l.87-.21c5.96-.707 11.94-.29 17.906-.29 7.467 0 14.92.036 22.296-1.364.606.005 1.21 0 1.817-.04 8.006-1.23 15.857.89 23.8 1.08 13.41.535 26.82.197 40.227.292 1.89.014 3.588.482 5.17 1.476z"/><path fill-rule="evenodd" clip-rule="evenodd" fill="#F0F1F0" d="M668 8c-1.65-3.017-4.026-5.307-7-7 7 0 7 0 7 7z"/><path fill-rule="evenodd" clip-rule="evenodd" fill="#F1F1F1" d="M8 1C5.03 2.697 2.648 4.98 1 8c0-7 0-7 7-7z"/><path fill-rule="evenodd" clip-rule="evenodd" fill="#F0F0F0" d="M1 415c1.656 3.01 4.013 5.32 7 7-7 0-7 0-7-7z"/><path fill-rule="evenodd" clip-rule="evenodd" fill="#F2F2F2" d="M661 422c2.978-1.688 5.353-3.98 7-7 0 7 0 7-7 7z"/><path fill-rule="evenodd" clip-rule="evenodd" fill="#79CCA2" d="M99.837 185.036c.054-31.304.12-62.607.16-93.91.02-17.153.11-34.306-.08-51.456-.042-3.77 1.098-4.828 4.803-4.75 10.82.228 21.652.28 32.467-.02 4.18-.116 5.15 1.46 4.844 5.18-1.307 15.91-1.036 31.86-1.03 47.805 0 1.62 0 3.24.988 5.118 2.693-7.298 5.36-14.605 8.084-21.89 4.152-11.102 8.347-22.187 12.52-33.28.504-1.34.574-2.854 2.738-2.843 13.925.074 27.85.038 42.508.038-4.43 9.962-8.552 19.273-12.706 28.57-6.12 13.7-12.234 27.403-18.424 41.07-.987 2.18-.757 4.064.22 6.15 9.433 20.183 18.826 40.383 28.193 60.596 2.077 4.48 4.003 9.028 6 13.546-4.545 1.184-9.17.438-13.753.497-10.076.13-20.154.05-30.22.036-2.15-.27-3.784-1.417-4.558-3.39-6.734-17.143-13.607-34.233-19.507-50.325.396 3.46.323 8.262.143 13.04-.42 11.142.804 22.222 1.007 33.337.045 2.493.105 5.04-2.082 6.882l-.365-.095c-8.234 1.234-16.518.434-24.774.486-5.593.036-11.236.772-16.8-.488l-.373.096z"/><path fill-rule="evenodd" clip-rule="evenodd" fill="#FEFEFE" d="M330.04 186.168l-22.793-.255c11.706-48.968 23.438-97.93 35.058-146.918.743-3.132 1.98-4.145 5.29-4.09 13.816.226 27.64.194 41.46.02 3.287-.04 4.437.91 5.13 4.24 9.86 47.353 19.91 94.664 29.927 141.982.275 1.3.688 2.57 1.036 3.854-.12 1.787-1.492 1.48-2.588 1.482-12.314.026-24.63-.02-36.943.048-2.038.01-3.52-.705-4.716-2.233-1.527-2.853-1.752-6.074-2.006-9.162-.372-4.532-2.69-6.023-6.886-5.88-3.656.126-7.323-.024-10.984.035-5.796.093-6.623.924-7.71 6.826-.618 3.35-.284 7.05-3.136 9.7-6.696 1.29-13.418.722-20.137.352zM298.92 150.035c.06 10.98.06 21.963.222 32.942.037 2.458-.87 3.066-3.18 3.06-22.97-.065-45.94-.07-68.907.007-2.498.008-3.505-.593-3.5-3.303.08-48.766.075-97.533.104-146.3 0-.482.21-.965.325-1.447 23.32.002 46.64.156 69.957-.123 4.605-.056 5.478 1.335 5.323 5.54-.323 8.816-.226 17.655-.03 26.48.07 3.15-.66 4.318-4.067 4.226-8.987-.246-17.988.022-26.98-.144-2.942-.054-4.22.638-4.02 3.84.262 4.147.283 8.34-.004 12.483-.23 3.32 1.217 3.818 4.074 3.76 7.825-.162 15.662.117 23.482-.137 3.385-.11 4.19 1.038 4.125 4.23-.19 9.323-.185 18.655 0 27.98.06 3.025-.734 4.06-3.88 3.974-7.823-.217-15.66.057-23.483-.134-3.1-.075-4.53.556-4.324 4.048.293 4.98.294 10.003 0 14.982-.205 3.46 1.152 4.118 4.283 4.066 10.158-.165 20.32-.04 30.48-.03zM79.942 35.025c.07 5.646.203 11.293.206 16.94.017 43.056-.04 86.113.093 129.17.013 3.81-.833 5.07-4.852 4.97-10.462-.26-20.937-.002-31.407.05-3.642.427-4.592-1.103-4.58-4.774.14-47.24.13-94.478.018-141.72-.01-3.57.68-4.864 4.598-4.766 11.97.3 23.95.123 35.926.13z"/><path fill-rule="evenodd" clip-rule="evenodd" fill="#545454" d="M382.176 182.657c.827 1.587.797 3.51 3.75 3.448 12.222-.258 24.452-.108 36.68-.128.945 0 2.032.224 2.542-.975l1.866 1.98c-30.55.004-61.098.012-91.646.007-1.81-.002-3.675.248-5.327-.822 5.104-.054 10.206-.12 15.31-.153 1.625-.01 3.308.245 4.43-1.365 4.663-1.462 9.468-.84 14.22-.94 6.07-.127 12.18.42 18.176-1.053z"/><path fill-rule="evenodd" clip-rule="evenodd" fill="#7DCEA6" d="M166.15 185.004c14.99-.015 29.98-.03 44.97-.043.268.34.537.68.806 1.018l-45.873.003c-.27-.245-.343-.472-.226-.68.113-.197.22-.296.323-.296z"/><path fill-rule="evenodd" clip-rule="evenodd" fill="#4A4A4A" d="M166.15 185.004c-.122.316-.154.642-.097.977-7.968-.313-15.935-.628-23.902-.94-.89-20.563-1.673-41.128-.124-62.05l24.124 62.014z"/><path fill-rule="evenodd" clip-rule="evenodd" fill="#81CFA8" d="M100.208 184.94l41.577.003c-.686 1.344-1.974 1.03-3.074 1.032-11.81.028-23.622.03-35.433.003-1.1 0-2.39.317-3.07-1.037z"/><path fill-rule="evenodd" clip-rule="evenodd" fill="#4A4A4A" d="M382.176 182.657c-.293 1.747-.883 3.27-3.013 3.267-9.08-.017-18.162-.038-27.24-.15-.72-.01-1.43-.733-2.144-1.124.272-1.962.474-3.938.834-5.884.688-3.717.275-8.642 2.51-10.812 2.745-2.668 7.847-.67 11.92-.887 3.303-.175 6.657.27 9.923-.114 3.967-.47 5.694.916 5.918 4.887.205 3.618.844 7.213 1.29 10.817zM367.534 75.414c2.198 19.047 4.122 38.087 7.347 56.958.326 1.9-.204 2.492-2.24 2.69-14.77 1.427-15.017 1.254-12.368-12.933 2.89-15.49 5.068-31.088 7.262-46.716z"/></svg>