<?xml version="1.0" encoding="utf-8"?>
<!-- Generator: Adobe Illustrator 16.0.0, SVG Export Plug-In . SVG Version: 6.00 Build 0)  -->
<!DOCTYPE svg PUBLIC "-//W3C//DTD SVG 1.1//EN" "http://www.w3.org/Graphics/SVG/1.1/DTD/svg11.dtd">
<svg version="1.1" id="ikea-gift-card_xA0_Image_1_"
	 xmlns="http://www.w3.org/2000/svg" xmlns:xlink="http://www.w3.org/1999/xlink" x="0px" y="0px" width="667px" height="421px"
	 viewBox="0 0 667 421" enable-background="new 0 0 667 421" xml:space="preserve">
<g>
	<path fill="#4A4A4A" d="M1,415C1,279.333,1,143.667,1,8c0.513-4.154,2.846-6.487,7-7c217.667,0,435.333,0,653,0
		c4.154,0.513,6.487,2.846,7,7c0,96.333,0,192.667,0,289c-3.014,2.475-5.795,0.432-8.35-0.749
		c-9.357-4.326-18.729-8.621-28.091-12.939c-33.21-15.319-66.46-30.553-99.652-45.909c-23.388-10.82-46.829-21.527-70.181-32.428
		c-11.895-5.552-23.963-10.729-35.683-16.674c-0.885-1.035-1.751-2.084-2.482-3.235c-3.069-5.498-3.461-11.744-4.729-17.702
		c-8.797-41.35-17.523-82.714-26.209-124.087c-0.91-4.333-3.04-6.136-7.527-6.058c-10.157,0.178-20.321,0.051-30.482,0.055
		c-9.234,0.005-9.277,0.005-11.41,8.781c-8.06,33.161-15.946,66.364-23.948,99.54c-2.693,11.166-5.176,22.384-8.065,33.503
		c-0.802,3.085-1.68,6.099-4.281,8.246c-6.591,1.438-8.313,0.179-8.392-6.255c-0.07-5.805,0.133-11.615-0.078-17.414
		c-0.126-3.461-0.593-6.946-2.672-9.923c-1.985-1.66-4.384-1.381-6.691-1.414c-6.821-0.097-13.648,0.178-20.464-0.16
		c-5.058-0.251-6.479-1.68-6.777-6.671c-0.286-4.818-0.214-9.646,0.009-14.47c0.186-4.027,2.264-6.03,6.28-6.208
		c6.321-0.279,12.646,0.001,18.966-0.195c5.265-0.163,6.416-1.294,6.538-6.591c0.143-6.154,0.164-12.315-0.012-18.469
		c-0.141-4.942-1.315-6.052-6.365-6.204c-6.153-0.187-12.316,0.132-18.467-0.177c-5.284-0.265-6.665-1.696-6.98-7.008
		c-0.208-3.489-0.218-6.99,0.014-10.479c0.349-5.223,1.766-6.647,7.144-6.897c6.65-0.31,13.311-0.048,19.965-0.146
		c6.616-0.099,7.634-1.056,7.726-7.452c0.083-5.822,0.135-11.649-0.028-17.471c-0.141-5.067-1.256-6.312-6.211-6.35
		c-19.469-0.144-38.938-0.104-58.406-0.026c-1.86,0.008-3.671,0.22-5,1.757c-2.066,4.326-2.521,8.917-2.519,13.622
		c0.02,41.639,0.014,83.277,0.01,124.917c-0.001,10.518-1.229,11.536-12.096,10.101c-0.901-0.337-1.642-0.884-2.181-1.681
		c-7.554-11.837-12.378-25.036-18.437-37.616c-5.631-11.691-11.211-23.427-16.397-35.338c-1.733-3.979-1.634-7.544,0.131-11.484
		c8.711-19.45,17.453-38.887,26.142-58.348c2.171-4.863,1.501-5.945-3.766-5.991c-8.831-0.078-17.666,0.121-26.492-0.075
		c-4.827-0.107-7.149,2.071-8.674,6.462c-5.189,14.944-10.981,29.671-16.45,44.516c-0.346,0.938-0.703,1.871-1.129,2.776
		c-0.808,1.716-1.815,3.513-3.984,3.031c-1.883-0.419-2.259-2.34-2.264-4.05c-0.036-13.148-1.062-26.337,0.534-39.432
		c1.483-12.178,0.797-13.255-11.379-13.254c-6.332,0-12.664-0.063-18.995,0.025c-5.864,0.083-6.71,0.872-6.751,6.653
		c-0.094,13.329-0.029,26.659-0.033,39.989c-0.009,30.993,0.031,61.985-0.037,92.978c-0.007,3.264,0.553,6.777-2.476,9.293
		c-5.361,1.895-10.858,1.095-16.304,0.712c-2.501-0.176-3.736-1.938-3.876-4.437c-0.104-1.832-0.081-3.665-0.081-5.497
		c-0.003-41.486-0.008-82.974,0.005-124.46c0.001-4.702-0.418-9.303-2.645-13.542c-1.417-1.434-3.234-1.616-5.095-1.633
		c-7.999-0.071-16-0.138-23.998,0.021c-5.163,0.103-6.348,1.324-6.397,6.726c-0.141,15.499-0.049,30.998-0.053,46.498
		c-0.006,28.165-0.025,56.331,0.026,84.497c0.005,2.933-0.563,6.108,2.24,8.312c9.946,6.116,21.032,9.841,31.519,14.826
		c15.774,7.5,31.675,14.751,47.556,22.035c29.792,13.666,59.493,27.53,89.257,41.258c19.338,8.918,38.663,17.87,57.973,26.852
		c30.325,14.104,60.676,28.153,91.051,42.152c19.341,8.915,38.636,17.932,57.969,26.864c30.357,14.024,60.68,28.121,91.051,42.115
		c12.846,5.919,25.669,11.89,38.506,17.83c1.901,0.88,4.064,1.813,3.532,4.655c-181.333,0-362.667,0-544,0
		C3.846,421.487,1.513,419.154,1,415z"/>
	<path fill-rule="evenodd" clip-rule="evenodd" fill="#5C5C5C" d="M211.926,185.978c12.675-0.14,10.868,1.597,10.887-10.737
		c0.069-44.532,0.015-89.065,0.063-133.599c0.002-2.233-0.786-4.692,1.107-6.648c2.938,2.365,2.285,5.733,2.294,8.811
		c0.083,27.151,0.036,54.303,0.044,81.454c0.005,16.657-0.041,33.314,0.022,49.972c0.028,7.442,0.975,8.401,8.362,8.426
		c17.823,0.059,35.646,0.056,53.47,0.002c7.521-0.022,8.404-0.932,8.487-8.275c0.071-6.329-0.056-12.66,0.075-18.989
		c0.049-2.343,0.08-4.711,2.183-6.357c1.523,1.464,1.121,3.375,1.13,5.152c0.036,7.944,0.011,15.888,0.018,23.832
		c0.006,7.05,0.012,7.05,7.179,6.894c1.698-1.889,3.97-2.128,6.299-2.166c5.568-0.089,11.136-0.118,16.702,0.085
		c29.297,3.521,58.711,0.832,88.059,1.658c2.983,0.084,6.008-0.198,8.707,1.491c12.239,4.384,23.708,10.511,35.512,15.867
		c33.321,15.123,66.519,30.521,99.746,45.851c23.261,10.732,46.422,21.684,69.762,32.239C643.995,286.349,655.59,292.595,668,297
		c0,39.333,0,78.667,0,118c-0.513,4.154-2.846,6.487-7,7c-36.333,0-72.667,0-109,0c-9.654-5.607-20.085-9.604-30.124-14.41
		c-15.458-7.4-31.14-14.334-46.7-21.521c-35.205-16.257-70.405-32.523-105.586-48.831c-24.764-11.48-49.468-23.088-74.243-34.544
		c-37.914-17.532-75.884-34.942-113.794-52.481c-25.226-11.671-50.37-23.519-75.586-35.21
		c-19.929-9.239-39.914-18.358-59.866-27.548c-0.747-0.344-1.415-0.862-2.119-1.3c1.303-2.647,3.845-2.307,6.098-2.383
		c6.646-0.225,13.299-0.009,19.947-0.124c6.412-0.11,7.578-1.203,7.611-7.636c0.104-20.447,0.031-40.895,0.041-61.342
		c0.011-23.606-0.042-47.212,0.046-70.817c0.012-3.07-0.652-6.427,2.22-8.828c1.861,1.969,1.116,4.427,1.118,6.673
		c0.044,45.441,0.031,90.884,0.035,136.325c0,6.969,0.012,6.971,6.757,6.989c3.995,0.011,7.99,0.016,11.984,0.023
		c0.291-0.07,0.581-0.141,0.872-0.211c5.958-0.706,11.938-0.288,17.905-0.289c7.467-0.001,14.92,0.036,22.296-1.364
		c0.606,0.004,1.211-0.002,1.817-0.042c8.007-1.229,15.858,0.89,23.802,1.082c13.408,0.534,26.818,0.196,40.226,0.291
		C208.646,184.516,210.345,184.984,211.926,185.978z"/>
	<path fill-rule="evenodd" clip-rule="evenodd" fill="#F0F1F0" d="M668,8c-1.649-3.017-4.026-5.307-7-7C668,1,668,1,668,8z"/>
	<path fill-rule="evenodd" clip-rule="evenodd" fill="#F1F1F1" d="M8,1C5.031,2.697,2.648,4.981,1,8C1,1,1,1,8,1z"/>
	<path fill-rule="evenodd" clip-rule="evenodd" fill="#F0F0F0" d="M1,415c1.656,3.011,4.013,5.32,7,7C1,422,1,422,1,415z"/>
	<path fill-rule="evenodd" clip-rule="evenodd" fill="#F2F2F2" d="M661,422c2.978-1.688,5.353-3.98,7-7C668,422,668,422,661,422z"/>
	<path fill-rule="evenodd" clip-rule="evenodd" fill="#79CCA2" d="M99.837,185.036c0.054-31.304,0.119-62.607,0.159-93.911
		c0.022-17.152,0.112-34.305-0.079-51.455c-0.042-3.77,1.098-4.828,4.803-4.75c10.819,0.228,21.652,0.28,32.467-0.021
		c4.18-0.115,5.15,1.461,4.844,5.18c-1.308,15.911-1.037,31.862-1.031,47.806c0.001,1.62,0,3.24,0.988,5.118
		c2.693-7.298,5.359-14.605,8.084-21.891c4.152-11.101,8.347-22.186,12.52-33.278c0.504-1.342,0.574-2.855,2.738-2.844
		c13.925,0.074,27.85,0.038,42.508,0.038c-4.429,9.962-8.552,19.273-12.706,28.571c-6.12,13.699-12.234,27.402-18.424,41.07
		c-0.987,2.18-0.757,4.063,0.219,6.15c9.434,20.182,18.827,40.382,28.194,60.595c2.076,4.48,4.002,9.028,5.998,13.546
		c-4.544,1.184-9.17,0.438-13.752,0.497c-10.076,0.131-20.154,0.049-30.22,0.036c-2.151-0.269-3.784-1.417-4.558-3.389
		c-6.733-17.144-13.606-34.234-19.506-50.326c0.396,3.459,0.323,8.262,0.143,13.039c-0.421,11.143,0.804,22.223,1.007,33.338
		c0.045,2.493,0.105,5.041-2.082,6.882l-0.366-0.095c-8.234,1.234-16.518,0.434-24.774,0.486
		c-5.594,0.036-11.237,0.772-16.802-0.488L99.837,185.036z"/>
	<path fill-rule="evenodd" clip-rule="evenodd" fill="#FEFEFE" d="M330.041,186.168c-7.598-0.085-15.196-0.17-22.794-0.255
		c11.706-48.968,23.438-97.93,35.058-146.918c0.743-3.132,1.979-4.145,5.29-4.091c13.816,0.227,27.641,0.195,41.46,0.022
		c3.287-0.04,4.437,0.909,5.131,4.24c9.859,47.352,19.909,94.663,29.926,141.981c0.275,1.3,0.688,2.57,1.036,3.854
		c-0.119,1.786-1.492,1.479-2.588,1.481c-12.314,0.026-24.629-0.019-36.943,0.048c-2.038,0.011-3.519-0.705-4.716-2.233
		c-1.528-2.853-1.753-6.074-2.007-9.162c-0.372-4.532-2.69-6.023-6.886-5.879c-3.656,0.125-7.323-0.025-10.984,0.034
		c-5.796,0.093-6.623,0.924-7.711,6.826c-0.617,3.351-0.283,7.049-3.135,9.699C343.482,187.106,336.76,186.538,330.041,186.168z"/>
	<path fill-rule="evenodd" clip-rule="evenodd" fill="#FEFEFE" d="M298.921,150.035c0.059,10.981,0.058,21.963,0.221,32.942
		c0.037,2.458-0.871,3.066-3.181,3.06c-22.969-0.065-45.938-0.07-68.906,0.007c-2.498,0.008-3.505-0.593-3.5-3.303
		c0.081-48.767,0.075-97.534,0.104-146.301c0-0.482,0.212-0.965,0.326-1.447c23.319,0.002,46.641,0.156,69.957-0.123
		c4.605-0.056,5.478,1.335,5.323,5.54c-0.323,8.816-0.226,17.655-0.03,26.479c0.069,3.151-0.661,4.319-4.067,4.227
		c-8.987-0.246-17.988,0.022-26.98-0.144c-2.942-0.054-4.219,0.638-4.019,3.84c0.261,4.147,0.282,8.339-0.005,12.483
		c-0.231,3.321,1.217,3.818,4.074,3.76c7.825-0.162,15.662,0.117,23.482-0.137c3.385-0.109,4.189,1.038,4.125,4.229
		c-0.189,9.324-0.185,18.656-0.001,27.98c0.061,3.026-0.733,4.062-3.88,3.975c-7.822-0.217-15.658,0.057-23.482-0.134
		c-3.101-0.075-4.53,0.556-4.324,4.048c0.293,4.98,0.294,10.003-0.001,14.982c-0.204,3.46,1.153,4.118,4.284,4.066
		C278.598,149.899,288.76,150.023,298.921,150.035z"/>
	<path fill-rule="evenodd" clip-rule="evenodd" fill="#FEFEFE" d="M79.942,35.025c0.071,5.646,0.203,11.293,0.206,16.939
		c0.017,43.057-0.039,86.114,0.093,129.171c0.012,3.809-0.834,5.069-4.853,4.97c-10.462-0.261-20.937-0.002-31.407,0.05
		c-3.643,0.427-4.593-1.103-4.582-4.774c0.14-47.24,0.13-94.479,0.019-141.72c-0.009-3.571,0.68-4.865,4.598-4.767
		C55.985,35.193,67.966,35.017,79.942,35.025z"/>
	<path fill-rule="evenodd" clip-rule="evenodd" fill="#545454" d="M382.176,182.657c0.827,1.587,0.797,3.511,3.75,3.448
		c12.222-0.258,24.452-0.108,36.68-0.128c0.945-0.001,2.032,0.224,2.542-0.975c0.622,0.659,1.244,1.319,1.866,1.979
		c-30.549,0.005-61.098,0.013-91.646,0.008c-1.81-0.001-3.675,0.249-5.327-0.821c5.103-0.054,10.205-0.119,15.308-0.153
		c1.626-0.011,3.309,0.245,4.431-1.365c4.663-1.462,9.468-0.84,14.219-0.939C370.071,183.583,376.181,184.131,382.176,182.657z"/>
	<path fill-rule="evenodd" clip-rule="evenodd" fill="#7DCEA6" d="M166.15,185.004c14.99-0.015,29.979-0.029,44.969-0.043
		c0.269,0.339,0.538,0.678,0.807,1.017c-15.291,0.001-30.582,0.002-45.873,0.003c-0.269-0.246-0.343-0.473-0.226-0.681
		C165.94,185.103,166.047,185.004,166.15,185.004z"/>
	<path fill-rule="evenodd" clip-rule="evenodd" fill="#4A4A4A" d="M166.15,185.004c-0.122,0.316-0.154,0.642-0.097,0.977
		c-7.968-0.314-15.935-0.629-23.902-0.942c-0.892-20.562-1.674-41.127-0.125-62.049C150.067,143.66,158.108,164.332,166.15,185.004z
		"/>
	<path fill-rule="evenodd" clip-rule="evenodd" fill="#81CFA8" d="M100.208,184.941c13.859,0.001,27.718,0.001,41.577,0.002
		c-0.686,1.344-1.974,1.029-3.074,1.032c-11.812,0.028-23.623,0.029-35.434,0.003C102.178,185.977,100.887,186.295,100.208,184.941z
		"/>
	<path fill-rule="evenodd" clip-rule="evenodd" fill="#4A4A4A" d="M382.176,182.657c-0.293,1.747-0.883,3.271-3.013,3.267
		c-9.081-0.017-18.162-0.038-27.241-0.151c-0.719-0.01-1.429-0.732-2.143-1.123c0.273-1.962,0.475-3.938,0.835-5.884
		c0.688-3.717,0.275-8.642,2.509-10.812c2.746-2.668,7.848-0.671,11.922-0.887c3.302-0.175,6.656,0.271,9.922-0.114
		c3.967-0.47,5.694,0.916,5.918,4.887C381.09,175.458,381.729,179.053,382.176,182.657z"/>
	<path fill-rule="evenodd" clip-rule="evenodd" fill="#4A4A4A" d="M367.534,75.414c2.198,19.047,4.122,38.087,7.347,56.958
		c0.325,1.9-0.205,2.492-2.241,2.689c-14.771,1.428-15.017,1.255-12.368-12.932C363.162,106.641,365.34,91.042,367.534,75.414z"/>
</g>
</svg>
