<svg xmlns="http://www.w3.org/2000/svg" width="1166" height="261.5" viewBox="0 0 1166 261.5"><g fill-rule="evenodd" clip-rule="evenodd"><path fill="#C6CABF" d="M.5 251.5c5.645-8.624 11.31-17.235 16.93-25.875 15.194-23.356 30.382-46.717 45.527-70.105 1.122-1.732 1.782-2.462 2.91-.034.79 1.702 1.937 3.24 3.103 5.14 3.462-5.586 6.776-10.92 10.08-16.264 9.795-15.845 19.59-31.69 29.38-47.54 3.803-6.154 7.628-12.295 11.373-18.485.973-1.608 1.48-2.243 2.66-.067 7.144 13.16 14.395 26.264 21.617 39.38 4.414 8.018 8.846 16.025 13.257 24.043.373.677.69 1.358 1.635 1.264.732 1.164.768 3.34 2.092 3.386 1.353.047 1.48-2.11 2.208-3.26 1.64-2.592 2.29-5.7 4.222-8.146 3.42-5.683 6.128-11.735 9.103-17.648 1-1.987 1.533-.66 2.068.203 2.84 4.583 5.643 9.19 8.455 13.79.464.76.707 1.753 1.886 1.73 7.485 12.835 15.53 25.338 22.906 37.91-.027-1.652-.12-3.692.003-5.728.04-.648.032-1.48.815-1.654.616-.14.98.52 1.33.968.817 1.056 1.44 2.238 2.156 3.36 7.287 11.448 14.853 22.717 22.083 34.2.217.348.407.727.99 1.092.172-2.145-.016-4.178.122-6.192.063-.923.146-2.028 1.117-2.335 1.112-.354 1.495.832 1.98 1.527 7.368 10.594 14.665 21.237 21.937 31.896 6.287 9.217 12.667 18.37 18.922 27.607 2.424 3.582 1.267 5.864-3.23 6.037-4.657.18-9.325.04-13.994.043H240.47c-9.646 0-19.29.002-28.935 0-9.474 0-18.947.002-28.42 0-5.893 0-11.787-.01-17.68.012-.812.003-1.663-.225-2.434.246-53.422 0-106.845-.01-160.268.052-1.91.002-2.393-.467-2.276-2.315C.628 257 .5 254.247.5 251.5z"/><path fill="#A2A2A2" d="M267.002 261.508c3.83-.007 7.662-.013 11.494-.022.583 0 1.177.052 1.746-.044 4.008-.68 4.747-2.236 2.555-5.443-12.462-18.235-24.933-36.465-37.413-54.687-1.49-2.178-3.057-4.303-4.792-6.736-1.19 3.47-.146 6.818-.915 10.688-9.126-14.09-17.94-27.7-27.038-41.744v9.118c-2.834-3.542-4.546-7.014-6.553-10.285-5.47-8.92-10.89-17.87-16.383-26.775-.518-.84-.754-1.632-.7-2.566 8.26-10.7 16.508-21.412 24.787-32.1 6.094-7.864 12.25-15.678 18.334-23.55 3.7-4.79 7.324-9.636 10.96-14.475 1.754-2.336 2.428-2.433 4.448-.372 2.615 2.668 5.225 5.345 7.773 8.077 1.11 1.19 1.528 1.084 2.468-.362 6.68-10.28 13.508-20.463 20.29-30.677.723-.512.902-1.407 1.443-2.046 3.224-4.925 6.427-9.864 9.682-14.768 1.06-1.597 2.458-1.662 3.69-.383 8.882 9.21 17.766 18.42 26.67 27.608C334.764 65.66 350 81.34 365.22 97.03c9.307 9.595 18.604 19.2 27.9 28.805.17.174.266.418.396.63 2.337 3.007 5.32 5.393 7.857 8.205.71.785 2.66-.14 2.387 1.825-3.886 7.29-8.895 13.857-13.398 20.75-1.24 1.895-2.082 1.77-3.248-.22-.588-1.006-1.055-2.076-1.535-3.14-.327-.723-.33-1.908-1.307-1.92-.894-.01-1.142 1.107-1.545 1.803-1.963 3.383-3.932 6.764-5.98 10.097-10.71 17.445-21.247 34.998-31.806 52.536-.26.43-.515.86-.833 1.246-1.26 1.528-2.306 1.476-3.247-.266-.936-1.73-1.434-3.688-2.77-5.42-1.242 1.296-2.11 2.7-3.012 4.058-9.77 14.688-19.633 29.316-29.403 44.005-.58.873-1.302 1.482-2.176 1.978H267c-.166-.11-.22-.22-.165-.328.057-.11.112-.164.167-.164zM833.455 156.95c5.956-11.167 11.91-22.335 17.87-33.5.268-.5.41-1.263 1.043-1.284.82-.027.905.862 1.178 1.426 1.013 2.1 1.97 4.226 2.98 6.327.24.502.312 1.28.94 1.365.876.12.944-.8 1.216-1.346 4.107-8.272 8.232-16.534 12.272-24.838 15.15-31.138 30.274-62.29 45.402-93.438 1.112-2.29 2.18-4.598 3.453-7.288 8.082 15.52 15.955 30.635 23.936 45.956 2.123-2.49 3.043-5.56 4.998-8.216 8.82 15.866 17.545 31.556 26.556 47.764l8.907-21.49 38.29 76.12c.573.565.445 1.23.195 1.86-1.198 3.018-2.21 6.11-3.527 9.08-.296.67-.608 1.568-1.474 1.495-.7-.06-.892-.912-1.12-1.53-.658-1.798-1.202-3.637-1.905-5.697-.707.805-1.123 1.63-1.528 2.442-5.21 10.432-10.72 20.71-16.054 31.076-10.022 19.473-20.175 38.88-30.24 58.33-3.138 6.06-6.05 12.246-9.485 18.154-.506.867-.91 1.785-1.857 2.28h-27c-2.59-1.782-4.238-4.444-6.185-6.798-14.8-17.905-29.678-35.746-44.482-53.646-8.597-10.395-17.213-20.773-25.87-31.118-1.7-2.03-1.964-2.074-3.293.22-3.393 5.857-4.083 4.993-7.52.29-2.308-3.157-4.78-6.206-7.35-9.157-1.41-1.617-1.738-3.118-.345-4.84zM499.474 151.96c6.194-8.95 12.37-17.912 18.595-26.842 1.554-2.23 1.694-2.215 2.985.22 1.477 2.782 2.826 5.634 4.44 8.88 1.63-3.017 3.152-5.794 4.638-8.592 8.546-16.084 17.092-32.168 25.62-48.263 2.567-4.845 5.074-9.723 7.613-14.583 1.217-2.33 1.523-2.35 3.06-.082 1.957 2.887 3.867 5.806 6.08 9.137 1.856-4.026 3.58-7.72 5.266-11.428 5.635-12.394 11.258-24.794 16.882-37.193.345-.76.587-1.646 1.62-1.673.83-.02.977.773 1.334 1.313 8.645 13.025 17.296 26.046 25.945 39.067 12.25 18.442 24.506 36.88 36.748 55.327 3.897 5.87 7.762 11.757 11.9 18.028 1.46-3.14 2.71-5.83 3.966-8.52.35-.75.598-1.738 1.47-1.903 1.052-.2 1.25.936 1.646 1.592 4.918 8.186 9.804 16.392 14.697 24.592.994 1.285-.103 2.203-.642 3.13-4.807 8.284-9.755 16.484-14.674 24.702-1.412 2.357-2.706 4.785-4.193 7.097-.437.68-.803 1.688-1.785 1.478-.857-.184-.663-1.213-.88-1.9-.546-1.738-.25-3.603-.715-5.75-2.426 3.332-4.31 6.543-6.29 9.684-5.868 9.295-11.866 18.506-17.718 27.81-.468.743-.818 1.886-1.916 1.66-.887-.183-.97-1.26-1.2-2.048-.603-2.055-.957-4.177-1.6-6.565-1.858 1.914-3.067 3.883-4.34 5.773-9.808 14.58-19.73 29.08-29.595 43.623-.563.833-1.16 1.624-1.933 2.27h-21.5c-3-2.713-4.92-6.26-7.197-9.51-17.708-25.296-35.407-50.597-53.167-75.855-5.553-7.896-11.108-15.793-16.6-23.732-1.414-2.04-1.51-2.035-2.647.187-.72 1.407-1.46 2.808-2.104 4.253-.728 1.633-1.635 1.457-2.544.223-.74-1.002-1.39-2.076-1.904-3.218-.426-.955-.285-1.782.64-2.387z"/><path fill="#C6CABF" d="M955.5 262c7.57-14.634 15.135-29.27 22.714-43.9 6.774-13.076 13.554-26.15 20.354-39.215 5.296-10.172 10.627-20.326 16.15-30.885l3.05 8.97c1.886-4.313 3.607-8.267 4.73-12.46 1.16-2.12 2.215-4.264 2.025-6.793-.062-.826-.133-1.508 1.186-1.646.778-.082.942-1.444 1.276-2.286 4.25-10.73 8.498-21.458 12.754-32.185.116-.295.32-.555.578-.992 1.94 2.48 2.365 5.587 4.367 8.357l13.084-38.322.594-.07 40.404 88.605c1.774-2.398 1.97-5.124 3.483-7.933 9.61 23.32 19.036 46.193 28.745 69.758l3.104-8.838c3.272 7.117 6.302 13.668 9.298 20.234 2.07 4.533 3.882 9.2 6.202 13.6 1.9 3.603 2.733 7.247 2.42 11.254-.124 1.572-.02 3.163-.02 4.745H955.5zM606.5 262c2.346-4.788 5.747-8.89 8.696-13.28 8.562-12.745 17.248-25.404 25.9-38.087.36-.527.546-1.47 1.282-1.39.99.108.685 1.216.858 1.852.686 2.507 1.214 5.056 1.906 8.046 5.212-8.147 10.133-15.806 15.017-23.488 3.337-5.253 6.62-10.54 9.934-15.81.26-.414.52-1.01 1.05-.942.7.088.79.856.783 1.367-.033 2.312.344 4.56.842 7.33 2.505-4.19 4.79-7.987 7.052-11.797 4.533-7.636 9.045-15.286 13.598-22.91.36-.6.618-1.16.56-1.853 2.38-1.973 3.356-4.887 4.915-7.4 2.96-4.776 5.77-9.646 8.814-14.77 4.426 6.278 8.625 12.24 12.83 18.196 3.403 4.818 6.848 9.608 10.203 14.46 1.07 1.55 1.53 1.38 2.4-.226 11.207-20.694 22.48-41.353 33.74-62.018 1.91-3.506 3.873-6.982 5.74-10.51.974-1.846 1.88-2.66 3.16-.272.193.36.497.66.75.99-1.76.582-2.277 1.81-2.253 3.62.2 14.988.495 29.973.683 44.96.085 6.732.267 13.48.33 20.22.142 15.07.366 30.146.67 45.21.22 10.74-.09 21.49.42 32.213.358 7.497.38 14.98.412 22.473.005 1.315.176 2.693-.796 3.817H606.5zM499.474 151.96c-1.12 2.896 1.635 4.15 2.452 6.747 1.387-2.802 2.547-5.057 3.626-7.35.917-1.95 1.467-1.023 2.26.127 5.646 8.19 11.31 16.37 17.024 24.516 8 11.402 16.067 22.76 24.078 34.154 11.443 16.277 22.866 32.57 34.283 48.867.664.948 1.205 1.984 1.803 2.98H434c-.91-1.05-.853-2.346-.744-3.572.712-8.04 1.17-16.1 1.777-24.148.593-7.883 1.07-15.775 1.705-23.654.67-8.294 1.16-16.6 1.814-24.895.622-7.88 1.08-15.772 1.666-23.655.61-8.215 1.218-16.43 1.804-24.646.402-5.646.81-11.29 1.197-16.935.544-7.97 1.193-15.932 1.77-23.9.43-5.89.813-11.787 1.232-17.68.17-2.404.26-4.817.96-7.15.197-.32.46-.39.79-.207 1.04 4.056 3.192 7.65 4.86 11.437 3.748 8.522 7.734 16.94 11.628 25.398.205.445.46.87.875 1.647 1.562-2.448 2.948-4.684 4.4-6.875 1.31-1.97 1.72-1.865 2.84.233 7.72 14.443 15.48 28.867 23.22 43.298.67 1.248 1.29 2.522 1.95 3.773.38.714.608 1.627 1.73 1.49z"/><path fill="#C2C5BC" d="M776 262c0-6.165.31-12.35-.066-18.492-.717-11.73.1-23.475-.542-35.176-.562-10.24.12-20.473-.454-30.68-.66-11.73.092-23.477-.543-35.177-.59-10.905.127-21.807-.492-32.678-.34-5.99-.29-11.96-.392-17.938-.053-3.11-.002-3.11 3.024-2.373 2.62 1.857 4.17 4.666 6.115 7.09 14.976 18.65 29.848 37.382 44.748 56.093 1.087 1.363 2.197 2.715 3.19 4.146.956 1.38 1.837 1.643 2.866.135-.77 1.64-.464 2.99.72 4.42 3.274 3.955 6.42 8.02 9.58 12.067.915 1.17 1.717 1.192 2.51-.05.94-1.468 1.878-2.937 2.75-4.445.715-1.233 1.38-1.517 2.397-.27 5.923 7.25 11.85 14.496 17.822 21.704 6.08 7.34 12.235 14.615 18.32 21.95 6.083 7.332 12.1 14.72 18.184 22.054 6.085 7.334 12.23 14.62 18.322 21.95 1.534 1.845 2.963 3.776 4.44 5.67H776z"/><path fill="#BEC1BA" d="M447.515 71.465c-.664 8.82-1.352 17.64-1.983 26.46-.39 5.448-.64 10.905-1.044 16.35-.604 8.16-1.333 16.31-1.914 24.47-.2 2.806-.31 5.616-.52 8.426-.66 8.738-1.3 17.477-1.954 26.215-.377 5.028-.73 10.064-1.063 15.1-.583 8.826-1.12 17.653-1.975 26.463-.55 5.68-.664 11.4-1.076 17.095-.598 8.243-1.31 16.477-1.923 24.718-.13 1.74-.048 3.494-.063 5.24H303.5c8.506-12.677 17.016-25.353 25.515-38.035 2.727-4.068 5.417-8.16 8.153-12.224.26-.385.708-.865 1.097-.892.554-.038.606.645.797 1.102.705 1.686 1.454 3.353 2.19 5.025.71 1.61 1.413 1.952 2.47.176 3.613-6.062 7.305-12.077 10.953-18.12 8.885-14.714 17.746-29.443 26.67-44.135.886-1.46 1.343-3.984 2.973-4.012 1.682-.03 1.458 2.648 2.355 3.984.728 1.084.94 2.485 2.197 3.557 3.585-5.373 7.05-10.72 10.69-15.945 1.37-1.966 2.145-4.312 3.933-5.99 1.07-3.198 3.44-5.614 5.09-8.46.564-.975 1.578-1.77 1.32-3.098.023-.144.056-.285.098-.424 1.5-.584 2.147-1.972 2.986-3.175.797-1.143 1.407-2.43 2.552-3.3l.002-.003c.623-1.75 1.592-3.27 2.996-4.5v-.002c2.632-5.076 6.054-9.646 9.306-14.317 1.252-1.797 1.975-4.053 4.054-5.222.067-.15.106-.305.117-.468.252-.558.224-1.302 1.006-1.506l.57-.976c2.886-5.58 6.847-10.465 10.16-15.77.788-1.26 1.714-2.435 2.42-3.745.457-.852.848-1.136 1.345-.058z"/><path fill="#B0B1AD" d="M211.505 261.508l29 .005c.162.11.215.22.16.327-.055.106-.11.16-.164.16h-29c-.164-.11-.218-.22-.162-.33.055-.108.11-.162.167-.162z"/><path fill="#B9BBB4" d="M211.505 261.508c-.003.164-.005.328-.005.492H183c-.165-.11-.22-.223-.164-.332.055-.11.11-.166.166-.166l28.503.006z"/><path fill="#A9A9A8" d="M240.5 262c0-.162 0-.325.004-.487 8.833 0 17.666-.003 26.498-.005L267 262h-26.5z"/><path fill="#C0C3BA" d="M183.002 261.502L183 262h-20c.735-.814 1.71-.48 2.582-.485 5.806-.03 11.613-.013 17.42-.013z"/><path fill="#A5A5A5" d="M167.494 134.936c-1.26 4.322-3.653 8.126-5.568 12.148-.243.51-.933 1.22-1.257.467-.644-1.486-2.538-2.565-1.697-4.595 2.74-2.78 5.155-5.904 8.52-8.02z"/><path fill="#A7AAA9" d="M409.905 124.93c1.19.197 1.017.72.46 1.52-2.317 3.328-4.585 6.69-6.87 10.038-3.243-2.178-5.828-5.078-8.56-7.815-.625-.625-1.466-1.14-1.42-2.208 2.355 2.297 4.848 4.473 7.02 6.932 1.572 1.777 2.27 1.277 3.363-.393 1.836-2.805 3.41-5.828 6.007-8.073z"/><path fill="#C9CCCC" d="M279.506 37.506c-.156.912-.346 1.8-1.444 2.045.335-.784.54-1.66 1.444-2.044z"/></g></svg>