<?xml version="1.0" encoding="utf-8"?>
<!-- Generator: Adobe Illustrator 16.0.0, SVG Export Plug-In . SVG Version: 6.00 Build 0)  -->
<!DOCTYPE svg PUBLIC "-//W3C//DTD SVG 1.1//EN" "http://www.w3.org/Graphics/SVG/1.1/DTD/svg11.dtd">
<svg version="1.1" id="mountain-range_xA0_Image_1_"
	 xmlns="http://www.w3.org/2000/svg" xmlns:xlink="http://www.w3.org/1999/xlink" x="0px" y="0px" width="1166px" height="261.5px"
	 viewBox="0 0 1166 261.5" enable-background="new 0 0 1166 261.5" xml:space="preserve">
<g>
	
	<path fill-rule="evenodd" clip-rule="evenodd" fill="#C6CABF" d="M0.5,251.5c5.645-8.624,11.309-17.235,16.93-25.875
		c15.194-23.356,30.382-46.717,45.527-70.105c1.122-1.732,1.782-2.462,2.909-0.034c0.791,1.702,1.938,3.239,3.104,5.14
		c3.462-5.586,6.776-10.921,10.079-16.264c9.796-15.845,19.59-31.691,29.381-47.539c3.803-6.155,7.628-12.296,11.373-18.486
		c0.973-1.608,1.479-2.243,2.66-0.067c7.144,13.161,14.395,26.264,21.617,39.381c4.414,8.017,8.846,16.024,13.257,24.042
		c0.373,0.677,0.69,1.358,1.635,1.264c0.732,1.164,0.768,3.34,2.092,3.386c1.353,0.047,1.481-2.11,2.208-3.26
		c1.64-2.592,2.291-5.7,4.222-8.146c3.42-5.683,6.128-11.735,9.103-17.648c0.999-1.986,1.533-0.659,2.068,0.204
		c2.84,4.583,5.643,9.189,8.455,13.79c0.464,0.759,0.707,1.753,1.886,1.729c7.485,12.836,15.53,25.339,22.906,37.911
		c-0.027-1.652-0.119-3.692,0.003-5.728c0.039-0.648,0.032-1.479,0.815-1.654c0.616-0.141,0.98,0.518,1.329,0.967
		c0.818,1.056,1.442,2.238,2.157,3.361c7.287,11.447,14.853,22.716,22.083,34.2c0.218,0.347,0.408,0.726,0.992,1.091
		c0.171-2.145-0.017-4.178,0.121-6.192c0.063-0.923,0.146-2.028,1.117-2.335c1.113-0.354,1.496,0.832,1.98,1.527
		c7.369,10.594,14.666,21.237,21.938,31.896c6.287,9.217,12.667,18.369,18.922,27.607c2.425,3.582,1.268,5.864-3.229,6.037
		c-4.657,0.18-9.325,0.041-13.994,0.043c-8.563,0-17.119,0.001-25.676,0c-9.646,0-19.291,0.002-28.935,0
		c-9.474,0-18.947,0.002-28.419,0c-5.894,0-11.788-0.01-17.681,0.012c-0.812,0.003-1.663-0.225-2.434,0.246
		c-53.423,0-106.846-0.012-160.269,0.051c-1.91,0.002-2.393-0.467-2.276-2.315C0.628,257,0.5,254.246,0.5,251.5z"/>
	<path fill-rule="evenodd" clip-rule="evenodd" fill="#A2A2A2" d="M267.002,261.508c3.831-0.007,7.662-0.013,11.494-0.022
		c0.583-0.001,1.177,0.052,1.746-0.044c4.008-0.679,4.747-2.236,2.555-5.443c-12.462-18.234-24.933-36.464-37.413-54.686
		c-1.491-2.178-3.057-4.303-4.792-6.736c-1.189,3.471-0.146,6.818-0.915,10.688c-9.126-14.09-17.941-27.699-27.038-41.744
		c0,3.127,0,5.787,0,9.117c-2.833-3.542-4.545-7.014-6.552-10.285c-5.471-8.919-10.889-17.87-16.383-26.775
		c-0.518-0.84-0.754-1.632-0.7-2.566c8.261-10.701,16.508-21.412,24.787-32.099c6.093-7.865,12.25-15.679,18.333-23.551
		c3.7-4.789,7.324-9.636,10.959-14.475c1.755-2.336,2.429-2.433,4.449-0.372c2.615,2.668,5.225,5.345,7.773,8.077
		c1.109,1.189,1.528,1.084,2.468-0.362c6.68-10.28,13.508-20.463,20.29-30.677c0.723-0.512,0.902-1.407,1.443-2.046
		c3.224-4.925,6.427-9.864,9.682-14.768c1.06-1.596,2.458-1.661,3.691-0.382c8.881,9.211,17.765,18.421,26.67,27.608
		c15.214,15.696,30.448,31.374,45.668,47.064c9.308,9.596,18.605,19.2,27.902,28.806c0.168,0.174,0.265,0.418,0.395,0.63
		c2.337,3.007,5.321,5.393,7.857,8.205c0.708,0.785,2.658-0.139,2.386,1.825c-3.886,7.289-8.895,13.857-13.398,20.75
		c-1.238,1.895-2.081,1.771-3.247-0.221c-0.588-1.005-1.055-2.075-1.535-3.139c-0.327-0.723-0.33-1.908-1.307-1.92
		c-0.894-0.011-1.142,1.107-1.545,1.803c-1.963,3.383-3.932,6.764-5.979,10.097c-10.712,17.445-21.248,34.998-31.807,52.536
		c-0.258,0.428-0.514,0.859-0.832,1.245c-1.26,1.528-2.306,1.476-3.247-0.266c-0.936-1.729-1.434-3.688-2.771-5.421
		c-1.241,1.297-2.109,2.702-3.011,4.059c-9.771,14.688-19.633,29.316-29.403,44.005c-0.581,0.873-1.302,1.482-2.176,1.978
		c-12.167,0-24.333,0-36.5,0c-0.165-0.11-0.219-0.22-0.164-0.329C266.892,261.562,266.947,261.508,267.002,261.508z"/>
	<path fill-rule="evenodd" clip-rule="evenodd" fill="#A2A2A2" d="M833.455,156.95c5.956-11.167,11.911-22.335,17.871-33.499
		c0.267-0.5,0.41-1.264,1.042-1.285c0.82-0.027,0.905,0.862,1.178,1.426c1.013,2.099,1.97,4.226,2.979,6.327
		c0.241,0.503,0.313,1.281,0.94,1.366c0.877,0.119,0.945-0.799,1.217-1.346c4.107-8.271,8.232-16.533,12.272-24.837
		c15.151-31.138,30.274-62.29,45.402-93.438c1.112-2.289,2.181-4.598,3.453-7.288c8.083,15.52,15.956,30.635,23.937,45.956
		c2.123-2.491,3.043-5.56,4.998-8.216c8.82,15.866,17.545,31.556,26.556,47.764c3.003-7.246,5.806-14.007,8.907-21.489
		c12.986,25.815,25.638,50.967,38.29,76.119c0.573,0.565,0.445,1.229,0.195,1.859c-1.198,3.019-2.21,6.111-3.527,9.082
		c-0.296,0.668-0.608,1.567-1.474,1.494c-0.702-0.059-0.893-0.912-1.12-1.53c-0.659-1.798-1.203-3.637-1.906-5.697
		c-0.707,0.805-1.123,1.631-1.528,2.442c-5.211,10.432-10.719,20.709-16.054,31.076c-10.022,19.473-20.175,38.879-30.241,58.329
		c-3.137,6.062-6.049,12.247-9.484,18.155c-0.506,0.867-0.91,1.785-1.857,2.279c-9,0-18,0-27,0
		c-2.592-1.781-4.239-4.443-6.186-6.797c-14.801-17.905-29.678-35.746-44.482-53.646c-8.597-10.395-17.213-20.773-25.871-31.118
		c-1.699-2.031-1.963-2.074-3.292,0.221c-3.393,5.856-4.083,4.992-7.521,0.288c-2.307-3.156-4.779-6.205-7.35-9.156
		C832.389,160.173,832.062,158.672,833.455,156.95z"/>
	<path fill-rule="evenodd" clip-rule="evenodd" fill="#A2A2A2" d="M499.474,151.961c6.194-8.95,12.371-17.913,18.595-26.843
		c1.555-2.231,1.695-2.215,2.986,0.219c1.477,2.783,2.826,5.635,4.441,8.882c1.629-3.018,3.151-5.795,4.637-8.593
		c8.546-16.084,17.092-32.168,25.62-48.263c2.567-4.845,5.074-9.723,7.613-14.583c1.217-2.329,1.523-2.351,3.061-0.082
		c1.956,2.887,3.866,5.806,6.079,9.137c1.856-4.026,3.58-7.719,5.266-11.428c5.635-12.394,11.258-24.794,16.882-37.193
		c0.345-0.759,0.587-1.646,1.619-1.673c0.83-0.022,0.978,0.772,1.335,1.312c8.645,13.025,17.296,26.046,25.945,39.067
		c12.25,18.442,24.506,36.88,36.748,55.327c3.896,5.869,7.761,11.757,11.898,18.028c1.461-3.139,2.711-5.831,3.967-8.521
		c0.351-0.75,0.598-1.737,1.47-1.902c1.052-0.2,1.25,0.936,1.646,1.592c4.918,8.186,9.804,16.392,14.697,24.592
		c0.995,1.285-0.102,2.203-0.641,3.131c-4.807,8.283-9.755,16.483-14.674,24.701c-1.412,2.357-2.706,4.785-4.193,7.097
		c-0.438,0.68-0.804,1.688-1.786,1.478c-0.857-0.184-0.663-1.213-0.879-1.899c-0.547-1.739-0.251-3.604-0.716-5.75
		c-2.426,3.331-4.309,6.542-6.291,9.683c-5.867,9.295-11.865,18.506-17.717,27.811c-0.468,0.742-0.818,1.885-1.916,1.658
		c-0.887-0.182-0.971-1.26-1.201-2.047c-0.602-2.054-0.956-4.176-1.598-6.564c-1.859,1.914-3.068,3.883-4.34,5.773
		c-9.809,14.579-19.73,29.081-29.596,43.623c-0.564,0.832-1.16,1.623-1.934,2.27c-7.166,0-14.334,0-21.5,0
		c-3-2.714-4.921-6.261-7.197-9.512c-17.708-25.295-35.407-50.596-53.167-75.854c-5.553-7.896-11.108-15.793-16.601-23.732
		c-1.413-2.041-1.508-2.035-2.646,0.187c-0.721,1.407-1.46,2.808-2.104,4.253c-0.728,1.633-1.635,1.457-2.544,0.223
		c-0.739-1.002-1.39-2.076-1.904-3.218C498.408,153.393,498.549,152.566,499.474,151.961z"/>
	<path fill-rule="evenodd" clip-rule="evenodd" fill="#C6CABF" d="M955.5,262c7.57-14.634,15.135-29.271,22.714-43.9
		c6.774-13.076,13.554-26.151,20.354-39.215c5.296-10.172,10.627-20.326,16.149-30.885c1.06,3.115,1.978,5.813,3.051,8.971
		c1.886-4.314,3.607-8.268,4.729-12.462c1.161-2.118,2.216-4.263,2.026-6.792c-0.062-0.826-0.133-1.508,1.186-1.646
		c0.779-0.083,0.943-1.445,1.277-2.287c4.251-10.729,8.498-21.458,12.754-32.185c0.116-0.294,0.32-0.554,0.578-0.991
		c1.94,2.479,2.365,5.587,4.367,8.357c4.42-12.947,8.752-25.634,13.084-38.322c0.198-0.023,0.396-0.046,0.595-0.069
		c13.422,29.433,26.843,58.866,40.404,88.604c1.774-2.398,1.97-5.124,3.483-7.933c9.608,23.319,19.035,46.193,28.744,69.758
		c1.117-3.18,2.018-5.746,3.104-8.838c3.273,7.117,6.303,13.668,9.299,20.234c2.069,4.534,3.882,9.201,6.202,13.602
		c1.899,3.602,2.733,7.246,2.419,11.253c-0.123,1.572-0.02,3.163-0.02,4.745C1086.5,262,1021,262,955.5,262z"/>
	<path fill-rule="evenodd" clip-rule="evenodd" fill="#C6CABF" d="M606.5,262c2.346-4.788,5.747-8.891,8.696-13.281
		c8.562-12.744,17.248-25.403,25.9-38.086c0.359-0.527,0.546-1.471,1.282-1.391c0.99,0.109,0.685,1.217,0.858,1.853
		c0.686,2.507,1.214,5.056,1.906,8.046c5.212-8.148,10.133-15.807,15.017-23.489c3.338-5.253,6.621-10.54,9.935-15.81
		c0.261-0.414,0.521-1.009,1.051-0.942c0.7,0.088,0.79,0.856,0.782,1.367c-0.033,2.312,0.344,4.56,0.842,7.33
		c2.506-4.19,4.791-7.987,7.053-11.797c4.533-7.636,9.045-15.286,13.598-22.909c0.359-0.602,0.618-1.16,0.561-1.854
		c2.379-1.973,3.355-4.887,4.914-7.4c2.959-4.776,5.769-9.646,8.814-14.77c4.427,6.278,8.626,12.239,12.832,18.196
		c3.402,4.818,6.847,9.608,10.202,14.459c1.071,1.55,1.529,1.381,2.399-0.225c11.208-20.694,22.481-41.353,33.742-62.018
		c1.91-3.505,3.872-6.981,5.738-10.51c0.975-1.845,1.881-2.659,3.161-0.271c0.193,0.36,0.497,0.661,0.75,0.989
		c-1.759,0.583-2.277,1.811-2.253,3.622c0.2,14.987,0.495,29.972,0.683,44.958c0.085,6.733,0.267,13.48,0.33,20.222
		c0.142,15.07,0.366,30.145,0.671,45.208c0.218,10.741-0.092,21.491,0.42,32.214c0.357,7.496,0.379,14.98,0.411,22.472
		c0.005,1.315,0.176,2.693-0.796,3.817C719.5,262,663,262,606.5,262z"/>
	<path fill-rule="evenodd" clip-rule="evenodd" fill="#C6CABF" d="M499.474,151.961c-1.121,2.895,1.635,4.149,2.452,6.746
		c1.387-2.802,2.547-5.057,3.626-7.35c0.917-1.951,1.467-1.023,2.26,0.127c5.646,8.191,11.309,16.371,17.024,24.516
		c8.001,11.402,16.067,22.759,24.078,34.154c11.443,16.277,22.866,32.57,34.283,48.867c0.664,0.947,1.205,1.983,1.803,2.979
		c-50.333,0-100.667,0-151,0c-0.91-1.051-0.853-2.346-0.744-3.572c0.712-8.041,1.171-16.101,1.777-24.148
		c0.593-7.883,1.069-15.775,1.705-23.654c0.669-8.294,1.16-16.6,1.814-24.895c0.622-7.881,1.08-15.773,1.666-23.656
		c0.611-8.215,1.218-16.43,1.804-24.646c0.402-5.645,0.811-11.288,1.197-16.934c0.545-7.97,1.194-15.932,1.772-23.899
		c0.428-5.892,0.812-11.788,1.231-17.681c0.171-2.404,0.261-4.817,0.961-7.15c0.196-0.321,0.459-0.389,0.788-0.207
		c1.04,4.056,3.193,7.649,4.86,11.437c3.749,8.522,7.735,16.94,11.629,25.398c0.205,0.445,0.459,0.869,0.875,1.647
		c1.562-2.448,2.948-4.684,4.401-6.875c1.308-1.971,1.718-1.865,2.84,0.233c7.72,14.443,15.479,28.867,23.22,43.298
		c0.669,1.248,1.288,2.522,1.95,3.773C498.125,151.184,498.353,152.097,499.474,151.961z"/>
	<path fill-rule="evenodd" clip-rule="evenodd" fill="#C2C5BC" d="M776,262c0-6.165,0.31-12.35-0.066-18.492
		c-0.717-11.729,0.101-23.475-0.542-35.176c-0.562-10.239,0.119-20.473-0.454-30.681c-0.66-11.73,0.092-23.476-0.543-35.176
		c-0.591-10.905,0.127-21.807-0.492-32.678c-0.341-5.989-0.289-11.959-0.392-17.938c-0.054-3.109-0.003-3.11,3.023-2.372
		c2.62,1.857,4.169,4.666,6.115,7.09c14.977,18.649,29.849,37.382,44.749,56.093c1.087,1.363,2.197,2.715,3.189,4.146
		c0.957,1.381,1.838,1.643,2.867,0.135c-0.77,1.638-0.464,2.988,0.72,4.418c3.274,3.956,6.419,8.021,9.581,12.068
		c0.914,1.171,1.716,1.192,2.51-0.049c0.938-1.469,1.877-2.938,2.75-4.446c0.714-1.233,1.379-1.517,2.396-0.271
		c5.922,7.25,11.849,14.497,17.821,21.705c6.08,7.339,12.235,14.615,18.32,21.949c6.083,7.333,12.1,14.722,18.184,22.055
		c6.085,7.334,12.23,14.619,18.322,21.949c1.534,1.846,2.963,3.777,4.44,5.67C877.666,262,826.834,262,776,262z"/>
	<path fill-rule="evenodd" clip-rule="evenodd" fill="#BEC1BA" d="M447.515,71.465c-0.664,8.82-1.352,17.639-1.983,26.461
		c-0.389,5.447-0.641,10.904-1.044,16.35c-0.604,8.159-1.333,16.309-1.914,24.469c-0.199,2.806-0.31,5.616-0.521,8.426
		c-0.66,8.737-1.298,17.476-1.953,26.214c-0.377,5.028-0.73,10.064-1.063,15.1c-0.583,8.826-1.12,17.653-1.975,26.463
		c-0.551,5.68-0.664,11.4-1.076,17.095c-0.598,8.243-1.309,16.477-1.923,24.718c-0.13,1.738-0.048,3.493-0.063,5.24
		c-43.5,0-87,0-130.5,0c8.506-12.678,17.016-25.354,25.515-38.036c2.727-4.068,5.417-8.161,8.153-12.224
		c0.26-0.386,0.708-0.866,1.097-0.893c0.554-0.038,0.606,0.645,0.797,1.102c0.705,1.686,1.454,3.353,2.191,5.025
		c0.71,1.611,1.412,1.952,2.47,0.176c3.612-6.063,7.304-12.078,10.952-18.12c8.885-14.715,17.746-29.444,26.67-44.136
		c0.886-1.459,1.343-3.984,2.973-4.012c1.682-0.03,1.458,2.648,2.355,3.984c0.728,1.084,0.941,2.485,2.197,3.557
		c3.585-5.373,7.051-10.72,10.691-15.945c1.369-1.965,2.144-4.311,3.932-5.99c1.071-3.197,3.439-5.613,5.09-8.46
		c0.564-0.974,1.578-1.768,1.321-3.097c0.022-0.144,0.055-0.285,0.097-0.424c1.499-0.584,2.146-1.972,2.985-3.175
		c0.797-1.143,1.407-2.429,2.552-3.301l0.002-0.002c0.623-1.75,1.592-3.27,2.996-4.5l0-0.002c2.632-5.076,6.054-9.646,9.306-14.317
		c1.252-1.798,1.975-4.054,4.054-5.223c0.067-0.149,0.106-0.305,0.117-0.468c0.252-0.558,0.224-1.302,1.006-1.506
		c0.19-0.325,0.38-0.65,0.571-0.976c2.886-5.579,6.847-10.465,10.161-15.77c0.787-1.259,1.713-2.435,2.418-3.745
		C446.627,70.671,447.018,70.387,447.515,71.465z"/>
	<path fill-rule="evenodd" clip-rule="evenodd" fill="#B0B1AD" d="M211.505,261.508c9.667,0.002,19.333,0.004,29,0.005
		c0.162,0.11,0.215,0.219,0.16,0.327c-0.055,0.106-0.109,0.16-0.164,0.16c-9.667,0-19.333,0-29,0
		c-0.165-0.111-0.219-0.221-0.163-0.33C211.393,261.562,211.449,261.508,211.505,261.508z"/>
	<path fill-rule="evenodd" clip-rule="evenodd" fill="#B9BBB4" d="M211.505,261.508c-0.003,0.164-0.005,0.328-0.005,0.492
		c-9.5,0-19,0-28.5,0c-0.165-0.111-0.219-0.223-0.164-0.332c0.055-0.11,0.11-0.166,0.166-0.166
		C192.503,261.504,202.004,261.506,211.505,261.508z"/>
	<path fill-rule="evenodd" clip-rule="evenodd" fill="#A9A9A8" d="M240.5,262c0-0.162,0.001-0.325,0.004-0.487
		c8.833-0.001,17.666-0.003,26.498-0.005C267.001,261.672,267,261.836,267,262C258.167,262,249.333,262,240.5,262z"/>
	<path fill-rule="evenodd" clip-rule="evenodd" fill="#C0C3BA" d="M183.002,261.502C183.001,261.668,183,261.834,183,262
		c-6.667,0-13.333,0-20,0c0.735-0.814,1.709-0.48,2.582-0.485C171.388,261.486,177.195,261.502,183.002,261.502z"/>
	<path fill-rule="evenodd" clip-rule="evenodd" fill="#A5A5A5" d="M167.494,134.936c-1.261,4.322-3.653,8.126-5.568,12.148
		c-0.243,0.51-0.933,1.219-1.257,0.467c-0.643-1.487-2.537-2.566-1.696-4.596C161.712,140.176,164.128,137.051,167.494,134.936z"/>
	<path fill-rule="evenodd" clip-rule="evenodd" fill="#A7AAA9" d="M409.905,124.931c1.189,0.196,1.017,0.719,0.46,1.519
		c-2.317,3.328-4.585,6.689-6.871,10.038c-3.242-2.178-5.827-5.078-8.559-7.815c-0.625-0.625-1.466-1.14-1.42-2.208
		c2.355,2.297,4.848,4.473,7.021,6.932c1.571,1.777,2.268,1.277,3.362-0.393C405.734,130.199,407.307,127.176,409.905,124.931z"/>

	<path fill-rule="evenodd" clip-rule="evenodd" fill="#C9CCCC" d="M279.506,37.506c-0.156,0.912-0.346,1.799-1.444,2.045
		C278.397,38.766,278.602,37.889,279.506,37.506z"/>
</g>
</svg>
