<svg xmlns="http://www.w3.org/2000/svg" width="1290" height="923" viewBox="0 0 1290 923"><g fill-rule="evenodd" clip-rule="evenodd"><path fill="#cd7979" d="M641.617 879c-1.003 1.943-2.845 1.35-4.4 1.354-15.698.037-31.396.034-47.094.005-1.576-.004-3.386.54-4.455-1.305.05-.997.143-1.994.143-2.99.008-86.812.008-173.62.008-260.432 0-.5-.038-1.003.003-1.5.282-3.336-1.083-3.57-3.827-2.354-18.433 8.16-37.893 9.905-57.637 8.043-18.99-1.79-36.87-7.312-51.888-19.737-2.793-2.31-5.47-3.143-8.975-3.142-132.632.067-265.263.056-397.894.065-1.997 0-3.993.12-5.99.187-1.733-.98-1.045-2.66-1.047-4.036-.042-27.772-.042-55.546 0-83.32.002-1.376-.686-3.057 1.047-4.034 1.497.065 2.993.187 4.49.187 150.306.007 300.613.007 450.92-.007 1.134 0 2.268-.197 4.28-.383-3.415-1.496-5.89-2.457-8.256-3.637-19.155-9.55-35.636-22.143-45.75-41.564-5.583-10.723-7.716-22.064-2.573-33.588 6.332-14.185 18.724-20.284 33.063-22.736 21.467-3.673 41.85.636 61.57 9.366 9.407 4.164 17.965 9.655 27.106 16.237v-6.246c0-37.494.018-74.987-.008-112.48-.013-18.993-.104-37.986-.16-56.98-.04-2.267.908-4.037 2.35-5.796 5.673-6.927 11.197-13.977 16.777-20.98.584-.586 1.228-1.124 1.747-1.763 46.58-57.34 93.197-114.645 139.633-172.1 4.19-5.183 8.132-9.235 15.505-8.605 3.705.315 7.54-.894 11.318-1.413 14.12-1.29 28.453-1.047 42.48-4.724l.26 4.598c.11 3.128-1.024 5.66-2.983 8.164-30.054 38.38-60.04 76.815-89.997 115.27-15.637 20.072-31.188 40.21-46.778 60.317-7.318 8.732-14.323 17.708-21.003 26.938-2.52 3.094-4.86 6.357-7.604 9.237-3.692 3.875-4.694 8.233-4.677 13.548.18 54.314.11 108.63.11 162.943v6.184c1.126-.266 1.78-.326 2.358-.57 23.804-10.09 48.368-11.715 73.433-6.18 16.22 3.583 31.077 10.092 42.5 22.714 11.09 12.255 12.698 26.013 5.062 40.594-.507.97-1.57 1.808-.898 3.642h348.025c.21 2.237.42 4.475.732 7.82 4.503-4.422 7.885-8.55 11.058-12.872.812-.825 1.682-1.6 2.427-2.48 28.892-34.14 57.793-68.272 86.643-102.446 13.724-16.257 27.346-32.6 41.014-48.904 1.097 1.494.588 3.213.59 4.82.032 32.365.03 64.73.014 97.092 0 1.965.373 4.012-.882 5.796-1.398 1.405-2.878 2.74-4.183 4.226-39.464 44.94-78.92 89.886-118.33 134.872-2.053 2.342-4.03 4.43-7.457 4.076-2.734-.488-5.23-.62-6.617 2.6-.924 2.142-3.338.835-4.88 1.672-.567-4.827-3.574-5.356-7.864-5.353-122.146.112-244.29.09-366.435.09-1.166 0-2.34.082-3.497-.016-2.138-.18-3.195.64-3.97 2.773-4.587 12.643-14.28 19.68-26.687 23.375-19.223 5.726-38.12 2.98-56.83-2.693-5.353-1.625-5.326-1.736-5.326 4.12 0 83.15-.002 166.303.007 249.454 0 1.663.118 3.325.18 4.987z"/><path fill="#333" d="M59.61 597.196c1.997-.065 3.993-.188 5.99-.188 132.63-.01 265.26.002 397.893-.065 3.504 0 6.182.83 8.975 3.142 15.017 12.425 32.896 17.947 51.888 19.737 19.744 1.862 39.204.116 57.637-8.044 2.744-1.216 4.11-.98 3.828 2.355-.04.496-.002 1-.002 1.5 0 86.81 0 173.62-.007 260.43 0 .997-.093 1.994-.142 2.99-24.992-.017-49.985-.05-74.98-.052-148.462-.004-296.924-.03-445.386.125-4.944.005-5.855-1.31-5.847-6 .167-91.977.142-183.953.156-275.93zM641.617 879c-.062-1.66-.18-3.323-.18-4.985-.01-83.15-.008-166.304-.007-249.455 0-5.855-.027-5.744 5.327-4.12 18.708 5.674 37.606 8.42 56.83 2.693 12.404-3.695 22.1-10.732 26.686-23.375.774-2.134 1.832-2.953 3.97-2.773 1.158.098 2.33.016 3.498.016 122.146 0 244.29.023 366.435-.093 4.29-.004 7.297.525 7.863 5.353.056 1.665.162 3.328.162 4.99.008 88.627-.035 177.254.122 265.88.01 4.76-1.032 5.996-5.914 5.99-154.93-.146-309.86-.12-464.79-.12zM584.292 253.974c.057 18.994.148 37.987.16 56.98.026 37.493.008 74.986.008 112.48v6.247c-9.142-6.58-17.7-12.072-27.105-16.236-19.722-8.73-40.104-13.04-61.57-9.366-14.34 2.452-26.732 8.552-33.063 22.736-5.143 11.523-3.01 22.865 2.573 33.588 10.114 19.422 26.595 32.014 45.75 41.564 2.366 1.18 4.84 2.14 8.255 3.637-2.012.186-3.146.383-4.28.383-150.307.014-300.614.014-450.92.005-1.497 0-2.993-.12-4.49-.186-.013-82.658-.01-165.315-.11-247.974-.002-3.054.724-4.333 3.853-3.858 1.14.173 2.33.028 3.496.028l517.442-.026zM1111.91 505.988H763.883c-.672-1.834.392-2.673.898-3.642 7.636-14.58 6.027-28.34-5.062-40.594-11.423-12.622-26.28-19.13-42.5-22.713-25.063-5.537-49.628-3.91-73.432 6.177-.577.245-1.232.306-2.358.57v-6.183c0-54.314.07-108.63-.11-162.943-.017-5.313.985-9.672 4.678-13.547 2.744-2.88 5.085-6.144 7.604-9.237 2.165.04 4.33.118 6.495.118 148.658.006 297.316.03 445.975-.11 4.926-.005 6.282.998 6.27 6.153-.19 80.16-.132 160.323-.146 240.485-.002 1.824-.187 3.645-.287 5.466zM771.623 43.316c-3.777.52-7.613 1.73-11.318 1.413-7.373-.63-11.314 3.422-15.505 8.605-46.436 57.454-93.054 114.76-139.632 172.1-.52.638-1.163 1.176-1.748 1.76-1.998-.04-3.996-.114-5.995-.114-173.655-.004-347.31-.004-520.966-.004h-5.664c.32-1.906 1.814-2.46 2.86-3.298 73.8-59.222 147.62-118.415 221.41-177.648 2.28-1.83 4.475-2.956 7.588-2.954 155.323.08 310.646.072 465.97.075 1 0 2 .044 3 .066zM674.604 226.94c15.59-20.107 31.142-40.245 46.778-60.316 29.958-38.455 59.943-76.89 89.997-115.27 1.958-2.504 3.094-5.037 2.983-8.164 78.477.02 156.955.044 235.433.055 65.648.01 131.297.002 196.945.002h5.4c.504 2.244-1.11 3.278-1.99 4.524-41.42 58.612-82.893 117.186-124.287 175.813-1.675 2.37-3.285 3.57-6.39 3.568-147.292-.086-294.584-.074-441.877-.08-.996 0-1.993-.084-2.992-.13zM1253.783 347.105c-13.668 16.305-27.29 32.647-41.014 48.904-28.85 34.174-57.752 68.305-86.644 102.444-.745.88-1.615 1.656-2.427 2.48-.055-1.828-.156-3.657-.156-5.486-.008-81.126.012-162.252-.07-243.378-.004-3.502.853-6.333 2.81-9.228 41.132-60.804 82.182-121.662 123.255-182.505.895-1.328 1.88-2.598 2.824-3.894l1.418.255v290.407zM1123.535 597.987c3.426.354 5.404-1.734 7.457-4.076 39.41-44.985 78.866-89.932 118.33-134.87 1.305-1.487 2.784-2.82 4.183-4.227.077 1.658.223 3.317.223 4.977.012 62.462-.002 124.923.046 187.385.002 2.916-.558 5.427-2.102 7.988-42.01 69.684-83.944 139.412-125.896 209.13-.425.707-.905 1.382-2.24 3.41V597.987z"/></g></svg>