<?xml version="1.0" encoding="utf-8"?>
<!-- Generator: Adobe Illustrator 16.0.0, SVG Export Plug-In . SVG Version: 6.00 Build 0)  -->
<!DOCTYPE svg PUBLIC "-//W3C//DTD SVG 1.1//EN" "http://www.w3.org/Graphics/SVG/1.1/DTD/svg11.dtd">
<svg version="1.1" id="registry_xA0_Image_1_" xmlns="http://www.w3.org/2000/svg" xmlns:xlink="http://www.w3.org/1999/xlink"
	 x="0px" y="0px" width="1290px" height="923px" viewBox="0 0 1290 923" enable-background="new 0 0 1290 923" xml:space="preserve"
	>
<g>
	
	<path fill-rule="evenodd" clip-rule="evenodd" fill="#04AFDE" d="M641.617,879.001c-1.003,1.942-2.845,1.349-4.4,1.353
		c-15.698,0.037-31.396,0.034-47.094,0.005c-1.576-0.003-3.386,0.542-4.455-1.304c0.049-0.997,0.143-1.994,0.143-2.991
		c0.007-86.811,0.007-173.62,0.007-260.431c0-0.5-0.038-1.003,0.003-1.499c0.281-3.337-1.084-3.571-3.828-2.355
		c-18.433,8.16-37.893,9.906-57.637,8.044c-18.991-1.79-36.871-7.312-51.888-19.737c-2.793-2.311-5.471-3.143-8.975-3.142
		C330.861,597.011,198.23,597,65.599,597.009c-1.996,0-3.992,0.122-5.988,0.188c-1.734-0.979-1.046-2.659-1.048-4.036
		c-0.042-27.773-0.042-55.547,0-83.32c0.002-1.377-0.686-3.058,1.047-4.035c1.497,0.065,2.993,0.187,4.489,0.187
		C214.406,506,364.713,506,515.02,505.986c1.134,0,2.268-0.197,4.279-0.383c-3.414-1.496-5.889-2.457-8.255-3.637
		c-19.155-9.551-35.636-22.143-45.75-41.564c-5.583-10.723-7.716-22.064-2.573-33.588c6.331-14.185,18.723-20.284,33.062-22.736
		c21.467-3.673,41.85,0.636,61.571,9.366c9.406,4.164,17.964,9.655,27.105,16.237c0-2.72,0-4.483,0-6.247
		c0-37.494,0.019-74.987-0.007-112.48c-0.013-18.993-0.104-37.986-0.161-56.98c-0.039-2.267,0.909-4.037,2.35-5.796
		c5.674-6.927,11.198-13.977,16.778-20.981c0.585-0.585,1.229-1.123,1.748-1.762C651.746,168.096,698.364,110.79,744.8,53.336
		c4.19-5.184,8.132-9.236,15.505-8.606c3.705,0.315,7.541-0.894,11.318-1.413c14.121-1.29,28.453-1.047,42.48-4.724
		c0.046,0.812,0.153,2.705,0.261,4.598c0.11,3.127-1.025,5.66-2.984,8.163c-30.054,38.381-60.039,76.815-89.997,115.271
		c-15.637,20.071-31.188,40.209-46.778,60.316c-7.318,8.731-14.323,17.707-21.003,26.937c-2.52,3.094-4.86,6.357-7.604,9.237
		c-3.692,3.875-4.694,8.233-4.677,13.548c0.179,54.314,0.109,108.629,0.109,162.943c0,1.955,0,3.91,0,6.184
		c1.126-0.266,1.781-0.326,2.358-0.571c23.804-10.088,48.368-11.714,73.433-6.178c16.22,3.582,31.076,10.091,42.499,22.713
		c11.09,12.255,12.698,26.013,5.062,40.594c-0.507,0.969-1.57,1.808-0.898,3.642c115.906,0,231.966,0,348.025,0
		c0.21,2.237,0.42,4.475,0.733,7.82c4.503-4.422,7.885-8.55,11.058-12.872c0.812-0.825,1.682-1.601,2.427-2.481
		c28.892-34.14,57.793-68.271,86.643-102.445c13.724-16.257,27.346-32.6,41.014-48.904c1.097,1.494,0.588,3.213,0.59,4.821
		c0.032,32.364,0.029,64.728,0.014,97.091c-0.001,1.965,0.373,4.012-0.882,5.796c-1.398,1.405-2.878,2.739-4.183,4.226
		c-39.464,44.939-78.92,89.886-118.33,134.872c-2.053,2.342-4.031,4.431-7.457,4.076c-2.734-0.488-5.23-0.619-6.617,2.6
		c-0.923,2.142-3.337,0.835-4.88,1.672c-0.566-4.827-3.573-5.356-7.863-5.353C982.03,597.022,859.886,597,737.741,597
		c-1.167,0-2.34,0.082-3.498-0.016c-2.138-0.18-3.195,0.64-3.97,2.773c-4.587,12.643-14.281,19.68-26.687,23.375
		c-19.223,5.726-38.121,2.98-56.829-2.693c-5.354-1.624-5.327-1.735-5.327,4.12c-0.001,83.151-0.002,166.304,0.007,249.455
		C641.438,875.677,641.555,877.339,641.617,879.001z"/>
	<path fill-rule="evenodd" clip-rule="evenodd" fill="#333333" d="M59.611,597.196c1.996-0.065,3.992-0.188,5.988-0.188
		c132.631-0.009,265.262,0.002,397.894-0.065c3.504-0.001,6.182,0.831,8.975,3.142c15.017,12.425,32.896,17.947,51.888,19.737
		c19.744,1.862,39.204,0.116,57.637-8.044c2.744-1.216,4.109-0.981,3.828,2.355c-0.041,0.496-0.003,0.999-0.003,1.499
		c0,86.811,0,173.62-0.007,260.431c0,0.997-0.094,1.994-0.143,2.991c-24.992-0.018-49.985-0.052-74.979-0.053
		c-148.463-0.005-296.925-0.031-445.387,0.124c-4.944,0.005-5.855-1.309-5.847-6.001C59.622,781.148,59.597,689.172,59.611,597.196z
		"/>
	<path fill-rule="evenodd" clip-rule="evenodd" fill="#333333" d="M641.617,879.001c-0.062-1.662-0.18-3.324-0.18-4.986
		c-0.009-83.151-0.008-166.304-0.007-249.455c0-5.855-0.027-5.744,5.327-4.12c18.708,5.674,37.606,8.419,56.829,2.693
		c12.405-3.695,22.1-10.732,26.687-23.375c0.774-2.134,1.832-2.953,3.97-2.773c1.158,0.098,2.331,0.016,3.498,0.016
		c122.145,0,244.289,0.022,366.434-0.094c4.29-0.004,7.297,0.525,7.863,5.353c0.056,1.665,0.162,3.328,0.162,4.99
		c0.008,88.627-0.035,177.254,0.122,265.881c0.009,4.76-1.032,5.995-5.914,5.99C951.478,878.974,796.547,879.001,641.617,879.001z"
		/>
	<path fill-rule="evenodd" clip-rule="evenodd" fill="#333333" d="M584.292,253.974c0.057,18.994,0.148,37.987,0.161,56.98
		c0.025,37.493,0.007,74.986,0.007,112.48c0,1.764,0,3.527,0,6.247c-9.142-6.582-17.699-12.073-27.105-16.237
		c-19.722-8.73-40.104-13.039-61.571-9.366c-14.34,2.452-26.731,8.552-33.062,22.736c-5.143,11.523-3.01,22.865,2.573,33.588
		c10.114,19.422,26.595,32.014,45.75,41.564c2.366,1.18,4.841,2.141,8.255,3.637c-2.012,0.186-3.146,0.383-4.279,0.383
		C364.713,506,214.406,506,64.1,505.991c-1.497,0-2.993-0.121-4.489-0.187c-0.014-82.658-0.01-165.315-0.11-247.974
		c-0.003-3.054,0.723-4.333,3.852-3.858c1.141,0.173,2.329,0.028,3.496,0.028C239.329,253.992,411.811,253.982,584.292,253.974z"/>
	<path fill-rule="evenodd" clip-rule="evenodd" fill="#333333" d="M1111.909,505.988c-116.06,0-232.119,0-348.025,0
		c-0.672-1.834,0.392-2.673,0.898-3.642c7.636-14.581,6.027-28.339-5.062-40.594c-11.423-12.622-26.279-19.131-42.499-22.713
		c-25.064-5.536-49.629-3.91-73.433,6.178c-0.577,0.245-1.232,0.306-2.358,0.571c0-2.273,0-4.229,0-6.184
		c0-54.314,0.069-108.629-0.109-162.943c-0.018-5.314,0.984-9.673,4.677-13.548c2.744-2.88,5.085-6.144,7.604-9.237
		c2.165,0.041,4.33,0.118,6.495,0.118c148.658,0.006,297.316,0.031,445.975-0.11c4.926-0.005,6.282,0.998,6.27,6.153
		c-0.191,80.161-0.132,160.323-0.146,240.485C1112.194,502.346,1112.009,504.167,1111.909,505.988z"/>
	<path fill-rule="evenodd" clip-rule="evenodd" fill="#333333" d="M771.623,43.316c-3.777,0.52-7.613,1.729-11.318,1.413
		c-7.373-0.63-11.314,3.423-15.505,8.606c-46.436,57.454-93.054,114.76-139.632,172.099c-0.52,0.639-1.163,1.177-1.748,1.762
		c-1.998-0.04-3.996-0.115-5.995-0.115c-173.655-0.005-347.311-0.005-520.966-0.005c-1.81,0-3.619,0-5.663,0
		c0.32-1.906,1.814-2.459,2.859-3.298c73.8-59.222,147.622-118.415,221.412-177.648c2.279-1.829,4.474-2.956,7.587-2.954
		c155.323,0.081,310.646,0.072,465.97,0.075C769.624,43.251,770.623,43.294,771.623,43.316z"/>
	<path fill-rule="evenodd" clip-rule="evenodd" fill="#333333" d="M674.604,226.94c15.59-20.107,31.142-40.245,46.778-60.316
		c29.958-38.455,59.943-76.89,89.997-115.271c1.959-2.503,3.095-5.036,2.984-8.163c78.477,0.019,156.955,0.044,235.433,0.055
		c65.648,0.009,131.297,0.002,196.945,0.002c1.793,0,3.585,0,5.398,0c0.505,2.244-1.109,3.278-1.99,4.524
		c-41.419,58.611-82.892,117.185-124.286,175.812c-1.675,2.371-3.285,3.57-6.39,3.568c-147.292-0.087-294.584-0.075-441.877-0.081
		C676.6,227.071,675.603,226.986,674.604,226.94z"/>
	<path fill-rule="evenodd" clip-rule="evenodd" fill="#333333" d="M1253.783,347.105c-13.668,16.305-27.29,32.647-41.014,48.904
		c-28.85,34.175-57.751,68.306-86.643,102.445c-0.745,0.881-1.615,1.656-2.427,2.481c-0.054-1.829-0.155-3.658-0.155-5.487
		c-0.008-81.126,0.012-162.252-0.071-243.378c-0.003-3.502,0.854-6.333,2.812-9.228c41.131-60.804,82.181-121.662,123.254-182.505
		c0.896-1.328,1.882-2.598,2.825-3.894c0.473,0.085,0.945,0.17,1.418,0.255C1253.783,153.502,1253.783,250.304,1253.783,347.105z"/>
	<path fill-rule="evenodd" clip-rule="evenodd" fill="#333333" d="M1123.535,597.987c3.426,0.354,5.404-1.734,7.457-4.076
		c39.41-44.986,78.866-89.933,118.33-134.872c1.305-1.486,2.784-2.82,4.183-4.226c0.077,1.658,0.223,3.317,0.223,4.977
		c0.012,62.462-0.002,124.923,0.046,187.385c0.002,2.916-0.558,5.427-2.102,7.988c-42.01,69.684-83.944,139.412-125.896,209.13
		c-0.425,0.707-0.905,1.382-2.241,3.41C1123.535,776.871,1123.535,687.429,1123.535,597.987z"/>
</g>
</svg>
