<svg xmlns="http://www.w3.org/2000/svg" width="1000" height="1000" viewBox="0 0 1000 1000"><g fill-rule="evenodd" clip-rule="evenodd"><path fill="#4A4A4A" d="M469.25 614.997H149.3c-10.348 0-13.296-2.97-13.296-13.4V207.16c0-10.08 3.05-13.155 13.05-13.155 213.466-.002 426.93-.002 640.395 0 10.692 0 13.546 2.88 13.546 13.662v393.936c0 10.425-2.947 13.394-13.3 13.394H469.248z"/><path fill="#79CCA2" d="M622 412.873c.032 85.704-69.42 155.158-155.123 155.127-85.418-.03-154.845-69.456-154.877-154.873-.03-85.705 69.42-155.157 155.123-155.127 85.418.03 154.844 69.456 154.877 154.873z"/><path fill="#F9F9F9" d="M463.212 334.192c9.317-9.468 9.332-9.483 18.873.11 9.275 9.325 18.576 18.627 27.728 28.072 2.364 2.44 3.655 2.733 6.17-.116 5.025-5.695 10.65-10.86 16.028-16.244.377-.958 1.047-1.623 1.998-2.01 3.268-1.888 4.803-7.072 8.67-6.72 3.395.313 5.44 4.518 8.02 7.046 9.666 9.468 19.21 19.062 29.142 28.95-3.35 1.434-5.6.808-7.707-1.48-1.9-2.06-4.05-3.892-6.09-5.824-.807-.537-1.68-1.01-2.013-2.018-1.33-1.33-2.657-2.66-3.986-3.992-1.61-.403-2.29-1.733-3.014-3.02-8.87-10.178-8.9-10.21-18.17-1.265-5.5 5.307-10.878 10.736-16.33 16.09-3.486 3.426-8.595 3.48-12.024.13-8.795-8.584-17.662-17.1-26.297-25.84-2.05-2.075-3.058-1.554-4.746.16-8.506 8.624-16.97 17.3-25.74 25.653-3.1 2.952-4.475 5.92-3.46 9.668 10.91-1.316 21.8-.403 32.66-.565 2.12-.032 2.175 1.628 2.175 3.188 0 9.162-.02 18.324.02 27.485.006 1.606-.43 2.89-1.657 3.97-1.36 1.2-2.606 2.528-3.923 3.78-5.587 5.31-5.61 5.325-.255 10.6 4.944 4.872 9.937 9.693 14.907 14.536l-.598 1.32c-9.042 0-18.093.21-27.123-.12-2.914-.107-4.354-3.362-6.437-5.21-2.364-2.096-4.644-4.29-6.967-6.432-2.407-2.22-3.44-1.09-3.822 1.586-.023.164-.005.334-.027.498-.41 3.075 1.5 7.138-.945 9.032-2.63 2.04-6.747.68-10.205.687-29.65.056-59.302.033-88.953.032-6.27 0-6.27-.002-3.946-5.713.043-1.133 1.08-1.53 1.67-2.258 5.372-8.94 10.744-17.878 16.395-27.278-4.4-.203-7.157 2.956-11.892 3.966l18.615-33.708-9.788 4.58c5.252-11.176 10.892-21.02 16.97-30.985-3.26-.495-5.54 1.397-8.688 1.374 1.607-4.19 4.03-7.597 6.175-11.16 3.5-5.815 6.932-11.675 10.336-17.548 1.318-2.27 2.265-2.543 3.653.04 4.793 8.92 9.728 17.76 14.62 26.626.46.834 1.39 1.768.256 2.498-.478.308-1.55-.307-2.35-.502-.948.598-3.37-2.953-3.09 1.1 4.613 8.56 9.235 17.115 13.833 25.685.59 1.1 1.2 1.54 2.173.43.312-1.028.99-1.693 2.004-2.032l20.12-20.008c.646-.654 1.378-1.23 1.91-1.993l22.97-22.95c.627-.734 1.18-1.554 2.152-1.898zM497.08 413.273c0-9.333.09-18.667-.05-27.998-.046-3.012.483-4.495 4.033-4.447 13.997.188 27.998.14 41.997.027 3.07-.024 3.957 1.062 3.994 4.088.148 11.933.248 11.932-11.512 11.932-3.666 0-7.34.14-10.997-.04-3.04-.146-3.594 1.36-3.563 3.97.03 2.602.69 4.123 3.637 4.07 6.495-.116 13.005.108 19.486-.24 2.386-.13 3.013.47 2.86 2.575-.025.332-.01.667 0 1 .338 12.607.34 12.607-12.174 12.607-3.333 0-6.672.115-9.998-.034-2.758-.124-3.928.838-3.812 3.723.112 2.757.78 4.408 3.99 4.33 6.163-.152 12.37.33 18.483-.24 3.37-.315 3.48.84 3.55 3.408.37 13.928.416 13.926-13.307 13.926-10.833 0-21.667-.1-32.498.06-3.22.048-4.3-.828-4.21-4.22.253-9.493.09-18.997.09-28.497zM580.898 413.03c0 9.656-.124 19.315.072 28.967.063 3.084-.838 4.122-3.916 3.988-4.818-.21-9.662-.23-14.48.015-2.953.15-3.678-.966-3.666-3.71.08-19.312.074-38.624-.003-57.937-.01-2.567.805-3.543 3.436-3.49 5.656.108 11.32.082 16.973-.14 2.212-.086 1.786.814 1.77 2.35-.122 9.984-.063 19.97-.063 29.957h-.122zM409.055 472.99c-.71-1.684-.055-4.623-2.74-4.567-2.792.06-1.984 2.92-2.478 4.717-.613 2.236-1.312 4.45-1.985 6.67-.646 2.132-.65 4.436-4.123 4.46-3.555.02-4.008-2.157-4.686-4.596-.735-2.645-1.526-5.273-2.606-8.985-1.04 3.795-1.87 6.477-2.492 9.205-.548 2.407-1.09 4.27-4.31 4.353-3.31.083-3.77-1.937-4.388-4.253-.854-3.2-1.882-6.355-2.646-9.574-.303-1.272-.595-2.367-2.07-2.253-1.368.106-1.764 1.23-2.05 2.458-.794 3.384-1.746 6.73-2.53 10.118-.506 2.188-1.405 3.49-3.996 3.467-2.454-.022-3.63-1.003-4.212-3.28-.77-3.022-1.736-5.995-3.01-10.315-1.174 4.18-2.043 7.046-2.772 9.946-.59 2.352-1.593 3.783-4.406 3.65-2.575-.123-3.088-1.477-3.823-3.618-1.492-4.35-1.773-9.082-4.418-13.107-1.17-1.778-.59-3.368 2.16-3.627 5.278-.497 5.722.038 4.992 5.26-.273 1.952.618 4.07 1.253 7.663 1.355-4.352 2.507-7.212 3.092-10.184.482-2.445 1.82-2.77 3.866-2.73 2.066.043 3.883-.107 4.424 2.71.58 3.018 1.682 5.934 2.947 10.22.773-3.967 2.445-6.306 1.058-9.45-1.146-2.59.468-3.537 3.02-3.468 3.5.096 7.01.168 10.498-.02 3.26-.176 3.598 1.528 3.083 4.05-.152 1.584-.44 3.165.028 5.395.483-1.958.832-3.45 2.115-4.38.77-2.166.38-4.72 4.1-5.17 5.335-.648 4.397 3.892 6.142 6.212.883.806 1.285 1.818 1.397 3.012-.035-1.694 1.353-3.21.526-5.006-.296-3.153 1.052-4.365 4.267-4.128 3.418.25 6.872.147 10.305.025 2.213-.08 3.48.57 3.292 2.986-.69 2.21-.34 4.488-.413 6.745.077-2.196.827-4.097 2.443-5.616.482-2.75 1.604-4.32 4.915-4.192 3.268.125 3.495 2.193 4.287 4.424.828 2.33.488 5.002 2.346 7.447 1.146-3.007 2.8-5.513.73-8.642-.486-.737-.474-2.604 1.016-2.88 2.08-.384 4.385-.86 6.287.366 1 .645.82 2.246.187 3.208-2.535 3.853-2.942 8.346-4.046 12.632-.545 2.116-.95 3.98-4.036 3.917-2.735-.056-3.813-1.152-4.405-3.533-.705-2.835-1.6-5.623-2.57-8.98-2.193 2.885-2.246 5.752-2.908 8.425-.517 2.08-.938 3.977-4 4.09-3.16.12-4.018-1.504-4.604-3.935-.348-1.447-.756-2.88-1.137-4.318-.69-.89-.94-1.913-.918-3.02zM558.393 484.146c-1.162.006-2.323.007-3.485.006-6.542-.003-6.09.072-5.066-6.023.552-3.29 1.52-7.08-1.258-10.403-1.643-1.966-.83-4.382 2.004-3.688 5.158 1.26 10.35-3.043 15.378.4.344.236 1.186-.21 1.78-.39 7.744-2.343 9.316-1.055 9.534 7.094.086 3.224-1.467 6.87 2.29 9.54 1.148.816.922 3.272-1.673 3.416-1.658.092-3.355-.15-4.98.102-3.964.615-3.533-2.192-2.29-3.725 2.5-3.083.974-6.364 1.37-9.515.193-1.544-.882-2.612-2.305-2.76-1.468-.15-2.73.844-2.63 2.335.22 3.186-1.173 6.475 1.076 9.572 1.716 2.363.98 4.068-2.267 4.035-2.492-.024-4.985-.004-7.477 0z"/><path fill="#F8F9F8" d="M462.87 473.787c.013-8.813 6.585-13.313 13.977-9.692 4.237 2.075 4.446 5.78 4.412 9.687-.015 1.595-1.283 1.188-2.147 1.214-2.322.068-4.65-.02-6.973.05-1.232.038-2.846-.436-3.152 1.508-.19 1.21.08 2.4 1.263 2.994 1.21.608 2.523.833 3.765-.043.134-.095.28-.213.346-.354 1.32-2.795 3.758-2.26 6.027-1.913.944.144 1.183 1.063.868 1.97-.813 2.34-2.417 3.976-4.74 4.753-7.472 2.5-14.792-.407-13.644-10.173z"/><path fill="#F7F8F8" d="M529.09 482.924c-2.152-3.76-3.66-7.55-2.42-12.092 1.772-6.49 6.027-9.186 12.586-7.558 5.52 1.37 8.243 7.494 6.48 14.576-1.33 5.337-6.336 8.11-11.965 6.58-1.585-.43-3.13-1.012-4.694-1.524l.013.018z"/><path fill="#F8F9F8" d="M516.453 484.906c-3.102-.63-6.537-1.096-7.855-4.414-1.972-4.96-2.263-10.192 1.126-14.65 2.133-2.808 5.464-3.114 9.014-2.363 3.42.723 7.62.04 6.298 5.81-.292 1.275-.684 2.234-2.017 2.447-1.126.18-2.467.462-2.967-1.003-.688-2.02-1.87-3.222-4.06-2.53-2.31.73-2.352 3.037-2.825 4.887-.475 1.855.41 3.644 1.19 5.23.894 1.81 2.676 2.342 3.922.456 1.378-2.084 2.96-3.027 5.376-2.496 1.284.282 1.406 1.22 1.13 2.29-.645 2.513-1.77 4.68-4.468 5.493-1.258.378-2.576.567-3.865.843zM451.8 484.12c-5.343.09-4.897.24-3.073-5.223 1.09-3.262 1.643-7.32-.553-10.525-2.67-3.9-.814-4.465 2.638-4.49 2.845-.02 5.742 1.16 8.53-.714.834-.56 2.502-.43 2.584 1.27.064 1.34.597 2.767-1.383 3.735-6.24 3.053-6.84 6.023-3.11 12.072 1.034 1.676 1.275 3.637-1.652 3.858-1.32.1-2.654.017-3.98.017z"/><path fill="#F8F9F9" d="M488.542 484.214c-1.772-.42-3.974.83-5.12-1.077-1.335-2.223 1.98-3.075 1.976-4.068-.022-3.604 3.058-7.87-1.7-10.8-1.138-.7-.838-2.275-.353-3.147 1.23-2.217 3.522-.954 5.352-1.186 1.652-.208 2.39.73 2.38 2.368-.02 2.98-.05 5.96.04 8.938.056 1.85-.738 4.034 2.02 4.948 1.062.353 1.027 1.795.61 2.632-1.186 2.37-3.517.853-5.205 1.392z"/><path fill="#F3F7F5" d="M444.02 481.015c.622 3.467-1.933 2.898-4.02 3.287-3.12.582-2.636-1.52-2.79-3.278-.208-2.35.836-3.25 3.186-3.208 2.242.04 4.08.2 3.625 3.2z"/><path fill="#F4F7F6" d="M503.865 480.757c.45 2.53-.52 3.518-2.938 3.43-2.11-.08-4.005.08-3.905-3.004.073-2.267.75-3.415 3.165-3.34 2.12.065 4.292-.136 3.678 2.914z"/><path fill="#E7F3ED" d="M588.87 381.924c1.02-1.03 2.073-1.112 3.168-.12.575.774 1.507 1.264 1.817 2.252.457 1.663.427 3.33.025 4.993-.145.425-.38.808-.672 1.147-.408.264-.867.305-1.354.344-.66.055-1.015.422-.425.11s-.04.892.227.283c.353.348.6.724.583 1.224-1.133 1.022-2.22 1.095-3.24-.158-.465-.567-.697-1.25-.966-1.913-.423-1.816-.217-3.69-.518-5.52-.394-1.31 1.088-1.664 1.355-2.643z"/><path fill="#F0F6F3" d="M488.206 461.066c-2.278.372-3.585-.498-3.652-2.83-.08-2.743 1.996-2.003 3.518-2.065 1.82-.074 3.273-.333 3.257 2.645-.018 3.034-1.79 2.003-3.124 2.25z"/><path fill="#93D6B4" d="M385.854 468.923l-1.522 6.92c-2.928-4.93-2.94-5.267-.62-7.936l2.142 1.016z"/><path fill="#E8F3EE" d="M588.943 389.842L589 392c-2.606-.69-4.03-2.483-3.816-5.073.184-2.242.502-4.792 3.688-5.003 1.32 1.363-1.065 1.202-.866 2.104.436 1.917-.662 4.083.937 5.814z"/><path fill="#8AD2AE" d="M417.913 467.98l-2.302 8.307c-1.138-3.886-3.306-6.817.272-9.434.435.81 1.15 1.118 2.03 1.128z"/><path fill="#F0F6F3" d="M593.01 384.04l-.972-2.234c2.646.382 4.462 1.966 4.46 4.54 0 2.69-.894 5.31-4.26 5.81l-1.227-1c.265-.964 1.423-.398 1.85-1.08l.15-.097c1.553-1.982.936-3.96 0-5.94z"/><path fill="#85D0AA" d="M398.02 467.97c3.668 2.713-.557 4.924-.178 7.443-1.127-1.745-1.854-3.485-1.747-5.45l1.924-1.993z"/><path fill="#A3DBBF" d="M398.048 356.96c-.985-.835-1.877-1.717-1.66-3.294 1.997-.027 3.35 1.138 4.75 2.195-1.062.277-2.372-.147-3.09 1.1z"/><path fill="#8FD4B2" d="M557.03 356.946c1.315.696 2.318 1.706 3.014 3.02-3.53 1.514-3.586-.44-3.014-3.02z"/><path fill="#91D5B3" d="M534.008 344.006l-1.997 2.01c-.177-.866-1.378-1.79-.223-2.543.438-.286 1.463.328 2.22.533z"/><path fill="#8DD4B0" d="M416.06 381.042l-2.005 2.033c-.193-.88-1.444-1.802-.262-2.587.44-.292 1.492.342 2.266.554z"/><path fill="#9BD8BA" d="M463.212 334.192c-.276 1.135-.974 1.79-2.153 1.897-.023-1.47-.384-3.327 2.152-1.898z"/><path fill="#94D6B5" d="M529.075 482.906c-.192.993-.372 2.023-1.732 1.93-.224-.016-.637-.4-.605-.523.31-1.217 1.405-1.19 2.352-1.39l-.015-.017z"/><path fill="#A0DABD" d="M409.055 472.99c1.13.756.913 1.92.918 3.018-1.033-.784-2.795-1.347-.918-3.017z"/><path fill="#8DD3B0" d="M346.835 437.96c-.157 1.047-.846 1.7-1.67 2.256-.295-.71-1.025-1.635-.802-2.093.543-1.113 1.63.07 2.472-.164z"/><path fill="#8ED4B1" d="M564.03 363.96l2.013 2.017-2.676.136.663-2.154z"/><path fill="#99D8B8" d="M438.09 359.04c-.166 1.118-.672 1.908-1.913 1.993l-1.263-.453c.322-.22.622-.49.972-.65.72-.327 1.468-.596 2.204-.89z"/><path fill="#79CCA3" d="M426.095 400.843c0 10.812.003 21.625-.007 32.438 0 .62-.095 1.24-.222 2.79-5.68-7.054-8.426-14.96-13.17-21.603-.89-1.248-.09-2.008.814-2.924 3.795-3.848 7.485-7.797 11.214-11.708l1.37 1.008z"/><path fill="#7ACDA3" d="M461.174 396.758v6.788c0 8.146 0 8.14-8.25 7.594-1.307-.086-2.743.143-3.39-1.423-.65-1.572.004-2.898.935-4.125.19-.253.56-.367.762-.615 2.59-3.21 5.162-6.435 7.74-9.655l2.202 1.436z"/><path fill="#80CFA7" d="M406.13 383.807c.75.333 1.69.49 2.205 1.04.696.748 3.042.768 1.512 2.75-1.49 1.935-2.487.572-3.47-.56-.537-.618-.987-1.31-1.477-1.966-.256-1.07.255-1.39 1.23-1.263z"/><path fill="#AFDFC7" d="M406.13 383.807l-1.23 1.264c-.75-.767-1.953-1.726-.895-2.66.68-.6 1.533.685 2.125 1.397z"/><path fill="#82CFA9" d="M560.942 474.286c0 1.16.008 2.318 0 3.478-.016 1.78-1.146 2.19-2.647 2.146-1.365-.04-2.19-.65-2.204-2.095-.018-1.82.08-3.65-.055-5.463-.155-2.087.482-3.99 2.58-4.095 2.602-.13 2.286 2.252 2.35 4.042.022.66.003 1.324.003 1.986h-.026z"/><path fill="#7FCFA7" d="M472.257 471.055c-1.042-.197-2.67.463-2.805-1.035-.137-1.524 1.306-2.018 2.7-2.082 1.275-.06 2.41.473 2.52 1.74.163 1.848-1.5 1.112-2.415 1.377z"/><path fill="#7BCDA4" d="M532.062 473.852c.55-2.405.22-5.755 3.898-5.812 3.477-.054 4.203 2.8 4.122 5.643-.08 2.825-.242 6.227-4.05 6.196-3.463-.03-3.637-3.23-3.97-6.028z"/><path fill="#9AD8B9" d="M588.943 389.842c-3.133-1.483-1.916-3.67-.938-5.814 1.81 1.697.603 3.88.938 5.814z"/><path fill="#9DD9BB" d="M593.01 384.04c1.71 1.978 3.26 3.958.002 5.938l-.002-5.94z"/><path fill="#8FD4B2" d="M592.86 390.074l-1.85 1.08c-.802-.457-1.353-1.44-.805-1.967 1.12-1.074 1.458 1.41 2.656.887z"/></g></svg>