<svg xmlns="http://www.w3.org/2000/svg" width="683" height="437" viewBox="0 0 683 437"><path fill="#FEFEFE" d="M342.522 438c-112.475 0-224.95-.016-337.425.08-3.21.003-4.207-.356-4.204-3.98.126-143.135.12-286.27.02-429.405-.003-3.257.9-3.763 3.89-3.762 225.116.073 450.233.08 675.35-.043 3.73-.002 3.92 1.16 3.918 4.26-.08 142.97-.088 285.938.03 428.905.004 3.533-.85 4.035-4.154 4.032-112.474-.105-224.95-.087-337.424-.087z"/><path fill-rule="evenodd" clip-rule="evenodd" fill="#4A4A4A" d="M340.398 430c-106.65 0-213.3 0-319.95-.002-10.474 0-13.446-2.924-13.446-13.25C7 285.1 7 153.454 7.002 21.807c0-9.704 3.126-12.805 12.9-12.805C233.537 9 447.17 9 660.803 9.003c10.1 0 13.195 3.057 13.195 13.014.002 131.646.002 263.29 0 394.938 0 9.964-3.107 13.044-13.15 13.044h-320.45z"/><path fill-rule="evenodd" clip-rule="evenodd" fill="#79CCA2" d="M337.678 383c-85.57-.08-154.82-69.733-154.678-155.572C183.143 142.145 252.768 72.92 338.322 73c85.568.08 154.82 69.732 154.677 155.572-.143 85.282-69.77 154.507-155.322 154.427z"/><path fill-rule="evenodd" clip-rule="evenodd" fill="#F9F9F9" d="M237.01 203.003l3.612-6.58c-3.81.773-5.774 3.226-9.178 3.433 4.98-10.51 10.63-20.354 17.085-30.985-3.6.914-6.076 1.54-9.264 2.35 1.967-4.633 4.386-8.23 6.67-11.932 3.476-5.63 6.74-11.39 10.04-17.125 1.355-2.353 2.31-2.39 3.65.106 4.79 8.91 9.72 17.744 14.607 26.6.46.834 1.387 1.767.25 2.494-.478.307-1.546-.307-2.346-.502-1.042.332-3.23-2.56-3.09 1.098 4.613 8.56 9.235 17.117 13.833 25.688.59 1.1 1.2 1.54 2.173.43.312-1.03.992-1.695 2.004-2.034l20.12-20.01c.647-.652 1.378-1.228 1.91-1.992l22.97-22.95c.628-.733 1.18-1.554 2.153-1.897 9.318-9.466 9.333-9.48 18.872.11 9.276 9.326 18.577 18.628 27.73 28.074 2.363 2.44 3.654 2.73 6.168-.12 5.025-5.693 10.65-10.86 16.028-16.243.377-.957 1.047-1.622 1.997-2.01 3.268-1.887 4.803-7.072 8.67-6.718 3.395.31 5.44 4.515 8.02 7.044 9.667 9.468 19.21 19.062 29.143 28.952-3.35 1.43-5.6.805-7.707-1.483-1.898-2.062-4.05-3.893-6.09-5.825-.807-.536-1.678-1.01-2.013-2.017l-3.994-3.982c-1.6-.415-2.274-1.748-3.013-3.02-8.838-10.214-8.867-10.244-18.16-1.277-5.5 5.308-10.878 10.737-16.33 16.092-3.484 3.424-8.6 3.48-12.023.138-8.794-8.585-17.66-17.1-26.297-25.842-2.042-2.067-3.05-1.572-4.743.147-8.506 8.626-16.968 17.304-25.74 25.654-3.1 2.95-4.465 5.92-3.457 9.72 10.89-1.41 21.78-.426 32.637-.613 2.118-.037 2.19 1.61 2.19 3.176 0 9.162-.02 18.324.018 27.485.007 1.603-.413 2.89-1.646 3.974-1.364 1.195-2.605 2.53-3.92 3.78-5.602 5.316-5.624 5.333-.278 10.6 4.946 4.875 9.94 9.7 14.913 14.545l-.583 1.325c-9.04 0-18.08.03-27.12-.028-1.644-.01-2.525-1.47-3.603-2.486-3.268-3.08-6.528-6.165-9.805-9.234-2.37-2.222-3.44-1.15-3.833 1.55-.024.165-.007.335-.028.5-.4 3.077 1.49 7.138-.93 9.04-2.62 2.06-6.742.69-10.2.697-30.15.058-60.3.04-90.452.028-5.26-.002-5.368-.1-2.663-4.7 5.952-10.123 12.026-20.174 18.326-30.716-4.42.12-7.294 3.074-11.66 4.145 3.364-8.392 8.927-14.768 11.564-22.585.04-1.978 2.178-2.504 2.81-4.07zM368.08 228.542c0-9.485.118-18.973-.063-28.455-.062-3.247.92-4.29 4.225-4.252 13.81.166 27.624.14 41.436.02 3.133-.028 4.375.776 4.39 4.193.05 11.827.183 11.826-11.593 11.826-3.494 0-6.998.153-10.48-.043-3.05-.17-4.08.96-4.037 4.017.042 3.076 1.25 4.11 4.193 4.042 6.32-.15 12.655.1 18.96-.255 2.38-.134 3.014.462 2.855 2.567-.012.165-.007.333 0 .5.647 13.115.647 13.115-12.623 13.116-3.328 0-6.66.106-9.983-.026-2.71-.11-3.476 1.184-3.348 3.64.12 2.313.23 4.4 3.378 4.368 6.49-.066 12.994.198 19.46-.198 2.615-.16 3.024.448 3.165 2.776.877 14.556.926 14.553-13.647 14.552-10.816 0-21.635-.093-32.45.06-3.065.042-3.973-.912-3.91-3.992.197-9.482.07-18.97.072-28.456zM451.898 227.922c0 9.49-.135 18.982.073 28.468.073 3.33-.61 4.842-4.308 4.613-4.81-.297-9.656-.178-14.48-.016-2.372.08-3.262-.694-3.256-3.088.05-19.647.054-39.293-.01-58.94-.01-2.474 1.068-3.108 3.316-3.084 5.658.062 11.322.08 16.975-.136 2.027-.077 1.938.49 1.91 2.223-.16 9.984-.078 19.972-.078 29.957-.047.002-.095.002-.142.002zM280.055 287.99c-.702-1.686-.062-4.61-2.726-4.57-2.792.038-2 2.895-2.49 4.687-.74 2.71-1.63 5.383-2.33 8.104-.512 1.998-1.37 3.062-3.716 3.013-2.325-.05-3.728-.633-4.32-3.034-.786-3.19-1.81-6.32-3.037-10.524-1.032 3.88-1.827 6.725-2.54 9.59-.55 2.205-1.162 3.938-4.11 3.98-2.785.04-3.804-1.19-4.394-3.59-.83-3.366-1.924-6.668-2.78-10.03-.295-1.163-.31-2.464-1.878-2.438-1.694.026-1.956 1.33-2.27 2.73-.757 3.384-1.713 6.724-2.57 10.088-.49 1.93-1.308 3.224-3.684 3.203-2.296-.02-3.683-.633-4.42-3-.965-3.108-1.208-6.486-3.305-9.88-1 3.67-1.867 6.777-2.685 9.897-.605 2.312-2.042 3.1-4.404 2.97-2.254-.126-2.917-1.206-3.58-3.257-1.457-4.52-1.928-9.353-4.548-13.545-1.17-1.872-.353-3.308 2.304-3.532 5.657-.477 6.07-.086 4.8 5.285-.205.86.378 1.91.598 2.872.94.325-.163 2.715 1.913 1.896.61-2.225 1.422-4.418 1.78-6.684.42-2.65 1.697-3.386 4.324-3.427 2.748-.043 3.848 1.062 4.328 3.513.284 1.448.91 2.826 1.29 4.26.335 1.263.543 2.56.977 4.663 1.64-3.002 2.8-5.42 1.768-8.072-1.42-3.658.21-4.387 3.386-4.282 3.143.104 6.303.183 9.436-.022 3.172-.207 4.274 1.03 3.538 4.055-.133 1.59-.502 3.177.07 5.252.443-1.8.788-3.302 2.074-4.237.77-2.173.384-4.728 4.108-5.172 5.344-.637 4.388 3.917 6.14 6.235.73.885 1.382 1.804 1.292 3.086.4-.774.257-1.644.61-2.378.244-.92.918-1.83.073-2.784-.26-2.75.52-4.298 3.756-4.07 3.574.253 7.183.148 10.77.026 2.216-.075 3.465.584 3.28 2.986-.694 2.214-.354 4.493-.414 6.755.086-2.196.826-4.104 2.443-5.627.48-2.752 1.605-4.318 4.916-4.192 3.268.126 3.482 2.2 4.29 4.424.843 2.327.428 5.02 2.364 7.388 1.117-2.946 2.78-5.45.707-8.58-.487-.737-.474-2.605 1.013-2.88 2.08-.386 4.385-.86 6.288.362 1.004.645.823 2.247.19 3.208-2.537 3.853-2.942 8.347-4.046 12.633-.545 2.114-.947 3.98-4.036 3.917-2.735-.056-3.814-1.152-4.406-3.533-.705-2.836-1.6-5.624-2.57-8.98-2.194 2.882-2.245 5.75-2.908 8.423-.516 2.08-.936 3.978-4 4.092-3.16.118-4.018-1.505-4.603-3.936-.348-1.448-.755-2.88-1.137-4.32-.69-.892-.94-1.914-.918-3.02z"/><path fill-rule="evenodd" clip-rule="evenodd" fill="#F8F9F9" d="M429.32 299.145c-1.495.003-2.99.008-4.484.002-5.908-.025-5.452.082-4.087-5.616.788-3.29 1.5-7.16-.92-10.473-1.748-2.394-1.35-4.732 1.827-3.986 5.183 1.22 10.368-3.21 15.387.394.32.23 1.176-.263 1.772-.45 7.457-2.33 9.232-.95 9.46 6.714.102 3.39-1.48 7.185 2.33 10.028 1.154.86.775 3.253-1.792 3.357-.997.04-1.996.02-2.994.034-5.5.077-5.37.132-3.265-4.887 1.182-2.815.438-5.906.38-8.872-.024-1.344-1.152-2.165-2.32-2.204-1.443-.048-2.705.91-2.568 2.437.284 3.177-1.177 6.448 1.148 9.56 1.782 2.386.787 4.04-2.396 3.975-2.492-.054-4.987-.012-7.48-.01z"/><path fill-rule="evenodd" clip-rule="evenodd" fill="#F8F9F8" d="M342.842 278.035c3.37-.072 6.125 1.177 8.233 3.826 1.74 2.19 1.408 4.96.98 7.183-.385 2.008-3.086.702-4.737.937-1.466.207-2.983.06-4.478.044-1.606-.015-3.097.104-2.886 2.32.202 2.136 1.663 2.67 3.5 2.69.894.008 1.696-.333 2.082-1.12 1.286-2.62 3.58-1.863 5.66-1.74.71.042 1.238.61 1.16 1.345-.257 2.38-1.802 4.056-3.756 4.962-6.965 3.23-15.26.777-14.837-8.503.395-8.68 2.368-11.85 9.08-11.945z"/><path fill-rule="evenodd" clip-rule="evenodd" fill="#F7F8F8" d="M417.108 288.94c-.072 7.053-3.876 11.243-10.01 11.023-6.188-.222-10.1-4.634-9.936-11.204.182-7.223 3.59-10.822 10.147-10.722 6.647.103 9.87 3.69 9.798 10.9z"/><path fill-rule="evenodd" clip-rule="evenodd" fill="#F8F9F8" d="M387.508 299.926c-3.312-.688-6.7-1.212-7.98-4.576-1.9-4.995-2.147-10.187 1.285-14.64 2.06-2.673 5.307-3.075 8.607-2.316 1.106.254 2.244.42 3.376.5 1.474.106 3.277-.217 3.155 2.06-.107 2 1.133 4.578-1.62 5.692-1.735.703-2.726-.134-3.818-1.91-1.792-2.91-3.988-2.298-5.57.647-1.405 2.61-.86 5.22.24 7.65.915 2.022 2.748 2.798 4.19.615 1.418-2.146 3.082-2.862 5.44-2.338 1.016.226 1.265 1.08 1.055 1.93-.565 2.294-1.394 4.542-3.77 5.518-1.51.617-3.186.824-4.59 1.168zM322.978 299.112c-5.726.097-5.33.245-3.334-5.07 1.234-3.283 1.41-7.197-.306-10.592-2.09-4.132-1.92-4.574 2.8-4.555 2.688.012 5.41 1.124 8.036-.706.775-.54 2.508-.593 2.715 1.08.165 1.35.66 2.834-1.186 3.852-6.582 3.626-6.882 5.257-3.106 12.385.812 1.533.945 3.376-1.638 3.587-1.32.107-2.654.018-3.982.018z"/><path fill-rule="evenodd" clip-rule="evenodd" fill="#F8F9F9" d="M361.988 279.002c.035 3.994.052 7.988.117 11.98.018 1.138-.468 2.65.584 3.296 1.967 1.206 3.31 2.386 1.362 4.53-.82.903-9.222.37-9.612-.514-.39-.883-.558-1.885.05-2.85 3.452-5.48 3.35-7.084-.04-12.41-.754-1.182-.812-2.878.518-4.1 2.345-.546 4.688-.863 7.02.068z"/><path fill-rule="evenodd" clip-rule="evenodd" fill="#F3F7F5" d="M308.22 296.26c-.39-2.748.97-3.51 3.467-3.446 2.107.052 3.286.398 3.46 2.96.257 3.735-2.203 3.225-4.448 3.563-2.838.428-2.275-1.594-2.48-3.077z"/><path fill-rule="evenodd" clip-rule="evenodd" fill="#F4F7F6" d="M374.895 296.147c.484 2.657-1.05 3.01-3.198 3.046-2.353.04-3.773-.396-3.682-3.242.08-2.46 1.185-3.088 3.4-3.13 2.427-.046 3.942.534 3.48 3.327z"/><path fill-rule="evenodd" clip-rule="evenodd" fill="#DFF0E8" d="M463.267 207.192c-3.22 1.772-4.905-.623-6.436-2.64-1.63-2.15-.88-4.713.638-6.426 1.62-1.83 3.975-3.046 6.546-1.136.002.93-.224 1.765-.96 2.396-.734.493-1.585.72-2.39 1.05-1.49.843-1.405 1.912-.454 3.102.32.256.623.53.93.8.474.383.92.8 1.336 1.246.416.46.75.964.79 1.608z"/><path fill-rule="evenodd" clip-rule="evenodd" fill="#F0F6F3" d="M359.24 276.06c-2.233.356-3.59-.42-3.686-2.786-.11-2.765 1.96-2.058 3.48-2.098 1.748-.046 3.312-.454 3.296 2.597-.016 3-1.705 2.09-3.09 2.286z"/><path fill-rule="evenodd" clip-rule="evenodd" fill="#EBF4EF" d="M463.006 199.002c.018-.83.193-1.58 1.008-2.01 5.132 3.375 4.844 7.296-.748 10.2l-1.253-1.098c.267-.79.773-1.452 1.14-2.19.854-1.664.28-3.28-.147-4.902z"/><path fill-rule="evenodd" clip-rule="evenodd" fill="#93D6B4" d="M256.854 283.923l-1.523 6.922c-2.928-4.936-2.94-5.27-.618-7.938l2.142 1.016z"/><path fill-rule="evenodd" clip-rule="evenodd" fill="#8AD2AE" d="M288.913 282.98c-.686 2.475-1.37 4.947-2.304 8.31-1.136-3.887-3.31-6.82.272-9.437.434.813 1.15 1.12 2.03 1.128z"/><path fill-rule="evenodd" clip-rule="evenodd" fill="#85D0AA" d="M270.358 285.024l-1.603 6.01c-1.045-2.34-1.763-4.08-1.655-6.048.304.002.607.007.91.013.79-.56 1.574-.688 2.348.024z"/><path fill-rule="evenodd" clip-rule="evenodd" fill="#A3DBBF" d="M269.048 171.96c-.987-.835-1.876-1.72-1.66-3.295 1.995-.025 3.35 1.137 4.75 2.196-1.062.278-2.373-.15-3.09 1.1z"/><path fill-rule="evenodd" clip-rule="evenodd" fill="#B5E1CB" d="M361.988 279.002c-2.34-.02-4.68-.043-7.02-.064 2.333-1.138 4.726-1.708 7.264-.71.082.03.135.31.093.437-.044.135-.22.227-.337.337z"/><path fill-rule="evenodd" clip-rule="evenodd" fill="#8CD3B0" d="M237.01 203.003c-.19 1.87-1.4 3.037-2.81 4.064-2.265-3.566 1.816-2.75 2.81-4.064z"/><path fill-rule="evenodd" clip-rule="evenodd" fill="#8CD3AF" d="M428.023 171.955c1.317.694 2.32 1.703 3.012 3.02-3.382 1.366-3.627-.397-3.012-3.02z"/><path fill-rule="evenodd" clip-rule="evenodd" fill="#91D5B3" d="M405.008 159.006l-1.997 2.01c-.176-.866-1.38-1.79-.225-2.545.438-.285 1.464.33 2.223.536z"/><path fill-rule="evenodd" clip-rule="evenodd" fill="#A0DABD" d="M223.883 288.905c-.075.75-.045 1.98-1.113 1.514-1.443-.63-.59-2.24-.8-3.41.638.63 1.275 1.263 1.913 1.895z"/><path fill-rule="evenodd" clip-rule="evenodd" fill="#8DD4B0" d="M287.06 196.042l-2.005 2.033c-.192-.88-1.446-1.803-.263-2.59.438-.29 1.493.345 2.267.557z"/><path fill-rule="evenodd" clip-rule="evenodd" fill="#99D8B8" d="M309.09 174.04c-.165 1.12-.67 1.91-1.913 1.993l-1.266-.45c.323-.222.623-.492.973-.65.72-.33 1.47-.6 2.207-.893z"/><path fill-rule="evenodd" clip-rule="evenodd" fill="#8ED4B1" d="M435.03 178.96l2.013 2.017-2.678.138.665-2.156z"/><path fill-rule="evenodd" clip-rule="evenodd" fill="#A0DABD" d="M280.055 287.99c1.132.755.913 1.92.918 3.018-1.032-.785-2.8-1.345-.918-3.017z"/><path fill-rule="evenodd" clip-rule="evenodd" fill="#9BD8BA" d="M334.212 149.192c-.275 1.135-.974 1.79-2.153 1.897-.023-1.47-.388-3.33 2.152-1.898z"/><path fill-rule="evenodd" clip-rule="evenodd" fill="#9CD9BB" d="M270.358 285.024c-.782-.01-1.565-.018-2.348-.025l1.065-2.09c1.073.314 2.43.456 1.283 2.114z"/><path fill-rule="evenodd" clip-rule="evenodd" fill="#79CCA3" d="M296.654 250.84c-5.39-6.807-8.116-14.56-12.816-21.08-1.293-1.797.126-2.747 1.145-3.734 3.68-3.57 7.417-7.08 11.672-11.126v35.94z"/><path fill-rule="evenodd" clip-rule="evenodd" fill="#7ACDA3" d="M332.174 210.452v7.826c0 8.578 0 8.56-8.48 7.87-1.357-.11-2.726-.07-3.262-1.634-.474-1.38-.06-2.764.876-3.698 3.223-3.217 6.58-6.3 10.866-10.364z"/><path fill-rule="evenodd" clip-rule="evenodd" fill="#87D1AC" d="M274.885 198.087c3.138.647 5.112 1.674 6.438 3.604.11.163-1.445 2.016-1.84 1.888-2.29-.74-3.39-2.717-4.598-5.49z"/><path fill-rule="evenodd" clip-rule="evenodd" fill="#81CFA8" d="M431.96 289.427c-.006.993-.034 1.988 0 2.98.058 1.616-.644 2.465-2.31 2.516-1.93.058-2.654-.915-2.595-2.746.055-1.654.105-3.318-.016-4.965-.157-2.12.587-3.875 2.71-3.954 2.258-.085 2.178 2.015 2.212 3.686.017.827.003 1.655-.002 2.483z"/><path fill-rule="evenodd" clip-rule="evenodd" fill="#7FCFA7" d="M342.932 286.057c-.95-.24-2.678.43-2.5-1.3.142-1.395 1.59-1.91 3.012-1.816 1.258.083 2.366.684 2.222 2.01-.18 1.65-1.735.864-2.734 1.107z"/><path fill-rule="evenodd" clip-rule="evenodd" fill="#7BCDA4" d="M402.984 289.55c.565-2.89.183-6.223 3.75-6.504 3.482-.274 4.345 2.528 4.353 5.408.007 2.864-.172 6.204-3.837 6.45-3.62.246-3.543-3.192-4.266-5.353z"/><path fill-rule="evenodd" clip-rule="evenodd" fill="#ECF5F0" d="M463.006 199.002c3.934 1.595 1.472 4.037.828 6.238-1.07.774-1.935-.814-2.985-.26-.337-.02-.672-.036-1.008-.055-.99-2-1.098-3.98.148-5.922h3.016z"/><path fill-rule="evenodd" clip-rule="evenodd" fill="#9AD8B9" d="M459.99 199.004l-.147 5.922c-2.733-2.044-2.603-4.016.147-5.922z"/><path fill-rule="evenodd" clip-rule="evenodd" fill="#8FD4B2" d="M460.85 204.98c1.257-2.962 1.904 1.172 2.985.26-.608.284-1.216.568-1.822.853-.39-.37-.777-.74-1.164-1.113z"/></svg>