<?xml version="1.0" encoding="utf-8"?>
<!-- Generator: Adobe Illustrator 16.0.0, SVG Export Plug-In . SVG Version: 6.00 Build 0)  -->
<!DOCTYPE svg PUBLIC "-//W3C//DTD SVG 1.1//EN" "http://www.w3.org/Graphics/SVG/1.1/DTD/svg11.dtd">
<svg version="1.1" id="rei-gift-card_xA0_Image_1_" xmlns="http://www.w3.org/2000/svg" xmlns:xlink="http://www.w3.org/1999/xlink"
	 x="0px" y="0px" width="683px" height="437px" viewBox="0 0 683 437" enable-background="new 0 0 683 437" xml:space="preserve">
<g>
	<g>
		<path fill="#FEFEFE" d="M342.522,438c-112.475,0-224.95-0.016-337.425,0.08c-3.211,0.003-4.207-0.356-4.204-3.98
			C1.019,290.965,1.014,147.83,0.913,4.695C0.91,1.438,1.812,0.932,4.803,0.933c225.116,0.073,450.233,0.08,675.349-0.043
			c3.732-0.002,3.921,1.161,3.919,4.261c-0.082,142.969-0.089,285.937,0.03,428.904c0.003,3.533-0.85,4.035-4.155,4.032
			C567.472,437.982,454.997,438,342.522,438z"/>
		<path fill-rule="evenodd" clip-rule="evenodd" fill="#4A4A4A" d="M340.398,429.999c-106.65,0-213.3,0-319.95-0.001
			c-10.474,0-13.446-2.924-13.446-13.251C7,285.101,7,153.455,7.003,21.809c0-9.705,3.125-12.806,12.9-12.806
			c213.633-0.002,427.267-0.002,640.9,0c10.098,0,13.194,3.057,13.194,13.014c0.002,131.646,0.002,263.291,0,394.938
			c0,9.964-3.107,13.044-13.149,13.044C554.032,430,447.215,429.999,340.398,429.999z"/>
		<path fill-rule="evenodd" clip-rule="evenodd" fill="#79CCA2" d="M337.678,382.999C252.109,382.92,182.857,313.267,183,227.428
			c0.143-85.283,69.768-154.507,155.322-154.427c85.568,0.079,154.82,69.731,154.677,155.571
			C492.857,313.854,423.231,383.079,337.678,382.999z"/>
		<path fill-rule="evenodd" clip-rule="evenodd" fill="#F9F9F9" d="M237.009,203.003c1.069-1.946,2.137-3.892,3.613-6.579
			c-3.81,0.772-5.774,3.225-9.178,3.432c4.979-10.509,10.631-20.354,17.085-30.985c-3.6,0.913-6.075,1.54-9.263,2.348
			c1.967-4.632,4.386-8.23,6.67-11.931c3.476-5.629,6.739-11.391,10.041-17.125c1.354-2.353,2.308-2.39,3.649,0.106
			c4.791,8.91,9.72,17.745,14.607,26.602c0.459,0.833,1.387,1.766,0.251,2.493c-0.479,0.307-1.547-0.307-2.347-0.502
			c-1.042,0.332-3.23-2.561-3.091,1.098c4.614,8.561,9.236,17.117,13.834,25.688c0.591,1.1,1.2,1.539,2.173,0.429
			c0.312-1.028,0.992-1.694,2.004-2.033c6.706-6.67,13.413-13.339,20.119-20.009c0.648-0.653,1.379-1.229,1.912-1.993
			c7.656-7.649,15.312-15.3,22.969-22.949c0.628-0.734,1.181-1.555,2.153-1.898c9.318-9.466,9.333-9.48,18.872,0.11
			c9.276,9.326,18.577,18.628,27.729,28.074c2.364,2.44,3.655,2.731,6.169-0.118c5.025-5.694,10.651-10.86,16.028-16.244
			c0.377-0.957,1.047-1.622,1.997-2.009c3.268-1.888,4.803-7.073,8.67-6.719c3.395,0.31,5.44,4.516,8.021,7.045
			c9.666,9.468,19.209,19.062,29.142,28.952c-3.351,1.43-5.601,0.805-7.707-1.483c-1.899-2.062-4.051-3.893-6.09-5.825
			c-0.808-0.536-1.679-1.009-2.014-2.017c-1.332-1.328-2.663-2.656-3.994-3.983c-1.599-0.415-2.274-1.748-3.013-3.021
			c-8.838-10.213-8.867-10.243-18.16-1.276c-5.499,5.307-10.878,10.736-16.329,16.091c-3.485,3.424-8.6,3.48-12.024,0.138
			c-8.794-8.585-17.661-17.099-26.297-25.842c-2.042-2.067-3.049-1.572-4.743,0.147c-8.506,8.626-16.968,17.304-25.739,25.654
			c-3.101,2.952-4.466,5.922-3.458,9.72c10.891-1.41,21.781-0.425,32.637-0.612c2.118-0.037,2.189,1.609,2.189,3.176
			c0,9.162-0.019,18.324,0.019,27.485c0.007,1.603-0.413,2.891-1.646,3.974c-1.363,1.195-2.604,2.53-3.92,3.78
			c-5.601,5.316-5.623,5.333-0.277,10.601c4.946,4.874,9.94,9.698,14.913,14.544c-0.194,0.441-0.389,0.884-0.583,1.325
			c-9.04,0-18.08,0.03-27.119-0.028c-1.645-0.011-2.526-1.471-3.604-2.486c-3.267-3.079-6.527-6.165-9.804-9.234
			c-2.371-2.222-3.44-1.151-3.833,1.551c-0.024,0.164-0.007,0.334-0.028,0.498c-0.4,3.078,1.489,7.139-0.93,9.041
			c-2.619,2.06-6.742,0.69-10.199,0.697c-30.15,0.057-60.302,0.038-90.453,0.027c-5.259-0.002-5.368-0.1-2.663-4.701
			c5.953-10.122,12.027-20.173,18.327-30.715c-4.421,0.12-7.294,3.074-11.66,4.145c3.364-8.392,8.927-14.768,11.564-22.585
			C234.24,205.094,236.378,204.568,237.009,203.003z"/>
		<path fill-rule="evenodd" clip-rule="evenodd" fill="#F9F9F9" d="M368.08,228.542c0.001-9.485,0.118-18.973-0.063-28.455
			c-0.062-3.247,0.919-4.291,4.225-4.252c13.811,0.166,27.624,0.139,41.436,0.019c3.133-0.027,4.375,0.777,4.39,4.194
			c0.05,11.827,0.183,11.826-11.593,11.826c-3.494,0.001-6.998,0.153-10.481-0.043c-3.05-0.172-4.079,0.96-4.036,4.016
			c0.042,3.076,1.251,4.111,4.193,4.042c6.319-0.149,12.654,0.101,18.958-0.254c2.381-0.134,3.015,0.462,2.856,2.567
			c-0.012,0.165-0.007,0.333,0.001,0.499c0.646,13.116,0.646,13.116-12.624,13.117c-3.328,0-6.66,0.106-9.983-0.026
			c-2.71-0.109-3.475,1.184-3.347,3.641c0.12,2.312,0.229,4.399,3.378,4.367c6.489-0.066,12.994,0.198,19.46-0.198
			c2.615-0.16,3.024,0.448,3.165,2.776c0.877,14.556,0.926,14.553-13.647,14.552c-10.816,0-21.635-0.093-32.449,0.059
			c-3.066,0.043-3.974-0.911-3.91-3.991C368.205,247.516,368.079,238.027,368.08,228.542z"/>
		<path fill-rule="evenodd" clip-rule="evenodd" fill="#F9F9F9" d="M451.898,227.922c0,9.489-0.135,18.982,0.073,28.468
			c0.072,3.331-0.612,4.842-4.309,4.613c-4.811-0.297-9.656-0.178-14.479-0.016c-2.373,0.08-3.263-0.694-3.257-3.088
			c0.051-19.646,0.054-39.292-0.011-58.938c-0.008-2.475,1.069-3.109,3.317-3.085c5.658,0.062,11.322,0.08,16.975-0.136
			c2.027-0.077,1.938,0.491,1.909,2.223c-0.158,9.984-0.077,19.972-0.077,29.957C451.993,227.922,451.945,227.922,451.898,227.922z"
			/>
		<path fill-rule="evenodd" clip-rule="evenodd" fill="#F9F9F9" d="M280.055,287.991c-0.702-1.687-0.062-4.61-2.726-4.572
			c-2.791,0.039-1.999,2.896-2.489,4.688c-0.741,2.711-1.631,5.383-2.329,8.104c-0.513,1.997-1.37,3.061-3.717,3.012
			c-2.325-0.049-3.728-0.633-4.32-3.034c-0.786-3.189-1.81-6.32-3.037-10.523c-1.032,3.879-1.827,6.725-2.541,9.59
			c-0.549,2.205-1.161,3.938-4.11,3.98c-2.784,0.041-3.803-1.191-4.393-3.589c-0.829-3.367-1.924-6.669-2.779-10.03
			c-0.296-1.164-0.311-2.465-1.879-2.439c-1.694,0.026-1.956,1.331-2.269,2.729c-0.758,3.385-1.714,6.725-2.57,10.089
			c-0.491,1.929-1.309,3.224-3.685,3.203c-2.297-0.019-3.684-0.632-4.42-3c-0.966-3.107-1.209-6.485-3.306-9.879
			c-0.999,3.67-1.867,6.777-2.685,9.897c-0.605,2.312-2.042,3.1-4.404,2.969c-2.254-0.125-2.917-1.205-3.579-3.256
			c-1.458-4.52-1.929-9.353-4.549-13.545c-1.17-1.872-0.353-3.308,2.304-3.532c5.657-0.477,6.071-0.086,4.799,5.285
			c-0.204,0.861,0.379,1.91,0.599,2.872c0.941,0.325-0.163,2.715,1.913,1.896c0.611-2.225,1.422-4.418,1.781-6.684
			c0.419-2.649,1.696-3.386,4.323-3.427c2.748-0.043,3.848,1.062,4.328,3.513c0.284,1.448,0.909,2.826,1.29,4.26
			c0.335,1.263,0.543,2.56,0.977,4.663c1.64-3.003,2.799-5.421,1.768-8.073c-1.421-3.658,0.21-4.387,3.386-4.282
			c3.143,0.104,6.303,0.183,9.436-0.022c3.172-0.207,4.274,1.03,3.538,4.055c-0.133,1.592-0.502,3.178,0.07,5.253
			c0.443-1.801,0.788-3.302,2.074-4.237c0.769-2.173,0.384-4.728,4.108-5.172c5.344-0.637,4.388,3.917,6.14,6.235
			c0.73,0.885,1.382,1.804,1.292,3.086c0.401-0.774,0.257-1.644,0.61-2.378c0.244-0.921,0.918-1.83,0.073-2.784
			c-0.259-2.749,0.521-4.298,3.756-4.07c3.574,0.253,7.183,0.148,10.771,0.026c2.215-0.075,3.464,0.584,3.279,2.986
			c-0.694,2.214-0.354,4.493-0.414,6.755c0.087-2.195,0.827-4.103,2.444-5.626c0.481-2.752,1.605-4.318,4.916-4.192
			c3.269,0.125,3.483,2.2,4.29,4.423c0.844,2.327,0.429,5.021,2.365,7.388c1.117-2.946,2.781-5.45,0.707-8.58
			c-0.488-0.737-0.475-2.605,1.012-2.881c2.081-0.385,4.385-0.858,6.288,0.363c1.003,0.645,0.822,2.247,0.189,3.208
			c-2.537,3.853-2.942,8.347-4.046,12.633c-0.545,2.114-0.947,3.98-4.036,3.917c-2.735-0.056-3.814-1.152-4.406-3.533
			c-0.705-2.835-1.599-5.623-2.569-8.979c-2.195,2.882-2.246,5.75-2.909,8.423c-0.516,2.08-0.936,3.978-3.999,4.092
			c-3.161,0.118-4.019-1.505-4.604-3.936c-0.349-1.447-0.756-2.88-1.138-4.318C280.284,290.118,280.034,289.096,280.055,287.991z"/>
		<path fill-rule="evenodd" clip-rule="evenodd" fill="#F8F9F9" d="M429.32,299.145c-1.495,0.003-2.99,0.008-4.484,0.002
			c-5.908-0.025-5.452,0.082-4.087-5.616c0.789-3.292,1.501-7.16-0.919-10.474c-1.748-2.394-1.349-4.732,1.827-3.986
			c5.183,1.218,10.368-3.211,15.387,0.393c0.319,0.229,1.176-0.263,1.772-0.449c7.457-2.33,9.232-0.951,9.46,6.713
			c0.102,3.39-1.479,7.185,2.331,10.028c1.153,0.861,0.774,3.253-1.793,3.357c-0.997,0.041-1.996,0.021-2.994,0.034
			c-5.5,0.077-5.371,0.132-3.265-4.887c1.182-2.815,0.438-5.906,0.381-8.872c-0.025-1.344-1.153-2.165-2.321-2.204
			c-1.443-0.048-2.705,0.91-2.568,2.437c0.284,3.176-1.177,6.447,1.148,9.56c1.782,2.385,0.787,4.04-2.396,3.974
			C434.308,299.101,431.813,299.143,429.32,299.145z"/>
		<path fill-rule="evenodd" clip-rule="evenodd" fill="#F8F9F8" d="M342.842,278.035c3.369-0.072,6.125,1.177,8.233,3.826
			c1.741,2.188,1.408,4.96,0.981,7.182c-0.386,2.008-3.087,0.702-4.738,0.937c-1.466,0.207-2.983,0.059-4.478,0.044
			c-1.606-0.015-3.097,0.104-2.886,2.32c0.202,2.136,1.663,2.671,3.5,2.689c0.894,0.009,1.696-0.332,2.082-1.119
			c1.286-2.621,3.579-1.863,5.659-1.74c0.711,0.042,1.239,0.609,1.16,1.345c-0.256,2.38-1.801,4.057-3.755,4.963
			c-6.965,3.23-15.259,0.777-14.837-8.503C334.158,281.301,336.131,278.13,342.842,278.035z"/>
		<path fill-rule="evenodd" clip-rule="evenodd" fill="#F7F8F8" d="M417.108,288.939c-0.072,7.054-3.876,11.244-10.01,11.024
			c-6.188-0.222-10.101-4.634-9.936-11.204c0.182-7.222,3.589-10.821,10.147-10.721
			C413.957,278.141,417.181,281.729,417.108,288.939z"/>
		<path fill-rule="evenodd" clip-rule="evenodd" fill="#F8F9F8" d="M387.508,299.926c-3.312-0.688-6.699-1.212-7.979-4.576
			c-1.9-4.995-2.148-10.187,1.284-14.641c2.059-2.672,5.307-3.074,8.607-2.315c1.106,0.254,2.244,0.42,3.376,0.501
			c1.474,0.105,3.277-0.218,3.155,2.06c-0.108,1.998,1.132,4.577-1.621,5.691c-1.735,0.703-2.726-0.134-3.818-1.909
			c-1.792-2.912-3.988-2.299-5.571,0.646c-1.404,2.611-0.86,5.219,0.24,7.649c0.916,2.023,2.749,2.799,4.192,0.616
			c1.417-2.146,3.081-2.862,5.438-2.338c1.017,0.226,1.266,1.079,1.056,1.93c-0.565,2.294-1.394,4.542-3.771,5.518
			C390.588,299.375,388.911,299.582,387.508,299.926z"/>
		<path fill-rule="evenodd" clip-rule="evenodd" fill="#F8F9F8" d="M322.978,299.112c-5.726,0.097-5.331,0.245-3.334-5.069
			c1.234-3.284,1.411-7.198-0.306-10.593c-2.089-4.132-1.921-4.574,2.8-4.555c2.688,0.012,5.41,1.124,8.036-0.706
			c0.775-0.54,2.508-0.592,2.715,1.082c0.166,1.349,0.662,2.833-1.185,3.851c-6.582,3.626-6.882,5.257-3.106,12.385
			c0.812,1.533,0.945,3.376-1.638,3.587C325.641,299.201,324.306,299.112,322.978,299.112z"/>
		<path fill-rule="evenodd" clip-rule="evenodd" fill="#F8F9F9" d="M361.988,279.002c0.035,3.994,0.052,7.988,0.117,11.981
			c0.018,1.137-0.468,2.65,0.584,3.295c1.968,1.206,3.312,2.386,1.363,4.531c-0.82,0.902-9.222,0.37-9.612-0.515
			c-0.39-0.883-0.558-1.885,0.051-2.851c3.451-5.478,3.349-7.083-0.042-12.408c-0.753-1.183-0.811-2.879,0.519-4.1
			C357.313,278.388,359.656,278.071,361.988,279.002z"/>
		<path fill-rule="evenodd" clip-rule="evenodd" fill="#F3F7F5" d="M308.219,296.26c-0.389-2.748,0.972-3.509,3.468-3.446
			c2.107,0.052,3.286,0.398,3.461,2.96c0.256,3.735-2.204,3.225-4.449,3.563C307.862,299.765,308.425,297.743,308.219,296.26z"/>
		<path fill-rule="evenodd" clip-rule="evenodd" fill="#F4F7F6" d="M374.895,296.147c0.484,2.657-1.05,3.01-3.198,3.046
			c-2.353,0.041-3.773-0.396-3.682-3.242c0.079-2.461,1.185-3.089,3.399-3.131C373.842,292.774,375.357,293.354,374.895,296.147z"/>
		<path fill-rule="evenodd" clip-rule="evenodd" fill="#DFF0E8" d="M463.267,207.192c-3.221,1.772-4.905-0.623-6.436-2.641
			c-1.631-2.15-0.88-4.712,0.637-6.425c1.619-1.829,3.975-3.046,6.546-1.136c0.002,0.929-0.224,1.765-0.961,2.396
			c-0.733,0.493-1.584,0.721-2.388,1.051c-1.492,0.842-1.406,1.911-0.455,3.101c0.319,0.256,0.623,0.53,0.93,0.8
			c0.474,0.383,0.919,0.799,1.336,1.246C462.892,206.044,463.225,206.548,463.267,207.192z"/>
		<path fill-rule="evenodd" clip-rule="evenodd" fill="#F0F6F3" d="M359.239,276.059c-2.232,0.357-3.589-0.418-3.685-2.785
			c-0.111-2.765,1.96-2.058,3.48-2.098c1.748-0.046,3.312-0.454,3.296,2.597C362.314,276.774,360.625,275.862,359.239,276.059z"/>
		<path fill-rule="evenodd" clip-rule="evenodd" fill="#EBF4EF" d="M463.006,199.002c0.018-0.829,0.193-1.58,1.008-2.01
			c5.132,3.375,4.844,7.296-0.748,10.199c-0.417-0.365-0.835-0.731-1.253-1.097c0.267-0.79,0.773-1.452,1.139-2.19
			C464.007,202.24,463.434,200.623,463.006,199.002z"/>
		<path fill-rule="evenodd" clip-rule="evenodd" fill="#93D6B4" d="M256.854,283.923c-0.473,2.146-0.944,4.293-1.523,6.922
			c-2.929-4.936-2.94-5.27-0.619-7.938C255.424,283.245,256.139,283.584,256.854,283.923z"/>
		<path fill-rule="evenodd" clip-rule="evenodd" fill="#8AD2AE" d="M288.913,282.981c-0.686,2.474-1.371,4.946-2.304,8.309
			c-1.135-3.887-3.308-6.819,0.273-9.437C287.316,282.666,288.032,282.972,288.913,282.981z"/>
		<path fill-rule="evenodd" clip-rule="evenodd" fill="#85D0AA" d="M270.358,285.024c-0.485,1.822-0.972,3.645-1.603,6.011
			c-1.045-2.34-1.763-4.082-1.655-6.049c0.304,0.002,0.607,0.007,0.91,0.013C268.8,284.439,269.584,284.312,270.358,285.024z"/>
		<path fill-rule="evenodd" clip-rule="evenodd" fill="#A3DBBF" d="M269.048,171.959c-0.987-0.834-1.876-1.718-1.661-3.294
			c1.996-0.025,3.351,1.137,4.751,2.196C271.076,171.138,269.765,170.711,269.048,171.959z"/>
		<path fill-rule="evenodd" clip-rule="evenodd" fill="#B5E1CB" d="M361.988,279.002c-2.34-0.021-4.68-0.043-7.021-0.064
			c2.334-1.138,4.727-1.708,7.265-0.711c0.082,0.032,0.135,0.311,0.093,0.438C362.281,278.8,362.106,278.892,361.988,279.002z"/>
		<path fill-rule="evenodd" clip-rule="evenodd" fill="#8CD3B0" d="M237.009,203.003c-0.19,1.871-1.4,3.037-2.81,4.064
			C231.935,203.501,236.016,204.318,237.009,203.003z"/>
		<path fill-rule="evenodd" clip-rule="evenodd" fill="#8CD3AF" d="M428.023,171.955c1.317,0.694,2.319,1.703,3.012,3.021
			C427.653,176.341,427.408,174.578,428.023,171.955z"/>
		<path fill-rule="evenodd" clip-rule="evenodd" fill="#91D5B3" d="M405.008,159.006c-0.666,0.669-1.331,1.339-1.997,2.009
			c-0.177-0.865-1.382-1.788-0.226-2.544C403.223,158.185,404.249,158.801,405.008,159.006z"/>
		<path fill-rule="evenodd" clip-rule="evenodd" fill="#A0DABD" d="M223.883,288.905c-0.075,0.751-0.045,1.979-1.113,1.514
			c-1.443-0.628-0.59-2.238-0.8-3.41C222.608,287.641,223.245,288.273,223.883,288.905z"/>
		<path fill-rule="evenodd" clip-rule="evenodd" fill="#8DD4B0" d="M287.059,196.042c-0.668,0.678-1.336,1.355-2.004,2.033
			c-0.192-0.88-1.446-1.803-0.263-2.589C285.23,195.195,286.285,195.83,287.059,196.042z"/>
		<path fill-rule="evenodd" clip-rule="evenodd" fill="#99D8B8" d="M309.09,174.04c-0.165,1.119-0.671,1.91-1.913,1.993
			c-0.421-0.15-0.844-0.301-1.266-0.451c0.322-0.221,0.622-0.491,0.972-0.65C307.604,174.604,308.353,174.334,309.09,174.04z"/>
		<path fill-rule="evenodd" clip-rule="evenodd" fill="#8ED4B1" d="M435.03,178.959c0.671,0.672,1.342,1.345,2.013,2.018
			c-0.893,0.046-1.785,0.092-2.678,0.138C434.587,180.396,434.809,179.677,435.03,178.959z"/>
		<path fill-rule="evenodd" clip-rule="evenodd" fill="#A0DABD" d="M280.055,287.991c1.132,0.754,0.913,1.919,0.918,3.017
			C279.941,290.223,278.173,289.663,280.055,287.991z"/>
		<path fill-rule="evenodd" clip-rule="evenodd" fill="#9BD8BA" d="M334.212,149.192c-0.275,1.135-0.974,1.79-2.153,1.897
			C332.037,149.62,331.672,147.759,334.212,149.192z"/>
		<path fill-rule="evenodd" clip-rule="evenodd" fill="#9CD9BB" d="M270.358,285.024c-0.782-0.009-1.565-0.018-2.348-0.025
			c0.355-0.696,0.711-1.393,1.065-2.089C270.148,283.224,271.505,283.366,270.358,285.024z"/>
		<path fill-rule="evenodd" clip-rule="evenodd" fill="#79CCA3" d="M296.654,250.84c-5.389-6.807-8.116-14.561-12.816-21.081
			c-1.293-1.796,0.126-2.746,1.145-3.733c3.68-3.569,7.417-7.08,11.672-11.126C296.654,227.061,296.654,238.613,296.654,250.84z"/>
		<path fill-rule="evenodd" clip-rule="evenodd" fill="#7ACDA3" d="M332.174,210.452c0,3.542,0,5.684,0,7.826
			c-0.001,8.578,0.001,8.56-8.479,7.871c-1.358-0.11-2.727-0.07-3.263-1.635c-0.474-1.381-0.061-2.764,0.876-3.698
			C324.531,217.599,327.888,214.516,332.174,210.452z"/>
		<path fill-rule="evenodd" clip-rule="evenodd" fill="#87D1AC" d="M274.885,198.087c3.138,0.647,5.112,1.674,6.438,3.604
			c0.111,0.162-1.445,2.015-1.84,1.887C277.192,202.838,276.092,200.861,274.885,198.087z"/>
		<path fill-rule="evenodd" clip-rule="evenodd" fill="#81CFA8" d="M431.96,289.427c-0.006,0.993-0.034,1.988,0,2.98
			c0.058,1.616-0.644,2.465-2.311,2.516c-1.928,0.058-2.653-0.915-2.594-2.746c0.055-1.654,0.105-3.318-0.016-4.965
			c-0.156-2.119,0.588-3.875,2.711-3.954c2.258-0.085,2.178,2.015,2.212,3.686C431.979,287.771,431.965,288.599,431.96,289.427z"/>
		<path fill-rule="evenodd" clip-rule="evenodd" fill="#7FCFA7" d="M342.932,286.057c-0.951-0.24-2.678,0.431-2.501-1.299
			c0.143-1.396,1.59-1.91,3.013-1.817c1.258,0.082,2.366,0.683,2.222,2.01C345.485,286.599,343.931,285.814,342.932,286.057z"/>
		<path fill-rule="evenodd" clip-rule="evenodd" fill="#7BCDA4" d="M402.984,289.551c0.565-2.892,0.183-6.224,3.751-6.505
			c3.481-0.274,4.344,2.528,4.352,5.408c0.007,2.864-0.172,6.204-3.837,6.451C403.629,295.15,403.707,291.712,402.984,289.551z"/>
		<path fill-rule="evenodd" clip-rule="evenodd" fill="#ECF5F0" d="M463.006,199.002c3.934,1.595,1.472,4.037,0.828,6.238
			c-1.07,0.774-1.935-0.814-2.985-0.26c-0.336-0.019-0.671-0.036-1.007-0.055c-0.991-2-1.098-3.979,0.148-5.922
			C460.995,199.003,462.001,199.003,463.006,199.002z"/>
		<path fill-rule="evenodd" clip-rule="evenodd" fill="#9AD8B9" d="M459.99,199.004c-0.049,1.974-0.098,3.948-0.147,5.922
			C457.11,202.882,457.24,200.91,459.99,199.004z"/>
		<path fill-rule="evenodd" clip-rule="evenodd" fill="#8FD4B2" d="M460.849,204.98c1.258-2.962,1.905,1.172,2.986,0.259
			c-0.608,0.285-1.216,0.569-1.822,0.854C461.624,205.723,461.236,205.352,460.849,204.98z"/>
	</g>
</g>
</svg>
