<svg xmlns="http://www.w3.org/2000/svg" width="2317" height="2317" viewBox="0 0 2317 2317"><path fill="#fff" d="M1090 2296H2V-22h2318v2318H1234c.48-4.314 3.733-3.972 6.737-3.975 15.272-.017 30.357-2.025 45.492-3.832 19.693-2.35 39.34-4.832 58.958-7.85 32.74-5.037 65.14-11.605 97.244-19.598 39.957-9.947 79.18-22.277 117.882-36.422 36.86-13.47 72.938-28.69 108.258-45.72 15.876-7.655 31.592-15.632 46.997-24.263 22.314-12.502 44.61-25.013 66.095-38.904 40.982-26.5 80.687-54.71 118.336-85.88 19.693-16.305 38.946-33.105 57.515-50.564 19.357-18.202 38.244-36.972 55.92-56.97 14.5-16.406 29.28-32.54 43.177-49.486 21.463-26.17 41.815-53.142 61.02-81.008 21.886-31.752 42.157-64.506 60.568-98.36 11.905-21.892 23.837-43.8 33.854-66.7 2.82-6.446 3.827-11.673-.467-17.425-.983-1.317-1.554-2.938-2.377-4.385-13.15-23.085-26.344-46.146-39.453-69.254-9.672-17.048-19.17-34.195-28.865-51.23-15.44-27.133-31.047-54.17-46.46-81.32-12.463-21.954-24.687-44.045-37.12-66.017-13.25-23.413-26.65-46.738-39.925-70.135-12.132-21.38-24.133-42.835-36.284-64.203-12.806-22.52-25.822-44.917-38.562-67.47-13.07-23.142-25.832-46.456-38.973-69.557-1.675-2.944-2.89-6.98-7.324-7.51-2.087-4.147-4.23-8.27-6.255-12.448-58.87-121.493-148.442-212.73-269.533-272.587-52.27-25.838-107.46-42.792-165.212-51.224-12.234-1.786-12.224-1.793-16.205-13.18-32.082-91.74-83.272-171.228-155.573-236.14C1149.958 352.53 993.2 304.698 815.533 326.725c-77.233 9.574-149.27 35.818-216.01 76.005C399.354 523.26 289.838 750.4 326.542 986.925c13.008 83.818 43.707 160.94 91.16 231.314 6.69 9.923 13.606 19.693 20.42 29.534-.836 5.084 2.233 8.948 4.294 13.028 62.158 123.07 122.627 246.987 185.62 369.642 31.956 62.22 62.7 125.06 93.984 187.623 31.432 62.858 62.3 126.007 94.438 188.502 31.938 62.108 60.063 126.147 95.666 186.428 14.867 25.172 26.148 52.403 40.26 78.093 2.49 4.536 5.21 6.625 10.68 7.12 15.466 1.4 30.622 5.165 46.135 6.626 13.15 1.238 26.175 4.263 39.332 4.89 11.932.57 23.702 3.506 35.733 2.334 2.868-.28 5.385.358 5.737 3.94z"/><path fill-rule="evenodd" clip-rule="evenodd" fill="#EAEAEA" d="M1896.242 1057.966c4.436.53 5.65 4.564 7.324 7.51 13.14 23.1 25.902 46.414 38.974 69.555 12.74 22.555 25.757 44.953 38.562 67.47 12.15 21.37 24.152 42.823 36.284 64.204 13.275 23.396 26.676 46.722 39.924 70.135 12.434 21.97 24.658 44.06 37.122 66.017 15.412 27.148 31.02 54.187 46.46 81.32 9.694 17.034 19.192 34.182 28.864 51.23 13.11 23.107 26.304 46.168 39.453 69.253.822 1.446 1.393 3.067 2.376 4.385 4.294 5.752 3.288 10.98.467 17.426-10.017 22.9-21.948 44.81-33.854 66.7-18.412 33.855-38.684 66.608-60.568 98.36-19.206 27.866-39.56 54.84-61.02 81.008-13.898 16.945-28.678 33.08-43.177 49.485-17.677 20-36.563 38.77-55.92 56.97-18.57 17.46-37.822 34.26-57.515 50.564-37.65 31.172-77.354 59.38-118.336 85.88-21.483 13.893-43.78 26.403-66.096 38.905-15.405 8.63-31.12 16.607-46.997 24.263-35.32 17.03-71.395 32.25-108.257 45.72-38.7 14.145-77.925 26.475-117.882 36.422-32.104 7.992-64.502 14.56-97.243 19.598-19.617 3.018-39.265 5.5-58.96 7.85-15.134 1.807-30.22 3.815-45.49 3.832-3.005.003-6.258-.34-6.738 3.975h-144c-.353-3.582-2.87-4.22-5.738-3.94-12.03 1.172-23.802-1.763-35.734-2.333-13.157-.63-26.18-3.653-39.332-4.892-15.513-1.46-30.67-5.227-46.134-6.626-5.47-.495-8.19-2.584-10.682-7.12-14.11-25.688-25.392-52.92-40.26-78.092-35.602-60.28-63.727-124.32-95.665-186.43-32.137-62.494-63.006-125.643-94.438-188.5-31.284-62.564-62.028-125.405-93.983-187.624-62.994-122.654-123.463-246.57-185.62-369.642-2.062-4.08-5.13-7.944-4.296-13.03 2.325.95 3.3 3.2 4.72 4.99 33.76 42.568 72.51 79.932 116.722 111.537 76.142 54.43 160.45 88.703 253.203 101.743 6.78.953 9.34 4.03 11.396 10.063 26.94 79.054 68.786 149.324 126.574 209.62 106.165 110.773 236.25 170.64 389.36 179.73 55.862 3.317 111.212-2.033 165.546-15.662 126.37-31.7 230.56-98.32 312.568-199.587 3.822 2.713 2.064 6.74 2.078 10.128.143 36.33.062 72.658.11 108.987.01 8.88.122 9.015 8.732 9.023 45.995.048 91.99-.064 137.983.138 5.504.024 9.34-1.785 13.098-5.595 18.957-19.22 37.96-38.403 57.323-57.21 4.793-4.653 6.267-9.47 6.232-15.854-.21-39.327-.103-78.656-.105-117.985 0-12.777.815-11.603-12.104-11.607-48.994-.02-97.988.037-146.982-.097-3.72-.01-8.094 1.795-11.092-2.275 41.316-75.213 64.692-155.74 69.962-241.293 4.587-74.48-4.59-147.405-28.52-218.238-5.727-16.958-12.425-33.586-18.678-50.364z"/><path fill-rule="evenodd" clip-rule="evenodd" fill="#343434" d="M1818.21 1650.207c-82.01 101.267-186.2 167.888-312.57 199.587-54.333 13.63-109.683 18.98-165.544 15.662-153.11-9.092-283.196-68.957-389.36-179.73-57.79-60.296-99.634-130.566-126.576-209.62-2.057-6.034-4.615-9.11-11.396-10.063-92.753-13.04-177.062-47.313-253.203-101.742-44.21-31.604-82.96-68.968-116.722-111.535-1.42-1.79-2.394-4.04-4.72-4.99-6.81-9.84-13.728-19.61-20.42-29.533-47.45-70.374-78.15-147.496-91.157-231.314-36.702-236.526 72.814-463.664 272.984-584.197 66.737-40.186 138.775-66.43 216.01-76.005C993.2 304.7 1149.957 352.53 1283.463 472.39c72.3 64.91 123.49 144.397 155.573 236.14 3.98 11.386 3.97 11.393 16.205 13.18 57.75 8.43 112.943 25.385 165.212 51.223 121.09 59.857 210.664 151.094 269.533 272.587 2.025 4.18 4.168 8.3 6.255 12.45 6.253 16.777 12.95 33.405 18.68 50.36 23.93 70.834 33.106 143.758 28.52 218.24-5.27 85.552-28.646 166.08-69.96 241.292-16.137 28.983-34.2 56.673-55.273 82.345zm-90.198-534.27c.075-1.663-.15-3.177-1.944-3.91l-.062-.098c.092-1.666-.145-3.168-1.936-3.898l-.07-.108c.176-1.81-.35-3.322-1.858-4.423-.022-1.298-.206-2.536-1.286-3.438-2.025-3.53-2.583-8.04-6.76-10.137.196-4.617-2.255-7.715-5.844-10.156-.184-2.738-1.555-4.72-3.878-6.096-.097-2.822-.934-5.178-3.907-6.183-3.645-9.128-9.414-16.79-16.322-23.668l-2.048-1.982.144-.023c-.744-1.46-1.238-3.132-2.273-4.344-14.444-16.92-29.07-33.556-45.637-48.61-43.72-39.73-93.48-68.724-149.41-87.397-14.808-4.943-15.327-6.398-14.678 10.764-.79 34.704-5.062 68.984-12.026 102.986-37.186 181.526-165.66 338.16-336.908 410.778-34.713 14.72-70.542 25.777-107.273 34.07-.67-.73-1.572-1.35-1.974-2.204-13.224-28.162-22.155-57.706-27.93-88.215-1.26-6.662.217-8.578 6.96-9.258 9.28-.935 18.418-2.59 27.548-4.345 50.808-9.776 98.52-27.757 142.89-54.398 39.355-23.63 74.667-52.1 105.007-86.77 22.695-25.94 42.56-53.77 58.884-84.045 30.267-56.135 47.69-116.247 52.104-179.76 2.61-37.558.872-75.182-6.415-112.31-9.558-48.692-25.95-94.863-50.65-138.05-25.877-45.243-58.27-85.116-98.067-118.71-48.434-40.887-103.046-70.594-164.087-88.184-38.53-11.104-77.837-17.083-117.93-17.704-13.306-.206-26.566.44-39.867 1.468-14.28 1.102-28.51 2.53-42.533 5.07-47.795 8.666-93.206 24.343-136.12 47.28-56.06 29.963-103.503 70.043-142.037 120.533-33.262 43.58-57.338 91.813-72.588 144.554-9.648 33.37-14.878 67.448-16.767 101.947-1.674 30.58.553 61.112 5.36 91.45 6.554 41.337 18.388 81.028 36.028 118.952 27.526 59.172 66.408 109.686 116.182 151.894 39.775 33.73 84.15 59.483 133.098 77.37 4.486 1.638 8.816 4.243 14.782 4.346-2.997-20.77-1.656-41.03-2.206-61.25.42-41.137 5.2-81.832 15.236-121.662 42.94-170.424 142.425-296.918 297.43-379.474 45.16-24.052 93.206-40.746 143.446-50.86 5.285-.456 8.365 1.737 10.462 6.85 5.432 13.238 10.964 26.43 15.583 39.98 11.002 32.273 16.52 65.65 19.858 99.452.394 3.983.775 8.177-3.966 10.275-2.648.137-5.342.007-7.937.453-23.86 4.104-47.406 9.57-70.22 17.73-18.383 6.572-36.74 13.31-53.532 23.55-3.638.795-6.618 2.974-9.797 4.716-44.686 24.485-83.27 56.44-116.343 95.13-15.54 18.61-29.637 38.26-41.648 59.32-18.128 31.783-32.65 65.08-41.166 100.81-8.227 24.42-11.588 49.812-12.778 75.292-1.163 24.88-1.282 49.846 1.28 74.802 2.313 22.554 6.14 44.76 11.89 66.6 9.017 34.247 22.2 66.85 39.576 97.806 28.106 50.074 65.07 92.396 110.573 127.224 43.602 33.372 92.125 57.085 145.134 71.298 26.015 6.975 52.508 11.878 79.506 12.96 16.225.648 32.37 2.234 48.762.517 11.182-1.172 22.6-1.362 33.735-2.978 31.638-4.59 62.577-12.033 92.57-23.466 48.79-18.598 92.643-45.224 131.363-80.1 31.61-28.47 58.393-61.067 79.92-97.858 1.818-3.108 4.333-6.038 3.42-10.097l-.006.02c3.61.318 4.205-2.778 5.366-4.977 9.314-17.632 17.73-35.675 24.527-54.442 1.243-3.43 2.608-6.855 2.098-10.64l-.06.11c2.493-1.43 2.063-3.848 2.064-6.12l-.07.128c2.457-1.446 2.03-3.87 2.074-6.133l.025.022c1.114-.313 1.697-1.104 1.96-2.182-.485-3.39 1.738-6.18 2.08-9.386 1.464-1.172 1.927-2.77 1.937-4.557l.06-3.455c7.747-21.9 9.69-44.834 11.81-67.706.638-6.866-.457-13.893 1.992-20.59.03-6.24.16-12.483.057-18.722-.088-5.19.974-10.564-1.995-15.394l.006-9.952c-.72-4.672 1.813-9.816-2.035-14.035l.03-5.956c-1.35-9.396-2.04-18.948-4.214-28.148-2.846-12.043-4.623-24.427-9.728-35.873-.08-1.65-.4-3.18-2.04-4.045l.032.05c-.09-2.213.354-4.606-2.03-6.05l.03.05c-.094-2.212.372-4.61-2.025-6.053l.03.048c-.08-2.216.37-4.608-2.026-6.048l.026.044c-.058-2.22.354-4.598-2.022-6.042l.023.037c-.033-2.23.295-4.577-2.024-6.038l.025.037c-.04-1.658-.344-3.185-2.012-4.028l.01.01c-.006-1.665-.272-3.2-2.003-4.004l-.002-.003c0-1.663-.22-3.217-1.994-3.993l-.01-.01c.072-3.88.61-7.945-3.974-9.97l-.04-.057c.054-1.664-.206-3.172-1.96-3.938l-.04-.065c.062-1.664-.18-3.178-1.955-3.928l-.048-.076z"/><path fill-rule="evenodd" clip-rule="evenodd" fill="#848978" d="M1818.21 1650.207c21.07-25.672 39.135-53.362 55.27-82.348 2.997 4.07 7.37 2.266 11.092 2.275 48.994.134 97.988.077 146.982.097 12.92.005 12.104-1.17 12.104 11.606.003 39.33-.104 78.658.105 117.985.034 6.384-1.44 11.2-6.23 15.855-19.365 18.806-38.367 37.988-57.324 57.21-3.76 3.81-7.595 5.618-13.098 5.594-45.994-.202-91.988-.09-137.983-.138-8.61-.01-8.723-.144-8.734-9.023-.047-36.328.033-72.657-.11-108.986-.013-3.387 1.745-7.414-2.077-10.127zm50.953-50.973c-1.425 2.176.398 3.803 1.198 5.418 7.522 15.19 15.327 30.226 23.415 45.13 10.777 19.86 20.796 40.134 31.238 60.18 3.68 7.064 6.038 7.77 11.075 2.83 14.497-14.215 28.746-28.683 43.128-43.017 3.244-3.233 2.673-5.592-1.195-7.775-5.773-3.262-11.444-6.707-17.142-10.104-29.052-17.322-58.09-34.665-87.164-51.95-1.31-.78-2.765-2.036-4.55-.712zm40.567 119.285c-8.507-20.8-16.477-40.488-24.612-60.107-5.722-13.8-11.613-27.528-17.577-41.225-.838-1.926-1.48-5.005-4.632-4.17-2.07.55-2.463 2.775-2.91 4.827-3.94 18.103-7.94 36.192-12.025 54.262-3.648 16.14-7.44 32.25-11.144 48.376-1.908 8.304-.273 10.133 8.383 9.474.994-.075 1.988-.185 2.975-.333 16.98-2.544 33.947-5.158 50.94-7.6 3.645-.523 6.963-1.564 10.602-3.505zm-32.97-123.74c5.79 4.56 13.065 7.107 19.72 10.15 25.397 11.613 50.937 22.916 75.988 35.276 2.39 1.18 4.736 2.487 7.218 3.432 9.362 3.56 10.254 2.976 10.298-6.85.063-14 .05-28-.015-42-.014-2.585.695-5.37-1.32-7.632-16.48 2.01-33.083 1.167-49.627 2.336-19.15 1.354-38.39 3.884-57.716 2.57-1.57-.106-3.4-.222-4.546 2.717zm121.96 76.916c-6.208 6.41-11.692 12.192-17.306 17.846-11.51 11.59-23.127 23.07-34.62 34.676-5.593 5.65-5.59 5.81-.478 11.06 6.278 6.445 12.896 12.572 19.004 19.172 3.795 4.102 6.348 3.013 9.79-.435 16.715-16.738 33.58-33.33 50.515-49.845 1.902-1.855 2.07-3.293.422-4.966-8.832-8.962-17.73-17.86-27.326-27.508z"/><path fill-rule="evenodd" clip-rule="evenodd" fill="#E9EAEA" d="M1014.033 1460.062c36.73-8.292 72.56-19.35 107.273-34.07 171.248-72.618 299.723-229.25 336.908-410.777 6.965-34.002 11.235-68.282 12.026-102.986 3.036-.764 5.89.02 8.813.82 59.104 16.186 111.4 44.834 157.118 85.593 15.455 13.777 28.713 29.545 41.712 45.558 1.706 2.856 3.228 5.856 6.097 7.803l27.944 44.13c.485 1.225.87 2.502 1.47 3.666 39.54 76.644 55.124 157.687 44.627 243.485-8.237 67.328-32.088 128.717-70.543 184.51-2.064 2.998-3.98 6.1-5.962 9.15-15.675 19.076-31.513 38.005-49.34 55.158-.36.348-.234 1.203-.336 1.822l.125-.098-1.95.206c-2.41.628-3.783 2.64-5.5 4.17-12.188 10.883-24.71 21.356-38.428 30.28-55.915 36.367-117.496 56.236-183.732 61.18-38.657 2.887-77.287.618-115.176-8.295-115.67-27.21-202.336-93.3-261.28-196.124-4.6-8.03-9.543-16.023-11.867-25.182z"/><path fill-rule="evenodd" clip-rule="evenodd" fill="#EAEAEA" d="M1249.82 727.73c-50.24 10.114-98.287 26.81-143.446 50.86-155.005 82.556-254.49 209.05-297.43 379.474-10.036 39.83-14.815 80.525-15.237 121.663-2.674.828-5.232.3-7.834-.49-54.988-16.71-104.315-43.812-147.256-81.938-43.658-38.766-77.974-84.587-101.313-138.406-19.003-43.82-29.902-89.562-32.76-137.136-1.763-29.317.21-58.504 5.147-87.536 12.602-74.098 43.37-139.562 93.144-195.814 44.987-50.845 99.21-88.533 163.413-111.266 18.792-6.654 37.815-12.713 57.75-15.145 50.69-.006 101.382-.01 152.072-.017 13.978 1.275 27.317 5.426 40.606 9.512 82.14 25.257 148.43 73.174 200.46 141.176 14.753 19.28 27.39 39.934 38.018 61.866l-5.333 3.197z"/><path fill-rule="evenodd" clip-rule="evenodd" fill="#838877" d="M823.998 511.997c-19.936 2.432-38.96 8.49-57.75 15.145-64.203 22.732-118.427 60.42-163.414 111.266-49.774 56.253-80.542 121.717-93.143 195.814-4.937 29.032-6.91 58.22-5.147 87.536 2.858 47.574 13.758 93.316 32.76 137.136 23.34 53.82 57.656 99.64 101.314 138.405 42.94 38.126 92.268 65.227 147.256 81.937 2.602.79 5.16 1.318 7.834.49.55 20.22-.79 40.48 2.206 61.25-5.966-.104-10.296-2.71-14.782-4.348-48.945-17.887-93.32-43.642-133.097-77.37-49.773-42.208-88.655-92.722-116.182-151.894-17.64-37.924-29.474-77.615-36.026-118.952-4.81-30.338-7.035-60.87-5.36-91.45 1.888-34.5 7.117-68.578 16.766-101.947 15.25-52.74 39.326-100.973 72.588-144.554 38.534-50.49 85.978-90.57 142.036-120.533 42.915-22.938 88.326-38.614 136.12-47.28 14.024-2.54 28.255-3.97 42.533-5.07 13.3-1.026 26.562-1.674 39.866-1.468 40.094.62 79.4 6.6 117.93 17.704 61.042 17.59 115.654 47.297 164.088 88.183 39.798 33.594 72.19 73.467 98.068 118.71 24.7 43.187 41.093 89.357 50.65 138.05 7.286 37.128 9.024 74.752 6.414 112.31-4.413 63.513-21.838 123.625-52.105 179.76-16.324 30.273-36.188 58.105-58.884 84.043-30.34 34.672-65.652 63.142-105.006 86.77-44.37 26.643-92.083 44.623-142.89 54.4-9.13 1.755-18.27 3.41-27.55 4.344-6.742.68-8.22 2.596-6.958 9.258 5.772 30.51 14.704 60.053 27.93 88.215.4.854 1.304 1.474 1.973 2.203 2.324 9.16 7.267 17.152 11.87 25.182 58.942 102.823 145.607 168.914 261.277 196.124 37.89 8.912 76.52 11.18 115.176 8.295 66.236-4.944 127.817-24.813 183.732-61.182 13.717-8.923 26.24-19.396 38.43-30.278 1.715-1.532 3.09-3.543 5.498-4.17.808 1.415 1.465 1.424 1.95-.207l-.126.097c4.61-.092 6.873-3.797 9.548-6.563 12.654-13.093 27.273-24.416 36.71-40.43.88-.944 1.758-1.89 2.637-2.834l1.363-1.57c10.235-10.867 18.154-23.44 26.563-35.673 2.147-3.12 3.005-7.548 7.403-8.857.914 4.06-1.6 6.988-3.42 10.097-21.526 36.79-48.308 69.388-79.92 97.86-38.72 34.874-82.572 61.5-131.362 80.1-29.992 11.432-60.932 18.875-92.57 23.465-11.135 1.615-22.553 1.806-33.734 2.978-16.39 1.718-32.537.132-48.762-.518-26.998-1.08-53.49-5.984-79.505-12.96-53.01-14.212-101.533-37.925-145.135-71.297-45.503-34.827-82.467-77.15-110.573-127.224-17.375-30.957-30.56-63.56-39.577-97.807-5.75-21.84-9.575-44.046-11.89-66.6-2.562-24.956-2.442-49.922-1.28-74.802 1.19-25.478 4.553-50.87 12.783-75.292 3.88-1.896 3.747-6.002 4.832-9.276 6.042-18.242 12.315-36.36 20.45-53.833 15.903-34.15 36.065-65.563 59.698-94.817 3.582-2.1 5.1-6.012 7.787-8.922 34.23-37.058 73.012-68.192 117.998-91.334 29.505-15.278 60.415-26.884 92.6-35.04 12.348-3.13 24.844-5.674 37.27-8.484 4.744-2.1 4.362-6.293 3.97-10.276-3.34-33.803-8.857-67.18-19.86-99.452-4.618-13.552-10.15-26.742-15.582-39.98-2.096-5.112-5.176-7.306-10.46-6.85 1.664-.996 3.328-1.994 5.333-3.196-10.628-21.933-23.265-42.585-38.018-61.866-52.03-68.002-118.32-115.92-200.46-141.176-13.29-4.086-26.63-8.236-40.607-9.512-.865-.475-1.68-1.216-2.6-1.387-40.548-7.552-81.338-8.733-122.238-3.805-9.126 1.097-18.545 1.464-27.232 5.205zM1295.27 906.57c-4.233.73-8.157 1.196-11.977 2.1-71.688 16.985-134.033 51.18-186.798 102.5-39.92 38.824-70.273 84.267-91.035 135.99-17.146 42.714-26.62 87.072-27.73 133.14-.188 7.847 0 7.95 7.61 6.323 38.034-8.13 73.964-21.85 107.804-40.985 70.694-39.976 124.485-96.206 161.188-168.625 20.802-41.044 33.715-84.622 39.083-130.278 1.537-13.067 3.856-26.298 1.856-40.166z"/><path fill-rule="evenodd" clip-rule="evenodd" fill="#3F3E3E" d="M1716.064 1497.995c-4.398 1.31-5.256 5.736-7.402 8.857-8.41 12.23-16.328 24.806-26.564 35.668-.193-1.86-.388-3.72-.58-5.576 1.982-3.053 3.896-6.153 5.96-9.15 38.456-55.794 62.307-117.183 70.545-184.51 10.497-85.8-5.087-166.843-44.626-243.487-.6-1.164-.985-2.44-1.47-3.665.194-1.61.33-3.252 2.044-4.105 2.025 2.91 2.47 7.174 6.886 8.034 1.08.903 1.264 2.142 1.286 3.445-.18 1.812-.11 3.516 1.86 4.418l.068.108c-.083 1.662.205 3.14 1.936 3.898 0 0 .062.097.06.096-.076 1.665.223 3.143 1.946 3.913l.05.078c-.063 1.664.227 3.153 1.954 3.928l.042.065c-.056 1.665.227 3.162 1.96 3.938l.04.058c-.247 3.95.782 7.39 3.974 9.97l.008.01c-.02 1.672.307 3.172 1.994 3.992l.002.003c-.016 1.675.284 3.194 2.002 4.004l-.01-.01c.003 1.676.287 3.212 2.014 4.026l-.025-.037c.038 2.227-.43 4.62 2.025 6.037l-.023-.037c.042 2.226-.398 4.613 2.02 6.042l-.025-.044c.058 2.225-.378 4.612 2.025 6.05l-.03-.05c.075 2.22-.358 4.608 2.026 6.054l-.03-.052c.086 2.216-.356 4.608 2.03 6.052l-.033-.05c.055 1.663.354 3.203 2.04 4.044 5.104 11.446 6.882 23.83 9.73 35.872 2.174 9.2 2.863 18.753 4.213 28.148-2.58 1.972-2.483 3.958-.03 5.956 3.85 4.22 1.314 9.363 2.036 14.035-2.918 3.314-2.868 6.632-.006 9.95 2.97 4.83 1.907 10.204 1.994 15.395.104 6.238-.027 12.48-.056 18.72-3.635.33-3.882 2.91-3.892 5.742-.02 5.643.547 11.386-.296 16.91-3.13 20.506-5.124 41.228-10.81 61.282-.52 1.84-.28 3.2 1.194 4.362l-.06 3.457c-2.977.528-5.043 1.44-1.936 4.554-.343 3.206-2.566 5.996-2.08 9.39l-1.96 2.178-.026-.02c-2.537 1.42-1.98 3.886-2.075 6.132l.07-.127c-2.51 1.425-2.034 3.856-2.064 6.118l.06-.11c-.81 1.003-1.946 1.88-2.39 3.023-8.045 20.774-16.626 41.29-28.257 60.388-1.24 2.034-1.995 4.21-1.344 6.648l.004-.02z"/><path fill-rule="evenodd" clip-rule="evenodd" fill="#808979" d="M1677.884 1044.2c-13-16.014-26.257-31.78-41.71-45.56-45.72-40.758-98.016-69.406-157.12-85.59-2.923-.802-5.776-1.586-8.812-.823-.65-17.162-.13-15.707 14.677-10.764 55.93 18.674 105.69 47.666 149.41 87.398 16.565 15.055 31.192 31.69 45.637 48.61 1.035 1.212 1.53 2.885 2.272 4.345-1.773.213-3.527.455-4.356 2.384z"/><path fill-rule="evenodd" clip-rule="evenodd" fill="#A4ABA6" d="M1036.1 1028.07c-23.633 29.255-43.795 60.666-59.697 94.816-8.136 17.473-14.41 35.59-20.45 53.833-1.086 3.273-.953 7.38-4.833 9.275 8.512-35.73 23.034-69.025 41.162-100.808 12.012-21.062 26.107-40.71 41.648-59.32l2.17 2.203z"/><path fill-rule="evenodd" clip-rule="evenodd" fill="#ACB6B2" d="M1036.1 1028.07c-.723-.734-1.446-1.47-2.17-2.203 33.073-38.69 71.657-70.645 116.343-95.13 3.18-1.742 6.16-3.92 9.798-4.715l1.815 1.79c-44.986 23.143-83.77 54.277-117.998 91.336-2.688 2.91-4.205 6.823-7.787 8.922z"/><path fill-rule="evenodd" clip-rule="evenodd" fill="#A4ABA6" d="M1161.885 927.813l-1.814-1.79c16.792-10.242 35.15-16.98 53.532-23.553 22.814-8.158 46.36-13.626 70.22-17.73 2.596-.445 5.29-.315 7.936-.45-12.43 2.81-24.925 5.353-37.272 8.482-32.186 8.158-63.096 19.763-92.6 35.04z"/><path fill-rule="evenodd" clip-rule="evenodd" fill="#74776A" d="M1716.06 1498.015c-.65-2.438.104-4.614 1.344-6.648 11.63-19.097 20.212-39.613 28.257-60.388.444-1.146 1.58-2.022 2.392-3.023.51 3.784-.854 7.21-2.098 10.64-6.797 18.768-15.213 36.81-24.527 54.442-1.162 2.196-1.758 5.293-5.367 4.975z"/><path fill-rule="evenodd" clip-rule="evenodd" fill="#4F514B" d="M1758.12 1396.383c-1.476-1.16-1.716-2.522-1.193-4.363 5.685-20.054 7.68-40.776 10.81-61.283.842-5.523.276-11.267.295-16.91.01-2.832.257-5.41 3.892-5.74-2.45 6.698-1.355 13.725-1.992 20.59-2.12 22.872-4.065 45.804-11.812 67.706z"/><path fill-rule="evenodd" clip-rule="evenodd" fill="#74776A" d="M1677.884 1044.2c.83-1.93 2.583-2.172 4.354-2.384l-.143.023c.486.864-1.176 3.95 2.05 1.98 6.907 6.878 12.677 14.54 16.32 23.67l-.535.562c-5.626-3.69-8.206-9.902-12.31-14.854-.938-1.13-1.657-3.147-3.64-1.198-2.87-1.945-4.39-4.945-6.096-7.8zM1708.26 1079.76c3.58 2.45 6.032 5.547 5.835 10.165-.002 0-.062.053-.063.054-3.86-2.21-5.302-5.882-6.026-9.984l.253-.235z"/><path fill-rule="evenodd" clip-rule="evenodd" fill="#4F514B" d="M1736.03 1133.973c-3.19-2.58-4.22-6.02-3.974-9.97 4.584 2.024 4.047 6.09 3.975 9.97z"/><path fill-rule="evenodd" clip-rule="evenodd" fill="#74776A" d="M1720.855 1100.06c-4.416-.86-4.86-5.124-6.885-8.034.02-.683.04-1.365.062-2.048l.062-.053c4.178 2.096 4.736 6.604 6.76 10.136zM1700.467 1067.49c2.974 1.005 3.81 3.36 3.907 6.183l-.398.348c-2.604-1.137-3.87-3.182-4.046-5.965l.537-.565z"/><path fill-rule="evenodd" clip-rule="evenodd" fill="#4F514B" d="M1769.984 1273.972c-2.862-3.32-2.912-6.637.006-9.952l-.006 9.952z"/><path fill-rule="evenodd" clip-rule="evenodd" fill="#74776A" d="M1704.374 1073.673c2.323 1.376 3.694 3.357 3.882 6.09l-.25.232c-2.647-1.113-3.903-3.163-4.03-5.975l.398-.347z"/><path fill-rule="evenodd" clip-rule="evenodd" fill="#4F514B" d="M1756.125 1404.395c-3.107-3.112-1.04-4.025 1.936-4.555-.01 1.786-.472 3.383-1.935 4.555z"/><path fill-rule="evenodd" clip-rule="evenodd" fill="#74776A" d="M1749.983 1422.074c.095-2.246-.462-4.712 2.075-6.132-.042 2.263.383 4.686-2.075 6.132zM1747.99 1428.065c.03-2.262-.445-4.693 2.064-6.118 0 2.272.43 4.69-2.065 6.118z"/><path fill-rule="evenodd" clip-rule="evenodd" fill="#4F514B" d="M1767.954 1249.984c-2.453-1.998-2.55-3.984.03-5.956l-.03 5.956zM1752.034 1176.014c-2.386-1.443-1.943-3.836-2.03-6.052 2.384 1.444 1.94 3.838 2.03 6.052zM1750.035 1170.014c-2.385-1.445-1.95-3.835-2.026-6.054 2.396 1.44 1.93 3.84 2.025 6.054zM1748.04 1164.01c-2.404-1.438-1.97-3.825-2.026-6.05 2.397 1.44 1.946 3.833 2.025 6.05zM1746.04 1158.005c-2.42-1.43-1.98-3.816-2.022-6.042 2.376 1.444 1.964 3.822 2.022 6.042zM1744.04 1152c-2.453-1.416-1.986-3.81-2.024-6.037 2.32 1.46 1.99 3.81 2.025 6.037z"/><path fill-rule="evenodd" clip-rule="evenodd" fill="#808979" d="M1684.145 1043.82c-3.225 1.97-1.562-1.115-2.05-1.98l2.05 1.98z"/><path fill-rule="evenodd" clip-rule="evenodd" fill="#4F514B" d="M1724 1107.923c-1.97-.902-2.037-2.605-1.858-4.418 1.508 1.096 2.034 2.61 1.86 4.418zM1726.006 1111.93c-1.73-.76-2.02-2.237-1.936-3.898 1.79.73 2.028 2.232 1.936 3.897zM1754.042 1180.008c-1.686-.84-1.985-2.38-2.04-4.044 1.64.863 1.96 2.393 2.04 4.044zM1742.04 1146c-1.726-.814-2.01-2.35-2.012-4.027 1.668.843 1.972 2.37 2.013 4.027zM1740.037 1141.983c-1.718-.81-2.018-2.33-2.002-4.005 1.73.804 1.997 2.34 2.002 4.005zM1738.033 1137.976c-1.688-.82-2.014-2.32-1.994-3.993 1.774.776 1.993 2.33 1.993 3.993zM1732.017 1123.946c-1.732-.775-2.015-2.272-1.96-3.938 1.754.766 2.013 2.274 1.96 3.938zM1730.016 1119.943c-1.728-.774-2.018-2.264-1.954-3.928 1.775.75 2.017 2.264 1.954 3.928zM1728.012 1115.938c-1.724-.77-2.022-2.248-1.945-3.913 1.793.735 2.02 2.248 1.945 3.913zM1752.084 1415.962c.653-.726 1.307-1.45 1.96-2.18-.263 1.075-.846 1.866-1.96 2.18z"/><path fill-rule="evenodd" clip-rule="evenodd" fill="#7B7F70" d="M1869.163 1599.234c1.786-1.324 3.24-.067 4.552.712 29.073 17.285 58.112 34.628 87.164 51.95 5.696 3.396 11.367 6.842 17.142 10.104 3.868 2.184 4.44 4.542 1.195 7.775-14.382 14.334-28.63 28.802-43.128 43.018-5.038 4.938-7.397 4.233-11.076-2.832-10.442-20.044-20.46-40.316-31.238-60.178-8.088-14.904-15.893-29.94-23.414-45.13-.8-1.615-2.624-3.242-1.2-5.418zM1909.73 1718.52c-3.64 1.94-6.957 2.98-10.603 3.505-16.993 2.44-33.962 5.055-50.94 7.6-.986.147-1.98.257-2.975.332-8.656.66-10.29-1.17-8.384-9.474 3.704-16.127 7.495-32.235 11.144-48.376 4.086-18.07 8.086-36.16 12.026-54.262.446-2.052.84-4.277 2.91-4.826 3.15-.837 3.793 2.242 4.632 4.168 5.964 13.696 11.855 27.426 17.577 41.225 8.137 19.618 16.107 39.307 24.613 60.106z"/><path fill-rule="evenodd" clip-rule="evenodd" fill="#74776A" d="M1876.76 1594.78c1.148-2.94 2.978-2.824 4.547-2.718 19.325 1.314 38.565-1.216 57.716-2.57 16.544-1.168 33.146-.326 49.628-2.335 2.016 2.263 1.307 5.047 1.32 7.63.064 14 .077 28 .014 42-.044 9.827-.936 10.41-10.298 6.852-2.48-.945-4.828-2.253-7.218-3.433-25.052-12.36-50.59-23.663-75.99-35.277-6.653-3.042-13.93-5.59-19.717-10.15zM1998.72 1671.696c9.6 9.647 18.495 18.546 27.327 27.508 1.648 1.673 1.48 3.11-.422 4.966-16.936 16.516-33.8 33.106-50.515 49.845-3.442 3.447-5.995 4.536-9.79.435-6.107-6.6-12.726-12.727-19.004-19.173-5.113-5.25-5.115-5.41.48-11.06 11.49-11.604 23.11-23.086 34.618-34.675 5.613-5.653 11.098-11.435 17.307-17.846z"/><path fill-rule="evenodd" clip-rule="evenodd" fill="#4F514B" d="M1681.517 1536.944l.582 5.576c-.455.528-.91 1.052-1.37 1.576-1.562.312-2.398 1.294-2.63 2.833-9.438 16.013-24.057 27.336-36.71 40.43-2.676 2.766-4.938 6.47-9.55 6.562.103-.618-.024-1.474.337-1.82 17.827-17.154 33.665-36.082 49.34-55.158zM1703.976 1074.02c.127 2.813 1.384 4.862 4.03 5.976.724 4.103 2.165 7.773 6.025 9.983l-.06 2.046c-1.715.854-1.85 2.496-2.045 4.106l-27.945-44.13c1.983-1.95 2.703.066 3.64 1.197 4.105 4.95 6.685 11.163 12.31 14.853.175 2.785 1.442 4.83 4.046 5.968zM1631.967 1593.826c-.485 1.63-1.143 1.622-1.95.206.65-.07 1.3-.137 1.95-.206z"/><path fill-rule="evenodd" clip-rule="evenodd" fill="#F2FAF9" d="M823.998 511.997c8.687-3.74 18.106-4.108 27.233-5.208 40.9-4.93 81.69-3.748 122.238 3.804.92.17 1.735.912 2.6 1.387-50.69.006-101.38.01-152.07.017z"/><path fill-rule="evenodd" clip-rule="evenodd" fill="#E9E9E9" d="M1295.27 906.57c2 13.866-.318 27.098-1.854 40.164-5.368 45.656-18.28 89.234-39.083 130.278-36.703 72.42-90.494 128.65-161.188 168.625-33.84 19.135-69.77 32.856-107.803 40.985-7.61 1.627-7.8 1.523-7.61-6.324 1.108-46.066 10.584-90.425 27.73-133.14 20.76-51.723 51.114-97.165 91.034-135.99 52.765-51.318 115.11-85.514 186.798-102.498 3.82-.903 7.743-1.37 11.977-2.1z"/><path fill-rule="evenodd" clip-rule="evenodd" fill="#3F3E3E" d="M1678.1 1546.93c.23-1.54 1.067-2.52 2.63-2.833-.874.944-1.752 1.888-2.63 2.833z"/></svg>