<?xml version="1.0" encoding="utf-8"?>
<!-- Generator: Adobe Illustrator 16.0.0, SVG Export Plug-In . SVG Version: 6.00 Build 0)  -->
<!DOCTYPE svg PUBLIC "-//W3C//DTD SVG 1.1//EN" "http://www.w3.org/Graphics/SVG/1.1/DTD/svg11.dtd">
<svg version="1.1" id="ring_xA0_Image_1_" xmlns="http://www.w3.org/2000/svg" xmlns:xlink="http://www.w3.org/1999/xlink" x="0px"
	 y="0px" width="2317px" height="2317px" viewBox="0 0 2317 2317" enable-background="new 0 0 2317 2317" xml:space="preserve">
<g>
	<g>
		<path fill="#FFFFFF" d="M1090,2296c-362.667,0-725.333,0-1088,0C2,1523.333,2,750.667,2-22c772.667,0,1545.333,0,2318,0
			c0,772.667,0,1545.333,0,2318c-362,0-724,0-1086,0c0.48-4.314,3.733-3.972,6.737-3.975c15.272-0.017,30.357-2.025,45.492-3.832
			c19.694-2.351,39.342-4.832,58.959-7.85c32.741-5.037,65.139-11.605,97.244-19.598c39.957-9.947,79.181-22.277,117.882-36.422
			c36.861-13.471,72.938-28.689,108.258-45.72c15.876-7.655,31.592-15.632,46.997-24.263c22.315-12.502,44.612-25.013,66.096-38.904
			c40.982-26.5,80.687-54.709,118.336-85.881c19.692-16.304,38.945-33.104,57.514-50.563c19.357-18.202,38.244-36.972,55.921-56.971
			c14.499-16.405,29.278-32.54,43.176-49.485c21.463-26.169,41.815-53.142,61.021-81.008c21.885-31.752,42.156-64.506,60.567-98.359
			c11.905-21.893,23.837-43.8,33.854-66.7c2.821-6.447,3.827-11.674-0.467-17.426c-0.983-1.317-1.554-2.938-2.377-4.385
			c-13.149-23.085-26.344-46.146-39.453-69.254c-9.672-17.048-19.17-34.195-28.865-51.23c-15.44-27.133-31.047-54.171-46.459-81.319
			c-12.464-21.955-24.688-44.046-37.122-66.018c-13.248-23.413-26.648-46.738-39.924-70.135
			c-12.132-21.381-24.133-42.835-36.284-64.203c-12.806-22.518-25.822-44.916-38.562-67.47
			c-13.071-23.141-25.833-46.455-38.974-69.556c-1.675-2.944-2.889-6.979-7.324-7.509c-2.087-4.148-4.229-8.271-6.255-12.449
			c-58.869-121.493-148.442-212.729-269.533-272.587c-52.269-25.838-107.461-42.792-165.212-51.224
			c-12.234-1.786-12.224-1.793-16.205-13.179c-32.082-91.742-83.272-171.229-155.573-236.14
			C1149.958,352.528,993.2,304.697,815.533,326.723c-77.233,9.575-149.271,35.819-216.009,76.006
			c-200.17,120.533-309.687,347.671-272.983,584.197c13.007,83.818,43.706,160.94,91.158,231.314
			c6.69,9.923,13.607,19.693,20.42,29.534c-0.835,5.084,2.234,8.948,4.295,13.028c62.158,123.07,122.627,246.987,185.621,369.642
			c31.955,62.219,62.699,125.06,93.983,187.623c31.432,62.858,62.301,126.007,94.438,188.502
			c31.938,62.109,60.063,126.148,95.666,186.429c14.867,25.172,26.148,52.403,40.259,78.093c2.491,4.535,5.211,6.624,10.682,7.119
			c15.465,1.399,30.621,5.165,46.134,6.626c13.151,1.238,26.175,4.263,39.332,4.891c11.933,0.57,23.703,3.505,35.734,2.333
			C1087.131,2291.78,1089.648,2292.418,1090,2296z"/>
		<path fill-rule="evenodd" clip-rule="evenodd" fill="#EAEAEA" d="M1896.242,1057.966c4.436,0.529,5.649,4.564,7.324,7.509
			c13.141,23.101,25.902,46.415,38.974,69.556c12.74,22.554,25.757,44.952,38.562,67.47c12.151,21.368,24.152,42.822,36.284,64.203
			c13.275,23.396,26.676,46.722,39.924,70.135c12.434,21.972,24.658,44.062,37.122,66.018
			c15.412,27.148,31.019,54.187,46.459,81.319c9.695,17.035,19.193,34.183,28.865,51.23c13.109,23.108,26.304,46.169,39.453,69.254
			c0.823,1.446,1.394,3.067,2.377,4.385c4.294,5.752,3.288,10.979,0.467,17.426c-10.017,22.9-21.948,44.808-33.854,66.7
			c-18.411,33.854-38.683,66.607-60.567,98.359c-19.206,27.866-39.559,54.839-61.021,81.008
			c-13.897,16.945-28.677,33.08-43.176,49.485c-17.677,19.999-36.563,38.769-55.921,56.971
			c-18.568,17.46-37.821,34.26-57.514,50.563c-37.649,31.172-77.354,59.381-118.336,85.881
			c-21.483,13.892-43.78,26.402-66.096,38.904c-15.405,8.631-31.121,16.607-46.997,24.263c-35.32,17.03-71.396,32.249-108.258,45.72
			c-38.701,14.145-77.925,26.475-117.882,36.422c-32.105,7.992-64.503,14.561-97.244,19.598c-19.617,3.018-39.265,5.499-58.959,7.85
			c-15.135,1.807-30.22,3.815-45.492,3.832c-3.004,0.003-6.257-0.34-6.737,3.975c-48,0-96,0-144,0
			c-0.352-3.582-2.869-4.22-5.737-3.94c-12.031,1.172-23.802-1.763-35.734-2.333c-13.157-0.628-26.181-3.652-39.332-4.891
			c-15.513-1.461-30.669-5.227-46.134-6.626c-5.471-0.495-8.19-2.584-10.682-7.119c-14.11-25.689-25.392-52.921-40.259-78.093
			c-35.603-60.28-63.728-124.319-95.666-186.429c-32.137-62.495-63.006-125.644-94.438-188.502
			c-31.284-62.563-62.028-125.404-93.983-187.623c-62.994-122.654-123.463-246.571-185.621-369.642
			c-2.061-4.08-5.13-7.944-4.295-13.029c2.325,0.949,3.299,3.199,4.719,4.99c33.762,42.567,72.511,79.931,116.723,111.536
			c76.142,54.429,160.45,88.702,253.203,101.742c6.78,0.953,9.339,4.029,11.396,10.063c26.942,79.054,68.787,149.324,126.575,209.62
			c106.165,110.773,236.251,170.639,389.361,179.73c55.861,3.317,111.211-2.033,165.545-15.662
			c126.37-31.699,230.56-98.32,312.568-199.587c3.822,2.713,2.064,6.74,2.078,10.128c0.143,36.329,0.062,72.658,0.109,108.987
			c0.012,8.88,0.123,9.015,8.733,9.023c45.995,0.048,91.989-0.064,137.983,0.138c5.503,0.024,9.339-1.785,13.097-5.595
			c18.957-19.221,37.959-38.403,57.323-57.209c4.792-4.654,6.266-9.472,6.231-15.855c-0.209-39.327-0.103-78.656-0.105-117.985
			c-0.001-12.776,0.815-11.602-12.104-11.606c-48.994-0.02-97.988,0.037-146.982-0.097c-3.721-0.01-8.095,1.795-11.093-2.275
			c41.316-75.214,64.692-155.741,69.962-241.294c4.587-74.481-4.589-147.405-28.52-218.238
			C1909.193,1091.372,1902.495,1074.744,1896.242,1057.966z"/>
		<path fill-rule="evenodd" clip-rule="evenodd" fill="#343434" d="M1818.209,1650.207
			c-82.009,101.267-186.198,167.888-312.568,199.587c-54.334,13.629-109.684,18.979-165.545,15.662
			c-153.11-9.092-283.196-68.957-389.361-179.73c-57.788-60.296-99.633-130.566-126.575-209.62
			c-2.057-6.034-4.615-9.11-11.396-10.063c-92.753-13.04-177.062-47.313-253.203-101.742
			c-44.212-31.605-82.961-68.969-116.723-111.536c-1.42-1.791-2.394-4.041-4.719-4.99c-6.812-9.84-13.729-19.61-20.42-29.533
			c-47.452-70.374-78.151-147.496-91.158-231.314c-36.703-236.526,72.813-463.664,272.983-584.197
			c66.737-40.187,138.775-66.431,216.009-76.006c177.667-22.025,334.425,25.806,467.931,145.665
			c72.301,64.91,123.491,144.397,155.573,236.14c3.981,11.386,3.971,11.393,16.205,13.179
			c57.751,8.432,112.943,25.386,165.212,51.224c121.091,59.857,210.664,151.094,269.533,272.587
			c2.025,4.179,4.168,8.301,6.255,12.449c6.253,16.778,12.951,33.406,18.68,50.362c23.931,70.833,33.106,143.757,28.52,218.238
			c-5.27,85.553-28.646,166.08-69.961,241.293C1857.345,1596.845,1839.281,1624.535,1818.209,1650.207z M1728.012,1115.938
			c0.075-1.664-0.151-3.178-1.944-3.912l-0.062-0.097c0.092-1.665-0.145-3.167-1.936-3.897l-0.069-0.108
			c0.175-1.809-0.351-3.322-1.859-4.423c-0.022-1.299-0.206-2.537-1.286-3.439c-2.025-3.531-2.583-8.04-6.76-10.137
			c0.196-4.617-2.255-7.715-5.844-10.156c-0.184-2.737-1.555-4.719-3.878-6.095c-0.097-2.822-0.934-5.178-3.907-6.183
			c-3.645-9.129-9.414-16.791-16.322-23.669c-0.683-0.661-1.365-1.321-2.048-1.982l0.144-0.023
			c-0.745-1.459-1.239-3.132-2.274-4.344c-14.444-16.919-29.071-33.556-45.637-48.609c-43.721-39.732-93.479-68.725-149.411-87.398
			c-14.807-4.943-15.326-6.398-14.677,10.764c-0.791,34.704-5.062,68.984-12.026,102.986
			c-37.186,181.526-165.66,338.159-336.908,410.778c-34.713,14.72-70.542,25.777-107.273,34.069
			c-0.669-0.729-1.572-1.349-1.974-2.203c-13.225-28.162-22.156-57.706-27.93-88.215c-1.261-6.662,0.216-8.578,6.959-9.258
			c9.28-0.935,18.418-2.589,27.548-4.345c50.808-9.776,98.52-27.757,142.891-54.398c39.354-23.629,74.666-52.099,105.006-86.771
			c22.695-25.938,42.56-53.77,58.884-84.044c30.268-56.134,47.692-116.246,52.105-179.76c2.61-37.557,0.872-75.181-6.415-112.31
			c-9.557-48.691-25.949-94.862-50.649-138.048c-25.877-45.244-58.271-85.117-98.067-118.712
			c-48.434-40.886-103.046-70.593-164.087-88.183c-38.531-11.104-77.837-17.083-117.931-17.704
			c-13.305-0.206-26.565,0.441-39.866,1.468c-14.278,1.102-28.509,2.529-42.532,5.071c-47.795,8.665-93.206,24.342-136.121,47.279
			c-56.059,29.963-103.502,70.043-142.036,120.533c-33.262,43.581-57.338,91.813-72.588,144.554
			c-9.648,33.369-14.878,67.448-16.767,101.947c-1.674,30.58,0.553,61.112,5.361,91.45c6.553,41.337,18.387,81.028,36.027,118.952
			c27.526,59.172,66.408,109.686,116.182,151.894c39.775,33.729,84.151,59.483,133.098,77.369c4.486,1.639,8.816,4.244,14.782,4.347
			c-2.997-20.77-1.656-41.03-2.206-61.249c0.422-41.138,5.201-81.833,15.237-121.663c42.94-170.424,142.425-296.918,297.43-379.474
			c45.159-24.052,93.206-40.746,143.446-50.859c5.285-0.457,8.365,1.736,10.462,6.848c5.432,13.239,10.964,26.43,15.583,39.981
			c11.002,32.273,16.521,65.649,19.858,99.452c0.394,3.983,0.775,8.177-3.966,10.275c-2.647,0.137-5.341,0.007-7.936,0.453
			c-23.859,4.104-47.406,9.571-70.221,17.729c-18.382,6.573-36.74,13.311-53.531,23.552c-3.639,0.794-6.619,2.973-9.798,4.715
			c-44.686,24.485-83.27,56.439-116.343,95.13c-15.541,18.61-29.637,38.26-41.648,59.321
			c-18.128,31.782-32.65,65.079-41.166,100.808c-8.227,24.422-11.588,49.813-12.778,75.293c-1.163,24.88-1.282,49.846,1.279,74.802
			c2.314,22.554,6.14,44.759,11.89,66.6c9.018,34.247,22.202,66.85,39.577,97.806c28.106,50.074,65.07,92.396,110.573,127.224
			c43.602,33.372,92.125,57.085,145.134,71.298c26.014,6.975,52.507,11.878,79.505,12.959c16.225,0.649,32.371,2.235,48.762,0.518
			c11.182-1.172,22.6-1.362,33.735-2.978c31.638-4.59,62.577-12.033,92.57-23.466c48.79-18.599,92.643-45.225,131.363-80.1
			c31.611-28.472,58.393-61.068,79.92-97.859c1.818-3.108,4.333-6.038,3.419-10.097l-0.005,0.02
			c3.609,0.318,4.205-2.778,5.366-4.977c9.314-17.632,17.73-35.675,24.527-54.442c1.243-3.431,2.608-6.855,2.098-10.64l-0.062,0.109
			c2.494-1.43,2.064-3.847,2.065-6.118l-0.071,0.127c2.458-1.446,2.032-3.869,2.075-6.133l0.025,0.021
			c1.114-0.313,1.697-1.104,1.961-2.182c-0.486-3.39,1.737-6.18,2.08-9.386c1.463-1.172,1.926-2.769,1.936-4.557
			c0.02-1.152,0.04-2.304,0.06-3.455c7.747-21.901,9.691-44.834,11.811-67.706c0.637-6.866-0.458-13.893,1.991-20.591
			c0.029-6.24,0.16-12.482,0.057-18.721c-0.087-5.19,0.975-10.564-1.994-15.394c0.002-3.317,0.004-6.635,0.006-9.952
			c-0.722-4.672,1.812-9.816-2.036-14.035c0.01-1.985,0.021-3.971,0.03-5.956c-1.35-9.396-2.039-18.948-4.214-28.148
			c-2.847-12.042-4.624-24.426-9.729-35.872c-0.081-1.65-0.4-3.181-2.04-4.045l0.032,0.051c-0.091-2.214,0.354-4.607-2.03-6.052
			l0.031,0.052c-0.095-2.213,0.371-4.612-2.026-6.054l0.03,0.049c-0.079-2.216,0.372-4.608-2.025-6.048l0.026,0.044
			c-0.058-2.22,0.354-4.598-2.022-6.042l0.023,0.037c-0.034-2.228,0.294-4.576-2.025-6.037l0.025,0.037
			c-0.041-1.657-0.345-3.184-2.013-4.027l0.009,0.011c-0.005-1.666-0.271-3.201-2.002-4.005l-0.002-0.003
			c0-1.663-0.219-3.217-1.994-3.993l-0.008-0.01c0.071-3.88,0.608-7.945-3.975-9.969l-0.04-0.058
			c0.054-1.664-0.206-3.172-1.959-3.938l-0.042-0.065c0.063-1.664-0.179-3.178-1.954-3.928L1728.012,1115.938z"/>
		<path fill-rule="evenodd" clip-rule="evenodd" fill="#848978" d="M1818.209,1650.207c21.072-25.672,39.136-53.362,55.271-82.348
			c2.997,4.071,7.371,2.267,11.092,2.276c48.994,0.134,97.988,0.077,146.982,0.097c12.92,0.005,12.104-1.17,12.104,11.606
			c0.003,39.329-0.104,78.658,0.105,117.985c0.034,6.384-1.439,11.201-6.231,15.855c-19.364,18.806-38.366,37.988-57.323,57.209
			c-3.758,3.81-7.594,5.619-13.097,5.595c-45.994-0.202-91.988-0.09-137.983-0.138c-8.61-0.009-8.722-0.144-8.733-9.023
			c-0.047-36.329,0.033-72.658-0.109-108.987C1820.273,1656.947,1822.031,1652.92,1818.209,1650.207z M1869.163,1599.234
			c-1.425,2.176,0.398,3.803,1.198,5.418c7.521,15.189,15.326,30.226,23.414,45.13c10.777,19.861,20.796,40.134,31.238,60.179
			c3.68,7.065,6.038,7.771,11.075,2.832c14.497-14.216,28.746-28.684,43.128-43.018c3.244-3.233,2.673-5.592-1.195-7.775
			c-5.774-3.262-11.445-6.707-17.143-10.104c-29.052-17.322-58.091-34.665-87.164-51.95
			C1872.404,1599.167,1870.949,1597.91,1869.163,1599.234z M1909.73,1718.519c-8.507-20.799-16.477-40.487-24.612-60.106
			c-5.722-13.799-11.613-27.528-17.577-41.225c-0.839-1.926-1.482-5.005-4.633-4.169c-2.07,0.549-2.463,2.774-2.909,4.826
			c-3.94,18.103-7.94,36.192-12.026,54.262c-3.648,16.141-7.439,32.249-11.144,48.376c-1.907,8.304-0.272,10.133,8.384,9.474
			c0.994-0.075,1.988-0.185,2.975-0.333c16.979-2.544,33.947-5.158,50.94-7.599
			C1902.773,1721.501,1906.091,1720.46,1909.73,1718.519z M1876.761,1594.779c5.788,4.561,13.064,7.108,19.718,10.15
			c25.398,11.614,50.938,22.917,75.989,35.277c2.39,1.18,4.736,2.487,7.218,3.432c9.362,3.56,10.254,2.976,10.298-6.851
			c0.063-14,0.051-28-0.015-42c-0.013-2.584,0.696-5.368-1.318-7.631c-16.482,2.009-33.084,1.167-49.628,2.336
			c-19.15,1.354-38.391,3.884-57.716,2.569C1879.737,1591.956,1877.908,1591.84,1876.761,1594.779z M1998.721,1671.696
			c-6.209,6.411-11.693,12.192-17.307,17.846c-11.509,11.589-23.127,23.07-34.619,34.676c-5.594,5.649-5.592,5.809-0.479,11.059
			c6.278,6.446,12.896,12.573,19.004,19.173c3.795,4.102,6.348,3.013,9.79-0.435c16.715-16.738,33.579-33.329,50.515-49.845
			c1.902-1.855,2.07-3.293,0.422-4.966C2017.215,1690.242,2008.318,1681.344,1998.721,1671.696z"/>
		<path fill-rule="evenodd" clip-rule="evenodd" fill="#E9EAEA" d="M1014.033,1460.062c36.731-8.292,72.561-19.35,107.273-34.069
			c171.248-72.619,299.723-229.252,336.908-410.778c6.965-34.002,11.235-68.282,12.026-102.986c3.036-0.763,5.89,0.021,8.813,0.822
			c59.104,16.185,111.399,44.833,157.118,85.592c15.454,13.777,28.712,29.545,41.711,45.558c1.706,2.855,3.228,5.855,6.097,7.802
			c9.315,14.71,18.63,29.42,27.945,44.131c0.485,1.224,0.87,2.501,1.471,3.665c39.539,76.645,55.123,157.688,44.626,243.486
			c-8.238,67.328-32.089,128.717-70.544,184.511c-2.064,2.997-3.979,6.098-5.962,9.15c-15.675,19.075-31.513,38.004-49.34,55.157
			c-0.361,0.348-0.234,1.203-0.336,1.822l0.126-0.098c-0.65,0.068-1.3,0.137-1.95,0.206c-2.409,0.628-3.783,2.639-5.499,4.171
			c-12.189,10.882-24.712,21.355-38.429,30.278c-55.915,36.368-117.496,56.237-183.732,61.182
			c-38.657,2.886-77.287,0.617-115.176-8.296c-115.67-27.21-202.335-93.301-261.278-196.124
			C1021.3,1477.214,1016.357,1469.221,1014.033,1460.062z"/>
		<path fill-rule="evenodd" clip-rule="evenodd" fill="#EAEAEA" d="M1249.821,727.731c-50.241,10.113-98.288,26.808-143.447,50.859
			c-155.005,82.556-254.489,209.05-297.43,379.474c-10.036,39.83-14.815,80.525-15.237,121.663c-2.674,0.828-5.232,0.301-7.834-0.49
			c-54.988-16.711-104.315-43.812-147.256-81.938c-43.658-38.765-77.974-84.586-101.313-138.405
			c-19.003-43.819-29.902-89.562-32.761-137.136c-1.762-29.317,0.211-58.504,5.148-87.536
			c12.601-74.098,43.368-139.562,93.143-195.814c44.987-50.845,99.211-88.533,163.413-111.266
			c18.792-6.654,37.815-12.713,57.751-15.145c50.69-0.006,101.381-0.011,152.071-0.017c13.979,1.275,27.318,5.426,40.607,9.512
			c82.139,25.257,148.43,73.174,200.46,141.176c14.753,19.281,27.39,39.934,38.018,61.866
			C1253.149,725.736,1251.485,726.734,1249.821,727.731z"/>
		<path fill-rule="evenodd" clip-rule="evenodd" fill="#838877" d="M823.998,511.997c-19.936,2.432-38.959,8.49-57.751,15.145
			c-64.202,22.732-118.426,60.421-163.413,111.266c-49.774,56.253-80.542,121.717-93.143,195.814
			c-4.938,29.032-6.91,58.219-5.148,87.536c2.858,47.574,13.758,93.316,32.761,137.136c23.34,53.819,57.655,99.641,101.313,138.405
			c42.94,38.127,92.268,65.228,147.256,81.938c2.602,0.791,5.16,1.318,7.834,0.49c0.55,20.219-0.791,40.479,2.206,61.249
			c-5.966-0.103-10.296-2.708-14.782-4.347c-48.946-17.886-93.322-43.641-133.098-77.369
			c-49.773-42.208-88.655-92.722-116.182-151.894c-17.641-37.924-29.475-77.615-36.027-118.952
			c-4.809-30.338-7.035-60.87-5.361-91.45c1.889-34.499,7.118-68.578,16.767-101.947c15.25-52.74,39.326-100.973,72.588-144.554
			c38.534-50.49,85.978-90.57,142.036-120.533c42.915-22.938,88.326-38.614,136.121-47.279c14.023-2.542,28.254-3.97,42.532-5.071
			c13.301-1.026,26.562-1.674,39.866-1.468c40.094,0.621,79.399,6.6,117.931,17.704c61.041,17.59,115.653,47.297,164.087,88.183
			c39.797,33.595,72.19,73.468,98.067,118.712c24.7,43.186,41.093,89.356,50.649,138.048c7.287,37.129,9.025,74.753,6.415,112.31
			c-4.413,63.514-21.838,123.626-52.105,179.76c-16.324,30.274-36.188,58.106-58.884,84.044
			c-30.34,34.672-65.652,63.142-105.006,86.771c-44.371,26.642-92.083,44.622-142.891,54.398c-9.13,1.756-18.268,3.41-27.548,4.345
			c-6.743,0.68-8.22,2.596-6.959,9.258c5.773,30.509,14.705,60.053,27.93,88.215c0.401,0.854,1.305,1.474,1.974,2.203
			c2.324,9.159,7.267,17.152,11.869,25.182c58.943,102.823,145.608,168.914,261.278,196.124
			c37.889,8.913,76.519,11.182,115.176,8.296c66.236-4.944,127.817-24.813,183.732-61.182c13.717-8.923,26.239-19.396,38.429-30.278
			c1.716-1.532,3.09-3.543,5.499-4.171c0.808,1.416,1.465,1.425,1.95-0.206c0,0-0.126,0.098-0.126,0.097
			c4.611-0.092,6.873-3.797,9.548-6.563c12.654-13.093,27.273-24.416,36.71-40.43c0.879-0.944,1.758-1.889,2.637-2.834
			c0.454-0.523,0.909-1.047,1.363-1.571c10.235-10.866,18.154-23.44,26.563-35.672c2.146-3.121,3.004-7.548,7.402-8.857
			c0.914,4.059-1.601,6.988-3.419,10.097c-21.527,36.791-48.309,69.388-79.92,97.859c-38.721,34.875-82.573,61.501-131.363,80.1
			c-29.993,11.433-60.933,18.876-92.57,23.466c-11.136,1.615-22.554,1.806-33.735,2.978c-16.391,1.718-32.537,0.132-48.762-0.518
			c-26.998-1.081-53.491-5.984-79.505-12.959c-53.009-14.213-101.532-37.926-145.134-71.298
			c-45.503-34.827-82.467-77.149-110.573-127.224c-17.375-30.956-30.56-63.559-39.577-97.806c-5.75-21.841-9.575-44.046-11.89-66.6
			c-2.562-24.956-2.442-49.922-1.279-74.802c1.19-25.479,4.552-50.871,12.782-75.293c3.88-1.896,3.747-6.002,4.832-9.276
			c6.042-18.242,12.315-36.36,20.451-53.833c15.902-34.15,36.064-65.562,59.697-94.816c3.582-2.1,5.1-6.012,7.787-8.922
			c34.229-37.059,73.012-68.193,117.998-91.335c29.505-15.278,60.415-26.884,92.6-35.041c12.348-3.129,24.844-5.673,37.271-8.483
			c4.743-2.1,4.361-6.293,3.968-10.276c-3.338-33.803-8.856-67.179-19.858-99.452c-4.619-13.552-10.151-26.742-15.583-39.981
			c-2.097-5.111-5.177-7.305-10.461-6.848c1.664-0.997,3.328-1.995,5.333-3.197c-10.628-21.933-23.265-42.585-38.018-61.866
			c-52.03-68.002-118.321-115.919-200.46-141.176c-13.289-4.086-26.629-8.236-40.607-9.512c-0.865-0.475-1.68-1.216-2.601-1.387
			c-40.547-7.552-81.337-8.733-122.237-3.805C842.104,507.889,832.685,508.256,823.998,511.997z M1295.271,906.569
			c-4.234,0.731-8.158,1.197-11.978,2.102c-71.688,16.984-134.033,51.18-186.798,102.498c-39.92,38.825-70.273,84.268-91.035,135.99
			c-17.146,42.715-26.621,87.073-27.73,133.14c-0.188,7.848,0.001,7.951,7.611,6.324c38.033-8.129,73.963-21.851,107.803-40.985
			c70.694-39.976,124.485-96.206,161.188-168.625c20.802-41.044,33.715-84.622,39.083-130.278
			C1294.952,933.668,1297.271,920.437,1295.271,906.569z"/>
		<path fill-rule="evenodd" clip-rule="evenodd" fill="#3F3E3E" d="M1716.064,1497.995c-4.398,1.31-5.256,5.736-7.402,8.857
			c-8.409,12.231-16.328,24.806-26.564,35.668c-0.193-1.861-0.388-3.719-0.581-5.576c1.983-3.053,3.897-6.153,5.962-9.15
			c38.455-55.794,62.306-117.183,70.544-184.511c10.497-85.798-5.087-166.842-44.626-243.486c-0.601-1.164-0.985-2.441-1.471-3.665
			c0.195-1.61,0.33-3.252,2.045-4.105c2.024,2.909,2.469,7.174,6.885,8.034c1.08,0.902,1.264,2.141,1.286,3.444
			c-0.179,1.812-0.11,3.516,1.859,4.418l0.069,0.108c-0.083,1.661,0.205,3.138,1.936,3.897c0,0,0.062,0.097,0.061,0.096
			c-0.077,1.665,0.222,3.143,1.945,3.913l0.05,0.078c-0.063,1.664,0.227,3.153,1.954,3.928l0.042,0.065
			c-0.056,1.665,0.227,3.162,1.959,3.938l0.04,0.058c-0.246,3.949,0.783,7.39,3.975,9.969l0.008,0.01
			c-0.02,1.673,0.307,3.173,1.994,3.993l0.002,0.003c-0.016,1.676,0.284,3.195,2.002,4.005l-0.009-0.011
			c0.002,1.677,0.286,3.213,2.013,4.027l-0.025-0.037c0.038,2.227-0.429,4.621,2.025,6.037l-0.023-0.037
			c0.043,2.226-0.397,4.613,2.022,6.042l-0.026-0.044c0.058,2.224-0.378,4.611,2.025,6.048l-0.03-0.049
			c0.075,2.219-0.358,4.608,2.026,6.054l-0.031-0.052c0.087,2.216-0.355,4.608,2.03,6.052c0,0-0.032-0.051-0.032-0.05
			c0.055,1.663,0.354,3.203,2.04,4.044c5.104,11.446,6.882,23.83,9.729,35.872c2.175,9.2,2.864,18.753,4.214,28.148
			c-2.581,1.972-2.483,3.958-0.03,5.956c3.849,4.219,1.314,9.363,2.036,14.035c-2.918,3.315-2.868,6.633-0.006,9.952
			c2.969,4.829,1.907,10.203,1.994,15.394c0.104,6.238-0.027,12.48-0.056,18.72c-3.635,0.331-3.882,2.909-3.892,5.742
			c-0.019,5.643,0.547,11.386-0.296,16.909c-3.13,20.507-5.124,41.229-10.809,61.283c-0.522,1.841-0.282,3.202,1.193,4.363
			c-0.02,1.151-0.04,2.303-0.06,3.457c-2.977,0.529-5.043,1.442-1.936,4.555c-0.343,3.206-2.566,5.996-2.08,9.389
			c-0.654,0.729-1.308,1.453-1.961,2.179c0,0-0.025-0.021-0.025-0.02c-2.537,1.42-1.98,3.886-2.075,6.132l0.071-0.127
			c-2.51,1.425-2.035,3.856-2.065,6.118l0.062-0.109c-0.812,1.002-1.947,1.878-2.391,3.022
			c-8.045,20.774-16.626,41.291-28.257,60.388c-1.239,2.034-1.995,4.211-1.344,6.648L1716.064,1497.995z"/>
		<path fill-rule="evenodd" clip-rule="evenodd" fill="#808979" d="M1677.884,1044.199c-12.999-16.013-26.257-31.78-41.711-45.558
			c-45.719-40.759-98.015-69.407-157.118-85.592c-2.924-0.801-5.777-1.585-8.813-0.822c-0.649-17.162-0.13-15.707,14.677-10.764
			c55.932,18.674,105.69,47.666,149.411,87.398c16.565,15.054,31.192,31.69,45.637,48.609c1.035,1.212,1.529,2.885,2.272,4.345
			C1680.467,1042.028,1678.713,1042.27,1677.884,1044.199z"/>
		<path fill-rule="evenodd" clip-rule="evenodd" fill="#A4ABA6" d="M1036.1,1028.07c-23.633,29.255-43.795,60.666-59.697,94.816
			c-8.136,17.473-14.409,35.591-20.451,53.833c-1.085,3.274-0.952,7.38-4.832,9.276c8.512-35.729,23.034-69.025,41.162-100.808
			c12.012-21.062,26.107-40.711,41.648-59.321C1034.653,1026.602,1035.377,1027.336,1036.1,1028.07z"/>
		<path fill-rule="evenodd" clip-rule="evenodd" fill="#ACB6B2" d="M1036.1,1028.07c-0.723-0.734-1.446-1.469-2.17-2.203
			c33.073-38.69,71.657-70.645,116.343-95.13c3.179-1.742,6.159-3.921,9.798-4.715c0.604,0.597,1.209,1.194,1.814,1.791
			c-44.986,23.142-83.77,54.276-117.998,91.335C1041.199,1022.059,1039.682,1025.971,1036.1,1028.07z"/>
		<path fill-rule="evenodd" clip-rule="evenodd" fill="#A4ABA6" d="M1161.885,927.813c-0.605-0.597-1.21-1.194-1.814-1.791
			c16.791-10.241,35.149-16.979,53.531-23.552c22.814-8.158,46.361-13.626,70.221-17.729c2.595-0.446,5.288-0.316,7.935-0.452
			c-12.429,2.811-24.925,5.354-37.272,8.483C1222.3,900.93,1191.39,912.535,1161.885,927.813z"/>
		<path fill-rule="evenodd" clip-rule="evenodd" fill="#74776A" d="M1716.06,1498.015c-0.651-2.438,0.104-4.614,1.344-6.648
			c11.631-19.097,20.212-39.613,28.257-60.388c0.443-1.145,1.578-2.021,2.391-3.022c0.511,3.784-0.854,7.209-2.098,10.64
			c-6.797,18.768-15.213,36.811-24.527,54.442C1720.265,1495.236,1719.669,1498.333,1716.06,1498.015z"/>
		<path fill-rule="evenodd" clip-rule="evenodd" fill="#4F514B" d="M1758.12,1396.383c-1.476-1.161-1.716-2.522-1.193-4.363
			c5.685-20.054,7.679-40.776,10.809-61.283c0.843-5.523,0.277-11.267,0.296-16.909c0.01-2.833,0.257-5.411,3.892-5.742
			c-2.45,6.699-1.355,13.726-1.992,20.592C1767.812,1351.549,1765.867,1374.481,1758.12,1396.383z"/>
		<path fill-rule="evenodd" clip-rule="evenodd" fill="#74776A" d="M1677.884,1044.199c0.829-1.93,2.583-2.171,4.354-2.383
			c0.002-0.001-0.142,0.022-0.143,0.023c0.486,0.865-1.176,3.951,2.049,1.981c6.908,6.878,12.678,14.54,16.322,23.669
			c0,0-0.537,0.564-0.536,0.563c-5.626-3.69-8.206-9.902-12.31-14.854c-0.938-1.131-1.657-3.147-3.641-1.198
			C1681.111,1050.055,1679.59,1047.055,1677.884,1044.199z"/>
		<path fill-rule="evenodd" clip-rule="evenodd" fill="#74776A" d="M1708.259,1079.761c3.582,2.448,6.033,5.546,5.836,10.164
			c-0.002,0.001-0.062,0.053-0.063,0.054c-3.86-2.21-5.302-5.881-6.026-9.983L1708.259,1079.761z"/>
		<path fill-rule="evenodd" clip-rule="evenodd" fill="#4F514B" d="M1736.031,1133.973c-3.191-2.579-4.221-6.02-3.975-9.969
			C1736.64,1126.027,1736.103,1130.093,1736.031,1133.973z"/>
		<path fill-rule="evenodd" clip-rule="evenodd" fill="#74776A" d="M1720.855,1100.061c-4.416-0.86-4.86-5.125-6.885-8.035
			c0.021-0.683,0.041-1.365,0.062-2.048c0,0,0.061-0.052,0.062-0.053C1718.272,1092.021,1718.83,1096.529,1720.855,1100.061z"/>
		<path fill-rule="evenodd" clip-rule="evenodd" fill="#74776A" d="M1700.467,1067.49c2.974,1.005,3.811,3.36,3.907,6.183
			l-0.398,0.348c-2.604-1.138-3.87-3.183-4.046-5.966L1700.467,1067.49z"/>
		<path fill-rule="evenodd" clip-rule="evenodd" fill="#4F514B" d="M1769.984,1273.972c-2.862-3.319-2.912-6.637,0.006-9.952
			C1769.988,1267.337,1769.986,1270.654,1769.984,1273.972z"/>
		<path fill-rule="evenodd" clip-rule="evenodd" fill="#74776A" d="M1704.374,1073.673c2.323,1.376,3.694,3.357,3.882,6.091
			c0.003-0.003-0.251,0.231-0.251,0.231c-2.646-1.113-3.902-3.163-4.029-5.975L1704.374,1073.673z"/>
		<path fill-rule="evenodd" clip-rule="evenodd" fill="#4F514B" d="M1756.125,1404.395c-3.107-3.112-1.041-4.025,1.936-4.555
			C1758.051,1401.626,1757.588,1403.223,1756.125,1404.395z"/>
		<path fill-rule="evenodd" clip-rule="evenodd" fill="#74776A" d="M1749.983,1422.074c0.095-2.246-0.462-4.712,2.075-6.132
			C1752.016,1418.205,1752.441,1420.628,1749.983,1422.074z"/>
		<path fill-rule="evenodd" clip-rule="evenodd" fill="#74776A" d="M1747.989,1428.065c0.03-2.262-0.444-4.693,2.065-6.118
			C1750.054,1424.219,1750.483,1426.636,1747.989,1428.065z"/>
		<path fill-rule="evenodd" clip-rule="evenodd" fill="#4F514B" d="M1767.954,1249.984c-2.453-1.998-2.551-3.984,0.03-5.956
			C1767.975,1246.014,1767.964,1247.999,1767.954,1249.984z"/>
		<path fill-rule="evenodd" clip-rule="evenodd" fill="#4F514B" d="M1752.034,1176.014c-2.386-1.443-1.943-3.836-2.03-6.052
			C1752.388,1171.406,1751.943,1173.8,1752.034,1176.014z"/>
		<path fill-rule="evenodd" clip-rule="evenodd" fill="#4F514B" d="M1750.035,1170.014c-2.385-1.445-1.951-3.835-2.026-6.054
			C1750.406,1165.401,1749.94,1167.801,1750.035,1170.014z"/>
		<path fill-rule="evenodd" clip-rule="evenodd" fill="#4F514B" d="M1748.039,1164.009c-2.403-1.437-1.968-3.824-2.025-6.048
			C1748.411,1159.4,1747.96,1161.793,1748.039,1164.009z"/>
		<path fill-rule="evenodd" clip-rule="evenodd" fill="#4F514B" d="M1746.04,1158.005c-2.42-1.429-1.979-3.816-2.022-6.042
			C1746.394,1153.407,1745.982,1155.785,1746.04,1158.005z"/>
		<path fill-rule="evenodd" clip-rule="evenodd" fill="#4F514B" d="M1744.041,1152c-2.454-1.416-1.987-3.811-2.025-6.037
			C1744.335,1147.424,1744.007,1149.772,1744.041,1152z"/>
		<path fill-rule="evenodd" clip-rule="evenodd" fill="#808979" d="M1684.145,1043.821c-3.225,1.97-1.562-1.116-2.049-1.981
			C1682.779,1042.5,1683.462,1043.16,1684.145,1043.821z"/>
		<path fill-rule="evenodd" clip-rule="evenodd" fill="#4F514B" d="M1724.001,1107.923c-1.97-0.902-2.038-2.605-1.859-4.418
			C1723.65,1104.601,1724.176,1106.114,1724.001,1107.923z"/>
		<path fill-rule="evenodd" clip-rule="evenodd" fill="#4F514B" d="M1726.006,1111.929c-1.73-0.76-2.019-2.236-1.936-3.897
			C1725.861,1108.762,1726.098,1110.264,1726.006,1111.929z"/>
		<path fill-rule="evenodd" clip-rule="evenodd" fill="#4F514B" d="M1754.042,1180.008c-1.686-0.841-1.985-2.381-2.04-4.044
			C1753.642,1176.827,1753.961,1178.357,1754.042,1180.008z"/>
		<path fill-rule="evenodd" clip-rule="evenodd" fill="#4F514B" d="M1742.041,1146c-1.727-0.814-2.011-2.351-2.013-4.027
			C1741.696,1142.816,1742,1144.343,1742.041,1146z"/>
		<path fill-rule="evenodd" clip-rule="evenodd" fill="#4F514B" d="M1740.037,1141.983c-1.718-0.81-2.018-2.329-2.002-4.005
			C1739.766,1138.782,1740.032,1140.317,1740.037,1141.983z"/>
		<path fill-rule="evenodd" clip-rule="evenodd" fill="#4F514B" d="M1738.033,1137.976c-1.688-0.82-2.014-2.32-1.994-3.993
			C1737.814,1134.759,1738.033,1136.312,1738.033,1137.976z"/>
		<path fill-rule="evenodd" clip-rule="evenodd" fill="#4F514B" d="M1732.017,1123.946c-1.732-0.775-2.015-2.272-1.959-3.938
			C1731.811,1120.774,1732.07,1122.282,1732.017,1123.946z"/>
		<path fill-rule="evenodd" clip-rule="evenodd" fill="#4F514B" d="M1730.016,1119.943c-1.728-0.774-2.018-2.264-1.954-3.928
			C1729.837,1116.766,1730.079,1118.279,1730.016,1119.943z"/>
		<path fill-rule="evenodd" clip-rule="evenodd" fill="#4F514B" d="M1728.012,1115.938c-1.724-0.771-2.022-2.248-1.945-3.913
			C1727.86,1112.76,1728.087,1114.273,1728.012,1115.938z"/>
		<path fill-rule="evenodd" clip-rule="evenodd" fill="#4F514B" d="M1752.084,1415.962c0.653-0.726,1.307-1.45,1.961-2.179
			C1753.781,1414.857,1753.198,1415.648,1752.084,1415.962z"/>
		<path fill-rule="evenodd" clip-rule="evenodd" fill="#7B7F70" d="M1869.163,1599.234c1.786-1.324,3.241-0.067,4.552,0.712
			c29.073,17.285,58.112,34.628,87.164,51.95c5.697,3.396,11.368,6.842,17.143,10.104c3.868,2.184,4.439,4.542,1.195,7.775
			c-14.382,14.334-28.631,28.802-43.128,43.018c-5.037,4.938-7.396,4.233-11.075-2.832c-10.442-20.045-20.461-40.317-31.238-60.179
			c-8.088-14.904-15.893-29.94-23.414-45.13C1869.562,1603.037,1867.738,1601.41,1869.163,1599.234z"/>
		<path fill-rule="evenodd" clip-rule="evenodd" fill="#7B7F70" d="M1909.73,1718.519c-3.64,1.941-6.957,2.982-10.603,3.506
			c-16.993,2.44-33.962,5.055-50.94,7.599c-0.986,0.148-1.98,0.258-2.975,0.333c-8.656,0.659-10.291-1.17-8.384-9.474
			c3.704-16.127,7.495-32.235,11.144-48.376c4.086-18.069,8.086-36.159,12.026-54.262c0.446-2.052,0.839-4.277,2.909-4.826
			c3.15-0.836,3.794,2.243,4.633,4.169c5.964,13.696,11.855,27.426,17.577,41.225
			C1893.254,1678.031,1901.224,1697.72,1909.73,1718.519z"/>
		<path fill-rule="evenodd" clip-rule="evenodd" fill="#74776A" d="M1876.761,1594.779c1.147-2.939,2.977-2.823,4.546-2.717
			c19.325,1.314,38.565-1.216,57.716-2.569c16.544-1.169,33.146-0.327,49.628-2.336c2.015,2.263,1.306,5.047,1.318,7.631
			c0.065,14,0.078,28,0.015,42c-0.044,9.826-0.936,10.41-10.298,6.851c-2.481-0.944-4.828-2.252-7.218-3.432
			c-25.052-12.36-50.591-23.663-75.989-35.277C1889.825,1601.888,1882.549,1599.34,1876.761,1594.779z"/>
		<path fill-rule="evenodd" clip-rule="evenodd" fill="#74776A" d="M1998.721,1671.696c9.598,9.647,18.494,18.546,27.326,27.508
			c1.648,1.673,1.48,3.11-0.422,4.966c-16.936,16.516-33.8,33.106-50.515,49.845c-3.442,3.447-5.995,4.536-9.79,0.435
			c-6.107-6.6-12.726-12.727-19.004-19.173c-5.113-5.25-5.115-5.409,0.479-11.059c11.492-11.605,23.11-23.087,34.619-34.676
			C1987.027,1683.889,1992.512,1678.107,1998.721,1671.696z"/>
		<path fill-rule="evenodd" clip-rule="evenodd" fill="#4F514B" d="M1681.517,1536.944c0.193,1.857,0.388,3.715,0.582,5.576
			c-0.454,0.528-0.909,1.052-1.368,1.576c-1.563,0.312-2.399,1.294-2.632,2.833c-9.437,16.014-24.056,27.337-36.71,40.43
			c-2.675,2.767-4.937,6.472-9.548,6.563c0.102-0.618-0.025-1.474,0.336-1.821
			C1650.004,1574.948,1665.842,1556.02,1681.517,1536.944z"/>
		<path fill-rule="evenodd" clip-rule="evenodd" fill="#4F514B" d="M1703.976,1074.021c0.127,2.812,1.384,4.861,4.029,5.975
			c0.725,4.103,2.166,7.773,6.026,9.983c-0.02,0.682-0.04,1.364-0.061,2.047c-1.715,0.854-1.85,2.496-2.045,4.106
			c-9.315-14.711-18.63-29.421-27.945-44.131c1.983-1.949,2.703,0.067,3.641,1.198c4.104,4.952,6.684,11.164,12.31,14.854
			C1700.105,1070.838,1701.372,1072.883,1703.976,1074.021z"/>
		<path fill-rule="evenodd" clip-rule="evenodd" fill="#4F514B" d="M1631.967,1593.826c-0.485,1.631-1.143,1.622-1.95,0.206
			C1630.667,1593.963,1631.316,1593.895,1631.967,1593.826z"/>
		<path fill-rule="evenodd" clip-rule="evenodd" fill="#F2FAF9" d="M823.998,511.997c8.687-3.741,18.106-4.108,27.233-5.208
			c40.9-4.929,81.69-3.747,122.237,3.805c0.921,0.171,1.735,0.912,2.601,1.387C925.379,511.986,874.688,511.991,823.998,511.997z"/>
		<path fill-rule="evenodd" clip-rule="evenodd" fill="#E9E9E9" d="M1295.271,906.569c1.999,13.867-0.319,27.099-1.855,40.165
			c-5.368,45.656-18.281,89.234-39.083,130.278c-36.703,72.419-90.494,128.649-161.188,168.625
			c-33.84,19.135-69.77,32.856-107.803,40.985c-7.61,1.627-7.8,1.523-7.611-6.324c1.109-46.066,10.585-90.425,27.73-133.14
			c20.762-51.723,51.115-97.165,91.035-135.99c52.765-51.318,115.11-85.514,186.798-102.498
			C1287.113,907.767,1291.037,907.301,1295.271,906.569z"/>
		<path fill-rule="evenodd" clip-rule="evenodd" fill="#3F3E3E" d="M1678.099,1546.93c0.232-1.539,1.068-2.521,2.632-2.833
			C1679.856,1545.041,1678.978,1545.985,1678.099,1546.93z"/>
	</g>
</g>
</svg>
