<svg xmlns="http://www.w3.org/2000/svg" width="5000" height="5000" viewBox="0 0 5000 5000"><g><path fill="#fff" d="M5047 3850.66H2.02V2439.52c51.127.633 102.26 1 153.382 1.98 44.053.848 88.094 2.343 132.137 3.658 27.9.833 55.804 1.666 83.69 2.852 31.92 1.356 63.83 2.98 95.73 4.717 29.207 1.588 58.398 3.426 87.59 5.253 34.23 2.142 68.48 4.048 102.674 6.68 44.25 3.4 88.425 7.75 132.678 11.082 52.314 3.94 104.432 9.834 156.617 15.038 50.178 5.003 100.232 11.14 150.302 17.16 59.084 7.104 118.056 14.993 176.994 23.184 60.27 8.376 120.346 18.003 180.466 27.365 76.404 11.897 152.526 25.43 228.512 39.614 84.24 15.725 168.373 32.084 251.894 51.44 112.612 26.097 226.008 48.78 337.72 78.808 77.56 20.848 155.977 38.68 233.048 61.158 157.73 46.007 315.927 90.578 471.295 144.372 70.17 24.294 141.355 45.613 211.035 71.356 60.162 22.227 120.442 44.126 180.298 67.195 52.052 20.062 104.83 38.21 156.47 59.406 116.28 47.728 234.01 91.925 348.894 143.075 93.033 41.422 187.29 80.07 279.486 123.39 90.35 42.452 181.475 83.33 270.926 127.596 159.956 79.157 319.956 158.294 476.622 243.92 48.664 26.596 97.736 52.44 146.623 78.63-.037.737-.07 1.474-.105 2.21z"/><path fill-rule="evenodd" clip-rule="evenodd" fill="#333" d="M5047.104 3848.45c-48.887-26.19-97.96-52.034-146.623-78.63-156.665-85.626-316.665-164.763-476.622-243.92-89.45-44.265-180.576-85.143-270.926-127.594-92.195-43.32-186.453-81.97-279.486-123.39-114.885-51.15-232.612-95.348-348.895-143.077-51.637-21.196-104.416-39.346-156.468-59.407-59.855-23.07-120.136-44.97-180.298-67.195-69.68-25.743-140.866-47.062-211.034-71.356-155.368-53.794-313.564-98.365-471.295-144.372-77.07-22.48-155.487-40.31-233.05-61.158-111.71-30.027-225.106-52.71-337.718-78.81-83.52-19.354-167.655-35.714-251.894-51.438-75.986-14.184-152.107-27.717-228.512-39.615-60.12-9.363-120.196-18.99-180.465-27.366-58.938-8.19-117.91-16.08-176.994-23.184-50.07-6.02-100.123-12.156-150.302-17.16-52.185-5.204-104.302-11.098-156.617-15.038-44.252-3.332-88.428-7.682-132.677-11.083-34.194-2.63-68.443-4.538-102.674-6.68-29.192-1.827-58.384-3.665-87.59-5.253-31.9-1.736-63.81-3.36-95.73-4.717-27.888-1.186-55.79-2.02-83.692-2.852-44.043-1.315-88.084-2.81-132.137-3.657-51.12-.982-102.254-1.348-153.382-1.98v-377.516c19.16.652 38.373 1.242 57.47-.12 47.353-3.378 94.865.59 142.18-3.56 129.823 1.206 259.67-2.466 389.48 1.98 24.845.853 49.678-.118 74.58 1.626 28.107 1.967 56.406.206 84.633 2.223 23.766 1.698 47.644.076 71.538 1.8 27.76 2.002 55.707.748 83.6 2.027 21.745.998 43.494 3.772 65.345 2.477.668-.04 1.372-.06 2.01.102 17.118 4.305 34.738 2.06 52.066 3.27 21.323 1.49 42.797 4.016 64.313 2.68.668-.042 1.352-.012 2.015.077 21.617 2.88 43.412 2.932 65.14 3.81 17.412.706 34.746 3.496 52.24 2.188.664-.05 1.375-.042 2.006.14 14.05 4.03 28.62 1.502 42.954 3.3 12.78 1.603 25.872 3.872 39 2.623.984-.093 2.04.027 2.997.284 12.062 3.24 24.57 2.178 36.82 3.275 12.595 1.13 25.293 2.402 38 2.99 8.926.41 18.106.316 26.95 1.745 20.473 3.305 41.193 3.53 61.763 5.38 12.914 1.158 25.904 3.73 39.034 2.468.985-.094 2.02.06 3.002.253 13.48 2.65 27.213 2.887 40.83 3.495 10.05.45 20.07 1.64 29.917 2.85 15.157 1.86 30.392 3.542 45.555 5.106 15.552 1.604 31.097 3.693 46.725 4.895 6.88.528 14.067.39 20.838 2.033 9.136 2.217 18.493 2.326 27.706 3.253 8.934.898 18.037 1.637 26.846 2.836 15.15 2.062 30.397 3.48 45.556 5.144 15.532 1.704 31.088 3.73 46.73 4.843 6.888.49 14.087.476 20.832 2.08 9.495 2.254 19.2 1.64 28.734 3.38 12.078 2.205 24.397 3.062 36.58 4.726 12.484 1.705 24.92 3.755 37.397 5.52 11.51 1.628 23.06 3.01 34.572 4.627 12.48 1.75 24.928 3.713 37.407 5.468 11.51 1.62 23.058 2.985 34.562 4.645 11.82 1.705 23.557 4.1 35.42 5.333 11.91 1.237 23.684 3.372 35.595 4.644 16.468 1.757 32.7 5.838 49.18 7.354 19.576 1.8 38.74 5.88 58.103 8.782 21.287 3.193 42.348 7.87 63.563 11.578 21.234 3.71 42.573 6.82 63.804 10.555 24.804 4.366 49.515 9.256 74.31 13.676 27.09 4.83 54.272 9.137 81.332 14.122 32.28 5.946 64.533 12.084 96.69 18.663 37.332 7.638 74.55 15.82 111.81 23.806 38.244 8.197 76.627 15.82 114.683 24.82 53.246 12.59 106.45 25.373 159.616 38.295 52.544 12.773 104.792 26.817 156.958 41.084 60.86 16.645 121.63 33.66 182.19 51.367 100.56 29.403 200.48 60.91 299.805 94.24 105.903 35.538 211.055 73.228 315.373 113.177 114.248 43.75 227.475 90.032 339.637 138.9 97.936 42.67 195.145 86.975 291.073 133.95 92.108 45.105 184.306 90.086 273.794 140.396 32.433 18.233 65.567 35.282 98.117 53.355 28.748 15.962 57.37 32.15 86.046 48.238-.007 161.047-.015 322.095-.02 483.142-.002 62.535.033 125.072-.082 187.608-.008 3.81 1.626 8.09-1.836 11.423zM2.02 2033.74v-391.646c5.197 1.53 10.57 1.81 15.922 2.282 19.746 1.75 39.488 3.52 59.23 5.292 25.44 2.28 50.874 4.588 76.313 6.847 25.772 2.287 51.546 4.564 77.325 6.776 21.43 1.838 42.866 3.636 64.307 5.335 20.437 1.62 40.888 3.052 61.327 4.638 23.12 1.795 46.234 3.652 69.35 5.515 20.1 1.62 40.194 3.31 60.294 4.923 21.777 1.748 43.555 3.497 65.34 5.136 20.445 1.54 40.906 2.87 61.35 4.414 24.12 1.823 48.228 3.828 72.348 5.658 23.458 1.78 46.925 3.436 70.388 5.155 22.46 1.648 44.92 3.312 67.382 4.964 23.128 1.703 46.256 3.396 69.383 5.103 22.46 1.658 44.918 3.335 67.38 4.99 23.126 1.703 46.255 3.38 69.382 5.088 22.46 1.657 44.918 3.348 67.38 5.003 23.125 1.705 46.255 3.38 69.382 5.078 22.794 1.673 45.59 3.317 68.38 5.05 20.776 1.577 41.544 3.24 62.314 4.892 21.443 1.707 42.88 3.468 64.324 5.167 21.774 1.724 43.55 3.412 65.327 5.096 21.78 1.686 43.564 3.308 65.34 5.033 20.77 1.645 41.534 3.333 62.293 5.097 18.748 1.593 37.486 3.317 56.228 4.976 19.074 1.687 38.15 3.356 57.222 5.052 18.743 1.666 37.482 3.365 56.226 5.032 19.406 1.725 38.814 3.43 58.222 5.143 18.743 1.654 37.494 3.23 56.228 4.982 24.41 2.282 48.812 4.637 73.205 7.088 22.388 2.25 44.758 4.677 67.138 7.01 23.043 2.402 46.086 4.796 69.132 7.17 22.716 2.34 45.436 4.633 68.15 6.983 22.378 2.316 44.763 4.57 67.123 7.05 20.013 2.22 40.003 4.655 59.992 7.093 18.653 2.276 37.29 4.692 55.935 7.025 18.982 2.376 37.967 4.728 56.952 7.086 18.648 2.315 37.298 4.623 55.948 6.938 19.316 2.398 38.63 4.81 57.95 7.197 17.984 2.22 36.02 4.093 53.952 6.696 28.866 4.19 57.65 8.962 86.497 13.292 33.49 5.025 67.028 9.722 100.513 14.776 37.797 5.706 75.506 12.006 113.346 17.39 37.84 5.383 75.256 13.063 112.85 19.783 34.628 6.19 69.218 12.582 103.832 18.846 38.567 6.98 77.218 13.52 115.69 20.984 37.468 7.27 74.69 15.785 112.135 23.183 74.568 14.73 148.546 32.136 222.45 49.746 72.912 17.374 145.593 35.783 217.95 55.453 95.27 25.898 190.072 53.365 284.303 82.805 153.45 47.942 305.045 101.26 454.516 160.392 137.453 54.377 272.986 113.282 406.23 177.435 65.61 31.59 130.51 64.53 195.09 98.14.08 4.37.226 8.74.226 13.112.025 156.41.037 312.82.05 469.23-2.228.39-3.815-1.026-5.548-1.996-25.707-14.39-51.465-28.7-77.176-43.073-85.514-47.802-172.843-92.184-260.574-135.772-140.4-69.755-283.027-134.68-427.55-195.355-154.313-64.788-310.698-124.283-468.956-178.762-118.975-40.955-238.84-79.165-359.616-114.46-88.686-25.915-177.758-50.456-267.302-73.252-42.144-10.73-84.308-21.394-126.587-31.568-44.202-10.638-88.51-20.86-132.858-30.874-36.243-8.183-72.578-15.97-108.945-23.586-22.092-4.628-44.325-8.575-66.484-12.874-21.824-4.234-43.643-8.49-65.45-12.8-22.44-4.437-44.86-8.973-67.297-13.425-18.86-3.74-37.707-7.558-56.605-11.093-16.954-3.17-33.766-7.062-50.925-9.224-13.824-1.74-27.532-4.414-41.29-6.685-14.736-2.433-29.47-4.884-44.206-7.317-14.74-2.434-29.48-4.87-44.222-7.277-14.088-2.3-28.173-4.625-42.276-6.834-14.442-2.264-28.917-4.33-43.356-6.613-15.4-2.436-30.773-5.05-46.167-7.543-13.772-2.23-27.54-4.497-41.337-6.566-13.134-1.97-26.29-3.814-39.463-5.513-12.54-1.617-25.13-2.826-37.666-4.49-12.834-1.702-25.603-3.92-38.444-5.576-12.873-1.66-25.83-2.67-38.694-4.39-17.777-2.377-35.468-5.392-53.25-7.695-18.147-2.35-36.426-3.716-54.525-6.344-20.733-3.01-41.51-5.563-62.276-8.24-7.33-.945-14.737-.61-21.905-2.002-16.068-3.118-32.413-3.785-48.606-5.363-16.573-1.615-33.126-3.783-49.794-4.813-7.234-.447-14.86-.254-21.85-2.085-9.188-2.406-18.582-1.982-27.78-3.042-9.86-1.135-19.926-2.195-29.876-3.03-7.596-.637-15.452-.293-22.89-2.01-9.833-2.27-19.874-2.158-29.77-3.198-9.582-1.007-19.4-1.622-28.872-2.884-16.184-2.158-32.47-3.5-48.66-5.113-18.237-1.82-36.606-3.016-54.925-4.19-17.67-1.135-35.282-2.87-52.926-4.03-18.336-1.206-36.63-2.893-54.95-4.042-17.677-1.11-35.285-2.89-52.93-4.037-18.335-1.193-36.633-3.15-54.942-3.927-14.385-.612-28.636-3.718-43.106-2.426-.994.088-2.043.03-3.014-.19-17.148-3.923-34.73-2.046-52.06-3.236-20.666-1.42-41.45-3.954-62.295-2.626-.666.042-1.368.042-2.008-.12-16.78-4.22-34.066-.523-51.066-3.56-11.74-2.096-24.025-1.21-36.06-1.898-26.737-1.528-53.525-2.23-80.25-4.377-12.334-.993-24.725-.77-37.128-1.703-22.052-1.66-44.27-.29-66.432-2.23-19.366-1.692-38.86-.056-58.387-1.81-22.68-2.04-45.607-.123-68.452-2.194-20.024-1.814-40.222-.592-60.397-1.762-26.77-1.55-53.69-1.494-80.55-2.364-38.644-1.253-77.307-.205-116.002-1.73-51.723-2.04-103.555-1.264-155.342-2.043-97.876-1.472-195.792-.42-293.69-.437-3.7-.004-7.393-.198-11.087-.302z"/><path fill-rule="evenodd" clip-rule="evenodd" fill="#fff" d="M5048.785 2619.37c-64.58-33.607-129.48-66.55-195.092-98.14-133.242-64.15-268.775-123.056-406.23-177.434-149.47-59.132-301.065-112.45-454.515-160.392-94.23-29.44-189.033-56.907-284.304-82.806-72.356-19.67-145.037-38.08-217.95-55.453-73.903-17.61-147.88-35.015-222.45-49.746-37.442-7.4-74.666-15.915-112.133-23.184-38.473-7.464-77.123-14.004-115.69-20.984-34.614-6.264-69.204-12.657-103.83-18.846-37.596-6.72-75.01-14.4-112.853-19.783-37.84-5.383-75.55-11.684-113.346-17.39-33.483-5.055-67.02-9.75-100.51-14.776-28.85-4.33-57.632-9.1-86.498-13.292-17.93-2.604-35.968-4.475-53.953-6.697-19.32-2.386-38.634-4.798-57.95-7.197-18.65-2.313-37.3-4.62-55.948-6.937-18.985-2.358-37.97-4.71-56.952-7.086-18.646-2.333-37.282-4.75-55.935-7.025-19.99-2.438-39.98-4.873-59.992-7.093-22.36-2.48-44.745-4.735-67.122-7.05-22.715-2.35-45.435-4.643-68.15-6.982-23.046-2.375-46.09-4.77-69.13-7.17-22.38-2.333-44.75-4.76-67.14-7.01-24.392-2.453-48.795-4.808-73.204-7.09-18.734-1.753-37.485-3.328-56.228-4.982-19.407-1.713-38.815-3.417-58.222-5.143-18.743-1.667-37.483-3.367-56.226-5.032-19.072-1.695-38.147-3.364-57.22-5.052-18.743-1.66-37.48-3.383-56.23-4.976-20.758-1.764-41.522-3.452-62.29-5.097-21.778-1.725-43.563-3.348-65.343-5.033-21.777-1.685-43.553-3.372-65.327-5.096-21.443-1.7-42.88-3.46-64.324-5.167-20.77-1.654-41.538-3.316-62.313-4.894-22.79-1.732-45.586-3.376-68.38-5.05-23.128-1.697-46.258-3.372-69.384-5.076-22.462-1.655-44.92-3.346-67.38-5.003-23.127-1.707-46.256-3.385-69.383-5.09-22.46-1.653-44.92-3.33-67.38-4.988-23.127-1.708-46.255-3.4-69.383-5.104-22.46-1.653-44.92-3.316-67.382-4.964-23.462-1.72-46.93-3.375-70.388-5.155-24.12-1.83-48.227-3.835-72.347-5.658-20.444-1.545-40.905-2.876-61.35-4.415-21.786-1.64-43.564-3.388-65.34-5.135-20.1-1.612-40.196-3.303-60.296-4.923-23.114-1.863-46.228-3.72-69.348-5.515-20.44-1.586-40.89-3.017-61.327-4.638-21.44-1.7-42.876-3.497-64.307-5.334-25.78-2.21-51.552-4.49-77.325-6.776-25.44-2.26-50.875-4.566-76.312-6.847-19.742-1.77-39.485-3.542-59.23-5.292-5.35-.473-10.725-.753-15.923-2.282v-7.992h5049.02v985.093c-.75.06-1.5.12-2.252.178z"/><path fill-rule="evenodd" clip-rule="evenodd" fill="#FBFBFB" d="M2.02 2033.74c3.693.105 7.388.3 11.082.3 97.9.017 195.814-1.034 293.69.438 51.787.78 103.62.004 155.342 2.042 38.695 1.526 77.358.478 116.002 1.73 26.86.87 53.78.814 80.55 2.365 20.177 1.17 40.374-.052 60.398 1.762 22.845 2.07 45.773.155 68.45 2.193 19.527 1.755 39.022.12 58.388 1.812 22.162 1.938 44.38.57 66.432 2.23 12.403.933 24.794.71 37.127 1.702 26.727 2.148 53.514 2.85 80.25 4.377 12.036.688 24.32-.196 36.062 1.9 17 3.035 34.285-.663 51.066 3.56.64.16 1.342.162 2.01.12 20.844-1.33 41.628 1.206 62.293 2.625 17.333 1.19 34.914-.687 52.062 3.236.97.223 2.02.28 3.013.19 14.47-1.29 28.722 1.814 43.106 2.426 18.31.777 36.608 2.733 54.944 3.927 17.645 1.148 35.252 2.928 52.93 4.037 18.318 1.148 36.613 2.836 54.95 4.042 17.643 1.16 35.254 2.895 52.925 4.03 18.317 1.175 36.687 2.37 54.924 4.19 16.19 1.614 32.477 2.955 48.66 5.113 9.47 1.263 19.29 1.877 28.873 2.884 9.895 1.04 19.936.928 29.77 3.197 7.437 1.716 15.292 1.373 22.89 2.01 9.95.835 20.016 1.895 29.874 3.03 9.2 1.06 18.594.636 27.783 3.042 6.988 1.83 14.615 1.637 21.85 2.084 16.668 1.03 33.22 3.2 49.792 4.814 16.193 1.578 32.538 2.246 48.606 5.363 7.17 1.392 14.575 1.058 21.905 2.002 20.767 2.677 41.543 5.23 62.276 8.24 18.1 2.63 36.38 3.994 54.525 6.344 17.784 2.303 35.475 5.317 53.25 7.695 12.864 1.72 25.822 2.73 38.694 4.39 12.84 1.657 25.61 3.875 38.443 5.578 12.534 1.663 25.127 2.873 37.666 4.49 13.17 1.7 26.328 3.542 39.462 5.513 13.797 2.07 27.565 4.337 41.337 6.567 15.393 2.492 30.765 5.107 46.166 7.543 14.44 2.284 28.914 4.35 43.356 6.613 14.103 2.21 28.188 4.534 42.276 6.835 14.742 2.408 29.482 4.843 44.222 7.277 14.737 2.433 29.47 4.884 44.207 7.317 13.757 2.27 27.465 4.944 41.29 6.685 17.158 2.162 33.97 6.053 50.924 9.224 18.9 3.536 37.746 7.353 56.605 11.094 22.437 4.452 44.856 8.988 67.296 13.424 21.81 4.31 43.628 8.567 65.452 12.8 22.16 4.3 44.393 8.247 66.484 12.875 36.367 7.618 72.702 15.404 108.945 23.586 44.35 10.012 88.657 20.234 132.86 30.873 42.278 10.175 84.442 20.84 126.586 31.568 89.544 22.797 178.616 47.338 267.302 73.254 120.776 35.294 240.642 73.504 359.616 114.46 158.258 54.478 314.643 113.973 468.957 178.76 144.522 60.678 287.15 125.602 427.55 195.356 87.73 43.59 175.06 87.97 260.574 135.772 25.71 14.372 51.47 28.683 77.176 43.073 1.732.97 3.32 2.387 5.55 1.996l1.977-.026v64.602c-.665-.063-1.33-.07-1.998-.014-28.678-16.09-57.3-32.276-86.047-48.238-32.55-18.073-65.685-35.122-98.117-53.355-89.488-50.31-181.686-95.29-273.794-140.397-95.93-46.976-193.138-91.28-291.073-133.95-112.163-48.868-225.39-95.15-339.638-138.9-104.318-39.95-209.47-77.64-315.373-113.177-99.326-33.33-199.246-64.837-299.806-94.24-60.56-17.706-121.33-34.722-182.19-51.366-52.166-14.267-104.414-28.31-156.96-41.083-53.164-12.922-106.37-25.705-159.615-38.296-38.057-9-76.44-16.62-114.684-24.818-37.26-7.985-74.478-16.168-111.81-23.805-32.157-6.58-64.41-12.717-96.69-18.663-27.06-4.985-54.244-9.292-81.333-14.122-24.795-4.42-49.506-9.31-74.31-13.675-21.23-3.736-42.57-6.845-63.804-10.555-21.217-3.707-42.277-8.385-63.564-11.578-19.363-2.903-38.526-6.982-58.103-8.782-16.48-1.515-32.712-5.597-49.18-7.354-11.912-1.27-23.685-3.407-35.595-4.644-11.863-1.233-23.602-3.628-35.42-5.333-11.505-1.66-23.053-3.024-34.563-4.643-12.48-1.754-24.928-3.716-37.407-5.468-11.513-1.62-23.06-3-34.573-4.628-12.476-1.765-24.912-3.815-37.396-5.52-12.185-1.664-24.503-2.52-36.582-4.726-9.533-1.74-19.24-1.125-28.734-3.38-6.745-1.604-13.943-1.59-20.832-2.08-15.642-1.113-31.198-3.14-46.73-4.844-15.16-1.663-30.406-3.082-45.556-5.144-8.81-1.2-17.912-1.938-26.846-2.836-9.213-.927-18.57-1.036-27.706-3.253-6.77-1.644-13.96-1.506-20.838-2.035-15.628-1.202-31.172-3.29-46.725-4.895-15.162-1.563-30.396-3.245-45.553-5.107-9.846-1.21-19.867-2.4-29.916-2.85-13.616-.607-27.35-.843-40.83-3.494-.98-.194-2.018-.35-3.002-.254-13.13 1.263-26.12-1.31-39.034-2.47-20.57-1.847-41.29-2.073-61.763-5.378-8.843-1.43-18.023-1.334-26.948-1.746-12.708-.586-25.406-1.86-38-2.99-12.25-1.096-24.76-.036-36.82-3.274-.96-.257-2.014-.377-2.998-.284-13.13 1.25-26.22-1.02-39-2.623-14.333-1.797-28.904.73-42.954-3.3-.63-.18-1.343-.188-2.006-.14-17.495 1.31-34.828-1.48-52.24-2.186-21.728-.88-43.523-.932-65.14-3.81-.663-.09-1.346-.12-2.015-.078-21.518 1.335-42.99-1.19-64.315-2.68-17.33-1.21-34.95 1.035-52.065-3.27-.64-.162-1.342-.142-2.01-.103-21.852 1.295-43.6-1.48-65.347-2.477-27.892-1.28-55.838-.025-83.6-2.027-23.893-1.725-47.77-.103-71.536-1.8-28.227-2.018-56.525-.256-84.633-2.224-24.902-1.744-49.735-.774-74.58-1.625-129.81-4.447-259.657-.775-389.48-1.98-47.315 4.15-94.827.18-142.18 3.56-19.097 1.362-38.31.772-57.47.12.005-9.416.005-18.838.005-28.26z"/><path fill-rule="evenodd" clip-rule="evenodd" fill="#bbb" d="M5049.04 3166.274c.667-.056 1.333-.05 1.998.014v675.29c0 2.353-.106 4.716.024 7.063.22 3.986-2.795 1.19-4.062 2.02.034-.736.068-1.474.104-2.21 3.463-3.335 1.828-7.615 1.835-11.426.114-62.536.08-125.073.08-187.608.005-161.047.013-322.095.02-483.142zM5051.038 3101.687c-.66.01-1.32.02-1.978.027-.014-156.41-.025-312.82-.05-469.23 0-4.37-.147-8.742-.226-13.112.75-.06 1.502-.12 2.253-.178v482.493z"/></g></svg>