<?xml version="1.0" encoding="utf-8"?>
<!-- Generator: Adobe Illustrator 16.0.0, SVG Export Plug-In . SVG Version: 6.00 Build 0)  -->
<!DOCTYPE svg PUBLIC "-//W3C//DTD SVG 1.1//EN" "http://www.w3.org/Graphics/SVG/1.1/DTD/svg11.dtd">
<svg version="1.1" id="rsvp_xA0_Image_1_" xmlns="http://www.w3.org/2000/svg" xmlns:xlink="http://www.w3.org/1999/xlink" x="0px"
	 y="0px" width="1804px" height="1152px" viewBox="0 0 1804 1152" enable-background="new 0 0 1804 1152" xml:space="preserve">
<g>
	<path fill-rule="evenodd" clip-rule="evenodd" fill="#333333" d="M981.613,816.782c2.157-2.069,4.354-4.102,6.467-6.215
		c253.957-253.942,507.907-507.89,761.853-761.844c1.412-1.411,2.782-2.869,4.098-4.37c0.75-0.855,1.256-2.224,2.692-1.614
		c1.423,0.603,0.608,2.039,0.748,3.097c0.131,0.982,0.029,1.996,0.029,2.996c0,353.139-0.018,706.278,0.075,1059.417
		c0.003,11.678-5.414,14.367-13.999,14.365c-567.456-0.127-1134.912-0.112-1702.368-0.156c-3.176-0.001-6.522,0.928-9.417-1.746
		c-2.678-2.474-4.795-4.933-4.316-8.871c0.18-1.478,0.025-2.996,0.025-4.496c0-345.14,0-690.279,0-1035.419c0-1.926,0-3.853,0-5.778
		c0.414-0.257,0.828-0.513,1.241-0.769c0.948,1.294,1.767,2.711,2.862,3.864C197.215,243.6,362.846,417.938,528.477,592.276
		c24.372,25.653,48.746,51.306,73.118,76.96c32.616,34.33,65.216,68.676,97.853,102.986c17.615,18.519,35.293,36.978,52.939,55.463
		c-0.776,1.652-1.497,3.334-2.334,4.955c-13.809,26.748-17.762,54.965-12.585,84.531c10.195,58.227,58.765,103.623,120.544,109.05
		c38.407,3.373,73.293-7.065,102.273-33.138c39.362-35.413,52.559-79.664,41.67-131.191
		C998.482,845.459,990.735,830.765,981.613,816.782z"/>
	<path fill-rule="evenodd" clip-rule="evenodd" fill="#333333" d="M765.036,809.323c-22.354-23.295-44.76-46.539-67.048-69.896
		c-34.601-36.259-69.068-72.644-103.69-108.882c-30.112-31.518-60.421-62.849-90.534-94.366
		c-34.967-36.599-69.792-73.333-104.723-109.967c-28.366-29.749-56.797-59.437-85.197-89.153
		c-36.116-37.79-72.229-75.581-108.344-113.371c-35.885-37.549-71.772-75.098-107.658-112.646
		C76.12,88.312,54.397,65.584,32.678,42.854c-3.938-4.122-3.421-6.314,2.085-8.008c1.533-0.472,3.279-0.333,4.928-0.333
		c563.636-0.013,1127.271-0.012,1690.906-0.012c1.444,0,2.889,0,4.333,0c0.229,0.355,0.457,0.712,0.686,1.068
		c-1.457,1.243-3.006,2.394-4.357,3.742c-99.68,99.478-199.346,198.969-299.012,298.46
		c-153.311,153.044-306.621,306.088-459.935,459.128c-1.299,1.297-2.639,2.553-3.958,3.826c-0.28-0.178-0.603-0.312-0.834-0.538
		c-23.166-22.636-50.85-36.204-83.03-39.308c-30.958-2.985-60.134,3.437-86.765,20.104
		C785.337,788.737,774.721,798.479,765.036,809.323z"/>
	<path fill-rule="evenodd" clip-rule="evenodd" fill="#04AFDE" d="M765.036,809.323c9.685-10.844,20.301-20.586,32.688-28.339
		c26.631-16.668,55.807-23.09,86.765-20.104c32.181,3.104,59.864,16.672,83.03,39.308c0.231,0.227,0.554,0.36,0.834,0.538
		c4.421,5.353,8.843,10.704,13.263,16.056c9.119,13.983,16.866,28.678,20.339,45.111c10.889,51.527-2.308,95.778-41.67,131.191
		c-28.98,26.072-63.866,36.511-102.273,33.138c-61.779-5.427-110.349-50.823-120.544-109.05
		c-5.177-29.566-1.224-57.783,12.585-84.531c0.837-1.621,1.558-3.303,2.334-4.955C756.605,821.564,760.82,815.444,765.036,809.323z"
		/>
</g>
</svg>
