<svg xmlns="http://www.w3.org/2000/svg" width="1791" height="1132" viewBox="0 0 1791 1132"><g fill-rule="evenodd" clip-rule="evenodd"><path fill="#46BB6D" d="M1165.44 474.925c14.282 23.883 24.43 49.472 31.538 76.32.463 1.75 1.146 3.44 1.726 5.16.692 8.247 2.54 16.252 5.058 24.117 1.634 17.525 3.496 35.074 3.15 52.674-1.437 73.496-25.192 138.917-72.443 195.376-44.81 53.538-101.722 87.622-169.63 103.41-14.75 3.43-29.747 5.266-44.835 6.723-13.813 1.335-27.685 1.526-41.36.536-31.613-2.288-62.534-8.555-92.24-20.085-42.555-16.517-80.028-40.783-111.74-73.64-43.623-45.2-71.196-98.793-82.623-160.59-2.747-14.854-4.834-29.822-5.074-44.978l.118-30.54c.94-7.193 1.89-14.386 2.82-21.58 4.948-38.242 17.062-74.15 35.545-107.908 15.137-27.647 34.1-52.458 56.957-74.167 44.998-42.74 98.034-69.908 159.094-81.204 13.73-2.54 27.61-3.498 41.593-4.28 40.235-2.25 79.156 3.592 117 16.896 38.605 13.572 73.27 33.982 103.688 61.462 6.894 6.228 14.08 12.165 19.527 19.814-1.478 1.05-2.895 2.19-4.435 3.132-24.023 14.664-47.694 29.866-70.854 45.867-44.61 30.824-87.646 63.57-125.828 102.302-34.886 35.39-63.604 74.776-79.778 122.358-.626 1.84-1.035 3.876-3.167 5.262l-5.964-9.77c-20.196-33.103-44.78-62.927-69.31-92.793-6.952-8.464-6.912-8.426-16.352-2.742-38.412 23.13-74.116 50.3-111.636 74.762-.35.227-.486.778-.78 1.278 1.25.963 2.4 1.92 3.62 2.778 27.63 19.48 55.152 39.114 82.926 58.387 50.916 35.332 91.777 79.396 118.855 135.588.33.684.545 1.64 1.912 1.5.74-1.503 1.595-3.09 2.323-4.735 11.99-27.072 23.453-54.374 36.082-81.17C930.965 674.272 1009.983 597 1114.963 545.674c13.557-6.628 27.354-13.003 42.516-15.377 3.09-.484 3.69-2.25 3.46-5.167-1.348-16.978-.565-33.79 4.5-50.205z"/><path fill="#FDFEFE" d="M1165.44 474.926c-5.065 16.414-5.85 33.227-4.5 50.203.23 2.915-.37 4.682-3.462 5.166-15.162 2.374-28.96 8.75-42.516 15.377C1009.982 597 930.965 674.27 880.922 780.446c-12.63 26.795-24.092 54.097-36.082 81.17-.73 1.644-1.583 3.23-2.323 4.733-1.367.14-1.583-.816-1.912-1.5-27.078-56.19-67.94-100.255-118.855-135.587-27.773-19.272-55.296-38.906-82.925-58.387-1.22-.86-2.37-1.815-3.622-2.778.295-.5.433-1.052.78-1.278 37.52-24.46 73.225-51.633 111.637-74.762 9.44-5.684 9.4-5.722 16.35 2.74 24.53 29.867 49.115 59.69 69.313 92.793l5.964 9.772c2.132-1.386 2.54-3.42 3.167-5.262 16.175-47.582 44.893-86.97 79.778-122.358 38.182-38.732 81.218-71.478 125.828-102.3 23.16-16.002 46.83-31.204 70.854-45.868 1.54-.94 2.957-2.083 4.435-3.132 9.825-5.517 19.613-11.095 29.478-16.534 18.9-10.42 38.023-20.405 57.957-28.74 1.588-.665 3.076-2.057 5.344-1.24-6.485 10.718-12.976 21.282-19.306 31.94-12.382 20.855-22.743 42.655-30.362 65.71-.567 1.705-.666 3.562-.98 5.348z"/></g></svg>