<?xml version="1.0" encoding="utf-8"?>
<!-- Generator: Adobe Illustrator 16.0.0, SVG Export Plug-In . SVG Version: 6.00 Build 0)  -->
<!DOCTYPE svg PUBLIC "-//W3C//DTD SVG 1.1//EN" "http://www.w3.org/Graphics/SVG/1.1/DTD/svg11.dtd">
<svg version="1.1" id="rsvp-completed_xA0_Image_1_"
	 xmlns="http://www.w3.org/2000/svg" xmlns:xlink="http://www.w3.org/1999/xlink" x="0px" y="0px" width="1791px" height="1132px"
	 viewBox="0 0 1791 1132" enable-background="new 0 0 1791 1132" xml:space="preserve">
<g>
	<g>
	
		
		<path fill-rule="evenodd" clip-rule="evenodd" fill="#46BB6D" d="M1165.44,474.925c14.282,23.883,24.431,49.472,31.538,76.32
			c0.463,1.75,1.146,3.44,1.726,5.16c0.692,8.247,2.54,16.252,5.058,24.117c1.634,17.525,3.496,35.074,3.151,52.674
			c-1.438,73.496-25.193,138.917-72.444,195.376c-44.809,53.538-101.721,87.622-169.63,103.41
			c-14.748,3.43-29.746,5.266-44.834,6.723c-13.813,1.335-27.685,1.526-41.359,0.536c-31.614-2.289-62.535-8.556-92.242-20.086
			c-42.554-16.517-80.027-40.783-111.738-73.64c-43.624-45.2-71.197-98.793-82.624-160.589c-2.747-14.855-4.834-29.823-5.074-44.979
			c0.039-10.181,0.078-20.36,0.118-30.541c0.94-7.192,1.889-14.385,2.819-21.578c4.949-38.243,17.063-74.151,35.546-107.909
			c15.136-27.646,34.099-52.457,56.956-74.166c44.998-42.739,98.034-69.908,159.094-81.204c13.729-2.54,27.61-3.497,41.592-4.279
			c40.235-2.251,79.156,3.592,117,16.896c38.605,13.572,73.271,33.982,103.688,61.462c6.893,6.228,14.08,12.165,19.526,19.814
			c-1.478,1.049-2.895,2.191-4.435,3.132c-24.023,14.664-47.694,29.866-70.854,45.867c-44.61,30.823-87.646,63.568-125.828,102.301
			c-34.886,35.389-63.604,74.776-79.778,122.358c-0.626,1.841-1.035,3.876-3.167,5.262c-2.002-3.28-3.983-6.525-5.964-9.771
			c-20.197-33.102-44.782-62.926-69.312-92.792c-6.951-8.463-6.911-8.425-16.351-2.741c-38.412,23.129-74.116,50.301-111.636,74.762
			c-0.349,0.227-0.486,0.778-0.781,1.278c1.251,0.963,2.402,1.919,3.622,2.778c27.629,19.48,55.151,39.114,82.925,58.387
			c50.916,35.332,91.777,79.396,118.855,135.588c0.329,0.683,0.545,1.639,1.912,1.498c0.74-1.502,1.595-3.09,2.323-4.734
			c11.99-27.072,23.453-54.374,36.082-81.169C930.965,674.271,1009.983,597,1114.963,545.673
			c13.557-6.628,27.354-13.003,42.516-15.377c3.092-0.484,3.692-2.251,3.461-5.167
			C1159.592,508.152,1160.375,491.34,1165.44,474.925z"/>
		<path fill-rule="evenodd" clip-rule="evenodd" fill="#FDFEFE" d="M1165.441,474.926c-5.066,16.414-5.85,33.227-4.502,50.203
			c0.231,2.916-0.369,4.683-3.461,5.167c-15.162,2.374-28.959,8.749-42.516,15.377C1009.983,597,930.965,674.271,880.922,780.446
			c-12.629,26.795-24.092,54.097-36.082,81.169c-0.729,1.645-1.583,3.232-2.323,4.734c-1.367,0.141-1.583-0.815-1.912-1.498
			c-27.078-56.191-67.939-100.256-118.855-135.588c-27.773-19.272-55.296-38.906-82.925-58.387c-1.22-0.859-2.371-1.815-3.622-2.778
			c0.295-0.5,0.433-1.052,0.781-1.278c37.52-24.461,73.224-51.633,111.636-74.762c9.439-5.684,9.399-5.722,16.351,2.741
			c24.529,29.866,49.114,59.69,69.312,92.792c1.98,3.245,3.962,6.49,5.964,9.771c2.132-1.386,2.541-3.421,3.167-5.262
			c16.175-47.582,44.893-86.97,79.778-122.358c38.182-38.732,81.218-71.478,125.828-102.301
			c23.159-16.001,46.83-31.203,70.854-45.867c1.54-0.94,2.957-2.083,4.435-3.132c9.826-5.517,19.614-11.095,29.479-16.534
			c18.9-10.421,38.023-20.405,57.957-28.741c1.588-0.664,3.076-2.056,5.344-1.239c-6.484,10.718-12.975,21.282-19.305,31.941
			c-12.382,20.854-22.743,42.654-30.362,65.71C1165.855,471.283,1165.756,473.14,1165.441,474.926z"/>
	</g>
</g>
</svg>
