<svg xmlns="http://www.w3.org/2000/svg" width="1804" height="1152" viewBox="0 0 1804 1152"><g fill-rule="evenodd" clip-rule="evenodd"><path fill="#333" d="M981.613 816.782c2.157-2.07 4.354-4.102 6.467-6.215 253.957-253.942 507.907-507.89 761.853-761.844 1.412-1.41 2.782-2.87 4.098-4.37.75-.855 1.257-2.224 2.693-1.614 1.423.602.608 2.038.748 3.096.132.982.03 1.996.03 2.996 0 353.14-.018 706.278.075 1059.417.003 11.677-5.414 14.366-14 14.364-567.455-.127-1134.91-.112-1702.367-.156-3.176 0-6.522.928-9.417-1.746-2.677-2.474-4.794-4.933-4.315-8.87.18-1.48.025-2.997.025-4.497V66.148l1.24-.77c.95 1.295 1.768 2.712 2.863 3.865C197.215 243.6 362.846 417.938 528.477 592.276l73.118 76.96c32.616 34.33 65.216 68.676 97.853 102.986 17.615 18.52 35.293 36.978 52.94 55.463-.777 1.652-1.498 3.334-2.335 4.955-13.81 26.748-17.762 54.965-12.585 84.53 10.195 58.228 58.765 103.624 120.544 109.05 38.407 3.374 73.293-7.064 102.273-33.137 39.362-35.413 52.56-79.664 41.67-131.19-3.473-16.434-11.22-31.128-20.342-45.11zM765.036 809.323c-22.354-23.295-44.76-46.54-67.048-69.896-34.6-36.26-69.068-72.644-103.69-108.882-30.112-31.518-60.42-62.85-90.534-94.366-34.967-36.6-69.792-73.334-104.723-109.968-28.365-29.75-56.796-59.437-85.196-89.153-36.116-37.79-72.23-75.582-108.344-113.372-35.885-37.55-71.772-75.098-107.658-112.646-21.722-22.73-43.445-45.458-65.164-68.188-3.938-4.122-3.42-6.314 2.085-8.008 1.533-.472 3.28-.333 4.928-.333 563.637-.013 1127.272-.012 1690.907-.012h4.333c.23.356.457.713.686 1.07-1.457 1.242-3.006 2.393-4.357 3.74-99.68 99.48-199.347 198.97-299.013 298.46-153.31 153.045-306.62 306.09-459.935 459.13-1.3 1.296-2.64 2.552-3.958 3.825-.28-.178-.603-.312-.834-.538-23.166-22.636-50.85-36.204-83.03-39.308-30.958-2.986-60.134 3.436-86.765 20.103-12.388 7.754-23.004 17.496-32.69 28.34z"/><path fill="#cd7979" d="M765.036 809.323c9.685-10.844 20.3-20.586 32.688-28.34 26.63-16.667 55.807-23.09 86.765-20.103 32.18 3.104 59.863 16.672 83.03 39.308.23.227.553.36.833.538 4.42 5.353 8.843 10.704 13.263 16.056 9.12 13.983 16.866 28.678 20.34 45.11 10.888 51.528-2.31 95.78-41.67 131.192-28.98 26.072-63.867 36.51-102.274 33.138-61.78-5.427-110.35-50.823-120.544-109.05-5.177-29.566-1.224-57.783 12.585-84.53.837-1.622 1.558-3.304 2.334-4.956l12.65-18.363z"/></g></svg>