<svg xmlns="http://www.w3.org/2000/svg" width="667" height="421" viewBox="0 0 667 421"><path fill="#4A4A4A" d="M661 422H8c-4.143-.523-6.476-2.857-7-7V8c.524-4.143 2.857-6.477 7-7h653c4.143.523 6.476 2.857 7 7v407c-.524 4.143-2.857 6.477-7 7z"/><path fill-rule="evenodd" clip-rule="evenodd" fill="#F0F1F0" d="M668 8c-1.65-3.017-4.026-5.307-7-7 7 0 7 0 7 7z"/><path fill-rule="evenodd" clip-rule="evenodd" fill="#F1F1F1" d="M8 1C5.03 2.698 2.648 4.98 1 8c0-7 0-7 7-7z"/><path fill-rule="evenodd" clip-rule="evenodd" fill="#F0F0F0" d="M1 415c1.656 3.01 4.013 5.32 7 7-7 0-7 0-7-7zM661 422c2.987-1.68 5.344-3.99 7-7 0 7 0 7-7 7z"/><path fill-rule="evenodd" clip-rule="evenodd" fill="#79CCA2" d="M605.896 329.787c7.48-.012 7.486-.014 8.905 7.143 2.91 14.676 5.688 29.38 8.798 44.015.866 4.073-.484 4.893-4.183 4.902-4.847.013-9.585.448-9.57-6.497 0-.457-.237-1.21-.554-1.33-4.818-1.837-9.83-.58-14.757-.814-2.53-.12-2.58 2.2-3.303 3.768-.803 1.74-.703 4.417-3.186 4.574-3.962.25-7.973.135-11.932-.2-1.315-.11-.632-1.605-.282-2.48 6.534-16.38 13.016-32.78 19.67-49.11 1.944-4.768 6.458-3.865 10.396-3.97zM486.98 349.01l3.47 15.57c1.894-.56 1.62-2.567 2.116-3.916 3.214-8.73 6.387-17.477 9.28-26.315 1.085-3.316 2.58-4.746 6.305-4.695 10.528.143 10.538-.04 6.82 9.548-5.345 13.79-10.846 27.52-15.966 41.392-1.462 3.962-3.57 5.684-7.7 5.11-1.307-.18-2.676-.136-3.99.026-3.832.475-5.57-1.077-6.456-4.95-2.778-12.144-6.318-24.12-8.868-36.305-1.255-6-4.3-9.316-9.873-11.016-1.956-.598-4.153-.896-6.535-3.355 9.05-.62 17.193-.966 25.308.18 2.552.36 3.588 2.91 3.935 5.283.405 2.782 1.575 5.463 1.192 8.354 1.164 1.537-.202 3.553.964 5.09zM546.08 385.744c-.327 0-.666.06-.98-.007-8.264-1.743-9.974-5.234-6.5-12.973.686-1.524 1.427-1.98 2.99-1.3 2.096.915 4.256 1.68 6.39 2.51 2.997.854 6 .753 9.01.062 6.154-3.748 6.145-6.538-.07-10.287-1.854-1.118-3.82-2.05-5.638-3.218-11.896-7.65-11.24-22.145 1.287-28.82 2.36-1.257 4.835-2.2 7.53-2.446 3.936.395 7.87.364 11.807.016 5.88 1.23 8.556 7.915 4.68 12.71-1.988 2.462-4.35-.534-6.56-.958-3.012-.787-6.018-.934-9.01.093-4.82 3.628-4.767 5.547.344 8.728 1.975 1.23 4.09 2.224 6.087 3.418 5.464 3.27 9.284 7.71 8.986 14.45-.332 7.48-4.146 12.863-10.908 16-2.074.96-4.414 1.348-6.632 1.997-4.272-.337-8.542-.395-12.813.024zM530.822 329.698c7.144 0 7.028-.018 5.856 7.226-2.304 14.248-4.632 28.496-6.587 42.794-.602 4.405-1.925 6.818-6.755 6.067-1.462-.227-2.993-.118-4.483-.022-3.054.196-4.088-.876-3.563-4.11 2.42-14.91 4.588-29.863 6.925-44.788 1.124-7.18 1.2-7.167 8.607-7.167z"/><path fill-rule="evenodd" clip-rule="evenodd" fill="#F8F8F8" d="M623.12 208.822c0 .332-.003.663 0 .994.135 12.692.856 11.142-12.83 11.174-2.68.007-3.964-1.57-4.006-4.06-.093-5.467-.064-10.937-.023-16.404.023-3.033 1.65-4.537 4.677-4.528 13.65.04 12.172-1.413 12.184 12.824zM592.114 208.66c.007.33.007.662.007.993 0 12.103.004 12.032-12.172 11.398-3.08-.16-4.667-1.398-4.688-4.453-.036-5.47-.018-10.938-.002-16.405.006-2.086 1.113-3.81 3.038-3.988 3.61-.334 7.29-.303 10.907-.02 2.086.165 2.887 1.998 2.9 4.023.017 2.818.004 5.636.01 8.452zM561.114 208.656c.007.33.007.663.007.994 0 12.103.004 12.032-12.17 11.4-3.078-.16-4.668-1.395-4.688-4.45-.038-5.47-.02-10.938-.004-16.405.006-2.087 1.112-3.812 3.036-3.99 3.61-.336 7.29-.304 10.907-.02 2.087.162 2.89 1.994 2.903 4.02.018 2.817.004 5.634.01 8.45zM530.12 208.734v.994c0 12.094.005 12.023-12.247 11.323-3.112-.178-4.6-1.505-4.616-4.528-.03-5.303-.028-10.605-.002-15.908.015-3.012 1.542-4.615 4.593-4.61 13.767.02 12.26-1.41 12.273 12.73zM464.12 208.554c0 .33-.002.663 0 .994.114 12.935.864 11.384-12.56 11.457-2.92.016-4.263-1.555-4.292-4.302-.057-5.468-.02-10.937-.008-16.405 0-.49-.017-1.065.218-1.455 3.21-5.345 8.39-2.176 12.654-2.726 3.232-.417 4.036 2.174 3.994 4.98-.037 2.485-.007 4.97-.006 7.457zM433.12 208.91v.498c0 12.457-.116 12.51-12.424 11.638-2.857-.202-4.376-1.423-4.42-4.204-.08-5.467-.03-10.937-.02-16.404 0-.492-.043-1.065.18-1.463 3.09-5.527 8.318-2.263 12.558-2.87 3.204-.457 4.162 1.998 4.13 4.853-.03 2.65-.006 5.302-.005 7.953zM54.12 208.22v1.49c0 12.096.005 12.025-12.228 11.342-3.104-.174-4.616-1.48-4.635-4.51-.032-5.304-.026-10.606-.004-15.91.013-3.006 1.52-4.632 4.576-4.627 13.556.022 12.326-1.4 12.29 12.214zM85.12 208.79v.993c0 12.03-.052 12.012-12.3 11.268-3.138-.19-4.552-1.58-4.565-4.582-.023-5.303-.033-10.605.003-15.907.02-3.024 1.608-4.566 4.644-4.56 13.696.033 12.207-1.41 12.22 12.79zM116.12 208.855c0 .33-.002.662 0 .994.138 12.66.86 11.106-12.862 11.142-2.4.007-3.854-1.32-3.914-3.6-.152-5.795-.07-11.597-.074-17.396 0-.327-.008-.704.14-.974 3.056-5.593 8.298-2.294 12.527-2.922 3.194-.474 4.212 1.927 4.186 4.8-.024 2.652-.005 5.304-.003 7.955zM147.12 208.872v.497c0 12.5-.067 12.506-12.385 11.677-2.848-.19-4.408-1.377-4.454-4.165-.09-5.467-.033-10.937-.024-16.405 0-.492-.05-1.064.168-1.465 3.056-5.578 8.298-2.288 12.53-2.91 3.197-.468 4.198 1.948 4.17 4.816-.026 2.65-.006 5.303-.004 7.954zM196.24 208.502c0-.33.005-.663 0-.994-.257-12.934-.292-11.46 12.63-11.507 2.913-.01 4.214 1.594 4.23 4.35.034 5.468.043 10.937-.005 16.405-.024 2.79-1.453 4.263-4.33 4.25-13.823-.064-12.546 1.516-12.526-12.503zM244.12 208.478v.994c.102 12.98.904 11.457-12.484 11.538-2.9.018-4.326-1.467-4.362-4.23-.07-5.468-.027-10.938-.015-16.405 0-.49-.032-1.065.196-1.46 3.146-5.443 8.35-2.224 12.602-2.804 3.215-.438 4.108 2.077 4.068 4.91-.035 2.486-.007 4.972-.006 7.458zM275.12 208.726v.994c0 12.095.005 12.024-12.238 11.332-3.108-.177-4.606-1.494-4.624-4.52-.03-5.304-.027-10.606-.004-15.91.014-3.01 1.533-4.622 4.585-4.618 13.776.02 12.27-1.41 12.28 12.722zM306.12 208.78v.996c0 12.04-.044 12.014-12.294 11.274-3.134-.19-4.56-1.572-4.57-4.576-.024-5.303-.033-10.605.002-15.908.02-3.023 1.6-4.573 4.638-4.565 13.705.032 12.213-1.41 12.225 12.78zM354.24 208.13v-.993c0-11.73.025-11.68 12.007-11.19 3.326.136 4.895 1.465 4.876 4.774-.027 5.138-.032 10.275.005 15.412.022 3.225-1.306 4.92-4.735 4.893-13.497-.104-12.145 1.41-12.154-12.894zM385.24 208.963v-1.49c0-12.094.112-12.137 12.17-11.522 3.06.157 4.678 1.355 4.692 4.436.026 5.47.043 10.938-.01 16.405-.027 2.805-1.5 4.23-4.365 4.216-13.54-.074-12.55 1.507-12.488-12.043z"/><path fill-rule="evenodd" clip-rule="evenodd" fill="#F7F7F7" d="M172.862 339.64c0 2.106.028 4.214-.01 6.32-.025 1.407-.35 2.737-2.053 2.914-1.902.196-2.188-1.287-2.21-2.62-.08-4.824-.12-9.652-.01-14.477.05-2.293 1.377-3.69 3.78-3.762 1.83-.055 3.664.025 5.493-.028 2.29-.067 3.887.95 4.58 3.086.71 2.192.695 4.694-1.484 5.8-2.89 1.468-2.173 2.94-.844 4.85.473.68.85 1.43 1.232 2.168.812 1.573 2.415 3.453.115 4.725-2.428 1.344-2.947-1.264-3.833-2.7-1.3-2.106-2.49-4.28-3.726-6.427l-1.032.15z"/><path fill-rule="evenodd" clip-rule="evenodd" fill="#F8F8F8" d="M310.12 339.732v1.498c0 8.736-2.48 10.662-11.144 8.768-2.228-.488-2.927-1.906-2.92-3.96.01-4.328.01-8.655 0-12.98-.008-2.618 1.17-4.067 3.89-4.057 1.164.006 2.33-.004 3.494-.003 6.558.01 6.66.11 6.68 6.742.003 1.33 0 2.66 0 3.992z"/><path fill-rule="evenodd" clip-rule="evenodd" fill="#F6F6F6" d="M75.544 345.043c-1.212-2.656-5.14-1.894-3.77-4.764 1.184-2.482 3.89-1.24 5.867-1.19 3.038.074 1.71 2.69 1.772 4.203.167 4.167-2.04 5.854-6.2 5.778-4.057-.073-7.72.013-8.122-5.512-.367-5.052.535-9.477 4.244-13.195 1.49-1.494 2.94-2.717 5.14-2.352 1.74.29 4.587-1.133 4.775 1.877.166 2.686-2.455 1.897-4.15 2.146-4.105.603-7.695 8.687-5.265 12.114 1.275 1.8 3.266.505 5.71.896z"/><path fill-rule="evenodd" clip-rule="evenodd" fill="#F7F7F7" d="M189.757 327.994c4.328.076 8.57 4.894 8.907 10.11.4 6.232-5.554 11.8-11.563 10.918-2.605-.383-3.293-1.62-1.658-3.612 3.375-4.114 2.03-8.914 1.01-12.953-1.17-4.632-1.93-4.557 3.305-4.463zM371.875 342.025c-.253 3.837.61 7.076-2.636 7.697-3.504.67-7.303 1.048-10.618-1.16-.726-.484-1.016-1.324-.785-2.202.315-1.205 1.288-1.48 2.338-1.312 1.452.233 2.866.718 4.32.913 1.604.216 2.965.04 2.913-2.22-.04-1.743-.342-2.643-2.417-2.832-1.647-.15-4.7 1.6-4.776-1.6-.08-3.268-1.924-7.43 1.704-9.7 2.486-1.558 5.792-.812 8.708-.188.41.088.85 1.038.894 1.618.064.853-.43 1.675-1.358 1.794-1.312.168-2.648.138-3.975.188-1.114.043-1.877.374-1.91 1.718-.033 1.39.348 2.357 1.897 2.222 4.922-.43 6.155 2.247 5.7 5.065zM166.916 346.053c.087 1.565-.243 2.492-1.36 2.817-1.09.317-1.886-.2-2.414-1.194-2.21-4.173-4.292-4.14-6.285.182-.486 1.055-1.43 1.337-2.48.927-1.074-.42-1.532-1.432-1.25-2.42 1.635-5.71 3.188-11.455 5.18-17.042.71-1.998 2.883-2.033 3.618.135 1.903 5.612 3.44 11.35 4.99 16.595z"/><path fill-rule="evenodd" clip-rule="evenodd" fill="#F3F3F3" d="M327.936 349.197c-4.175 1.127-8.444.77-12.69.823-1.32.016-2.307-.405-2.563-1.78-.217-1.154.465-2.172 1.504-2.105 3.796.24 3.202-2.335 3.19-4.606-.008-1.83.007-3.658-.01-5.487-.012-1.492.194-3.11-2.135-3.046-1.55.043-2.696-.705-2.44-2.37.27-1.732 1.814-1.65 3.16-1.637 1.662.018 3.323.055 4.984.084 1.172 2.778.245 5.698.588 8.527.125 1.03-.745 2.822 1.576 2.537 2.326-1.206 3.208.03 3.652 2.116.312 1.472-.744 3.292 1.093 4.384.76.827.756 1.68.09 2.56zM353.1 340.137c3.503-1.432 3.676 1.06 3.627 3.306-.053 2.39 1.64 5.847-2.44 6.446-3.096.455-6.312.082-9.477.104-1.193.008-1.915-.64-2.11-1.696-.266-1.425.576-2.32 1.928-2.235 2.765.176 3.125-1.558 2.693-3.483-.796-3.558 2.896-8.9-3.9-10.228-.324-.063-.694-1.152-.625-1.71.14-1.14 1.036-1.635 2.15-1.634 1.997.004 3.995.042 5.992.065 1.216 2.94.223 6.02.577 9.013.113.956-.475 2.56 1.586 2.05z"/><path fill-rule="evenodd" clip-rule="evenodd" fill="#F4F4F4" d="M88.545 349.01c-1.162.002-2.325.02-3.486-.002-1.312-.023-2.92.208-3.233-1.53-.36-2.01 1.014-2.568 2.747-2.5 2.036.077 1.912-1.375 1.923-2.71.018-2.16-.01-4.317.017-6.475.024-2.026.32-4.112-2.875-3.854-1.432.115-2.03-1.034-1.836-2.36.17-1.162 1.11-1.568 2.196-1.57 3.154-.008 6.308-.002 9.46.02 1.146.01 1.924.676 2.034 1.746.11 1.07-.556 2.167-1.625 2.098-3.892-.254-3.05 2.46-3.085 4.636-.033 1.99.03 3.984-.012 5.976-.032 1.493.195 2.632 2.106 2.514 1.495-.092 2.77.48 2.633 2.164-.137 1.677-1.565 1.88-2.983 1.853-1.33-.03-2.657-.007-3.985-.006z"/><path fill-rule="evenodd" clip-rule="evenodd" fill="#F0F0F0" d="M112.073 329.973c3.986-3.607 8.797-1.645 13.247-1.817 1.912-.074 1.226 1.982 1.264 3.167.046 1.433-.565 3.04-2.187 2.57-3.695-1.067-2.674 1.525-2.732 3.204-.09 2.645.007 5.294-.04 7.94-.026 1.602.338 3.77-2 3.83-2.638.07-2.468-2.26-2.383-4.025.265-5.546 1.237-11.344-6.13-13.363-.54-1.052-.275-1.59.96-1.507z"/><path fill-rule="evenodd" clip-rule="evenodd" fill="#F7F7F7" d="M112.073 329.973l-.96 1.506c-2.792 1.366-6.085-.334-9.453 1.363 1.99 1.667 3.844 1.02 5.498 1.14 1.342.1 2.328.61 2.365 1.973.038 1.376-.96 2.235-2.266 1.988-5.353-1.017-5.427 2.158-5.216 6.03.094 1.72 1.128 4.765-1.8 4.795-3.294.033-2.054-3.15-2.138-5.045-.17-3.81-.01-7.63-.062-11.444-.04-2.85 1.21-4.677 4.12-4.206 3.312.536 7.282-2.116 9.913 1.9z"/><path fill-rule="evenodd" clip-rule="evenodd" fill="#F6F6F6" d="M146.236 349.013c-4.317-.077-8.857-5.216-9.143-10.134-.35-6.025 5.38-11.57 11.2-10.906 1.413.16 2.782.254 2.672 2.115-.083 1.428-1.156 1.717-2.43 1.937-6.657 1.155-8.615 5.336-5.285 10.947.725 1.222 1.378 2.037 3 2.074 1.763.04 4.716-1.002 4.6 2.068-.115 3.025-3.088 1.448-4.614 1.897z"/><path fill-rule="evenodd" clip-rule="evenodd" fill="#F3F3F3" d="M327.936 349.197l-.09-2.56c2.965-5.162 5.936-10.32 8.894-15.486.77-1.346 1.614-2.856 3.413-1.8 1.43.838.998 2.267.27 3.508-3.02 5.15-6.03 10.304-9.067 15.444-.824 1.392-1.78 2.51-3.42.895z"/><path fill-rule="evenodd" clip-rule="evenodd" fill="#A3A3A3" d="M353.1 340.137l-.412 4.877c-2.21-5.19-.833-10.676-1.75-15.94 2.22 1.61.776 3.954 1.174 5.93.344 1.706-.735 3.687.988 5.133zM323.1 340.137l-.41 4.872c-2.208-5.186-.843-10.67-1.754-15.937 2.223 1.61.778 3.954 1.176 5.93.344 1.708-.736 3.688.988 5.134z"/><path fill-rule="evenodd" clip-rule="evenodd" fill="#81CCA8" d="M546.08 385.744c4.27-1.185 8.54-1.15 12.812-.025-4.27.462-8.54.422-12.812.024zM571.906 329.28c-3.937 1.102-7.873 1.125-11.807-.015 3.936-.418 7.872-.436 11.806.016z"/><path fill-rule="evenodd" clip-rule="evenodd" fill="#84C6A9" d="M561.016 341.126c2.986-1.73 5.99-1.598 9.01-.093-3.004.03-6.006.062-9.01.093z"/><path fill-rule="evenodd" clip-rule="evenodd" fill="#85C5A9" d="M556.988 374.036c-3.013 1.437-6.017 1.49-9.01-.062l9.01.062z"/><path fill-rule="evenodd" clip-rule="evenodd" fill="#8BC8A3" d="M486.98 349.01c-1.228-1.522-.93-3.336-.964-5.086 1.086 1.55 1.007 3.322.965 5.087z"/><path fill-rule="evenodd" clip-rule="evenodd" fill="#4B4C4C" d="M603.557 347.333c1.03 5.25 1.678 9.778 2.857 14.165.877 3.26-.523 3.562-3.146 3.627-6.583.16-6.622.23-4.46-5.797 1.36-3.79 2.214-7.8 4.75-11.995z"/><path fill-rule="evenodd" clip-rule="evenodd" fill="#4E4E4E" d="M618.142 208.803c0 1.487-.132 2.988.026 4.458.3 2.755-1.346 2.847-3.36 2.77-1.845-.07-3.75.265-3.583-2.63.142-2.47.006-4.955.026-7.433.022-2.53-.794-5.185 3.672-5.12 4.397.062 3.013 2.812 3.206 4.983.088.983.016 1.982.014 2.973zM587.14 208.966c-.002 1.487-.114 2.984.022 4.46.27 2.917-1.685 2.548-3.515 2.603-2.012.06-3.6-.07-3.432-2.793.162-2.634.07-5.286.02-7.93-.05-2.38-.33-4.322 3.347-4.462 4.13-.157 3.612 2.167 3.564 4.65-.02 1.157-.002 2.315-.005 3.47zM556.143 208.37c0 1.488-.146 2.992.03 4.46.328 2.747-.97 3.28-3.428 3.248-2.385-.032-3.775-.432-3.536-3.24.194-2.295.054-4.622.03-6.935-.024-2.62-.627-5.134 3.745-5.052 4.442.084 2.882 2.925 3.142 5.045.1.814.017 1.65.016 2.476zM525.142 208.687c0 1.486-.134 2.988.028 4.457.288 2.61-1.073 2.97-3.243 2.91-2.158-.056-3.97.012-3.72-3.034.205-2.46.067-4.953.03-7.432-.034-2.504-.5-4.75 3.565-4.743 4.264.008 3.24 2.588 3.334 4.867.042.99.008 1.982.006 2.975zM459.143 208.515c0 1.322-.078 2.65.018 3.964.164 2.25-.104 3.76-3.065 3.606-2.44-.125-4.22-.206-3.888-3.392.22-2.125-.076-4.3.072-6.438.158-2.297-1.346-5.33 3.352-5.4 4.597-.068 3.375 2.788 3.505 5.18.045.824.007 1.652.006 2.48zM421.253 207.816c.007-1.486.05-2.975-.002-4.46-.104-3.035 2.136-2.226 3.803-2.36 1.812-.148 3.262 0 3.118 2.49-.15 2.634-.015 5.284-.03 7.928-.016 2.377.765 4.835-3.466 4.746-4.138-.088-3.408-2.486-3.426-4.874-.01-1.156-.002-2.312.005-3.47zM42.253 207.816c.007-1.486.05-2.975-.002-4.46-.104-3.035 2.136-2.226 3.803-2.36 1.812-.148 3.262 0 3.12 2.49-.153 2.634-.017 5.284-.033 7.928-.015 2.377.765 4.835-3.465 4.746-4.138-.088-3.408-2.486-3.426-4.874-.01-1.156-.004-2.312.003-3.47zM73.25 208.18c.002-1.486.108-2.982-.02-4.458-.242-2.765 1.49-2.777 3.46-2.752 1.874.024 3.692-.23 3.485 2.648-.177 2.466.107 4.965-.076 7.43-.156 2.086 1.42 4.995-3.057 5.096-4.28.096-3.918-2.278-3.805-4.99.043-.99.008-1.982.01-2.973zM111.142 208.49c0 1.488-.148 2.993.03 4.46.354 2.908-1.262 3.073-3.545 3.125-2.542.058-3.627-.706-3.417-3.356.183-2.3 0-4.625.046-6.938.045-2.32-.855-4.833 3.35-4.94 4.153-.108 3.57 2.22 3.54 4.676-.013.99-.003 1.982-.004 2.973zM142.142 208.56c0 1.488-.123 2.987.026 4.46.247 2.43-.785 3.188-3.12 3.03-2.02-.138-4.076.254-3.833-2.904.177-2.3-.068-4.63.06-6.935.128-2.33-1.266-5.31 3.402-5.355 4.642-.043 3.27 2.89 3.457 5.23.065.818.01 1.65.008 2.476zM208.142 208.69c0 1.487-.134 2.99.028 4.458.29 2.616-1.088 2.958-3.25 2.906-2.166-.052-3.965-.002-3.712-3.04.204-2.462.068-4.954.03-7.432-.04-2.51-.49-4.745 3.57-4.738 4.27.007 3.23 2.598 3.328 4.873.043.99.008 1.982.006 2.974zM239.143 208.177c0 1.487-.11 2.983.024 4.46.22 2.437-.478 3.517-3.228 3.462-2.658-.053-4.04-.575-3.734-3.563.218-2.125-.013-4.293.055-6.438.077-2.43-1.037-5.247 3.53-5.245 4.776 0 3.036 3.103 3.34 5.343.088.647.014 1.318.013 1.98zM270.142 208.83c0 1.487-.13 2.988.026 4.458.294 2.78-1.403 2.795-3.385 2.742-1.874-.05-3.728.206-3.56-2.657.145-2.47.02-4.955.024-7.434.004-2.564-.723-5.162 3.7-5.093 4.424.07 2.96 2.863 3.178 5.01.102.982.02 1.982.017 2.973zM294.253 207.816c.007-1.486.05-2.975-.002-4.46-.104-3.035 2.136-2.226 3.803-2.36 1.812-.148 3.262 0 3.118 2.49-.15 2.634-.015 5.284-.03 7.928-.016 2.377.765 4.835-3.466 4.746-4.138-.088-3.408-2.486-3.426-4.874-.01-1.156-.002-2.312.005-3.47zM366.14 208.936c0 1.486-.118 2.985.023 4.458.277 2.887-1.623 2.604-3.485 2.636-1.98.034-3.628-.007-3.46-2.762.16-2.634.143-5.292-.002-7.928-.154-2.82.13-4.524 3.838-4.483 3.994.044 2.978 2.5 3.08 4.61.055 1.153.01 2.31.007 3.47zM397.143 208.53c-.002 1.486-.12 2.985.025 4.458.235 2.39-.715 3.24-3.088 3.06-1.99-.154-4.1.313-3.863-2.87.17-2.302-.082-4.632.06-6.936.145-2.308-1.32-5.326 3.368-5.387 4.61-.06 3.342 2.822 3.49 5.196.052.825.01 1.653.008 2.48z"/><path fill-rule="evenodd" clip-rule="evenodd" fill="#4A4A4A" d="M179.526 332.746c-3.09 1.594-4.773 1.313-7.49.675 2.55-1.94 4.307-1.436 7.49-.674z"/><path fill-rule="evenodd" clip-rule="evenodd" fill="#505050" d="M306.014 340.2c-1.362 1.48 2.674 5.71-2.762 5.834-1.945.044-3.173-.33-3.034-2.656.127-2.13.07-4.273.007-6.41-.067-2.256-.21-4.112 3.16-4.08 3.403.03 2.523 2.165 2.62 3.963.052.984.01 1.973.01 3.35z"/><path fill-rule="evenodd" clip-rule="evenodd" fill="#707070" d="M192.91 341.963l-1.098 2.11-.812-.044c0-3.228-.007-6.454.006-9.68.002-.604.02-1.603.773-1.326.556.205.783 1.305 1.157 2.006-.02 2.312.028 4.622-.027 6.933z"/><path fill-rule="evenodd" clip-rule="evenodd" fill="#4E4E4E" d="M192.91 341.963c-1.383-2.316-1.41-4.627.027-6.933 1.777 2.32 1.822 4.63-.027 6.933z"/></svg>