<?xml version="1.0" encoding="utf-8"?>
<!-- Generator: Adobe Illustrator 16.0.0, SVG Export Plug-In . SVG Version: 6.00 Build 0)  -->
<!DOCTYPE svg PUBLIC "-//W3C//DTD SVG 1.1//EN" "http://www.w3.org/Graphics/SVG/1.1/DTD/svg11.dtd">
<svg version="1.1" id="visa-gift-card_xA0_Image_1_"
	 xmlns="http://www.w3.org/2000/svg" xmlns:xlink="http://www.w3.org/1999/xlink" x="0px" y="0px" width="667px" height="421px"
	 viewBox="0 0 667 421" enable-background="new 0 0 667 421" xml:space="preserve">
<g>
	<path fill="#4A4A4A" d="M661,422c-217.667,0-435.333,0-653,0c-4.143-0.523-6.476-2.857-7-7C1,279.333,1,143.667,1,8
		c0.524-4.143,2.857-6.477,7-7c217.667,0,435.333,0,653,0c4.143,0.523,6.476,2.857,7,7c0,135.667,0,271.333,0,407
		C667.476,419.143,665.143,421.477,661,422z"/>
	<path fill-rule="evenodd" clip-rule="evenodd" fill="#F0F1F0" d="M668,8c-1.65-3.017-4.026-5.307-7-7C668,1,668,1,668,8z"/>
	<path fill-rule="evenodd" clip-rule="evenodd" fill="#F1F1F1" d="M8,1C5.031,2.698,2.648,4.981,1,8C1,1,1,1,8,1z"/>
	<path fill-rule="evenodd" clip-rule="evenodd" fill="#F0F0F0" d="M1,415c1.656,3.011,4.013,5.32,7,7C1,422,1,422,1,415z"/>
	<path fill-rule="evenodd" clip-rule="evenodd" fill="#F0F0F0" d="M661,422c2.987-1.679,5.344-3.99,7-7C668,422,668,422,661,422z"/>
	<path fill-rule="evenodd" clip-rule="evenodd" fill="#79CCA2" d="M605.896,329.787c7.479-0.012,7.486-0.014,8.905,7.143
		c2.91,14.676,5.687,29.381,8.797,44.015c0.866,4.073-0.484,4.893-4.183,4.902c-4.847,0.013-9.585,0.448-9.57-6.497
		c0.001-0.457-0.237-1.209-0.554-1.329c-4.819-1.838-9.832-0.582-14.758-0.815c-2.531-0.12-2.58,2.199-3.303,3.768
		c-0.803,1.74-0.703,4.417-3.186,4.574c-3.962,0.25-7.973,0.135-11.932-0.199c-1.315-0.11-0.632-1.606-0.282-2.482
		c6.534-16.379,13.016-32.779,19.671-49.108C597.444,328.99,601.958,329.893,605.896,329.787z"/>
	<path fill-rule="evenodd" clip-rule="evenodd" fill="#79CCA2" d="M486.981,349.011c1.149,5.162,2.3,10.323,3.469,15.569
		c1.894-0.56,1.62-2.567,2.116-3.916c3.214-8.729,6.387-17.477,9.28-26.315c1.085-3.315,2.58-4.745,6.305-4.694
		c10.527,0.143,10.537-0.039,6.82,9.548c-5.346,13.789-10.847,27.52-15.967,41.392c-1.462,3.962-3.569,5.684-7.701,5.111
		c-1.306-0.181-2.675-0.137-3.988,0.025c-3.833,0.474-5.57-1.078-6.457-4.951c-2.778-12.144-6.318-24.119-8.868-36.305
		c-1.255-5.999-4.299-9.316-9.873-11.016c-1.956-0.597-4.153-0.895-6.535-3.354c9.05-0.621,17.193-0.966,25.308,0.18
		c2.552,0.36,3.588,2.91,3.935,5.283c0.405,2.782,1.575,5.463,1.192,8.354C487.181,345.459,485.815,347.475,486.981,349.011z"/>
	<path fill-rule="evenodd" clip-rule="evenodd" fill="#79CCA2" d="M546.08,385.744c-0.327,0.001-0.666,0.06-0.979-0.007
		c-8.265-1.743-9.975-5.234-6.5-12.973c0.685-1.524,1.426-1.979,2.989-1.299c2.096,0.914,4.256,1.68,6.389,2.509
		c2.998,0.854,6.002,0.753,9.01,0.062c6.155-3.748,6.146-6.538-0.07-10.287c-1.853-1.117-3.819-2.049-5.637-3.217
		c-11.896-7.649-11.24-22.145,1.287-28.819c2.361-1.258,4.836-2.2,7.531-2.447c3.936,0.395,7.871,0.364,11.807,0.016
		c5.879,1.229,8.556,7.915,4.68,12.711c-1.988,2.461-4.35-0.535-6.56-0.959c-3.012-0.787-6.018-0.934-9.011,0.093
		c-4.818,3.628-4.766,5.547,0.345,8.728c1.974,1.229,4.09,2.224,6.086,3.418c5.464,3.271,9.284,7.709,8.986,14.451
		c-0.332,7.479-4.146,12.862-10.908,15.998c-2.074,0.962-4.414,1.349-6.632,1.998C554.621,385.383,550.351,385.325,546.08,385.744z"
		/>
	<path fill-rule="evenodd" clip-rule="evenodd" fill="#79CCA2" d="M530.822,329.698c7.144,0.001,7.028-0.018,5.856,7.226
		c-2.304,14.248-4.632,28.496-6.587,42.794c-0.603,4.405-1.926,6.818-6.756,6.067c-1.462-0.227-2.993-0.118-4.483-0.022
		c-3.054,0.196-4.088-0.876-3.563-4.111c2.421-14.91,4.589-29.862,6.926-44.787C523.339,329.686,523.416,329.698,530.822,329.698z"
		/>
	<path fill-rule="evenodd" clip-rule="evenodd" fill="#F8F8F8" d="M623.121,208.822c0,0.332-0.004,0.663,0,0.994
		c0.134,12.692,0.855,11.142-12.83,11.174c-2.681,0.007-3.965-1.571-4.007-4.06c-0.093-5.467-0.064-10.937-0.023-16.404
		c0.022-3.033,1.648-4.537,4.676-4.528C624.587,196.038,623.109,194.585,623.121,208.822z"/>
	<path fill-rule="evenodd" clip-rule="evenodd" fill="#F8F8F8" d="M592.114,208.659c0.007,0.332,0.007,0.663,0.007,0.994
		c0,12.103,0.003,12.032-12.173,11.398c-3.08-0.16-4.667-1.399-4.688-4.454c-0.036-5.469-0.018-10.938-0.002-16.405
		c0.006-2.086,1.113-3.81,3.038-3.988c3.609-0.334,7.289-0.303,10.907-0.019c2.086,0.164,2.887,1.997,2.899,4.022
		C592.12,203.025,592.107,205.843,592.114,208.659z"/>
	<path fill-rule="evenodd" clip-rule="evenodd" fill="#F8F8F8" d="M561.114,208.656c0.007,0.331,0.007,0.663,0.007,0.994
		c0,12.103,0.003,12.032-12.17,11.401c-3.079-0.16-4.669-1.396-4.689-4.452c-0.038-5.468-0.019-10.937-0.004-16.404
		c0.006-2.087,1.112-3.812,3.036-3.99c3.609-0.336,7.289-0.304,10.907-0.021c2.086,0.163,2.89,1.995,2.902,4.021
		C561.121,203.022,561.107,205.839,561.114,208.656z"/>
	<path fill-rule="evenodd" clip-rule="evenodd" fill="#F8F8F8" d="M530.121,208.734c0,0.331,0,0.663,0,0.994
		c0,12.094,0.004,12.023-12.248,11.323c-3.112-0.179-4.6-1.506-4.616-4.529c-0.029-5.303-0.028-10.605-0.002-15.908
		c0.015-3.012,1.542-4.615,4.593-4.61C531.615,196.025,530.109,194.594,530.121,208.734z"/>
	<path fill-rule="evenodd" clip-rule="evenodd" fill="#F8F8F8" d="M464.12,208.554c0.001,0.331-0.002,0.663,0.001,0.994
		c0.113,12.935,0.863,11.384-12.562,11.457c-2.919,0.016-4.262-1.555-4.291-4.302c-0.057-5.468-0.021-10.937-0.008-16.405
		c0.001-0.489-0.017-1.065,0.218-1.455c3.21-5.345,8.389-2.176,12.654-2.726c3.232-0.417,4.036,2.174,3.994,4.979
		C464.089,203.582,464.119,206.067,464.12,208.554z"/>
	<path fill-rule="evenodd" clip-rule="evenodd" fill="#F8F8F8" d="M433.119,208.911c0.002,0.166,0.002,0.332,0.002,0.497
		c0,12.457-0.117,12.509-12.425,11.638c-2.857-0.202-4.376-1.423-4.419-4.204c-0.082-5.467-0.03-10.937-0.021-16.404
		c0.001-0.492-0.043-1.065,0.18-1.463c3.091-5.527,8.318-2.263,12.558-2.869c3.204-0.458,4.162,1.997,4.131,4.852
		C433.095,203.608,433.118,206.26,433.119,208.911z"/>
	<path fill-rule="evenodd" clip-rule="evenodd" fill="#F8F8F8" d="M54.121,208.219c0,0.497,0,0.994,0,1.491
		c0,12.096,0.004,12.025-12.229,11.342c-3.104-0.174-4.616-1.479-4.635-4.511c-0.032-5.303-0.026-10.605-0.004-15.908
		c0.013-3.007,1.521-4.633,4.576-4.628C55.386,196.027,54.156,194.605,54.121,208.219z"/>
	<path fill-rule="evenodd" clip-rule="evenodd" fill="#F8F8F8" d="M85.121,208.789c0,0.331,0,0.662,0,0.994
		c0,12.03-0.053,12.012-12.302,11.268c-3.137-0.19-4.551-1.582-4.564-4.583c-0.023-5.303-0.033-10.605,0.003-15.907
		c0.021-3.025,1.608-4.567,4.644-4.561C86.598,196.033,85.109,194.59,85.121,208.789z"/>
	<path fill-rule="evenodd" clip-rule="evenodd" fill="#F8F8F8" d="M116.12,208.855c0.001,0.331-0.002,0.662,0.001,0.994
		c0.137,12.66,0.859,11.107-12.863,11.143c-2.4,0.007-3.854-1.32-3.914-3.6c-0.152-5.795-0.071-11.597-0.074-17.396
		c0-0.327-0.008-0.704,0.14-0.974c3.056-5.593,8.298-2.294,12.527-2.922c3.194-0.474,4.212,1.927,4.186,4.8
		C116.099,203.552,116.118,206.204,116.12,208.855z"/>
	<path fill-rule="evenodd" clip-rule="evenodd" fill="#F8F8F8" d="M147.12,208.872c0.001,0.165,0.001,0.331,0.001,0.497
		c0,12.502-0.068,12.507-12.386,11.678c-2.848-0.191-4.408-1.377-4.454-4.165c-0.092-5.467-0.034-10.937-0.025-16.405
		c0.001-0.492-0.051-1.064,0.168-1.465c3.056-5.578,8.298-2.288,12.53-2.909c3.197-0.469,4.198,1.947,4.169,4.815
		C147.098,203.569,147.118,206.221,147.12,208.872z"/>
	<path fill-rule="evenodd" clip-rule="evenodd" fill="#F8F8F8" d="M196.239,208.502c0-0.331,0.006-0.663,0-0.994
		c-0.256-12.934-0.291-11.461,12.63-11.507c2.914-0.011,4.215,1.593,4.231,4.349c0.034,5.468,0.043,10.937-0.005,16.405
		c-0.024,2.791-1.453,4.263-4.331,4.249C194.942,220.941,196.219,222.521,196.239,208.502z"/>
	<path fill-rule="evenodd" clip-rule="evenodd" fill="#F8F8F8" d="M244.12,208.478c0.001,0.331-0.001,0.663,0.001,0.994
		c0.101,12.98,0.903,11.457-12.485,11.538c-2.899,0.018-4.326-1.467-4.362-4.231c-0.071-5.467-0.027-10.937-0.015-16.404
		c0.001-0.491-0.031-1.065,0.197-1.46c3.146-5.443,8.351-2.224,12.602-2.804c3.215-0.439,4.108,2.076,4.068,4.91
		C244.091,203.506,244.119,205.992,244.12,208.478z"/>
	<path fill-rule="evenodd" clip-rule="evenodd" fill="#F8F8F8" d="M275.121,208.726c0,0.331,0,0.663,0,0.994
		c0,12.095,0.004,12.024-12.239,11.332c-3.108-0.177-4.606-1.494-4.624-4.521c-0.031-5.303-0.027-10.605-0.004-15.908
		c0.014-3.01,1.533-4.623,4.585-4.619C276.616,196.024,275.11,194.594,275.121,208.726z"/>
	<path fill-rule="evenodd" clip-rule="evenodd" fill="#F8F8F8" d="M306.121,208.781c0,0.332,0,0.663,0,0.995
		c0,12.04-0.045,12.014-12.295,11.274c-3.134-0.189-4.559-1.572-4.571-4.576c-0.023-5.303-0.032-10.605,0.003-15.908
		c0.02-3.023,1.6-4.573,4.638-4.565C307.601,196.032,306.109,194.591,306.121,208.781z"/>
	<path fill-rule="evenodd" clip-rule="evenodd" fill="#F8F8F8" d="M354.239,208.131c0-0.331,0-0.663,0-0.994
		c0-11.729,0.026-11.679,12.008-11.19c3.326,0.136,4.895,1.465,4.876,4.774c-0.027,5.137-0.032,10.274,0.005,15.411
		c0.022,3.225-1.306,4.919-4.735,4.893C352.896,220.921,354.248,222.435,354.239,208.131z"/>
	<path fill-rule="evenodd" clip-rule="evenodd" fill="#F8F8F8" d="M385.239,208.963c0-0.497,0-0.994,0-1.491
		c0-12.093,0.113-12.136,12.171-11.521c3.06,0.156,4.678,1.354,4.692,4.435c0.026,5.469,0.043,10.938-0.01,16.405
		c-0.027,2.804-1.501,4.23-4.365,4.215C384.188,220.932,385.176,222.513,385.239,208.963z"/>
	<path fill-rule="evenodd" clip-rule="evenodd" fill="#F7F7F7" d="M172.862,339.639c0,2.107,0.028,4.215-0.01,6.321
		c-0.025,1.407-0.351,2.737-2.053,2.914c-1.901,0.196-2.187-1.287-2.208-2.619c-0.081-4.825-0.12-9.653-0.012-14.478
		c0.051-2.293,1.378-3.69,3.782-3.762c1.83-0.055,3.663,0.025,5.492-0.028c2.291-0.067,3.887,0.951,4.58,3.086
		c0.71,2.192,0.695,4.694-1.484,5.8c-2.89,1.468-2.172,2.94-0.843,4.85c0.473,0.68,0.851,1.43,1.232,2.168
		c0.812,1.572,2.415,3.452,0.115,4.724c-2.428,1.344-2.947-1.264-3.833-2.701c-1.3-2.105-2.489-4.28-3.726-6.426
		C173.549,339.538,173.206,339.588,172.862,339.639z"/>
	<path fill-rule="evenodd" clip-rule="evenodd" fill="#F8F8F8" d="M310.119,339.732c0,0.5,0,0.999,0,1.498
		c0,8.736-2.48,10.662-11.143,8.768c-2.228-0.488-2.927-1.906-2.921-3.961c0.012-4.327,0.012-8.654,0-12.98
		c-0.007-2.617,1.17-4.066,3.89-4.056c1.165,0.005,2.33-0.005,3.495-0.004c6.558,0.009,6.66,0.111,6.679,6.742
		C310.123,337.07,310.119,338.401,310.119,339.732z"/>
	<path fill-rule="evenodd" clip-rule="evenodd" fill="#F6F6F6" d="M75.544,345.043c-1.212-2.656-5.14-1.894-3.77-4.764
		c1.184-2.481,3.89-1.239,5.867-1.19c3.037,0.075,1.71,2.692,1.771,4.204c0.167,4.167-2.041,5.854-6.2,5.778
		c-4.057-0.074-7.721,0.012-8.122-5.513c-0.367-5.052,0.535-9.477,4.244-13.195c1.49-1.494,2.94-2.717,5.139-2.352
		c1.741,0.29,4.588-1.134,4.776,1.876c0.167,2.686-2.454,1.897-4.15,2.146c-4.104,0.603-7.694,8.687-5.264,12.114
		C71.11,345.947,73.101,344.652,75.544,345.043z"/>
	<path fill-rule="evenodd" clip-rule="evenodd" fill="#F7F7F7" d="M189.757,327.994c4.328,0.076,8.571,4.894,8.907,10.11
		c0.401,6.232-5.554,11.8-11.563,10.918c-2.606-0.383-3.294-1.62-1.659-3.612c3.375-4.114,2.029-8.914,1.009-12.953
		C185.281,327.825,184.523,327.9,189.757,327.994z"/>
	<path fill-rule="evenodd" clip-rule="evenodd" fill="#F7F7F7" d="M371.875,342.025c-0.253,3.837,0.61,7.076-2.636,7.697
		c-3.503,0.67-7.302,1.048-10.617-1.161c-0.726-0.483-1.016-1.323-0.785-2.201c0.315-1.205,1.288-1.48,2.338-1.312
		c1.452,0.233,2.866,0.718,4.32,0.913c1.604,0.215,2.965,0.04,2.913-2.221c-0.04-1.743-0.342-2.643-2.417-2.832
		c-1.648-0.15-4.701,1.599-4.777-1.599c-0.079-3.269-1.924-7.43,1.704-9.701c2.486-1.558,5.792-0.812,8.708-0.188
		c0.411,0.088,0.85,1.038,0.894,1.618c0.064,0.853-0.429,1.675-1.358,1.794c-1.312,0.168-2.648,0.138-3.975,0.188
		c-1.114,0.043-1.877,0.374-1.909,1.718c-0.034,1.389,0.347,2.357,1.896,2.222C371.096,336.53,372.329,339.207,371.875,342.025z"/>
	<path fill-rule="evenodd" clip-rule="evenodd" fill="#F7F7F7" d="M166.916,346.053c0.087,1.565-0.243,2.492-1.359,2.817
		c-1.092,0.317-1.887-0.199-2.415-1.194c-2.211-4.173-4.292-4.139-6.285,0.182c-0.486,1.055-1.43,1.337-2.479,0.927
		c-1.075-0.421-1.533-1.432-1.25-2.42c1.634-5.71,3.187-11.455,5.178-17.042c0.712-1.998,2.884-2.033,3.619,0.135
		C163.828,335.07,165.364,340.809,166.916,346.053z"/>
	<path fill-rule="evenodd" clip-rule="evenodd" fill="#F3F3F3" d="M327.936,349.197c-4.175,1.127-8.444,0.771-12.689,0.823
		c-1.32,0.016-2.308-0.405-2.564-1.779c-0.217-1.155,0.465-2.173,1.504-2.106c3.796,0.239,3.202-2.335,3.191-4.606
		c-0.009-1.829,0.006-3.657-0.01-5.486c-0.013-1.492,0.193-3.111-2.136-3.046c-1.551,0.043-2.696-0.705-2.439-2.369
		c0.268-1.733,1.813-1.652,3.16-1.638c1.661,0.018,3.322,0.055,4.983,0.084c1.172,2.778,0.245,5.698,0.588,8.527
		c0.125,1.03-0.745,2.821,1.576,2.536c2.326-1.206,3.208,0.029,3.652,2.116c0.312,1.472-0.744,3.292,1.093,4.384
		C328.604,347.464,328.601,348.318,327.936,349.197z"/>
	<path fill-rule="evenodd" clip-rule="evenodd" fill="#F3F3F3" d="M353.1,340.137c3.503-1.432,3.676,1.06,3.627,3.306
		c-0.053,2.389,1.64,5.847-2.439,6.446c-3.097,0.456-6.313,0.083-9.478,0.105c-1.193,0.008-1.915-0.641-2.111-1.696
		c-0.265-1.425,0.577-2.321,1.929-2.235c2.765,0.176,3.125-1.558,2.693-3.483c-0.797-3.558,2.895-8.9-3.9-10.228
		c-0.325-0.063-0.695-1.152-0.626-1.711c0.141-1.139,1.036-1.634,2.15-1.633c1.997,0.004,3.995,0.042,5.992,0.065
		c1.216,2.94,0.223,6.021,0.577,9.013C351.627,339.042,351.039,340.646,353.1,340.137z"/>
	<path fill-rule="evenodd" clip-rule="evenodd" fill="#F4F4F4" d="M88.545,349.011c-1.162,0.001-2.325,0.018-3.486-0.003
		c-1.311-0.023-2.92,0.208-3.232-1.53c-0.36-2.01,1.014-2.568,2.747-2.501c2.036,0.078,1.912-1.374,1.923-2.71
		c0.018-2.158-0.01-4.316,0.017-6.474c0.024-2.026,0.321-4.112-2.875-3.854c-1.431,0.116-2.028-1.033-1.835-2.358
		c0.17-1.163,1.109-1.569,2.196-1.571c3.154-0.008,6.308-0.002,9.461,0.021c1.145,0.009,1.923,0.675,2.033,1.745
		c0.109,1.071-0.556,2.167-1.625,2.098c-3.891-0.254-3.048,2.461-3.084,4.636c-0.033,1.991,0.031,3.984-0.012,5.976
		c-0.032,1.493,0.195,2.632,2.106,2.514c1.496-0.092,2.772,0.48,2.634,2.164c-0.137,1.677-1.565,1.881-2.983,1.853
		C91.201,348.988,89.873,349.01,88.545,349.011z"/>
	<path fill-rule="evenodd" clip-rule="evenodd" fill="#F0F0F0" d="M112.073,329.973c3.986-3.607,8.797-1.645,13.247-1.817
		c1.912-0.074,1.226,1.982,1.264,3.167c0.046,1.433-0.565,3.041-2.187,2.571c-3.695-1.068-2.674,1.524-2.732,3.203
		c-0.091,2.645,0.007,5.294-0.039,7.94c-0.027,1.602,0.337,3.769-2,3.83c-2.639,0.069-2.469-2.26-2.384-4.025
		c0.265-5.546,1.237-11.344-6.13-13.363C110.572,330.428,110.837,329.891,112.073,329.973z"/>
	<path fill-rule="evenodd" clip-rule="evenodd" fill="#F7F7F7" d="M112.073,329.973c-0.32,0.502-0.641,1.004-0.961,1.506
		c-2.791,1.367-6.084-0.333-9.452,1.364c1.989,1.667,3.844,1.019,5.498,1.141c1.342,0.099,2.328,0.61,2.365,1.972
		c0.038,1.376-0.961,2.235-2.266,1.988c-5.353-1.017-5.427,2.158-5.216,6.031c0.093,1.719,1.127,4.764-1.802,4.794
		c-3.293,0.034-2.053-3.149-2.137-5.044c-0.17-3.809-0.009-7.63-0.062-11.444c-0.04-2.852,1.209-4.678,4.119-4.207
		C105.472,328.61,109.442,325.958,112.073,329.973z"/>
	<path fill-rule="evenodd" clip-rule="evenodd" fill="#F6F6F6" d="M146.236,349.013c-4.317-0.077-8.857-5.216-9.143-10.134
		c-0.351-6.024,5.381-11.569,11.199-10.905c1.414,0.161,2.783,0.254,2.673,2.115c-0.083,1.429-1.156,1.718-2.429,1.938
		c-6.658,1.155-8.616,5.336-5.286,10.947c0.725,1.222,1.378,2.037,2.999,2.074c1.764,0.04,4.717-1.002,4.601,2.068
		C150.735,350.141,147.762,348.564,146.236,349.013z"/>
	<path fill-rule="evenodd" clip-rule="evenodd" fill="#F3F3F3" d="M327.936,349.197c-0.03-0.854-0.061-1.707-0.091-2.561
		c2.966-5.161,5.937-10.319,8.895-15.485c0.771-1.347,1.614-2.857,3.413-1.802c1.431,0.839,0.998,2.268,0.271,3.509
		c-3.021,5.149-6.032,10.304-9.068,15.444C330.532,349.694,329.575,350.812,327.936,349.197z"/>
	<path fill-rule="evenodd" clip-rule="evenodd" fill="#A3A3A3" d="M353.1,340.137c-0.138,1.626-0.275,3.252-0.412,4.877
		c-2.211-5.191-0.833-10.676-1.751-15.94c2.221,1.611,0.777,3.954,1.175,5.929C352.456,336.71,351.377,338.691,353.1,340.137z"/>
	<path fill-rule="evenodd" clip-rule="evenodd" fill="#A3A3A3" d="M323.1,340.137c-0.137,1.624-0.273,3.248-0.41,4.872
		c-2.208-5.185-0.843-10.669-1.754-15.936c2.223,1.611,0.778,3.954,1.176,5.93C322.456,336.711,321.376,338.691,323.1,340.137z"/>
	<path fill-rule="evenodd" clip-rule="evenodd" fill="#81CCA8" d="M546.08,385.744c4.269-1.185,8.539-1.15,12.812-0.025
		C554.622,386.182,550.352,386.142,546.08,385.744z"/>
	<path fill-rule="evenodd" clip-rule="evenodd" fill="#81CCA8" d="M571.906,329.281c-3.937,1.101-7.873,1.124-11.807-0.016
		C564.036,328.847,567.972,328.829,571.906,329.281z"/>
	<path fill-rule="evenodd" clip-rule="evenodd" fill="#84C6A9" d="M561.016,341.126c2.986-1.729,5.991-1.598,9.011-0.093
		C567.022,341.064,564.02,341.095,561.016,341.126z"/>
	<path fill-rule="evenodd" clip-rule="evenodd" fill="#85C5A9" d="M556.988,374.036c-3.013,1.437-6.017,1.491-9.009-0.062
		C550.982,373.995,553.985,374.016,556.988,374.036z"/>
	<path fill-rule="evenodd" clip-rule="evenodd" fill="#8BC8A3" d="M486.981,349.011c-1.229-1.523-0.93-3.337-0.965-5.087
		C487.102,345.474,487.023,347.246,486.981,349.011z"/>
	<path fill-rule="evenodd" clip-rule="evenodd" fill="#4B4C4C" d="M603.557,347.333c1.029,5.249,1.678,9.778,2.857,14.165
		c0.877,3.259-0.523,3.562-3.146,3.627c-6.583,0.16-6.622,0.231-4.459-5.797C600.169,355.538,601.022,351.528,603.557,347.333z"/>
	<path fill-rule="evenodd" clip-rule="evenodd" fill="#4E4E4E" d="M618.142,208.803c-0.001,1.487-0.132,2.988,0.026,4.458
		c0.299,2.754-1.346,2.846-3.359,2.77c-1.846-0.07-3.75,0.264-3.584-2.631c0.142-2.47,0.006-4.955,0.026-7.433
		c0.021-2.53-0.795-5.185,3.671-5.12c4.397,0.062,3.013,2.812,3.206,4.983C618.216,206.813,618.144,207.812,618.142,208.803z"/>
	<path fill-rule="evenodd" clip-rule="evenodd" fill="#4E4E4E" d="M587.141,208.966c-0.003,1.487-0.115,2.984,0.021,4.459
		c0.271,2.918-1.685,2.549-3.515,2.604c-2.012,0.06-3.6-0.068-3.432-2.792c0.162-2.634,0.071-5.286,0.019-7.929
		c-0.048-2.381-0.33-4.323,3.348-4.463c4.129-0.157,3.612,2.167,3.564,4.651C587.125,206.652,587.144,207.81,587.141,208.966z"/>
	<path fill-rule="evenodd" clip-rule="evenodd" fill="#4E4E4E" d="M556.143,208.371c-0.001,1.487-0.146,2.991,0.03,4.458
		c0.328,2.748-0.971,3.282-3.428,3.249c-2.385-0.032-3.775-0.432-3.536-3.239c0.195-2.296,0.055-4.623,0.032-6.936
		c-0.025-2.619-0.628-5.134,3.744-5.052c4.442,0.083,2.882,2.924,3.142,5.044C556.227,206.709,556.144,207.545,556.143,208.371z"/>
	<path fill-rule="evenodd" clip-rule="evenodd" fill="#4E4E4E" d="M525.142,208.687c-0.001,1.486-0.134,2.988,0.028,4.457
		c0.288,2.609-1.073,2.969-3.243,2.911c-2.158-0.057-3.971,0.011-3.719-3.035c0.204-2.461,0.066-4.953,0.03-7.432
		c-0.035-2.504-0.501-4.751,3.564-4.743c4.264,0.008,3.239,2.588,3.334,4.867C525.178,206.702,525.144,207.694,525.142,208.687z"/>
	<path fill-rule="evenodd" clip-rule="evenodd" fill="#4E4E4E" d="M459.143,208.515c0,1.322-0.078,2.649,0.018,3.964
		c0.163,2.252-0.105,3.761-3.066,3.607c-2.439-0.125-4.219-0.206-3.888-3.392c0.221-2.125-0.076-4.3,0.072-6.438
		c0.159-2.297-1.345-5.331,3.353-5.401c4.597-0.067,3.375,2.789,3.505,5.182C459.182,206.86,459.144,207.688,459.143,208.515z"/>
	<path fill-rule="evenodd" clip-rule="evenodd" fill="#4E4E4E" d="M421.253,207.816c0.007-1.486,0.049-2.975-0.002-4.46
		c-0.105-3.035,2.135-2.226,3.802-2.361c1.812-0.147,3.262,0.001,3.118,2.49c-0.151,2.635-0.016,5.285-0.032,7.929
		c-0.015,2.377,0.766,4.835-3.465,4.746c-4.138-0.088-3.408-2.486-3.426-4.874C421.238,210.13,421.246,208.974,421.253,207.816z"/>
	<path fill-rule="evenodd" clip-rule="evenodd" fill="#4E4E4E" d="M42.253,207.816c0.007-1.486,0.049-2.975-0.002-4.46
		c-0.105-3.035,2.135-2.226,3.802-2.361c1.812-0.147,3.262,0.001,3.119,2.49c-0.152,2.635-0.016,5.285-0.032,7.929
		c-0.015,2.377,0.765,4.835-3.465,4.746c-4.138-0.088-3.408-2.486-3.426-4.874C42.239,210.13,42.246,208.974,42.253,207.816z"/>
	<path fill-rule="evenodd" clip-rule="evenodd" fill="#4E4E4E" d="M73.249,208.181c0.003-1.487,0.109-2.983-0.02-4.459
		c-0.241-2.765,1.491-2.777,3.46-2.752c1.875,0.024,3.693-0.229,3.486,2.648c-0.177,2.466,0.107,4.965-0.076,7.429
		c-0.155,2.087,1.421,4.996-3.056,5.097c-4.28,0.096-3.918-2.278-3.805-4.989C73.281,210.164,73.246,209.172,73.249,208.181z"/>
	<path fill-rule="evenodd" clip-rule="evenodd" fill="#4E4E4E" d="M111.142,208.491c-0.001,1.487-0.148,2.992,0.03,4.458
		c0.354,2.909-1.262,3.074-3.545,3.126c-2.542,0.058-3.627-0.706-3.417-3.356c0.183-2.299,0-4.624,0.046-6.937
		c0.045-2.32-0.855-4.833,3.349-4.941c4.154-0.107,3.57,2.22,3.541,4.677C111.133,206.509,111.143,207.5,111.142,208.491z"/>
	<path fill-rule="evenodd" clip-rule="evenodd" fill="#4E4E4E" d="M142.142,208.561c-0.001,1.487-0.123,2.986,0.026,4.458
		c0.247,2.431-0.785,3.189-3.119,3.03c-2.021-0.137-4.077,0.255-3.834-2.903c0.177-2.299-0.068-4.629,0.06-6.935
		c0.128-2.33-1.266-5.312,3.402-5.356c4.642-0.043,3.27,2.891,3.457,5.229C142.199,206.903,142.144,207.734,142.142,208.561z"/>
	<path fill-rule="evenodd" clip-rule="evenodd" fill="#4E4E4E" d="M208.142,208.691c-0.001,1.486-0.134,2.988,0.028,4.457
		c0.289,2.616-1.088,2.958-3.25,2.906c-2.166-0.052-3.965-0.002-3.712-3.04c0.204-2.462,0.068-4.954,0.03-7.432
		c-0.039-2.511-0.489-4.745,3.57-4.738c4.271,0.007,3.229,2.598,3.328,4.873C208.179,206.707,208.144,207.699,208.142,208.691z"/>
	<path fill-rule="evenodd" clip-rule="evenodd" fill="#4E4E4E" d="M239.143,208.177c0,1.487-0.109,2.983,0.024,4.459
		c0.219,2.438-0.478,3.518-3.228,3.463c-2.657-0.052-4.039-0.574-3.733-3.562c0.218-2.125-0.013-4.293,0.055-6.438
		c0.076-2.428-1.038-5.246,3.53-5.244c4.775,0.001,3.035,3.103,3.34,5.343C239.218,206.845,239.144,207.516,239.143,208.177z"/>
	<path fill-rule="evenodd" clip-rule="evenodd" fill="#4E4E4E" d="M270.142,208.83c-0.001,1.487-0.13,2.988,0.026,4.458
		c0.294,2.78-1.403,2.795-3.385,2.742c-1.874-0.049-3.728,0.206-3.56-2.657c0.145-2.47,0.02-4.955,0.024-7.434
		c0.004-2.563-0.723-5.161,3.701-5.092c4.423,0.07,2.959,2.863,3.177,5.01C270.227,206.839,270.144,207.839,270.142,208.83z"/>
	<path fill-rule="evenodd" clip-rule="evenodd" fill="#4E4E4E" d="M294.253,207.816c0.007-1.486,0.049-2.975-0.002-4.46
		c-0.105-3.035,2.135-2.226,3.802-2.361c1.812-0.147,3.262,0.001,3.118,2.49c-0.151,2.635-0.016,5.285-0.032,7.929
		c-0.015,2.377,0.766,4.835-3.465,4.746c-4.138-0.088-3.408-2.486-3.426-4.874C294.238,210.13,294.246,208.974,294.253,207.816z"/>
	<path fill-rule="evenodd" clip-rule="evenodd" fill="#4E4E4E" d="M366.141,208.936c-0.002,1.486-0.119,2.985,0.022,4.458
		c0.277,2.887-1.623,2.604-3.485,2.636c-1.979,0.034-3.628-0.007-3.461-2.762c0.16-2.634,0.144-5.292-0.001-7.928
		c-0.154-2.819,0.129-4.524,3.838-4.483c3.994,0.044,2.978,2.5,3.079,4.609C366.189,206.62,366.144,207.778,366.141,208.936z"/>
	<path fill-rule="evenodd" clip-rule="evenodd" fill="#4E4E4E" d="M397.143,208.529c-0.002,1.487-0.12,2.986,0.025,4.459
		c0.235,2.389-0.715,3.241-3.088,3.059c-1.99-0.153-4.099,0.314-3.863-2.87c0.17-2.301-0.082-4.631,0.061-6.935
		c0.144-2.308-1.321-5.326,3.367-5.387c4.61-0.06,3.342,2.822,3.49,5.196C397.187,206.875,397.144,207.703,397.143,208.529z"/>
	<path fill-rule="evenodd" clip-rule="evenodd" fill="#4A4A4A" d="M179.526,332.746c-3.09,1.594-4.773,1.313-7.49,0.675
		C174.587,331.479,176.343,331.984,179.526,332.746z"/>
	<path fill-rule="evenodd" clip-rule="evenodd" fill="#505050" d="M306.014,340.2c-1.362,1.479,2.674,5.709-2.762,5.834
		c-1.945,0.044-3.173-0.33-3.034-2.656c0.127-2.129,0.071-4.273,0.007-6.409c-0.067-2.257-0.21-4.113,3.159-4.082
		c3.404,0.031,2.524,2.166,2.62,3.964C306.057,337.834,306.014,338.823,306.014,340.2z"/>
	<path fill-rule="evenodd" clip-rule="evenodd" fill="#707070" d="M192.91,341.963c-0.366,0.704-0.732,1.408-1.098,2.111
		c-0.271-0.015-0.542-0.03-0.812-0.045c0-3.227-0.007-6.453,0.006-9.679c0.002-0.604,0.021-1.603,0.773-1.326
		c0.557,0.205,0.784,1.305,1.158,2.006C192.917,337.342,192.965,339.652,192.91,341.963z"/>
	<path fill-rule="evenodd" clip-rule="evenodd" fill="#4E4E4E" d="M192.91,341.963c-1.383-2.316-1.41-4.627,0.027-6.933
		C194.714,337.349,194.759,339.66,192.91,341.963z"/>
</g>
</svg>
