<?xml version="1.0" encoding="utf-8"?>
<!-- Generator: Adobe Illustrator 16.0.0, SVG Export Plug-In . SVG Version: 6.00 Build 0)  -->
<!DOCTYPE svg PUBLIC "-//W3C//DTD SVG 1.1//EN" "http://www.w3.org/Graphics/SVG/1.1/DTD/svg11.dtd">
<svg version="1.1" id="Layer_1" xmlns="http://www.w3.org/2000/svg" xmlns:xlink="http://www.w3.org/1999/xlink" x="0px" y="0px"
	 width="2700px" height="6000px" viewBox="0 0 2700 6000" enable-background="new 0 0 2700 6000" xml:space="preserve">
<g>
	<path fill="#A3CFEE" d="M2656,2842.798c0,34.667,0,69.333,0,104c-0.977,0.243-1.641,0.77-1.381,1.869
		c0.16,0.674,0.707,0.696,1.381,0.131c0,6,0,12,0,18c-0.707-0.133-1.613-0.787-1.785,0.595c-0.178,1.409,0.295,2.074,1.785,1.405
		c0,9.333,0,18.667,0,28c-1.062-1.451-2.234-1.286-2.801,0.229c-0.559,1.504-0.736,3.196-0.834,4.82
		c-1.264,21.095-3.648,42.068-6.74,62.965c-0.652-0.089-1.279,0.001-1.879,0.269c-2.781-2.841-5.559-5.685-8.344-8.521
		c-15.039-15.322-29.502-31.215-45.258-45.828c-5.4-5.939-10.799-11.879-16.199-17.817c0.66-4.599,2.053-9.229,1.855-13.789
		c-0.951-22.005,2.432-43.841,2.191-65.806c-0.154-13.995,1.283-28.169-0.479-41.945c-2.457-19.209-0.627-38.501-3.139-57.707
		c-1.451-11.095-1.822-22.536-2.98-33.71c-1.912-18.444-4.342-36.879-7.027-55.269c-4.662-31.917-10.578-63.57-17.812-94.964
		c-10.844-47.054-24.291-93.359-40.693-138.823c-12.211-33.844-25.455-67.27-40.896-99.719
		c-17.885-37.578-36.473-74.832-57.967-110.568c-20.939-34.815-43.016-68.845-67.355-101.379
		c-17.717-23.683-35.697-47.118-55.152-69.474c-15.715-18.058-31.578-35.983-48.088-53.266
		c-23.211-24.296-47.492-47.5-72.854-69.657c-24.047-21.011-48.73-41.142-74.17-60.368c-28.393-21.458-57.74-41.489-87.916-60.448
		c-23.695-14.888-47.928-28.7-72.625-41.697c-48.066-25.296-97.346-47.916-148.418-66.639
		c-30.965-11.351-62.254-21.603-93.904-30.746c-32.6-9.418-65.725-16.712-98.994-23.402c-30.625-6.158-61.486-10.839-92.471-14.419
		c-17.438-2.016-34.979-3.588-52.549-4.755c-23.537-1.563-47.083-3.09-70.639-3.356c-22.256-0.251-44.505-0.41-66.833,1.296
		c-21.488,1.642-43.064,2.441-64.593,4.223c-24.504,2.026-48.84,5.319-73.127,8.749c-29.271,4.133-58.247,10.235-87.039,17.053
		c-46.994,11.126-93.368,24.312-138.798,40.814c-36.315,13.192-72.157,27.522-106.89,44.422
		c-49.101,23.89-97.622,48.838-143.159,79.269c-19.643,13.128-39.17,26.411-58.373,40.147
		c-41.418,29.625-80.047,62.725-117.264,97.377c-24.844,23.132-48.696,47.388-71.011,73.021
		c-5.021,5.767-10.405,11.221-15.201,17.162c-13.35,16.542-27.067,32.775-40.195,49.513
		c-26.318,33.555-50.454,68.604-73.159,104.635c-26.486,42.031-49.221,86.153-70.489,130.998
		c-9.833,20.732-18.95,41.856-27.298,63.229c-11.499,29.441-22.256,59.157-31.475,89.451
		c-12.213,40.134-22.835,80.645-30.857,121.788c-5.27,27.03-9.476,54.277-13.689,81.5c-2.027,13.102-3.51,26.341-4.235,39.572
		c-0.619,11.281-1.478,22.618-2.749,33.744c-2.384,20.874-1.53,41.812-2.945,62.688c-1.386,20.457-0.338,41.15,0.914,61.802
		c1.245,20.525,2.648,41.141,2.863,61.759c-6.082,7.194-12.164,14.389-18.247,21.583c-10.162,10.854-20.265,21.765-30.502,32.548
		c-9.32,9.818-17.607,20.611-27.88,29.527c-0.364-0.536-0.98-1.039-1.055-1.612c-4.443-34.066-8.118-68.214-10.588-102.485
		c0.117-0.271,0.384-0.587,0.321-0.808c-0.157-0.547-0.465-1.051-0.712-1.572c-2.297-0.848-3.609-0.217-3.6,2.397
		c0-5.333,0-10.667,0-16c0.915,1.552,3.012,2.639,3.083,0.417c0.22-6.88-0.434-13.794-0.931-20.681
		c-0.045-0.627-1.403-1.16-2.151-1.736c0-34.667,0-69.333,0-104c5.147-7.257,2.284-15.281,1.96-23.001
		c-0.046-1.091-1.248,0.661-1.96,1.001c0-0.667,0-1.333,0-2c0.787,0.063,1.485,1.176,2.37,0.165c0.699-0.798,0.699-1.532,0-2.33
		c-0.885-1.011-1.583,0.102-2.37,0.165c0-0.667,0-1.333,0-2c1.413,1.561,2.892,1.678,3.327-0.557
		c0.429-2.201,0.157-4.539,0.192-6.816c0.107-0.855,0.214-1.71,0.322-2.564c0.606-5.93,1.5-11.846,1.769-17.791
		c1.032-22.877,3.841-45.61,7.029-68.215c7.735-54.854,18.444-109.14,32.801-162.719c20.873-77.897,48.754-153.164,83.458-225.896
		c23.654-49.575,50.468-97.425,80.233-143.62c48.607-75.438,104.652-144.911,167.295-209.099
		c18.362-18.815,37.667-36.654,57.176-54.283c43.229-39.062,88.933-74.977,137.057-107.777
		c58.616-39.952,120.082-74.926,184.418-104.884c41.58-19.361,84.029-36.535,127.366-51.471
		c55.7-19.196,112.493-34.493,170.311-45.846c42.06-8.258,84.384-14.83,127.12-18.498c10.91-0.937,21.825-1.818,32.727-2.843
		c1.685-0.158,4.958,0.815,3.4-3.122c60.667,0,121.333,0,182,0c-1.402,1.168-1.119,2.355,0.445,2.72
		c1.916,0.446,3.959,0.342,5.945,0.486c24.162,1.754,48.262,4.196,72.271,7.386c56.354,7.484,112.01,18.472,166.992,33.042
		c77.916,20.648,153.201,48.423,225.916,83.054c65.227,31.064,127.434,67.426,186.645,108.892
		c59.752,41.842,115.402,88.585,167.658,139.418c15.025,14.617,29.203,30.056,43.496,45.388
		c30.391,32.599,58.748,66.894,85.414,102.562c53.705,71.84,99.611,148.364,137.518,229.708
		c19.514,41.877,36.895,84.592,51.898,128.257c18.463,53.729,33.381,108.43,44.547,164.178
		c8.66,43.242,15.504,86.712,19.689,130.616c0.754,7.921,1.656,15.812,2.035,23.769c0.09,1.857-1.146,5.807,3.529,4.525
		c0,9.333,0,18.667,0,28c-1.039-0.462-1.73-0.091-1.73,1s0.691,1.462,1.73,1c0,6,0,12,0,18
		C2653.514,2841.465,2655.547,2842.131,2656,2842.798z"/>
	<path fill-rule="evenodd" clip-rule="evenodd" fill="#A18261" d="M2631.523,3148.896c-4.916,28.857-12.07,57.22-19.65,85.447
		c-14.236,53.024-31.766,104.963-52.709,155.744c-26.82,65.033-58.52,127.566-95.283,187.544
		c-40.619,66.271-86.951,128.255-138.615,186.331c-23.031,25.89-47.047,50.824-72.1,74.687
		c-67.898,64.672-141.781,121.622-221.941,170.428c-86.498,52.664-177.77,94.918-273.973,126.424
		c-68.059,22.29-137.488,38.971-208.367,49.594c-35.506,5.321-71.068,9.849-106.926,11.942c-2.318,0.135-6.438-1.328-5.959,3.762
		c-52,0-104,0-156,0c0.071-0.944-0.372-1.688-1.282-1.656c-1.013,0.035-1.173,0.797-0.718,1.656c-5.333,0-10.667,0-16,0
		c1.119-4.449-2.439-3.674-4.591-3.761c-8.641-0.353-17.225-1.276-25.834-1.989c-48.437-4.007-96.383-11.337-143.972-21.016
		c-90.988-18.505-178.974-46.564-263.992-83.877c-94.936-41.664-183.59-94.012-266.065-156.826
		c-34.165-26.021-66.901-53.717-98.359-82.972c-69.25-64.4-130.795-135.462-184.565-213.206
		c-30.705-44.395-58.398-90.631-83.417-138.508c-34.94-66.862-63.663-136.27-86.67-208.062
		c-20.228-63.117-35.063-127.536-45.744-192.933c-0.506-3.097-0.354-5.934,0.844-8.771c10.272-8.917,18.56-19.71,27.879-29.528
		c10.237-10.783,20.34-21.693,30.502-32.548c3.593,6.168,4.926,13.185,5.665,19.97c2.88,26.454,7.978,52.54,13.115,78.57
		c5.664,28.699,12.772,57.104,20.635,85.331c12.604,45.244,27.632,89.612,45.215,133.147
		c13.831,34.244,28.809,67.946,46.117,100.596c6.385,12.045,11.777,24.659,18.752,36.34c14.808,24.797,28.152,50.477,45.056,74.034
		c8.917,12.427,16.042,26.166,25.256,38.345c18.84,24.898,37.233,50.139,57.088,74.289c15.835,19.262,31.983,38.299,49.281,56.136
		c30.339,31.284,60.779,62.51,94.042,90.874c17.194,14.66,34.25,29.507,52.205,43.168c30.696,23.354,61.847,46.091,94.513,66.74
		c34.072,21.537,69.087,41.356,104.671,60.212c12.944,6.859,26.38,12.747,39.617,19.024c21.974,10.42,44.397,19.803,66.959,28.741
		c25.969,10.288,52.326,19.634,79.009,28.051c23.502,7.415,47.187,14.154,71.006,20.375
		c52.456,13.698,105.712,23.362,159.542,29.674c7.224,0.847,14.389,2.583,21.765,2.414c10.981-0.251,22.013,1.125,32.728,2.587
		c17.222,2.351,34.568,2.16,51.679,2.754c32.848,1.139,65.82,1.782,98.798-0.966c20.137-1.678,40.395-2.196,60.574-4.167
		c22.131-2.16,44.148-4.903,66.178-7.891c31.658-4.292,62.885-10.655,93.941-17.883c48.99-11.4,97.219-25.396,144.523-42.641
		c40.703-14.836,80.684-31.281,119.453-50.597c18.479-9.206,37.021-18.266,55.102-28.305c26.783-14.872,53.16-30.392,78.748-47.199
		c45.334-29.778,88.779-62.059,129.926-97.501c21.426-18.456,42.113-37.668,62.533-57.169c12.49-11.93,24.373-24.514,36.074-37.298
		c16.611-18.147,32.93-36.502,48.896-55.214c17.053-19.982,32.863-40.942,48.623-61.889c17.959-23.867,34.877-48.587,50.258-74.226
		c14.346-23.915,28.363-48.073,41.393-72.722c18.65-35.281,36.209-71.147,51.408-108.085c10.889-26.458,20.91-53.241,29.719-80.495
		c7.576-23.447,15.59-46.766,21.76-70.623c9.406-36.367,18.676-72.79,25.418-109.766c2.854-15.655,4.602-31.514,6.789-47.288
		c1.412-10.184,2.764-20.377,4.018-30.582c0.328-2.658,1.465-4.329,4.082-4.94c15.756,14.613,30.219,30.506,45.258,45.828
		c2.785,2.837,5.562,5.681,8.344,8.521c-0.58,2.245-1.432,4.46-1.703,6.742c-2.82,23.681-6.945,47.142-11.709,70.496
		C2629.84,3144.742,2629.941,3146.916,2631.523,3148.896z"/>
	<path fill-rule="evenodd" clip-rule="evenodd" fill="#444444" d="M44,2820.798c0.712-0.34,1.915-2.092,1.96-1.001
		c0.323,7.72,3.187,15.744-1.96,23.001C44,2835.465,44,2828.131,44,2820.798z"/>
	<path fill-rule="evenodd" clip-rule="evenodd" fill="#444444" d="M44,2946.798c0.748,0.576,2.106,1.109,2.151,1.736
		c0.498,6.887,1.151,13.801,0.931,20.681c-0.071,2.222-2.167,1.135-3.083-0.417C44,2961.465,44,2954.131,44,2946.798z"/>
	<path fill-rule="evenodd" clip-rule="evenodd" fill="#444444" d="M1278,4200.798c-0.455-0.859-0.295-1.621,0.718-1.656
		c0.91-0.031,1.354,0.712,1.282,1.656C1279.333,4200.798,1278.667,4200.798,1278,4200.798z"/>
	<path fill-rule="evenodd" clip-rule="evenodd" fill="#444444" d="M2656,2968.798c-1.49,0.669-1.963,0.004-1.785-1.405
		c0.172-1.382,1.078-0.728,1.785-0.595C2656,2967.465,2656,2968.131,2656,2968.798z"/>
	<path fill-rule="evenodd" clip-rule="evenodd" fill="#444444" d="M2656,2948.798c-0.674,0.565-1.221,0.543-1.381-0.131
		c-0.26-1.1,0.404-1.626,1.381-1.869C2656,2947.465,2656,2948.131,2656,2948.798z"/>
	<path fill-rule="evenodd" clip-rule="evenodd" fill="#444444" d="M2656,2842.798c-0.453-0.667-2.486-1.333,0-2
		C2656,2841.465,2656,2842.131,2656,2842.798z"/>
	<path fill-rule="evenodd" clip-rule="evenodd" fill="#444444" d="M2656,2822.798c-1.039,0.462-1.73,0.091-1.73-1
		s0.691-1.462,1.73-1C2656,2821.465,2656,2822.131,2656,2822.798z"/>
	<path fill-rule="evenodd" clip-rule="evenodd" fill="#444444" d="M44,2816.798c0.787-0.063,1.485-1.176,2.37-0.165
		c0.699,0.798,0.699,1.532,0,2.33c-0.885,1.011-1.583-0.102-2.37-0.165C44,2818.131,44,2817.465,44,2816.798z"/>
	<path fill-rule="evenodd" clip-rule="evenodd" fill="#A68969" d="M2590.145,3010.73c-2.617,0.611-3.754,2.282-4.082,4.94
		c-1.254,10.205-2.605,20.398-4.018,30.582c-2.188,15.774-3.936,31.633-6.789,47.288c-6.742,36.976-16.012,73.398-25.418,109.766
		c-6.17,23.857-14.184,47.176-21.76,70.623c-8.809,27.254-18.83,54.037-29.719,80.495c-15.199,36.938-32.758,72.804-51.408,108.085
		c-13.029,24.648-27.047,48.807-41.393,72.722c-15.381,25.639-32.299,50.358-50.258,74.226
		c-15.76,20.946-31.57,41.906-48.623,61.889c-15.967,18.712-32.285,37.066-48.896,55.214
		c-11.701,12.784-23.584,25.368-36.074,37.298c-20.42,19.501-41.107,38.713-62.533,57.169
		c-41.146,35.442-84.592,67.723-129.926,97.501c-25.588,16.808-51.965,32.327-78.748,47.199
		c-18.08,10.039-36.623,19.099-55.102,28.305c-38.77,19.315-78.75,35.761-119.453,50.597
		c-47.305,17.244-95.533,31.24-144.523,42.641c-31.057,7.228-62.283,13.591-93.941,17.883c-22.029,2.987-44.047,5.73-66.178,7.891
		c-20.18,1.971-40.438,2.489-60.574,4.167c-32.978,2.748-65.95,2.104-98.798,0.966c-17.11-0.594-34.457-0.403-51.679-2.754
		c-10.715-1.462-21.746-2.838-32.728-2.587c-7.376,0.169-14.541-1.567-21.765-2.414c-53.83-6.312-107.086-15.976-159.542-29.674
		c-23.819-6.221-47.504-12.96-71.006-20.375c-26.683-8.417-53.04-17.763-79.009-28.051c-22.562-8.938-44.985-18.321-66.959-28.741
		c-13.237-6.277-26.673-12.165-39.617-19.024c-35.584-18.855-70.599-38.675-104.671-60.212
		c-32.666-20.649-63.817-43.386-94.513-66.74c-17.955-13.661-35.011-28.508-52.205-43.168
		c-33.263-28.364-63.703-59.59-94.042-90.874c-17.298-17.837-33.445-36.874-49.281-56.136
		c-19.854-24.15-38.248-49.391-57.088-74.289c-9.214-12.179-16.339-25.918-25.256-38.345
		c-16.903-23.558-30.248-49.237-45.056-74.034c-6.975-11.681-12.367-24.295-18.752-36.34
		c-17.309-32.649-32.287-66.352-46.117-100.596c-17.583-43.535-32.611-87.903-45.215-133.147
		c-7.863-28.227-14.972-56.632-20.635-85.331c-5.137-26.03-10.235-52.116-13.115-78.57c-0.739-6.785-2.072-13.802-5.665-19.97
		c6.083-7.194,12.165-14.389,18.246-21.584c11.04-10.544,21.109-21.964,30.614-33.894c3.36-3.072,7.525-2.123,11.424-2.138
		c36.563-0.14,73.127-0.204,109.69-0.29c15.977,0.088,31.953,0.251,47.93,0.251c197.431,0.01,394.862-0.005,592.292-0.011
		c2.996,0,5.992,0.013,8.988,0.049c4.621,0.057,3.098,3.152,2.771,5.649l0.062-0.098c-3.028,1.948-5.267,4.49-6.091,8.097l0.088-0.1
		c-3.207,1.805-5.319,4.44-6.132,8.065l0.094-0.103c-3.67,2.595-6.746,5.662-8.046,10.139l0.086-0.099
		c-3.027,1.948-5.266,4.49-6.09,8.097l0.088-0.1c-3.207,1.804-5.319,4.44-6.132,8.065l0.093-0.103
		c-3.021,1.84-5.314,4.206-5.73,7.93c-2.664,2.934-5.532,5.709-7.957,8.828c-11.016,14.17-21.907,28.437-32.843,42.669
		c-48.401,62.998-96.793,126.005-145.21,188.991c-21.066,27.405-42.206,54.755-63.273,82.159
		c-9.118,11.861-18.18,23.766-27.163,35.729c-1.507,2.007-3.93,3.74-2.954,6.96c2.226,7.339,11.471,14.381,19.37,14.423
		c32.608,0.171,65.216,0.291,97.825,0.396c3.629,0.012,7.365,0.479,10.666-1.685c4.149,5.732,8.241,11.502,11.284,17.931
		c0.481,0.566,0.963,1.132,1.444,1.698c0.24,0.643,0.479,1.285,0.719,1.928c0.956,9.428,6.803,16.326,12.201,23.438
		c0.296,0.39,1.212,0.31,1.839,0.447l0.051,0.062c0.26,1.277,0.306,2.646,0.812,3.817c5.35,12.362,13.868,22.852,20.499,34.463
		c1.346,2.355,3.691,3.689,6.542,3.811c1.327,0.972,1.814,2.394,2.096,3.925c-0.077,0.736-0.152,1.471-0.227,2.205
		c1.055,4.917,3.26,9.148,6.005,13.463c5.519,8.673,11.543,17.123,16.433,26.079c7.167,13.127,16.147,25.113,22.942,38.435
		c2.557,5.013,5.673,9.792,8.973,14.36c3.733,5.17,9.02,6.767,14.979,4.774c19.813-6.622,39.388-13.909,59.363-20.116
		c16.712-5.193,32.557-12.965,49.39-18.064c12.596-3.816,25.012-8.331,37.256-13.172c8.072-3.192,16.39-5.438,24.596-8.113
		c3.793-1.236,7.974-2.675,7.791-7.781c-0.165-4.644-3.107-7.11-7.581-7.851c1.157-5.32-0.727-9.526-4.155-13.623
		c-15.083-18.025-30.081-36.124-44.882-54.382c-11.872-14.647-24.685-28.543-35.46-44.074c3.66-0.113,7.327-0.437,10.979-0.31
		c48.258,1.673,96.535,0.352,144.825,1.503c87.895,2.096,175.85,0.474,263.79,2.124c91.571,1.719,183.2-0.493,274.778,2.365
		c3.51,0.109,7.461-1.161,10.178,2.439c-52.949,88.674-105.898,177.346-158.848,266.02c-17.764,29.749-35.541,59.49-53.27,89.259
		c-5.688,9.549-5.625,9.586,5.475,12.219c0.324,0.077,0.654,0.124,0.979,0.199c52.793,12.382,105.6,24.706,158.377,37.162
		c97.096,22.917,194.174,45.917,291.262,68.869c9.883,2.337,9.939,2.318,14.197-6.448c29.242-60.212,58.432-120.449,87.756-180.621
		c2.502-5.134,4.568-10.32,5.727-15.891c3.658-17.593,7.066-35.244,11.107-52.748c1.855-8.034,2.072-16.534,6.146-24.01
		c5.109,2.154,10.443,3.375,15.955,3.863c0.348,1.483,0.695,2.966,1.043,4.448c-0.314,0.428-0.414,0.901-0.295,1.421
		c-0.232,0.323-0.465,0.645-0.699,0.965c0.316-0.238,0.633-0.477,0.949-0.715c0.912-0.512,1.516-1.218,1.463-2.334
		c0.156-2.422,3.045-5.439-1.494-6.834l0.051,0.127c6.121,1.839,6.166-3.746,7.646-6.768
		c21.451-43.812,42.719-87.713,64.025-131.596c4.285-8.824,4.33-8.935-4.297-13.549c-25.75-13.773-51.547-27.456-77.326-41.174
		c3.707-3.387,8.242-1.635,12.412-1.892c7.447-0.459,15.004,0.553,23.18-0.81c-3.336-10.969-6.01-20.764-11.986-29.47
		c-15.641-22.785-31.02-45.75-46.412-68.704c-50.09-74.695-100.098-149.447-150.223-224.119
		c-27.471-40.924-55.115-81.732-82.682-122.592c209.543,0,419.086,0.002,628.629-0.01c4.326,0,8.654-0.164,12.98-0.252
		c37.998-0.004,75.994-0.009,113.99-0.013c6.234-0.754,10.346,1.879,13.629,7.251c4.115,6.736,10.096,11.939,16.316,16.777
		C2579.346,2998.852,2584.744,3004.791,2590.145,3010.73z M1992.596,3901.644c1.283-3.175-0.359-4.998-3.258-5.816
		c-2.512-0.711-5.227-0.735-7.709-1.516c-4.121-1.294-6.77-1.195-7.68,4.1c-1.246,7.25-1.229,8.067,4.254,9.773
		c1.248,0.389,2.586,0.481,3.867,0.775C1990.9,3910.987,1991.631,3910.49,1992.596,3901.644z"/>
	<path fill-rule="evenodd" clip-rule="evenodd" fill="#88BBD8" d="M2573.945,2992.913c-6.221-4.838-12.201-10.041-16.316-16.777
		c-3.283-5.372-7.395-8.005-13.629-7.252c-1.447-18.672,3.848-37.276,1.648-55.757c-2.1-17.664-1.033-35.232-1.65-52.832
		c-0.068-1.997,0.059-4.024-0.234-5.987c-2.992-20.032-3.156-40.312-5.418-60.435c-2.111-18.798-4.514-37.582-7.428-56.215
		c-3.586-22.919-6.768-45.976-12.859-68.495c-4.424-16.354-7.463-33.078-11.547-49.53c-8.754-35.254-20.324-69.653-32.59-103.803
		c-7.646-21.295-14.967-42.819-24.443-63.312c-9.484-20.516-18.154-41.404-28.633-61.539c-12.42-23.866-24.812-47.792-37.938-71.232
		c-13.635-24.35-29.238-47.665-45.008-70.732c-14.996-21.935-31.182-43.063-47.102-64.356
		c-11.348-15.179-24.426-28.936-36.637-43.382c-16.98-20.089-34.238-39.814-52.949-58.289
		c-11.814-11.666-22.904-24.156-35.467-34.94c-8.559-7.347-16.846-15.047-25.42-22.38c-16.662-14.25-33.35-28.453-50.553-42.039
		c-32.125-25.369-65.514-49.035-100.16-70.765c-37.48-23.505-76.016-45.231-115.99-64.364
		c-28.543-13.66-57.604-26.046-86.955-37.808c-20.061-8.039-40.582-14.77-61.004-21.806c-17.314-5.965-34.785-11.404-52.447-16.12
		c-41.123-10.982-82.527-20.815-124.633-27.36c-19.012-2.956-38.051-5.753-57.105-8.428c-4.592-0.645-9.352-0.13-13.934-0.819
		c-12.158-1.829-24.275-3.799-36.643-3.396c-3.986,0.13-8.07,0.312-11.969-0.353c-16.438-2.802-33.135-2.752-49.633-3.254
		c-35.873-1.091-71.738-0.224-107.617,3.183c-22.76,2.161-45.613,3.624-68.344,6.354c-27.372,3.287-54.471,8.305-81.561,13.276
		c-28.457,5.223-56.448,12.532-84.422,19.925c-23.164,6.122-45.959,13.422-68.578,21.176c-19.457,6.67-38.808,13.71-57.87,21.58
		c-31.073,12.829-62.245,25.417-92.127,40.854c-25.718,13.287-51.362,26.777-75.945,42.104
		c-22.854,14.249-45.893,28.287-67.956,43.698c-27.225,19.016-53.803,38.937-79.408,60.209
		c-18.153,15.081-36.237,30.311-53.233,46.538c-34.643,33.076-68.402,67.079-98.995,104.129
		c-17.776,21.528-35.254,43.244-51.868,65.663c-18.624,25.131-35.396,51.493-52.121,77.91c-16.018,25.3-30.42,51.42-44.034,78.075
		c-7.552,14.787-15.135,29.629-22.471,44.483c-9.694,19.631-18.196,40.009-26.115,60.448c-10.444,26.958-20.127,54.229-28.609,81.96
		c-11.975,39.151-22.731,78.553-31.167,118.597c-5.342,25.352-9.116,50.97-13.095,76.562c-2.045,13.151-2.73,26.436-4.693,39.507
		c-2.372,15.793-3.354,31.676-4.827,47.5c-1.505,16.175-0.587,32.49-1.815,48.804c-1.646,21.874-0.448,43.966-0.391,65.964
		c0.013,5.069,0.802,9.977,4.842,13.674c-9.509,11.926-19.579,23.346-30.619,33.89c-0.215-20.617-1.618-41.232-2.863-61.758
		c-1.252-20.651-2.3-41.345-0.914-61.802c1.415-20.877,0.561-41.814,2.945-62.688c1.271-11.126,2.13-22.463,2.749-33.744
		c0.726-13.231,2.208-26.471,4.235-39.572c4.213-27.223,8.419-54.47,13.689-81.5c8.022-41.144,18.644-81.654,30.857-121.788
		c9.219-30.294,19.976-60.01,31.475-89.451c8.348-21.373,17.466-42.497,27.298-63.229c21.269-44.845,44.003-88.967,70.489-130.998
		c22.705-36.03,46.84-71.08,73.159-104.635c13.128-16.737,26.845-32.971,40.195-49.513c4.795-5.941,10.18-11.396,15.201-17.162
		c22.315-25.634,46.167-49.89,71.011-73.021c37.217-34.652,75.846-67.752,117.264-97.377c19.203-13.736,38.729-27.02,58.373-40.147
		c45.537-30.431,94.059-55.379,143.159-79.269c34.732-16.899,70.574-31.229,106.89-44.422
		c45.43-16.502,91.804-29.688,138.798-40.814c28.792-6.817,57.768-12.92,87.039-17.053c24.287-3.43,48.623-6.723,73.127-8.749
		c21.528-1.781,43.104-2.581,64.593-4.223c22.328-1.706,44.577-1.547,66.833-1.296c23.556,0.267,47.102,1.793,70.639,3.356
		c17.57,1.167,35.111,2.739,52.549,4.755c30.984,3.58,61.846,8.261,92.471,14.419c33.27,6.69,66.395,13.984,98.994,23.402
		c31.65,9.144,62.939,19.396,93.904,30.746c51.072,18.723,100.352,41.343,148.418,66.639c24.697,12.997,48.93,26.81,72.625,41.697
		c30.176,18.959,59.523,38.99,87.916,60.448c25.439,19.227,50.123,39.357,74.17,60.368c25.361,22.157,49.643,45.361,72.854,69.657
		c16.51,17.282,32.373,35.208,48.088,53.266c19.455,22.355,37.436,45.791,55.152,69.474c24.34,32.534,46.416,66.563,67.355,101.379
		c21.494,35.736,40.082,72.99,57.967,110.568c15.441,32.449,28.686,65.875,40.896,99.719c16.402,45.464,29.85,91.77,40.693,138.823
		c7.234,31.394,13.15,63.047,17.812,94.964c2.686,18.39,5.115,36.824,7.027,55.269c1.158,11.174,1.529,22.615,2.98,33.71
		c2.512,19.206,0.682,38.498,3.139,57.707c1.762,13.776,0.324,27.95,0.479,41.945c0.24,21.965-3.143,43.801-2.191,65.806
		C2575.998,2983.685,2574.605,2988.314,2573.945,2992.913z"/>
	<path fill-rule="evenodd" clip-rule="evenodd" fill="#959E9D" d="M2631.523,3148.896c-1.582-1.979-1.684-4.153-1.189-6.578
		c4.764-23.354,8.889-46.815,11.709-70.496c0.271-2.282,1.123-4.497,1.703-6.742c0.6-0.267,1.227-0.356,1.879-0.268
		c0.445,10.377-2.357,20.376-3.775,30.514c-2.197,15.727-5.262,31.335-8.08,46.972
		C2633.363,3144.558,2632.289,3146.699,2631.523,3148.896z"/>
	<path fill-rule="evenodd" clip-rule="evenodd" fill="#444444" d="M47.991,2984.78c-0.131-0.793-0.261-1.587-0.392-2.38
		c0.248,0.521,0.555,1.025,0.712,1.572C48.375,2984.193,48.108,2984.509,47.991,2984.78z"/>
	<path fill-rule="evenodd" clip-rule="evenodd" fill="#444444" d="M47.519,2807.425c-0.689-0.956-0.61-1.815,0.322-2.565
		C47.733,2805.715,47.625,2806.569,47.519,2807.425z"/>
	<path fill-rule="evenodd" clip-rule="evenodd" fill="#81BDD3" d="M939.973,2974.836c0.326-2.497,1.85-5.593-2.771-5.649
		c-2.996-0.036-5.992-0.049-8.988-0.049c-197.431,0.006-394.862,0.021-592.292,0.011c-15.977,0-31.953-0.163-47.93-0.251
		c-1.739-16.829-3.414-33.811-3.535-50.586c-0.277-38.242-1.883-76.501,1.121-114.8c1.764-22.498,3.764-44.93,6.192-67.36
		c2.647-24.45,6.559-48.685,11.16-72.797c9.555-50.081,22.88-99.176,39.598-147.36c14.09-40.609,30.201-80.37,49.366-118.852
		c8.163-16.39,16.425-32.727,25.125-48.862c12.022-22.297,25.071-43.949,38.914-65.09c21.677-33.104,44.688-65.238,70-95.771
		c22.729-27.418,46.193-54.062,71.492-79.13c18.907-18.734,38.062-37.135,58.237-54.554c16.111-13.911,32.679-27.21,49.453-40.243
		c24.421-18.975,49.7-36.799,75.886-53.296c17.453-10.995,35.223-21.446,53.195-31.578c15.951-8.992,32.367-17.04,48.648-25.382
		c17.481-8.956,35.378-16.969,53.377-24.763c20.769-8.992,41.908-17.018,63.196-24.76c30.086-10.941,60.757-19.847,91.62-28.016
		c27.601-7.306,55.483-13.693,83.745-18.119c14.752-2.311,29.475-4.903,44.294-6.662c15.143-1.797,30.26-3.71,45.54-4.64
		c17.531-1.067,34.969-3.664,52.611-3.508c15.329,0.136,30.666-0.222,45.987,0.155c5.746,0.142,11.193-2.547,16.781-1.554
		c17.436,3.101,35.119,0.878,52.686,2.969c11.09,1.319,22.586,1.49,33.693,2.932c22.346,2.899,44.736,5.541,67.039,8.956
		c34.576,5.293,68.578,12.943,102.309,21.718c39.588,10.299,78.416,23.17,116.404,38.508c24.078,9.722,48.053,19.59,71.43,30.964
		c18.84,9.165,37.377,18.831,55.723,28.933c20.996,11.561,41.77,23.482,61.828,36.59c34.256,22.386,67.453,46.179,98.998,72.36
		c22.264,18.479,44.416,37.033,64.799,57.553c17.35,17.467,35.189,34.425,51.529,52.953c14.285,16.197,28.541,32.447,42.082,49.218
		c13.549,16.778,26.449,34.133,38.99,51.749c26.109,36.67,49.35,75.084,70.59,114.669c14.477,26.978,27.805,54.576,39.793,82.823
		c21.107,49.745,38.514,100.726,52.1,152.982c10.787,41.495,19.332,83.414,24.619,126.08c2.484,20.059,5.189,40.174,6.812,60.26
		c1.252,15.484,2.959,31.069,2.705,46.749c-0.441,27.32-0.109,54.653-0.139,81.981c-0.004,3.325,0.104,6.705-0.418,9.967
		c-2.469,15.447-1.588,31.139-3.557,46.613c-4.326,0.088-8.654,0.252-12.98,0.252c-209.543,0.012-419.086,0.01-628.631,0.009
		c-0.314-0.95-0.396-2.081-0.977-2.817c-3.047-3.865-3.217-7.113,1.531-9.766c1.135-0.634,1.863-2.016,3.008-2.604
		c7.354-3.771,8.303-10.082,8.135-17.589c-0.443-19.615-1.113-39.222-1.688-58.824c-1.854-63.241,0.498-126.517-1.963-189.812
		c-2.523-64.871,0.375-129.845-1.963-194.805c-1.941-53.928-0.465-107.979-0.504-161.975c-0.002-2.666-0.102-5.335-0.021-7.998
		c0.152-5.001-2.709-7.314-7.199-7.901c-6.912-0.904-13.842-2.12-20.783-2.271c-54.932-1.187-109.875-0.679-164.822-1.469
		c-160.908-2.312-321.864,1.118-482.79-2.385c-41.311-0.899-82.671,0.439-123.981-0.468c-13.662-0.301-24.446,4.157-35.081,11.407
		c-3.705,2.525-5.664,5.358-5.41,9.838c0.17,2.989,0.021,5.997,0.021,8.997c-0.003,202.653-0.005,405.307-0.009,607.96
		c0,2.667,0.422,5.421-0.098,7.984C952.059,2963.275,949.107,2971.221,939.973,2974.836z"/>
	<path fill-rule="evenodd" clip-rule="evenodd" fill="#B5C7C6" d="M939.973,2974.836c9.135-3.615,12.086-11.561,13.832-20.173
		c0.52-2.563,0.098-5.317,0.098-7.984c0.004-202.653,0.006-405.307,0.009-607.96c0-3,0.148-6.008-0.021-8.997
		c-0.254-4.479,1.705-7.312,5.41-9.838c10.635-7.25,21.419-11.708,35.081-11.407c41.311,0.907,82.671-0.432,123.981,0.468
		c160.926,3.503,321.882,0.072,482.79,2.385c54.947,0.79,109.891,0.282,164.822,1.469c6.941,0.15,13.871,1.366,20.783,2.271
		c4.49,0.587,7.352,2.9,7.199,7.901c-0.08,2.663,0.02,5.332,0.021,7.998c0.039,53.996-1.438,108.047,0.504,161.975
		c2.338,64.96-0.561,129.934,1.963,194.805c2.461,63.295,0.109,126.57,1.963,189.812c0.574,19.603,1.244,39.209,1.688,58.824
		c0.168,7.507-0.781,13.817-8.135,17.589c-1.145,0.588-1.873,1.97-3.008,2.604c-4.748,2.652-4.578,5.9-1.531,9.766
		c0.58,0.736,0.662,1.867,0.977,2.817c27.568,40.86,55.213,81.669,82.684,122.593c50.125,74.672,100.133,149.424,150.223,224.119
		c15.393,22.954,30.771,45.919,46.412,68.704c5.977,8.706,8.65,18.501,11.986,29.47c-8.176,1.362-15.732,0.351-23.18,0.81
		c-4.17,0.257-8.705-1.495-12.412,1.892c-16.764-8.753-33.586-17.391-50.277-26.279c-46.973-25.015-93.895-50.128-140.83-75.213
		c-26.402-14.111-52.787-28.254-79.195-42.354c-3.521-1.881-7.113-3.634-10.709-5.37c-3.619-1.748-6.496-0.663-8.523,2.639
		c-2.611,4.25-5.072,8.593-7.629,12.875c-26.252,43.948-52.51,87.893-78.766,131.838c-2.717-3.601-6.668-2.33-10.178-2.439
		c-91.578-2.858-183.207-0.646-274.778-2.365c-87.94-1.65-175.896-0.028-263.79-2.124c-48.29-1.151-96.567,0.17-144.825-1.503
		c-3.651-0.127-7.318,0.196-10.975,0.311c-1.401-1.398-2.94-2.689-4.192-4.215c-25.356-30.9-50.704-61.808-75.994-92.762
		c-8.857-10.842-10.396-11.435-23.829-7.264c-43.546,13.521-87.082,27.075-130.619,40.627c-1.906,0.594-3.841,1.156-5.661,1.961
		c-4.037,1.784-5.521,4.676-3.241,8.792c1.611,2.911,3.33,5.769,5.098,8.589c8.491,13.549,17.015,27.076,25.526,40.611
		c-3.301,2.164-7.037,1.696-10.666,1.685c-32.608-0.105-65.217-0.226-97.825-0.396c-7.898-0.042-17.144-7.084-19.37-14.423
		c-0.976-3.22,1.447-4.953,2.954-6.96c8.982-11.963,18.044-23.867,27.163-35.729c21.067-27.404,42.207-54.754,63.273-82.159
		c48.417-62.986,96.809-125.993,145.21-188.991c10.936-14.232,21.827-28.499,32.843-42.669c2.425-3.119,5.293-5.895,7.956-8.826
		c4.78-0.568,5.814-3.847,5.731-7.932l-0.093,0.103c4.869-0.541,6.191-3.778,6.132-8.065c0,0-0.088,0.1-0.087,0.1
		c4.858-0.572,6.177-3.806,6.089-8.097l-0.086,0.099c5.612-1.055,8.089-4.597,8.046-10.139l-0.094,0.103
		c4.869-0.541,6.191-3.778,6.132-8.065c0,0-0.088,0.1-0.087,0.1c4.858-0.572,6.176-3.806,6.09-8.097L939.973,2974.836z
		 M1001.934,2392.415c-0.136,0.718-0.271,1.437-0.406,2.154c-1.548,16.271-0.924,32.604-1.039,48.896
		c-0.89,125.624-1.51,251.251-2.191,376.877c-0.124,22.994-0.168,45.988-0.202,68.982c-0.014,9.14,0.045,9.141,9.411,9.286
		c1,0.016,1.999,0.014,2.999,0.022c73.977,0.649,147.957,0.151,221.933,1.264c49.979,0.751,99.971,0.712,149.957,0.88
		c60.982,0.206,121.965,0.258,182.947,0.375c2.014,1.31,4.102,1.219,6.232,0.327c6.254,0.818,12.516,0.873,18.785,0.204
		c23.809,1.445,47.627,1.192,71.449,0.406c27.369,0.807,54.738,0.707,82.109,0.188c4.312,0.148,8.623,0.335,12.938,0.433
		c3.256,0.074,4.893-1.518,4.797-4.856c-0.076-2.658-0.027-5.319-0.055-7.979c-0.301-28.924-0.762-57.847-0.875-86.771
		c-0.27-69.165-0.355-138.332-0.572-207.498c-0.031-9.631-0.395-19.261-0.604-28.892c0.9-46.727-0.203-93.443-0.629-140.164
		c-0.096-10.594-0.514-21.185-0.783-31.777c0.303-0.652,0.273-1.289-0.088-1.911c3.746-5.115,1.844-10.981,1.92-16.479
		c0.234-17.021,1.365-15.657-15.533-15.658c-242.945-0.014-485.892-0.006-728.837-0.001c-2.333,0-4.668,0.103-6.997,0.025
		c-4.66-0.155-6.569,2.12-6.533,6.68C1002.133,2375.756,1001.989,2384.085,1001.934,2392.415z M1366.709,3360.797
		c74.301,0,148.602,0.021,222.902-0.052c4.229-0.005,9.959,1.986,12.344-1.43c2.92-4.182-2.598-7.364-4.779-10.836
		c-0.176-0.281-0.324-0.582-0.461-0.885c-10.789-23.628-25.678-44.974-37.842-67.869c-9.488-17.855-20.189-35.171-29.598-53.094
		c-4.736-9.021-10.232-12.082-20.232-12.042c-87.959,0.358-175.921,0.208-263.882,0.208c-8.329,0-16.665,0.184-24.987-0.063
		c-4.907-0.146-7.9,1.609-10.283,6.055c-6.284,11.722-13.315,23.042-19.6,34.763c-7.359,13.729-16.479,26.439-23.598,40.241
		c-9.458,18.337-20.438,35.767-30.474,53.749c-1.723,3.086-6.203,6.039-4.455,9.319c2.064,3.872,7.257,1.857,11.044,1.862
		C1217.441,3360.823,1292.075,3360.798,1366.709,3360.797z M1357.091,3194.803c176.29,0,352.579,0,528.868-0.001
		c3,0,6.004,0.107,8.996-0.036c6.689-0.319,7.211-1.194,3.707-6.835c-13.691-22.043-27.447-44.048-41.209-66.049
		c-13.057-20.871-26.148-41.718-39.227-62.576c-14.844-23.678-29.773-47.302-44.465-71.075c-3.309-5.356-7.248-8.446-13.785-7.48
		c-1.957,0.288-3.994,0.043-5.992,0.043c-255.604,0-511.207,0-766.81,0c-2.332,0-4.684,0.189-6.994-0.032
		c-5.991-0.577-10.023,2.196-13.482,6.827c-48.538,64.976-97.154,129.893-145.721,194.849c-2.464,3.295-7.641,6.42-5.042,10.801
		c2.048,3.453,7.42,1.505,11.287,1.507C1003.846,3194.812,1180.468,3194.803,1357.091,3194.803z M1387.377,2332.896
		c-1.81,0.318-4.191,0.811-4.262,3.837c-0.057,2.421,1.763,3.519,3.916,3.584c2.204,0.065,3.844-1.208,4.268-3.4
		C1391.775,2334.445,1390.305,2333.275,1387.377,2332.896z"/>
	<path fill-rule="evenodd" clip-rule="evenodd" fill="#86BBD7" d="M2430.01,2968.897c1.969-15.475,1.088-31.166,3.557-46.613
		c0.521-3.262,0.414-6.642,0.418-9.967c0.029-27.328-0.303-54.661,0.139-81.981c0.254-15.68-1.453-31.265-2.705-46.749
		c-1.623-20.086-4.328-40.201-6.812-60.26c-5.287-42.666-13.832-84.585-24.619-126.08c-13.586-52.257-30.992-103.237-52.1-152.982
		c-11.988-28.247-25.316-55.846-39.793-82.823c-21.24-39.585-44.48-77.999-70.59-114.669c-12.541-17.616-25.441-34.971-38.99-51.749
		c-13.541-16.771-27.797-33.021-42.082-49.218c-16.34-18.528-34.18-35.486-51.529-52.953c-20.383-20.52-42.535-39.073-64.799-57.553
		c-31.545-26.182-64.742-49.975-98.998-72.36c-20.059-13.107-40.832-25.029-61.828-36.59
		c-18.346-10.102-36.883-19.768-55.723-28.933c-23.377-11.374-47.352-21.242-71.43-30.964
		c-37.988-15.338-76.816-28.209-116.404-38.508c-33.73-8.774-67.732-16.425-102.309-21.718c-22.303-3.415-44.693-6.057-67.039-8.956
		c-11.107-1.441-22.604-1.612-33.693-2.932c-17.566-2.091-35.25,0.132-52.686-2.969c-5.588-0.993-11.035,1.695-16.781,1.554
		c-15.321-0.377-30.658-0.02-45.987-0.155c-17.643-0.156-35.08,2.44-52.611,3.508c-15.28,0.93-30.397,2.843-45.54,4.64
		c-14.819,1.759-29.542,4.352-44.294,6.662c-28.262,4.426-56.145,10.813-83.745,18.119c-30.863,8.169-61.534,17.074-91.62,28.016
		c-21.288,7.742-42.428,15.768-63.196,24.76c-17.999,7.794-35.896,15.807-53.377,24.763c-16.281,8.342-32.697,16.39-48.648,25.382
		c-17.973,10.132-35.742,20.583-53.195,31.578c-26.186,16.497-51.465,34.321-75.886,53.296
		c-16.773,13.033-33.341,26.332-49.453,40.243c-20.175,17.419-39.33,35.819-58.237,54.554
		c-25.299,25.067-48.763,51.712-71.492,79.13c-25.312,30.533-48.323,62.667-70,95.771c-13.843,21.141-26.892,42.793-38.914,65.09
		c-8.7,16.136-16.961,32.473-25.125,48.862c-19.166,38.481-35.276,78.242-49.366,118.852
		c-16.718,48.185-30.043,97.279-39.598,147.36c-4.601,24.112-8.512,48.347-11.16,72.797c-2.428,22.431-4.428,44.862-6.192,67.36
		c-3.003,38.299-1.398,76.558-1.121,114.8c0.122,16.775,1.796,33.757,3.535,50.586c-36.563,0.086-73.127,0.15-109.69,0.29
		c-3.899,0.015-8.064-0.935-11.424,2.138c-4.035-3.693-4.825-8.601-4.837-13.67c-0.057-21.998-1.255-44.09,0.391-65.964
		c1.228-16.313,0.31-32.629,1.815-48.804c1.473-15.824,2.455-31.707,4.827-47.5c1.963-13.071,2.648-26.355,4.693-39.507
		c3.979-25.592,7.753-51.21,13.095-76.562c8.437-40.044,19.193-79.445,31.167-118.597c8.481-27.731,18.165-55.002,28.609-81.96
		c7.919-20.439,16.421-40.817,26.115-60.448c7.335-14.854,14.919-29.696,22.471-44.483c13.614-26.655,28.017-52.775,44.034-78.075
		c16.725-26.417,33.498-52.779,52.121-77.91c16.614-22.419,34.092-44.135,51.868-65.663c30.593-37.05,64.352-71.053,98.995-104.129
		c16.996-16.228,35.08-31.457,53.233-46.538c25.605-21.272,52.183-41.193,79.408-60.209c22.063-15.411,45.102-29.449,67.956-43.698
		c24.583-15.327,50.228-28.817,75.945-42.104c29.882-15.438,61.054-28.025,92.127-40.854c19.062-7.87,38.413-14.91,57.87-21.58
		c22.619-7.754,45.414-15.054,68.578-21.176c27.974-7.393,55.965-14.702,84.422-19.925c27.09-4.972,54.188-9.989,81.561-13.276
		c22.73-2.73,45.584-4.193,68.344-6.354c35.879-3.406,71.744-4.273,107.617-3.183c16.498,0.502,33.195,0.452,49.633,3.254
		c3.898,0.665,7.982,0.482,11.969,0.353c12.367-0.403,24.484,1.566,36.643,3.396c4.582,0.689,9.342,0.175,13.934,0.819
		c19.055,2.675,38.094,5.472,57.105,8.428c42.105,6.545,83.51,16.378,124.633,27.36c17.662,4.716,35.133,10.155,52.447,16.12
		c20.422,7.036,40.943,13.767,61.004,21.806c29.352,11.762,58.412,24.147,86.955,37.808c39.975,19.133,78.51,40.859,115.99,64.364
		c34.646,21.729,68.035,45.396,100.16,70.765c17.203,13.586,33.891,27.789,50.553,42.039c8.574,7.333,16.861,15.033,25.42,22.38
		c12.562,10.784,23.652,23.274,35.467,34.94c18.711,18.475,35.969,38.2,52.949,58.289c12.211,14.446,25.289,28.203,36.637,43.382
		c15.92,21.293,32.105,42.422,47.102,64.356c15.77,23.067,31.373,46.383,45.008,70.732c13.125,23.44,25.518,47.366,37.938,71.232
		c10.479,20.135,19.148,41.023,28.633,61.539c9.477,20.493,16.797,42.018,24.443,63.312c12.266,34.149,23.836,68.549,32.59,103.803
		c4.084,16.452,7.123,33.176,11.547,49.53c6.092,22.52,9.273,45.576,12.859,68.495c2.914,18.633,5.316,37.417,7.428,56.215
		c2.262,20.123,2.426,40.402,5.418,60.435c0.293,1.963,0.166,3.99,0.234,5.987c0.617,17.6-0.449,35.168,1.65,52.832
		c2.199,18.48-3.096,37.085-1.648,55.757C2506.004,2968.889,2468.008,2968.894,2430.01,2968.897z"/>
	<path fill-rule="evenodd" clip-rule="evenodd" fill="#F8F8F8" d="M1668.182,3414.88c26.256-43.945,52.514-87.89,78.766-131.838
		c2.557-4.282,5.018-8.625,7.629-12.875c2.027-3.302,4.904-4.387,8.523-2.639c3.596,1.736,7.188,3.489,10.709,5.37
		c26.408,14.101,52.793,28.243,79.195,42.354c46.936,25.085,93.857,50.198,140.83,75.213c16.691,8.889,33.514,17.526,50.277,26.279
		c25.779,13.718,51.576,27.4,77.326,41.174c8.627,4.614,8.582,4.725,4.297,13.549c-21.307,43.883-42.574,87.784-64.025,131.596
		c-1.48,3.021-1.525,8.606-7.646,6.766c-0.197-7.091-0.396-14.178-0.594-21.266c0.588-2.709,1.854-5.467-0.598-8.157
		c-2.811,2.17-4.352,4.78-3.945,8.341c-6.137,5.427-10.701,11.777-11.836,20.143c-4.074,7.476-4.291,15.976-6.146,24.01
		c-4.041,17.504-7.449,35.155-11.107,52.748c-1.158,5.57-3.225,10.757-5.727,15.891c-29.324,60.172-58.514,120.409-87.756,180.621
		c-4.258,8.767-4.314,8.785-14.197,6.448c-97.088-22.952-194.166-45.952-291.262-68.869
		c-52.777-12.456-105.584-24.78-158.377-37.162c-0.324-0.075-0.654-0.122-0.979-0.199c-11.1-2.633-11.162-2.67-5.475-12.219
		c17.729-29.769,35.506-59.51,53.27-89.259C1562.283,3592.226,1615.232,3503.554,1668.182,3414.88z"/>
	<path fill-rule="evenodd" clip-rule="evenodd" fill="#444444" d="M750.723,3403.099c-8.512-13.535-17.035-27.062-25.526-40.611
		c-1.768-2.82-3.486-5.678-5.098-8.589c-2.279-4.116-0.796-7.008,3.241-8.792c1.82-0.805,3.755-1.367,5.661-1.961
		c43.537-13.552,87.073-27.106,130.619-40.627c13.434-4.171,14.972-3.578,23.829,7.264c25.29,30.954,50.638,61.861,75.994,92.762
		c1.252,1.525,2.791,2.816,4.192,4.215c10.771,15.53,23.584,29.426,35.456,44.073c14.801,18.258,29.799,36.356,44.882,54.382
		c3.429,4.097,5.312,8.303,4.154,13.623c-0.979,0.19-1.992,0.273-2.927,0.589c-55.396,18.704-110.781,37.439-166.178,56.142
		c-13.252,4.474-16.113,3.374-23.7-8.588c-12.812-20.195-25.62-40.393-38.505-60.541c-2.12-3.315-3.202-7.398-6.835-9.649
		c-0.59-0.725-1.181-1.448-1.771-2.172c-0.284-1.53-0.771-2.952-2.099-3.924c-6.863-14.56-16.334-27.51-25.288-40.773
		c-0.472-0.698-1.693-0.89-2.565-1.317c0,0-0.051-0.062-0.052-0.06c-2.6-9.184-7.776-16.854-14.039-23.888
		c-0.239-0.643-0.479-1.285-0.715-1.926c-0.48-0.565-0.964-1.133-1.448-1.7C758.964,3414.601,754.872,3408.831,750.723,3403.099z"/>
	<path fill-rule="evenodd" clip-rule="evenodd" fill="#A18261" d="M809.983,3496.789c3.633,2.251,4.715,6.334,6.835,9.649
		c12.885,20.148,25.693,40.346,38.505,60.541c7.587,11.962,10.448,13.062,23.7,8.588c55.396-18.702,110.782-37.438,166.178-56.142
		c0.935-0.315,1.948-0.398,2.927-0.589c4.475,0.74,7.417,3.207,7.582,7.851c0.183,5.106-3.998,6.545-7.791,7.781
		c-8.206,2.676-16.523,4.921-24.596,8.113c-12.244,4.841-24.66,9.355-37.256,13.172c-16.833,5.1-32.678,12.871-49.39,18.064
		c-19.976,6.207-39.55,13.494-59.363,20.116c-5.959,1.992-11.245,0.396-14.979-4.774c-3.3-4.568-6.416-9.348-8.973-14.36
		c-6.795-13.321-15.775-25.308-22.942-38.435c-4.89-8.956-10.914-17.406-16.433-26.079c-2.745-4.314-4.95-8.546-6.005-13.463
		C808.65,3496.812,809.316,3496.8,809.983,3496.789z"/>
	<path fill-rule="evenodd" clip-rule="evenodd" fill="#AFBDBC" d="M2037.09,3608.89c1.135-8.365,5.699-14.716,11.836-20.143
		c1.514-0.062,3.029-0.123,4.543-0.184c0.197,7.088,0.396,14.175,0.594,21.266c0,0.002-0.051-0.125-0.051-0.125
		c-0.322,1.017-0.645,2.033-0.967,3.049C2047.533,3612.265,2042.199,3611.044,2037.09,3608.89z"/>
	<path fill-rule="evenodd" clip-rule="evenodd" fill="#AFBDBC" d="M1992.596,3901.644c-0.965,8.847-1.695,9.344-10.525,7.316
		c-1.281-0.294-2.619-0.387-3.867-0.775c-5.482-1.706-5.5-2.523-4.254-9.773c0.91-5.295,3.559-5.394,7.68-4.1
		c2.482,0.78,5.197,0.805,7.709,1.516C1992.236,3896.646,1993.879,3898.469,1992.596,3901.644z"/>
	<path fill-rule="evenodd" clip-rule="evenodd" fill="#7E7E7E" d="M778.261,3448.603c0.872,0.428,2.094,0.619,2.565,1.317
		c8.954,13.264,18.425,26.214,25.288,40.773c-2.851-0.121-5.196-1.455-6.542-3.811c-6.631-11.611-15.149-22.101-20.499-34.463
		C778.566,3451.249,778.521,3449.88,778.261,3448.603z"/>
	<path fill-rule="evenodd" clip-rule="evenodd" fill="#7E7E7E" d="M764.171,3424.655c6.262,7.033,11.438,14.704,14.038,23.888
		c-0.626-0.14-1.542-0.06-1.838-0.449C770.973,3440.981,765.126,3434.083,764.171,3424.655z"/>
	<path fill-rule="evenodd" clip-rule="evenodd" fill="#81BDD3" d="M927.993,2990.698c0.043,5.542-2.434,9.084-8.046,10.139
		C921.247,2996.36,924.323,2993.293,927.993,2990.698z"/>
	<path fill-rule="evenodd" clip-rule="evenodd" fill="#81BDD3" d="M907.992,3016.698c0.083,4.085-0.951,7.363-5.731,7.932
		C902.678,3020.904,904.971,3018.538,907.992,3016.698z"/>
	<path fill-rule="evenodd" clip-rule="evenodd" fill="#81BDD3" d="M914.031,3008.735c0.06,4.287-1.263,7.524-6.132,8.065
		C908.712,3013.176,910.824,3010.539,914.031,3008.735z"/>
	<path fill-rule="evenodd" clip-rule="evenodd" fill="#81BDD3" d="M920.033,3000.738c0.088,4.291-1.23,7.524-6.089,8.097
		C914.768,3005.229,917.006,3002.687,920.033,3000.738z"/>
	<path fill-rule="evenodd" clip-rule="evenodd" fill="#81BDD3" d="M940.034,2974.738c0.086,4.291-1.231,7.524-6.09,8.097
		C934.768,2979.229,937.006,2976.687,940.034,2974.738z"/>
	<path fill-rule="evenodd" clip-rule="evenodd" fill="#81BDD3" d="M934.031,2982.735c0.06,4.287-1.263,7.524-6.132,8.065
		C928.712,2987.176,930.824,2984.54,934.031,2982.735z"/>
	<path fill-rule="evenodd" clip-rule="evenodd" fill="#F8F8F8" d="M2053.045,3612.753c0.322-1.016,0.645-2.032,0.967-3.049
		c4.539,1.395,1.65,4.412,1.494,6.832c-0.57,0.012-1.043,0.233-1.418,0.665C2053.74,3615.719,2053.393,3614.236,2053.045,3612.753z"
		/>
	<path fill-rule="evenodd" clip-rule="evenodd" fill="#AFBDBC" d="M2054.088,3617.201c0.375-0.432,0.848-0.653,1.418-0.665
		c0.053,1.118-0.551,1.824-1.463,2.336l-0.252-0.252C2053.674,3618.103,2053.773,3617.629,2054.088,3617.201z"/>
	<path fill-rule="evenodd" clip-rule="evenodd" fill="#AFBDBC" d="M2054.043,3618.872c-0.316,0.238-0.633,0.477-0.949,0.715
		c0.234-0.32,0.467-0.642,0.699-0.965C2053.791,3618.62,2054.043,3618.872,2054.043,3618.872z"/>
	<path fill-rule="evenodd" clip-rule="evenodd" fill="#7E7E7E" d="M809.983,3496.789c-0.667,0.011-1.333,0.022-2,0.034
		c0.074-0.734,0.149-1.469,0.227-2.205C808.803,3495.341,809.394,3496.064,809.983,3496.789z"/>
	<path fill-rule="evenodd" clip-rule="evenodd" fill="#7E7E7E" d="M762.007,3421.029c0.484,0.567,0.968,1.135,1.448,1.7
		C762.97,3422.161,762.488,3421.596,762.007,3421.029z"/>
	<path fill-rule="evenodd" clip-rule="evenodd" fill="#444444" d="M1590.359,2901.683c-6.27,0.669-12.531,0.614-18.783-0.203
		c-2.029-1.003-4.125-0.82-6.234-0.328c-60.982-0.117-121.965-0.169-182.947-0.375c-49.986-0.168-99.978-0.129-149.957-0.88
		c-73.976-1.112-147.956-0.614-221.933-1.264c-1-0.009-1.999-0.007-2.999-0.022c-9.366-0.146-9.425-0.146-9.411-9.286
		c0.034-22.994,0.078-45.988,0.202-68.982c0.682-125.626,1.302-251.253,2.191-376.877c0.115-16.292-0.509-32.625,1.04-48.896
		c45.824,0.069,91.648,0.147,137.474,0.202c21.252,0.025,42.505,0.009,63.758,0.004c3.994-0.001,8.004-0.216,11.146,3.034
		c11.297,11.678,23.642,22.332,34.047,34.881c-21.978,0.054-43.956,0.141-65.935,0.154c-42.293,0.025-84.587-0.026-126.881,0.039
		c-8.967,0.014-9.047,0.241-9.273,8.803c-0.062,2.33-0.015,4.662-0.015,6.994c0,71.267-0.001,142.533,0,213.799
		c0,44.625-0.023,89.25,0.02,133.875c0.01,9.967,0.197,10.053,9.943,10.206c1.998,0.031,3.996,0.006,5.994,0.006
		c83.922,0,167.843-0.007,251.765,0.019c4.656,0.001,9.312,0.27,13.969,0.413c0.045,8.332,0.296,16.671,0.055,24.994
		c-0.142,4.898,1.045,7.713,6.591,6.922c1.633-0.232,3.328-0.031,4.995-0.031c107.333,0,214.665,0.001,321.997-0.003
		c2.666,0,5.332-0.084,7.998-0.063c2.727,0.022,3.033-2.029,3.518-3.959c2.016,0.359,3.689,1.321,5.139,2.764
		c10.744,10.694,22.881,19.89,33.182,31.079c4.674,5.077,10.064,9.451,15.281,13.997c6.578,5.733,14.084,10.978,17.623,19.58
		c-27.371,0.519-54.74,0.618-82.107-0.188c-3.029-1.96-6.441-1.323-9.721-1.336c-17.299-0.064-34.6-0.075-51.9-0.04
		C1596.896,2900.719,1593.518,2900.171,1590.359,2901.683z"/>
	<path fill-rule="evenodd" clip-rule="evenodd" fill="#555555" d="M1743.918,2902.277c-3.539-8.603-11.045-13.847-17.623-19.58
		c-5.217-4.546-10.607-8.92-15.281-13.997c-10.301-11.189-22.438-20.385-33.182-31.079c-1.449-1.442-3.123-2.404-5.139-2.764
		c-0.127-3.32-0.359-6.641-0.363-9.961c-0.027-33.644-0.016-67.288-0.016-100.932c0-79.613,0.006-159.226-0.008-238.839
		c-0.002-10.142-0.049-10.219-9.297-10.218c-111.59,0.014-223.182,0.052-334.772,0.083c1.655-4.705,5.572-2.152,8.262-2.171
		c30.602-0.21,61.206-0.133,91.81-0.133c6.652,0,13.307,0.021,19.959-0.005c11.76-0.047,11.77-0.059,11.852-11.348
		c0.035-4.989,0.033-9.979,0.027-14.969c-0.012-13.584-0.016-13.594-13.605-13.6c-66.196-0.028-132.392-0.052-198.588-0.077
		c-10.405-12.548-22.75-23.202-34.047-34.88c-3.143-3.25-7.152-3.035-11.146-3.034c-21.253,0.005-42.506,0.021-63.758-0.004
		c-45.825-0.055-91.649-0.133-137.474-0.202c0.135-0.718,0.27-1.437,0.405-2.154c3.655,0.116,7.31,0.333,10.965,0.334
		c135.18,0.056,270.358,0.107,405.537,0.126c113.205,0.017,226.408-0.008,339.611-0.015c0.361,0.622,0.391,1.259,0.088,1.911
		c-4.889-0.14-6.209,2.686-6.145,7.024c0.172,11.626,0.939,23.209,1.604,34.808c1.443,25.2,0.061,50.502,2.168,75.766
		c1.244,14.89,0.18,29.967,0.316,44.958c0.031,3.424-1.361,7.629,3.469,9.386c0.209,9.631,0.572,19.261,0.604,28.892
		c0.217,69.166,0.303,138.333,0.572,207.498c0.113,28.925,0.574,57.848,0.875,86.771c0.027,2.66-0.021,5.321,0.055,7.979
		c0.096,3.339-1.541,4.931-4.797,4.856C1752.541,2902.612,1748.23,2902.426,1743.918,2902.277z"/>
	<path fill-rule="evenodd" clip-rule="evenodd" fill="#AFBDBC" d="M1366.709,3360.798c-74.634,0-149.268,0.025-223.9-0.074
		c-3.787-0.005-8.979,2.01-11.044-1.862c-1.748-3.28,2.732-6.233,4.455-9.319c10.036-17.982,21.016-35.412,30.474-53.749
		c7.119-13.802,16.238-26.513,23.598-40.241c6.284-11.721,13.315-23.041,19.6-34.763c2.383-4.445,5.376-6.2,10.283-6.055
		c8.322,0.247,16.658,0.063,24.987,0.063c87.961,0,175.923,0.15,263.882-0.208c10-0.04,15.496,3.021,20.232,12.042
		c9.408,17.923,20.109,35.238,29.598,53.094c12.164,22.896,27.053,44.241,37.842,67.869c0.137,0.303,0.285,0.604,0.461,0.885
		c2.182,3.472,7.699,6.654,4.779,10.836c-2.385,3.416-8.115,1.425-12.344,1.43
		C1515.311,3360.817,1441.01,3360.797,1366.709,3360.798z"/>
	<path fill-rule="evenodd" clip-rule="evenodd" fill="#AFBDBC" d="M1357.091,3194.803c-176.623,0-353.245,0.009-529.868-0.059
		c-3.867-0.002-9.239,1.946-11.287-1.507c-2.599-4.381,2.578-7.506,5.042-10.801c48.566-64.956,97.183-129.873,145.721-194.849
		c3.459-4.631,7.491-7.404,13.482-6.827c2.311,0.222,4.662,0.032,6.994,0.032c255.603,0,511.206,0,766.81,0
		c1.998,0,4.035,0.245,5.992-0.043c6.537-0.966,10.477,2.124,13.785,7.48c14.691,23.773,29.621,47.397,44.465,71.075
		c13.078,20.858,26.17,41.705,39.227,62.576c13.762,22.001,27.518,44.006,41.209,66.049c3.504,5.641,2.982,6.516-3.707,6.835
		c-2.992,0.144-5.996,0.036-8.996,0.036C1709.67,3194.803,1533.381,3194.803,1357.091,3194.803z M855.493,3168.32
		c2.25,0.229,3.558,0.459,4.868,0.479c52.938,0.838,105.87-0.278,158.839,1.452c42.188,1.378,84.513,1.614,126.823-1.025
		c29.883-1.864,59.977-0.421,89.975-0.268c4.942,0.024,10.172,2.333,14.768,1.318c16.224-3.581,32.298,1.258,48.434-0.08
		c5.595-0.464,11.291,0.479,16.942,0.493c27.94,0.07,55.88,0.039,83.821,0.056c25.332,0.015,50.666,0.054,75.998,0.066
		c25,0.013,50,0.004,74.998,0.005c25.334,0.001,50.666,0.001,76,0.002c25.332,0,50.666-0.002,75.998,0.002
		c25,0.003,50.006-0.346,74.996,0.12c25.006,0.467,50.096-2.139,75.078,2.072c0.162-3.495-1.844-5.918-3.26-8.47
		c-15.504-27.938-31.135-55.803-46.652-83.732c-14.064-25.314-28.148-50.62-41.949-76.077c-3.092-5.705-7.104-7.803-13.527-8.063
		c-12.055-0.488-23.875,1.98-35.834,1.986c-179.662,0.085-359.326,0.103-538.99,0.13c-58.332,0.009-116.665,0.094-174.996-0.129
		c-7.074-0.027-11.815,2.215-15.933,7.97c-6.374,8.908-13.539,17.251-20.354,25.844c-30.567,38.539-61.278,76.967-91.542,115.742
		C865.177,3154.385,858.432,3159.296,855.493,3168.32z"/>
	<path fill-rule="evenodd" clip-rule="evenodd" fill="#E0E1E1" d="M1758.047,2392.86c-113.203,0.007-226.406,0.031-339.611,0.015
		c-135.179-0.019-270.357-0.07-405.537-0.126c-3.655-0.001-7.31-0.218-10.965-0.334c0.056-8.33,0.199-16.659,0.133-24.987
		c-0.036-4.56,1.873-6.835,6.533-6.68c2.329,0.077,4.664-0.025,6.997-0.025c242.945-0.005,485.892-0.013,728.837,0.001
		c16.898,0.001,15.768-1.362,15.533,15.658C1759.891,2381.879,1761.793,2387.745,1758.047,2392.86z"/>
	<path fill-rule="evenodd" clip-rule="evenodd" fill="#444444" d="M1759.547,2566.713c-4.83-1.757-3.438-5.962-3.469-9.386
		c-0.137-14.991,0.928-30.068-0.316-44.958c-2.107-25.264-0.725-50.565-2.168-75.766c-0.664-11.599-1.432-23.182-1.604-34.808
		c-0.064-4.339,1.256-7.164,6.145-7.024c0.27,10.593,0.688,21.184,0.783,31.777
		C1759.344,2473.27,1760.447,2519.986,1759.547,2566.713z"/>
	<path fill-rule="evenodd" clip-rule="evenodd" fill="#555555" d="M1590.359,2901.683c3.158-1.512,6.537-0.964,9.83-0.97
		c17.301-0.035,34.602-0.024,51.9,0.04c3.279,0.013,6.691-0.624,9.721,1.336C1637.986,2902.875,1614.168,2903.128,1590.359,2901.683
		z"/>
	<path fill-rule="evenodd" clip-rule="evenodd" fill="#959E9D" d="M1387.377,2332.896c2.928,0.38,4.398,1.55,3.922,4.021
		c-0.424,2.192-2.063,3.466-4.268,3.4c-2.153-0.065-3.973-1.163-3.916-3.584C1383.186,2333.706,1385.567,2333.214,1387.377,2332.896
		z"/>
	<path fill-rule="evenodd" clip-rule="evenodd" fill="#555555" d="M1565.342,2901.151c2.109-0.492,4.205-0.675,6.234,0.328
		C1569.443,2902.37,1567.355,2902.461,1565.342,2901.151z"/>
	<path fill-rule="evenodd" clip-rule="evenodd" fill="#7E7E7E" d="M2053.469,3588.563c-1.514,0.061-3.029,0.122-4.543,0.184
		c-0.406-3.561,1.135-6.171,3.945-8.341C2055.322,3583.097,2054.057,3585.854,2053.469,3588.563z"/>
	<path fill-rule="evenodd" clip-rule="evenodd" fill="#7E7E7E" d="M1247.953,2432.689c66.196,0.025,132.392,0.049,198.588,0.077
		c13.59,0.006,13.594,0.016,13.605,13.6c0.006,4.989,0.008,9.979-0.027,14.969c-0.082,11.289-0.092,11.301-11.852,11.348
		c-6.652,0.025-13.307,0.005-19.959,0.005c-30.604,0-61.208-0.077-91.81,0.133c-2.689,0.019-6.606-2.534-8.262,2.171
		c-0.154,20.607-0.483,41.216-0.433,61.823c0.21,85.792,0.547,171.584,0.779,257.376c0.012,4.275,0.798,8.663-1.044,12.808
		c-4.656-0.144-9.312-0.412-13.969-0.413c-83.922-0.025-167.843-0.019-251.765-0.019c-1.998,0-3.996,0.025-5.994-0.006
		c-9.746-0.153-9.934-0.239-9.943-10.206c-0.043-44.625-0.02-89.25-0.02-133.875c-0.001-71.266,0-142.532,0-213.799
		c0-2.332-0.048-4.664,0.015-6.994c0.227-8.562,0.307-8.789,9.273-8.803c42.294-0.065,84.588-0.014,126.881-0.039
		C1203.997,2432.831,1225.976,2432.744,1247.953,2432.689z"/>
	<path fill-rule="evenodd" clip-rule="evenodd" fill="#E0E1E1" d="M1327.54,2806.998c1.842-4.145,1.056-8.532,1.044-12.808
		c-0.232-85.792-0.569-171.584-0.779-257.376c-0.051-20.607,0.278-41.216,0.433-61.823c111.591-0.031,223.183-0.069,334.772-0.083
		c9.248-0.001,9.295,0.076,9.297,10.218c0.014,79.613,0.008,159.226,0.008,238.839c0,33.644-0.012,67.288,0.016,100.932
		c0.004,3.32,0.236,6.641,0.363,9.961c-0.484,1.93-0.791,3.981-3.518,3.959c-2.666-0.021-5.332,0.063-7.998,0.063
		c-107.332,0.004-214.664,0.003-321.997,0.003c-1.667,0-3.362-0.201-4.995,0.031c-5.546,0.791-6.732-2.023-6.591-6.922
		C1327.836,2823.669,1327.585,2815.33,1327.54,2806.998z M1498.988,2538.741c-43.99,0-87.98-0.021-131.971,0.015
		c-10.744,0.009-10.967,0.181-10.972,10.314c-0.036,87.313-0.037,174.627,0.006,261.94c0.004,9.199,0.484,9.645,9.537,9.709
		c14.663,0.104,29.327,0.03,43.991,0.03c73.648,0,147.299,0.01,220.949-0.012c11.381-0.004,11.482-0.073,11.486-10.807
		c0.029-86.979,0.031-173.96-0.006-260.94c-0.004-9.881-0.33-10.076-10.053-10.245c-1.666-0.029-3.332-0.006-4.998-0.006
		C1584.301,2538.74,1541.645,2538.74,1498.988,2538.741z M1500.965,2524.75c43.988,0,87.977,0.007,131.967-0.004
		c13.082-0.003,13.082-0.026,13.102-13.213c0-0.333,0-0.667,0-1c-0.006-13.771-0.006-13.789-13.529-13.79
		c-86.312-0.006-172.623-0.035-258.936,0.021c-19.431,0.013-17.54-2.271-17.57,17.696c-0.015,9.913,0.318,10.115,10,10.282
		c1.999,0.034,3.999,0.007,5.998,0.007C1414.986,2524.75,1457.975,2524.75,1500.965,2524.75z"/>
	<path fill-rule="evenodd" clip-rule="evenodd" fill="#959E9D" d="M855.493,3168.32c2.938-9.024,9.684-13.936,14.5-20.106
		c30.264-38.775,60.975-77.203,91.542-115.742c6.815-8.593,13.98-16.936,20.354-25.844c4.117-5.755,8.858-7.997,15.933-7.97
		c58.331,0.223,116.664,0.138,174.996,0.129c179.664-0.027,359.328-0.045,538.99-0.13c11.959-0.006,23.779-2.475,35.834-1.986
		c6.424,0.261,10.436,2.358,13.527,8.063c13.801,25.457,27.885,50.763,41.949,76.077c15.518,27.93,31.148,55.795,46.652,83.732
		c1.416,2.552,3.422,4.975,3.26,8.47c-24.982-4.211-50.072-1.605-75.078-2.072c-24.99-0.466-49.996-0.117-74.996-0.12
		c-25.332-0.004-50.666-0.002-75.998-0.002c-25.334-0.001-50.666-0.001-76-0.002c-24.998-0.001-49.998,0.008-74.998-0.005
		c-25.332-0.013-50.666-0.052-75.998-0.066c-27.941-0.017-55.881,0.015-83.821-0.056c-5.651-0.014-11.348-0.957-16.942-0.493
		c-16.136,1.338-32.21-3.501-48.434,0.08c-4.596,1.015-9.825-1.294-14.768-1.318c-29.998-0.153-60.092-1.597-89.975,0.268
		c-42.311,2.64-84.635,2.403-126.823,1.025c-52.969-1.73-105.9-0.614-158.839-1.452
		C859.051,3168.779,857.743,3168.549,855.493,3168.32z"/>
	<path fill-rule="evenodd" clip-rule="evenodd" fill="#F8F8F8" d="M1498.988,2538.74c42.656,0,85.312,0,127.971,0
		c1.666,0,3.332-0.023,4.998,0.006c9.723,0.169,10.049,0.364,10.053,10.245c0.037,86.98,0.035,173.961,0.006,260.94
		c-0.004,10.733-0.105,10.803-11.486,10.807c-73.65,0.021-147.301,0.012-220.949,0.012c-14.664,0-29.328,0.073-43.991-0.03
		c-9.053-0.064-9.533-0.51-9.537-9.709c-0.043-87.313-0.042-174.627-0.006-261.94c0.005-10.134,0.228-10.306,10.972-10.314
		C1411.008,2538.72,1454.998,2538.741,1498.988,2538.74z M1480.139,2594.888c0-0.034,0-0.068,0-0.103
		c-33.598,0-67.197,0-100.796,0.002c-2.328,0-4.658,0.076-6.985,0.017c-3.742-0.096-4.31,2.224-4.092,5.203
		c0.437,5.962,5.084,4.173,8.291,4.175c68.527,0.045,137.057-0.012,205.584-0.107c3.693-0.005,8.693,1.433,8.123-5.292
		c-0.516-6.062-5.279-3.787-8.33-3.801C1548.002,2594.832,1514.07,2594.888,1480.139,2594.888z M1478.059,2584.888
		c0-0.034,0-0.068,0-0.103c-33.619,0-67.238-0.001-100.858,0.004c-2.329,0-4.66,0.001-6.987,0.087
		c-2.207,0.083-2.581,1.658-2.569,3.438c0.012,1.742,0.364,3.507,2.397,3.724c2.636,0.281,5.314,0.209,7.975,0.208
		c66.24-0.026,132.48-0.062,198.721-0.102c2.328-0.002,4.66,0.006,6.988-0.089c2.256-0.091,3.719-1.094,3.822-3.589
		c0.109-2.593-1.33-3.499-3.639-3.532c-2.328-0.033-4.658-0.045-6.988-0.046C1543.965,2584.887,1511.012,2584.888,1478.059,2584.888
		z M1472.252,2566.991c0-0.029,0-0.059,0-0.088c31.988,0,63.977,0.001,95.965-0.003c2.664-0.001,5.332,0.026,7.994-0.093
		c1.754-0.078,3.162-0.718,3.312-2.844c0.184-2.594-1.309-3.556-3.547-3.77c-1.324-0.125-2.664-0.106-3.996-0.107
		c-65.975-0.055-131.949-0.108-197.925-0.132c-1.981-0.001-4.01,0.117-5.927,0.562c-1.398,0.325-1.833,1.713-1.818,3.154
		c0.015,1.466,0.566,2.784,2.01,2.958c2.632,0.317,5.31,0.348,7.968,0.349C1408.277,2566.999,1440.264,2566.991,1472.252,2566.991z
		 M1445.609,2580.991c0-0.029,0-0.059,0-0.088c21.287,0,42.574,0.01,63.861-0.012c2.654-0.003,5.322-0.038,7.959-0.311
		c1.455-0.149,2.092-1.357,2.125-2.84c0.033-1.453-0.434-2.873-1.848-3.099c-2.604-0.415-5.277-0.536-7.922-0.541
		c-42.574-0.079-85.146-0.122-127.72-0.167c-2.327-0.002-4.655,0.027-6.981,0.099c-2.465,0.075-3.477,1.477-3.396,3.849
		c0.068,2.008,1.166,2.955,3.08,3.012c2.326,0.07,4.654,0.094,6.981,0.094C1403.037,2580.994,1424.324,2580.991,1445.609,2580.991z"
		/>
	<path fill-rule="evenodd" clip-rule="evenodd" fill="#F8F8F8" d="M1500.965,2524.75c-42.99,0-85.979,0-128.969,0
		c-1.999,0-3.999,0.027-5.998-0.007c-9.682-0.167-10.015-0.369-10-10.282c0.03-19.967-1.86-17.684,17.57-17.696
		c86.312-0.057,172.623-0.027,258.936-0.021c13.523,0.001,13.523,0.02,13.529,13.79c0,0.333,0,0.667,0,1
		c-0.02,13.187-0.02,13.21-13.102,13.213C1588.941,2524.757,1544.953,2524.75,1500.965,2524.75z"/>
	<path fill-rule="evenodd" clip-rule="evenodd" fill="#555555" d="M1480.139,2594.888c33.932,0,67.863-0.056,101.795,0.094
		c3.051,0.014,7.814-2.262,8.33,3.801c0.57,6.725-4.43,5.287-8.123,5.292c-68.527,0.096-137.057,0.152-205.584,0.107
		c-3.207-0.002-7.854,1.787-8.291-4.175c-0.218-2.979,0.35-5.299,4.092-5.203c2.327,0.06,4.657-0.017,6.985-0.017
		c33.599-0.002,67.198-0.002,100.796-0.002C1480.139,2594.819,1480.139,2594.854,1480.139,2594.888z"/>
	<path fill-rule="evenodd" clip-rule="evenodd" fill="#555555" d="M1478.059,2584.888c32.953,0,65.906-0.001,98.861,0.001
		c2.33,0.001,4.66,0.013,6.988,0.046c2.309,0.033,3.748,0.939,3.639,3.532c-0.104,2.495-1.566,3.498-3.822,3.589
		c-2.328,0.095-4.66,0.087-6.988,0.089c-66.24,0.039-132.48,0.075-198.721,0.102c-2.66,0.001-5.339,0.073-7.975-0.208
		c-2.033-0.217-2.386-1.981-2.397-3.724c-0.012-1.78,0.362-3.355,2.569-3.438c2.327-0.086,4.658-0.087,6.987-0.087
		c33.62-0.005,67.239-0.004,100.858-0.004C1478.059,2584.819,1478.059,2584.854,1478.059,2584.888z"/>
	<path fill-rule="evenodd" clip-rule="evenodd" fill="#555555" d="M1472.252,2566.991c-31.988,0-63.975,0.008-95.964-0.013
		c-2.658-0.001-5.336-0.031-7.968-0.349c-1.443-0.174-1.995-1.492-2.01-2.958c-0.015-1.441,0.42-2.829,1.818-3.154
		c1.917-0.445,3.945-0.563,5.927-0.562c65.976,0.023,131.95,0.077,197.925,0.132c1.332,0.001,2.672-0.018,3.996,0.107
		c2.238,0.214,3.73,1.176,3.547,3.77c-0.15,2.126-1.559,2.766-3.312,2.844c-2.662,0.119-5.33,0.092-7.994,0.093
		c-31.988,0.004-63.977,0.003-95.965,0.003C1472.252,2566.933,1472.252,2566.962,1472.252,2566.991z"/>
	<path fill-rule="evenodd" clip-rule="evenodd" fill="#555555" d="M1445.609,2580.991c-21.285,0-42.572,0.003-63.859-0.004
		c-2.327,0-4.655-0.023-6.981-0.094c-1.914-0.057-3.012-1.004-3.08-3.012c-0.081-2.372,0.931-3.773,3.396-3.849
		c2.326-0.071,4.654-0.101,6.981-0.099c42.573,0.045,85.146,0.088,127.72,0.167c2.645,0.005,5.318,0.126,7.922,0.541
		c1.414,0.226,1.881,1.646,1.848,3.099c-0.033,1.482-0.67,2.69-2.125,2.84c-2.637,0.272-5.305,0.308-7.959,0.311
		c-21.287,0.021-42.574,0.012-63.861,0.012C1445.609,2580.933,1445.609,2580.962,1445.609,2580.991z"/>
</g>
</svg>
