<?xml version="1.0" encoding="utf-8"?>
<!-- Generator: Adobe Illustrator 16.0.0, SVG Export Plug-In . SVG Version: 6.00 Build 0)  -->
<svg version="1.2" baseProfile="tiny" id="Layer_1" xmlns="http://www.w3.org/2000/svg" xmlns:xlink="http://www.w3.org/1999/xlink"
	 x="0px" y="0px" width="1280px" height="800px" viewBox="0 0 1280 800" overflow="auto" xml:space="preserve">
<g>
	<path fill="#FDFDFD" d="M643.535,893.658c-165.167,0-330.333-0.014-495.5,0.094c-3.75,0.004-4.594-0.844-4.593-4.594
		c0.101-330.332,0.101-660.667,0-991c-0.001-3.749,0.844-4.595,4.593-4.593c330.333,0.101,660.668,0.101,991,0
		c3.75-0.002,4.594,0.844,4.594,4.593c-0.102,330.333-0.102,660.667,0,991c0.002,3.75-0.844,4.598-4.594,4.594
		C973.869,893.645,808.703,893.658,643.535,893.658z"/>
	<path fill-rule="evenodd" fill="#46BB6D" d="M906.65,409.564c7.463,4.322,14.928,8.643,22.389,12.969
		c2.803,1.625,5.762,3.062,7.416,6.088c-4.225,0.48-6.377,3.404-8.422,6.738c-22.908,37.336-46.33,74.352-69.959,111.234
		c-3.682,5.746-7.443,11.443-11.143,17.18c-1.453,2.254-2.658,4.572-3.484,7.15c-1.42,4.443-2.221,4.764-6.482,2.799
		c-9.389-4.328-18.279-9.613-27.467-14.328c-18.373-9.43-36.449-19.418-54.797-28.9c-18.932-9.785-37.541-20.199-56.119-30.652
		c-33.98-19.117-67.285-39.367-100.119-60.375c-19.779-12.654-39.091-26.029-58.525-39.209
		c-35.154-23.84-69.412-48.954-104.13-73.413c-9.258-6.522-18.543-13.015-27.672-19.721c-2.176-1.599-4.437-2.919-6.975-3.797
		c-2.721-2.898,0.022-4.619,1.645-6.135c6.085-5.681,12.568-10.919,18.821-16.418c2.129-1.872,4.164-3.837,6.265-5.733
		c2.284-2.061,1.62-3.354-0.952-4.185c-3.966-1.28-7.823-2.862-11.784-4.153c-1.268-0.413-2.491-1.066-3.77-1.307
		c-2.419-0.453-3.608-4.492-6.084-2.972c-1.923,1.182-2.115,4.381-3.058,6.683c-9.531,23.281-18.829,46.658-28.356,69.941
		c-7.383,18.041-14.398,36.23-21.799,54.263c-2.375,5.787-2.084,6.361,3.72,9.006c33.502,15.266,66.711,31.162,100.142,46.578
		c45.081,20.791,90.018,41.887,135.089,62.695c26.618,12.289,53.118,24.838,79.698,37.215
		c35.941,16.734,71.863,33.514,107.891,50.062c2.574,1.184,5.094,2.48,7.646,3.709c6.41,3.086,6.867,2.898,7.768-3.906
		c0.721-5.449,1.57-10.881,2.293-16.33c0.301-2.277,0.361-4.715,2.629-6.193c5.564,0.666,6.43,1.615,7.018,7.67
		c-1.006,7.373-0.449,15.061-4.33,21.867c-0.775,4.535-1.473,9.088-2.381,13.598c-0.248,1.232,0.221,3.969-2.715,2.309
		c-18.604-9.318-37.619-17.76-56.422-26.656c-32.805-15.525-65.707-30.84-98.562-46.258
		c-34.365-16.127-68.795-32.117-103.137-48.293c-30.125-14.191-60.264-28.355-90.423-42.473
		c-37.999-17.787-76.001-35.564-113.957-53.443c-5.641-2.656-5.566-2.727-2.142-7.703c4.452-6.467,7.274-13.824,10.507-20.928
		c18.412-40.46,36.327-81.144,54.912-121.526c1.65-3.585,2.53-7.026,1.098-10.816c2.974-1.477,5.185,0.943,7.688,1.637
		c4.536,1.257,8.942,2.981,13.403,4.511c7.281,0.479,13.491,4.358,20.277,6.41c1.27,0.384,2.482,0.963,3.722,1.451
		c2.7,1.062,4.867,0.356,6.665-1.825c1.977-2.398,0.08-4.048-1.204-5.674c-12.482-15.811-24.84-31.72-37.361-47.499
		c-3.417-4.307-6.645-8.753-10.063-13.056c-1.361-1.713-1.762-3.516,0.613-4.442c9.416-3.677,16.149-11.076,23.76-17.17
		c21.049-16.853,42.057-33.759,62.995-50.751c13.7-11.119,27.581-22.016,41.191-33.245c1.685-1.391,3.341-2.687,3.208-5.274
		c-0.063-1.229,0.829-1.71,2.004-0.905c23.741,25.429,47.485,50.854,71.221,76.287c5.725,6.134,5.732,6.184,12.855,2.398
		c30.807-16.37,61.616-32.734,92.37-49.204c2.492-1.335,3.922-1.335,5.766,1.034c6.031,7.75,12.438,15.209,18.439,22.98
		c3.049,3.947,6.666,6.64,11.258,8.665c27.537,12.147,54.963,24.548,82.426,36.861c21.701,9.73,43.438,19.384,65.051,29.308
		c2.07,0.95,5.984,0.494,5.689,4.651c-12.758,14.051-24.664,28.823-36.893,43.324c-1.908,2.263-3.438,4.947-6.287,6.296
		c-3.525-0.288-6.828-1.258-9.805-3.217c-1.262-2.341,0.477-3.728,1.721-5.225c10.434-12.549,20.814-25.143,31.455-37.519
		c3.342-3.888,3.318-4.049-1.41-6.053c-37.723-15.989-75.553-31.729-113.41-47.399c-19.389-8.026-38.684-16.286-58.01-24.464
		c-4.273-1.809-6.369-0.894-8.895,2.82c-13.49,19.834-27.125,39.57-40.818,59.264c-2.58,3.709-2.383,6.187,0.684,9.472
		c12.039,12.899,24.092,25.784,36.066,38.744c15.93,17.244,32.277,34.105,47.869,51.656c7.053,7.938,15.473,14.139,23.869,20.41
		c4.135,3.088,8.312,6.136,12.363,9.32c2.826,2.222,4.561,2.472,6.893-0.606c2.502-3.306,5.158-6.537,8.018-9.57
		c1.102-1.17,1.902-2.867,3.992-2.425c1.992,1.376,1.74,3.294,1.186,5.222c-0.627,2.186-1.252,4.354-0.66,6.653
		c0.182,0.981,0.217,1.962-0.016,2.939c-0.248,0.939-0.68,1.798-1.188,2.619c-4.594,5.384-4.539,5.656,2.012,9.813
		c6.025,2.686,11.096,6.919,16.715,10.266c6.129,4.298,12.684,7.921,18.947,12.005c7.707,4.832,14.992,10.308,22.838,14.927
		c2.027,1.521,4.314,2.629,6.438,4c4.4,2.885,8.82,5.734,13.609,7.953c3.854,1.959,7.645,4.025,11.146,6.574
		c0.74,0.473,1.461,0.979,2.209,1.436c1.494,0.887,3.227,1.258,4.705,2.178c1.424,1.014,2.875,1.984,4.496,2.67
		C902.689,405.93,905.227,407.014,906.65,409.564z"/>
	<path fill-rule="evenodd" fill="#69A87E" d="M398.429,243.496c2.581,1.814,3.439,3.59,1.86,7.002
		c-8.859,19.143-17.365,38.449-26.007,57.691c-6.125,13.639-12.249,27.278-18.423,40.895c-6.825,15.051-13.703,30.077-20.573,45.106
		c-0.413,0.904-0.763,2.01-1.491,2.566c-4.532,3.473-3.442,4.775,1.465,6.971c20.937,9.365,41.652,19.23,62.4,29.014
		c31.504,14.855,62.951,29.834,94.456,44.689c27.201,12.826,54.426,25.602,81.683,38.311c26.043,12.143,52.177,24.088,78.2,36.273
		c21.806,10.209,43.481,20.697,65.267,30.951c25.1,11.812,50.262,23.49,75.371,35.279c1.549,0.727,3.693,0.979,3.918,3.348
		c-2.625,0.441-3.771,3.082-6.039,4.057c-3.076,1.547-5.529-0.561-7.918-1.693c-12.035-5.719-24.047-11.496-36.121-17.135
		c-30.184-14.094-60.234-28.463-90.385-42.629c-26.986-12.68-53.907-25.502-80.872-38.229
		c-33.891-15.996-67.761-32.039-101.675-47.986c-19.444-9.145-38.874-18.322-58.275-27.557c-27.525-13.1-55.198-25.887-82.61-39.227
		c-1.565-0.762-3.149-1.68-5.289-1.328c19.631,9.654,39.342,18.57,58.872,27.867c26.47,12.602,53.013,25.047,79.52,37.568
		c42.322,19.992,84.644,39.984,127.012,59.877c34.08,16.002,68.071,32.188,102.137,48.217
		c29.088,13.688,58.221,27.283,87.223,41.152c1.693,0.811,4.695,0.938,3.502,4.275c-3.059,4.576-6.559,4.617-11.35,2.164
		c-7.641-3.91-15.695-7.01-23.574-10.451c-13.898-4.688-26.852-11.551-40.217-17.469c-25.07-11.102-49.801-22.938-74.732-34.342
		c-3.332-1.523-5.649-1.209-8.223,1.803c-3.848,4.504-6.787,9.926-12.14,13.041c-12.962,15.551-26.041,31.008-38.783,46.738
		c-2.363,2.916-3.861,2.385-6.085,0.574c-12.079-9.824-24.176-19.627-36.237-29.475c-23.946-19.553-47.871-39.131-71.818-58.68
		c-0.892-0.729-1.938-1.268-2.912-1.893c-1.557-1.375-1.671-3.301-1.983-5.152c0.369-3.996,1.182-7.99,0.193-12.008
		c-0.396-1.135-1.18-2.061-1.708-3.129c-0.468-2.869,1.635-4.348,3.282-6.076c5.871,1.199,9.432,5.924,13.744,9.355
		c16.38,13.035,32.241,26.711,48.63,39.742c13.526,10.756,26.54,22.146,40.131,32.826c0.523,0.412,0.994,0.885,1.443,1.377
		c4.075,4.457,3.999,4.396,7.828-0.191c10.014-11.992,19.987-24.02,30.21-35.836c5.61-6.484,5.677-6.426-2.27-9.541
		c-17.872-8.887-36.347-16.449-54.406-24.922c-21.218-9.953-42.594-19.562-63.906-29.311c-7.402-3.385-14.775-6.834-22.131-10.314
		c-5.32-2.242-10.298-5.303-15.985-6.672c-0.271-1.533-1.391-1.285-2.454-1.158c-4.792-2.863-10.184-4.486-15.019-7.262
		c-1.678-1.295-3.759-1.59-5.687-2.266c-2.412-1.424-5.142-2.232-7.465-3.83c-3.342-2.264-7.29-3.215-10.855-4.994
		c-6.54-3.088-13.134-6.051-19.762-8.941c-5.401-2.949-11.107-5.252-16.694-7.803c-6.744-2.701-13.271-5.896-19.898-8.865
		c-2.571-1.152-5.084-2.387-7.903-2.82c-6.13-4.387-13.273-6.773-19.955-10.068c-1.931-0.951-4.083-1.482-5.307-3.48
		c-7.501-4.242-7.551-4.262-3.968-12.674c2.396-5.625,4.813-11.248,7.521-16.725c1.053-2.131,1.266-3.801,0.255-5.986
		c-3.941-8.521-7.667-17.142-11.551-25.691c-0.983-2.164-1.678-4.309-1.281-6.702c1.217-7.329,1.678-14.728,1.896-22.14
		c0.073-2.474,0.296-4.821,2.008-6.771c4.189-0.492,6.213,1.956,7.688,5.427c3.937,9.266,8.057,18.452,12.264,27.599
		c0.398,0.865,0.688,1.813,1.471,2.641c2.091-2.536,2.461-5.6,3.843-8.184c4.789-10.115,9.239-20.382,13.898-30.552
		c3.459-7.789,7.147-15.476,10.657-23.244c2.03-1.601,2.869-3.945,3.877-6.188c2.643-5.876,5.845-11.568,7.823-17.659
		c3.406-10.489,11.271-16.564,19.98-21.985C391.608,248.426,393.649,243.965,398.429,243.496z"/>
	<path fill-rule="evenodd" fill="#66B37E" d="M401.546,302.689c2.146-0.217,3.823,0.794,5.486,1.979
		c24.434,17.423,48.876,34.833,73.325,52.233c17.288,12.304,34.468,24.764,51.922,36.829c15.278,10.559,31.029,20.436,46.292,31.018
		c26.2,18.162,53.659,34.318,80.786,50.99c17.107,10.516,34.799,20.086,52.312,29.932c13.324,7.488,26.588,15.117,40.225,22
		c14.393,7.264,28.465,15.105,42.758,22.541c14.457,7.521,28.881,15.107,43.334,22.639c1.488,0.775,3.24,2.422,3.92-0.908
		c1.684-8.268,7.449-14.402,11.854-21.076c8.041-12.186,15.746-24.576,23.574-36.891c12.352-19.424,24.582-38.926,36.85-58.402
		c5.127-8.139,10.504-16.141,15.193-24.527c1.982-3.547,4.025-3.639,7.078-2.424c1.916,2.416,0.41,5.145,0.016,7.377
		c-0.809,4.584-0.006,9.211-1.039,13.713c-1.168,3.199,0.396,6.645-0.887,9.832c-11.221,18.01-22.35,36.076-33.691,54.008
		c-8.783,13.885-18.047,27.469-26.703,41.432c-8.318,13.42-16.814,26.719-25.578,39.848c-1.574,2.357-3.07,4.863-6.025,5.82
		c-8.928-2.715-16.279-8.506-24.48-12.645c-4.219-2.129-8.771-3.93-12.129-7.326c0.473,1.318,0.832,2.684-1.264,3.158
		c0.547-4.604-2.072-6.5-6.129-7.168c-5.885-0.9-10.65-4.381-15.654-7.129c-21.58-11.846-43.531-23.006-64.889-35.26
		c-24.959-14.322-50.438-27.758-74.666-43.33c-4.945-3.18-9.6-6.475-15.861-4.078c-0.829-7.537-6.931-10.25-12.396-13.564
		c-23.337-14.156-46.083-29.227-68.537-44.73c-3.516-2.428-6.022-2.441-9.226,0.348c-3.749,3.264-7.75,6.27-11.927,9.012
		c-2.027-0.295-2.429-2.076-3.15-3.518c-3.737-7.48-6.619-15.273-7.771-23.582c-0.444-3.207-1.736-5.561-4.355-7.439
		c-16.209-11.621-32.434-23.221-48.738-34.705c-4.625-3.868-10.166-6.535-14.414-10.904c-0.962-1.453-2.254-2.479-3.946-2.975
		c-2.511-0.9-4.362-2.8-6.5-4.271c-0.338-0.286-0.646-0.603-0.943-0.931c-2.379-2.302-4.686-4.703-8.042-5.613
		c-7.988-5.99-16.276-11.568-24.152-17.703c-4.19-3.265-4.502-7.566-1.116-11.947c5.361,1.709,9.388,5.587,13.813,8.741
		c32.146,22.918,64.4,45.683,96.773,68.277c27.049,18.879,54.385,37.35,82.144,55.16c17.659,11.33,35.852,21.84,53.717,32.859
		c27.242,16.803,55.533,31.734,83.568,47.113c20.59,11.293,41.551,21.898,62.346,32.807c13.549,7.107,26.998,14.402,40.684,21.264
		c-5.09-3.703-10.877-6.24-16.381-9.191c-20.842-11.182-41.861-22.033-62.816-33.004c-46.357-24.27-91.898-49.938-136.497-77.334
		c-31.54-19.375-62.061-40.26-92.805-60.812c-29.496-19.721-58.114-40.72-87.147-61.117c-11.042-7.757-21.985-15.655-33.118-23.284
		c-1.499-1.027-2.908-2.244-4.917-2.066C399.051,310.086,401.033,306.382,401.546,302.689z"/>
	<path fill-rule="evenodd" fill="#69A87E" d="M535.327,77.663c-0.83,7.075-7.289,9.449-11.724,13.079
		c-24.218,19.823-48.851,39.139-73.253,58.738c-13.173,10.581-26.135,21.424-39.274,32.047c-2.807,2.269-5.69,4.646-10.844,4.289
		c6.4,8.218,12.012,15.461,17.662,22.673c10.931,13.953,21.893,27.882,32.815,41.842c1.134,1.45,3.557,2.863,1.522,4.988
		c-1.931,2.019-3.476,5.421-7.268,4.014c-8.508-3.157-16.965-6.451-25.443-9.689c-3.047-6.734-8.5-11.709-12.92-17.418
		c-10.762-13.9-21.754-27.627-32.88-41.237c-1.998-2.443-1.731-3.544,0.483-5.331c13.549-10.935,26.995-21.996,40.523-32.955
		c28.493-23.083,57.021-46.124,85.519-69.201c1.86-1.507,3.872-2.339,6.273-2.72c7.011-1.113,13.997-2.4,20.959-3.786
		C530.22,76.449,532.851,75.742,535.327,77.663z"/>
	<path fill-rule="evenodd" fill="#DFDFDF" d="M311.639,419.494c7.479,3.336,14.918,6.768,22.468,9.936
		c1.758,0.736,2.147,2.334,3.311,3.389c2.534,2.348,3.449,5.627,4.768,8.621c8.974,20.371,18.04,40.703,27.062,61.053
		c2.506,5.652,2.641,5.689,8.511,3.111c18.71-8.219,37.409-16.465,56.171-24.564c2.09-0.902,4.097-2.352,6.601-1.471
		c0.989-0.195,2.111-0.637,2.064,1.105c-1.338,5.963-5.784,9.953-9.242,14.574c-4.828,1.479-9.931,0.246-14.818,1.588
		c-3.232,0.887-6.378,1.848-9.308,3.48c-2.942,1.641-4.962,3.889-5.053,7.451c-0.282,1.979-2.039,3.162-2.65,4.967
		c-0.143,0.455-0.312,0.898-0.479,1.342c-0.729,2.514,0.74,5.514-1.69,7.645c-26.122-7.371-52.228-14.799-78.374-22.08
		c-8.415-2.344-8.519-2.168-8.454-10.91C312.696,465.645,312.268,442.568,311.639,419.494z"/>
	<path fill-rule="evenodd" fill="#8E8E8E" d="M899.422,316.702c3.039,4.108,4.678,9.062,8.082,13c1.35,1.561,1.52,3.954,0.205,6.008
		c-2.775,4.686-6.955,7.459-12.119,8.877c-17.586,4.829-35.129,5.109-52.605-0.541c-3.547-1.146-6.656-3.05-9.309-5.646
		c-1.203-1.18-2.375-2.698-1.264-4.392c1.129-1.721,2.68-0.506,4.004,0.038c14.83,6.085,30.045,6.771,45.541,3.191
		c5.674-1.311,11.057-3.363,15.836-6.743c-7.824,5.472-16.963,6.742-26.07,7.31c-12.816,0.797-25.639,0.612-37.656-5.111
		c-4.236-2.017-7.748-4.653-8.807-9.464c-0.418-1.902-1.752-2.271-3.148-2.7c-2.703-0.83-5.494-1.396-8.092-2.525
		c-1.443-0.627-3.744-1.082-3.195-3.086c0.453-1.648,2.564-1.045,4.006-0.84c3.625,0.516,7.285,0.805,10.875,1.525
		c1.557,0.312,2.848,0.312,4.213-0.678c4.836-3.505,10.447-5.039,16.225-6.042c13.916-2.414,27.719-2.724,41.395,1.694
		C891.895,311.985,895.684,314.228,899.422,316.702z"/>
	<path fill-rule="evenodd" fill="#989998" d="M899.422,316.702c-12.398-7.042-25.893-8.715-39.832-8.024
		c-10.662,0.529-21.246,1.648-30.195,8.255c-1.611,1.189-2.221-0.011-3.324-0.16c-4.861-0.659-9.74-1.198-15.479-1.884
		c4.43,2.713,8.736,3.235,12.748,4.55c1.375,0.45,3.141,0.218,3.154,2.396c0.033,5.68,4.287,7.896,8.459,9.961
		c6.021,2.981,12.658,4.196,19.211,4.647c11.086,0.765,22.207,0.579,33.078-2.53c5.184-1.482,9.91-3.602,14.34-8.865
		c-1.365,6.226-5.305,8.289-9.055,9.993c-11.76,5.344-24.195,6.437-36.961,5.233c-7.812-0.735-15.176-2.841-22.684-6.617
		c0.504,4.598,3.975,5.913,6.748,7.462c6.49,3.626,13.818,4.902,21.037,5.362c11.756,0.749,23.535,0.477,34.969-3.299
		c4.697-1.551,8.551-4.171,12.072-7.473c0.508,3.324-4.834,4.234-3.297,7.984c-2.816,1.028-4.959,3.456-8.062,3.89
		c-11.748,3.562-23.42,7.463-35.918,7.425c-13.145-0.04-25.828-1.816-37.701-10.293c2.1,4.637,5.061,6.949,8.752,8.202
		c18.43,6.257,36.865,6.152,55.35,0.023c3.635-1.206,5.588-5.371,9.865-5.181c1.17,4.411-2.088,6.437-4.916,8.246
		c-9.902,6.336-20.963,8.105-32.506,7.459c-1.631-0.091-3.242-0.506-4.258-0.323c5.904,0.806,12.434,0.512,18.961,0.145
		c11.029-0.62,21.975-1.521,30.969-9.103c0.756-0.637,1.709-1.062,2.76-0.497c0.578,2.321,1.701,4.657-0.18,6.915
		c-1.002-0.855-0.85-1.978-0.662-3.201c-1.492,3.732-4.697,5.523-7.938,6.802c-20.473,8.073-40.797,8.479-60.795-1.713
		c-1.588-0.811-3.025-2.166-5.051-1.704c-0.457,0.158-0.92,0.171-1.383,0.037c-1.896-2.343-3.943-3.857-7.383-3.594
		c-3.293,0.252-6.023-2.139-8.949-3.496c-5.613-3.354-11.229-6.709-16.844-10.063c-1.361-1.983-1.943-4.141-1.467-6.533
		c1.68-1.724,2.691,0.043,3.652,0.872c4.793,4.131,10.58,5.633,16.604,6.619c-5.473-2.366-10.5-5.47-15.328-8.903
		c-1.865-1.327-3.908-2.566-4.475-5.07c-0.023-1.001-0.047-2.002-0.068-3.003c0.85-0.43,1.699-0.215,2.299,0.354
		c5.164,4.884,11.771,6.796,18.283,8.912c-3.939-1.346-8.121-2.226-11.303-5.14c-2.021-1.849-4.504-3.603-3.354-7.02
		c1.311-0.72,2.271,0.102,3.104,0.859c3.684,3.355,8.059,5.277,12.861,6.272c1.852,0.384,3.049,1.227,3.334,3.146
		c0.775,5.222,4.688,7.391,8.979,9.099c6.045,2.406,12.523,3.158,17.305,4.462c-3.432-0.501-7.994-2.177-12.113-5.014
		c-2.088-1.436-4.045-3.04-5.17-5.318c-1.848-3.743-2.477-8.928-8.818-6.587c-4.809-3.965-11.49-3.109-16.553-6.436
		c-0.947-0.623-1.945-1.443-3.129-0.372c-0.691-0.15-1.234-0.554-1.547-1.153c-0.955-1.84-3.609-3.643-2.152-5.651
		c1.742-2.402,3.879,0.139,5.65,0.988c5.633,2.699,11.676,3.756,17.793,4.697c-10.592-1.355-17.832-8.664-25.936-14.452
		c-1.596-2.526-6.086-3.483-4.285-7.856c0.334-0.04,0.75-0.131,0.971,0.054c10.533,8.77,23.367,9.429,36.146,10.317
		c0.641,0.044,1.332,0.07,1.264,0.03c-6.326,0.047-13.033-1.541-19.219-4.788c-4.047-2.125-8.531-4.129-8.83-9.771
		c0.172-0.555,0.547-0.856,1.123-0.911c7.568,5.997,16.465,8.336,25.828,9.52c11.584,1.463,22.893-0.762,34.227-2.469
		c3.102-0.468,6-1.934,8.691-3.691c1.447-0.945,2.891-2.535,4.895-0.987c-0.383,1.289-0.383,2.575,0.043,3.855
		c-1.275,1.112-2.953,1.422-4.41,2.246c1.85,0.767,3.549-0.005,5.271-0.487c0.676,2.273,2.279,3.119,4.539,3.74
		C889.227,309.749,895.232,311.569,899.422,316.702z"/>
	<path fill-rule="evenodd" fill="#84B895" d="M785.637,628.822c-3.711-4.59-9.465-5.711-14.371-8.127
		c-12.953-6.383-26.197-12.172-39.277-18.299c-31.879-14.938-63.756-29.875-95.58-44.922
		c-24.013-11.352-47.923-22.918-71.918-34.307c-30.635-14.541-61.304-29.01-91.968-43.49
		c-23.157-10.936-46.311-21.881-69.498-32.754c-25.125-11.781-50.288-23.482-75.426-35.234c-1.173-0.549-2.268-1.264-3.639-2.037
		c2.977-2.709,5.654-1.346,8.254-0.119c13.238,6.244,26.463,12.516,39.681,18.803c28.224,13.428,56.426,26.898,84.662,40.301
		c24.339,11.553,48.709,23.041,73.071,34.547c30.06,14.197,60.124,28.389,90.188,42.576c23.461,11.072,46.908,22.178,70.398,33.188
		c18.062,8.467,36.281,16.604,54.246,25.271c14.516,7.004,28.969,14.135,43.689,20.701c0.748,0.334,1.576,0.49,2.367,0.729
		C789.551,627.721,787.152,627.594,785.637,628.822z"/>
	<path fill-rule="evenodd" fill="#8E8E8E" d="M965.283,539.77c-2.865-5.689-1.824-9.203,3.932-13.264
		c18.582-9.15,37.748-9.309,57.27-3.668c4.045,1.17,7.498,3.533,10.947,5.861c2.549,2.551,3.941,5.395,2.279,9.012
		c-2.785,4.641-6.922,7.402-12.068,8.877c-16.322,4.672-32.693,4.816-49.129,0.674C973.42,545.979,968.963,543.559,965.283,539.77z"
		/>
	<path fill-rule="evenodd" fill="#8E8E8E" d="M823.855,665.506c5.756,4.061,6.797,7.57,3.936,13.268
		c-6.924,6.494-15.523,8.779-24.623,9.682c-13.197,1.309-26.287,1.158-38.967-3.455c-4.473-1.627-8.354-4.051-10.844-8.285
		c-1.654-3.617-0.27-6.463,2.281-9.016C777.973,654.348,800.77,655.438,823.855,665.506z"/>
	<path fill-rule="evenodd" fill="#8E8E8E" d="M417.63,649.615c1.083,0.693,1.799,1.629,1.952,2.939
		c0.871,6.277-1.177,10.074-7.205,13.102c-6.486,3.258-13.529,4.611-20.644,5.143c-10.78,0.803-21.551,0.527-32.124-2.225
		c-5.901-1.537-11.244-3.98-15.161-8.881c-1.955-4.488-0.824-8.146,2.991-11.078c20.631-11.232,41.816-10.967,63.393-3.105
		C413.394,646.443,415.298,648.359,417.63,649.615z"/>
	<path fill-rule="evenodd" fill="#DFDFDF" d="M615.401,583.568c4.284-5.287,8.658-10.506,12.809-15.895
		c1.686-2.189,3.249-2.162,5.547-1.105c20.068,9.23,40.186,18.354,60.275,27.533c15.654,7.152,31.301,14.322,46.926,21.533
		c3.303,1.523,6.818,2.639,9.754,4.9c-10.111-1.777-19.799-5.172-29.646-7.918c-33.775-9.42-67.473-19.115-101.215-28.654
		C618.443,583.564,616.888,583.689,615.401,583.568z"/>
	<path fill-rule="evenodd" fill="#DFDFDF" d="M906.371,231.64c7.17,5.275,14.279,10.637,21.545,15.779
		c2.428,1.719,2.074,2.53-0.084,4.176c-16.129,12.295-32.164,24.713-48.227,37.092c-1.842-5.616-7.145-8.763-9.84-13.773
		c1.697-5.076,5.756-8.538,9.053-12.383c7.807-9.104,14.961-18.735,22.861-27.753C902.957,233.32,903.9,231.329,906.371,231.64z"/>
	<path fill-rule="evenodd" fill="#8E8E8E" d="M965.281,557.773c-2.23-3.064-2.299-6.131-0.008-9.197
		c2.686-3.949,5.779-4.188,10.229-2.367c18.113,7.404,36.359,6.91,54.432-0.385c2.27-0.916,4.285-1.881,6.49-0.121
		c3.191,2.646,5.057,5.73,3.291,10.01c-3.059,5.289-8.172,7.779-13.66,9.293c-15.398,4.246-30.924,4.26-46.449,0.553
		C974.141,564.254,969.436,561.508,965.281,557.773z"/>
	<path fill-rule="evenodd" fill="#A29482" d="M399.354,521.721c0.98-2.975-0.952-6.299,1.1-9.146
		c2.791,7.746,9.723,9.107,16.5,10.705c-4.147-1.053-5.768-1.729-7-3.195c-0.81-0.965-2.158-2.035-1.042-3.389
		c0.877-1.064,2.157-0.295,3.187,0.205c7.177,3.492,14.822,4.486,22.705,4.467c4.024-0.01,7.875-0.959,11.801-1.555
		c5.877-0.891,9.888-4.029,12.312-9.363c1.925,1.113,1.815,2.562,0.702,4.18c0.085,2.551-3.245,3.389-3.015,6.01
		c-2.432,2.994-5.596,3.811-9.397,4.395c-6.209,0.951-12.202,3.238-18.596,3.408c-8.749,0.232-17.299-0.457-25.026-5.053
		c3.185,3.352,8.88,5.32,17.423,5.875c8.218,0.533,16.29-0.107,24.066-3.127c1.395-0.543,3.377-2.121,4.29,0.035
		c0.713,1.684-1.279,2.812-2.657,3.74c-6.138,4.129-13.214,3.846-20.134,4.314c6.285-0.451,12.584-0.592,18.815-1.838
		c6.018-1.205,11.126-3.348,13.161-9.781c1.904,4.369,1.084,8.717-0.096,13.062c-12.529,9.373-26.257,13.445-38.312,10.633
		c7.753,2.584,23.74,1.506,34.485-3.699c1.289-0.623,2.509-1.777,4.141-0.885c-0.752,1.598-1.107,3.203-0.096,4.836
		c-0.206,0.154-0.412,0.309-0.616,0.467c-1.42,0.436-2.84,0.795-4.13,1.645c-15.025,9.891-30.657,8.816-46.571,2.518
		c-1.707-0.676-2.631-1.93-3.056-3.643c-0.274-0.951-0.547-1.904-0.821-2.857c1.249-0.693,2.259,0.066,3.228,0.627
		c7.181,4.164,14.906,6.178,22.859,5.895c-7.726-0.023-15.502-1.076-21.784-6.873c-1.578-1.455-2.98-1.059-4.287,0.395
		c-1.228-2.697-1.166-5.74-3.307-8.324c-1.507-1.818-1.483-4.996,1.241-6.887c0.527,8.002,6.443,10.033,12.812,11.256
		c3.667,0.703,7.36,1.633,11.036,1.365c-5.158,0.045-10.116-1.066-14.418-4.279c-1.281-0.957-3.114-2.285-2.046-3.998
		c1.036-1.66,2.656-0.1,3.953,0.471c14.399,6.352,28.661,5.764,42.802-0.686c-3.295,1.797-6.894,3.164-10.598,3.787
		c-3.91,0.656-7.845,1.408-11.895,1.273c-4.017-0.133-7.927-0.752-11.856-1.482c-7.101-1.32-12.929-5.863-19.824-7.674
		C403.764,526.145,398.581,524.709,399.354,521.721z"/>
	<path fill-rule="evenodd" fill="#46BB6D" d="M356.34,296.492c1.505,1.604-0.197,2.767-0.689,3.962
		c-2.702,6.553-5.541,13.051-9.094,19.205c-6.605,5.329-13.648,9.771-22.551,11.153c1.864,7.007,7.113,12.651,8.51,19.879
		c-0.747,3.781-2.417,7.147-4.715,11.021c-4.491-9.897-8.892-19.14-12.869-28.562c-1.848-4.378-3.126-8.899-8.412-10.346
		C323.126,314.034,339.733,305.263,356.34,296.492z"/>
	<path fill-rule="evenodd" fill="#DFDFDF" d="M804.674,583.838c0.719-3.533,1.941-3.527,5.049-1.672
		c10.779,6.432,21.859,12.363,32.824,18.484c-2.029,0.006-2.67,1.611-3.594,2.992c-3.582,5.352-7.311,10.605-10.824,16
		c-1.949,2.992-3.289,2.727-5.947,0.412c-5.334-4.643-11.186-8.699-16.9-12.893c-1.021-0.75-2.41-0.998-3.631-1.477
		C802.658,598.402,803.666,591.119,804.674,583.838z"/>
	<path fill-rule="evenodd" fill="#A29482" d="M458.658,556.75c-0.011,0.605-0.022,1.211-0.034,1.816
		c-5.095,7.066-12.103,10.586-20.701,11.076c-3.754,0.213-7.479,0.859-9.685,0.568c5.043-0.291,11.666-0.244,18.195-1.986
		c5.632-1.502,10.219-3.783,12.176-9.664c1.553,2.146,1.438,4.479-0.01,6.434c-6.266,8.453-13.533,15.594-24.819,16.391
		c-9.458,0.666-18.939,1.01-27.752-3.508c-5.944-3.049-7.359-6.033-5.493-11.213c3.559,9.512,12.169,10.092,18.358,11.398
		c-2.395-0.113-8.974-1.922-11.177-3.611c-1.159-0.889-2.802-1.898-1.963-3.553c0.762-1.5,2.393-0.641,3.582-0.182
		c12.206,4.711,23.618,5.17,38.086,1.684c-8.968,2.277-17.938,3.252-27.068,0.863c-4.117-1.076-7.873-2.691-11.117-5.418
		c-1.681-1.412-2.977-3.064-5.376-0.666c-1.592,1.592-2.055-0.467-2.534-1.637c0.961-1.867,3.904-3.014,2.138-5.873
		c0.638-0.297,1.32-0.348,1.917-0.014c8.199,4.586,16.927,7.164,26.492,6.463c-4.996,0.381-9.781-0.473-14.561-1.457
		c-4.254-0.877-7.501-3.416-10.707-6.057c-0.763-0.629-1.504-1.662-0.985-2.623c0.688-1.275,2.026-0.906,3.101-0.455
		c1.647,0.689,3.002,1.975,4.694,2.365c-0.59-0.434-1.464-0.502-2.155-0.98c-1.361-0.943-3.399-1.992-2.64-3.721
		c1.036-2.354,2.874-0.352,4.187,0.189c12.733,5.258,25.558,4.959,38.572,1.113c4.114-1.217,5.322-4.633,7.066-7.771
		c0,0,0.223-0.168,0.223-0.168c1.322,3.424,1.374,6.844-0.03,10.26c-0.873-0.705-0.966-1.6-0.817-1.975
		c-3.792,4.746-10.033,5.873-14.899,7.494c4.008-0.822,8.662-2.65,12.992-5.289C456.736,556.545,457.653,555.977,458.658,556.75z"/>
	<path fill-rule="evenodd" fill="#929392" d="M870.332,274.741c0.859,2.769,3.891,3.231,5.555,5.243
		c2.154,2.604,3.924,5.178,3.719,8.703c-0.26,0.353-0.518,0.704-0.777,1.056c-2.678,4.826-7.088,7.274-12.146,8.802
		c-13.482,4.071-27.186,4.508-41.033,2.413c-0.662-0.1-1.311-0.263-1.912-0.554c-0.451-0.218-0.852-0.519-1.195-1.227
		c1.771-2.583,4.619-1.867,7.086-1.86c9.609,0.025,18.943-1.382,27.75-5.315c3.783-1.688,7.648-3.556,8.576-8.302
		c-0.52-0.632,1.598-3.805-1.449-1.859c-16.705,10.673-34.779,10.871-53.252,6.904c-7.439-1.598-14.748-4.174-19.342-11.099
		c-0.32-1.074-0.287-2.1,0.42-3.028c1.061-0.474,2.053-0.104,2.771,0.572c6.625,6.228,15.102,7.608,23.539,8.531
		c12.828,1.403,25.619,1.117,37.982-3.354c4.953-1.792,8.758-4.751,10.188-10.094c1.072-1.426,1.783-0.731,2.408,0.426
		C869.896,271.96,869.375,273.554,870.332,274.741z"/>
	<path fill-rule="evenodd" fill="#8F8F8F" d="M906.65,409.564c-2.365-1.326-4.729-2.652-7.094-3.98
		c-0.312-4.135,4.621-3.783,5.451-6.4c-2.662,1.938-5.129,5.41-9.658,3.555c-1.699-0.43-3.451-0.734-4.744-2.082
		c3.564-2.082,7.492-3.484,10.949-5.76c3.686-2.428,6.844-5.238,6.594-10.268c0.186,4.965-2.863,7.836-6.584,10.166
		c-3.988,2.5-8.578,3.467-13.023,4.775c-3.732-2.27-7.465-4.541-11.195-6.812c1.879-2.168,4.639-2.418,7.133-3.135
		c4.51-1.295,9.236-2.736,12.352-6.084c6.346-6.824,12.771-7.07,20.023-2.025c5.746,4.031,6.789,7.535,3.953,13.277
		c-2.58,2.055-5.006,4.508-8.188,5.459c-3.393,1.014-4.619,3.287-5.088,6.391C906.547,407.408,906.914,408.582,906.65,409.564z"/>
	<path fill-rule="evenodd" fill="#69A87E" d="M857.469,259.528c10.965-13.071,21.928-26.146,32.898-39.213
		c2.238-2.665,4.604-5.229,6.721-7.986c0.918-1.195,1.852-1.82,3.314-1.685c-0.223,2.691,1.055,4.965,2.043,7.319
		c1.16,1.663-0.088,2.812-0.992,3.858c-11.459,13.269-22.83,26.609-34.043,40.087c-0.738,0.889-1.605,1.673-2.662,2.207
		c-0.705,0.271-1.42,0.297-2.148,0.109C860.57,263.011,858.152,262.215,857.469,259.528z"/>
	<path fill-rule="evenodd" fill="#989998" d="M867.535,283.658c-1.084,5.69-5.67,7.865-10.217,9.897
		c-10.66,4.765-22.002,5.521-33.434,5.574c19.135,1.814,38.4,4.401,54.941-9.387c-0.01,0.587-0.021,1.174-0.035,1.762
		c-0.574,3.956-3.643,5.815-6.645,7.553c-8.713,5.046-18.418,6.41-28.227,6.861c-12.992,0.6-25.457-1.517-36.771-8.47
		c-1.041-0.64-2.146-1.766-3.615-0.789l0.004-0.002c-2.842-0.993-4.277-4.126-7.33-4.808c-0.887-2.912-5.434-4.353-3.4-8.438
		c3.828,0.568,5.809,4.181,9.271,5.511c6.432,2.471,13.098,3.846,19.875,4.216c8.764,0.478,17.561,0.533,26.242-1.468
		c5.871-1.353,11.617-2.787,16.191-7.064C865.221,283.826,866.244,283.167,867.535,283.658z"/>
	<path fill-rule="evenodd" fill="#69A87E" d="M870.332,274.741c-1.105,0.417-1.791,0.31-1.814-1.143
		c-0.021-1.382,0.455-2.935-0.963-3.997c-1.439-0.929-1.883-2.254-1.553-3.889c6.551-9.377,14.576-17.548,21.758-26.414
		c4.061-5.015,8.264-9.921,12.604-14.698c0.945-1.04,1.613-3.269,3.855-1.852c0.932,2.912,4.133,5.274,2.152,8.892
		c-7.863,7.888-14.221,17.046-21.455,25.468C879.947,262.892,875.186,268.857,870.332,274.741z"/>
	<path fill-rule="evenodd" fill="#989998" d="M857.357,380.75c-8.178-4.119-15.535-9.498-22.877-14.902
		c-1.188-1.528-3.586-2.603-1.943-5.19l-0.004,0.002c0.672-0.23,1.303-0.127,1.889,0.253c20.023,12.974,41.242,11.118,62.854,5.208
		c3.248-0.889,5.277-4.941,9.348-3.451c0.057,1.312,0.113,2.622,0.17,3.933c-12.412,7.156-25.012,13.804-39.666,15.085
		C863.797,381.979,860.496,382.301,857.357,380.75z"/>
	<path fill-rule="evenodd" fill="#9C8E7B" d="M458.447,546.723c0.826,4.385-1.335,7.188-5.182,8.48
		c-14.817,4.977-29.472,5.318-43.542-1.912c1.365,2.453,1.365,2.453,5.169,5.074c-3.453,0.941-5.538-2.123-8.407-2.338
		c5.365,5.855,8.55,8.717,25.842,10.041c-9.444,1.912-19.677-0.357-28.863-6.398c-0.257-4.08-1.845-8.25,0.833-12.129
		c8.7,6.076,18.62,7.744,28.825,6.92c7.498-0.607,15.139-1.863,20.866-7.727C455.478,545.209,456.958,545.738,458.447,546.723z"/>
	<path fill-rule="evenodd" fill="#8F8F8F" d="M857.357,380.75c15.924,0.771,30.033-4.852,43.68-12.252
		c1.73-0.939,3.234-3.143,5.756-1.896c1.688,2.191,2.326,4.518,0.918,7.109c-2.551,4.367-6.42,7.109-11.156,8.512
		c-10.869,3.221-21.844,5.502-33.197,2.504C861.355,383.402,858.762,382.975,857.357,380.75z"/>
	<path fill-rule="evenodd" fill="#8F8F8F" d="M896.535,347.661c1.871-2.82,4.174-4.787,7.877-3.967
		c3.182,2.645,5.086,5.71,3.293,9.993c-16.393,14.07-35.787,11.041-54.885,9.547c6.357-0.744,12.816-0.318,19.176-1.531
		c6.893-1.313,13.566-3.03,19.49-6.995c2.602-1.74,4.588-3.825,5.051-7.051L896.535,347.661z"/>
	<path fill-rule="evenodd" fill="#999A99" d="M344.449,659.693c20.456,13.168,42.279,12.201,64.461,5.916
		c7.835-2.221,10.453-5.99,10.672-13.055c2.248,4.391,0.715,7.967-2.487,11.105c-4.935,4.838-11.224,6.877-17.76,8.25
		c-14.545,3.059-28.958,2.754-42.989-2.51C351.399,667.545,346.552,665.205,344.449,659.693z"/>
	<path fill-rule="evenodd" fill="#8F8F8F" d="M906.623,362.669c-5.57,3.161-11.152,6.187-17.607,7.333
		c-15.678,2.787-31.158,2.605-46.406-2.44c-4.029-1.333-7.15-3.97-10.076-6.902c-0.254-3.121,1.037-2.24,2.73-1.173
		c11.924,7.518,25.113,10.03,38.951,9.106c11.949-0.799,23.713-2.568,33.049-12.137c0.094,1.479,0.178,2.812,0.264,4.146
		C907.225,361.292,906.924,361.981,906.623,362.669z"/>
	<path fill-rule="evenodd" fill="#8F8F8F" d="M803.533,296.66c-0.254-3.124,1.041-2.238,2.73-1.172
		c11.928,7.521,25.117,9.951,38.967,9.123c9.783-0.585,19.336-2.216,27.889-7.638c2.344-1.486,3.672-3.767,5.672-5.468
		c1.229,2.63,0.727,5.021-1.008,7.239c-2.871-0.213-4.146,2.467-6.33,3.561c-5.785,2.898-12.062,3.051-18.223,4.095
		c-12.938,2.19-25.568,1.533-38.141-2.335C810.42,302.628,807.121,299.533,803.533,296.66z"/>
	<path fill-rule="evenodd" fill="#999A99" d="M1036.424,545.703c-2.164-0.104-4.037,0.459-6.125,1.328
		c-18.717,7.799-37.707,8.041-56.285-0.033c-4.219-1.834-6.008,0.191-8.74,1.578c2.797-2.932,2.887-5.867,0.012-8.807
		c5.758,2.738,11.211,6.084,17.693,7.223c15.051,2.643,29.914,2.605,44.668-1.84c4.738-1.428,8.547-4.145,12.064-7.443
		C1040.199,541.025,1034.873,541.951,1036.424,545.703z"/>
	<path fill-rule="evenodd" fill="#989A98" d="M863.357,384.727c9.582,0.133,19.129-0.109,28.531-2.312
		c6.107-1.432,11.234-4.555,15.822-8.703c-0.6,2.328,0.893,3.09,2.689,3.766c2.41,0.906,4.746,1.982,6.453,4.037
		c-7.879-4.334-13.977-2.08-20.373,3.879c-5.035,4.689-12.289,6.064-19.133,7.365C872.211,390.904,867.729,387.912,863.357,384.727z
		"/>
	<path fill-rule="evenodd" fill="#999A99" d="M753.357,676.715c7.52,7.873,17.529,9.576,27.576,10.533
		c12.59,1.197,25.119,0.729,37.301-3.537c3.486-1.223,5.844-4.34,9.555-4.938c-1.557,3.912-5.125,5.871-8.523,7.236
		c-19.396,7.799-38.846,8.135-57.998-0.918C757.699,683.406,754.207,681.188,753.357,676.715z"/>
	<path fill-rule="evenodd" fill="#999A99" d="M965.281,557.773c5.764,2.73,11.213,6.08,17.695,7.219
		c15.053,2.643,29.918,2.605,44.672-1.84c4.738-1.428,8.547-4.146,12.066-7.439c-0.686,4.105-3.803,6.316-7.037,7.898
		c-19.723,9.646-39.723,9.477-59.719,0.889C969.838,563.158,966.668,561.346,965.281,557.773z"/>
	<path fill-rule="evenodd" fill="#9C8E7B" d="M401.327,565.543c0.827,0.102,1.631,2.764,2.527-0.189
		c0.569-1.875,1.938-3.068,3.999-0.844c8.582,9.262,19.807,9.582,31.202,8.727c3.531-0.264,7.111-0.93,11.63-2.936
		c-8.717,6.943-28.703,6.867-44.089,0.705c2.286,3.764,8.158,6.207,16.647,6.926c-5.906,1.631-16.053-0.732-20.491-4.51
		c-2.232-1.898-2.344-4.225-2.215-6.758C400.799,566.291,401.063,565.918,401.327,565.543z"/>
	<path fill-rule="evenodd" fill="#85B895" d="M904.219,222.749c-6.814,5.774-11.732,13.236-17.605,19.847
		c-6.777,7.627-13.375,15.412-20.051,23.128c-1.633,0.254-2.318-0.441-2.07-2.07c12.092-14.251,24.178-28.507,36.287-42.743
		c0.758-0.892,1.648-1.659,1.666-2.947C904.125,219.155,903.502,221.2,904.219,222.749z"/>
	<path fill-rule="evenodd" fill="#9D8E7B" d="M458.766,541.719c-14.162,8.797-29.058,8.33-44.272,3.049
		c2.869,0.297,5.734,0.645,8.607,0.883c11.393,0.941,21.497-3.021,31.274-8.246c1.298-0.693,2.716-1.162,4.078-1.734
		c1.16,1.551,1.146,3.354,1.112,5.162C459.299,541.129,459.032,541.424,458.766,541.719z"/>
	<path fill-rule="evenodd" fill="#999A99" d="M417.63,649.615c-7.354-3.236-14.665-6.539-22.832-7.32
		c-15.61-1.492-30.965-1.256-45.443,5.904c-0.568,0.281-1.273,0.285-1.915,0.416c6.993-7.08,16.292-8.658,25.413-9.625
		c11.711-1.242,23.49-0.674,34.673,3.824C411.347,644.352,415.228,645.918,417.63,649.615z"/>
	<path fill-rule="evenodd" fill="#9A9B9A" d="M1037.432,528.699c-7.227-3.721-14.676-6.434-22.912-7.328
		c-14.365-1.559-28.387-1.057-41.994,4.27c-1.055,0.412-2.203,0.584-3.309,0.867c6.922-5.965,15.492-7.305,24.084-8.307
		c12.943-1.508,25.586-0.312,37.498,5.436C1033.314,524.85,1035.895,526.135,1037.432,528.699z"/>
	<path fill-rule="evenodd" fill="#9A9B9A" d="M823.855,665.506c-5.723-1.527-11.174-4.008-17.109-4.809
		c-13.744-1.854-27.34-1.701-40.805,2.217c-3.746,1.092-6.494,4.02-10.303,4.785c5.088-5.926,12.189-7.879,19.348-9.365
		c14.305-2.971,28.439-2.354,42.186,3.023C819.652,662.328,822.078,663.398,823.855,665.506z"/>
	<path fill-rule="evenodd" fill="#9E9F9E" d="M907.531,406.641c-0.791-4.281,0.875-6.838,5.23-7.627
		c3.104-0.562,4.67-4.123,8.043-4.223c-1.617,3.986-5.338,5.732-8.781,7.305C909.697,403.156,908.668,404.779,907.531,406.641z"/>
	<path fill-rule="evenodd" fill="#949494" d="M878.689,304.36c-1.732,4.979-4.902,0.173-7.273,1.25
		c2.018-1.456,3.391-4.092,6.41-3.009C878.115,303.188,878.402,303.774,878.689,304.36z"/>
	<path fill-rule="evenodd" fill="#69C286" d="M934.545,459.543c0.391-3.268-0.936-6.693,0.887-9.832
		C934.932,452.971,936.799,456.443,934.545,459.543z"/>
	<path fill-rule="evenodd" fill="#69C888" d="M919.105,433.184c-5.783,8.611-11.461,17.129-17.199,25.604
		c-10.049,14.842-20.033,29.727-30.234,44.463c-12.654,18.281-25.514,36.422-38.248,54.648c-1.379,1.973-2.623,1.74-4.598,0.695
		c-18.352-9.707-36.82-19.197-55.162-28.924c-16.268-8.627-32.52-17.297-48.596-26.275c-18.562-10.371-36.994-20.982-55.359-31.703
		c-26.399-15.41-52.204-31.789-77.617-48.766c-40.564-27.096-80.597-54.957-119.935-83.819
		c-17.657-12.955-35.676-25.421-53.637-37.956c-3.291-2.297-3.176-3.51-0.124-6.022c18.05-14.854,35.996-29.837,53.839-44.938
		c11.016-9.323,21.823-18.895,32.658-28.43c14.324-12.605,28.604-25.26,42.857-37.945c4.839-4.308,9.612-8.696,14.265-13.203
		c1.781-1.727,2.904-1.955,4.919-0.162c16.734,14.896,33.596,29.647,50.394,44.471c20.154,17.786,40.024,35.903,60.488,53.323
		c24.234,20.629,49.061,40.536,74.33,59.921c38.395,29.454,78.941,55.654,119.973,81.154c12.689,7.887,25.969,14.82,38.867,22.383
		C913.523,433.189,916.217,431.938,919.105,433.184z"/>
	<path fill-rule="evenodd" fill="#69C286" d="M627.545,486.664c3.902-2.771,7.297-2.707,11.6,0.133
		c24.502,16.168,50.465,29.891,75.898,44.492c15.529,8.918,31.443,17.168,47.189,25.711c12.102,6.562,24.209,13.113,36.312,19.67
		c-1.324,8.826-2.879,17.627-3.863,26.492c-0.4,3.611-1.689,3.824-4.4,2.574c-6.779-3.123-13.576-6.205-20.338-9.365
		c-31.178-14.568-62.334-29.18-93.52-43.73c-28.456-13.277-56.938-26.498-85.414-39.734c-33.286-15.473-66.577-30.934-99.865-46.402
		c-23.351-10.85-46.695-21.715-70.051-32.557c-22.766-10.564-45.496-21.213-68.36-31.562c-4.134-1.871-4.329-3.889-2.807-7.613
		c13.752-33.655,27.394-67.356,41.023-101.061c4.293-10.616,8.418-21.3,12.717-31.914c0.493-1.218,1.307-4.467,3.022-2.013
		c4.364,6.242,11.467,6.434,17.471,8.624c9.21,3.36,9.563,3.021,2.68,9.367c-7.678,7.079-15.74,13.74-23.51,20.724
		c-1.054,0.946-3.729,1.746-1.785,4.19c1.067,1.784,1.032,3.534,0.361,5.527c-0.595,1.765-0.994,3.78,0.584,5.438
		c0.192,0.22,0.26,0.442,0.202,0.668c-0.058,0.228-0.118,0.341-0.181,0.341c-1.566,4.459-2.301,8.096,2.742,11.666
		c7.878,5.578,16.087,10.791,23.262,17.342c2.871,1.732,5.473,3.825,8.014,5.999l-0.005-0.011c1.297,1.672,0.967,3.427,0.27,5.204
		c-2.555,6.515-5.03,13.065-7.827,19.479c-1.984,4.547-3.794,4.887-7.514,1.732c-4.271-3.625-6.062-8.213-5.22-13.812
		c0.243-1.61,1.066-3.375-0.054-4.849c-1.144-1.503-2.907-2.386-4.806-2.219c-1.866,0.163-2.001,1.973-2.39,3.395
		c-2.566,9.406,0.125,17.145,8.679,22.952c5.433,3.688,6.762,4.594,4.02,11.309c-0.411,1.006-0.965,2.211,0.343,3.115
		c1.299-0.066,1.531-1.162,1.966-2.018c3.284-6.465,3.279-6.467,10.11-5.674c13.914,1.615,22.124-3.902,25.999-17.496
		c0.319-1.121,0.486-2.293,1.434-3.116c6.146,2.935,11.133,7.571,16.653,11.417c9.756,6.799,19.099,14.229,29.143,20.557
		c6.146,3.873,8.298,8.9,9.37,15.631c1.271,7.982,4.549,15.455,8.797,22.41c3.184,2.117,4.559,5.633,6.588,8.625
		c12.812,18.893,29.952,32.123,51.457,39.795c13.113,4.678,26.267,5.281,39.595,1.086
		C624.559,486.736,626.014,486.297,627.545,486.664z"/>
	<path fill-rule="evenodd" fill="#6AC888" d="M792.512,283.649c-0.104,3.343,4.844,4.213,3.898,7.968
		c-1.871,3.122-3.83,6.21-3.898,10.033c0.221,3.367,3.834,4.322,4.994,7.02c0.408,2.37,1.463,4.753-0.139,7.084
		c-4.037,4.806-8.15,9.552-12.074,14.449c-1.381,1.725-2.682,2.552-4.516,0.995c-11.492-9.762-24.914-17.139-35.338-28.193
		c-19.26-20.426-38.404-40.961-57.52-61.523c-10.736-11.55-21.26-23.297-32.02-34.825c-1.889-2.023-2.537-3.517-0.842-5.965
		c15.121-21.83,30.227-43.671,45.146-65.637c1.709-2.515,3.289-1.702,5.02-0.986c12.58,5.2,25.117,10.498,37.674,15.75
		c18.975,7.936,37.953,15.858,56.93,23.788c27.551,11.512,55.084,23.071,82.676,34.485c3.848,1.592,2.041,3.471,0.633,5.171
		c-5.918,7.15-12.109,14.079-17.939,21.3c-5.898,7.308-12.684,13.909-17.625,21.982c-3.67,1.984-7.373,0.265-11.02-0.023
		c-13.246-1.048-25.99,0.215-37.619,7.31c-4.061,2.462-6.184,6.079-6.416,10.818c0.012,1.007,0.023,2.014,0.035,3.02
		C793.021,279.666,793.293,281.661,792.512,283.649z"/>
	<path fill-rule="evenodd" fill="#6AC888" d="M484.545,225.662c-6.772,7.795-15.054,13.97-22.552,20.987
		c-1.639,1.533-2.497,0.282-3.521-1.029c-10.094-12.926-20.244-25.81-30.387-38.697c-2.664-3.384-5.148-6.945-8.115-10.044
		c-2.201-2.298-1.9-3.625,0.327-5.549c8.784-7.59,17.43-15.34,26.169-22.981c9.859-8.619,19.769-17.182,29.647-25.778
		c15.132-13.168,30.258-26.343,45.383-39.518c3.002-2.615,6.01-5.224,8.981-7.873c1.644-1.466,2.773-1.905,3.145,0.971
		c0.425,3.296,2.533,5.582,4.763,7.926c30.228,31.774,60.377,63.623,90.561,95.438c10.18,10.73,20.402,21.422,30.606,32.131
		c0.029,1.729-0.836,1.676-2.009,1.009c-12.917-11.141-25.856-22.257-38.743-33.433c-8.647-7.499-17.235-15.065-25.821-22.635
		c-8.835-7.789-17.656-15.596-26.433-23.449c-1.863-1.667-3.343-1.908-4.95,0.29c-0.869,1.188-2.035,2.159-3.067,3.229
		c-0.409,0.286-0.843,0.545-1.213,0.878c-4.974,4.475-4.972,4.477-10.346,0.781c-7.931-5.452-17.014-5.525-24.245-0.194
		c-7.208,5.314-9.907,13.397-6.377,22.16c5.065,12.571,4.312,9.784-5.358,18.913c-2.889,2.728-5.838,5.466-9.016,7.887
		c-4.291,3.27-5.988,2.693-8.171-2.336c-2.311-5.325-1.234-10.042,2.198-14.488c1.062-1.375,2.709-2.598,1.706-4.817
		c-1.631-3.612-4.649-4.021-7.243-0.908c-6.684,8.02-7.32,15.471-2.128,24.945c3.311,6.043,3.423,6.161-1.529,10.891
		C485.146,221.955,485.018,223.784,484.545,225.662z"/>
	<path fill-rule="evenodd" fill="#6AC888" d="M685.988,135.405c-8.949,12.718-17.885,25.445-26.855,38.148
		c-4.204,5.953-8.516,11.83-12.686,17.807c-1.27,1.819-2.258,2.669-4.15,0.636c-6.332-6.803-12.73-13.544-19.185-20.231
		c-2.072-2.147-0.295-2.734,1.168-3.548c7.682-4.271,15.344-8.576,23.058-12.79c12.651-6.912,25.337-13.763,38.007-20.639
		C685.561,134.994,685.775,135.199,685.988,135.405z"/>
	<path fill-rule="evenodd" fill="#55B373" d="M484.545,225.662c-2.163-2.331-2.014-3.893,0.948-5.751
		c3.51-2.201,5.443-4.579,2.18-9.527c-6.687-10.141-5.103-19.584,3.167-28.547c1.822-1.974,3.62-2.739,5.135-0.129
		c1.288,2.219,6.592,2.899,2.765,7.318c-5.896,6.807-6.459,11.417-2.823,17.464c0.895,1.487,1.592,2.527,3.36,1.002
		c6.15-5.304,12.455-10.436,18.464-15.893c2.011-1.825,0.168-4.039-0.722-5.949c-3.096-6.646-5.118-13.284-1.73-20.564
		c5.127-11.021,19.3-15.934,29.963-9.294c4.801,2.989,8.485,5.56,13.277,0.864c-4.184,4.853-8.204,9.881-14.002,12.994
		c-3.045-5.954-8.086-7.747-14.012-4.983c-5.57,2.599-7.559,8.368-5.136,14.309c1.069,2.622,2.449,3.043,4.39,1.108
		c3.068-3.059,6.702-5.45,9.761-8.525c1.29-1.298,2.564-3.311,4.995-1.909c-4.845,6.104-10.684,11.258-16.249,16.646
		c-9.849,9.537-19.808,18.98-30.101,28.031C493.754,218.213,490.049,223.053,484.545,225.662z"/>
	<path fill-rule="evenodd" fill="#8E8F8E" d="M797.367,315.753c-0.18-2.366-1.693-4.758,0.139-7.084
		c5.531,2.138,9.096,7.078,14.225,9.889c4.332,2.374,9.436,2.729,13.428,5.917c-8.844,0.088-17.162-1.798-25.4-6.082
		c1.26,2.089,2.52,4.179,3.779,6.268l-0.004-0.004c2.018,8.382,9.99,9.117,15.842,12.707c-8.236-1.077-15.9-3.49-21.934-9.713
		c-1.896-2.172-0.658-4.365,0.109-6.438C798.26,319.295,798.943,317.528,797.367,315.753z"/>
	<path fill-rule="evenodd" fill="#989A98" d="M797.428,263.627c6.01-5.554,13.721-6.524,21.279-8.033
		c9.723-1.939,19.279-0.421,28.865,0.951c3.299,0.994,6.598,1.989,9.896,2.983c1.627,1.481,3.979,2.055,5.143,4.114
		c-1.814,1.337-3.506,0.238-5.186-0.317c-18.279-6.042-36.545-5.996-54.818,0.016C800.928,263.894,799.232,264.996,797.428,263.627z
		"/>
	<path fill-rule="evenodd" fill="#8F8F8F" d="M797.51,330.654c6.344,5.299,13.168,9.818,20.904,12.848
		c0.918,0.358,2.143,0.527,1.859,1.829c-0.365,1.682-1.613,1.05-2.764,0.845c-7.557-1.35-14.668-3.598-20.049-9.518
		c-2.725-0.737-1.547-2.483-1.047-4.055C796.779,331.954,797.145,331.303,797.51,330.654z"/>
	<path fill-rule="evenodd" fill="#8F8F8F" d="M832.537,360.658c0.648,1.729,1.297,3.458,1.943,5.188
		c-6.711-3.5-13.23-7.302-19.111-12.114c4.293,0.526,8.098,3.163,12.842,2.194C830.879,355.382,831.025,359.077,832.537,360.658z"/>
	<path fill-rule="evenodd" fill="#989A98" d="M888.541,399.57c0.121-1.477,1.16-1.668,2.375-1.998c3.666-1,7.439-1.891,10.645-3.994
		c3.479-2.283,6.777-4.891,6.197-9.91c1.773,7.986-6.688,16.219-17.152,16.988C889.918,400.295,889.229,399.932,888.541,399.57z"/>
	<path fill-rule="evenodd" fill="#68A97D" d="M796.414,332.603c0.316,1.36-0.363,2.979,1.049,4.055
		c0.682,2.287,1.35,4.577,1.061,7.011c-0.697-0.374-1.477-0.648-2.08-1.139C790.494,337.7,790.502,337.69,796.414,332.603z"/>
	<path fill-rule="evenodd" fill="#959B97" d="M895.35,402.738c4.963-0.076,8.051-3.684,11.844-6.797
		c-0.396,5.451-5.697,6.16-7.637,9.645C897.977,404.898,896.27,404.398,895.35,402.738z"/>
	<path fill-rule="evenodd" fill="#61C381" d="M657.544,232.654c0.829-0.018,1.573-0.204,2.007-1.009
		c3.709,2.822,6.771,6.277,9.611,10C664.871,239.175,660.779,236.477,657.544,232.654z"/>
	<path fill-rule="evenodd" fill="#62C482" d="M711.014,120.761c1.557,0.089,2.633,1.125,3.088,2.539
		c0.312,0.97-0.666,1.434-1.533,1.153c-1.342-0.434-3.037-0.675-3.381-2.325C709.027,121.368,710.016,120.857,711.014,120.761z"/>
	<path fill-rule="evenodd" fill="#6AC888" d="M458.476,486.621c10.552,3.91,20.452,9.262,30.684,13.883
		c16.174,7.303,32.305,14.703,48.458,22.053c20.225,9.201,40.458,18.387,60.668,27.619c0.539,0.246,0.855,0.977,1.276,1.48
		c0.214,3.471-2.667,5.207-4.454,7.395c-6.417,7.857-12.983,15.594-19.42,23.438c-4.514,5.5-5.82,5.691-11.442,1.477
		c-26.897-20.164-53.781-40.344-80.605-60.604c-10.618-8.021-21.25-16.029-31.854-24.07c-5.18-3.928-5.171-4.604,0.187-7.771
		C454.364,490.105,455.055,486.547,458.476,486.621z"/>
	<path fill-rule="evenodd" fill="#649574" d="M440.53,479.568c-22.007,9.588-44.021,19.16-66.009,28.789
		c-2.196,0.961-3.218,1.201-4.6-1.613c-7.365-15-13.621-30.482-20.378-45.744c-4.139-9.35-8.809-18.477-12.125-28.182
		c3.017-1.777,5.114,0.816,7.404,1.787c6.654,2.816,13.151,6.002,19.71,9.043c5.862,9.924,10.355,20.482,13.917,31.398
		c0.972,2.979,1.822,3.299,4.41,2.156c7.922-3.494,15.998-6.637,23.927-10.119c1.848-0.812,3.661-1.611,5.74-1.424
		c2.107,1.742,5.486,1.246,7.022,3.99c-1.879,3.496-5.624,3.926-8.79,5.105c-8.863,3.305-17.407,7.326-26.033,11.164
		c-1.782,0.793-3.715,1.504-4.494,4.021c2.819-0.602,5.033-2.098,7.415-3.156c11.084-4.932,22.462-9.164,33.554-14.078
		c1.369-0.605,2.793-1.102,4.336-1.045c4.382,1.973,8.741,4,13.164,5.877C439.735,477.979,440.422,478.434,440.53,479.568z"/>
	<path fill-rule="evenodd" fill="#46BB6D" d="M458.476,486.621c-2.771,2.486-4.49,5.979-8.539,7.277
		c-2.593,0.83-0.25,2.434,0.675,3.137c10.276,7.807,20.642,15.496,30.945,23.268c24.709,18.637,49.394,37.305,74.098,55.947
		c3.964,2.992,8.029,5.85,11.953,8.893c2.526,1.959,3.918,0.279,5.331-1.408c7.543-9.004,15.066-18.025,22.584-27.051
		c1.375-1.652,2.694-3.35,4.04-5.027c3.176,0.008,6.553,1.275,7.829,3.537c0.813,1.441-2.371,4.203-4.066,6.188
		c-11.529,13.492-23.091,26.957-34.456,40.586c-2.31,2.77-3.21,2.432-4.521-0.578c-0.639-1.467-1.762-2.873-3.002-3.898
		c-10.21-8.453-20.5-16.812-30.766-25.199c-14.37-11.738-28.724-23.498-43.118-35.207c-9.25-7.523-18.561-14.973-27.843-22.455
		c-0.263-1.41,0.368-3.035-1.003-4.182c-1.69-0.584-2.745-1.932-3.458-3.398c-3.158-6.494-8.809-9.062-15.474-10.219
		c-2.237-0.387-4.665-0.377-6.392-2.264c3.101-4.631,6.202-9.262,9.304-13.893c1.031-0.469,1.956-1.031,3.221-0.375
		C450.002,482.471,454.25,484.523,458.476,486.621z"/>
	<path fill-rule="evenodd" fill="#4AA86A" d="M412.526,465.66c-10.716,4.686-21.434,9.365-32.147,14.059
		c-1.316,0.576-2.632,1.16-2.806-1.072c-0.812-10.385-7.178-18.672-10.599-28.068c-0.838-2.303-2.657-4.254-2.441-6.93
		c5.91,2.17,11.778,4.428,17.021,8.016c3.448,2.461,4.517,6.459,6.215,9.982c1.333,2.764,2.84,3.182,5.449,1.863
		c2.622-1.324,5.136-3.131,8.331-2.832C405.337,462.055,409.358,462.918,412.526,465.66z"/>
	<path fill-rule="evenodd" fill="#9C8D7B" d="M458.548,522.607c-0.13,5.652-2.394,8.131-8.359,10.006
		c-8.419,2.648-16.992,2.109-25.633,1.637c8.531-1.332,17.421-1.484,24.302-7.896c-8.289,3.568-16.966,5.152-25.852,4.207
		c-8.332-0.885-17.761,0.09-22.312-9.773c5.622,3.023,11.379,5.234,17.828,5.994c8.709,1.027,17.061-0.062,25.389-2.369
		c4.255-1.178,8.651-1.871,12.691-3.771C457.858,520.697,458.498,521.361,458.548,522.607z"/>
	<path fill-rule="evenodd" fill="#69C888" d="M332.516,350.691c-4.098-6.062-6.653-12.929-10.099-19.331
		c-0.781-1.45-0.688-3.08,1.242-2.561c5.633,1.516,9.297-2.226,13.568-4.457c3.084-1.611,6.218-3.126,9.33-4.684
		c-1.414,7.096-5.929,12.861-8.409,19.526C336.673,343.149,335.546,347.429,332.516,350.691z"/>
	<path fill-rule="evenodd" fill="#84B895" d="M572.932,612.955c-1.435-3.764,0.605-6.332,2.588-8.678
		c12.181-14.404,24.468-28.719,36.708-43.074c1.188-1.395,2.506-3.32,4.367-1.66c1.965,1.754-0.485,2.84-1.422,3.957
		c-12.001,14.328-24.026,28.637-36.091,42.91C577.18,608.66,575.048,610.715,572.932,612.955z"/>
	<path fill-rule="evenodd" fill="#77AD88" d="M425.536,471.662c-7.328,3.32-14.5,7.064-22.031,9.836
		c-6.53,2.402-12.766,5.365-19.062,8.232c-1.968,0.896-3.855,1.713-6.298,1.465c1.015-3.203,3.054-5.152,6.052-6.418
		c11.807-4.988,23.571-10.076,35.352-15.125C421.793,469.58,423.969,469.715,425.536,471.662z"/>
	<path fill-rule="evenodd" fill="#65B37E" d="M401.548,460.678c-0.239,0.225-0.444,0.588-0.722,0.656
		c-4.159,1.025-8.115,5.934-11.716,4.053c-3.02-1.576-4.077-6.918-5.995-10.598c-0.538-1.033-1.043-2.082-1.562-3.125
		C388.532,453.973,395.152,457.076,401.548,460.678z"/>
	<path fill-rule="evenodd" fill="#649474" d="M627.545,486.664c-12.617,5.301-25.538,6.133-38.732,2.553
		c-11.491-3.119-22.155-8.141-31.628-15.281c-13.049-9.838-24.694-21.057-31.686-36.26c3.844-5.584,10.003-8.385,15.1-12.457
		c1.727-1.381,3.521,0.086,4.989,1.117c24.245,17.045,49.089,33.17,74.448,48.5C624.61,477.602,628.521,480.508,627.545,486.664z"/>
	<path fill-rule="evenodd" fill="#84B895" d="M402.512,314.663c-0.007-0.336-0.014-0.673-0.021-1.009
		c1.802-3.243,3.134,0.129,3.92,0.666c12.461,8.51,24.794,17.208,37.114,25.925c16.379,11.589,32.721,23.229,49.079,34.849
		c29.634,21.051,60.032,40.975,90.27,61.131c28.731,19.15,58.416,36.783,88.244,54.145c30.018,17.471,60.568,33.99,91.469,49.869
		c23.363,12.006,46.48,24.486,69.689,36.789c2.531,1.342,5.332,2.537,6.361,6.838c-11.785-6.131-22.748-11.779-33.656-17.531
		c-8.215-4.33-16.275-8.957-24.547-13.168c-22.82-11.619-45.305-23.865-67.881-35.941c-33.531-17.936-65.945-37.762-98.479-57.408
		c-25.432-15.355-49.925-32.119-74.573-48.65c-25.894-17.365-51.328-35.404-76.667-53.575
		c-17.774-12.746-35.764-25.19-53.636-37.799C406.904,318.174,404.738,316.376,402.512,314.663z"/>
	<path fill-rule="evenodd" fill="#54B172" d="M461.536,367.662c-0.988,13.829-11.268,25.391-28.939,21.668
		c-4.204-0.885-5.855,0.074-6.837,3.777c-0.338,1.275-0.94,2.48-1.416,3.719c-0.725,1.891-2.101,1.092-3.347,0.812
		c-1.608-0.361-2.305-1.158-1.522-2.857c0.555-1.203,0.757-2.592,1.429-3.711c2.305-3.842,0.499-5.803-2.852-7.707
		c-10.28-5.842-13.847-16.571-9.706-27.747c0.933-2.516,1.885-2.919,4.377-1.955c4.092,1.583,6.652,3.171,4.956,8.493
		c-1.89,5.926,1.148,10.55,5.93,14.107c1.167,0.867,2.32,1.857,3.11-0.121c3.492-8.743,8.146-17.06,9.806-26.482
		c2.749,0.613,4.096,3.673,7.002,4.011c0.244,0.265,0.344,0.544,0.301,0.837c-0.044,0.301-0.102,0.451-0.165,0.453
		c-4.382,6.5-6.414,14.084-9.654,21.111c-0.926,2.01,0.176,3.135,2.293,3.271c4.343,0.281,8.349-0.508,10.966-4.352
		c2.785-4.091,3.729-8.394,0.866-12.989c-1.073-1.723-3.331-2.958-2.63-5.544c0.727-0.433,1.395-0.32,2.019,0.209
		C451.489,361.231,457.397,363.319,461.536,367.662z"/>
	<path fill-rule="evenodd" fill="#5CB177" d="M436.53,349.669c-3.243-1.236-5.907-3.245-8.014-5.999
		C432.2,344.317,434.754,346.473,436.53,349.669z"/>
	<path fill-rule="evenodd" fill="#5CB177" d="M447.524,356.667c-0.669-0.003-1.338-0.005-2.007-0.007
		c-1.59,0.276-2.261-0.374-1.989-1.975c0-0.339,0-0.677-0.001-1.016C444.998,354.485,446.809,354.845,447.524,356.667z"/>
	<path fill-rule="evenodd" fill="#9C8E7B" d="M433.291,494.566c11.387,0.6,20.835,4.289,25.323,15.883
		c-0.236,5.842-2.326,8.287-8.891,9.992c-13.817,3.59-27.362,3.469-40.89-3.693c2.884,4.992,7.891,5.328,12.967,7.943
		c-6.631-0.766-11.941-1.561-16.896-3.887c-3.474-1.631-4.495-4.658-4.45-8.229c0-0.002-0.002,0.043-0.002,0.043
		c1.309-1.363,2.109-3.379,4.807-1.752c14.199,8.559,28.976,8.059,43.998,2.428c0.453-0.17,0.838-0.523,1.483-0.477
		c-13.912,5.383-27.748,6.092-41.627,0.324c-2.323-0.965-4.42-2.264-5.726-4.537c-2.194-4.57,1.119-6.877,4.086-8.805
		c6.135-3.986,13.092-5.287,20.355-5.127C429.648,494.715,431.47,494.605,433.291,494.566z"/>
	<path fill-rule="evenodd" fill="#A29582" d="M403.388,508.605c16.698,10.525,33.625,8.99,51.173,1.238
		c-3.962,5.238-9.763,6.523-15.467,7.773c-10.85,2.373-21.32,0.688-31.387-3.682c-2.385-1.035-4.104-4.768-7.254-1.316
		C400.634,510.697,402.125,509.734,403.388,508.605z"/>
	<path fill-rule="evenodd" fill="#8E8E8E" d="M896.537,347.657c-8.865,9.02-20.463,10.277-32.105,10.932
		c-11.152,0.628-22.238-0.059-32.879-4.038c-6.842-2.559-10.064-6.449-9.717-12.475c10.66,9.254,23.334,11.181,36.566,11.64
		c11.689,0.405,22.557-3.21,33.619-6.021c1.457-0.37,3.004-1.968,4.514-0.033L896.537,347.657z"/>
	<path fill-rule="evenodd" fill="#8E8E8E" d="M803.537,324.661c0.094-1.457,0.822-1.525,1.982-1.004
		c4.838,2.174,9.867,3.726,15.037,4.936c2.061,0.481,3.516,2.313,6.225,0.633c1.152-0.715,3.943,2.17,4.336,4.092
		c1.91,9.357,9.898,11.189,16.918,14.251c1.469,0.641,3.111,0.877,4.566,1.713c-9.34-0.688-18.637-1.49-26.826-6.812
		c-1.879-1.222-4.062-2.983-3.904-4.846c0.342-4.071-2.172-4.408-4.859-4.966c-5.416-1.122-9.553-4.378-13.479-8L803.537,324.661z"
		/>
	<path fill-rule="evenodd" fill="#8E8E8E" d="M792.512,301.65c-2.314-4.75,0.336-7.569,3.9-10.033
		c4.107-0.771,5.59,2.175,7.125,5.041c1.076,5.702,5.732,7.736,10.211,9.926c6.268,3.064,13.17,3.851,19.832,5.521
		C818.885,312.583,804.252,312.837,792.512,301.65z"/>
	<path fill-rule="evenodd" fill="#9C8E7B" d="M401.392,529.549c3.905-1.225,6.976,1.068,10.085,2.639
		c15.892,8.023,31.386,7.238,47.102-1.877c-0.681,3.609-3.097,5.221-5.896,6.146c-14.686,4.855-29.146,4.82-43.109-2.252
		c2.732,4.445,7.292,6.387,18.783,8.072c-7.346,0.701-14.611,0.729-21.545-2.486c-5.882-2.727-6.693-4.219-5.385-10.273
		C401.426,529.516,401.392,529.549,401.392,529.549z"/>
	<path fill-rule="evenodd" fill="#9D8F7C" d="M403.492,544.727c-0.035-2.615,0.499-5.547,3.588-2.607
		c7.224,6.871,15.944,8.771,25.41,8.998c-10.421,1.148-20.332,0.115-29.013-6.434C403.476,544.684,403.492,544.727,403.492,544.727z
		"/>
	<path fill-rule="evenodd" fill="#9D8E7B" d="M458.61,558.561c-0.237,5.736-2.441,8.16-8.347,10.041
		c-8.415,2.68-16.991,2.045-25.602,1.547c5.505-0.213,10.931-1.051,16.359-1.824c7.08-1.008,11.969-6.078,17.602-9.758
		C458.624,558.566,458.61,558.561,458.61,558.561z"/>
	<path fill-rule="evenodd" fill="#9D8E7B" d="M458.658,556.75c-5.222,3.23-10.629,5.898-17.039,5.609
		c5.123-1.629,9.992-3.779,14.315-6.957c2.188-1.607,2.749-0.875,2.706,1.41C458.64,556.814,458.658,556.75,458.658,556.75z"/>
	<path fill-rule="evenodd" fill="#8E8E8E" d="M797.428,263.627c15.227-6.258,30.99-7.255,47.145-5.021
		c6.271,0.866,12.123,3.014,18.039,5.037c0.627,0.003,1.254,0.006,1.881,0.01c0.689,0.689,1.381,1.379,2.07,2.069
		c0.332,1.294,0.662,2.587,0.992,3.88c0.734,5.735-3.172,8.416-7.336,10.665c-6.395,3.452-13.551,4.699-20.605,5.203
		c-10.76,0.771-21.557,0.431-32.158-2.303c-5.816-1.499-10.693-4.392-14.938-8.518C790,269.125,793.584,266.318,797.428,263.627z"/>
	<path fill-rule="evenodd" fill="#8E8E8E" d="M792.512,283.649c-1.24-2.001-1.285-3.995,0.039-5.98
		c14.473,15.357,56.219,16.648,74.461,0.748c1.059,1.688,0.271,3.527,0.523,5.241c-8.846,8.998-20.418,10.283-32.035,10.909
		c-8.246,0.445-16.514,0.265-24.707-1.602C803.832,291.379,797.545,288.844,792.512,283.649z"/>
	<path fill-rule="evenodd" fill="#67A77C" d="M601.512,386.686c-2.816-14.917,0.131-28.583,9.871-40.258
		c14.175-16.992,33.255-23.882,54.751-25.193c30.91-1.885,57.836,8.203,79.645,29.632c17.27,16.969,21.936,38.841,10.295,60.402
		c-6.418,11.887-16.973,19.959-29.232,25.311c-8.959,3.91-18.475,6.348-28.328,7.041c-1.654-1.842-1.295-4.084-1.043-6.195
		c1.027-8.617,0.637-17.316,1.578-25.926c0.359-3.287-0.895-5.58-2.906-8.08c-9.004-11.189-21.695-17.289-33.492-24.584
		c-4.611-2.852-10.416-1.943-15.48-3.646c-1.567-0.525-3.367-0.422-4.848-1.164c-8.294-4.164-15.881-2.729-23.385,2.242
		C613.302,379.998,606.222,381.359,601.512,386.686z"/>
	<path fill-rule="evenodd" fill="#649474" d="M601.512,386.686c-0.25-2.359,1.033-3.566,3.026-4.566
		c7.718-3.873,15.359-7.896,23.055-11.814c2.194-1.117,4.562-0.956,6.776-0.154c7.641,2.767,15.438,4.771,23.545,5.609
		c4.451,0.461,7.969,3.275,11.598,5.498c6.59,4.041,13.156,8.215,19.232,12.973c4.15,3.25,7.92,7.254,10.984,11.545
		c2.396,3.354,0.217,7.723,0.166,11.613c-0.111,8.748-0.881,17.488-1.381,26.23c-14.986,0.732-29.773,0.004-44.016-5.449
		c-17.324-6.635-32.604-16.229-43.928-31.148C606.054,401.072,603.888,393.758,601.512,386.686z"/>
	<path fill-rule="evenodd" fill="#54B172" d="M562.094,228.673c5.825-0.376,10.408,1.979,14.561,5.124
		c2.881,2.183,4.909,2.28,6.874-1.015c0.795-1.333,1.653-3.965,3.881-1.976c1.628,1.453,4.23,3.421,0.665,5.862
		c-3.548,2.43-3.166,4.972-0.528,8.159c9.758,11.791,6.669,29.206-4.241,37.722c-7.538,5.883-18.762,6.203-27.977-0.874
		c-3.117-2.394-4.773-1.893-6.987,0.641c-5.458,6.245-10.99,12.427-16.538,18.592c-2.392,2.657-0.676,4.202,1.439,5.56
		c5.477,3.515,12.854,3.07,17.458-1.642c2.958-3.027,4.59-3.053,7.217,0.342c4.69,6.063,4.854,6.193-1.5,10.548
		c-9.729,6.666-17.658,7.009-27.584-0.103c-4.79-3.432-7.774-3.37-11.245,1.283c-0.941,1.263-1.933,4.593-4.891,2.366
		c-2.537-1.908-2.506-3.758-0.203-6.156c5.915-6.159,5.814-6.256,0.77-13.328c-9.846-13.806-2.497-36.392,13.597-41.165
		c5.858-1.738,11.307,0.725,16.668,3c3.458,1.468,6.679,5.431,10.1,4.364c3.044-0.95,5.228-4.859,7.638-7.597
		c3.284-3.728,6.355-7.644,9.646-11.364c2.354-2.661,0.921-3.855-1.436-5.297c-5.417-3.315-10.259-1.481-14.854,1.528
		c-5.778,3.787-6.58-2.653-9.106-4.652c-2.857-2.261,1.07-3.498,2.365-4.626C551.992,230.387,556.713,228.039,562.094,228.673z"/>
	<path fill-rule="evenodd" fill="#54B172" d="M804.141,452.645c4.174-0.023,8.32,0.57,12.197,1.939
		c3.104,1.096,5.033,0.414,6.752-2.123c3.527-5.213,7.072-10.416,10.691-15.566c2-2.848,1.287-3.875-2.09-4.414
		c-4.434-0.709-8.084,0.494-11.594,3.025c-1.881,1.355-3.451,3.414-6.537,1.77c-5.555-2.957-5.844-3.51-1.318-7.805
		c6.73-6.387,14.574-8.129,23.408-5.254c3.479,1.133,6.725,1.943,8.6-2.582c0.703-1.695,2.289-1.723,3.773-0.699
		c1.75,1.211,1.994,2.814,0.443,4.168c-3.113,2.721-1.355,4.588,0.912,6.352c8.398,6.537,8.865,17.646,6.039,23.271
		c-5.475,10.895-14.213,15.43-24.498,13.203c-10.725-2.32-10.717-2.316-16.871,6.854c-2.676,3.99-5.248,8.059-8.131,11.895
		c-1.6,2.127-0.9,2.701,1.211,3.32c6.953,2.041,12.846,0.34,17.523-5.078c3.844-4.453,6.355,0.215,8.711,1.566
		c2.828,1.625,0.086,3.658-1.316,5.131c-8.416,8.84-17.488,11.119-28.316,6.449c-3.328-1.434-5.158-1.117-6.902,1.783
		c-0.682,1.135-1.516,2.178-2.295,3.25c-1.303,1.795-2.793,1.336-4.346,0.367c-2.004-1.252-0.799-2.59-0.039-3.791
		c3.83-6.039,3.979-6.162-1.311-11.148c-6.092-5.744-8.158-12.674-5.395-20.352C787.373,457.256,794.084,452.623,804.141,452.645z"
		/>
	<path fill-rule="evenodd" fill="#54B172" d="M697.562,216.526c-0.609-3.487,0.557-7.008,2.029-10.346
		c1.324-3.005,0.537-4.599-2.379-5.704c-2.059-0.781-4.031-1.599-2.348-4.659c1.67-3.038,3.219-1.979,5.102-0.494
		c2.906,2.294,5.061,1.628,7.314-1.304c7.096-9.232,16.445-11.729,27.412-8.293c1.916,0.6,5.729,1.392,3.73,4.044
		c-1.861,2.473-0.73,9.478-7.416,6.617c-2.594-1.11-5.346-1.104-7.852-0.544c-3.721,0.831-8.195,2.325-8.893,6.219
		c-0.529,2.948,3.971,3.681,6.402,5.155c4.969,3.013,10.031,5.871,14.955,8.953c2.178,1.363,3.76,1.41,5.609-0.615
		c2.227-2.442,4.975-4.432,7.326-6.708c12.223-11.828,27.359-5.147,35.801,5.552c5.516,6.992,5.631,15.008,3.039,23.104
		c-2.324,7.261-2.506,7.202,4.014,11.083c1.137,0.677,2.461,1.175,3.359,2.089c1.232,1.256,0.027,2.505-0.631,3.573
		c-1.168,1.897-2.719,1.312-4.348,0.536c-8.066-3.846-7.85-3.598-14.393,2.831c-9.037,8.881-19.973,9.017-30.752,3.435
		c-1.615-0.836-2.131-2.111-1.293-4.158c2.535-6.199,4.242-7.095,10.283-4.704c6.143,2.431,14.221-0.056,17.719-5.359
		c1.162-1.762,0.346-2.876-1.047-3.695c-8.016-4.716-16.055-9.393-24.123-14.019c-2.102-1.205-3.119,0.398-4.525,1.727
		c-4.193,3.959-8.264,7.984-14.076,9.916C712.283,245.844,695.715,230.84,697.562,216.526z"/>
	<path fill-rule="evenodd" fill="#60C080" d="M544.525,169.649c-5.033,2.334-8.486,6.661-12.531,10.191
		c-5.557,4.85-6.353,4.798-8.393-2.434c-1.521-5.39,0.061-9.794,4.63-12.898c4.433-3.011,10.542-3.127,14.383-0.116
		c1.641,1.286,3.717,2.624,1.913,5.258L544.525,169.649z"/>
	<path fill-rule="evenodd" fill="#69C888" d="M443.529,354.685c0.663,0.658,1.326,1.316,1.989,1.975
		c4.591,4.997,7.912,10.146,3.973,17.264c-2.97,5.367-9.785,8.502-15.654,6.629c-1.448-0.463-2.424-1.24-1.759-2.898
		c3.006-7.501,6.021-15,9.161-22.445C441.417,354.789,442.739,354.849,443.529,354.685z"/>
	<path fill-rule="evenodd" fill="#629E76" d="M670.201,369.388c-1.787-1.606-4.59-1.037-4.469-4.075
		c0.121-3.081,3.412-3.677,4.176-6.125c0.955,0.873,3.029,0.424,2.436,3.082C671.789,364.758,669.469,366.413,670.201,369.388z"/>
	<path fill-rule="evenodd" fill="#619D75" d="M683.539,366.762c0,1.448-0.428,3.093,0.121,4.289
		c0.551,1.203-1.506,4.742,2.609,3.521c0.42-0.125,0.832,1.551,0.553,2.623c-0.42,1.615-0.752,3.383,0.643,4.664
		c0.957,0.877,1.719,1.346,0.301,2.504c-1.529,1.248-1.498-0.523-2.068-0.961c-3.008-2.301-2.992-5.947-3.535-9.148
		c-0.395-2.335,0.377-4.867,0.629-7.311C683.041,366.882,683.289,366.823,683.539,366.762z"/>
	<path fill-rule="evenodd" fill="#619C74" d="M695.756,391.631c-0.732-1.754-1.037-3.543-0.451-5.312
		c0.111-0.336-0.279-2.545,1.076-1.061c0.568,0.619,3.18-0.312,1.771,1.693C697.078,388.479,697.922,390.697,695.756,391.631z"/>
	<path fill-rule="evenodd" fill="#619C75" d="M687.732,360.457c2.859,0.954-0.438,4.798,3.043,5.15
		c-0.068,0.425,0.012,0.996-0.234,1.244c-0.574,0.578-1.318,0.271-1.779-0.185C686.986,364.912,686.18,362.939,687.732,360.457z"/>
	<path fill-rule="evenodd" fill="#619C75" d="M699.051,368.83c1.023,2.36,1.711,3.948,2.479,5.717
		c-2.027,0.039-4.041-0.596-4.85-2.051C695.979,371.235,698.531,370.74,699.051,368.83z"/>
	<path fill-rule="evenodd" fill="#609973" d="M692.793,374.377c0-2.561,0-5.124,0-7.685c0.166,0.002,0.334,0.003,0.5,0.005
		c0,2.587,0,5.174,0,7.76C693.127,374.432,692.959,374.404,692.793,374.377z"/>
	<path fill-rule="evenodd" fill="#69C888" d="M519.424,287.186c0.064-8.365,3.326-12.982,9.367-15.615
		c5.826-2.538,10.444,1.021,15.248,3.389c1.188,0.586,1.059,1.484,0.307,2.447c-0.814,1.042-1.423,2.266-2.33,3.211
		c-4.81,5.01-9.864,9.796-13.888,15.512c-2.004,2.847-3.962,2.422-5.736-0.217C520.292,292.79,519.276,289.338,519.424,287.186z"/>
	<path fill-rule="evenodd" fill="#69C888" d="M582.54,260.484c-0.125,11.302-9.437,17.564-19.257,12.951
		c-4.336-2.036-4.486-3.252-1.238-6.83c3.998-4.405,7.97-8.846,11.721-13.46c3.328-4.094,4.128-4.174,6.978,0.282
		C582.492,256.162,582.584,256.523,582.54,260.484z"/>
	<path fill-rule="evenodd" fill="#69C888" d="M792.516,475.008c0.25-11.746,11.297-14.613,20.162-11.711
		c1.24,0.406,2.016,1.186,1.031,2.621c-4.221,6.145-8.387,12.324-12.643,18.441c-1.062,1.527-2.338,1.586-3.701,0.111
		C794.744,481.637,792.037,478.885,792.516,475.008z"/>
	<path fill-rule="evenodd" fill="#69C888" d="M832.375,458.676c-0.451-0.049-1.975-0.016-3.383-0.408
		c-1.906-0.529-2.725-1.396-1.139-3.51c3.754-5,7.316-10.15,10.754-15.373c1.67-2.535,2.869-2.443,4.891-0.354
		c3.594,3.717,3.873,7.857,2.146,12.352C843.498,456.969,839.037,458.842,832.375,458.676z"/>
	<path fill-rule="evenodd" fill="#69C888" d="M778.602,229.904c-0.113,1.224-0.109,2.066-0.277,2.873
		c-1.385,6.576-2.199,6.847-8.023,3.358c-5.111-3.061-10.348-5.915-15.533-8.85c-6.43-3.64-6.453-3.926-0.604-8.487
		c9.469-7.384,20.863-3.556,23.928,8.06C778.385,227.969,778.477,229.134,778.602,229.904z"/>
	<path fill-rule="evenodd" fill="#69C888" d="M722.73,230.227c-10.4,0.244-17.691-10.959-13.896-19.137
		c0.885-1.904,1.822-2.557,3.775-1.417c6.732,3.932,13.498,7.81,20.266,11.681c1.27,0.728,1.816,1.601,0.547,2.681
		C729.9,227.035,726.584,230.49,722.73,230.227z"/>
</g>
</svg>
